<?xml version="1.0" encoding="utf-8"?>
<!-- Generator: Adobe Illustrator 24.3.0, SVG Export Plug-In . SVG Version: 6.00 Build 0)  -->
<svg version="1.1" id="Layer_1" xmlns="http://www.w3.org/2000/svg" xmlns:xlink="http://www.w3.org/1999/xlink" x="0px" y="0px"
	 width="102.8px" height="572px" viewBox="0 0 102.8 572" style="enable-background:new 0 0 102.8 572;" xml:space="preserve">
<style type="text/css">
	.st0{fill:#4697CD;}
	.st1{fill-rule:evenodd;clip-rule:evenodd;fill:#4697CD;}
	.st2{fill:#D8D1D1;}
	.st3{fill-rule:evenodd;clip-rule:evenodd;fill:#D8D1D1;}
</style>
<g>
	<path class="st0" d="M15,15c0,0.6-0.4,1-1,1H4c-0.5,0-1-0.4-1-1V6c0-0.6,0.5-1,1-1h2.2c0.7-0.8,1.5-1.5,2.2-2H4C2.3,3,1,4.3,1,6v9
		c0,1.7,1.3,3,3,3h10c1.7,0,3-1.3,3-3V9.7l-2,1.7V15z M5,13c0,0,3.9-5.8,8-5.4v3.2l6-4.9L13,1v3C11.3,4,6.4,3.8,5,13z"/>
</g>
<g>
	<g>
		<g>
			<g>
				<path class="st0" d="M12.7,75.9h-0.2c-0.5,0-0.9-0.2-1.2-0.6l-0.9-1H9.5l-0.9,1.1c-0.4,0.5-1.2,0.7-1.8,0.4l-0.9-0.4
					c-0.6-0.3-1-0.9-0.9-1.6l0.2-1.4l0,0c-0.2-0.2-0.4-0.4-0.6-0.6l0,0L3,71.9c0,0,0,0,0,0c-0.7,0-1.3-0.4-1.5-1l-0.4-0.9
					c-0.3-0.6-0.1-1.4,0.5-1.8l1.1-0.9v-0.8l-1.1-0.9C1,65,0.9,64.3,1.1,63.7l0.4-0.9c0.2-0.5,0.8-0.9,1.4-0.9H3L4.7,62v0
					c0.2-0.2,0.3-0.3,0.5-0.5l0,0L5.1,60c-0.1-0.7,0.3-1.4,1-1.6L7,58c0.7-0.3,1.4-0.1,1.8,0.4l1,1.2h0.7l1-1.2
					c0.4-0.5,1.1-0.7,1.7-0.5l0.9,0.4c0.6,0.3,1,0.9,1,1.6L15,61.6l0.5,0.5l1.6-0.1c0.7,0,1.3,0.4,1.5,1l0.4,1
					c0.3,0.6,0.1,1.4-0.5,1.8l-1.1,0.9v0.7l1.1,1c0.5,0.4,0.7,1.2,0.4,1.8L18.5,71c-0.3,0.6-0.8,0.9-1.4,0.9L17,72l-1.5-0.2l0,0
					c-0.2,0.2-0.4,0.4-0.6,0.6l0,0l0.1,1.4c0,0.7-0.4,1.3-1,1.6l-1,0.4c0,0-0.1,0-0.2,0.1L12.7,75.9z M12.8,74L12.8,74L12.8,74z
					 M7,73.7l0.3,0.1l1.3-1.5h2.7l1.3,1.5l0.4-0.2l-0.2-2.1l0.7-0.7c0.2-0.2,0.3-0.3,0.4-0.4l0.7-0.8l2.2,0.2l0.1-0.3l-1.6-1.4v-2.6
					l1.6-1.4L16.9,64l-2.2,0.2l-1.8-1.8l0.2-2.2L12.8,60l-1.4,1.6H8.8L7.5,60l-0.3,0.1l0.3,2.2L6.6,63c-0.1,0.1-0.2,0.2-0.3,0.3
					l-0.7,0.8l-2.3-0.2l-0.1,0.3l1.6,1.3v2.7l-1.6,1.3l0.1,0.3l2.1-0.2L6,70.4c0.1,0.2,0.3,0.3,0.4,0.4l0.8,0.7L7,73.7z M13.3,73.5
					L13.3,73.5L13.3,73.5z M6.7,73.5L6.7,73.5L6.7,73.5z M3.3,70.1L3.3,70.1C3.3,70.1,3.3,70.1,3.3,70.1z M17.2,69.8L17.2,69.8
					L17.2,69.8z M2.8,69.7L2.8,69.7L2.8,69.7z M3,69.2L3,69.2C3,69.2,3,69.2,3,69.2z M17.1,64.6L17.1,64.6L17.1,64.6z M17.2,64.1
					L17.2,64.1L17.2,64.1z M3.4,63.5L3.4,63.5C3.4,63.5,3.4,63.5,3.4,63.5z M6.9,60.2L6.9,60.2C6.9,60.2,6.9,60.2,6.9,60.2z
					 M13,59.8L13,59.8C13,59.8,13,59.8,13,59.8z"/>
			</g>
		</g>
	</g>
	<g>
		<path class="st0" d="M10,71C7.8,71,6,69.1,6,66.9s1.8-4.1,4.1-4.1s4.1,1.8,4.1,4.1S12.3,71,10,71z M10,64.8
			c-1.1,0-2.1,0.9-2.1,2.1S8.9,69,10,69s2.1-0.9,2.1-2.1S11.2,64.8,10,64.8z"/>
	</g>
</g>
<g>
	<path class="st0" d="M16.6,118.8h-1l-1.3-1.9c-0.4-0.7-1.2-1.1-2-1.1H7.8c-0.8,0-1.6,0.4-2,1.1l-1.3,1.9H3.4
		c-1.3,0-2.4,1.1-2.4,2.4v8.2c0,1.3,1.1,2.4,2.4,2.4h13.2c1.3,0,2.4-1.1,2.4-2.4v-8.2C19,119.9,18,118.8,16.6,118.8z M17,129.4
		c0,0.2-0.2,0.4-0.4,0.4H3.4c-0.2,0-0.4-0.2-0.4-0.4v-8.2c0-0.2,0.2-0.4,0.4-0.4h1.4c0.5,0,0.9-0.2,1.2-0.6l0.9-1.4l0.6-0.8
		c0.1-0.1,0.2-0.2,0.3-0.2h4.5c0.1,0,0.3,0.1,0.4,0.2l0.6,0.8l0.9,1.4c0.3,0.4,0.7,0.6,1.2,0.6h1.3c0.2,0,0.4,0.2,0.4,0.4V129.4z"/>
	<path class="st0" d="M10,120.8c-2.2,0-4.1,1.8-4.1,4.1s1.8,4.1,4.1,4.1s4.1-1.8,4.1-4.1S12.3,120.8,10,120.8z M10,126.9
		c-1.1,0-2.1-0.9-2.1-2.1s0.9-2.1,2.1-2.1s2.1,0.9,2.1,2.1S11.2,126.9,10,126.9z"/>
</g>
<path class="st1" d="M10,171.4c-5,0-9,4-9,9s4,9,9,9s9-4,9-9S15,171.4,10,171.4z M10,187.4c-3.9,0-7-3.1-7-7s3.1-7,7-7s7,3.1,7,7
	S13.9,187.4,10,187.4z M13.6,176.8l-4.2,4.2l-2.1-2.1l-1.4,1.4l3.5,3.5l1.4-1.4l0,0l4.2-4.2L13.6,176.8z"/>
<g>
	<path class="st0" d="M14.8,456.5c-7.6,0-13.8,6.2-13.8,13.8s6.2,13.8,13.8,13.8s13.8-6.2,13.8-13.8
		C28.7,462.7,22.5,456.5,14.8,456.5z M14.8,482.1c-6.5,0-11.8-5.3-11.8-11.8s5.3-11.8,11.8-11.8s11.8,5.3,11.8,11.8
		S21.4,482.1,14.8,482.1z"/>
	<polygon class="st0" points="12.7,472.7 8.1,468.5 6.7,470 12.7,475.4 22.1,466.4 20.8,464.9 	"/>
</g>
<g>
	<path class="st2" d="M15,242c0,0.6-0.4,1-1,1H4c-0.5,0-1-0.4-1-1v-9c0-0.6,0.5-1,1-1h2.2c0.6-0.8,1.5-1.5,2.2-2H4c-1.7,0-3,1.3-3,3
		v9c0,1.7,1.3,3,3,3h10c1.7,0,3-1.3,3-3v-5.3l-2,1.7V242z M5,240c0,0,3.9-5.8,8-5.4v3.2l6-4.9l-6-4.9v3C11.3,231,6.4,230.8,5,240z"
		/>
</g>
<g>
	<g>
		<g>
			<g>
				<path class="st2" d="M12.7,302.9h-0.2c-0.5,0-0.9-0.2-1.2-0.6l-0.9-1H9.5l-0.9,1.1c-0.4,0.5-1.2,0.7-1.8,0.4l-0.9-0.4
					c-0.6-0.3-1-0.9-0.9-1.6l0.2-1.4l0,0c-0.2-0.2-0.4-0.4-0.6-0.6l0,0L3,298.9c0,0,0,0,0,0c-0.7,0-1.3-0.4-1.5-1l-0.4-0.9
					c-0.3-0.6-0.1-1.4,0.5-1.8l1.1-0.9v-0.8l-1.1-0.9c-0.5-0.5-0.7-1.2-0.4-1.8l0.4-0.9c0.2-0.5,0.8-0.9,1.4-0.9H3l1.7,0.2v0
					c0.2-0.2,0.3-0.4,0.5-0.5l0,0L5.1,287c-0.1-0.7,0.3-1.4,1-1.6l0.9-0.4c0.7-0.3,1.4-0.1,1.8,0.4l1,1.2h0.7l1-1.2
					c0.4-0.5,1.1-0.7,1.7-0.5l0.9,0.4c0.6,0.3,1,0.9,1,1.6l-0.2,1.6l0.5,0.5l1.6-0.1c0.7,0,1.3,0.4,1.5,1l0.4,1
					c0.3,0.6,0.1,1.4-0.5,1.8l-1.1,0.9v0.7l1.1,1c0.5,0.4,0.7,1.2,0.4,1.8l-0.4,0.9c-0.3,0.6-0.8,1-1.4,1l-0.1,0l-1.5-0.2l0,0
					c-0.2,0.2-0.4,0.4-0.6,0.5l0,0l0.1,1.4c0,0.7-0.4,1.3-1,1.6l-1,0.4c0,0-0.1,0-0.2,0.1L12.7,302.9z M12.8,301L12.8,301L12.8,301z
					 M7,300.7l0.3,0.1l1.3-1.5h2.7l1.3,1.5l0.4-0.1l-0.2-2l0.7-0.7c0.2-0.1,0.3-0.3,0.4-0.4l0.7-0.8l2.2,0.2l0.1-0.3l-1.6-1.4v-2.6
					l1.6-1.4l-0.1-0.3l-2.2,0.2l-1.8-1.8l0.2-2.2l-0.3-0.1l-1.4,1.6H8.8L7.5,287l-0.3,0.1l0.3,2.2L6.6,290c-0.1,0.1-0.2,0.2-0.3,0.3
					l-0.7,0.8l-2.3-0.2l-0.1,0.3l1.6,1.3v2.7l-1.6,1.3l0.1,0.4l2.1-0.2l0.7,0.8c0.1,0.1,0.3,0.3,0.4,0.4l0.8,0.7L7,300.7z
					 M13.3,300.5L13.3,300.5L13.3,300.5z M6.7,300.5L6.7,300.5C6.7,300.5,6.7,300.5,6.7,300.5z M3.3,297.1L3.3,297.1
					C3.3,297.1,3.3,297.1,3.3,297.1z M17.2,296.8L17.2,296.8L17.2,296.8z M2.8,296.7L2.8,296.7L2.8,296.7z M3,296.2L3,296.2
					C3,296.2,3,296.2,3,296.2z M17.1,291.6L17.1,291.6L17.1,291.6z M17.2,291.1L17.2,291.1L17.2,291.1z M3.4,290.5L3.4,290.5
					C3.4,290.5,3.4,290.5,3.4,290.5z M6.9,287.2L6.9,287.2C6.9,287.2,6.9,287.2,6.9,287.2z M13,286.8L13,286.8
					C13,286.8,13,286.8,13,286.8z"/>
			</g>
		</g>
	</g>
	<g>
		<path class="st2" d="M10,298c-2.2,0-4.1-1.8-4.1-4.1s1.8-4.1,4.1-4.1s4.1,1.8,4.1,4.1S12.3,298,10,298z M10,291.8
			c-1.1,0-2.1,0.9-2.1,2.1S8.9,296,10,296s2.1-0.9,2.1-2.1S11.2,291.8,10,291.8z"/>
	</g>
</g>
<g>
	<path class="st2" d="M16.6,345.8h-1l-1.3-1.9c-0.4-0.7-1.2-1.1-2-1.1H7.8c-0.8,0-1.6,0.4-2,1.1l-1.3,1.9H3.4
		c-1.3,0-2.4,1.1-2.4,2.4v8.2c0,1.3,1.1,2.4,2.4,2.4h13.2c1.3,0,2.4-1.1,2.4-2.4v-8.2C19,346.9,18,345.8,16.6,345.8z M17,356.4
		c0,0.2-0.2,0.4-0.4,0.4H3.4c-0.2,0-0.4-0.2-0.4-0.4v-8.2c0-0.2,0.2-0.4,0.4-0.4h1.4c0.5,0,0.9-0.2,1.2-0.6l0.9-1.4l0.6-0.8
		c0.1-0.1,0.2-0.2,0.3-0.2h4.5c0.1,0,0.3,0.1,0.4,0.2l0.6,0.8l0.9,1.4c0.3,0.4,0.7,0.6,1.2,0.6h1.3c0.2,0,0.4,0.2,0.4,0.4V356.4z"/>
	<path class="st2" d="M10,347.8c-2.2,0-4.1,1.8-4.1,4.1s1.8,4.1,4.1,4.1s4.1-1.8,4.1-4.1S12.3,347.8,10,347.8z M10,353.9
		c-1.1,0-2.1-0.9-2.1-2.1s0.9-2.1,2.1-2.1s2.1,0.9,2.1,2.1S11.2,353.9,10,353.9z"/>
</g>
<path class="st3" d="M10,398.4c-5,0-9,4-9,9s4,9,9,9s9-4,9-9C19,402.4,15,398.4,10,398.4z M10,414.4c-3.9,0-7-3.1-7-7s3.1-7,7-7
	s7,3.1,7,7C17,411.2,13.9,414.4,10,414.4z M13.6,403.8l-4.2,4.2l-2.1-2.1l-1.4,1.4l3.5,3.5l1.4-1.4l0,0l4.2-4.2L13.6,403.8z"/>
</svg>
