<?xml version="1.0" encoding="utf-8"?>
<!-- Generator: Adobe Illustrator 23.0.2, SVG Export Plug-In . SVG Version: 6.00 Build 0)  -->
<svg version="1.1" id="Layer_1" xmlns="http://www.w3.org/2000/svg" xmlns:xlink="http://www.w3.org/1999/xlink" x="0px" y="0px"
	 width="37px" height="119px" viewBox="0 0 37 119" style="enable-background:new 0 0 37 119;" xml:space="preserve">
<style type="text/css">
	.st0{fill:none;stroke:#719CC0;stroke-miterlimit:10;}
	.st1{fill:none;stroke:#5B80A7;stroke-width:2;stroke-miterlimit:10;}
	.st2{fill:#0072BC;}
	.st3{fill:none;stroke:#FFFFFF;stroke-miterlimit:10;}
	.st4{fill:none;stroke:#0072BC;stroke-width:2;stroke-miterlimit:10;}
	.st5{fill:none;stroke:#0072BC;stroke-width:3;stroke-miterlimit:10;}
	.st6{fill:#5B80A7;}
</style>
<g>
	<circle class="st0" cx="5.5" cy="5.5" r="5"/>
	<line class="st0" x1="5.5" y1="3" x2="5.5" y2="8"/>
	<line class="st0" x1="3" y1="5.5" x2="8" y2="5.5"/>
</g>
<circle class="st1" cx="29.5" cy="7.6" r="6.5"/>
<g>
	<circle class="st0" cx="5.5" cy="27.6" r="5"/>
	<line class="st0" x1="3" y1="27.6" x2="8" y2="27.6"/>
</g>
<g>
	<circle class="st2" cx="9.4" cy="54.5" r="8.5"/>
	<g>
		<polyline class="st3" points="8,52.5 9.5,52.5 9.5,58.6 8,58.6 10.9,58.6 		"/>
		<line class="st3" x1="9.4" y1="50.9" x2="9.4" y2="50.1"/>
	</g>
</g>
<g>
	<circle class="st4" cx="13.1" cy="86.1" r="12"/>
	<polyline class="st5" points="6.4,85.6 11.5,90.6 20.6,81.5 	"/>
</g>
<g>
	<line class="st4" x1="6.1" y1="107" x2="6.1" y2="119"/>
	<line class="st4" x1="0.1" y1="113" x2="12.1" y2="113"/>
</g>
<g>
	<circle class="st1" cx="29.5" cy="27.6" r="6.5"/>
	<circle class="st6" cx="29.5" cy="27.6" r="3.5"/>
</g>
</svg>
