<?xml version="1.0" encoding="UTF-8"?>
<svg xmlns="http://www.w3.org/2000/svg" width="420.3" height="1346" version="1.1" xmlns:xlink="http://www.w3.org/1999/xlink" viewBox="0 0 420.3 1346">
  <defs>
    <style>
      .cls-1 {
        fill: #9ea3a7;
      }

      .cls-2 {
        fill: #bcd1e4;
      }

      .cls-3, .cls-4, .cls-5, .cls-6, .cls-7, .cls-8, .cls-9, .cls-10, .cls-11, .cls-12, .cls-13, .cls-14, .cls-15, .cls-16, .cls-17, .cls-18, .cls-19, .cls-20, .cls-21, .cls-22, .cls-23, .cls-24, .cls-25, .cls-26, .cls-27, .cls-28, .cls-29, .cls-30, .cls-31, .cls-32, .cls-33, .cls-34, .cls-35, .cls-36, .cls-37, .cls-38, .cls-39, .cls-40, .cls-41, .cls-42, .cls-43, .cls-44, .cls-45, .cls-46, .cls-47, .cls-48, .cls-49, .cls-50, .cls-51, .cls-52, .cls-53, .cls-54, .cls-55, .cls-56, .cls-57, .cls-58, .cls-59, .cls-60, .cls-61, .cls-62, .cls-63, .cls-64, .cls-65, .cls-66, .cls-67, .cls-68, .cls-69, .cls-70, .cls-71, .cls-72, .cls-73 {
        fill: none;
      }

      .cls-3, .cls-4, .cls-7, .cls-8, .cls-15, .cls-18, .cls-20, .cls-21, .cls-29, .cls-30, .cls-31, .cls-32, .cls-35, .cls-39, .cls-46, .cls-52, .cls-56, .cls-57, .cls-58, .cls-63, .cls-69, .cls-71 {
        stroke-linecap: round;
      }

      .cls-3, .cls-6, .cls-7, .cls-8, .cls-9, .cls-14, .cls-15, .cls-17, .cls-19, .cls-20, .cls-24, .cls-28, .cls-29, .cls-30, .cls-31, .cls-34, .cls-35, .cls-38, .cls-42, .cls-43, .cls-47, .cls-49, .cls-55, .cls-57, .cls-59, .cls-60, .cls-61, .cls-63, .cls-64, .cls-67, .cls-68, .cls-69, .cls-70, .cls-71, .cls-72 {
        stroke-width: 2px;
      }

      .cls-3, .cls-7, .cls-20, .cls-21, .cls-23, .cls-28, .cls-32, .cls-34, .cls-35, .cls-37, .cls-45, .cls-47, .cls-52, .cls-56, .cls-58, .cls-59, .cls-72 {
        stroke-linejoin: round;
      }

      .cls-3, .cls-42, .cls-69 {
        stroke: #21adea;
      }

      .cls-4 {
        stroke: #0c2236;
      }

      .cls-4, .cls-6, .cls-8, .cls-9, .cls-10, .cls-11, .cls-12, .cls-13, .cls-14, .cls-15, .cls-16, .cls-17, .cls-18, .cls-19, .cls-22, .cls-24, .cls-25, .cls-26, .cls-27, .cls-74, .cls-29, .cls-30, .cls-31, .cls-33, .cls-75, .cls-36, .cls-38, .cls-39, .cls-40, .cls-41, .cls-42, .cls-43, .cls-44, .cls-76, .cls-46, .cls-48, .cls-49, .cls-51, .cls-77, .cls-78, .cls-53, .cls-79, .cls-55, .cls-57, .cls-60, .cls-61, .cls-62, .cls-63, .cls-64, .cls-65, .cls-66, .cls-67, .cls-68, .cls-69, .cls-70, .cls-71, .cls-73 {
        stroke-miterlimit: 10;
      }

      .cls-4, .cls-11, .cls-21, .cls-52 {
        stroke-width: 1.5px;
      }

      .cls-5, .cls-54 {
        stroke-miterlimit: 10;
        stroke-width: 2px;
      }

      .cls-5, .cls-57 {
        stroke: #ff7b67;
      }

      .cls-6, .cls-59, .cls-71 {
        stroke: #7ed6fc;
      }

      .cls-7, .cls-31, .cls-38 {
        stroke: #8caac4;
      }

      .cls-80 {
        fill: #0071bc;
      }

      .cls-81 {
        fill: url(#linear-gradient-2);
      }

      .cls-8, .cls-21, .cls-50, .cls-51, .cls-78, .cls-66, .cls-68 {
        stroke: #0071bc;
      }

      .cls-9, .cls-75 {
        stroke: #a0bed8;
      }

      .cls-10, .cls-18 {
        stroke: #fb7b71;
      }

      .cls-11, .cls-45, .cls-73 {
        stroke: #434446;
      }

      .cls-12 {
        stroke: #0072bb;
      }

      .cls-82 {
        fill: #fb7b71;
      }

      .cls-83 {
        fill: #9fbdd7;
        opacity: .6;
      }

      .cls-83, .cls-50 {
        isolation: isolate;
      }

      .cls-13, .cls-16, .cls-28, .cls-79, .cls-70 {
        stroke: #75a2cf;
      }

      .cls-14, .cls-30 {
        stroke: #ffaa39;
      }

      .cls-15 {
        stroke: #2ba6d9;
      }

      .cls-84, .cls-74, .cls-75, .cls-76, .cls-77, .cls-78, .cls-79 {
        fill: #fff;
      }

      .cls-16, .cls-18, .cls-32, .cls-46, .cls-48, .cls-66 {
        stroke-width: 3px;
      }

      .cls-85 {
        fill: #434446;
      }

      .cls-17 {
        stroke: #ff6b54;
      }

      .cls-19 {
        stroke: #a3b7c0;
      }

      .cls-20 {
        stroke: #6793b2;
      }

      .cls-22, .cls-37 {
        stroke: #7faad4;
      }

      .cls-23, .cls-25, .cls-32, .cls-35, .cls-39, .cls-47, .cls-48, .cls-52, .cls-55, .cls-58 {
        stroke: #fff;
      }

      .cls-24 {
        stroke: #aac0d6;
      }

      .cls-86 {
        fill: #0072bc;
      }

      .cls-26 {
        stroke: #39579a;
      }

      .cls-87 {
        fill: #a0bed8;
      }

      .cls-27 {
        stroke: #3d3d3d;
      }

      .cls-74 {
        stroke: #9abad6;
      }

      .cls-88 {
        fill: url(#linear-gradient-4);
      }

      .cls-29, .cls-41, .cls-76, .cls-46, .cls-61, .cls-72 {
        stroke: #ccc;
      }

      .cls-33, .cls-64 {
        stroke: #0072bc;
      }

      .cls-34 {
        stroke: #10abed;
      }

      .cls-89 {
        fill: url(#linear-gradient-3);
      }

      .cls-90 {
        fill: #a0bdd9;
      }

      .cls-36, .cls-67 {
        stroke: #7192af;
      }

      .cls-40 {
        stroke: #99a6b3;
      }

      .cls-43, .cls-54 {
        stroke: #488ecc;
      }

      .cls-44 {
        stroke: #94a3b3;
      }

      .cls-91 {
        fill: #21adea;
      }

      .cls-92 {
        fill: #75a2cf;
      }

      .cls-49 {
        stroke: #62dae8;
      }

      .cls-50 {
        opacity: .8;
        stroke-miterlimit: 10;
        stroke-width: 1px;
      }

      .cls-93 {
        fill: #39579a;
      }

      .cls-94 {
        fill: #ddd;
      }

      .cls-77, .cls-60 {
        stroke: #a0bdd9;
      }

      .cls-53 {
        stroke: #444;
      }

      .cls-95 {
        fill: #aac0d6;
      }

      .cls-56 {
        stroke: #627987;
      }

      .cls-96 {
        fill: #8caac4;
      }

      .cls-97 {
        fill: #ccc;
      }

      .cls-62 {
        stroke: #0c2035;
      }

      .cls-63 {
        stroke: #ff7676;
      }

      .cls-65 {
        stroke: #7f7f7f;
      }

      .cls-98 {
        fill: #7ed6fc;
      }

      .cls-99 {
        fill: url(#linear-gradient);
      }

      .cls-100 {
        fill: #7192af;
      }
    </style>
    <linearGradient id="linear-gradient" x1="131.7" y1="2428.4" x2="131.7" y2="2435.2" gradientTransform="translate(0 2676) scale(1 -1)" gradientUnits="userSpaceOnUse">
      <stop offset="0" stop-color="#9abad6"/>
      <stop offset=".4" stop-color="#9fbdd8"/>
      <stop offset=".8" stop-color="#acc7dd"/>
      <stop offset="1" stop-color="#b8cfe2"/>
    </linearGradient>
    <linearGradient id="linear-gradient-2" x1="131.7" y1="2433.4" x2="131.7" y2="2464.3" gradientTransform="translate(0 2676) scale(1 -1)" gradientUnits="userSpaceOnUse">
      <stop offset="0" stop-color="#9abad6"/>
      <stop offset=".4" stop-color="#9fbdd8"/>
      <stop offset=".8" stop-color="#acc7dd"/>
      <stop offset="1" stop-color="#b8cfe2"/>
    </linearGradient>
    <linearGradient id="linear-gradient-3" x1="157.4" y1="2260.1" x2="157.4" y2="2266.9" gradientTransform="translate(0 2676) scale(1 -1)" gradientUnits="userSpaceOnUse">
      <stop offset="0" stop-color="#9abad6"/>
      <stop offset=".4" stop-color="#9fbdd8"/>
      <stop offset=".8" stop-color="#acc7dd"/>
      <stop offset="1" stop-color="#b8cfe2"/>
    </linearGradient>
    <linearGradient id="linear-gradient-4" x1="157.5" y1="2265" x2="157.5" y2="2296" gradientTransform="translate(0 2676) scale(1 -1)" gradientUnits="userSpaceOnUse">
      <stop offset="0" stop-color="#9abad6"/>
      <stop offset=".4" stop-color="#9fbdd8"/>
      <stop offset=".8" stop-color="#acc7dd"/>
      <stop offset="1" stop-color="#b8cfe2"/>
    </linearGradient>
  </defs>
  <!-- Generator: Adobe Illustrator 28.6.0, SVG Export Plug-In . SVG Version: 1.2.0 Build 709)  -->
  <g>
    <g id="Layer_1">
      <g>
        <circle class="cls-10" cx="24" cy="15" r="13.6"/>
        <g>
          <line class="cls-18" x1="24" y1="13.9" x2="24" y2="21.1"/>
          <circle class="cls-82" cx="24" cy="9.3" r="1.7"/>
        </g>
      </g>
      <polyline class="cls-21" points="22.4 50.6 18.5 54.5 14.5 50.6"/>
      <polyline class="cls-52" points="22.4 84.3 18.5 88.2 14.5 84.3"/>
      <g>
        <circle class="cls-51" cx="17.4" cy="112.5" r="7"/>
        <circle class="cls-80" cx="17.4" cy="112.5" r="3.4"/>
      </g>
      <circle class="cls-65" cx="17.4" cy="152.6" r="7"/>
      <g>
        <path class="cls-39" d="M22.5,191v7.2c0,.8-.6,1.4-1.4,1.4h-9c-.8,0-1.4-.6-1.4-1.4v-9.4c0-.8.6-1.4,1.4-1.4h7"/>
        <g>
          <polygon class="cls-84" points="22.1 189.5 14.6 197.1 13.1 197.1 13.1 195.6 20.7 188 22.1 189.5"/>
          <rect class="cls-84" x="21.9" y="186.4" width="1.6" height="2.1" transform="translate(-125.9 71) rotate(-45)"/>
        </g>
      </g>
      <g>
        <circle class="cls-44" cx="17.6" cy="235.6" r="7"/>
        <line class="cls-44" x1="22.6" y1="240.5" x2="27.9" y2="245.7"/>
      </g>
      <g>
        <circle class="cls-43" cx="18.8" cy="282" r="9"/>
        <polyline class="cls-43" points="15.4 280.6 18.5 283.6 23.4 279.2"/>
      </g>
      <g>
        <circle class="cls-54" cx="19.5" cy="852.9" r="13.4" transform="translate(-26.6 1) rotate(-1.8)"/>
        <polyline class="cls-43" points="14.7 851.8 18.5 855.2 24.1 849.8"/>
      </g>
      <g>
        <circle class="cls-14" cx="19" cy="701.9" r="9"/>
        <polyline class="cls-14" points="15.1 701.1 18.1 704.1 23 699.7"/>
      </g>
      <g>
        <circle class="cls-49" cx="19" cy="752" r="9"/>
        <polyline class="cls-49" points="15.1 751.1 18.1 754.2 23 749.8"/>
      </g>
      <g>
        <rect class="cls-90" x="234.9" y="750" width="16" height="16"/>
        <polyline class="cls-55" points="238.4 757.2 241.5 760.2 247.3 754.9"/>
      </g>
      <g>
        <rect class="cls-90" x="234.9" y="857.9" width="16" height="16"/>
        <polyline class="cls-55" points="238.4 865 241.5 868.1 247.3 862.8"/>
      </g>
      <polyline class="cls-16" points="13.8 512.1 19.4 517.7 28.7 508.5"/>
      <g>
        <circle class="cls-17" cx="18.8" cy="332" r="9"/>
        <line class="cls-17" x1="18.8" y1="327" x2="18.8" y2="333.9"/>
        <line class="cls-17" x1="18.8" y1="335.1" x2="18.8" y2="336.7"/>
      </g>
      <g>
        <rect class="cls-100" x="24.8" y="415.1" width="3.3" height="5" transform="translate(-308.7 167.1) rotate(-49.6)"/>
        <rect class="cls-100" x="16.4" y="421.3" width="9.7" height="5" transform="translate(-315.3 165.3) rotate(-49.6)"/>
        <polygon class="cls-100" points="18.9 430.3 18.9 430.4 15.1 431 15.1 427.1 15.1 427.1 18.9 430.3"/>
      </g>
      <g>
        <circle class="cls-19" cx="19" cy="577.1" r="9"/>
        <line class="cls-19" x1="16.8" y1="573" x2="16.8" y2="580.9"/>
        <line class="cls-19" x1="20.9" y1="573" x2="20.9" y2="580.9"/>
      </g>
      <g>
        <path class="cls-100" d="M13,615v5.6c0,4.1,3.3,7.5,7.5,7.5s7.5-3.3,7.5-7.5v-5.6h-15ZM20.5,621.2c-.9,0-1.7-.8-1.7-1.7s.8-1.7,1.7-1.7,1.7.8,1.7,1.7-.8,1.7-1.7,1.7Z"/>
        <path class="cls-67" d="M20.4,608.5h0c-2.7,0-5,2.2-5,5v2.1h10v-2.1c0-2.8-2.3-5-5-5Z"/>
      </g>
      <g>
        <circle class="cls-36" cx="20" cy="657" r="6.6"/>
        <g>
          <line class="cls-15" x1="20" y1="657" x2="20" y2="660"/>
          <line class="cls-15" x1="20" y1="654" x2="20" y2="653.8"/>
        </g>
      </g>
      <g>
        <circle class="cls-14" cx="19" cy="803.1" r="9"/>
        <line class="cls-30" x1="19" y1="799" x2="19" y2="803.7"/>
        <line class="cls-30" x1="19" y1="807.2" x2="19" y2="806.8"/>
      </g>
      <g>
        <circle class="cls-5" cx="19.5" cy="903" r="13.4" transform="translate(-28.1 1) rotate(-1.8)"/>
        <g>
          <line class="cls-57" x1="19" y1="896.6" x2="19" y2="905.6"/>
          <line class="cls-57" x1="19" y1="908.7" x2="19" y2="909.5"/>
        </g>
      </g>
      <g>
        <rect class="cls-78" x="66.4" y="6.5" width="12" height="12"/>
        <line class="cls-68" x1="68.9" y1="12.5" x2="75.9" y2="12.5"/>
      </g>
      <rect class="cls-74" x="66.4" y="42.5" width="12" height="12"/>
      <g>
        <rect class="cls-80" x="66" y="82" width="13" height="13"/>
        <polyline class="cls-55" points="68.4 87.4 71.1 90.5 76.1 85.7"/>
      </g>
      <polygon class="cls-1" points="73 120.5 67.7 115.2 78.3 115.2 73 120.5"/>
      <g>
        <line class="cls-63" x1="66" y1="145.1" x2="77" y2="156"/>
        <line class="cls-63" x1="77" y1="145.1" x2="66" y2="156"/>
      </g>
      <g>
        <circle class="cls-95" cx="71.5" cy="192.6" r="8.5"/>
        <polyline class="cls-35" points="68.4 194.1 71.5 191.1 74.6 194.1"/>
      </g>
      <g>
        <line class="cls-4" x1="63" y1="229" x2="75.2" y2="241"/>
        <line class="cls-4" x1="75.2" y1="229" x2="63" y2="241"/>
      </g>
      <g>
        <g>
          <g>
            <rect class="cls-13" x="60.5" y="269.6" width="21.9" height="21.9"/>
            <rect class="cls-92" x="60.5" y="269.6" width="21.9" height="6.4"/>
          </g>
          <line class="cls-13" x1="79.9" y1="279.5" x2="67" y2="279.5"/>
          <line class="cls-13" x1="79.9" y1="283.5" x2="67" y2="283.5"/>
          <line class="cls-13" x1="79.9" y1="287.5" x2="67" y2="287.5"/>
        </g>
        <rect class="cls-92" x="62.9" y="279" width="2" height="2"/>
        <rect class="cls-92" x="62.9" y="283" width="2" height="2"/>
        <rect class="cls-92" x="62.9" y="286.9" width="2" height="2"/>
      </g>
      <g>
        <rect class="cls-25" x="60.5" y="319.5" width="21.9" height="21.9"/>
        <rect class="cls-84" x="60.5" y="319.5" width="21.9" height="6.4"/>
        <line class="cls-25" x1="79.9" y1="329.4" x2="66.9" y2="329.4"/>
        <line class="cls-25" x1="79.9" y1="333.4" x2="66.9" y2="333.4"/>
        <line class="cls-25" x1="79.9" y1="337.4" x2="66.9" y2="337.4"/>
        <g>
          <rect class="cls-84" x="62.9" y="328.9" width="2" height="2"/>
          <rect class="cls-84" x="62.9" y="333" width="2" height="2"/>
          <rect class="cls-84" x="62.9" y="336.9" width="2" height="2"/>
        </g>
      </g>
      <g>
        <path class="cls-79" d="M92.2,405.2h-19.5c-7.9,0-14.3-6.4-14.3-14.3h0c0-7.9,6.4-14.3,14.3-14.3h19.4c7.9,0,14.3,6.4,14.3,14.3h0c0,7.9-6.3,14.3-14.2,14.3Z"/>
        <g>
          <polygon class="cls-92" points="77.8 396.7 70.2 390.1 77.8 383.5 77.8 396.7"/>
          <polyline class="cls-16" points="77.2 390.1 91.3 390.1 91.3 397.5"/>
        </g>
      </g>
      <g>
        <path class="cls-92" d="M92.2,462h-19.5c-7.9,0-14.3-6.4-14.3-14.3h0c0-7.9,6.4-14.3,14.3-14.3h19.4c7.9,0,14.3,6.4,14.3,14.3h0c0,7.9-6.3,14.3-14.2,14.3Z"/>
        <polygon class="cls-84" points="77.8 453.5 70.2 446.9 77.8 440.4 77.8 453.5"/>
        <polyline class="cls-48" points="77.2 446.9 91.3 446.9 91.3 454.3"/>
      </g>
      <g>
        <g>
          <g>
            <path class="cls-38" d="M91.7,509.9h-21.2c-.8,0-1.4-.6-1.4-1.4v-16.1c0-.8.6-1.4,1.4-1.4h21.2c.8,0,1.4.6,1.4,1.4v16.1c0,.8-.6,1.4-1.4,1.4Z"/>
            <rect class="cls-96" x="69.1" y="506" width="24" height="3.9"/>
          </g>
          <line class="cls-31" x1="75.1" y1="513" x2="87.1" y2="513"/>
        </g>
        <polyline class="cls-7" points="77.1 499.1 80.1 501.9 85.1 497"/>
      </g>
      <g>
        <g>
          <rect class="cls-33" x="70.5" y="557.5" width="22" height="16"/>
          <line class="cls-33" x1="78" y1="575.6" x2="85" y2="575.6"/>
        </g>
        <path class="cls-33" d="M77.8,564c.6-1.6,2.1-2.7,3.8-2.7s4,1.8,4,4-1.8,4-4,4-3.6-1.4-4-3.3"/>
        <polygon class="cls-86" points="80.9 565 77 565 77 561 80.9 565"/>
      </g>
      <g>
        <rect class="cls-25" x="70.4" y="608.5" width="22" height="16"/>
        <line class="cls-25" x1="77.9" y1="626.6" x2="85" y2="626.6"/>
        <path class="cls-25" d="M77.7,615c.6-1.6,2.1-2.7,3.8-2.7s4,1.8,4,4-1.8,4-4,4-3.6-1.4-4-3.3"/>
        <polygon class="cls-84" points="80.9 616 76.9 616 76.9 612 80.9 616"/>
      </g>
      <g>
        <g>
          <polygon class="cls-73" points="86.4 654.5 86.4 667.5 71.5 667.5 71.5 650.5 82.5 650.5 82.5 650.6 86.4 654.5"/>
          <polyline class="cls-73" points="86.4 654.5 82.5 654.5 82.5 650.6"/>
        </g>
        <line class="cls-73" x1="74" y1="656.5" x2="78" y2="656.5"/>
        <line class="cls-73" x1="74" y1="660.5" x2="82.9" y2="660.5"/>
        <line class="cls-73" x1="74" y1="664.5" x2="82.9" y2="664.5"/>
      </g>
      <g>
        <g>
          <polygon class="cls-73" points="122.5 654.5 122.5 667.5 107.5 667.5 107.5 650.5 118.5 650.5 118.6 650.6 122.4 654.5 122.5 654.5"/>
          <polyline class="cls-73" points="122.4 654.5 118.6 654.5 118.6 650.6"/>
        </g>
        <path class="cls-73" d="M119.1,659.6c0,2.1-1.9,3.8-4,3.8s-4-1.8-4-4.1,1.8-4,4-4v4.3h4Z"/>
      </g>
      <g>
        <polygon class="cls-73" points="212.5 466.5 212.5 479.4 197.6 479.4 197.6 462.5 208.5 462.5 208.6 462.6 212.5 466.5"/>
        <polyline class="cls-73" points="212.5 466.5 208.6 466.5 208.6 462.6"/>
      </g>
      <g>
        <g>
          <polygon class="cls-73" points="122.5 690 122.5 702.9 107.5 702.9 107.5 686 118.5 686 118.6 686.1 122.4 689.9 122.5 690"/>
          <polyline class="cls-73" points="122.4 689.9 118.6 689.9 118.6 686.1"/>
        </g>
        <g>
          <polygon class="cls-85" points="112 698.5 110.1 698.4 115.7 692.1 117.5 692.2 112 698.5"/>
          <polygon class="cls-85" points="118 701.3 110.1 692.2 112 692.1 119.9 701.1 118 701.3"/>
        </g>
      </g>
      <g>
        <g>
          <polygon class="cls-73" points="86.5 723.6 86.5 736.5 71.6 736.5 71.6 719.6 82.5 719.6 82.6 719.6 86.5 723.5 86.5 723.6"/>
          <polyline class="cls-73" points="86.5 723.5 82.6 723.5 82.6 719.6"/>
        </g>
        <g>
          <circle class="cls-11" cx="79" cy="728.9" r="4.2"/>
          <line class="cls-11" x1="76.2" y1="725.9" x2="82" y2="731.9"/>
        </g>
      </g>
      <g>
        <rect class="cls-73" x="71.6" y="686.5" width="14.9" height="14.9"/>
        <circle class="cls-85" cx="82.5" cy="689.4" r="1.4"/>
        <polygon class="cls-85" points="71.6 700.9 76.6 691.9 77.6 691.9 79.6 697.2 80.4 697.2 82.2 694.1 86.5 700.6 86.5 701.4 71.6 701.4 71.6 700.9"/>
      </g>
      <g>
        <g>
          <polygon class="cls-73" points="86.5 759.6 86.5 772.5 71.6 772.5 71.6 755.6 82.5 755.6 82.6 755.6 86.5 759.5 86.5 759.6"/>
          <polyline class="cls-73" points="86.5 759.5 82.6 759.5 82.6 755.6"/>
        </g>
        <polyline class="cls-45" points="74.7 761 75.5 768.8 79 761.3 79.5 768.8 83.4 761.2"/>
      </g>
      <g>
        <g>
          <polygon class="cls-73" points="86.4 800.5 86.4 813.5 71.4 813.5 71.4 796.5 82.4 796.5 82.5 796.6 86.3 800.5 86.4 800.5"/>
          <polyline class="cls-73" points="86.3 800.5 82.5 800.5 82.5 796.6"/>
        </g>
        <path class="cls-85" d="M86.5,808.6c-.3-.6-1.5-.8-2.1-.9h-2.7s-.2-.3-.4-.4c-.7-.9-1.3-1.9-1.8-2.9,0-.5.2-1,.3-1.6,0-1,.2-2.1-.2-3,0-.3-.5-.7-.9-.5-.5.2-.6.9-.6,1.3v1.1c0,.4.2.7.3,1.1,0,.3.2.6.3.9,0,.2-.2.5-.2.7-.2.5-.4,1-.6,1.5,0,.2-.2.5-.3.7-.3.7-.7,1.5-1.1,2.2-1,.3-1.8.7-2.5,1.2-.4.2-.7.5-1,.8s-.5.6-.6,1c0,.2,0,.4.3.6.3.2.6.2.9,0,1-.2,1.7-1,2.3-1.7.4-.5.9-1.1,1.5-1.8h0c.9-.3,1.9-.5,2.9-.7.5,0,1,0,1.4-.2.3.3.7.6,1.1.9.3.2.7.4,1,.5.4,0,.7.2,1.1.3h.6c.4,0,1.1-.2,1.1-.7,0,0,0-.3-.2-.4h0ZM76.1,809.6c-.2.3-.4.6-.6.9-.5.6-1,1.4-1.7,1.6h-.5c-.2,0-.4,0-.3-.3v-.4s.2-.3.3-.4c.2-.3.6-.5.9-.7.6-.4,1.2-.7,2-1,0,0-.2,0-.2.2h0ZM78.6,801.6v-1.5c0-.2,0-.4.3-.5.2,0,.3.4.3.6,0,.8,0,1.7-.2,2.5v.4c0-.2,0-.3-.2-.5,0-.3,0-.6-.2-1h0ZM80.2,807.9c-.9,0-1.7.3-2.5.5,0,0,.5-.8.6-1,.4-.8.8-1.6,1.1-2.5.5.9,1,1.8,1.7,2.6,0,0,0,0,.2.2-.3,0-.7,0-1.1.2ZM86.1,809c0,.2-.4.3-.6.3h-1.5c-.3,0-.6-.3-.9-.4-.3-.2-.6-.4-.8-.6h2c.6,0,1.3.3,1.8.7h0Z"/>
      </g>
      <g>
        <path class="cls-92" d="M88.8,853c-.3-.6-1.5-.8-2.1-.9h-2.7s-.2-.3-.4-.4c-.7-.9-1.3-1.9-1.8-2.9,0-.5.2-1,.3-1.6,0-1,.2-2.1-.2-3,0-.3-.5-.7-.9-.5-.5.2-.6.9-.6,1.3v1.1c0,.4.2.7.3,1.1,0,.3.2.6.3.9,0,.2-.2.5-.2.7-.2.5-.4,1-.6,1.5,0,.2-.2.5-.3.7-.3.7-.7,1.5-1.1,2.2-1,.3-1.8.7-2.5,1.2-.4.2-.7.5-1,.8s-.5.6-.6,1c0,.2,0,.4.3.6.3.2.6.2.9,0,1-.2,1.7-1,2.3-1.7.4-.5.9-1.1,1.5-1.8h0c.9-.3,1.9-.5,2.9-.7.5,0,1,0,1.4-.2.3.3.7.6,1.1.9.3.2.7.4,1,.5.4,0,.7.2,1.1.3h.6c.4,0,1.1-.2,1.1-.7,0-.2-.2-.3-.2-.4h0ZM78.3,854c-.2.3-.4.6-.6.9-.5.6-1,1.4-1.7,1.6h-.5c-.2,0-.4,0-.3-.3v-.4s.2-.3.3-.4c.2-.3.6-.5.9-.7.6-.4,1.2-.7,2-1,0,0-.2,0-.2.2h0ZM80.9,846v-1.5c0-.2,0-.4.3-.5.2,0,.3.4.3.6,0,.8,0,1.7-.2,2.5v.4c0-.2,0-.3-.2-.5,0-.3-.2-.7-.2-1h0ZM82.4,852.3c-.9,0-1.7.3-2.5.5,0,0,.5-.8.6-1,.4-.8.8-1.6,1.1-2.5.5.9,1,1.8,1.7,2.6,0,0,0,0,.2.2-.3,0-.7,0-1.1.2ZM88.3,853.4c0,.2-.4.3-.6.3h-1.5c-.3,0-.6-.3-.9-.4-.3-.2-.6-.4-.8-.6h2c.6,0,1.3.3,1.8.7,0-.2,0,0,0,0Z"/>
        <g>
          <polygon class="cls-13" points="91.3 842.6 91.3 860.6 71.4 860.6 71.4 838.6 86.3 838.6 86.4 838.7 91.3 842.6"/>
          <polyline class="cls-13" points="91.3 842.6 86.4 842.6 86.4 838.7"/>
        </g>
      </g>
      <g>
        <g>
          <g>
            <g>
              <polyline class="cls-51" points="131.2 18.5 122.6 18.5 122.6 3.5 140.6 3.5 140.6 9"/>
              <line class="cls-51" x1="128.5" y1="3.5" x2="128.5" y2="18.5"/>
              <line class="cls-51" x1="134.5" y1="3.5" x2="134.5" y2="11.5"/>
              <line class="cls-51" x1="140.6" y1="8.5" x2="122.6" y2="8.5"/>
              <line class="cls-51" x1="132.9" y1="13.5" x2="122.6" y2="13.5"/>
            </g>
            <line class="cls-51" x1="124" y1="1.5" x2="126" y2="1.5"/>
            <line class="cls-51" x1="137" y1="1.5" x2="139" y2="1.5"/>
          </g>
          <circle class="cls-51" cx="140.5" cy="18.5" r="7"/>
        </g>
        <polyline class="cls-51" points="140.5 13 140.5 18.5 143.5 21.5"/>
      </g>
      <g>
        <path class="cls-84" d="M141.5,71.4v-3h-1.8c-.2-1.1-.6-2.1-1.2-2.9l1.3-1.3-2.1-2.1-1.3,1.3c-.9-.6-1.9-1-2.9-1.2v-1.8h-3v1.8c-1.1.2-2.1.6-2.9,1.2l-1.3-1.3-2.1,2.1,1.3,1.3c-.6.9-1,1.9-1.2,2.9h-1.8v3h1.8c.2,1.1.6,2.1,1.2,2.9l-1.3,1.3,2.1,2.1,1.3-1.3c.9.6,1.9,1,2.9,1.2v1.8h3v-1.8c1.1-.2,2.1-.6,2.9-1.2l1.3,1.3,2.1-2.1-1.3-1.3c.6-.9,1-1.9,1.2-2.9h1.8ZM136.1,71.4s-.1.3-.2.4c-.4.9-1.2,1.7-2.1,2.1-.1,0-.3,0-.4.2-.5.2-1,.3-1.5.3s-1,0-1.5-.3c-.1,0-.3,0-.4-.2-.9-.4-1.7-1.2-2.1-2.1,0,0,0-.3-.2-.4-.2-.5-.3-1-.3-1.5s0-1,.3-1.5c0,0,0-.3.2-.4.4-.9,1.2-1.7,2.1-2.1.1,0,.3,0,.4-.2.5-.2,1-.3,1.5-.3s1,0,1.5.3c.1,0,.3,0,.4.2.9.4,1.7,1.2,2.1,2.1.1,0,.1.3.2.4.2.5.3,1,.3,1.5s-.1,1-.3,1.5Z"/>
        <path class="cls-56" d="M141.5,71.4v-3h-1.8c-.2-1.1-.6-2.1-1.2-2.9l1.3-1.3-2.1-2.1-1.3,1.3c-.9-.6-1.9-1-2.9-1.2v-1.8h-3v1.8c-1.1.2-2.1.6-2.9,1.2l-1.3-1.3-2.1,2.1,1.3,1.3c-.6.9-1,1.9-1.2,2.9h-1.8v3h1.8c.2,1.1.6,2.1,1.2,2.9l-1.3,1.3,2.1,2.1,1.3-1.3c.9.6,1.9,1,2.9,1.2v1.8h3v-1.8c1.1-.2,2.1-.6,2.9-1.2l1.3,1.3,2.1-2.1-1.3-1.3c.6-.9,1-1.9,1.2-2.9h1.8ZM136.1,71.4s-.1.3-.2.4c-.4.9-1.2,1.7-2.1,2.1-.1,0-.3,0-.4.2-.5.2-1,.3-1.5.3s-1,0-1.5-.3c-.1,0-.3,0-.4-.2-.9-.4-1.7-1.2-2.1-2.1,0,0,0-.3-.2-.4-.2-.5-.3-1-.3-1.5s0-1,.3-1.5c0,0,0-.3.2-.4.4-.9,1.2-1.7,2.1-2.1.1,0,.3,0,.4-.2.5-.2,1-.3,1.5-.3s1,0,1.5.3c.1,0,.3,0,.4.2.9.4,1.7,1.2,2.1,2.1.1,0,.1.3.2.4.2.5.3,1,.3,1.5s-.1,1-.3,1.5Z"/>
      </g>
      <g>
        <g>
          <rect class="cls-51" x="120.5" y="115.6" width="22" height="16.9"/>
          <rect class="cls-80" x="120.5" y="115.6" width="22" height="1.5"/>
        </g>
        <line class="cls-51" x1="127" y1="120.6" x2="140" y2="120.6"/>
        <line class="cls-51" x1="127" y1="124.6" x2="140" y2="124.6"/>
        <line class="cls-51" x1="127" y1="128.6" x2="140" y2="128.6"/>
        <rect class="cls-80" x="123" y="120.1" width="2" height="2"/>
        <rect class="cls-80" x="123" y="124.1" width="2" height="2"/>
        <rect class="cls-80" x="123" y="128.1" width="2" height="2"/>
      </g>
      <g>
        <polyline class="cls-51" points="131 181.5 120.5 181.5 120.5 167.6 141.5 167.6 141.5 173.5"/>
        <circle class="cls-51" cx="140.1" cy="182" r="6.6"/>
        <g>
          <line class="cls-68" x1="140.1" y1="181.1" x2="140.1" y2="185.9"/>
          <line class="cls-68" x1="140.1" y1="177.9" x2="140.1" y2="180"/>
        </g>
        <line class="cls-51" x1="131" y1="184.5" x2="127" y2="184.5"/>
      </g>
      <g>
        <path class="cls-99" d="M143.3,243.6h-23.3c-1.6,0-2.8-1.3-2.8-2.8v4c0,1.6,1.3,2.8,2.8,2.8h23.4c1.6,0,2.8-1.3,2.8-2.8v-4c0,1.5-1.3,2.8-2.9,2.8ZM135.1,246.6h-7v-2h7v2Z"/>
        <path class="cls-81" d="M146.2,214.5v25.3c0,1.6-1.3,2.8-2.8,2.8h-23.4c-1.6,0-2.8-1.3-2.8-2.8v-25.3c0-1.6,1.3-2.8,2.8-2.8h23.4c1.5,0,2.8,1.3,2.8,2.8Z"/>
      </g>
      <g>
        <path class="cls-89" d="M169.1,411.9h-23.4c-1.6,0-2.8-1.3-2.8-2.8v4c0,1.6,1.3,2.8,2.8,2.8h23.4c1.6,0,2.8-1.3,2.8-2.8v-4c0,1.6-1.2,2.8-2.8,2.8ZM161,414.9h-7v-2h7v2Z"/>
        <path class="cls-88" d="M172,382.9v25.3c0,1.6-1.3,2.8-2.8,2.8h-23.4c-1.6,0-2.8-1.3-2.8-2.8v-25.3c0-1.6,1.3-2.8,2.8-2.8h23.4c1.5-.1,2.8,1.2,2.8,2.8Z"/>
      </g>
      <g>
        <rect class="cls-33" x="166.6" y="218.6" width="21.9" height="15.9"/>
        <line class="cls-33" x1="174" y1="236.5" x2="181" y2="236.5"/>
        <path class="cls-33" d="M173.9,225.2c.6-1.5,2-2.6,3.8-2.6s4,1.8,4,4-1.8,4-4,4-3.6-1.4-3.9-3.3"/>
        <polygon class="cls-86" points="176.9 226 173 226 173 222 176.9 226"/>
      </g>
      <g>
        <path class="cls-28" d="M140.6,284.1c-.2.8-.5,1.5-.9,2.2l1.7,1.7-3.5,3.5-1.7-1.7c-.7.4-1.4.7-2.2.9v2.5h-4.9v-2.5c-.8-.2-1.5-.5-2.2-.9l-1.7,1.7-3.5-3.5,1.7-1.7c-.4-.7-.7-1.4-.9-2.2h-2.5v-4.9h2.5c.2-.8.5-1.5.9-2.2l-1.7-1.7,3.5-3.5,1.7,1.7c.7-.4,1.4-.7,2.2-.9v-2.5h4.9v2.5c.8.2,1.5.5,2.2.9l1.7-1.7,3.5,3.5-1.7,1.7c.4.7.7,1.4.9,2.2h2.5v4.9h-2.5Z"/>
        <circle class="cls-28" cx="131.6" cy="281.6" r="4.7"/>
      </g>
      <g>
        <path class="cls-47" d="M140.6,333.9c-.2.8-.5,1.5-.9,2.2l1.7,1.7-3.5,3.5-1.7-1.7c-.7.4-1.4.7-2.2.9v2.5h-4.9v-2.5c-.8-.2-1.5-.5-2.2-.9l-1.7,1.7-3.5-3.5,1.7-1.7c-.4-.7-.7-1.4-.9-2.2h-2.5v-4.9h2.5c.2-.8.5-1.5.9-2.2l-1.7-1.7,3.5-3.5,1.7,1.7c.7-.4,1.4-.7,2.2-.9v-2.4h4.9v2.5c.8.2,1.5.5,2.2.9l1.7-1.7,3.5,3.5-1.7,1.7c.4.7.7,1.4.9,2.2h2.5v4.9h-2.5Z"/>
        <circle class="cls-47" cx="131.6" cy="331.4" r="4.7"/>
      </g>
      <g>
        <path class="cls-23" d="M186.1,71.8c-.2.7-.5,1.4-.9,2.1l1.7,1.7-3.3,3.3-1.7-1.7c-.7.4-1.4.7-2.1.9v2.3h-4.7v-2.3c-.7-.2-1.4-.5-2.1-.9l-1.7,1.7-3.3-3.3,1.7-1.7c-.4-.7-.7-1.4-.9-2.1h-2.3v-4.7h2.3c.2-.7.5-1.4.9-2.1l-1.7-1.7,3.3-3.3,1.7,1.7c.7-.4,1.4-.7,2.1-.9v-2.3h4.7v2.3c.7.2,1.5.5,2.1.9l1.7-1.7,3.3,3.3-1.7,1.7c.4.7.7,1.4.9,2.1h2.3v4.7h-2.3Z"/>
        <circle class="cls-23" cx="177.5" cy="69.4" r="4.5"/>
      </g>
      <g>
        <rect class="cls-87" x="143" y="435" width="13" height="13"/>
        <polyline class="cls-55" points="145.7 441.1 148.1 443.5 153.3 438.7"/>
      </g>
      <g>
        <rect class="cls-83" x="143" y="520.4" width="13" height="13"/>
        <polyline class="cls-55" points="145.7 526.6 148.1 528.9 153.3 524.1"/>
      </g>
      <g>
        <rect class="cls-75" x="143.5" y="464.5" width="12" height="12"/>
        <line class="cls-9" x1="146" y1="471" x2="152.9" y2="471"/>
      </g>
      <rect class="cls-75" x="143.4" y="493" width="12" height="12"/>
      <g>
        <g>
          <g>
            <polyline class="cls-33" points="133.1 575.5 127.5 575.5 127.5 555.6 137.4 555.6 137.5 555.7 142.4 560.6 142.4 560.6 142.4 567.9"/>
            <polyline class="cls-33" points="142.4 560.6 137.5 560.6 137.5 555.7"/>
          </g>
          <path class="cls-33" d="M142.4,576.1v-5.1c0-.8-.6-1.4-1.4-1.4h-5.2c-.8,0-1.4.6-1.4,1.4v5.1"/>
          <rect class="cls-33" x="137.5" y="562.6" width="2" height="7"/>
          <line class="cls-33" x1="137.5" y1="564.5" x2="139.5" y2="564.5"/>
        </g>
        <line class="cls-33" x1="136.5" y1="572" x2="136.5" y2="576.1"/>
        <line class="cls-33" x1="138.5" y1="572" x2="138.5" y2="576.1"/>
        <line class="cls-33" x1="140.5" y1="572" x2="140.5" y2="576.1"/>
      </g>
      <g>
        <g>
          <polygon class="cls-25" points="127.5 738.8 127.5 756.5 107.5 756.5 107.5 734.5 123.2 734.5 127.5 738.8"/>
          <polygon class="cls-25" points="127.5 738.8 127.5 738.9 123.1 738.9 123.1 734.5 123.2 734.5 127.5 738.8"/>
        </g>
        <g>
          <line class="cls-55" x1="112" y1="742" x2="110.1" y2="742"/>
          <line class="cls-55" x1="119" y1="742" x2="113" y2="742"/>
        </g>
        <g>
          <line class="cls-55" x1="112" y1="747" x2="110.1" y2="747"/>
          <line class="cls-55" x1="125" y1="747" x2="113" y2="747"/>
        </g>
        <g>
          <line class="cls-55" x1="112" y1="752" x2="110.1" y2="752"/>
          <line class="cls-55" x1="125" y1="752" x2="113" y2="752"/>
        </g>
      </g>
      <g>
        <g>
          <polygon class="cls-13" points="127.5 789 127.5 806.6 107.5 806.6 107.5 784.6 123.2 784.6 127.5 789"/>
          <polygon class="cls-13" points="127.5 789 127.5 789.1 123.1 789.1 123.1 784.6 123.2 784.6 127.5 789"/>
        </g>
        <g>
          <line class="cls-70" x1="112" y1="792.2" x2="110.1" y2="792.2"/>
          <line class="cls-70" x1="119" y1="792.2" x2="113" y2="792.2"/>
        </g>
        <g>
          <line class="cls-70" x1="112" y1="797.2" x2="110.1" y2="797.2"/>
          <line class="cls-70" x1="125" y1="797.2" x2="113" y2="797.2"/>
        </g>
        <g>
          <line class="cls-70" x1="112" y1="802.2" x2="110.1" y2="802.2"/>
          <line class="cls-70" x1="125" y1="802.2" x2="113" y2="802.2"/>
        </g>
      </g>
      <circle class="cls-50" cx="117.4" cy="849.2" r="11.9" transform="translate(-739.2 881.5) rotate(-84.3)"/>
      <g>
        <line class="cls-8" x1="117.5" y1="848.7" x2="117.5" y2="854.7"/>
        <line class="cls-8" x1="117.5" y1="844.1" x2="117.5" y2="845.1"/>
      </g>
      <g>
        <path class="cls-69" d="M147.5,912.3c2.7,1.5,4.5,4.4,4.5,7.8,0,4.9-4,8.9-8.9,8.9s-8.9-4-8.9-8.9,1.8-6.1,4.4-7.7"/>
        <line class="cls-69" x1="143.1" y1="909.1" x2="143.1" y2="918.9"/>
      </g>
      <g>
        <path class="cls-69" d="M147.5,965.3c2.7,1.5,4.5,4.4,4.5,7.8,0,4.9-4,8.9-8.9,8.9s-8.9-4-8.9-8.9,1.8-6.1,4.4-7.7"/>
        <polygon class="cls-91" points="142.1 969.4 134.7 962 142.1 962 142.1 969.4"/>
      </g>
      <g>
        <g>
          <path class="cls-42" d="M144.7,1034h-2.4c-3,0-5.4-2.4-5.4-5.4v-10.5h13.1v10.5c.1,3-2.3,5.4-5.3,5.4h0Z"/>
          <line class="cls-69" x1="135" y1="1018.1" x2="152" y2="1018.1"/>
          <line class="cls-69" x1="140" y1="1015" x2="147" y2="1015"/>
        </g>
        <g>
          <line class="cls-69" x1="141" y1="1022" x2="141" y2="1030"/>
          <line class="cls-69" x1="146" y1="1022" x2="146" y2="1030"/>
        </g>
      </g>
      <g>
        <path class="cls-34" d="M152.1,1086.2c-.2.7-.5,1.4-.9,2.1l1.6,1.6-3.3,3.3-1.6-1.6c-.6.4-1.3.7-2.1.9v2.3h-4.6v-2.3c-.7-.2-1.4-.5-2.1-.9l-1.6,1.6-3.3-3.3,1.6-1.6c-.4-.6-.7-1.3-.9-2.1h-2.3v-4.6h2.3c.2-.7.5-1.4.9-2.1l-1.6-1.6,3.3-3.3,1.6,1.6c.6-.4,1.3-.7,2.1-.9v-2.3h4.6v2.3c.7.2,1.4.5,2.1.9l1.6-1.6,3.3,3.3-1.6,1.6c.4.6.7,1.3.9,2.1h2.3v4.6h-2.3Z"/>
        <circle class="cls-34" cx="143.5" cy="1083.9" r="4.4"/>
      </g>
      <g>
        <rect class="cls-2" x="134.9" y="1140.8" width="16.1" height="16.1"/>
        <polyline class="cls-55" points="137.6 1148.4 141 1152.3 148.3 1145.3"/>
      </g>
      <g>
        <rect class="cls-80" x="134.9" y="1181.8" width="16.1" height="16.1"/>
        <polyline class="cls-55" points="137.6 1189.4 141 1193.3 148.3 1186.3"/>
      </g>
      <g>
        <rect class="cls-80" x="181" y="1141" width="16" height="16"/>
        <line class="cls-55" x1="185.1" y1="1149" x2="193" y2="1149"/>
      </g>
      <g>
        <path class="cls-71" d="M197.3,912.3c2.7,1.5,4.5,4.4,4.5,7.8,0,4.9-4,8.9-8.9,8.9s-8.9-4-8.9-8.9,1.8-6.1,4.4-7.7"/>
        <line class="cls-71" x1="192.9" y1="909.1" x2="192.9" y2="918.9"/>
      </g>
      <g>
        <path class="cls-71" d="M197.3,965.3c2.7,1.5,4.5,4.4,4.5,7.8,0,4.9-4,8.9-8.9,8.9s-8.9-4-8.9-8.9,1.8-6.1,4.4-7.7"/>
        <polygon class="cls-98" points="191.9 969.4 184.5 962 191.9 962 191.9 969.4"/>
      </g>
      <g>
        <g>
          <path class="cls-6" d="M193.6,1034h-2.4c-3,0-5.4-2.4-5.4-5.4v-10.5h13.2v10.5c0,3-2.4,5.4-5.4,5.4h0Z"/>
          <line class="cls-71" x1="183.9" y1="1018.1" x2="200.9" y2="1018.1"/>
          <line class="cls-71" x1="188.9" y1="1015" x2="195.9" y2="1015"/>
        </g>
        <g>
          <line class="cls-71" x1="189.9" y1="1022" x2="189.9" y2="1030"/>
          <line class="cls-71" x1="195" y1="1022" x2="195" y2="1030"/>
        </g>
      </g>
      <g>
        <path class="cls-59" d="M202.1,1086c-.2.7-.5,1.4-.9,2.1l1.6,1.6-3.3,3.3-1.6-1.6c-.6.4-1.3.7-2.1.9v2.3h-4.6v-2.3c-.7-.2-1.4-.5-2.1-.9l-1.6,1.6-3.3-3.3,1.6-1.6c-.4-.6-.7-1.3-.9-2.1h-2.3v-4.6h2.3c.2-.7.5-1.4.9-2.1l-1.6-1.6,3.3-3.3,1.6,1.6c.6-.4,1.3-.7,2.1-.9v-2.3h4.6v2.3c.7.2,1.4.5,2.1.9l1.6-1.6,3.3,3.3-1.6,1.6c.4.6.7,1.3.9,2.1h2.3v4.6h-2.3Z"/>
        <circle class="cls-59" cx="193.6" cy="1083.6" r="4.4"/>
      </g>
      <g>
        <path class="cls-29" d="M246.5,912.3c2.7,1.5,4.5,4.4,4.5,7.8,0,4.9-4,8.9-8.9,8.9s-8.9-4-8.9-8.9,1.8-6.1,4.4-7.7"/>
        <line class="cls-29" x1="242.1" y1="909.1" x2="242.1" y2="918.9"/>
      </g>
      <g>
        <path class="cls-29" d="M246.5,965.3c2.7,1.5,4.5,4.4,4.5,7.8,0,4.9-4,8.9-8.9,8.9s-8.9-4-8.9-8.9,1.8-6.1,4.4-7.7"/>
        <polygon class="cls-97" points="241.2 969.4 233.8 962 241.2 962 241.2 969.4"/>
      </g>
      <g>
        <g>
          <path class="cls-61" d="M243.7,1034h-2.4c-3,0-5.4-2.4-5.4-5.4v-10.5h13.1v10.5c.1,3-2.3,5.4-5.3,5.4h0Z"/>
          <line class="cls-29" x1="234" y1="1018.1" x2="251.1" y2="1018.1"/>
          <line class="cls-29" x1="239" y1="1015" x2="246" y2="1015"/>
        </g>
        <g>
          <line class="cls-29" x1="240" y1="1022" x2="240" y2="1030"/>
          <line class="cls-29" x1="245.1" y1="1022" x2="245.1" y2="1030"/>
        </g>
      </g>
      <g>
        <path class="cls-72" d="M251.1,1086.2c-.2.7-.5,1.4-.9,2.1l1.6,1.6-3.3,3.3-1.6-1.6c-.6.4-1.3.7-2.1.9v2.3h-4.6v-2.3c-.7-.2-1.4-.5-2.1-.9l-1.6,1.6-3.3-3.3,1.6-1.6c-.4-.6-.7-1.3-.9-2.1h-2.3v-4.6h2.3c.2-.7.5-1.4.9-2.1l-1.6-1.6,3.3-3.3,1.6,1.6c.6-.4,1.3-.7,2.1-.9v-2.3h4.6v2.3c.7.2,1.4.5,2.1.9l1.6-1.6,3.3,3.3-1.6,1.6c.4.6.7,1.3.9,2.1h2.3v4.6h-2.3Z"/>
        <circle class="cls-72" cx="242.6" cy="1083.9" r="4.4"/>
      </g>
      <g>
        <circle class="cls-42" cx="192.3" cy="868.8" r="9.1"/>
        <line class="cls-69" x1="192" y1="864.9" x2="192" y2="872.9"/>
        <polyline class="cls-3" points="195.7 869.8 192 873.5 188.3 869.8"/>
      </g>
      <g>
        <circle class="cls-20" cx="192.1" cy="818.8" r="9.1"/>
        <line class="cls-20" x1="191.8" y1="814.9" x2="191.8" y2="822.9"/>
        <polyline class="cls-20" points="195.5 819.8 191.8 823.5 188.2 819.8"/>
      </g>
      <g>
        <path class="cls-100" d="M151,772l7.5-5.5c.2-.2.6-.2.8,0l7.5,5.5c.4.4.1,1-.4,1h-15c-.5,0-.7-.7-.4-1h0Z"/>
        <path class="cls-67" d="M163.2,780.1h-8.8c-.3,0-.6-.3-.6-.6v-6.9h10v6.9c0,.3-.2.6-.6.6h0Z"/>
      </g>
      <g>
        <path class="cls-33" d="M195.5,558v15.1c0,.8-.6,1.4-1.4,1.4h-9.2c-.8,0-1.4-.6-1.4-1.4v-15.1"/>
        <line class="cls-33" x1="186.5" y1="558" x2="186.5" y2="570.9"/>
        <line class="cls-33" x1="189.5" y1="558" x2="189.5" y2="570.9"/>
        <line class="cls-33" x1="192.5" y1="558" x2="192.5" y2="570.9"/>
        <line class="cls-33" x1="182" y1="556.5" x2="196.9" y2="556.5"/>
        <line class="cls-64" x1="188" y1="556" x2="191" y2="556"/>
      </g>
      <g>
        <path class="cls-25" d="M195.5,609.1v15.1c0,.8-.6,1.4-1.4,1.4h-9.2c-.8,0-1.4-.6-1.4-1.4v-15.1"/>
        <line class="cls-25" x1="186.5" y1="609.1" x2="186.5" y2="622.1"/>
        <line class="cls-25" x1="189.5" y1="609.1" x2="189.5" y2="622.1"/>
        <line class="cls-25" x1="192.5" y1="609.1" x2="192.5" y2="622.1"/>
        <line class="cls-25" x1="182" y1="607.6" x2="196.9" y2="607.6"/>
        <line class="cls-55" x1="188" y1="607.1" x2="191" y2="607.1"/>
      </g>
      <g>
        <path class="cls-53" d="M219.1,378.5h-20.3c-.8,0-1.4-.6-1.4-1.4v-5.2c0-.8.6-1.4,1.4-1.4h20.3c.8,0,1.4.6,1.4,1.4v5.2c0,.8-.6,1.4-1.4,1.4Z"/>
        <polyline class="cls-53" points="197.6 371.2 200.4 367.5 217.6 367.5 220.3 371.2"/>
        <line class="cls-53" x1="200" y1="374.5" x2="208" y2="374.5"/>
        <line class="cls-53" x1="215" y1="374.5" x2="218" y2="374.5"/>
      </g>
      <g>
        <path class="cls-53" d="M199.5,444.1l1.8-9.5c.1-.7.7-1.2,1.4-1.2h4.9"/>
        <path class="cls-53" d="M216.9,433.5c.9,0,1.6.8,1.4,1.7l-1.7,8.9c0,.8-.6,1.4-1.4,1.4h-16.2c-.8,0-1.4-.6-1.4-1.4v-11.2c0-.8.6-1.4,1.4-1.4h7.2c.8,0,1.4.6,1.4,1.4v.6h9.3Z"/>
      </g>
      <g>
        <path class="cls-53" d="M199.5,411.2v-9.2c0-.8.6-1.4,1.4-1.4h6.7"/>
        <path class="cls-53" d="M216.6,402v9.2c0,.8-.6,1.4-1.4,1.4h-16.2c-.8,0-1.4-.6-1.4-1.4v-11.2c0-.8.6-1.4,1.4-1.4h7.2c.8,0,1.4.6,1.4,1.4v.6h7.6c.8-.1,1.4.6,1.4,1.4Z"/>
      </g>
      <polyline class="cls-24" points="186.6 656.5 190.5 660.5 186.6 664.4"/>
      <polyline class="cls-32" points="184.8 692 191.4 698.6 184.8 705.2"/>
      <polyline class="cls-32" points="190.3 729.7 183.7 736.3 190.3 742.9"/>
      <polygon class="cls-100" points="194 775.5 190 779 190 772.1 194 775.5"/>
      <g>
        <circle class="cls-40" cx="204.3" cy="507.4" r="7"/>
        <line class="cls-40" x1="209.3" y1="512.3" x2="214.6" y2="517.5"/>
      </g>
      <g>
        <path class="cls-26" d="M241.1,371.6c1.1-2.4,3.5-4.1,6.4-4.1s7,3.1,7,7-3.1,7-7,7-6.4-2.6-6.9-6"/>
        <polygon class="cls-93" points="244 372.2 240 372.2 240 368.1 244 372.2"/>
      </g>
      <polygon class="cls-1" points="245.4 408.1 240.7 403 250.2 403 245.4 408.1"/>
      <circle class="cls-80" cx="248" cy="435.9" r="7.9"/>
      <polyline class="cls-55" points="243.6 435.6 246.7 438.6 252.3 433.2"/>
      <g>
        <line class="cls-12" x1="241.1" y1="463" x2="250.9" y2="472.9"/>
        <line class="cls-12" x1="250.9" y1="463" x2="241.1" y2="472.9"/>
      </g>
      <g>
        <line class="cls-27" x1="240.1" y1="526.5" x2="249.9" y2="536.5"/>
        <line class="cls-27" x1="249.9" y1="526.5" x2="240.1" y2="536.5"/>
      </g>
      <g>
        <line class="cls-62" x1="240.4" y1="498.3" x2="253.6" y2="511.6"/>
        <line class="cls-62" x1="253.6" y1="498.3" x2="240.4" y2="511.6"/>
      </g>
      <g>
        <path class="cls-22" d="M256.6,611c0,1.5-.6,2.9-1.6,3.9s-2.4,1.6-3.9,1.6h-14.8c-3.1,0-5.5-2.5-5.5-5.6s.6-2.9,1.6-3.9,2.3-1.6,3.8-1.6c.3-3.9,3.5-6.9,7.5-6.9s7.2,3,7.5,6.9c3,0,5.4,2.5,5.4,5.6Z"/>
        <polygon class="cls-37" points="248.7 610.3 243.8 615.2 238.8 610.3 241.8 610.3 241.8 604.5 245.7 604.5 245.7 610.3 248.7 610.3"/>
      </g>
      <g>
        <path class="cls-25" d="M256.4,569.1c0,1.5-.6,2.9-1.6,3.9s-2.4,1.6-3.9,1.6h-14.8c-3.1,0-5.5-2.5-5.5-5.6s.6-2.9,1.6-3.9,2.3-1.6,3.8-1.6c.3-3.9,3.5-6.9,7.5-6.9s7.2,3,7.5,6.9c3,0,5.4,2.6,5.4,5.6Z"/>
        <polygon class="cls-23" points="248.4 568.4 243.5 573.4 238.6 568.4 241.6 568.4 241.6 562.7 245.4 562.7 245.4 568.4 248.4 568.4"/>
      </g>
      <g>
        <path class="cls-22" d="M256.6,709c0,1.5-.6,2.9-1.6,3.9s-2.4,1.6-3.9,1.6h-14.8c-3.1,0-5.5-2.5-5.5-5.6s.6-2.9,1.6-3.9,2.3-1.6,3.8-1.6c.3-3.9,3.5-6.9,7.5-6.9s7.2,3,7.5,6.9c3,0,5.4,2.6,5.4,5.6Z"/>
        <polygon class="cls-37" points="237.8 707.9 243.8 702.2 249.7 707.9 246.1 707.9 246.1 714.6 241.4 714.6 241.4 707.9 237.8 707.9"/>
      </g>
      <g>
        <path class="cls-25" d="M256.6,658.9c0,1.5-.6,2.9-1.6,3.9s-2.4,1.6-3.9,1.6h-14.8c-3.1,0-5.5-2.5-5.5-5.6s.6-2.9,1.6-3.9,2.3-1.6,3.8-1.6c.3-3.9,3.5-6.9,7.5-6.9s7.2,3,7.5,6.9c3,0,5.4,2.5,5.4,5.6Z"/>
        <polygon class="cls-23" points="237.8 657.7 243.8 652 249.7 657.7 246.1 657.7 246.1 664.4 241.4 664.4 241.4 657.7 237.8 657.7"/>
      </g>
      <g>
        <rect class="cls-77" x="235.4" y="787.5" width="15.1" height="15.1"/>
        <line class="cls-60" x1="239" y1="795" x2="246.9" y2="795"/>
      </g>
      <rect class="cls-77" x="235.4" y="822.5" width="15.1" height="15.1"/>
      <g>
        <circle class="cls-41" cx="222.1" cy="15.1" r="13.6"/>
        <line class="cls-46" x1="219.5" y1="11" x2="219.5" y2="18.5"/>
        <line class="cls-46" x1="224.5" y1="11" x2="224.5" y2="18.5"/>
      </g>
      <g>
        <path class="cls-51" d="M234.3,54.3c0,3.1-1.2,5.9-3.1,8-2.2,2.3-5.3,3.8-8.7,3.8s-6.5-1.5-8.7-3.8c-1.9-2.1-3.1-4.9-3.1-8,0-6.5,5.3-11.8,11.8-11.8s11.8,5.2,11.8,11.8Z"/>
        <path class="cls-80" d="M231.2,62.3c-2.2,2.3-5.3,3.8-8.7,3.8s-6.5-1.5-8.7-3.8c1.6-3.2,4.9-5.3,8.7-5.3s7,2.1,8.7,5.3Z"/>
        <circle class="cls-80" cx="222.4" cy="50.5" r="4.5"/>
      </g>
      <g>
        <circle class="cls-51" cx="222" cy="127.1" r="13.5"/>
        <polyline class="cls-66" points="215.6 127.1 220.3 131.8 228.8 123.2"/>
      </g>
      <g>
        <g>
          <g>
            <g>
              <polyline class="cls-25" points="177.2 18.5 168.6 18.5 168.6 3.5 186.6 3.5 186.6 9"/>
              <line class="cls-25" x1="174.5" y1="3.5" x2="174.5" y2="18.5"/>
              <line class="cls-25" x1="180.5" y1="3.5" x2="180.5" y2="11.5"/>
              <line class="cls-25" x1="186.6" y1="8.5" x2="168.6" y2="8.5"/>
              <line class="cls-25" x1="178.9" y1="13.5" x2="168.6" y2="13.5"/>
            </g>
            <line class="cls-25" x1="170" y1="1.5" x2="172" y2="1.5"/>
            <line class="cls-25" x1="183" y1="1.5" x2="185" y2="1.5"/>
          </g>
          <circle class="cls-25" cx="186.5" cy="18.5" r="7"/>
        </g>
        <polyline class="cls-25" points="186.5 13 186.5 18.5 189.5 21.5"/>
      </g>
      <g>
        <rect class="cls-25" x="166.5" y="115.7" width="22" height="16.9"/>
        <rect class="cls-84" x="166.5" y="115.7" width="22" height="1.5"/>
        <line class="cls-25" x1="173" y1="120.7" x2="186" y2="120.7"/>
        <line class="cls-25" x1="173" y1="124.7" x2="186" y2="124.7"/>
        <line class="cls-25" x1="173" y1="128.7" x2="186" y2="128.7"/>
        <rect class="cls-84" x="169" y="120.2" width="2" height="2"/>
        <rect class="cls-84" x="169" y="124.2" width="2" height="2"/>
        <rect class="cls-84" x="169" y="128.2" width="2" height="2"/>
      </g>
      <g>
        <polyline class="cls-25" points="177 181.4 166.5 181.4 166.5 167.5 187.5 167.5 187.5 173.4"/>
        <circle class="cls-25" cx="186" cy="181.9" r="6.6"/>
        <g>
          <line class="cls-55" x1="186" y1="180.9" x2="186" y2="185.8"/>
          <line class="cls-55" x1="186" y1="177.8" x2="186" y2="179.9"/>
        </g>
        <line class="cls-25" x1="177" y1="184.4" x2="173" y2="184.4"/>
      </g>
      <g>
        <rect class="cls-25" x="209.6" y="218.6" width="21.9" height="15.9"/>
        <line class="cls-25" x1="217" y1="236.5" x2="224" y2="236.5"/>
        <path class="cls-25" d="M216.9,225.2c.6-1.5,2-2.6,3.8-2.6s4,1.8,4,4-1.8,4-4,4-3.6-1.4-3.9-3.3"/>
        <polygon class="cls-84" points="219.9 226 216 226 216 222 219.9 226"/>
      </g>
      <g>
        <path class="cls-55" d="M183.9,291h-15.9c0-1.3.8-2.4,2-2.9v-7.1c0-2.5,1.6-4.7,3.8-5.6.7-.3,1.4-.4,2.1-.4s1.5.1,2.2.4c2.2.9,3.8,3,3.8,5.6v7.1c.4.2.8.4,1,.7.7.6,1,1.4,1,2.2h0Z"/>
        <path class="cls-84" d="M178.3,274.7c0,.3-.1.5-.1.8-.7-.3-1.4-.4-2.2-.4s-1.5.1-2.1.4c-.1-.2-.1-.5-.1-.8,0-1.3,1-2.3,2.3-2.3s2.2,1,2.2,2.3h0Z"/>
      </g>
      <g>
        <g>
          <rect class="cls-25" x="166.5" y="325.6" width="19" height="13.9"/>
          <rect class="cls-84" x="166.5" y="336" width="19" height="3.5"/>
        </g>
        <line class="cls-39" x1="172.5" y1="341.5" x2="179.5" y2="341.5"/>
      </g>
      <g>
        <line class="cls-48" x1="209" y1="278.5" x2="231" y2="278.5"/>
        <line class="cls-48" x1="209" y1="285.5" x2="231" y2="285.5"/>
        <line class="cls-48" x1="209" y1="292.5" x2="231" y2="292.5"/>
      </g>
      <g>
        <path class="cls-25" d="M234.3,176.3c0,3.1-1.2,5.9-3.1,8-2.2,2.3-5.3,3.8-8.7,3.8s-6.5-1.5-8.7-3.8c-1.9-2.1-3.1-4.9-3.1-8,0-6.5,5.3-11.8,11.8-11.8s11.8,5.2,11.8,11.8Z"/>
        <path class="cls-84" d="M231.2,184.3c-2.2,2.3-5.3,3.8-8.7,3.8s-6.5-1.5-8.7-3.8c1.6-3.2,4.9-5.3,8.7-5.3,3.7-.1,7,2.1,8.7,5.3Z"/>
        <circle class="cls-84" cx="222.4" cy="172.5" r="4.5"/>
      </g>
      <g>
        <g>
          <line class="cls-25" x1="222.5" y1="83" x2="222.5" y2="93.4"/>
          <polyline class="cls-58" points="227.5 88.6 222.5 93.6 217.4 88.6"/>
        </g>
        <line class="cls-23" x1="217" y1="95.5" x2="228" y2="95.5"/>
      </g>
      <g>
        <g>
          <g>
            <polyline class="cls-25" points="133.1 626.4 127.5 626.4 127.5 606.4 137.5 606.4 137.6 606.5 142.4 611.4 142.5 611.4 142.5 618.7"/>
            <polyline class="cls-25" points="142.4 611.4 137.6 611.4 137.6 606.5"/>
          </g>
          <path class="cls-25" d="M142.5,626.9v-5.1c0-.8-.6-1.4-1.4-1.4h-5.2c-.8,0-1.4.6-1.4,1.4v5.1"/>
          <rect class="cls-25" x="137.6" y="613.4" width="2" height="7"/>
          <line class="cls-25" x1="137.6" y1="615.3" x2="139.5" y2="615.3"/>
        </g>
        <line class="cls-25" x1="136.5" y1="622.8" x2="136.5" y2="626.9"/>
        <line class="cls-25" x1="138.5" y1="622.8" x2="138.5" y2="626.9"/>
        <line class="cls-25" x1="140.5" y1="622.8" x2="140.5" y2="626.9"/>
      </g>
      <rect class="cls-97" x="4" y="948" width="16" height="16"/>
      <g>
        <rect class="cls-97" x="4" y="1056" width="16" height="16"/>
        <polyline class="cls-55" points="7.4 1063 10.5 1066.1 16.3 1060.8"/>
      </g>
      <g>
        <rect class="cls-76" x="4.4" y="985.5" width="15.1" height="15.1"/>
        <line class="cls-61" x1="8" y1="993" x2="15.9" y2="993"/>
      </g>
      <rect class="cls-76" x="4.4" y="1020.5" width="15.1" height="15.1"/>
      <path class="cls-94" d="M339,7h-32.1c-1.4-1.5-2.7-2.8-5.9-6h-19c-3.3,0-6,2.7-6,6v47c0,3.3,2.7,6,6,6h57c3.3,0,6-2.7,6-6V13c0-3.3-2.7-6-6-6ZM280,56V16h61v40h-61Z"/>
    </g>
  </g>
</svg>