<?xml version="1.0" encoding="utf-8"?>
<!-- Generator: Adobe Illustrator 23.0.2, SVG Export Plug-In . SVG Version: 6.00 Build 0)  -->
<svg version="1.1" id="Layer_1" xmlns="http://www.w3.org/2000/svg" xmlns:xlink="http://www.w3.org/1999/xlink" x="0px" y="0px"
	 width="266.6px" height="37.9px" viewBox="0 0 266.6 37.9" style="enable-background:new 0 0 266.6 37.9;" xml:space="preserve">
<style type="text/css">
	.st0{fill:#2A76BD;}
</style>
<g>
	<path class="st0" d="M2,6.2C1.4,6.9,1,7.6,1,8.5v28.3h6.9V5.3H4.5C3.6,5.3,2.8,5.6,2,6.2z"/>
	<path class="st0" d="M23.8,5.3h-9.6c-1,0-1.8,0.3-2.4,1c-0.6,0.5-1,1.4-1,2.3V37H22c3.2,0,5.6-0.1,7-0.6c1.7-0.5,3.1-1.2,4.6-2.2
		c1.7-1.2,3.1-3.1,4.1-5.2c0.9-2.3,1.4-4.7,1.4-7.6c0-5.2-1.3-9.2-3.7-11.9C32.7,6.6,28.9,5.3,23.8,5.3z M29.9,28.8
		c-1.4,1.5-3.8,2.4-6.9,2.4h-5.5V10.7h6.4c2.8,0,5,0.8,6.3,2.4c1.4,1.7,2,4.4,2,7.8C32.1,24.8,31.5,27.4,29.9,28.8z"/>
	<path class="st0" d="M54,12.4c-1.8,0-3.5,0.1-5.1,0.6c-1.7,0.5-3.1,1.2-4.4,2c-1.3,1-2.3,2.3-3.1,4s-1.2,3.7-1.2,6v11.8h6.8V24.3
		c0-1.8,0.5-3.2,1.4-4c0.9-0.8,2.3-1.3,4.2-1.3h2.2v-6.5h-0.5L54,12.4L54,12.4z"/>
	<path class="st0" d="M60.7,12.4h-3.5v24.5H64V15.6c0-0.8-0.4-1.5-1-2.2C62.3,12.8,61.6,12.4,60.7,12.4z"/>
	<path class="st0" d="M85.1,12.4c-1.5,0-2.6,0.8-3.1,2.2l-4.6,15l-5.1-17.2H65l9.1,24.5H81l9.2-24.5L85.1,12.4z"/>
	<path class="st0" d="M60.1,3.5c2,0,3.7,1.5,3.7,3.6c0,1.9-1.7,3.6-3.7,3.6s-3.7-1.5-3.7-3.6S58.1,3.5,60.1,3.5z"/>
	<path class="st0" d="M110.6,15.1c-2-2.2-5.1-3.3-9.1-3.3c-3.7,0-6.5,1.2-8.6,3.3s-3.1,5.2-3.1,9.2c0,4.1,1,7.3,3.1,9.5
		c2,2.3,5,3.3,8.6,3.3c3.1,0,5.6-0.8,7.6-2s3.3-3.3,4.1-5.9h-4.9c-0.8,0-1.4,0.1-1.8,0.5c-0.5,0.3-0.6,0.5-0.8,0.8
		c-0.1,0.1-0.4,0.4-0.5,0.5c-0.1,0.1-0.4,0.3-0.5,0.3c-0.8,0.5-1.8,0.6-2.8,0.6c-1.7,0-2.9-0.5-3.7-1.4c-0.9-0.9-1.4-2.3-1.4-4.2
		h16.9c0.1-0.1,0.1-0.4,0.1-0.6v-0.4v-0.6C113.7,20.4,112.6,17.4,110.6,15.1z M96.8,22c0.1-1.5,0.5-2.8,1.4-3.7
		c0.9-0.8,2-1.3,3.5-1.3c1.5,0,2.7,0.5,3.6,1.3c0.8,0.8,1.2,2,1.4,3.7H96.8z"/>
</g>
<g>
	<path class="st0" d="M139.1,37.1h-11.6V14.3c0-1.4,1.2-2.7,2.7-2.7h9.5c4.9,0,7.9,1.9,7.9,6.5c0,2.7-1.2,4.4-3.1,5.2
		c2.6,1,4,2.7,4,6C148.5,34.7,144.6,37.1,139.1,37.1z M138.5,16h-5.8v5.5h5.9c2,0,3.7-0.6,3.7-2.7S140.8,16,138.5,16z M138.7,25.9
		h-6v6.7h6.1c2.6,0,4.2-0.8,4.2-3.3C143,26.6,141.4,25.9,138.7,25.9z"/>
	<path class="st0" d="M153.6,11.6h5l5.1,19.5l5-19.5h7.8v25.6h-5V16.6l-5.2,20.6H161l-5.1-20.6v20.6h-5V14.3
		C150.9,12.9,152.1,11.6,153.6,11.6z"/>
	<path class="st0" d="M195.8,24.9c1.2,0.4,1.9,1,2.4,1.8c0.5,0.8,0.6,2,0.8,3.7l0.1,5c0,0.8,0.4,1.4,0.8,1.7h-5.8
		c-0.3-0.5-0.4-1-0.5-1.5c-0.1-0.4-0.1-1.8-0.1-4.4c-0.1-3.1-0.8-4-3.8-4h-5.6v9.9h-5.2V14.3c0-1.4,1.2-2.7,2.7-2.7h9.7
		c5.2,0,8.2,2,8.2,7.3C199.7,22.1,198.3,24.3,195.8,24.9z M190.9,16h-6.5v6.8h6.1c2.4,0,3.8-0.9,3.8-3.3C194.4,17,193.2,16,190.9,16
		z"/>
</g>
<g>
	<path class="st0" d="M117.2,7.3c-0.1-0.1-0.4-0.4-0.6-0.5c0.5-0.1,0.9-0.3,1.2-0.5c0.3-0.3,0.4-0.6,0.4-1.2c0-0.4-0.1-0.6-0.3-0.9
		c-0.1-0.3-0.5-0.5-0.8-0.5s-0.8-0.1-1.4-0.1h-0.1h-2.4v5.9h1.2V6.9h0.3c0.3,0,0.5,0,0.6,0.1c0.1,0,0.1,0.1,0.4,0.1
		c0.1,0.1,0.4,0.5,0.6,0.9l0.8,1.3h1.4l-0.8-1.2C117.6,7.6,117.4,7.4,117.2,7.3z M115.7,5.8c-0.1,0-0.3,0-0.4,0h-0.9V4.3h0.9
		c0.1,0,0.1,0,0.3,0c0.3,0,0.5,0,0.5,0c0.1,0,0.4,0.1,0.5,0.3c0.1,0.1,0.1,0.3,0.1,0.5c0,0.1-0.1,0.4-0.1,0.5
		c-0.1,0.1-0.1,0.1-0.4,0.3C116.3,5.8,116.1,5.8,115.7,5.8z"/>
	<path class="st0" d="M119.8,2.3c-1.2-1-2.6-1.7-4.1-1.7c-1.5,0-3.1,0.6-4.1,1.7c-1.2,1.2-1.8,2.4-1.8,4.1s0.6,3.1,1.8,4.1
		c1,1,2.4,1.7,4.1,1.7c1.5,0,3.1-0.6,4.1-1.7c1.2-1,1.8-2.4,1.8-4.1S120.8,3.3,119.8,2.3z M118.9,9.6c-0.8,0.8-2,1.3-3.3,1.3
		c-1.3,0-2.4-0.5-3.3-1.3c-0.9-0.8-1.3-2-1.3-3.3s0.5-2.4,1.4-3.3c0.9-0.9,2-1.4,3.3-1.4c1.3,0,2.4,0.5,3.3,1.4
		c0.8,0.9,1.3,2,1.3,3.3C120.2,7.5,119.8,8.8,118.9,9.6z"/>
</g>
<g>
	<path class="st0" d="M209.4,12.2h13.4c3.8,0,7.4,1.9,7.4,7.2c0,4.7-3.1,7.3-8.6,7.3H212v10.5h-2.6V12.2z M212.1,24.3h10
		c4.4,0,5.5-1.9,5.5-4.9c0-3.7-2-4.9-5-4.9h-10.5L212.1,24.3L212.1,24.3z"/>
	<path class="st0" d="M233.2,19h2.6v4.1h0.1c0.9-2.2,2.7-4.7,6.9-4.7c0.8,0,1.2,0,1.5,0.1v2.7c-0.8-0.1-1.5-0.3-2.3-0.3
		c-2.8,0-6.1,1.7-6.1,6.9v9.2h-2.6L233.2,19z"/>
	<path class="st0" d="M255.8,18.5c6.9,0,10.2,4.6,10.2,9.6s-3.3,9.6-10.2,9.6c-6.9,0-10.2-4.6-10.2-9.6
		C245.5,23,248.7,18.5,255.8,18.5z M255.8,35.5c4.9,0,7.7-3.1,7.7-7.4s-2.8-7.4-7.7-7.4c-4.9,0-7.7,3.1-7.7,7.4
		S250.9,35.5,255.8,35.5z"/>
</g>
</svg>
