<?xml version="1.0" encoding="utf-8"?>
<!-- Generator: Adobe Illustrator 26.5.0, SVG Export Plug-In . SVG Version: 6.00 Build 0)  -->
<svg version="1.1" id="Layer_1" xmlns="http://www.w3.org/2000/svg" xmlns:xlink="http://www.w3.org/1999/xlink" x="0px" y="0px"
	 width="284.8px" height="2499.3px" viewBox="0 0 284.8 2499.3" style="enable-background:new 0 0 284.8 2499.3;"
	 xml:space="preserve">
<style type="text/css">
	.st0{fill-rule:evenodd;clip-rule:evenodd;fill:#F7F7F7;}
	.st1{fill:#D8E8BE;}
	.st2{fill:#FCD9DA;}
	.st3{fill:#DCE6F5;}
	.st4{fill:none;stroke:#676D8D;stroke-width:2;stroke-miterlimit:10;}
	.st5{fill:none;stroke:#676D8D;stroke-width:2;stroke-linecap:round;stroke-miterlimit:10;}
	.st6{fill:none;stroke:#676D8D;stroke-width:2;stroke-linecap:round;stroke-linejoin:round;stroke-miterlimit:10;}
	.st7{fill:none;stroke:#676D8D;stroke-miterlimit:10;}
	.st8{fill:none;stroke:#676D8D;stroke-width:3;stroke-miterlimit:10;}
	.st9{fill:none;stroke:#676D8D;stroke-width:3;stroke-linejoin:round;stroke-miterlimit:10;}
	.st10{fill:#F69C9E;}
	.st11{fill:#8ACCA0;}
	.st12{fill:none;stroke:#676D8D;stroke-width:3;stroke-linecap:round;stroke-linejoin:round;stroke-miterlimit:10;}
	.st13{fill:none;stroke:#676D8D;stroke-width:2;stroke-linejoin:round;stroke-miterlimit:10;}
	.st14{fill:#FCDFE4;}
	.st15{fill:#D3E6B1;}
	.st16{opacity:0.15;}
	.st17{fill:#F8F8F8;}
	.st18{fill:#DDE8F6;}
	.st19{fill:#F3CED6;}
	.st20{fill:none;stroke:#606989;stroke-width:2;stroke-miterlimit:10;}
	.st21{fill:#F8F7F1;}
	.st22{fill:#EBF1F6;}
	.st23{fill:none;stroke:#6B86AE;stroke-miterlimit:10;}
	.st24{fill:#D9F0FC;}
	.st25{fill:none;stroke:#6B86AE;stroke-linecap:round;stroke-miterlimit:10;}
	.st26{fill:#FFFFFF;stroke:#6B86AE;stroke-miterlimit:10;}
	.st27{fill:#FFD26C;}
	.st28{fill:#78C8AD;}
	.st29{fill:#F59A9C;}
	.st30{fill:#F76363;stroke:#FFFFFF;stroke-width:3;stroke-miterlimit:10;}
	.st31{fill:none;stroke:#FFFAFA;stroke-width:3;stroke-linejoin:round;stroke-miterlimit:10;}
	.st32{fill:#31AE00;stroke:#FFFFFF;stroke-width:3;stroke-miterlimit:10;}
	.st33{fill:url(#SVGID_1_);}
	.st34{fill:#AAAAAA;stroke:#FFFFFF;stroke-width:3;stroke-miterlimit:10;}
	.st35{opacity:0.8;fill:url(#SVGID_00000042009446073630175480000007882108185852664718_);enable-background:new    ;}
	.st36{fill:none;stroke:#FFFFFF;stroke-width:3;stroke-miterlimit:10;}
	.st37{fill:none;stroke:#FFFFFF;stroke-width:3;stroke-linecap:round;stroke-linejoin:round;stroke-miterlimit:10;}
</style>
<g>
	<g>
		<path class="st0" d="M51.3,265.7l103.9-60c9.3-5.4,12.5-17.3,7.1-26.6s-17.3-12.5-26.6-7.1L31.8,232c-9.3,5.4-12.5,17.3-7.1,26.6
			C30.1,267.9,42,271.1,51.3,265.7z M220.1,195.4c-5.9-9-18-11.6-27-5.7L32.6,295.3c-9,5.9-11.6,18-5.7,27s18,11.6,27,5.7
			l160.5-105.6C223.5,216.5,226,204.4,220.1,195.4z M232.4,249.1c-5.4-9.3-17.3-12.5-26.6-7.1l-103.9,60
			c-9.3,5.4-12.5,17.3-7.1,26.6c5.4,9.3,17.3,12.5,26.6,7.1l103.9-60C234.6,270.4,237.8,258.4,232.4,249.1z"/>
	</g>
</g>
<g>
	<circle class="st1" cx="33.3" cy="8.2" r="3.4"/>
	<circle class="st2" cx="83.4" cy="29.2" r="2.5"/>
	<path class="st3" d="M75,45.2c0,3.6-2.9,6.5-6.4,6.5h-33c-2.6,0-5-1.1-6.7-2.8s-2.8-4.1-2.8-6.7c0-5.2,4.2-9.4,9.4-9.4h4.2
		c1.5-5.2,6.3-9.1,12-9.1c6.9,0,12.5,5.6,12.5,12.5c0,0.8-0.1,1.6-0.2,2.5h4.5c1.8,0,3.4,0.7,4.5,1.9C74.3,41.8,75,43.4,75,45.2z"/>
	<path class="st4" d="M35.6,54.7c-7,0-12.6-5.6-12.6-12.6c0-3.5,1.4-6.6,3.7-8.9c2.3-2.3,5.4-3.7,8.9-3.7h2.2
		c2.4-5.2,7.7-8.8,13.8-8.8c8.3,0,15,6.6,15.2,14.9h1.5c2.6,0,5,1.1,6.8,2.8c1.7,1.7,2.8,4.1,2.8,6.8c0,5.3-4.3,9.6-9.6,9.6H62"/>
	<g>
		<line class="st5" x1="49" y1="46.6" x2="49" y2="35.7"/>
		<path class="st5" d="M44.6,39.6l3.9-3.9c0.3-0.3,0.7-0.3,0.9,0l3.9,3.9"/>
	</g>
	<g>
		<line class="st5" x1="42.9" y1="64.4" x2="42.9" y2="53.5"/>
		<path class="st6" d="M38.5,57.4l3.9-3.9c0.3-0.3,0.7-0.3,0.9,0l3.9,3.9"/>
	</g>
	<g>
		<line class="st5" x1="59" y1="58.1" x2="59" y2="47.2"/>
		<path class="st6" d="M54.7,51.1l3.9-3.9c0.3-0.3,0.7-0.3,0.9,0l3.9,3.9"/>
	</g>
	<g>
		<line class="st7" x1="3" y1="40.2" x2="10" y2="40.2"/>
		<line class="st7" x1="6.5" y1="36.7" x2="6.5" y2="43.7"/>
	</g>
	<g>
		<line class="st7" x1="88" y1="50.2" x2="93" y2="50.2"/>
		<line class="st7" x1="90.5" y1="47.7" x2="90.5" y2="52.7"/>
	</g>
	<circle class="st7" cx="34.5" cy="6.1" r="3.1"/>
	<circle class="st7" cx="81.5" cy="29.2" r="2.1"/>
</g>
<g>
	<g>
		<path class="st3" d="M218.7,245.7L218.7,245.7c-1-1.7-2.8-2.9-5-2.9H42.1c-2.1,0-4,1.2-5,2.9l0,0l17.5-32.1c1-1.8,2.9-3,5-3h136.1
			c2,0,3.9,1.1,4.9,2.9L218.7,245.7z"/>
		<path class="st8" d="M219.4,248.5V289c0,3.1-2.5,5.7-5.7,5.7H42.1c-3.1,0-5.7-2.5-5.7-5.7v-40.5c0-1,0.3-1.9,0.7-2.8l0,0
			c1-1.7,2.8-2.9,5-2.9h171.6c2.1,0,4,1.2,5,2.9l0,0C219.1,246.6,219.4,247.5,219.4,248.5z"/>
		<path class="st9" d="M218.7,245.7L218.7,245.7c-1-1.7-2.8-2.9-5-2.9H42.1c-2.1,0-4,1.2-5,2.9l0,0l17.5-32.1c1-1.8,2.9-3,5-3h136.1
			c2,0,3.9,1.1,4.9,2.9L218.7,245.7z"/>
		<g>
			<line class="st9" x1="52.5" y1="299.8" x2="92.4" y2="299.8"/>
			<line class="st9" x1="163.5" y1="299.8" x2="203.3" y2="299.8"/>
		</g>
	</g>
	<g>
		<circle class="st10" cx="56.3" cy="262.7" r="6"/>
		<circle class="st3" cx="78.3" cy="262.7" r="6"/>
		<circle class="st11" cx="100.3" cy="262.7" r="6"/>
		<circle class="st8" cx="56.3" cy="262.7" r="6"/>
		<circle class="st8" cx="78.3" cy="262.7" r="6"/>
		<circle class="st8" cx="100.3" cy="262.7" r="6"/>
		<g>
			<line class="st12" x1="163.3" y1="270.8" x2="163.3" y2="256.7"/>
			<line class="st12" x1="163.3" y1="280.9" x2="163.3" y2="275.8"/>
		</g>
		<g>
			<line class="st12" x1="183.3" y1="270.8" x2="183.3" y2="256.7"/>
			<line class="st12" x1="183.3" y1="280.9" x2="183.3" y2="275.8"/>
		</g>
		<g>
			<line class="st12" x1="203.3" y1="270.8" x2="203.3" y2="256.7"/>
			<line class="st12" x1="203.3" y1="280.9" x2="203.3" y2="275.8"/>
		</g>
		<g>
			<line class="st12" x1="173.3" y1="266.8" x2="173.3" y2="280.9"/>
			<line class="st12" x1="173.3" y1="256.7" x2="173.3" y2="261.8"/>
		</g>
		<g>
			<line class="st12" x1="193.3" y1="266.8" x2="193.3" y2="280.9"/>
			<line class="st12" x1="193.3" y1="256.7" x2="193.3" y2="261.8"/>
		</g>
	</g>
	<g>
		<g>
			<line class="st13" x1="176.6" y1="165.9" x2="176.6" y2="184.8"/>
			<line class="st13" x1="167.1" y1="175.3" x2="186" y2="175.3"/>
		</g>
		<g>
			<line class="st13" x1="240.9" y1="299.4" x2="240.9" y2="311.1"/>
			<line class="st13" x1="235" y1="305.3" x2="246.8" y2="305.3"/>
		</g>
		<circle class="st14" cx="33.4" cy="196.8" r="5.4"/>
		<circle class="st13" cx="36" cy="196.1" r="5.2"/>
		<circle class="st15" cx="12.3" cy="301.9" r="9.3"/>
		<circle class="st13" cx="17.5" cy="299.8" r="8.6"/>
	</g>
</g>
<g class="st16">
	<g>
		<path class="st3" d="M218.7,535.7L218.7,535.7c-1-1.7-2.8-2.9-5-2.9H42.1c-2.1,0-4,1.2-5,2.9l0,0l17.5-32.1c1-1.8,2.9-3,5-3h136.1
			c2,0,3.9,1.1,4.9,2.9L218.7,535.7z"/>
		<path class="st8" d="M219.4,538.5V579c0,3.1-2.5,5.7-5.7,5.7H42.1c-3.1,0-5.7-2.5-5.7-5.7v-40.5c0-1,0.3-1.9,0.7-2.8l0,0
			c1-1.7,2.8-2.9,5-2.9h171.6c2.1,0,4,1.2,5,2.9l0,0C219.1,536.6,219.4,537.5,219.4,538.5z"/>
		<path class="st9" d="M218.7,535.7L218.7,535.7c-1-1.7-2.8-2.9-5-2.9H42.1c-2.1,0-4,1.2-5,2.9l0,0l17.5-32.1c1-1.8,2.9-3,5-3h136.1
			c2,0,3.9,1.1,4.9,2.9L218.7,535.7z"/>
		<g>
			<line class="st9" x1="52.5" y1="589.8" x2="92.4" y2="589.8"/>
			<line class="st9" x1="163.5" y1="589.8" x2="203.3" y2="589.8"/>
		</g>
	</g>
	<g>
		<circle class="st10" cx="56.3" cy="552.7" r="6"/>
		<circle class="st3" cx="78.3" cy="552.7" r="6"/>
		<circle class="st11" cx="100.3" cy="552.7" r="6"/>
		<circle class="st8" cx="56.3" cy="552.7" r="6"/>
		<circle class="st8" cx="78.3" cy="552.7" r="6"/>
		<circle class="st8" cx="100.3" cy="552.7" r="6"/>
		<g>
			<line class="st12" x1="163.3" y1="560.8" x2="163.3" y2="546.7"/>
			<line class="st12" x1="163.3" y1="570.9" x2="163.3" y2="565.8"/>
		</g>
		<g>
			<line class="st12" x1="183.3" y1="560.8" x2="183.3" y2="546.7"/>
			<line class="st12" x1="183.3" y1="570.9" x2="183.3" y2="565.8"/>
		</g>
		<g>
			<line class="st12" x1="203.3" y1="560.8" x2="203.3" y2="546.7"/>
			<line class="st12" x1="203.3" y1="570.9" x2="203.3" y2="565.8"/>
		</g>
		<g>
			<line class="st12" x1="173.3" y1="556.8" x2="173.3" y2="570.9"/>
			<line class="st12" x1="173.3" y1="546.7" x2="173.3" y2="551.8"/>
		</g>
		<g>
			<line class="st12" x1="193.3" y1="556.8" x2="193.3" y2="570.9"/>
			<line class="st12" x1="193.3" y1="546.7" x2="193.3" y2="551.8"/>
		</g>
	</g>
	<g>
		<g>
			<line class="st13" x1="176.6" y1="455.9" x2="176.6" y2="474.8"/>
			<line class="st13" x1="167.1" y1="465.3" x2="186" y2="465.3"/>
		</g>
		<g>
			<line class="st13" x1="240.9" y1="589.4" x2="240.9" y2="601.1"/>
			<line class="st13" x1="235" y1="595.3" x2="246.8" y2="595.3"/>
		</g>
		<circle class="st14" cx="33.4" cy="486.8" r="5.4"/>
		<circle class="st13" cx="36" cy="486.1" r="5.2"/>
		<circle class="st15" cx="12.3" cy="591.9" r="9.3"/>
		<circle class="st13" cx="17.5" cy="589.8" r="8.6"/>
	</g>
</g>
<g>
	<g>
		<path class="st17" d="M119.7,790.1l-86.2,52.1c-7.1,4.3-16.3,2-20.6-5.1l0,0c-4.3-7.1-2-16.3,5.1-20.6l86.2-52.1
			c7.1-4.3,16.3-2,20.6,5.1l0,0C129,776.6,126.8,785.8,119.7,790.1z"/>
		<path class="st17" d="M177.7,848.4l-86.2,52.1c-7.1,4.3-16.3,2-20.6-5.1l0,0c-4.3-7.1-2-16.3,5.1-20.6l86.2-52.1
			c7.1-4.3,16.3-2,20.6,5.1l0,0C187.1,834.9,184.8,844.1,177.7,848.4z"/>
		<path class="st17" d="M168.6,808.3l-134,84.3c-8.1,5.1-18.7,2.7-23.8-5.4l0,0c-5.1-8.1-2.7-18.7,5.4-23.8l133.9-84.3
			c8.1-5.1,18.7-2.7,23.8,5.4l0,0C179,792.6,176.6,803.2,168.6,808.3z"/>
	</g>
	<g>
		<path class="st18" d="M155.3,843.8c0,6.4-2.6,12.2-6.8,16.4s-10,6.8-16.4,6.8H63.9c-12.8,0-23.2-10.4-23.2-23.2
			c0-6.4,2.6-12.2,6.8-16.4c4-4,9.4-6.5,15.3-6.8c-0.1-1.1-0.2-2.2-0.2-3.3c0-18.9,15.3-34.3,34.2-34.3s34.3,15.3,34.3,34.3
			c0,1.1,0,2.2-0.2,3.2h1.1C144.9,820.6,155.3,831,155.3,843.8z"/>
		<circle class="st1" cx="10.7" cy="840.6" r="7.7"/>
		<circle class="st19" cx="44.3" cy="775.7" r="4.7"/>
		<g>
			<line class="st5" x1="94.5" y1="844.4" x2="94.5" y2="815.7"/>
			<path class="st6" d="M83,826l10.3-10.3c0.7-0.7,1.7-0.7,2.4,0L106,826"/>
		</g>
		<g>
			<line class="st5" x1="76.3" y1="885.2" x2="76.3" y2="856.6"/>
			<path class="st6" d="M64.8,866.8l10.3-10.3c0.7-0.7,1.7-0.7,2.4,0l10.3,10.3"/>
		</g>
		<g>
			<line class="st5" x1="119.7" y1="873.6" x2="119.7" y2="844.9"/>
			<path class="st6" d="M108.2,855.2l10.3-10.3c0.7-0.7,1.7-0.7,2.4,0l10.3,10.3"/>
		</g>
		<g>
			<line class="st4" x1="133.1" y1="750.7" x2="149" y2="750.7"/>
			<line class="st4" x1="141" y1="742.7" x2="141" y2="758.7"/>
		</g>
		<g>
			<line class="st4" x1="197.3" y1="843.5" x2="207.9" y2="843.5"/>
			<line class="st4" x1="202.6" y1="838.2" x2="202.6" y2="848.8"/>
		</g>
		<circle class="st4" cx="15.1" cy="838.6" r="7.1"/>
		<circle class="st4" cx="47.5" cy="776.9" r="4.1"/>
		<path class="st20" d="M57.2,866.9c-13,0-23.5-10.5-23.5-23.5c0-6.5,2.6-12.4,6.9-16.6c4.3-4.3,10.1-6.9,16.6-6.9h1.2
			c-0.1-1.1-0.2-2.3-0.2-3.4c0-20,16.2-36.3,36.2-36.3s36.3,16.2,36.3,36.3c0,1.2,0,2.3-0.2,3.4h1.2c13,0,23.5,10.5,23.5,23.5
			c0,6.5-2.6,12.4-6.9,16.6s-10.1,6.9-16.6,6.9"/>
		<path class="st5" d="M95.4,787.2c10,0,18.9,5,24.3,12.5"/>
	</g>
</g>
<g>
	
		<ellipse transform="matrix(2.615638e-02 -0.9997 0.9997 2.615638e-02 -1010.2189 1098.1854)" class="st21" cx="58.5" cy="1067.6" rx="35.7" ry="35.7"/>
	
		<ellipse transform="matrix(0.9987 -5.099117e-02 5.099117e-02 0.9987 -54.3614 6.6681)" class="st22" cx="103.5" cy="1068.7" rx="40.3" ry="40.3"/>
	<line class="st23" x1="22.4" y1="1094.4" x2="136" y2="1094.4"/>
	<line class="st23" x1="136.6" y1="1094.4" x2="138.8" y2="1094.4"/>
	<line class="st23" x1="140.3" y1="1094.4" x2="142.5" y2="1094.4"/>
	<line class="st23" x1="15.4" y1="1001.7" x2="15.4" y2="1005.2"/>
	<line class="st23" x1="15.4" y1="1007.4" x2="15.4" y2="1011"/>
	<line class="st23" x1="10.8" y1="1006.3" x2="14.4" y2="1006.3"/>
	<line class="st23" x1="16.5" y1="1006.3" x2="20.1" y2="1006.3"/>
	<g>
		<line class="st23" x1="98.9" y1="1009.2" x2="98.9" y2="1012.8"/>
		<line class="st23" x1="98.9" y1="1015" x2="98.9" y2="1018.5"/>
		<line class="st23" x1="94.3" y1="1013.9" x2="97.8" y2="1013.9"/>
		<line class="st23" x1="100" y1="1013.9" x2="103.6" y2="1013.9"/>
	</g>
	<g>
		<g>
			<g>
				<line class="st23" x1="30.4" y1="1042.9" x2="30.4" y2="1045.1"/>
				<line class="st23" x1="30.4" y1="1047.2" x2="30.4" y2="1049.5"/>
			</g>
		</g>
		<g>
			<g>
				<line class="st23" x1="27.2" y1="1046.2" x2="29.4" y2="1046.2"/>
				<line class="st23" x1="31.5" y1="1046.2" x2="33.7" y2="1046.2"/>
			</g>
		</g>
		<g>
			<g>
				<line class="st23" x1="28.1" y1="1043.9" x2="29.7" y2="1045.5"/>
				<line class="st23" x1="31.2" y1="1046.9" x2="32.8" y2="1048.5"/>
			</g>
		</g>
		<g>
			<g>
				<line class="st23" x1="28.1" y1="1048.5" x2="29.7" y2="1046.9"/>
				<line class="st23" x1="31.2" y1="1045.5" x2="32.8" y2="1043.9"/>
			</g>
		</g>
	</g>
	<circle class="st23" cx="153" cy="1052.2" r="1.5"/>
	<path class="st24" d="M125,1070.6l-13.2-22.4c-0.7-1.3-2.1-2-3.6-2H53.7c-1.5,0-2.8,0.8-3.6,2l-13.2,22.4H125z"/>
	<circle class="st23" cx="4.5" cy="1078.5" r="1.5"/>
	<path class="st24" d="M125,1072.6v2.8c0-2.2-1.8-3.9-4.1-3.9H41c-2.3,0-4.1,1.7-4.1,3.9v-2.8c0-2.2,1.8-3.9,4.1-3.9h79.9
		C123.2,1068.6,125,1070.4,125,1072.6z"/>
	<path class="st25" d="M125,1070.6l-13.2-22.4c-0.7-1.3-2.1-2-3.6-2H53.7c-1.5,0-2.8,0.8-3.6,2l-13.2,22.4"/>
	<path class="st26" d="M121.3,1093.8H40.6c-2.3,0-4.1-1.8-4.1-4.1v-17.3c0-2.3,1.8-4.1,4.1-4.1h80.6c2.3,0,4.1,1.8,4.1,4.1v17.3
		C125.4,1092,123.5,1093.8,121.3,1093.8z"/>
	<circle class="st27" cx="48.4" cy="1080.9" r="2.8"/>
	<circle class="st28" cx="58.5" cy="1080.9" r="2.8"/>
	<circle class="st29" cx="68.8" cy="1080.9" r="2.8"/>
	<circle class="st23" cx="68.2" cy="1081" r="3.3"/>
	<circle class="st23" cx="58" cy="1081" r="3.3"/>
	<circle class="st23" cx="47.8" cy="1081" r="3.3"/>
	<g>
		<line class="st23" x1="94.8" y1="1077.3" x2="94.8" y2="1084.6"/>
		<line class="st23" x1="97" y1="1077.3" x2="97" y2="1084.6"/>
		<line class="st23" x1="99.1" y1="1077.3" x2="99.1" y2="1084.6"/>
		<line class="st23" x1="101.3" y1="1077.3" x2="101.3" y2="1084.6"/>
		<line class="st23" x1="103.5" y1="1077.3" x2="103.5" y2="1084.6"/>
		<line class="st23" x1="105.7" y1="1077.3" x2="105.7" y2="1084.6"/>
		<line class="st23" x1="107.9" y1="1077.3" x2="107.9" y2="1084.6"/>
		<line class="st23" x1="110.1" y1="1077.3" x2="110.1" y2="1084.6"/>
		<line class="st23" x1="114.4" y1="1077.3" x2="114.4" y2="1084.6"/>
		<line class="st23" x1="112.2" y1="1077.3" x2="112.2" y2="1084.6"/>
		<line class="st23" x1="116.6" y1="1077.3" x2="116.6" y2="1084.6"/>
	</g>
</g>
<g>
	<g>
		<path class="st0" d="M51.3,1389.7l103.9-60c9.3-5.4,12.5-17.3,7.1-26.6c-5.4-9.3-17.3-12.5-26.6-7.1l-103.9,60
			c-9.3,5.4-12.5,17.3-7.1,26.6C30.1,1391.9,42,1395.1,51.3,1389.7z M220.1,1319.4c-5.9-9-18-11.6-27-5.7L32.6,1419.3
			c-9,5.9-11.6,18-5.7,27s18,11.6,27,5.7l160.5-105.6C223.5,1340.5,226,1328.4,220.1,1319.4z M232.4,1373.1
			c-5.4-9.3-17.3-12.5-26.6-7.1l-103.9,60c-9.3,5.4-12.5,17.3-7.1,26.6c5.4,9.3,17.3,12.5,26.6,7.1l103.9-60
			C234.6,1394.4,237.8,1382.4,232.4,1373.1z"/>
	</g>
</g>
<g>
	<g>
		<path class="st3" d="M218.7,1369.7L218.7,1369.7c-1-1.7-2.8-2.9-5-2.9H42.1c-2.1,0-4,1.2-5,2.9l0,0l17.5-32.1c1-1.8,2.9-3,5-3
			h136.1c2,0,3.9,1.1,4.9,2.9L218.7,1369.7z"/>
		<path class="st8" d="M219.4,1372.5v40.5c0,3.1-2.5,5.7-5.7,5.7H42.1c-3.1,0-5.7-2.5-5.7-5.7v-40.5c0-1,0.3-1.9,0.7-2.8l0,0
			c1-1.7,2.8-2.9,5-2.9h171.6c2.1,0,4,1.2,5,2.9l0,0C219.1,1370.6,219.4,1371.5,219.4,1372.5z"/>
		<path class="st9" d="M218.7,1369.7L218.7,1369.7c-1-1.7-2.8-2.9-5-2.9H42.1c-2.1,0-4,1.2-5,2.9l0,0l17.5-32.1c1-1.8,2.9-3,5-3
			h136.1c2,0,3.9,1.1,4.9,2.9L218.7,1369.7z"/>
		<g>
			<line class="st9" x1="52.5" y1="1423.8" x2="92.4" y2="1423.8"/>
			<line class="st9" x1="163.5" y1="1423.8" x2="203.3" y2="1423.8"/>
		</g>
	</g>
	<g>
		<circle class="st10" cx="56.3" cy="1386.7" r="6"/>
		<circle class="st3" cx="78.3" cy="1386.7" r="6"/>
		<circle class="st11" cx="100.3" cy="1386.7" r="6"/>
		<circle class="st8" cx="56.3" cy="1386.7" r="6"/>
		<circle class="st8" cx="78.3" cy="1386.7" r="6"/>
		<circle class="st8" cx="100.3" cy="1386.7" r="6"/>
		<g>
			<line class="st12" x1="163.3" y1="1394.8" x2="163.3" y2="1380.7"/>
			<line class="st12" x1="163.3" y1="1404.9" x2="163.3" y2="1399.8"/>
		</g>
		<g>
			<line class="st12" x1="183.3" y1="1394.8" x2="183.3" y2="1380.7"/>
			<line class="st12" x1="183.3" y1="1404.9" x2="183.3" y2="1399.8"/>
		</g>
		<g>
			<line class="st12" x1="203.3" y1="1394.8" x2="203.3" y2="1380.7"/>
			<line class="st12" x1="203.3" y1="1404.9" x2="203.3" y2="1399.8"/>
		</g>
		<g>
			<line class="st12" x1="173.3" y1="1390.8" x2="173.3" y2="1404.9"/>
			<line class="st12" x1="173.3" y1="1380.7" x2="173.3" y2="1385.8"/>
		</g>
		<g>
			<line class="st12" x1="193.3" y1="1390.8" x2="193.3" y2="1404.9"/>
			<line class="st12" x1="193.3" y1="1380.7" x2="193.3" y2="1385.8"/>
		</g>
	</g>
	<g>
		<g>
			<line class="st13" x1="176.6" y1="1289.9" x2="176.6" y2="1308.8"/>
			<line class="st13" x1="167.1" y1="1299.3" x2="186" y2="1299.3"/>
		</g>
		<g>
			<line class="st13" x1="240.9" y1="1423.4" x2="240.9" y2="1435.1"/>
			<line class="st13" x1="235" y1="1429.3" x2="246.8" y2="1429.3"/>
		</g>
		
			<ellipse transform="matrix(0.9992 -4.080074e-02 4.080074e-02 0.9992 -53.856 2.4624)" class="st14" cx="33.4" cy="1320.7" rx="5.4" ry="5.4"/>
		<circle class="st13" cx="36" cy="1320.1" r="5.2"/>
		<circle class="st15" cx="12.3" cy="1425.9" r="9.3"/>
		<circle class="st13" cx="17.5" cy="1423.8" r="8.6"/>
	</g>
</g>
<g>
	<circle class="st30" cx="218.5" cy="1418" r="15"/>
	<g>
		<line class="st31" x1="224.5" y1="1412" x2="212.5" y2="1424"/>
		<line class="st31" x1="212.5" y1="1412" x2="224.5" y2="1424"/>
	</g>
</g>
<g>
	<g>
		<path class="st0" d="M51.3,1799.7l103.9-60c9.3-5.4,12.5-17.3,7.1-26.6c-5.4-9.3-17.3-12.5-26.6-7.1l-103.9,60
			c-9.3,5.4-12.5,17.3-7.1,26.6C30.1,1801.9,42,1805.1,51.3,1799.7z M220.1,1729.4c-5.9-9-18-11.6-27-5.7L32.6,1829.3
			c-9,5.9-11.6,18-5.7,27s18,11.6,27,5.7l160.5-105.6C223.5,1750.5,226,1738.4,220.1,1729.4z M232.4,1783.1
			c-5.4-9.3-17.3-12.5-26.6-7.1l-103.9,60c-9.3,5.4-12.5,17.3-7.1,26.6c5.4,9.3,17.3,12.5,26.6,7.1l103.9-60
			C234.6,1804.4,237.8,1792.4,232.4,1783.1z"/>
	</g>
</g>
<g>
	<g>
		<path class="st3" d="M218.7,1779.7L218.7,1779.7c-1-1.7-2.8-2.9-5-2.9H42.1c-2.1,0-4,1.2-5,2.9l0,0l17.5-32.1c1-1.8,2.9-3,5-3
			h136.1c2,0,3.9,1.1,4.9,2.9L218.7,1779.7z"/>
		<path class="st8" d="M219.4,1782.5v40.5c0,3.1-2.5,5.7-5.7,5.7H42.1c-3.1,0-5.7-2.5-5.7-5.7v-40.5c0-1,0.3-1.9,0.7-2.8l0,0
			c1-1.7,2.8-2.9,5-2.9h171.6c2.1,0,4,1.2,5,2.9l0,0C219.1,1780.6,219.4,1781.5,219.4,1782.5z"/>
		<path class="st9" d="M218.7,1779.7L218.7,1779.7c-1-1.7-2.8-2.9-5-2.9H42.1c-2.1,0-4,1.2-5,2.9l0,0l17.5-32.1c1-1.8,2.9-3,5-3
			h136.1c2,0,3.9,1.1,4.9,2.9L218.7,1779.7z"/>
		<g>
			<line class="st9" x1="52.5" y1="1833.8" x2="92.4" y2="1833.8"/>
			<line class="st9" x1="163.5" y1="1833.8" x2="203.3" y2="1833.8"/>
		</g>
	</g>
	<g>
		<circle class="st10" cx="56.3" cy="1796.7" r="6"/>
		<circle class="st3" cx="78.3" cy="1796.7" r="6"/>
		<circle class="st11" cx="100.3" cy="1796.7" r="6"/>
		<circle class="st8" cx="56.3" cy="1796.7" r="6"/>
		<circle class="st8" cx="78.3" cy="1796.7" r="6"/>
		<circle class="st8" cx="100.3" cy="1796.7" r="6"/>
		<g>
			<line class="st12" x1="163.3" y1="1804.8" x2="163.3" y2="1790.7"/>
			<line class="st12" x1="163.3" y1="1814.9" x2="163.3" y2="1809.8"/>
		</g>
		<g>
			<line class="st12" x1="183.3" y1="1804.8" x2="183.3" y2="1790.7"/>
			<line class="st12" x1="183.3" y1="1814.9" x2="183.3" y2="1809.8"/>
		</g>
		<g>
			<line class="st12" x1="203.3" y1="1804.8" x2="203.3" y2="1790.7"/>
			<line class="st12" x1="203.3" y1="1814.9" x2="203.3" y2="1809.8"/>
		</g>
		<g>
			<line class="st12" x1="173.3" y1="1800.8" x2="173.3" y2="1814.9"/>
			<line class="st12" x1="173.3" y1="1790.7" x2="173.3" y2="1795.8"/>
		</g>
		<g>
			<line class="st12" x1="193.3" y1="1800.8" x2="193.3" y2="1814.9"/>
			<line class="st12" x1="193.3" y1="1790.7" x2="193.3" y2="1795.8"/>
		</g>
	</g>
	<g>
		<g>
			<line class="st13" x1="176.6" y1="1699.9" x2="176.6" y2="1718.8"/>
			<line class="st13" x1="167.1" y1="1709.3" x2="186" y2="1709.3"/>
		</g>
		<g>
			<line class="st13" x1="240.9" y1="1833.4" x2="240.9" y2="1845.1"/>
			<line class="st13" x1="235" y1="1839.3" x2="246.8" y2="1839.3"/>
		</g>
		
			<ellipse transform="matrix(0.9992 -4.080074e-02 4.080074e-02 0.9992 -70.5838 2.8038)" class="st14" cx="33.4" cy="1730.6" rx="5.4" ry="5.4"/>
		<circle class="st13" cx="36" cy="1730.1" r="5.2"/>
		<circle class="st15" cx="12.3" cy="1835.9" r="9.3"/>
		<circle class="st13" cx="17.5" cy="1833.8" r="8.6"/>
	</g>
</g>
<g>
	<circle class="st32" cx="218.5" cy="1827.1" r="15"/>
	
		<linearGradient id="SVGID_1_" gradientUnits="userSpaceOnUse" x1="218.1191" y1="-679.7544" x2="219.114" y2="-644.2673" gradientTransform="matrix(1 0 0 1 0 2488)">
		<stop  offset="0" style="stop-color:#FFFFFF"/>
		<stop  offset="9.431494e-02" style="stop-color:#F3FAF0;stop-opacity:0.9057"/>
		<stop  offset="0.2758" style="stop-color:#D3EEC9;stop-opacity:0.7242"/>
		<stop  offset="0.467" style="stop-color:#A0DA89;stop-opacity:0.4742"/>
		<stop  offset="0.6991" style="stop-color:#5ABE33;stop-opacity:0.1684"/>
		<stop  offset="1" style="stop-color:#31AE00;stop-opacity:0"/>
	</linearGradient>
	<ellipse class="st33" cx="218.6" cy="1825.4" rx="12.1" ry="10.9"/>
</g>
<g>
	<g>
		<path class="st0" d="M51.3,2199.7l103.9-60c9.3-5.4,12.5-17.3,7.1-26.6s-17.3-12.5-26.6-7.1l-103.9,60
			c-9.3,5.4-12.5,17.3-7.1,26.6C30.1,2201.9,42,2205.1,51.3,2199.7z M220.1,2129.4c-5.9-9-18-11.6-27-5.7L32.6,2229.3
			c-9,5.9-11.6,18-5.7,27s18,11.6,27,5.7l160.5-105.6C223.5,2150.5,226,2138.4,220.1,2129.4z M232.4,2183.1
			c-5.4-9.3-17.3-12.5-26.6-7.1l-103.9,60c-9.3,5.4-12.5,17.3-7.1,26.6s17.3,12.5,26.6,7.1l103.9-60
			C234.6,2204.4,237.8,2192.4,232.4,2183.1z"/>
	</g>
</g>
<g>
	<g>
		<path class="st3" d="M218.7,2179.7L218.7,2179.7c-1-1.7-2.8-2.9-5-2.9H42.1c-2.1,0-4,1.2-5,2.9l0,0l17.5-32.1c1-1.8,2.9-3,5-3
			h136.1c2,0,3.9,1.1,4.9,2.9L218.7,2179.7z"/>
		<path class="st8" d="M219.4,2182.5v40.5c0,3.1-2.5,5.7-5.7,5.7H42.1c-3.1,0-5.7-2.5-5.7-5.7v-40.5c0-1,0.3-1.9,0.7-2.8l0,0
			c1-1.7,2.8-2.9,5-2.9h171.6c2.1,0,4,1.2,5,2.9l0,0C219.1,2180.6,219.4,2181.5,219.4,2182.5z"/>
		<path class="st9" d="M218.7,2179.7L218.7,2179.7c-1-1.7-2.8-2.9-5-2.9H42.1c-2.1,0-4,1.2-5,2.9l0,0l17.5-32.1c1-1.8,2.9-3,5-3
			h136.1c2,0,3.9,1.1,4.9,2.9L218.7,2179.7z"/>
		<g>
			<line class="st9" x1="52.5" y1="2233.8" x2="92.4" y2="2233.8"/>
			<line class="st9" x1="163.5" y1="2233.8" x2="203.3" y2="2233.8"/>
		</g>
	</g>
	<g>
		<circle class="st10" cx="56.3" cy="2196.7" r="6"/>
		<circle class="st3" cx="78.3" cy="2196.7" r="6"/>
		<circle class="st11" cx="100.3" cy="2196.7" r="6"/>
		<circle class="st8" cx="56.3" cy="2196.7" r="6"/>
		<circle class="st8" cx="78.3" cy="2196.7" r="6"/>
		<circle class="st8" cx="100.3" cy="2196.7" r="6"/>
		<g>
			<line class="st12" x1="163.3" y1="2204.8" x2="163.3" y2="2190.7"/>
			<line class="st12" x1="163.3" y1="2214.9" x2="163.3" y2="2209.8"/>
		</g>
		<g>
			<line class="st12" x1="183.3" y1="2204.8" x2="183.3" y2="2190.7"/>
			<line class="st12" x1="183.3" y1="2214.9" x2="183.3" y2="2209.8"/>
		</g>
		<g>
			<line class="st12" x1="203.3" y1="2204.8" x2="203.3" y2="2190.7"/>
			<line class="st12" x1="203.3" y1="2214.9" x2="203.3" y2="2209.8"/>
		</g>
		<g>
			<line class="st12" x1="173.3" y1="2200.8" x2="173.3" y2="2214.9"/>
			<line class="st12" x1="173.3" y1="2190.7" x2="173.3" y2="2195.8"/>
		</g>
		<g>
			<line class="st12" x1="193.3" y1="2200.8" x2="193.3" y2="2214.9"/>
			<line class="st12" x1="193.3" y1="2190.7" x2="193.3" y2="2195.8"/>
		</g>
	</g>
	<g>
		<g>
			<line class="st13" x1="176.6" y1="2099.9" x2="176.6" y2="2118.8"/>
			<line class="st13" x1="167.1" y1="2109.3" x2="186" y2="2109.3"/>
		</g>
		<g>
			<line class="st13" x1="240.9" y1="2233.4" x2="240.9" y2="2245.1"/>
			<line class="st13" x1="235" y1="2239.3" x2="246.8" y2="2239.3"/>
		</g>
		
			<ellipse transform="matrix(9.661277e-03 -1 1 9.661277e-03 -2097.5784 2143.7288)" class="st14" cx="33.5" cy="2130.8" rx="5.4" ry="5.4"/>
		<circle class="st13" cx="36" cy="2130.1" r="5.2"/>
		<circle class="st15" cx="12.3" cy="2235.9" r="9.3"/>
		<circle class="st13" cx="17.5" cy="2233.8" r="8.6"/>
	</g>
</g>
<g>
	<circle class="st34" cx="219" cy="2229.1" r="15"/>
	
		<linearGradient id="SVGID_00000061445505645351342000000005368883104570394251_" gradientUnits="userSpaceOnUse" x1="218.6184" y1="-277.7786" x2="219.6133" y2="-242.2913" gradientTransform="matrix(1 0 0 1 0 2488)">
		<stop  offset="0" style="stop-color:#FFFFFF"/>
		<stop  offset="9.431494e-02" style="stop-color:#F2FAFE;stop-opacity:0.91"/>
		<stop  offset="0.2758" style="stop-color:#FFFFFF;stop-opacity:0.7242"/>
		<stop  offset="0.467" style="stop-color:#FFFFFF;stop-opacity:0.4742"/>
		<stop  offset="0.6991" style="stop-color:#C2C4C6;stop-opacity:0.1684"/>
		<stop  offset="1" style="stop-color:#FEF6FA;stop-opacity:0"/>
	</linearGradient>
	
		<ellipse style="opacity:0.8;fill:url(#SVGID_00000061445505645351342000000005368883104570394251_);enable-background:new    ;" cx="219.1" cy="2227.4" rx="12.1" ry="10.9"/>
</g>
<g>
	<g>
		<path class="st36" d="M104.5,2394.9v22.1c0,1.7-1.4,3.1-3.1,3.1H7.6c-1.7,0-3.1-1.4-3.1-3.1v-22.1c0-0.5,0.2-1,0.4-1.5l0,0
			c0.5-0.9,1.5-1.6,2.7-1.6h93.8c1.1,0,2.2,0.7,2.7,1.6l0,0C104.3,2393.9,104.5,2394.3,104.5,2394.9z"/>
		<path class="st36" d="M104.1,2393.4L104.1,2393.4c-0.5-0.9-1.5-1.6-2.7-1.6H7.6c-1.1,0-2.2,0.7-2.7,1.6l0,0l9.6-17.5
			c0.5-1,1.6-1.6,2.7-1.6h74.3c1.1,0,2.1,0.6,2.7,1.6L104.1,2393.4z"/>
		<g>
			<line class="st36" x1="13.3" y1="2425.7" x2="35.1" y2="2425.7"/>
			<line class="st36" x1="74" y1="2425.7" x2="95.7" y2="2425.7"/>
		</g>
	</g>
	<g>
		
			<ellipse transform="matrix(4.830895e-03 -1 1 4.830895e-03 -2387.3916 2406.4993)" class="st36" cx="15.4" cy="2402.7" rx="3.3" ry="3.3"/>
		<circle class="st36" cx="27.4" cy="2402.7" r="3.3"/>
		<circle class="st36" cx="39.4" cy="2402.7" r="3.3"/>
		<g>
			<line class="st37" x1="73.8" y1="2405.2" x2="73.8" y2="2399.4"/>
			<line class="st37" x1="73.8" y1="2412.6" x2="73.8" y2="2409.8"/>
		</g>
		<g>
			<line class="st37" x1="84.8" y1="2405.2" x2="84.8" y2="2399.4"/>
			<line class="st37" x1="84.8" y1="2412.6" x2="84.8" y2="2409.8"/>
		</g>
		<g>
			<line class="st37" x1="95.7" y1="2405.2" x2="95.7" y2="2399.4"/>
			<line class="st37" x1="95.7" y1="2412.6" x2="95.7" y2="2409.8"/>
		</g>
		<g>
			<line class="st37" x1="79.3" y1="2406.8" x2="79.3" y2="2412.6"/>
			<line class="st37" x1="79.3" y1="2399.4" x2="79.3" y2="2402.2"/>
		</g>
		<g>
			<line class="st37" x1="90.2" y1="2406.8" x2="90.2" y2="2412.6"/>
			<line class="st37" x1="90.2" y1="2399.4" x2="90.2" y2="2402.2"/>
		</g>
	</g>
</g>
</svg>
