<?xml version="1.0" encoding="utf-8"?>
<!-- Generator: Adobe Illustrator 24.3.0, SVG Export Plug-In . SVG Version: 6.00 Build 0)  -->
<svg version="1.1" id="Layer_1" xmlns="http://www.w3.org/2000/svg" xmlns:xlink="http://www.w3.org/1999/xlink" x="0px" y="0px"
	 width="291.2px" height="1746.3px" viewBox="0 0 291.2 1746.3" style="enable-background:new 0 0 291.2 1746.3;"
	 xml:space="preserve">
<style type="text/css">
	.st0{fill:none;stroke:#4696CC;stroke-width:2;stroke-linejoin:round;stroke-miterlimit:10;}
	.st1{fill:none;stroke:#4696CC;stroke-width:2;stroke-linecap:round;stroke-linejoin:round;stroke-miterlimit:10;}
	.st2{fill:none;stroke:#E6807D;stroke-width:2;stroke-miterlimit:10;}
	.st3{fill:#E6807D;}
	.st4{fill:#8D9196;}
	.st5{fill:none;stroke:#8D9196;stroke-miterlimit:10;}
	.st6{font-family:'OpenSans-Bold';}
	.st7{font-size:6.9987px;}
	.st8{fill:none;stroke:#FFFFFF;stroke-miterlimit:10;}
	.st9{fill:#EDF3FC;}
	.st10{fill:none;stroke:#A0AAB5;stroke-miterlimit:10;}
	.st11{font-size:6.7213px;}
	.st12{fill:none;stroke:#00A1F1;stroke-miterlimit:10;}
	.st13{fill:#00A1F1;}
	.st14{fill:none;stroke:#FFFFFF;stroke-width:2;stroke-miterlimit:10;}
	.st15{fill:#FFFFFF;}
	.st16{fill:#677F8A;}
	.st17{fill:none;stroke:#677F8A;stroke-width:2;stroke-miterlimit:10;}
	.st18{fill:#8CACCD;}
	.st19{fill:none;stroke:#8CACCD;stroke-width:2;stroke-miterlimit:10;}
	.st20{fill-rule:evenodd;clip-rule:evenodd;fill:#E2AA31;}
	.st21{fill:none;stroke:#FFFFFF;stroke-width:2;stroke-linejoin:round;stroke-miterlimit:10;}
	.st22{fill:none;stroke:#FFFFFF;stroke-width:2;stroke-linecap:round;stroke-linejoin:round;stroke-miterlimit:10;}
	.st23{fill:none;stroke:#6290BF;stroke-width:2;stroke-miterlimit:10;}
	.st24{fill:none;stroke:#FFFFFF;stroke-width:2;stroke-linecap:round;stroke-miterlimit:10;}
	.st25{fill:none;stroke:#7E8995;stroke-width:2;stroke-miterlimit:10;}
	.st26{fill:none;stroke:#7E8995;stroke-width:2;stroke-linecap:round;stroke-miterlimit:10;}
	.st27{fill:#7E8995;}
	.st28{fill:none;stroke:#FFFFFF;stroke-width:3;stroke-linejoin:round;stroke-miterlimit:10;}
	.st29{fill:none;stroke:#FFFFFF;stroke-width:3;stroke-linecap:round;stroke-linejoin:round;stroke-miterlimit:10;}
	.st30{fill:none;stroke:#020202;stroke-linecap:round;stroke-miterlimit:10;}
	.st31{fill:none;stroke:#FFFFFF;stroke-linejoin:round;stroke-miterlimit:10;}
	.st32{fill:none;stroke:#FFFFFF;stroke-linecap:round;stroke-linejoin:round;stroke-miterlimit:10;}
	.st33{fill:#3679DE;}
	.st34{fill:none;stroke:#CCCDCD;stroke-width:2;stroke-linejoin:round;stroke-miterlimit:10;}
	.st35{fill:none;stroke:#CCCDCD;stroke-width:2;stroke-linecap:round;stroke-linejoin:round;stroke-miterlimit:10;}
	.st36{fill:none;stroke:#CCCDCD;stroke-width:2;stroke-miterlimit:10;}
	.st37{fill:#CCCDCD;}
	.st38{fill:none;stroke:#80929C;stroke-width:2;stroke-miterlimit:10;}
	.st39{fill:#F26F46;}
	.st40{fill:#488ECC;}
	.st41{fill:#F76666;}
	.st42{fill:#A0AAB9;}
	.st43{fill:none;stroke:#A0AAB9;stroke-width:2;stroke-miterlimit:10;}
	.st44{fill:#0CDD23;}
	.st45{opacity:0.8;fill:url(#SVGID_1_);enable-background:new    ;}
	.st46{fill-rule:evenodd;clip-rule:evenodd;fill:#CCCDCD;}
	.st47{fill:#C0C0C0;}
	.st48{opacity:0.8;fill:url(#SVGID_2_);enable-background:new    ;}
	.st49{opacity:0.3;fill:none;stroke:#FFFFFF;stroke-miterlimit:10;enable-background:new    ;}
	.st50{fill:#0070BD;}
	.st51{fill:none;stroke:#0070BD;stroke-width:2;stroke-miterlimit:10;}
	.st52{fill:none;stroke:#488ECC;stroke-width:2;stroke-linejoin:round;stroke-miterlimit:10;}
	.st53{fill:#FF9191;}
	.st54{fill:none;stroke:#F96666;stroke-width:2;stroke-linecap:round;stroke-miterlimit:10;}
	.st55{fill:none;stroke:#FFFFFF;stroke-linecap:round;stroke-miterlimit:10;}
	.st56{font-size:6.4162px;}
	.st57{fill:none;stroke:#FFFFFF;stroke-linecap:square;stroke-miterlimit:10;}
	.st58{font-size:5.6108px;}
	.st59{fill:none;stroke:#8591A3;stroke-width:2;stroke-miterlimit:10;}
	.st60{fill:none;stroke:#8D98AA;stroke-width:2;stroke-linecap:round;stroke-linejoin:round;stroke-miterlimit:10;}
	.st61{fill:#8D98AA;}
	.st62{fill:#4696CC;}
	.st63{fill:none;stroke:#A0AAB9;stroke-width:2;stroke-linecap:round;stroke-miterlimit:10;}
	.st64{enable-background:new    ;}
	.st65{fill:none;stroke:#A0AAB9;stroke-width:2;stroke-linecap:round;stroke-linejoin:round;stroke-miterlimit:10;}
	.st66{fill:none;stroke:#A0AAB9;stroke-width:2;stroke-linejoin:round;stroke-miterlimit:10;}
	.st67{fill:#4298AB;}
	.st68{fill:#DB5262;}
	.st69{fill:#F0FCFB;}
	.st70{fill:none;stroke:#FB9E50;stroke-width:2;stroke-miterlimit:10;}
	.st71{fill:none;stroke:#2BA6D9;stroke-width:2;stroke-miterlimit:10;}
	.st72{fill:none;stroke:#2BA6D9;stroke-width:2;stroke-linecap:round;stroke-miterlimit:10;}
</style>
<g>
	<path class="st0" d="M7.9,14H5.5C3.6,14,2,12.4,2,10.5c0-1,0.4-1.8,1-2.5c0.6-0.6,1.5-1,2.5-1h0.3c0-0.2-0.1-0.5-0.1-0.7
		C5.7,3.9,7.6,2,10,2s4.3,1.9,4.3,4.3c0,0.2,0,0.5-0.1,0.7h0.2c1.9,0,3.5,1.6,3.5,3.5c0,1-0.4,1.8-1,2.5s-1.5,1-2.5,1H12"/>
	<g>
		<polyline class="st1" points="10,15 10,13.9 10,9.5 		"/>
		<polyline class="st1" points="7.6,10.9 10,8.5 12.4,10.9 		"/>
	</g>
</g>
<g>
	<circle class="st2" cx="8" cy="118" r="6"/>
	<path class="st3" d="M9.9,120.2H6.3c-0.2,0-0.5-0.2-0.5-0.5v-3.6c0-0.2,0.2-0.5,0.5-0.5h3.6c0.2,0,0.5,0.2,0.5,0.5v3.6
		C10.3,120,10.1,120.2,9.9,120.2z"/>
</g>
<g>
	<polygon class="st4" points="9,499.5 9,506.5 3.9,506.5 3.9,513.5 2,513.5 2,499.5 	"/>
	<rect x="10" y="499.5" class="st4" width="7" height="7"/>
	<rect x="5.5" y="508.1" class="st5" width="13" height="8"/>
	<text transform="matrix(1.141 0 0 1 6.9688 514.7158)" class="st4 st6 st7">VC</text>
	<line class="st8" x1="4" y1="502" x2="7" y2="502"/>
	<line class="st8" x1="4" y1="504" x2="7" y2="504"/>
	<line class="st8" x1="12" y1="502" x2="15" y2="502"/>
	<line class="st8" x1="12" y1="504" x2="15" y2="504"/>
</g>
<g>
	<rect x="12.3" y="557.2" class="st9" width="6.7" height="4.2"/>
	<polygon class="st9" points="8.8,557.2 8.8,561.4 3.5,561.4 3.5,568.9 2.1,568.9 2.1,557.2 	"/>
	<path class="st5" d="M3.5,568.9h-1c-0.3,0-0.6-0.3-0.6-0.6v-10.9c0-0.3,0.3-0.6,0.6-0.6h5.9c0.3,0,0.6,0.3,0.6,0.6v3.9"/>
	<path class="st5" d="M12,561.4v-3.9c0-0.3,0.3-0.6,0.6-0.6h5.9c0.3,0,0.6,0.3,0.6,0.6v3.9"/>
	<path class="st5" d="M20.4,570.9H5.6c-0.3,0-0.6-0.3-0.6-0.6v-6.9c0-0.3,0.3-0.6,0.6-0.6h14.9c0.3,0,0.6,0.3,0.6,0.6v6.9
		C21,570.7,20.7,570.9,20.4,570.9z"/>
	<line class="st10" x1="3.5" y1="558.9" x2="7.5" y2="558.9"/>
	<line class="st10" x1="3.5" y1="560.9" x2="7.5" y2="560.9"/>
	<line class="st10" x1="13.5" y1="558.9" x2="17.5" y2="558.9"/>
	<line class="st10" x1="13.5" y1="560.9" x2="17.5" y2="560.9"/>
	<text transform="matrix(1 0 0 1 5.9462 569.2775)" class="st4 st6 st11">ESXi</text>
</g>
<g>
	<path class="st12" d="M3.5,624.3h-1c-0.3,0-0.6-0.3-0.6-0.6v-10.9c0-0.3,0.3-0.6,0.6-0.6h5.9c0.3,0,0.6,0.3,0.6,0.6v3.9"/>
	<path class="st12" d="M12,616.7v-3.9c0-0.3,0.3-0.6,0.6-0.6h5.9c0.3,0,0.6,0.3,0.6,0.6v3.9"/>
	<path class="st12" d="M20.4,626.2H5.6c-0.3,0-0.6-0.3-0.6-0.6v-6.9c0-0.3,0.3-0.6,0.6-0.6h14.9c0.3,0,0.6,0.3,0.6,0.6v6.9
		C21,626,20.7,626.2,20.4,626.2z"/>
	<g>
		<line class="st12" x1="3.5" y1="614.3" x2="7.5" y2="614.3"/>
		<line class="st12" x1="3.5" y1="616.2" x2="7.5" y2="616.2"/>
	</g>
	<g>
		<line class="st12" x1="13.5" y1="614.3" x2="17.5" y2="614.3"/>
		<line class="st12" x1="13.5" y1="616.2" x2="17.5" y2="616.2"/>
	</g>
	<g>
		<text transform="matrix(1 0 0 1 5.9462 624.6116)" class="st13 st6 st11">ESXi</text>
	</g>
</g>
<g>
	<path class="st14" d="M7.4,683H3.8c-0.8,0-1.4-0.6-1.4-1.3v-11.3c0-0.7,0.6-1.3,1.4-1.3h15.7c0.8,0,1.4,0.6,1.4,1.3v3.8"/>
	<line class="st14" x1="4.8" y1="685.9" x2="7.4" y2="685.9"/>
	<path class="st14" d="M23.7,686.7H10.6c-0.5,0-0.8-0.4-0.8-0.8v-8.5c0-0.5,0.4-0.8,0.8-0.8h13.1c0.5,0,0.8,0.4,0.8,0.8v8.5
		C24.5,686.4,24.2,686.7,23.7,686.7z"/>
	<g>
		<path class="st15" d="M15.1,679.1h1.1l-1.8,5.2h-1.2l-1.8-5.2h1.1l1,3.1c0.1,0.2,0.1,0.4,0.2,0.6s0.1,0.4,0.1,0.5
			c0-0.2,0.1-0.6,0.3-1.2L15.1,679.1z"/>
		<path class="st15" d="M19.1,684.3l-1.2-4.1h-0.1c0.1,0.8,0.1,1.4,0.1,1.6v2.4h-1V679h1.5l1.2,4l0,0l1.3-4h1.5v5.2h-1.1v-2.5
			c0-0.1,0-0.2,0-0.4s0-0.5,0.1-1.2h-0.1l-1.3,4.1L19.1,684.3L19.1,684.3z"/>
	</g>
</g>
<g>
	<g>
		<path class="st15" d="M24.5,739.6h-2.1c-0.6-1.2-1.8-2-3.2-2h-0.3c-0.3,0-0.6-0.1-0.8-0.3c-0.2-0.2-0.3-0.5-0.2-0.8
			c0-0.3,0.1-0.5,0.1-0.8c0-2.6-2.1-4.8-4.8-4.8c-2.6,0-4.8,2.2-4.8,4.8c0,0.3,0,0.5,0.1,0.8c0,0.3,0,0.6-0.2,0.8s-0.5,0.3-0.8,0.3
			H7.1c-1,0-1.9,0.4-2.6,1.1c-0.7,0.7-1.1,1.6-1.1,2.6c0,1.6,1,3,2.5,3.4v2.1c-2.6-0.5-4.5-2.8-4.5-5.5c0-1.5,0.6-2.9,1.6-4
			c0.9-0.9,2-1.4,3.2-1.6c0-3.7,3-6.8,6.8-6.8c3.7,0,6.8,3,6.8,6.8C22,736,23.9,737.5,24.5,739.6z"/>
	</g>
	<rect x="8.3" y="742" class="st14" width="16.9" height="5.9"/>
	<g>
		<line class="st8" x1="10.8" y1="743.9" x2="10.8" y2="745.9"/>
		<line class="st8" x1="12.8" y1="743.9" x2="12.8" y2="745.9"/>
		<line class="st14" x1="22.3" y1="743.9" x2="22.3" y2="745.9"/>
	</g>
</g>
<g>
	<path class="st16" d="M12.1,790H3.9c-1.3,0-2.4,1.1-2.4,2.4v13.3c0,1.3,1.1,2.4,2.4,2.4h2.6v-2H3.9c-0.2,0-0.4-0.2-0.4-0.4v-13.3
		c0-0.2,0.2-0.4,0.4-0.4h7.6v3h3v2h2v-2.7L12.1,790z"/>
	<path class="st17" d="M18.4,803.6c-0.8,2.1-2.8,3.5-5.1,3.5s-4.3-1.4-5.1-3.5c0.8-2,2.8-3.5,5.1-3.5S17.6,801.5,18.4,803.6z"/>
	<circle class="st16" cx="13.2" cy="803.6" r="1.5"/>
</g>
<g>
	<path class="st18" d="M88.3,747.1H81c-1.3,0-2.4,1.1-2.4,2.4v12.3c0,1.3,1.1,2.4,2.4,2.4h1.6v-2H81c-0.2,0-0.4-0.2-0.4-0.4v-12.3
		c0-0.2,0.2-0.4,0.4-0.4h6.6v3h3v2h2v-2.7L88.3,747.1z"/>
	<path class="st19" d="M94.5,759.7c-0.8,2.1-2.8,3.5-5.1,3.5c-2.3,0-4.3-1.4-5.1-3.5c0.8-2,2.8-3.5,5.1-3.5S93.7,757.7,94.5,759.7z"
		/>
	<circle class="st18" cx="89.4" cy="759.7" r="1.5"/>
</g>
<path class="st20" d="M17.5,925h-16c0-0.1,0-0.3,0-0.4c0.1-4.8,2.1-3.6,5.9-5.8v-0.9c-0.7-0.5-0.9-1.3-1.1-2.3H6.2
	c-0.1,0-0.2-0.1-0.2-0.3c0-0.1,0-0.1,0-0.1c-0.1-0.1-0.1-0.3-0.1-0.4c-0.1-0.3-0.4-0.8-0.2-1l0,0c0.4-0.4,0.1,0.1,0.3-0.1v-0.1v-0.1
	c-0.1-0.5-0.2-1.8,0-2.5c0.1-0.4,0.4-0.8,0.9-1.1c0.2-0.1,0.4-0.2,0.6-0.2v-0.1c0.1-0.5,1-0.6,2-0.5c0.6,0.1,2,0.6,2,0.6
	c0.2,0.1,0.4,0.1,0.6,0.2c0.4,0.3,0.7,0.7,0.8,1.1c0.2,0.6,0,1.9,0,2.5v0.1v0.1c0,0.1,0,0.1,0,0.1s0.2-0.1,0.3,0l0,0l0,0
	c0.2,0.2,0,0.7-0.2,1c0,0.2-0.1,0.4-0.1,0.4c0,0.1,0,0.1,0,0.1c0,0.2-0.1,0.3-0.2,0.3h-0.1c-0.2,0.9-0.4,1.8-1.1,2.3v0.9
	c3.8,2.2,5.8,1,5.9,5.8C17.5,924.8,17.5,924.9,17.5,925z"/>
<g>
	<path class="st21" d="M9.4,983H6.1c-2.6,0-4.7-2.1-4.7-4.7c0-1.3,0.5-2.5,1.4-3.3c0.8-0.8,2-1.4,3.3-1.4h0.3
		c-0.1-0.3-0.1-0.6-0.1-0.9c0-3.2,2.6-5.8,5.8-5.8s5.8,2.6,5.8,5.8c0,0.3,0,0.6-0.1,0.9h0.3c2.6,0,4.7,2.1,4.7,4.7
		c0,1.3-0.5,2.5-1.4,3.3c-0.8,0.8-2,1.4-3.3,1.4H15"/>
	<g>
		<polyline class="st22" points="12.2,984.3 12.2,982.9 12.2,976.9 		"/>
		<polyline class="st22" points="9,978.9 12.2,975.6 15.5,978.9 		"/>
	</g>
</g>
<g>
	<path class="st23" d="M19,1037.7c0-0.4,0-0.8,0-1.3c0-0.2,0.1-0.4,0.2-0.5l1.8-1.5c0.2-0.2,0.2-0.4,0.2-0.6l-0.5-1.2
		c-0.1-0.3-0.4-0.5-0.7-0.5l-2.2,0.2c-0.2,0-0.3-0.1-0.5-0.2c-0.3-0.3-0.5-0.6-0.9-0.9c-0.1-0.1-0.2-0.3-0.2-0.5l0.2-2.2
		c0-0.3-0.1-0.7-0.5-0.8l-1.2-0.5c-0.1,0-0.2,0-0.3,0c-0.2,0-0.5,0.1-0.6,0.3l-1.6,1.9h-1h-0.8l-1.5-1.9c-0.1-0.2-0.4-0.3-0.6-0.3
		c-0.1,0-0.2,0-0.3,0l-1.1,0.4c-0.3,0.1-0.5,0.5-0.5,0.8l0.2,2.2c0,0.2-0.1,0.4-0.2,0.5c-0.3,0.3-0.7,0.6-0.9,0.9
		c-0.1,0.1-0.3,0.2-0.5,0.2l-2.2-0.2c-0.3,0-0.6,0.2-0.7,0.5l-0.5,1.1c-0.1,0.3,0,0.7,0.2,0.9l1.6,1.3c0.1,0.1,0.2,0.3,0.2,0.5
		c0,0.4,0,0.9,0,1.3c0,0.2,0,0.4-0.2,0.5l-1.6,1.3c-0.3,0.2-0.4,0.6-0.2,0.9l0.4,1.1c0.1,0.3,0.4,0.5,0.7,0.5l2-0.2
		c0.2,0,0.4,0.1,0.5,0.2c0.3,0.4,0.6,0.7,1,1c0.1,0.1,0.2,0.3,0.2,0.5l-0.2,2c0,0.3,0.1,0.7,0.5,0.8l1.1,0.5c0.1,0,0.2,0,0.3,0
		c0.2,0,0.4-0.1,0.6-0.3l1.3-1.5c0.1-0.1,0.3-0.2,0.4-0.2c0.3,0,0.5,0,0.8,0s0.6,0,0.9,0l1.4,1.8c0.1,0.2,0.4,0.3,0.6,0.3
		c0.1,0,0.2,0,0.3,0l1.1-0.4c0.3-0.1,0.5-0.5,0.5-0.8l-0.2-2c0-0.2,0.1-0.4,0.2-0.5c0.4-0.3,0.7-0.6,1-0.9c0.1-0.1,0.3-0.2,0.5-0.2
		l2,0.2c0.3,0,0.6-0.2,0.7-0.5l0.5-1.1c0.2-0.3,0.1-0.7-0.1-1l-1.6-1.3C19.1,1038,19,1037.8,19,1037.7z M11.6,1040.3h-1.4
		c-0.1,0-0.3-0.1-0.4-0.1c-4-3.5,0.3-8.4,4-5.5c0.1,0,0.1,0.1,0.1,0.1C15.9,1037.4,14.1,1040.3,11.6,1040.3z"/>
</g>
<g>
	<path class="st14" d="M19.2,1111.4H3.9c-0.8,0-1.4-0.6-1.4-1.4v-19.3c0-0.8,0.6-1.4,1.4-1.4h15.2c0.8,0,1.4,0.6,1.4,1.4v19.3
		C20.6,1110.8,19.9,1111.4,19.2,1111.4z"/>
	<line class="st14" x1="2.5" y1="1107.3" x2="20.8" y2="1107.3"/>
	<line class="st14" x1="11.5" y1="1103.2" x2="11.5" y2="1094.3"/>
	<path class="st24" d="M8.2,1097.6l3-3c0.2-0.2,0.5-0.2,0.7,0l3,3"/>
</g>
<g>
	<path class="st15" d="M18.4,1155.7L18.4,1155.7l-0.2-0.2l0,0l-2-2H4.9c-1.3,0-2.4,1.1-2.4,2.4v15.8c0,1.3,1.1,2.4,2.4,2.4H18
		c1.3,0,2.4-1.1,2.4-2.4v-14L18.4,1155.7z M18.4,1171.6c0,0.2-0.2,0.4-0.4,0.4H4.9c-0.2,0-0.4-0.2-0.4-0.4v-15.8
		c0-0.2,0.2-0.4,0.4-0.4h9.6v4h4L18.4,1171.6L18.4,1171.6z"/>
	<g>
		<path class="st15" d="M15.5,1164.4h-5c-0.6,0-1-0.4-1-1s0.4-1,1-1h5c0.6,0,1,0.4,1,1S16.1,1164.4,15.5,1164.4z"/>
	</g>
	<g>
		<rect x="6.5" y="1162.4" class="st15" width="2" height="2"/>
	</g>
	<g>
		<path class="st15" d="M15.5,1164.4h-5c-0.6,0-1-0.4-1-1s0.4-1,1-1h5c0.6,0,1,0.4,1,1S16.1,1164.4,15.5,1164.4z"/>
	</g>
	<g>
		<rect x="6.5" y="1162.4" class="st15" width="2" height="2"/>
	</g>
	<g>
		<path class="st15" d="M15.5,1169.4h-5c-0.6,0-1-0.4-1-1s0.4-1,1-1h5c0.6,0,1,0.4,1,1S16.1,1169.4,15.5,1169.4z"/>
	</g>
	<g>
		<rect x="6.5" y="1167.4" class="st15" width="2" height="2"/>
	</g>
</g>
<g>
	<path class="st25" d="M19.2,1237.5H3.9c-0.8,0-1.4-0.6-1.4-1.4v-19.3c0-0.8,0.6-1.4,1.4-1.4h15.2c0.8,0,1.4,0.6,1.4,1.4v19.3
		C20.6,1236.9,19.9,1237.5,19.2,1237.5z"/>
	<line class="st25" x1="2.5" y1="1233.4" x2="20.8" y2="1233.4"/>
	<line class="st25" x1="11.5" y1="1229.3" x2="11.5" y2="1220.4"/>
	<path class="st26" d="M8.2,1223.7l3-3c0.2-0.2,0.5-0.2,0.7,0l3,3"/>
</g>
<g>
	<g>
		<path class="st27" d="M18.4,1281.7L18.4,1281.7l-0.2-0.2l0,0l-2-2H4.9c-1.3,0-2.4,1.1-2.4,2.4v15.8c0,1.3,1.1,2.4,2.4,2.4H18
			c1.3,0,2.4-1.1,2.4-2.4v-14L18.4,1281.7z M18.4,1297.6c0,0.2-0.2,0.4-0.4,0.4H4.9c-0.2,0-0.4-0.2-0.4-0.4v-15.8
			c0-0.2,0.2-0.4,0.4-0.4h9.6v4h4L18.4,1297.6L18.4,1297.6z"/>
		<g>
			<path class="st27" d="M15.5,1290.4h-5c-0.6,0-1-0.4-1-1s0.4-1,1-1h5c0.6,0,1,0.4,1,1S16.1,1290.4,15.5,1290.4z"/>
		</g>
		<g>
			<rect x="6.5" y="1288.4" class="st27" width="2" height="2"/>
		</g>
		<g>
			<path class="st27" d="M15.5,1290.4h-5c-0.6,0-1-0.4-1-1s0.4-1,1-1h5c0.6,0,1,0.4,1,1S16.1,1290.4,15.5,1290.4z"/>
		</g>
		<g>
			<rect x="6.5" y="1288.4" class="st27" width="2" height="2"/>
		</g>
		<g>
			<path class="st27" d="M15.5,1295.4h-5c-0.6,0-1-0.4-1-1s0.4-1,1-1h5c0.6,0,1,0.4,1,1S16.1,1295.4,15.5,1295.4z"/>
		</g>
		<g>
			<rect x="6.5" y="1293.4" class="st27" width="2" height="2"/>
		</g>
	</g>
	<path class="st27" d="M15.5,1290.4h-5c-0.6,0-1-0.4-1-1s0.4-1,1-1h5c0.6,0,1,0.4,1,1S16.1,1290.4,15.5,1290.4z"/>
	<rect x="6.5" y="1288.4" class="st27" width="2" height="2"/>
	<path class="st27" d="M15.5,1290.4h-5c-0.6,0-1-0.4-1-1s0.4-1,1-1h5c0.6,0,1,0.4,1,1S16.1,1290.4,15.5,1290.4z"/>
	<rect x="6.5" y="1288.4" class="st27" width="2" height="2"/>
	<path class="st27" d="M15.5,1295.4h-5c-0.6,0-1-0.4-1-1s0.4-1,1-1h5c0.6,0,1,0.4,1,1S16.1,1295.4,15.5,1295.4z"/>
	<rect x="6.5" y="1293.4" class="st27" width="2" height="2"/>
</g>
<g>
	<path class="st28" d="M20.2,1374.5h-7.5c-5.6,0-10.2-4.6-10.2-10.2c0-2.8,1.1-5.4,3-7.2c1.9-1.9,4.4-3,7.2-3h2.1
		c0-0.5-0.1-0.9-0.1-1.4c0-7.2,5.8-13,13-13s13,5.8,13,13c0,0.5,0,1-0.1,1.4h2.1c5.6,0,10.2,4.6,10.2,10.2c0,2.8-1.1,5.4-3,7.2
		c-1.9,1.8-4.4,3-7.2,3H35"/>
	<g>
		<line class="st29" x1="27.7" y1="1375" x2="27.7" y2="1358.6"/>
		<polyline class="st29" points="21.8,1363.5 27.7,1357.5 33.7,1363.5 		"/>
	</g>
</g>
<g>
	<line class="st30" x1="2.5" y1="1417.7" x2="17.4" y2="1432.6"/>
	<line class="st30" x1="17.4" y1="1417.7" x2="2.5" y2="1432.6"/>
</g>
<g>
	<path class="st31" d="M8.7,1540.3H6c-2,0-3.6-1.6-3.6-3.6c0-1,0.4-1.9,1-2.5s1.5-1,2.5-1h0.7c0-0.2,0-0.3,0-0.5
		c0-2.5,2-4.6,4.6-4.6c2.5,0,4.6,2,4.6,4.6c0,0.2,0,0.3,0,0.5h0.7c2,0,3.6,1.6,3.6,3.6c0,1-0.4,1.9-1,2.5s-1.5,1-2.5,1h-2.7"/>
	<g>
		<line class="st32" x1="11.3" y1="1540.5" x2="11.3" y2="1534.8"/>
		<polyline class="st32" points="9.2,1536.5 11.3,1534.4 13.4,1536.5 		"/>
	</g>
</g>
<g>
	<circle class="st33" cx="8.5" cy="1480.9" r="6"/>
	<line class="st14" x1="8.5" y1="1484.9" x2="8.5" y2="1479.9"/>
	<line class="st14" x1="8.5" y1="1478.9" x2="8.5" y2="1476.9"/>
</g>
<path class="st34" d="M7.9,235H5.5c-1.9,0-3.5-1.6-3.5-3.5c0-1,0.4-1.8,1-2.5c0.6-0.6,1.5-1,2.5-1h0.3c0-0.2-0.1-0.5-0.1-0.7
	c0-2.4,1.9-4.3,4.3-4.3s4.3,1.9,4.3,4.3c0,0.2,0,0.5-0.1,0.7h0.2c1.9,0,3.5,1.6,3.5,3.5c0,1-0.4,1.8-1,2.5s-1.5,1-2.5,1H12"/>
<g>
	<polyline class="st35" points="10,236 10,234.9 10,230.5 	"/>
	<polyline class="st35" points="7.6,231.9 10,229.5 12.4,231.9 	"/>
</g>
<circle class="st36" cx="8" cy="339" r="6"/>
<path class="st37" d="M9.7,341H6.5c-0.2,0-0.4-0.2-0.4-0.4v-3.2c0-0.2,0.2-0.4,0.4-0.4h3.2c0.2,0,0.4,0.2,0.4,0.4v3.2
	C10,340.8,9.9,341,9.7,341z"/>
<g>
	<polygon class="st13" points="9,441.5 9,448.5 3.9,448.5 3.9,455.5 2,455.5 2,441.5 	"/>
	<rect x="10" y="441.5" class="st13" width="7" height="7"/>
	<rect x="5.5" y="450.1" class="st12" width="13" height="8"/>
	<text transform="matrix(1.141 0 0 1 6.9688 456.7158)" class="st13 st6 st7">VC</text>
	<line class="st8" x1="4" y1="444" x2="7" y2="444"/>
	<line class="st8" x1="4" y1="446" x2="7" y2="446"/>
	<line class="st8" x1="12" y1="444" x2="15" y2="444"/>
	<line class="st8" x1="12" y1="446" x2="15" y2="446"/>
</g>
<g>
	<line class="st38" x1="9.9" y1="1582.4" x2="9.9" y2="1594.3"/>
	<line class="st38" x1="4" y1="1588.3" x2="15.9" y2="1588.3"/>
</g>
<circle class="st39" cx="88.1" cy="73.9" r="10.6"/>
<g>
	<line class="st24" x1="84.5" y1="70.2" x2="91.8" y2="77.6"/>
	<line class="st24" x1="91.8" y1="70.2" x2="84.5" y2="77.6"/>
</g>
<g>
	<circle class="st40" cx="88.1" cy="12.6" r="10.6"/>
	<polyline class="st22" points="92.7,9.2 86.5,15.9 83.6,13.1 	"/>
</g>
<path class="st41" d="M78.1,357.9l13.1-23.7c1.5-2.8,5.6-2.8,7.1,0l13.1,23.7c1.5,2.7-0.5,6-3.6,6H81.7
	C78.6,363.9,76.6,360.6,78.1,357.9z"/>
<g>
	<path class="st15" d="M96,353.2h-2.4l-0.6-8.7c-0.1-1.2,0.8-2.3,1.8-2.3l0,0c1.1,0,1.9,1.1,1.8,2.3L96,353.2z"/>
	<circle class="st15" cx="94.7" cy="356.3" r="1.5"/>
</g>
<g>
	<path class="st41" d="M77.9,141.5l7.8-14.1c0.9-1.7,3.3-1.7,4.2,0l7.8,14.1c0.9,1.6-0.3,3.6-2.1,3.6H80
		C78.2,145,77,143.1,77.9,141.5z"/>
	<path class="st15" d="M88.6,138.6h-1.8l-0.5-5.6c-0.1-0.8,0.6-1.5,1.4-1.5l0,0c0.8,0,1.4,0.7,1.4,1.5L88.6,138.6z"/>
	<circle class="st15" cx="87.7" cy="141" r="1.5"/>
</g>
<path class="st42" d="M12.1,849H3.9c-1.3,0-2.4,1.1-2.4,2.4v13.3c0,1.3,1.1,2.4,2.4,2.4h2.6v-2H3.9c-0.2,0-0.4-0.2-0.4-0.4v-13.3
	c0-0.2,0.2-0.4,0.4-0.4h7.6v3h3v2h2v-2.7L12.1,849z"/>
<path class="st43" d="M18.4,862.6c-0.8,2.1-2.8,3.5-5.1,3.5s-4.3-1.4-5.1-3.5c0.8-2,2.8-3.5,5.1-3.5S17.6,860.5,18.4,862.6z"/>
<circle class="st42" cx="13.2" cy="862.6" r="1.5"/>
<circle class="st40" cx="95.1" cy="202.6" r="16.6"/>
<polyline class="st22" points="101,198.3 93.1,206.9 89.3,203.2 "/>
<circle class="st39" cx="95.1" cy="275.4" r="16.6"/>
<g>
	<line class="st24" x1="89.6" y1="269.7" x2="100.7" y2="281.1"/>
	<line class="st24" x1="100.7" y1="269.7" x2="89.6" y2="281.1"/>
</g>
<path class="st20" d="M94.6,535h-16c0-0.1,0-0.3,0-0.4c0.1-4.8,2.1-3.6,5.9-5.8v-0.9c-0.7-0.5-0.9-1.3-1.1-2.3h-0.1
	c-0.1,0-0.2-0.1-0.2-0.3c0-0.1,0-0.1,0-0.1c-0.1-0.1-0.1-0.3-0.1-0.4c-0.1-0.3-0.4-0.8-0.2-1l0,0c0.4-0.4,0.1,0.1,0.3-0.1v-0.1v-0.1
	c-0.1-0.5-0.2-1.8,0-2.5c0.1-0.4,0.4-0.8,0.9-1.1c0.2-0.1,0.4-0.2,0.6-0.2v-0.1c0.1-0.5,1-0.6,2-0.5c0.6,0.1,2,0.6,2,0.6
	c0.2,0.1,0.4,0.1,0.6,0.2c0.4,0.3,0.7,0.7,0.8,1.1c0.2,0.6,0,1.9,0,2.5v0.1v0.1c0,0.1,0,0.1,0,0.1s0.2-0.1,0.3,0l0,0l0,0
	c0.2,0.2,0,0.7-0.2,1c0,0.2-0.1,0.4-0.1,0.4c0,0.1,0,0.1,0,0.1c0,0.2-0.1,0.3-0.2,0.3h-0.1c-0.2,0.9-0.4,1.8-1.1,2.3v0.9
	c3.8,2.2,5.8,1,5.9,5.8C94.6,534.8,94.6,534.9,94.6,535z"/>
<circle class="st15" cx="92.6" cy="533.5" r="4.6"/>
<circle class="st44" cx="92.6" cy="533.5" r="3.6"/>
<linearGradient id="SVGID_1_" gradientUnits="userSpaceOnUse" x1="92.6" y1="7518.1196" x2="92.6" y2="7523.5088" gradientTransform="matrix(1 0 0 -1 0 8054.3306)">
	<stop  offset="0" style="stop-color:#0CDD23"/>
	<stop  offset="3.184398e-02" style="stop-color:#0CDD23"/>
	<stop  offset="0.1365" style="stop-color:#11DE27;stop-opacity:0.9546"/>
	<stop  offset="0.2596" style="stop-color:#1FE034;stop-opacity:0.9012"/>
	<stop  offset="0.3919" style="stop-color:#37E34A;stop-opacity:0.8438"/>
	<stop  offset="0.5308" style="stop-color:#58E868;stop-opacity:0.7835"/>
	<stop  offset="0.6749" style="stop-color:#83EE8E;stop-opacity:0.721"/>
	<stop  offset="0.8233" style="stop-color:#B7F5BD;stop-opacity:0.6566"/>
	<stop  offset="0.9725" style="stop-color:#F3FDF4;stop-opacity:0.5919"/>
	<stop  offset="1" style="stop-color:#FFFFFF;stop-opacity:0.58"/>
</linearGradient>
<circle class="st45" cx="92.6" cy="533.5" r="2.7"/>
<path class="st46" d="M94.6,593h-16c0-0.1,0-0.3,0-0.4c0.1-4.8,2.1-3.6,5.9-5.8v-0.9c-0.7-0.5-0.9-1.3-1.1-2.3h-0.1
	c-0.1,0-0.2-0.1-0.2-0.3c0-0.1,0-0.1,0-0.1c-0.1-0.1-0.1-0.3-0.1-0.4c-0.1-0.3-0.4-0.8-0.2-1l0,0c0.4-0.4,0.1,0.1,0.3-0.1v-0.1v-0.1
	c-0.1-0.5-0.2-1.8,0-2.5c0.1-0.4,0.4-0.8,0.9-1.1c0.2-0.1,0.4-0.2,0.6-0.2v-0.1c0.1-0.5,1-0.6,2-0.5c0.6,0.1,2,0.6,2,0.6
	c0.2,0.1,0.4,0.1,0.6,0.2c0.4,0.3,0.7,0.7,0.8,1.1c0.2,0.6,0,1.9,0,2.5v0.1v0.1c0,0.1,0,0.1,0,0.1s0.2-0.1,0.3,0l0,0l0,0
	c0.2,0.2,0,0.7-0.2,1c0,0.2-0.1,0.4-0.1,0.4c0,0.1,0,0.1,0,0.1c0,0.2-0.1,0.3-0.2,0.3h-0.1c-0.2,0.9-0.4,1.8-1.1,2.3v0.9
	c3.8,2.2,5.8,1,5.9,5.8C94.6,592.8,94.6,592.9,94.6,593z"/>
<circle class="st15" cx="92.6" cy="591.5" r="4.6"/>
<circle class="st47" cx="92.6" cy="591.5" r="3.6"/>
<linearGradient id="SVGID_2_" gradientUnits="userSpaceOnUse" x1="92.6" y1="7460.1196" x2="92.6" y2="7465.5088" gradientTransform="matrix(1 0 0 -1 0 8054.3306)">
	<stop  offset="1.331947e-07" style="stop-color:#C0C0C0"/>
	<stop  offset="0.2377" style="stop-color:#C5C5C5;stop-opacity:0.9002"/>
	<stop  offset="0.5045" style="stop-color:#D2D2D2;stop-opacity:0.7881"/>
	<stop  offset="0.7843" style="stop-color:#E8E8E8;stop-opacity:0.6706"/>
	<stop  offset="1" style="stop-color:#FFFFFF;stop-opacity:0.58"/>
</linearGradient>
<circle class="st48" cx="92.6" cy="591.5" r="2.7"/>
<g>
	<g>
		<line class="st14" x1="90" y1="868.3" x2="90" y2="878.1"/>
		<line class="st14" x1="95.6" y1="868.3" x2="95.6" y2="878.1"/>
	</g>
	<rect x="78.4" y="858.8" class="st49" width="28.9" height="28.9"/>
</g>
<g>
	<path class="st50" d="M88.3,635.1H81c-1.3,0-2.4,1.1-2.4,2.4v12.3c0,1.3,1.1,2.4,2.4,2.4h1.6v-2H81c-0.2,0-0.4-0.2-0.4-0.4v-12.3
		c0-0.2,0.2-0.4,0.4-0.4h6.6v3h3v2h2v-2.7L88.3,635.1z"/>
	<path class="st51" d="M94.5,647.7c-0.8,2.1-2.8,3.5-5.1,3.5c-2.3,0-4.3-1.4-5.1-3.5c0.8-2,2.8-3.5,5.1-3.5S93.7,645.7,94.5,647.7z"
		/>
	<circle class="st50" cx="89.4" cy="647.7" r="1.5"/>
</g>
<g>
	<path class="st50" d="M95.9,695.4l-1.4,1.4c-1.4-0.9-3.1-1.4-4.8-1.4c-4.9,0-8.9,4-8.9,8.9c0,0.3,0,0.8,0,1.1h-2
		c0-0.4-0.1-0.7-0.1-1.1c0-6,4.9-10.9,10.9-10.9C91.8,693.5,94,694.2,95.9,695.4z"/>
	<path class="st50" d="M100.5,704.4c0,0.4,0,0.8-0.1,1.3h-2c0-0.3,0.1-0.9,0.1-1.3c0-1.7-0.5-3.3-1.3-4.7l1.5-1.5
		C99.8,700,100.5,702.2,100.5,704.4z"/>
	<circle class="st50" cx="89.6" cy="704.4" r="2"/>
	<path class="st50" d="M98.1,697.5l-1.4,1.4l-1.1,1.1l-5.2,5.1l-1.4-1.4l5.2-5.1l1.1-1.1l1.4-1.4C97.2,696.5,97.7,697,98.1,697.5z"
		/>
</g>
<g>
	<rect x="78.4" y="928.8" class="st49" width="28.9" height="28.9"/>
	<polygon class="st15" points="90.1,948.8 90.1,937.6 98.3,943.2 	"/>
</g>
<g>
	<rect x="78.4" y="997.8" class="st49" width="28.9" height="28.9"/>
	<g>
		<polyline class="st14" points="90.7,1007.8 97.3,1007.8 97.3,1014.4 		"/>
		<polyline class="st14" points="95,1016.6 88.4,1016.6 88.4,1010 		"/>
	</g>
</g>
<g>
	<rect x="78.4" y="1067.8" class="st49" width="28.9" height="28.9"/>
	<g>
		<polyline class="st14" points="84.7,1083.7 91.3,1083.7 91.3,1090.3 		"/>
		<polyline class="st14" points="100.9,1080.7 94.3,1080.7 94.3,1074.1 		"/>
	</g>
</g>
<g>
	<polyline class="st52" points="91.6,1138.9 82.5,1148 78.4,1143.8 	"/>
</g>
<g>
	<path class="st53" d="M78.5,1205.3l9.6-15.6c0.3-0.5,1.1-0.5,1.4,0l9.6,15.6c0.3,0.6-0.1,1.3-0.7,1.3H79.3
		C78.6,1206.6,78.2,1205.9,78.5,1205.3z"/>
	<g>
		<line class="st14" x1="88.8" y1="1194.5" x2="88.8" y2="1200.5"/>
		<line class="st14" x1="88.8" y1="1202.5" x2="88.8" y2="1204.6"/>
	</g>
</g>
<g>
	<line class="st54" x1="78.4" y1="1247.9" x2="88.4" y2="1257.9"/>
	<line class="st54" x1="88.4" y1="1247.9" x2="78.4" y2="1257.9"/>
</g>
<g>
	<path class="st8" d="M89.2,1309h-9.7c-0.6,0-1.1-0.5-1.1-1.1v-7.1c0-0.6,0.5-1.1,1.1-1.1h9.7c0.6,0,1.1,0.5,1.1,1.1v7.1
		C90.3,1308.5,89.8,1309,89.2,1309z"/>
	<line class="st55" x1="81.3" y1="1310.6" x2="87.4" y2="1310.6"/>
</g>
<g>
	<path class="st8" d="M80.3,1363.6h-1.1c-0.4,0-0.8-0.3-0.8-0.8v-8.9c0-0.4,0.3-0.8,0.8-0.8h3.7c0.4,0,0.8,0.3,0.8,0.8v2.4"/>
	<path class="st8" d="M85.3,1356.3v-2.4c0-0.4,0.3-0.8,0.8-0.8h3.7c0.4,0,0.8,0.3,0.8,0.8v2.5"/>
	<line class="st8" x1="79.7" y1="1354.8" x2="82.3" y2="1354.8"/>
	<line class="st8" x1="86.6" y1="1354.8" x2="89.2" y2="1354.8"/>
	<path class="st8" d="M92,1364.8h-9.5c-0.4,0-0.8-0.4-0.8-0.8v-5.6c0-0.4,0.3-0.8,0.8-0.8H92c0.4,0,0.8,0.4,0.8,0.8v5.6
		C92.6,1364.5,92.4,1364.8,92,1364.8z"/>
	<text transform="matrix(1 0 0 1 83.0855 1363.4421)" class="st15 st6 st56">EX</text>
</g>
<g>
	<g>
		<path class="st8" d="M81.6,1468.9h-2.2c-0.6,0-1-0.4-1-1v-7.5c0-0.6,0.4-1,1-1h8.8c0.6,0,1,0.4,1,1v1.9"/>
		<line class="st57" x1="81" y1="1470.4" x2="81.1" y2="1470.4"/>
	</g>
	<path class="st8" d="M93.1,1470h-9.5c-0.4,0-0.7-0.3-0.7-0.7v-4.9c0-0.4,0.3-0.7,0.7-0.7h9.5c0.4,0,0.7,0.3,0.7,0.7v4.9
		C93.8,1469.7,93.6,1470,93.1,1470z"/>
	<text transform="matrix(1 0 0 1 84.1274 1468.8091)" class="st15 st6 st58">VM</text>
</g>
<g>
	<path class="st8" d="M80.3,1416.5h-1.1c-0.4,0-0.8-0.3-0.8-0.8v-8.9c0-0.4,0.3-0.8,0.8-0.8h3.7c0.4,0,0.8,0.3,0.8,0.8v2.4"/>
	<path class="st8" d="M85.3,1409.2v-2.4c0-0.4,0.3-0.8,0.8-0.8h3.7c0.4,0,0.8,0.3,0.8,0.8v2.5"/>
	<line class="st8" x1="79.7" y1="1407.7" x2="82.3" y2="1407.7"/>
	<line class="st8" x1="86.6" y1="1407.7" x2="89.2" y2="1407.7"/>
	<path class="st8" d="M92,1417.7h-9.5c-0.4,0-0.8-0.4-0.8-0.8v-5.6c0-0.4,0.3-0.8,0.8-0.8H92c0.4,0,0.8,0.4,0.8,0.8v5.6
		C92.6,1417.4,92.4,1417.7,92,1417.7z"/>
	<text transform="matrix(1 0 0 1 83.1377 1416.5072)" class="st15 st6 st56">VC</text>
</g>
<g>
	<rect x="78.4" y="1512.6" class="st49" width="28.9" height="28.9"/>
	<g>
		<line class="st14" x1="87.4" y1="1521.6" x2="98.3" y2="1532.5"/>
		<line class="st14" x1="87.4" y1="1532.5" x2="98.3" y2="1521.6"/>
	</g>
</g>
<circle class="st59" cx="161.4" cy="377.7" r="9.6"/>
<g>
	<line class="st59" x1="161.4" y1="376.1" x2="161.4" y2="382.8"/>
	<line class="st59" x1="161.4" y1="372.6" x2="161.4" y2="374.5"/>
</g>
<circle class="st23" cx="161.4" cy="438.7" r="9.6"/>
<g>
	<line class="st23" x1="161.4" y1="437.1" x2="161.4" y2="443.8"/>
	<line class="st23" x1="161.4" y1="433.6" x2="161.4" y2="435.5"/>
</g>
<g>
	<path class="st60" d="M161.7,141.3h-5"/>
	<path class="st60" d="M159.2,141.3H156c-2.5,0-4.7-2.1-4.7-4.7c0-1.3,0.5-2.4,1.3-3.3c0.8-0.8,2-1.3,3.3-1.3h0.4
		c0-0.3-0.1-0.7-0.1-0.9c0-3.2,2.5-5.7,5.7-5.7s5.7,2.5,5.7,5.7c0,0.3,0,0.7-0.1,0.9h0.3c0.8,0,1.6,0.2,2.3,0.6"/>
	<polyline class="st60" points="174.2,135.7 168,141.8 165,138.8 	"/>
</g>
<g>
	<path class="st60" d="M175,19.5c0,0.6-0.3,1.2-0.7,1.6s-1,0.7-1.6,0.7H167c-1.3,0-2.3-1-2.3-2.3c0-0.6,0.3-1.2,0.7-1.6
		s1-0.7,1.6-0.7h0.1c0-0.2-0.1-0.4-0.1-0.6c0-1.6,1.3-2.9,2.9-2.9c1.6,0,2.9,1.3,2.9,2.9c0,0.2,0,0.4-0.1,0.6h0.1
		C173.9,17.2,175,18.3,175,19.5z"/>
	<path class="st60" d="M162,21.6h-7.4c-0.8,0-1.4-0.6-1.4-1.4V6.3c0-0.8,0.6-1.4,1.4-1.4h16.3c0.8,0,1.4,0.6,1.4,1.4v4.5"/>
	<line class="st60" x1="153.2" y1="9.6" x2="172.3" y2="9.6"/>
	<rect x="156.1" y="12.8" class="st61" width="2" height="2"/>
	<rect x="160" y="12.8" class="st61" width="2" height="2"/>
	<rect x="156.1" y="16.7" class="st61" width="2" height="2"/>
	<rect x="160" y="16.7" class="st61" width="2" height="2"/>
	<line class="st60" x1="157.2" y1="5.7" x2="157.2" y2="3"/>
	<line class="st60" x1="168.6" y1="5.7" x2="168.6" y2="3"/>
</g>
<g>
	<path class="st60" d="M163,82.6h-8.4c-0.8,0-1.4-0.6-1.4-1.4V67.3c0-0.8,0.6-1.4,1.4-1.4h16.3c0.8,0,1.4,0.6,1.4,1.4v3.3"/>
	<line class="st60" x1="153.2" y1="70.6" x2="172.1" y2="70.6"/>
	<rect x="156.1" y="73.8" class="st61" width="2" height="2"/>
	<rect x="160" y="73.8" class="st61" width="2" height="2"/>
	<rect x="163.9" y="73.8" class="st61" width="2" height="2"/>
	<rect x="156.1" y="77.5" class="st61" width="2" height="2"/>
	<rect x="160" y="77.5" class="st61" width="2" height="2"/>
	<line class="st60" x1="157.2" y1="66.7" x2="157.2" y2="64"/>
	<line class="st60" x1="168.6" y1="66.7" x2="168.6" y2="64"/>
	<g>
		<polygon class="st60" points="174.9,75.8 168.1,82.6 165.9,82.6 165.9,80.4 172.7,73.6 		"/>
		<line class="st60" x1="170.7" y1="75.7" x2="172.9" y2="77.9"/>
	</g>
</g>
<g>
	<path class="st22" d="M161.7,321.3h-5"/>
	<path class="st22" d="M159.2,321.3H156c-2.5,0-4.7-2.1-4.7-4.7c0-1.3,0.5-2.4,1.3-3.3c0.8-0.8,2-1.3,3.3-1.3h0.4
		c0-0.3-0.1-0.7-0.1-0.9c0-3.2,2.5-5.7,5.7-5.7s5.7,2.5,5.7,5.7c0,0.3,0,0.7-0.1,0.9h0.3c0.8,0,1.6,0.2,2.3,0.6"/>
	<polyline class="st22" points="174.2,315.7 168,321.8 165,318.8 	"/>
</g>
<g>
	<path class="st22" d="M175,199.5c0,0.6-0.3,1.2-0.7,1.6c-0.4,0.4-1,0.7-1.6,0.7H167c-1.3,0-2.3-1-2.3-2.3c0-0.6,0.3-1.2,0.7-1.6
		c0.4-0.4,1-0.7,1.6-0.7h0.1c0-0.2-0.1-0.4-0.1-0.6c0-1.6,1.3-2.9,2.9-2.9c1.6,0,2.9,1.3,2.9,2.9c0,0.2,0,0.4-0.1,0.6h0.1
		C173.9,197.2,175,198.3,175,199.5z"/>
	<path class="st22" d="M162,201.6h-7.4c-0.8,0-1.4-0.6-1.4-1.4v-13.9c0-0.8,0.6-1.4,1.4-1.4h16.3c0.8,0,1.4,0.6,1.4,1.4v4.5"/>
	<line class="st22" x1="153.2" y1="189.6" x2="172.3" y2="189.6"/>
	<rect x="156.1" y="192.8" class="st15" width="2" height="2"/>
	<rect x="160" y="192.8" class="st15" width="2" height="2"/>
	<rect x="156.1" y="196.7" class="st15" width="2" height="2"/>
	<rect x="160" y="196.7" class="st15" width="2" height="2"/>
	<line class="st22" x1="157.2" y1="185.7" x2="157.2" y2="183"/>
	<line class="st22" x1="168.6" y1="185.7" x2="168.6" y2="183"/>
</g>
<g>
	<path class="st22" d="M163,262.6h-8.4c-0.8,0-1.4-0.6-1.4-1.4v-13.9c0-0.8,0.6-1.4,1.4-1.4h16.3c0.8,0,1.4,0.6,1.4,1.4v3.3"/>
	<line class="st22" x1="153.2" y1="250.6" x2="172.1" y2="250.6"/>
	<rect x="156.1" y="253.8" class="st15" width="2" height="2"/>
	<rect x="160" y="253.8" class="st15" width="2" height="2"/>
	<rect x="163.9" y="253.8" class="st15" width="2" height="2"/>
	<rect x="156.1" y="257.5" class="st15" width="2" height="2"/>
	<rect x="160" y="257.5" class="st15" width="2" height="2"/>
	<line class="st22" x1="157.2" y1="246.7" x2="157.2" y2="244"/>
	<line class="st22" x1="168.6" y1="246.7" x2="168.6" y2="244"/>
	<polygon class="st22" points="174.9,255.8 168.1,262.6 165.9,262.6 165.9,260.4 172.7,253.6 	"/>
	<line class="st22" x1="170.7" y1="255.7" x2="172.9" y2="257.9"/>
</g>
<g>
	<path class="st0" d="M10,179.1H3.4c-0.8,0-1.4-0.6-1.4-1.4v-8.2c0-0.8,0.6-1.4,1.4-1.4h11.2c0.8,0,1.4,0.6,1.4,1.4v2.5"/>
	<line class="st0" x1="6" y1="166" x2="6" y2="170"/>
	<line class="st0" x1="12.1" y1="166" x2="12.1" y2="170"/>
	<g>
		
			<rect x="16.4" y="173.3" transform="matrix(0.7071 -0.7071 0.7071 0.7071 -118.4407 63.2651)" class="st62" width="1.5" height="2.6"/>
		<polygon class="st62" points="17.1,176.4 13.4,180.1 11.6,180.1 11.6,178.2 15.2,174.6 		"/>
	</g>
	<line class="st0" x1="5.3" y1="172.6" x2="13.2" y2="172.6"/>
	<line class="st0" x1="5.3" y1="175.5" x2="9.4" y2="175.5"/>
</g>
<g>
	<path class="st0" d="M7,69.1H3.4c-0.8,0-1.4-0.6-1.4-1.4v-8.2c0-0.8,0.6-1.4,1.4-1.4h11.2c0.8,0,1.4,0.6,1.4,1.4v1.1"/>
	<line class="st0" x1="6" y1="56" x2="6" y2="60"/>
	<line class="st0" x1="12.1" y1="56" x2="12.1" y2="60"/>
	<path class="st0" d="M18.8,67.7c0,0.6-0.2,1.1-0.6,1.5s-0.9,0.6-1.5,0.6h-5.4c-1.2,0-2.2-1-2.2-2.2c0-0.6,0.2-1.1,0.6-1.5
		s0.9-0.6,1.5-0.6h0.1c0-0.2-0.1-0.4-0.1-0.5c0-1.5,1.2-2.7,2.7-2.7s2.7,1.2,2.7,2.7c0,0.2,0,0.4-0.1,0.5h0.1
		C17.8,65.5,18.8,66.5,18.8,67.7z"/>
</g>
<g>
	<path class="st34" d="M10,400.1H3.4c-0.8,0-1.4-0.6-1.4-1.4v-8.2c0-0.8,0.6-1.4,1.4-1.4h11.2c0.8,0,1.4,0.6,1.4,1.4v2.5"/>
	<line class="st34" x1="6" y1="387" x2="6" y2="391"/>
	<line class="st34" x1="12.1" y1="387" x2="12.1" y2="391"/>
	
		<rect x="16.4" y="394.3" transform="matrix(0.7071 -0.7071 0.7071 0.7071 -274.7097 127.9938)" class="st37" width="1.5" height="2.6"/>
	<polygon class="st37" points="17.1,397.4 13.4,401.1 11.6,401.1 11.6,399.2 15.2,395.6 	"/>
	<line class="st34" x1="5.3" y1="393.6" x2="13.2" y2="393.6"/>
	<line class="st34" x1="5.3" y1="396.5" x2="9.4" y2="396.5"/>
</g>
<g>
	<path class="st34" d="M7,290.1H3.4c-0.8,0-1.4-0.6-1.4-1.4v-8.2c0-0.8,0.6-1.4,1.4-1.4h11.2c0.8,0,1.4,0.6,1.4,1.4v1.1"/>
	<line class="st34" x1="6" y1="277" x2="6" y2="281"/>
	<line class="st34" x1="12.1" y1="277" x2="12.1" y2="281"/>
	<path class="st34" d="M18.8,288.7c0,0.6-0.2,1.1-0.6,1.5s-0.9,0.6-1.5,0.6h-5.4c-1.2,0-2.2-1-2.2-2.2c0-0.6,0.2-1.1,0.6-1.5
		s0.9-0.6,1.5-0.6h0.1c0-0.2-0.1-0.4-0.1-0.5c0-1.5,1.2-2.7,2.7-2.7s2.7,1.2,2.7,2.7c0,0.2,0,0.4-0.1,0.5h0.1
		C17.8,286.5,18.8,287.5,18.8,288.7z"/>
</g>
<g>
	<path class="st1" d="M85.3,416.9h-2.8"/>
	<path class="st1" d="M84.5,416.9h-2.4c-1.9,0-3.5-1.6-3.5-3.5c0-1,0.4-1.8,1-2.5c0.6-0.6,1.5-1,2.5-1h0.3c0-0.2-0.1-0.5-0.1-0.7
		c0-2.4,1.9-4.3,4.3-4.3s4.3,1.9,4.3,4.3c0,0.2,0,0.5-0.1,0.7H91c0.6,0,1.2,0.2,1.7,0.5"/>
	<polyline class="st1" points="96.8,411.6 91,417.3 87.8,414 	"/>
</g>
<g>
	<path class="st35" d="M85.3,473.9h-2.8"/>
	<path class="st35" d="M84.5,473.9h-2.4c-1.9,0-3.5-1.6-3.5-3.5c0-1,0.4-1.8,1-2.5c0.6-0.6,1.5-1,2.5-1h0.3c0-0.2-0.1-0.5-0.1-0.7
		c0-2.4,1.9-4.3,4.3-4.3s4.3,1.9,4.3,4.3c0,0.2,0,0.5-0.1,0.7H91c0.6,0,1.2,0.2,1.7,0.5"/>
	<polyline class="st35" points="96.8,468.6 91,474.3 87.8,471 	"/>
</g>
<g>
	<g>
		<g>
			<path class="st61" d="M173.8,564c0-0.2,0-0.4,0-0.7c0-0.1,0.1-0.2,0.1-0.3l1-0.8c0.1-0.1,0.1-0.2,0.1-0.3l-0.3-0.6
				c-0.1-0.2-0.2-0.3-0.4-0.3l-1.2,0.1c-0.1,0-0.2-0.1-0.3-0.1c-0.2-0.2-0.3-0.3-0.5-0.5c-0.1-0.1-0.1-0.2-0.1-0.3l0.1-1.2
				c0-0.2-0.1-0.4-0.3-0.4l-0.6-0.3c-0.1,0-0.1,0-0.2,0c-0.1,0-0.3,0.1-0.3,0.2l-0.9,1h-0.3h-0.4l-0.8-1c-0.1-0.1-0.2-0.2-0.3-0.2
				s-0.1,0-0.2,0l-0.6,0.2c-0.2,0.1-0.3,0.3-0.3,0.4l0.1,1.2c0,0.1-0.1,0.2-0.1,0.3c-0.2,0.2-0.4,0.3-0.5,0.5
				c-0.1,0.1-0.2,0.1-0.3,0.1l-1.2-0.1c-0.2,0-0.3,0.1-0.4,0.3l-0.3,0.6c-0.1,0.2,0,0.4,0.1,0.5l0.9,0.7c0.1,0.1,0.1,0.2,0.1,0.3
				c0,0.2,0,0.5,0,0.7c0,0.1,0,0.2-0.1,0.3l-0.9,0.7c-0.2,0.1-0.2,0.3-0.1,0.5l0.2,0.6c0.1,0.2,0.2,0.3,0.4,0.3l1.1-0.1
				c0.1,0,0.2,0.1,0.3,0.1c0.2,0.2,0.3,0.4,0.5,0.5c0.1,0.1,0.1,0.2,0.1,0.3l-0.1,1.1c0,0.2,0.1,0.4,0.3,0.4l0.6,0.3
				c0.1,0,0.1,0,0.2,0c0.1,0,0.2-0.1,0.3-0.2l0.7-0.8c0.1-0.1,0.2-0.1,0.2-0.1c0.2,0,0.3,0,0.4,0s0.3,0,0.5,0l0.7,1
				c0.1,0.1,0.2,0.2,0.3,0.2s0.1,0,0.2,0l0.6-0.2c0.2-0.1,0.3-0.3,0.3-0.4l-0.1-1.1c0-0.1,0.1-0.2,0.1-0.3c0.2-0.2,0.4-0.3,0.5-0.5
				c0.1-0.1,0.2-0.1,0.3-0.1l1.1,0.1c0.2,0,0.3-0.1,0.4-0.3l0.3-0.6c0.1-0.2,0.1-0.4-0.1-0.5l-0.9-0.7
				C173.9,564.1,173.8,564,173.8,564z M169.9,565.3h-0.7c-0.1,0-0.2-0.1-0.2-0.1c-2.1-1.9,0.2-4.5,2.1-2.9c0.1,0,0.1,0.1,0.1,0.1
				C172.2,563.8,171.2,565.3,169.9,565.3z"/>
		</g>
		<path class="st60" d="M161.8,565.7h-5.4c-2.5,0-4.6-2.1-4.6-4.6c0-1.3,0.5-2.4,1.3-3.3c0.8-0.8,2-1.3,3.3-1.3h0.4
			c0-0.3-0.1-0.7-0.1-0.9c0-3.1,2.5-5.6,5.6-5.6s5.6,2.5,5.6,5.6"/>
	</g>
	<g>
		<path class="st15" d="M173.8,504.7c0-0.2,0-0.4,0-0.7c0-0.1,0.1-0.2,0.1-0.3l1-0.8c0.1-0.1,0.1-0.2,0.1-0.3l-0.3-0.6
			c-0.1-0.2-0.2-0.3-0.4-0.3l-1.2,0.1c-0.1,0-0.2-0.1-0.3-0.1c-0.2-0.2-0.3-0.3-0.5-0.5c-0.1-0.1-0.1-0.2-0.1-0.3l0.1-1.2
			c0-0.2-0.1-0.4-0.3-0.4l-0.6-0.3c-0.1,0-0.1,0-0.2,0c-0.1,0-0.3,0.1-0.3,0.2l-0.9,1h-0.3h-0.4l-0.8-1c-0.1-0.1-0.2-0.2-0.3-0.2
			s-0.1,0-0.2,0l-0.6,0.2c-0.2,0.1-0.3,0.3-0.3,0.4l0.1,1.2c0,0.1-0.1,0.2-0.1,0.3c-0.2,0.2-0.4,0.3-0.5,0.5
			c-0.1,0.1-0.2,0.1-0.3,0.1l-1.2-0.1c-0.2,0-0.3,0.1-0.4,0.3l-0.3,0.6c-0.1,0.2,0,0.4,0.1,0.5l0.9,0.7c0.1,0.1,0.1,0.2,0.1,0.3
			c0,0.2,0,0.5,0,0.7c0,0.1,0,0.2-0.1,0.3l-0.9,0.7c-0.2,0.1-0.2,0.3-0.1,0.5l0.2,0.6c0.1,0.2,0.2,0.3,0.4,0.3l1.1-0.1
			c0.1,0,0.2,0.1,0.3,0.1c0.2,0.2,0.3,0.4,0.5,0.5c0.1,0.1,0.1,0.2,0.1,0.3l-0.1,1.1c0,0.2,0.1,0.4,0.3,0.4l0.6,0.3
			c0.1,0,0.1,0,0.2,0c0.1,0,0.2-0.1,0.3-0.2l0.7-0.8c0.1-0.1,0.2-0.1,0.2-0.1c0.2,0,0.3,0,0.4,0s0.3,0,0.5,0l0.7,1
			c0.1,0.1,0.2,0.2,0.3,0.2s0.1,0,0.2,0l0.6-0.2c0.2-0.1,0.3-0.3,0.3-0.4l-0.1-1.1c0-0.1,0.1-0.2,0.1-0.3c0.2-0.2,0.4-0.3,0.5-0.5
			c0.1-0.1,0.2-0.1,0.3-0.1l1.1,0.1c0.2,0,0.3-0.1,0.4-0.3l0.3-0.6c0.1-0.2,0.1-0.4-0.1-0.5l-0.9-0.7
			C173.9,504.8,173.8,504.7,173.8,504.7z M169.9,506h-0.7c-0.1,0-0.2-0.1-0.2-0.1c-2.1-1.9,0.2-4.5,2.1-2.9c0.1,0,0.1,0.1,0.1,0.1
			C172.2,504.5,171.2,506,169.9,506z"/>
		<path class="st22" d="M161.8,506.4h-5.4c-2.5,0-4.6-2.1-4.6-4.6c0-1.3,0.5-2.4,1.3-3.3c0.8-0.8,2-1.3,3.3-1.3h0.4
			c0-0.3-0.1-0.7-0.1-0.9c0-3.1,2.5-5.6,5.6-5.6s5.6,2.5,5.6,5.6"/>
	</g>
</g>
<g>
	<g>
		<g>
			<path class="st62" d="M20.8,1646.6c0-0.2,0-0.3,0-0.5c0-0.1,0-0.2,0.1-0.2l0.7-0.6c0.1-0.1,0.1-0.2,0.1-0.2l-0.2-0.5
				c0-0.1-0.2-0.2-0.3-0.2h-0.9c-0.1,0-0.1,0-0.2-0.1s-0.2-0.2-0.4-0.4c0,0-0.1-0.1-0.1-0.2l0.1-0.9c0-0.1,0-0.3-0.2-0.3l-0.5-0.2
				h-0.1c-0.1,0-0.2,0-0.2,0.1l-0.7,0.8h-0.4h-0.3l-0.6-0.8c0-0.1-0.2-0.1-0.2-0.1h-0.1l-0.4,0.2c-0.1,0-0.2,0.2-0.2,0.3l0.1,0.9
				c0,0.1,0,0.2-0.1,0.2c-0.1,0.1-0.3,0.2-0.4,0.4c0,0-0.1,0.1-0.2,0.1l-0.9-0.1c-0.1,0-0.2,0.1-0.3,0.2l-0.2,0.4
				c0,0.1,0,0.3,0.1,0.4l0.7,0.5c0,0,0.1,0.1,0.1,0.2c0,0.2,0,0.4,0,0.5s0,0.2-0.1,0.2l-0.7,0.5c-0.1,0.1-0.2,0.2-0.1,0.4l0.2,0.4
				c0,0.1,0.2,0.2,0.3,0.2l0.8-0.1c0.1,0,0.2,0,0.2,0.1c0.1,0.2,0.2,0.3,0.4,0.4c0,0,0.1,0.1,0.1,0.2l-0.1,0.8c0,0.1,0,0.3,0.2,0.3
				l0.4,0.2h0.1c0.1,0,0.2,0,0.2-0.1l0.5-0.6c0,0,0.1-0.1,0.2-0.1s0.2,0,0.3,0s0.2,0,0.4,0l0.6,0.7c0,0.1,0.2,0.1,0.2,0.1h0.1
				l0.4-0.2c0.1,0,0.2-0.2,0.2-0.3l-0.1-0.8c0-0.1,0-0.2,0.1-0.2c0.2-0.1,0.3-0.2,0.4-0.4c0,0,0.1-0.1,0.2-0.1l0.9,0.3
				c0.1,0,0.2-0.1,0.3-0.2l0.2-0.4c0.1-0.1,0-0.3,0-0.4l-0.7-0.5C20.9,1646.7,20.8,1646.6,20.8,1646.6z M17.8,1647.7h-0.6
				c0,0-0.1,0-0.2,0c-1.6-1.4,0.1-3.4,1.6-2.2l0,0C19.6,1646.5,18.8,1647.7,17.8,1647.7z"/>
		</g>
		<path class="st1" d="M11.6,1647.9H7.5c-1.9,0-3.5-1.6-3.5-3.5c0-1,0.4-1.8,1-2.5c0.6-0.6,1.5-1,2.5-1h0.3c0-0.2-0.1-0.5-0.1-0.7
			c0-2.4,1.9-4.3,4.3-4.3s4.3,1.9,4.3,4.3"/>
	</g>
	<path class="st37" d="M20.8,1700.6c0-0.2,0-0.3,0-0.5c0-0.1,0-0.2,0.1-0.2l0.7-0.6c0.1-0.1,0.1-0.2,0.1-0.2l-0.2-0.5
		c0-0.1-0.2-0.2-0.3-0.2h-0.9c-0.1,0-0.1,0-0.2-0.1s-0.2-0.2-0.4-0.4c0,0-0.1-0.1-0.1-0.2l0.1-0.9c0-0.1,0-0.3-0.2-0.3l-0.5-0.2
		h-0.1c-0.1,0-0.2,0-0.2,0.1l-0.7,0.8h-0.4h-0.3l-0.6-0.8c0-0.1-0.2-0.1-0.2-0.1h-0.1l-0.4,0.2c-0.1,0-0.2,0.2-0.2,0.3l0.1,0.9
		c0,0.1,0,0.2-0.1,0.2c-0.1,0.1-0.3,0.2-0.4,0.4c0,0-0.1,0.1-0.2,0.1l-0.9-0.1c-0.1,0-0.2,0.1-0.3,0.2l-0.2,0.4c0,0.1,0,0.3,0.1,0.4
		l0.7,0.5c0,0,0.1,0.1,0.1,0.2c0,0.2,0,0.4,0,0.5s0,0.2-0.1,0.2l-0.7,0.5c-0.1,0.1-0.2,0.2-0.1,0.4l0.2,0.4c0,0.1,0.2,0.2,0.3,0.2
		l0.8-0.1c0.1,0,0.2,0,0.2,0.1c0.1,0.2,0.2,0.3,0.4,0.4c0,0,0.1,0.1,0.1,0.2l-0.1,0.8c0,0.1,0,0.3,0.2,0.3l0.4,0.2h0.1
		c0.1,0,0.2,0,0.2-0.1l0.5-0.6c0,0,0.1-0.1,0.2-0.1s0.2,0,0.3,0s0.2,0,0.4,0l0.6,0.7c0,0.1,0.2,0.1,0.2,0.1h0.1l0.4-0.2
		c0.1,0,0.2-0.2,0.2-0.3l-0.1-0.8c0-0.1,0-0.2,0.1-0.2c0.2-0.1,0.3-0.2,0.4-0.4c0,0,0.1-0.1,0.2-0.1l0.9,0.3c0.1,0,0.2-0.1,0.3-0.2
		l0.2-0.4c0.1-0.1,0-0.3,0-0.4l-0.7-0.5C20.9,1700.7,20.8,1700.6,20.8,1700.6z M17.8,1701.7h-0.6c0,0-0.1,0-0.2,0
		c-1.6-1.4,0.1-3.4,1.6-2.2l0,0C19.6,1700.5,18.8,1701.7,17.8,1701.7z"/>
	<path class="st35" d="M11.6,1701.9H7.5c-1.9,0-3.5-1.6-3.5-3.5c0-1,0.4-1.8,1-2.5c0.6-0.6,1.5-1,2.5-1h0.3c0-0.2-0.1-0.5-0.1-0.7
		c0-2.4,1.9-4.3,4.3-4.3s4.3,1.9,4.3,4.3"/>
</g>
<g>
	<path class="st63" d="M171,626.3h-17c-1.1,0-2-0.9-2-2v-12c0-1.1,0.9-2,2-2h17c1.1,0,2,0.9,2,2v12C173,625.4,172.1,626.3,171,626.3
		z"/>
	<line class="st63" x1="157" y1="629.9" x2="167.9" y2="629.9"/>
</g>
<g>
	<g>
		<path class="st43" d="M172,744.3h-14.2c-0.7,0-1.2-0.5-1.2-1.2V736c0-0.7,0.5-1.2,1.2-1.2H172c0.7,0,1.2,0.5,1.2,1.2v7.1
			C173.3,743.7,172.7,744.3,172,744.3z"/>
		<g class="st64">
			<path class="st42" d="M161,741.3l1.5-4.7h1.2l-2.2,6h-1l-2.2-6h1.1L161,741.3z"/>
			<path class="st42" d="M165.7,736.6l1.7,4.6l1.7-4.6h1.4v6h-1v-2l0.1-2.7l-1.8,4.7H167l-1.8-4.6l0.1,2.7v2h-1v-6h1.4V736.6z"/>
		</g>
	</g>
	<g>
		<path class="st63" d="M169.3,747.3v2.4c0,1.1-0.9,2-2,2h-13.6c-1.1,0-2-0.9-2-2v-9.4c0-1.1,0.9-2,2-2l0,0"/>
		<line class="st63" x1="155.9" y1="754.7" x2="165.1" y2="754.7"/>
	</g>
</g>
<g>
	<path class="st14" d="M171,689.3h-17c-1.1,0-2-0.9-2-2v-12c0-1.1,0.9-2,2-2h17c1.1,0,2,0.9,2,2v12C173,688.4,172.1,689.3,171,689.3
		z"/>
	<line class="st24" x1="157" y1="692.9" x2="167.9" y2="692.9"/>
</g>
<g>
	<path class="st14" d="M172,807.3h-14.2c-0.7,0-1.2-0.5-1.2-1.2V799c0-0.7,0.5-1.2,1.2-1.2H172c0.7,0,1.2,0.5,1.2,1.2v7.1
		C173.3,806.7,172.7,807.3,172,807.3z"/>
	<path class="st15" d="M161,804.3l1.5-4.7h1.2l-2.2,6h-1l-2.2-6h1.1L161,804.3z"/>
	<path class="st15" d="M165.7,799.6l1.7,4.6l1.7-4.6h1.4v6h-1v-2l0.1-2.7l-1.8,4.7H167l-1.8-4.6l0.1,2.7v2h-1v-6h1.4V799.6z"/>
	<path class="st24" d="M169.3,810.3v2.4c0,1.1-0.9,2-2,2h-13.6c-1.1,0-2-0.9-2-2v-9.4c0-1.1,0.9-2,2-2l0,0"/>
	<line class="st24" x1="155.9" y1="817.7" x2="165.1" y2="817.7"/>
</g>
<g>
	<path class="st60" d="M162,875.9h-8.6c-1,0-1.7-0.7-1.7-1.6v-14.2c0-0.9,0.8-1.6,1.7-1.6h9.8l3.5,3.3v3.3"/>
	<path class="st61" d="M165.4,862.8h-3.3v-3.1c0-0.9,1-1.3,1.7-0.7l2.3,2.1C166.7,861.7,166.3,862.8,165.4,862.8z"/>
	<line class="st60" x1="166.8" y1="868.7" x2="166.8" y2="877"/>
	<polyline class="st60" points="163.1,872.4 166.8,868.7 170.5,872.4 	"/>
	<line class="st60" x1="155.6" y1="862.8" x2="159.2" y2="862.8"/>
	<line class="st60" x1="155.6" y1="865.9" x2="162.7" y2="865.9"/>
</g>
<g>
	<path class="st22" d="M162,935.9h-8.6c-1,0-1.7-0.7-1.7-1.6v-14.2c0-0.9,0.8-1.6,1.7-1.6h9.8l3.5,3.3v3.3"/>
	<path class="st15" d="M165.4,922.8h-3.3v-3.1c0-0.9,1-1.3,1.7-0.7l2.3,2.1C166.7,921.7,166.3,922.8,165.4,922.8z"/>
	<line class="st22" x1="166.8" y1="928.7" x2="166.8" y2="937"/>
	<polyline class="st22" points="163.1,932.4 166.8,928.7 170.5,932.4 	"/>
	<line class="st22" x1="155.6" y1="922.8" x2="159.2" y2="922.8"/>
	<line class="st22" x1="155.6" y1="925.9" x2="162.7" y2="925.9"/>
</g>
<path class="st1" d="M86.4,1596.6h-6.6c-0.7,0-1.3-0.6-1.3-1.3v-11c0-0.7,0.6-1.3,1.3-1.3h7.6l2.7,2.5v2.5"/>
<polygon class="st62" points="90.9,1586.4 86.5,1586.4 86.5,1582.2 "/>
<line class="st1" x1="90.1" y1="1591" x2="90.1" y2="1597.4"/>
<polyline class="st1" points="87.2,1593.9 90.1,1591 93,1593.9 "/>
<line class="st1" x1="81.4" y1="1586.4" x2="84.2" y2="1586.4"/>
<line class="st1" x1="81.4" y1="1589.3" x2="86.9" y2="1589.3"/>
<path class="st35" d="M86.4,1653.6h-6.6c-0.7,0-1.3-0.6-1.3-1.3v-11c0-0.7,0.6-1.3,1.3-1.3h7.6l2.7,2.5v2.5"/>
<polygon class="st37" points="90.9,1643.4 86.5,1643.4 86.5,1639.2 "/>
<line class="st35" x1="90.1" y1="1648" x2="90.1" y2="1654.4"/>
<polyline class="st35" points="87.2,1650.9 90.1,1648 93,1650.9 "/>
<line class="st35" x1="81.4" y1="1643.4" x2="84.2" y2="1643.4"/>
<line class="st35" x1="81.4" y1="1646.3" x2="86.9" y2="1646.3"/>
<polyline class="st1" points="160.5,984.9 164,984.9 164,981.5 169.3,986.7 164.1,991.8 164.1,988.9 160.5,988.9 "/>
<polyline class="st1" points="160.5,992.9 157,992.9 157,996.2 151.7,991.1 156.9,985.9 156.9,988.9 160.5,988.9 "/>
<path class="st1" d="M164.6,1163.9c0,1-0.6,1.7-1.4,1.7h-7.9c-0.8,0-1.4-0.7-1.4-1.7v-10.2c0-1,0.6-1.7,1.4-1.7h7.9
	c0.8,0,1.4,0.7,1.4,1.7"/>
<polyline class="st1" points="156.8,1159.2 158.6,1159.2 159.9,1156 162.3,1161.7 163.7,1158.4 169.8,1158.4 "/>
<polyline class="st1" points="167.4,1155.8 170.1,1158.5 167.4,1161.1 "/>
<line class="st1" x1="171.1" y1="1107.8" x2="164.7" y2="1107.8"/>
<polyline class="st1" points="168.2,1104.9 171.1,1107.8 168.2,1110.7 "/>
<line class="st0" x1="155.9" y1="1100.6" x2="163.8" y2="1100.6"/>
<line class="st0" x1="155.9" y1="1103.5" x2="160" y2="1103.5"/>
<path class="st1" d="M165.2,1107.8H154c-0.8,0-1.4-0.6-1.4-1.4v-8.9c0-0.8,0.6-1.4,1.4-1.4h11.2c0.8,0,1.4,0.6,1.4,1.4v4.4"/>
<path class="st1" d="M160,1221.6h-4.6c-0.7,0-1.3-0.6-1.3-1.3v-11c0-0.7,0.6-1.3,1.3-1.3h7.6l2.7,2.5v2.5"/>
<polygon class="st62" points="166.5,1211.4 162.1,1211.4 162.1,1207.2 "/>
<line class="st1" x1="168.9" y1="1219.2" x2="162.5" y2="1219.2"/>
<polyline class="st1" points="166,1216.3 168.9,1219.2 166,1222.1 "/>
<line class="st1" x1="157" y1="1211.4" x2="159.8" y2="1211.4"/>
<line class="st1" x1="157" y1="1214.3" x2="162.5" y2="1214.3"/>
<polyline class="st35" points="160.5,1266.9 164,1266.9 164,1263.5 169.3,1268.7 164.1,1273.8 164.1,1270.9 160.5,1270.9 "/>
<polyline class="st35" points="160.5,1274.9 157,1274.9 157,1278.2 151.7,1273.1 156.9,1267.9 156.9,1270.9 160.5,1270.9 "/>
<path class="st35" d="M164.6,1445.9c0,1-0.6,1.7-1.4,1.7h-7.9c-0.8,0-1.4-0.7-1.4-1.7v-10.2c0-1,0.6-1.7,1.4-1.7h7.9
	c0.8,0,1.4,0.7,1.4,1.7"/>
<polyline class="st35" points="156.8,1441.2 158.6,1441.2 159.9,1438 162.3,1443.7 163.7,1440.4 169.8,1440.4 "/>
<polyline class="st35" points="167.4,1437.8 170.1,1440.5 167.4,1443.1 "/>
<line class="st35" x1="171.1" y1="1389.8" x2="164.7" y2="1389.8"/>
<polyline class="st35" points="168.2,1386.9 171.1,1389.8 168.2,1392.7 "/>
<line class="st34" x1="155.9" y1="1382.6" x2="163.8" y2="1382.6"/>
<line class="st34" x1="155.9" y1="1385.5" x2="160" y2="1385.5"/>
<path class="st35" d="M165.2,1389.8H154c-0.8,0-1.4-0.6-1.4-1.4v-8.9c0-0.8,0.6-1.4,1.4-1.4h11.2c0.8,0,1.4,0.6,1.4,1.4v4.4"/>
<g>
	<path class="st35" d="M160,1503.6h-4.6c-0.7,0-1.3-0.6-1.3-1.3v-11c0-0.7,0.6-1.3,1.3-1.3h7.6l2.7,2.5v2.5"/>
	<polygon class="st37" points="166.5,1493.4 162.1,1493.4 162.1,1489.2 	"/>
	<line class="st35" x1="168.9" y1="1501.2" x2="162.5" y2="1501.2"/>
	<polyline class="st35" points="166,1498.3 168.9,1501.2 166,1504.1 	"/>
	<line class="st35" x1="157" y1="1493.4" x2="159.8" y2="1493.4"/>
	<line class="st35" x1="157" y1="1496.3" x2="162.5" y2="1496.3"/>
</g>
<g>
	<path class="st1" d="M153.5,1046.4L153.5,1046.4l1.7-5.4c0.1-0.6,0.7-1,1.4-1h8.9c0.7,0,1.2,0.4,1.4,1l1.8,5.4l0,0"/>
	<rect x="153.4" y="1046.3" class="st1" width="15.2" height="5.8"/>
	<circle class="st62" cx="156.8" cy="1049.2" r="1.1"/>
</g>
<g>
	<path class="st35" d="M153.5,1328.4L153.5,1328.4l1.7-5.4c0.1-0.6,0.7-1,1.4-1h8.9c0.7,0,1.2,0.4,1.4,1l1.8,5.4l0,0"/>
	<rect x="153.4" y="1328.3" class="st35" width="15.2" height="5.8"/>
	<circle class="st37" cx="156.8" cy="1331.2" r="1.1"/>
</g>
<g>
	<g>
		<g>
			<path class="st22" d="M236.7,261.7h-8.6c-1,0-1.7-0.7-1.7-1.6v-14.2c0-0.9,0.8-1.6,1.7-1.6h9.8l3.5,3.3v3.3"/>
			<path class="st15" d="M240.1,248.6h-3.3v-3.1c0-0.9,1-1.3,1.7-0.7l2.3,2.1C241.4,247.5,241,248.6,240.1,248.6z"/>
			<g>
				<line class="st22" x1="245.7" y1="257.6" x2="237.4" y2="257.6"/>
				<polyline class="st22" points="242,253.9 245.7,257.6 242,261.3 				"/>
			</g>
			<line class="st22" x1="230.3" y1="248.6" x2="233.9" y2="248.6"/>
			<line class="st22" x1="230.3" y1="251.7" x2="237.4" y2="251.7"/>
		</g>
		<g>
			<polyline class="st22" points="233.6,7.2 237.7,7.2 237.8,3 243.9,9.4 237.9,15.8 237.8,12.1 233.6,12.1 			"/>
			<polyline class="st22" points="233.7,17.1 229.6,17.1 229.5,21.2 223.3,14.9 229.4,8.5 229.5,12.1 233.7,12.1 			"/>
		</g>
		<g>
			<path class="st22" d="M239.5,199.1c0,1.3-0.8,2.3-1.8,2.3h-10.5c-1,0-1.8-1-1.8-2.3v-13.5c0-1.3,0.8-2.3,1.8-2.3h10.5
				c1,0,1.8,1,1.8,2.3"/>
			<polyline class="st22" points="229,192.9 231.4,192.9 233.2,188.6 236.4,196.3 238.2,191.9 246.4,191.9 			"/>
			<polyline class="st22" points="243.2,188.4 246.7,192 243.2,195.5 			"/>
		</g>
		<g>
			<line class="st22" x1="247.5" y1="138.3" x2="239.5" y2="138.3"/>
			<polyline class="st22" points="243.9,134.6 247.5,138.3 243.9,141.9 			"/>
			<line class="st21" x1="228.5" y1="129.2" x2="238.4" y2="129.2"/>
			<line class="st21" x1="228.5" y1="132.9" x2="233.6" y2="132.9"/>
			<path class="st22" d="M240.2,138.3h-14.1c-1,0-1.8-0.8-1.8-1.8v-11.2c0-1,0.8-1.8,1.8-1.8h14.1c1,0,1.8,0.8,1.8,1.8v5.6"/>
		</g>
		<g>
			<path class="st22" d="M223.8,72.4L223.8,72.4l2.3-7.2c0.2-0.8,1-1.4,1.8-1.4h10.8c0.9,0,1.7,0.6,1.8,1.4l2.3,7.2l0,0"/>
			<rect x="223.8" y="72.3" class="st22" width="19.2" height="7.8"/>
			<circle class="st15" cx="228.2" cy="76.1" r="1.5"/>
		</g>
	</g>
	<g>
		<path class="st65" d="M236.7,562.7h-8.6c-1,0-1.7-0.7-1.7-1.6v-14.2c0-0.9,0.8-1.6,1.7-1.6h9.8l3.5,3.3v3.3"/>
		<path class="st42" d="M240.1,549.6h-3.3v-3.1c0-0.9,1-1.3,1.7-0.7l2.3,2.1C241.4,548.5,241,549.6,240.1,549.6z"/>
		<g>
			<line class="st65" x1="245.7" y1="558.6" x2="237.4" y2="558.6"/>
			<polyline class="st65" points="242,554.9 245.7,558.6 242,562.3 			"/>
		</g>
		<line class="st65" x1="230.3" y1="549.6" x2="233.9" y2="549.6"/>
		<line class="st65" x1="230.3" y1="552.7" x2="237.4" y2="552.7"/>
	</g>
	<g>
		<polyline class="st65" points="233.6,308.2 237.7,308.2 237.8,304 243.9,310.4 237.9,316.8 237.8,313.1 233.6,313.1 		"/>
		<polyline class="st65" points="233.7,318.1 229.6,318.1 229.5,322.2 223.3,315.9 229.4,309.5 229.5,313.1 233.7,313.1 		"/>
	</g>
	<g>
		<path class="st65" d="M239.5,500.1c0,1.3-0.8,2.3-1.8,2.3h-10.5c-1,0-1.8-1-1.8-2.3v-13.5c0-1.3,0.8-2.3,1.8-2.3h10.5
			c1,0,1.8,1,1.8,2.3"/>
		<polyline class="st65" points="229,493.9 231.4,493.9 233.2,489.6 236.4,497.3 238.2,492.9 246.4,492.9 		"/>
		<polyline class="st65" points="243.2,489.4 246.7,493 243.2,496.5 		"/>
	</g>
	<g>
		<line class="st65" x1="247.5" y1="439.3" x2="239.5" y2="439.3"/>
		<polyline class="st65" points="243.9,435.7 247.5,439.3 243.9,442.9 		"/>
		<line class="st66" x1="228.5" y1="430.2" x2="238.4" y2="430.2"/>
		<line class="st66" x1="228.5" y1="433.9" x2="233.6" y2="433.9"/>
		<path class="st65" d="M240.2,439.3h-14.1c-1,0-1.8-0.8-1.8-1.8v-11.2c0-1,0.8-1.8,1.8-1.8h14.1c1,0,1.8,0.8,1.8,1.8v5.6"/>
	</g>
	<g>
		<path class="st65" d="M223.8,373.4L223.8,373.4l2.3-7.2c0.2-0.8,1-1.4,1.8-1.4h10.8c0.9,0,1.7,0.6,1.8,1.4l2.3,7.2l0,0"/>
		<rect x="223.8" y="373.3" class="st65" width="19.2" height="7.8"/>
		<circle class="st42" cx="228.2" cy="377.1" r="1.5"/>
	</g>
</g>
<g>
	<path class="st29" d="M165.2,1578.2h-1.3c-5.4,0-9.8-4.4-9.8-9.8c0-2.7,1.1-5.2,2.9-6.9c1.8-1.8,4.2-2.9,6.9-2.9h2
		c0-0.5-0.1-0.9-0.1-1.3c0-6.9,5.6-12.5,12.5-12.5s12.5,5.6,12.5,12.5c0,0.5,0,1-0.1,1.3h2c3.3,0,6.3,1.7,8,4.2"/>
	<path class="st29" d="M203.1,1581.7h-30c-1.6,0-2.8-1.3-2.8-2.8v-8.5c0-1.6,1.3-2.8,2.8-2.8h30c1.6,0,2.8,1.3,2.8,2.8v8.5
		C205.9,1580.4,204.7,1581.7,203.1,1581.7z"/>
	<line class="st29" x1="191.8" y1="1574.6" x2="200.7" y2="1574.6"/>
	<circle class="st15" cx="175.7" cy="1574.6" r="1.5"/>
</g>
<path class="st67" d="M252.2,619.7l-0.6-1.1l0,0l-5.3-10.5c-0.3-0.7-1-1.1-1.8-1.1h-18c-0.7,0-1.3,0.4-1.7,1l-5.9,10.5l-0.7,1.2
	c0,0.1,0,0.2,0,0.3v10c0,1.1,0.9,2,2,2h30c1.1,0,2-0.9,2-2v-10C252.2,619.9,252.2,619.8,252.2,619.7z M221.5,618l5.1-9h18l4.5,9
	l0.5,1h-28.7L221.5,618z M250.2,630h-30v-9h30V630z"/>
<rect x="224.2" y="624" class="st67" width="16" height="3"/>
<circle class="st67" cx="244.7" cy="625.5" r="1.5"/>
<g>
	<circle class="st68" cx="235.2" cy="689.7" r="13.4"/>
	<g>
		<path class="st69" d="M234.7,682.8c0.3-0.4,0.8-0.4,1.1,0l2.7,3.7l2.4,3.5c0.3,0.4,0,1-0.5,1h-5.1h-5.1c-0.5,0-0.8-0.6-0.5-1
			l2.4-3.5L234.7,682.8z"/>
		<path class="st69" d="M239.7,695.3h-9c-0.7,0-1.3-0.6-1.3-1.3l0,0c0-0.7,0.6-1.3,1.3-1.3h9c0.7,0,1.3,0.6,1.3,1.3l0,0
			C240.9,694.7,240.4,695.3,239.7,695.3z"/>
	</g>
</g>
<g>
	<path class="st18" d="M95.9,799.4l-1.4,1.4c-1.4-0.9-3.1-1.4-4.8-1.4c-4.9,0-8.9,4-8.9,8.9c0,0.3,0,0.8,0,1.1h-2
		c0-0.4-0.1-0.7-0.1-1.1c0-6,4.9-10.9,10.9-10.9C91.8,797.5,94,798.2,95.9,799.4z"/>
	<path class="st18" d="M100.5,808.4c0,0.4,0,0.8-0.1,1.3h-2c0-0.3,0.1-0.9,0.1-1.3c0-1.7-0.5-3.3-1.3-4.7l1.5-1.5
		C99.8,804,100.5,806.2,100.5,808.4z"/>
	<circle class="st18" cx="89.6" cy="808.4" r="2"/>
	<path class="st18" d="M98.1,801.5l-1.4,1.4l-1.1,1.1l-5.2,5.1l-1.4-1.4l5.2-5.1l1.1-1.1l1.4-1.4C97.2,800.5,97.7,801,98.1,801.5z"
		/>
</g>
<g>
	<circle class="st70" cx="233.1" cy="864" r="9.4"/>
	<polyline class="st70" points="229.1,863 232.2,866.4 237.2,861.6 	"/>
</g>
<g>
	<path class="st41" d="M223.8,949.5l7.4-13.5c0.9-1.6,3.1-1.6,4,0l7.4,13.5c0.9,1.5-0.3,3.4-2,3.4h-14.9
		C224.1,952.8,223,951,223.8,949.5z"/>
	<path class="st15" d="M234,946.7h-1.7l-0.5-5.3c-0.1-0.8,0.6-1.4,1.3-1.4l0,0c0.8,0,1.3,0.7,1.3,1.4L234,946.7z"/>
	<circle class="st15" cx="233.2" cy="949" r="1.4"/>
</g>
<g>
	<circle class="st71" cx="233.1" cy="1029.4" r="9.4"/>
	<g>
		<line class="st72" x1="233.1" y1="1029.3" x2="233.1" y2="1033.7"/>
		<line class="st72" x1="233" y1="1025.5" x2="233" y2="1026.1"/>
	</g>
</g>
</svg>
