<?xml version="1.0" encoding="utf-8"?>
<!-- Generator: Adobe Illustrator 27.2.0, SVG Export Plug-In . SVG Version: 6.00 Build 0)  -->
<svg version="1.1" id="Layer_1" xmlns="http://www.w3.org/2000/svg" xmlns:xlink="http://www.w3.org/1999/xlink" x="0px" y="0px"
	 width="260.9px" height="1521.6px" viewBox="0 0 260.9 1521.6" style="enable-background:new 0 0 260.9 1521.6;"
	 xml:space="preserve">
<style type="text/css">
	.st0{fill-rule:evenodd;clip-rule:evenodd;fill:#748692;}
	.st1{fill:#748692;}
	.st2{fill-rule:evenodd;clip-rule:evenodd;fill:#555555;}
	.st3{fill-rule:evenodd;clip-rule:evenodd;fill:#0D71BA;}
	.st4{fill:#0D71BA;}
	.st5{fill:#E67B77;}
	.st6{fill:#4697CD;}
	.st7{fill-rule:evenodd;clip-rule:evenodd;fill:#CBE8F9;}
	.st8{fill:#FFFFFF;}
	.st9{fill-rule:evenodd;clip-rule:evenodd;fill:#1071B9;}
	.st10{fill-rule:evenodd;clip-rule:evenodd;fill:#9AA3B3;}
	.st11{fill-rule:evenodd;clip-rule:evenodd;fill:#FFFFFF;}
	.st12{fill:#90AECE;}
	.st13{fill-rule:evenodd;clip-rule:evenodd;fill:#90AECE;}
	.st14{fill:none;stroke:#FFFFFF;stroke-width:4;stroke-miterlimit:10;}
	.st15{fill:#5593CE;}
	.st16{fill:none;stroke:#5593CE;stroke-width:2;stroke-miterlimit:10;}
	.st17{enable-background:new    ;}
	.st18{fill:#6F7A87;}
	.st19{fill-rule:evenodd;clip-rule:evenodd;fill:#488ECC;}
	.st20{fill-rule:evenodd;clip-rule:evenodd;fill:#C85858;}
	.st21{fill-rule:evenodd;clip-rule:evenodd;fill:#6297B9;}
	.st22{fill-rule:evenodd;clip-rule:evenodd;fill:#57A9DD;}
	.st23{fill-rule:evenodd;clip-rule:evenodd;fill:#F36B35;}
	.st24{fill-rule:evenodd;clip-rule:evenodd;fill:#9DA2A7;}
	.st25{fill:#488ECC;}
	.st26{fill-rule:evenodd;clip-rule:evenodd;fill:#EE5756;}
	.st27{fill-rule:evenodd;clip-rule:evenodd;fill:#A8A7A8;}
	.st28{fill:#0989C5;}
	.st29{fill-rule:evenodd;clip-rule:evenodd;fill:#F89A3B;}
	.st30{fill-rule:evenodd;clip-rule:evenodd;fill:#789CB4;}
	.st31{opacity:0.15;fill:url(#SVGID_1_);enable-background:new    ;}
	.st32{opacity:0.15;fill:url(#SVGID_00000168106439572545064520000017931574364639062922_);enable-background:new    ;}
	.st33{fill:#DBF4FA;}
	.st34{fill:none;stroke:#50637A;stroke-width:3;stroke-miterlimit:10;}
	.st35{fill:#50637A;}
	.st36{fill:#5AABDB;}
	.st37{fill:none;stroke:#FFFFFF;stroke-miterlimit:10;}
	.st38{fill:url(#SVGID_00000083048313025060161760000010894909208030509190_);}
	.st39{fill:url(#SVGID_00000039815166434127564440000010166034792727170712_);}
	.st40{fill:#EEF8E4;}
	.st41{fill:#A0ABAE;}
	.st42{fill:none;stroke:#0D71BA;stroke-width:2;stroke-linecap:round;stroke-linejoin:round;stroke-miterlimit:10;}
	.st43{fill:none;stroke:#748692;stroke-width:2;stroke-linecap:round;stroke-linejoin:round;stroke-miterlimit:10;}
	.st44{fill:none;stroke:#0D71BA;stroke-width:2;stroke-miterlimit:10;}
	.st45{fill:none;stroke:#748692;stroke-width:2;stroke-miterlimit:10;}
	.st46{fill:none;stroke:#1172BA;stroke-width:2;stroke-miterlimit:10;}
</style>
<path class="st0" d="M11,68H5c-0.6,0-1,0.4-1,1s0.4,1,1,1h6c0.6,0,1-0.4,1-1C12,68.5,11.6,68,11,68z M4.3,59.7
	c0.4,0.4,1.1,0.4,1.5,0L7,58.5V63c0,0.6,0.4,1,1,1s1-0.4,1-1v-4.5l1.2,1.2c0.4,0.4,1.1,0.4,1.5,0s0.4-1.1,0-1.5l-3-2.9
	c-0.4-0.4-1.1-0.4-1.5,0l-3,2.9C3.9,58.6,3.9,59.3,4.3,59.7z M14,55h-2v2h1c0.6,0,1,0.4,1,1v6c0,0.6-0.4,1-1,1H3c-0.6,0-1-0.4-1-1
	v-6c0-0.6,0.4-1,1-1h1v-2H2c-1.1,0-2,0.9-2,2v8c0,1.1,0.9,2,2,2h12c1.1,0,2-0.9,2-2v-8C16,55.9,15.1,55,14,55z"/>
<path class="st0" d="M14,110h-3v2h2c0.6,0,1,0.4,1,1v8H2v-8c0-0.6,0.4-1,1-1h2v-2H2c-1.1,0-2,0.9-2,2v13c0,1.1,0.9,2,2,2h12
	c1.1,0,2-0.9,2-2v-13C16,110.9,15.1,110,14,110z M14,124c0,0.6-0.4,1-1,1H3c-0.6,0-1-0.4-1-1v-1h12V124z M4.3,115.8l3,2.9
	c0.4,0.4,1.1,0.4,1.5,0l3-2.9c0.4-0.4,0.4-1.1,0-1.5s-1.1-0.4-1.5,0L9,115.5V111c0-0.6-0.4-1-1-1s-1,0.4-1,1v4.5l-1.2-1.2
	c-0.4-0.4-1.1-0.4-1.5,0C3.9,114.7,3.9,115.4,4.3,115.8z"/>
<path class="st0" d="M7.3,176.7c0.4,0.4,1,0.4,1.4,0l7-4c0.4-0.4,0.4-1,0-1.4l-7-4c-0.4-0.4-1-0.4-1.4,0l-7,4c-0.4,0.4-0.4,1,0,1.4
	L7.3,176.7z M8,169l5,3l-5,3l-5-3L8,169z M15.2,175l-6.5,3.7c-0.4,0.4-1,0.4-1.4,0L0.8,175l-0.5,0.3c-0.4,0.4-0.4,1,0,1.4l7,4
	c0.4,0.4,1,0.4,1.4,0l7-4c0.4-0.4,0.4-1,0-1.4L15.2,175z M15.2,179l-6.5,3.7c-0.4,0.4-1,0.4-1.4,0L0.8,179l-0.5,0.3
	c-0.4,0.4-0.4,1,0,1.4l7,4c0.4,0.4,1,0.4,1.4,0l7-4c0.4-0.4,0.4-1,0-1.4L15.2,179z"/>
<path class="st0" d="M4,287.3c0,0.6,0.4,1,1,1h5c0.6,0,1-0.4,1-1s-0.4-1-1-1H5C4.4,286.3,4,286.8,4,287.3z M10.5,278.3H2
	c-1.1,0-2,0.9-2,2v13c0,1.1,0.9,2,2,2h11c1.1,0,2-0.9,2-2v-10.5L10.5,278.3z M13,292.3c0,0.6-0.4,1-1,1H3c-0.6,0-1-0.4-1-1v-11
	c0-0.6,0.4-1,1-1h6v4h4V292.3z M10,289.3H5c-0.6,0-1,0.4-1,1s0.4,1,1,1h5c0.6,0,1-0.4,1-1S10.6,289.3,10,289.3z"/>
<path class="st1" d="M14,229.1c-0.4-2.7-2.9-4.6-5.7-4.2c-2.2,0.3-3.9,2-4.2,4.2c-2.5,0.3-4.3,2.5-4.1,5c0.2,2.1,1.9,3.8,4.1,4.1
	c0.2,0,0.3,0,0.5,0h8.9c0.2,0,0.4,0,0.5,0c2.5-0.3,4.3-2.5,4.1-5C17.9,231,16.2,229.3,14,229.1L14,229.1z M14,236.2
	c-0.2,0-0.4,0.1-0.5,0.1H4.6c-0.2,0-0.4,0-0.6-0.1c-1.4-0.4-2.2-1.8-1.9-3.1c0.2-0.9,0.9-1.6,1.9-1.9c0.2,0,0.3,0,0.5-0.1H6v-1.9
	v-0.1c0.3-1.6,1.9-2.7,3.5-2.4c1.2,0.2,2.2,1.2,2.4,2.4v0.1v1.9h1.5c0.2,0,0.4,0,0.5,0.1c1.4,0.4,2.2,1.8,1.9,3.1
	c-0.2,0.9-0.9,1.6-1.9,1.9H14z"/>
<path class="st0" d="M12,347H2c-1.1,0-2-0.9-2-2v-7c0-1.1,0.9-2,2-2h10c1.1,0,2,0.9,2,2v7C14,346.1,13.1,347,12,347z M12,339
	c0-0.6-0.4-1-1-1H3c-0.6,0-1,0.4-1,1v5c0,0.6,0.4,1,1,1h8c0.6,0,1-0.4,1-1V339z M4,348h6c0.6,0,1,0.4,1,1s-0.4,1-1,1H4
	c-0.6,0-1-0.4-1-1S3.4,348,4,348z"/>
<path class="st0" d="M12,404.9H5c-1.1,0-2-0.9-2-2v-7c0-1.1,0.9-2,2-2h7c1.1,0,2,0.9,2,2v7C14,404,13.1,404.9,12,404.9z M12,396.9
	c0-0.6-0.4-1-1-1H6c-0.6,0-1,0.4-1,1v5c0,0.6,0.4,1,1,1h5c0.6,0,1-0.4,1-1V396.9z M8,392.9H3c-0.6,0-1,0.4-1,1v8c-1.1,0-2-0.9-2-2
	v-7c0-1.1,0.9-2,2-2h7c1.1,0,2,0.9,2,2H8z"/>
<path class="st0" d="M14,451.9L14,451.9v5c0,1.1-0.9,2-2,2l-10-1c-1.1,0-2-0.9-2-2v-8c0-1.1,0.9-2,2-2l10-1c1.1,0,2,0.9,2,2V451.9z
	 M11,456.9c0.6,0,1-0.4,1-1v-3H8v3.6L11,456.9z M3,455.9l3,0.4v-3.4H2v2C2,455.5,2.4,455.9,3,455.9z M3,447.9c-0.6,0-1,0.4-1,1v2h4
	v-3.4L3,447.9z M11,446.9l-3,0.4v3.6h4v-3C12,447.4,11.6,446.9,11,446.9z"/>
<path class="st0" d="M12,513H2c-1.1,0-2-0.9-2-2v-10c0-1.1,0.9-2,2-2h10c1.1,0,2,0.9,2,2v10C14,512.1,13.1,513,12,513z M12,502
	c0-0.6-0.4-1-1-1H3c-0.6,0-1,0.4-1,1v8c0,0.6,0.4,1,1,1h8c0.6,0,1-0.4,1-1V502z M9,510c-0.6,0-1-0.4-1-1v-3c0-0.6,0.4-1,1-1
	s1,0.4,1,1v3C10,509.5,9.6,510,9,510z M9,504c-0.6,0-1-0.4-1-1s0.4-1,1-1s1,0.4,1,1C10,503.5,9.6,504,9,504z M5,510
	c-0.6,0-1-0.4-1-1v-3c0-0.6,0.4-1,1-1s1,0.4,1,1v3C6,509.5,5.6,510,5,510z M5,504c-0.6,0-1-0.4-1-1s0.4-1,1-1s1,0.4,1,1
	C6,503.5,5.6,504,5,504z"/>
<path class="st0" d="M15,15H2c-1.1,0-2-0.9-2-2V2c0-1.1,0.9-2,2-2h13c1.1,0,2,0.9,2,2v11C17,14.1,16.1,15,15,15z M3,13h3V7H2v5
	C2,12.6,2.4,13,3,13z M14,2H3C2.4,2,2,2.4,2,3v2h13V3C15,2.4,14.6,2,14,2z M15,7H8v6h6c0.6,0,1-0.4,1-1V7z"/>
<polygon class="st2" points="9.9,1158.9 5.7,1163.2 1.4,1158.9 0,1160.4 4.2,1164.6 0,1168.8 1.4,1170.3 5.7,1166 9.9,1170.3 
	11.3,1168.8 7.1,1164.6 11.3,1160.4 "/>
<g>
	<path class="st3" d="M11,621H5c-0.6,0-1,0.4-1,1s0.4,1,1,1h6c0.6,0,1-0.4,1-1C12,621.5,11.6,621,11,621z M4.3,612.7
		c0.4,0.4,1.1,0.4,1.5,0l1.2-1.2v4.5c0,0.6,0.4,1,1,1s1-0.4,1-1v-4.5l1.2,1.2c0.4,0.4,1.1,0.4,1.5,0s0.4-1.1,0-1.5l-3-2.9
		c-0.4-0.4-1.1-0.4-1.5,0l-3,2.9C3.9,611.6,3.9,612.3,4.3,612.7z M14,608h-2v2h1c0.6,0,1,0.4,1,1v6c0,0.6-0.4,1-1,1H3
		c-0.6,0-1-0.4-1-1v-6c0-0.6,0.4-1,1-1h1v-2H2c-1.1,0-2,0.9-2,2v8c0,1.1,0.9,2,2,2h12c1.1,0,2-0.9,2-2v-8C16,608.9,15.1,608,14,608z
		"/>
	<path class="st3" d="M14,663h-3v2h2c0.6,0,1,0.4,1,1v8H2v-8c0-0.6,0.4-1,1-1h2v-2H2c-1.1,0-2,0.9-2,2v13c0,1.1,0.9,2,2,2h12
		c1.1,0,2-0.9,2-2v-13C16,663.9,15.1,663,14,663z M14,677c0,0.6-0.4,1-1,1H3c-0.6,0-1-0.4-1-1v-1h12V677z M4.3,668.8l3,2.9
		c0.4,0.4,1.1,0.4,1.5,0l3-2.9c0.4-0.4,0.4-1.1,0-1.5s-1.1-0.4-1.5,0L9,668.5V664c0-0.6-0.4-1-1-1s-1,0.4-1,1v4.5l-1.2-1.2
		c-0.4-0.4-1.1-0.4-1.5,0S3.9,668.4,4.3,668.8z"/>
	<path class="st3" d="M7.3,729.7c0.4,0.4,1,0.4,1.4,0l7-4c0.4-0.4,0.4-1,0-1.4l-7-4c-0.4-0.4-1-0.4-1.4,0l-7,4c-0.4,0.4-0.4,1,0,1.4
		L7.3,729.7z M8,722l5,3l-5,3l-5-3L8,722z M15.2,728l-6.5,3.7c-0.4,0.4-1,0.4-1.4,0L0.8,728l-0.5,0.3c-0.4,0.4-0.4,1,0,1.4l7,4
		c0.4,0.4,1,0.4,1.4,0l7-4c0.4-0.4,0.4-1,0-1.4L15.2,728z M15.2,732l-6.5,3.7c-0.4,0.4-1,0.4-1.4,0L0.8,732l-0.5,0.3
		c-0.4,0.4-0.4,1,0,1.4l7,4c0.4,0.4,1,0.4,1.4,0l7-4c0.4-0.4,0.4-1,0-1.4L15.2,732z"/>
	<path class="st3" d="M4,840.3c0,0.6,0.4,1,1,1h5c0.6,0,1-0.4,1-1s-0.4-1-1-1H5C4.4,839.3,4,839.8,4,840.3z M10.5,831.3H2
		c-1.1,0-2,0.9-2,2v13c0,1.1,0.9,2,2,2h11c1.1,0,2-0.9,2-2v-10.5L10.5,831.3z M13,845.3c0,0.6-0.4,1-1,1H3c-0.6,0-1-0.4-1-1v-11
		c0-0.6,0.4-1,1-1h6v4h4V845.3z M10,842.3H5c-0.6,0-1,0.4-1,1s0.4,1,1,1h5c0.6,0,1-0.4,1-1S10.6,842.3,10,842.3z"/>
	<path class="st4" d="M14,782.1c-0.4-2.7-2.9-4.6-5.7-4.2c-2.2,0.3-3.9,2-4.2,4.2c-2.5,0.3-4.3,2.5-4.1,5c0.2,2.1,1.9,3.8,4.1,4.1
		c0.2,0,0.3,0,0.5,0h8.9c0.2,0,0.4,0,0.5,0c2.5-0.3,4.3-2.5,4.1-5C17.9,784,16.2,782.3,14,782.1L14,782.1z M14,789.2
		c-0.2,0-0.4,0.1-0.5,0.1H4.6c-0.2,0-0.4,0-0.6-0.1c-1.4-0.4-2.2-1.8-1.9-3.1c0.2-0.9,0.9-1.6,1.9-1.9c0.2,0,0.3,0,0.5,0H6v-1.9
		v-0.1c0.3-1.6,1.9-2.7,3.5-2.4c1.2,0.2,2.2,1.2,2.4,2.4v0.1v1.9h1.5c0.2,0,0.4,0,0.5,0c1.4,0.4,2.2,1.8,1.9,3.1
		c-0.2,0.9-0.9,1.6-1.9,1.9H14z"/>
	<path class="st3" d="M12,900H2c-1.1,0-2-0.9-2-2v-7c0-1.1,0.9-2,2-2h10c1.1,0,2,0.9,2,2v7C14,899.1,13.1,900,12,900z M12,892
		c0-0.6-0.4-1-1-1H3c-0.6,0-1,0.4-1,1v5c0,0.6,0.4,1,1,1h8c0.6,0,1-0.4,1-1V892z M4,901h6c0.6,0,1,0.4,1,1s-0.4,1-1,1H4
		c-0.6,0-1-0.4-1-1C3,901.5,3.4,901,4,901z"/>
	<path class="st3" d="M12,957.9H5c-1.1,0-2-0.9-2-2v-7c0-1.1,0.9-2,2-2h7c1.1,0,2,0.9,2,2v7C14,957,13.1,957.9,12,957.9z M12,949.9
		c0-0.6-0.4-1-1-1H6c-0.6,0-1,0.4-1,1v5c0,0.6,0.4,1,1,1h5c0.6,0,1-0.4,1-1V949.9z M8,945.9H3c-0.6,0-1,0.4-1,1v8c-1.1,0-2-0.9-2-2
		v-7c0-1.1,0.9-2,2-2h7c1.1,0,2,0.9,2,2H8z"/>
	<path class="st3" d="M14,1004.9L14,1004.9v5c0,1.1-0.9,2-2,2l-10-1c-1.1,0-2-0.9-2-2v-8c0-1.1,0.9-2,2-2l10-1c1.1,0,2,0.9,2,2
		V1004.9z M11,1009.9c0.6,0,1-0.4,1-1v-3H8v3.6L11,1009.9z M3,1008.9l3,0.4v-3.4H2v2C2,1008.5,2.4,1008.9,3,1008.9z M3,1000.9
		c-0.6,0-1,0.4-1,1v2h4v-3.4L3,1000.9z M11,999.9l-3,0.4v3.6h4v-3C12,1000.4,11.6,999.9,11,999.9z"/>
	<path class="st3" d="M12,1066H2c-1.1,0-2-0.9-2-2v-10c0-1.1,0.9-2,2-2h10c1.1,0,2,0.9,2,2v10C14,1065.1,13.1,1066,12,1066z
		 M12,1055c0-0.6-0.4-1-1-1H3c-0.6,0-1,0.4-1,1v8c0,0.6,0.4,1,1,1h8c0.6,0,1-0.4,1-1V1055z M9,1063c-0.6,0-1-0.4-1-1v-3
		c0-0.6,0.4-1,1-1s1,0.4,1,1v3C10,1062.5,9.6,1063,9,1063z M9,1057c-0.6,0-1-0.4-1-1s0.4-1,1-1s1,0.4,1,1C10,1056.5,9.6,1057,9,1057
		z M5,1063c-0.6,0-1-0.4-1-1v-3c0-0.6,0.4-1,1-1s1,0.4,1,1v3C6,1062.5,5.6,1063,5,1063z M5,1057c-0.6,0-1-0.4-1-1s0.4-1,1-1
		s1,0.4,1,1C6,1056.5,5.6,1057,5,1057z"/>
	<path class="st3" d="M15,568H2c-1.1,0-2-0.9-2-2v-11c0-1.1,0.9-2,2-2h13c1.1,0,2,0.9,2,2v11C17,567.1,16.1,568,15,568z M3,566h3v-6
		H2v5C2,565.6,2.4,566,3,566z M14,555H3c-0.6,0-1,0.4-1,1v2h13v-2C15,555.4,14.6,555,14,555z M15,560H8v6h6c0.6,0,1-0.4,1-1V560z"/>
</g>
<g>
	<path class="st5" d="M84.9,951.3c-3.8,0-6.9,3.1-6.9,6.9s3.1,6.9,6.9,6.9s6.9-3.1,6.9-6.9S88.7,951.3,84.9,951.3z M84.9,963.2
		c-2.7,0-4.9-2.2-4.9-4.9s2.2-4.9,4.9-4.9s4.9,2.2,4.9,4.9S87.6,963.2,84.9,963.2z"/>
	<rect x="83" y="956.3" class="st5" width="4" height="4"/>
</g>
<g>
	<path class="st6" d="M93.1,790.6c-3.4,0-6.2,2.8-6.2,6.2s2.8,6.2,6.2,6.2c3.4,0,6.2-2.8,6.2-6.2C99.2,793.4,96.5,790.6,93.1,790.6z
		 M97.1,797.7h-3v3h-2v-3h-3v-2h3v-3h2v3h3V797.7z"/>
	<path class="st6" d="M85.7,796.7c0-0.1,0-0.1,0-0.2h-5.4c-0.2,0-0.4-0.2-0.4-0.4v-7c0-0.2,0.2-0.4,0.4-0.4h11.3
		c0.2,0,0.4,0.2,0.4,0.4v0.5c0.3,0,0.6-0.1,0.9-0.1c0.4,0,0.7,0,1.1,0.1v-0.5c0-1.3-1.1-2.4-2.4-2.4H91h-2h-8.7
		c-1.3,0-2.4,1.1-2.4,2.4v4.4v2v0.7c0,1.3,1.1,2.4,2.4,2.4H86C85.8,798,85.7,797.3,85.7,796.7z"/>
	<path class="st6" d="M82,799.7v2h5.7c-0.5-0.6-1-1.3-1.3-2H82z"/>
</g>
<g>
	<path class="st7" d="M83,10c0-2.8,2.2-5,5-5s5,2.2,5,5v4l0,0v1h2v-5c0-2.8-1.7-5.3-4.1-6.4C90.9,3.4,91,3.2,91,3c0-1.7-1.3-3-3-3
		s-3,1.3-3,3c0,0.2,0,0.4,0.1,0.6C82.6,4.7,81,7.2,81,10v5h2V10z M88,2c0.6,0,1,0.4,1,1s-0.4,1-1,1s-1-0.4-1-1S87.4,2,88,2z
		 M94.5,15H93v2h1.5c0.8,0,1.5,0.7,1.5,1.5S95.3,20,94.5,20H88l0,0l0,0h-6.5c-0.8,0-1.5-0.7-1.5-1.5s0.7-1.5,1.5-1.5H83v-2h-1.5
		c-1.9,0-3.5,1.6-3.5,3.5s1.6,3.5,3.5,3.5H85c0,1.7,1.3,3,3,3s3-1.3,3-3h3.5c1.9,0,3.5-1.6,3.5-3.5S96.4,15,94.5,15z M88,23
		c-0.6,0-1-0.4-1-1s0.4-1,1-1s1,0.4,1,1S88.5,23,88,23z"/>
</g>
<g>
	<path class="st8" d="M94.5,64.1c-9.1,0-16.6,7.5-16.6,16.7c0,4.3,1.6,8.3,4.3,11.2c3,3.4,7.4,5.5,12.3,5.5c4.8,0,9.2-2.1,12.2-5.4
		c2.7-3,4.4-6.9,4.4-11.3C111.1,71.6,103.7,64.1,94.5,64.1z M105.4,90.5c-0.6-0.5-1.2-0.7-1.7-1c-2.6-1-5.7-2.5-5.7-2.5s0-1,0-1.8
		c1-0.7,1.5-2.4,1.6-3.3c0.5,0,0.9-2.7,1-3.2c0-0.5-0.5-0.3-0.5-0.3s0-0.2,0.2-2.9c0.4-3.6-4.3-4.4-6.3-4.6
		c-2.6-0.1-2.5,0.8-2.6,1.1c-4,0.8-2.3,6.5-2.3,6.5c-1.3-0.3-0.2,2.2-0.2,2.3c0,0.1,0.1,0.4,0.2,0.7s0.4,0.3,0.5,0.7
		c0.3,2.7,1.6,3.3,1.6,3.3s0,0,0,1.5c-0.8,0.8-3.9,1.8-6.3,2.8c-0.5,0.2-1,0.4-1.3,0.7c-2.2-2.6-3.6-5.9-3.6-9.6
		c0-8.1,6.5-14.7,14.6-14.7c8,0,14.6,6.6,14.6,14.7C109.1,84.5,107.7,87.9,105.4,90.5z"/>
</g>
<g>
	<polygon class="st9" points="92,143.5 86,143.5 86,137.5 84,137.5 84,143.5 78,143.5 78,145.5 84,145.5 84,151.5 86,151.5 
		86,145.5 92,145.5 	"/>
</g>
<g>
	<polygon class="st10" points="89.3,192.2 88.6,191.5 83.6,196.5 78.7,191.5 78,192.2 82.9,197.2 78,202.1 78.7,202.8 83.6,197.9 
		88.6,202.8 89.3,202.1 84.3,197.2 	"/>
</g>
<g>
	<path class="st10" d="M88,242.6l-5,5l-5-5"/>
</g>
<g>
	<path class="st0" d="M78,337.1l5,5l-5,5"/>
</g>
<g>
	<path class="st10" d="M93.9,303l-1.3,1.3l-4.6-4.6c-2.8,2.1-6.8,1.5-8.8-1.3c-2.1-2.8-1.5-6.8,1.3-8.8c2.8-2.1,6.8-1.5,8.8,1.3
		c0.8,1.1,1.3,2.4,1.2,3.8c0,1.4-0.5,2.7-1.3,3.8L93.9,303z M84.2,290.1c-2.5,0-4.5,2-4.5,4.5s2,4.5,4.5,4.5s4.5-2,4.5-4.5
		C88.8,292.2,86.7,290.1,84.2,290.1L84.2,290.1z"/>
</g>
<g>
	<path class="st8" d="M92.4,396c0-0.2,0-0.4,0-0.7l1-0.8c0.5-0.4,0.6-1,0.4-1.6l-0.3-0.8c-0.2-0.5-0.7-0.9-1.3-0.9l-1.5,0.1
		l-0.4-0.4l0.1-1.4c0.1-0.6-0.3-1.2-0.8-1.4l-0.8-0.3c-0.6-0.2-1.2,0-1.6,0.4l-0.9,1c-0.2,0-0.4,0-0.6,0l-0.8-1.1
		c-0.4-0.5-1-0.6-1.6-0.4l-0.8,0.4c-0.6,0.2-0.9,0.7-0.9,1.3l0.2,1.3c-0.2,0.2-0.3,0.3-0.5,0.5l-1.3-0.1h-0.2
		c-0.6,0-1.1,0.3-1.3,0.8l-0.4,0.8c-0.2,0.6-0.1,1.2,0.4,1.6l1,0.8c0,0.2,0,0.5,0,0.7l-1,0.8c-0.5,0.4-0.6,1-0.4,1.6l0.3,0.8
		c0.2,0.5,0.7,0.9,1.3,0.9l1.4-0.1c0.2,0.2,0.3,0.4,0.5,0.5l-0.1,1.3c-0.1,0.6,0.3,1.2,0.8,1.4l0.8,0.3c0.6,0.2,1.2,0.1,1.6-0.4
		l0.8-1c0.2,0,0.5,0,0.8,0l0.8,0.9c0.3,0.3,0.6,0.5,1.1,0.5c0.2,0,0.3-0.1,0.5-0.1l0.8-0.3c0.6-0.2,0.9-0.8,0.9-1.4l-0.1-1.3
		c0.2-0.2,0.3-0.3,0.5-0.5l1.3,0.1h0.1c0.5,0,1-0.3,1.3-0.8l0.3-0.8c0.2-0.6,0.1-1.2-0.4-1.6L92.4,396z M86,398.6c-1.7,0-3-1.3-3-3
		s1.3-3,3-3s3,1.3,3,3S87.6,398.6,86,398.6z"/>
</g>
<g>
	<path class="st11" d="M78,457.8v-2h16v2H78z M89,443.8h2v11h-2V443.8z M86,449.8h2v5h-2V449.8z M83,446.8h2v8h-2V446.8z M80,451.8
		h2v3h-2V451.8z"/>
</g>
<g>
	<path class="st11" d="M90,498.1H80c-1.1,0-2,0.9-2,2v14c0,1.1,0.9,2,2,2h12c1.1,0,2-0.9,2-2v-12L90,498.1z M92,507.7H80v-7.6h8v4h4
		V507.7z M81.4,514.5h-1.2v-5.3h1.2V514.5z M85.5,513.1c0-0.2-0.1-0.4-0.2-0.5c-0.3-0.2-0.6-0.3-0.8-0.4c-0.3-0.1-0.7-0.2-1-0.4
		c-0.6-0.2-1-0.7-1-1.3c0-0.3,0.1-0.6,0.3-0.8c0.2-0.2,0.5-0.4,0.8-0.5c0.4-0.1,0.8-0.2,1.1-0.2c0.4,0,0.8,0.1,1.1,0.2
		c0.3,0.1,0.6,0.3,0.8,0.6c0.2,0.2,0.3,0.5,0.3,0.8h-1.4c0-0.2-0.1-0.4-0.2-0.6c-0.2-0.1-0.4-0.2-0.7-0.2c-0.2,0-0.5,0-0.7,0.2
		c-0.2,0.1-0.2,0.3-0.2,0.5s0.1,0.3,0.3,0.4c0.3,0.2,0.5,0.3,0.8,0.3c0.5,0.1,1,0.4,1.5,0.7c0.3,0.2,0.5,0.6,0.5,1s-0.2,0.8-0.6,1.1
		s-1,0.4-1.5,0.4c-0.4,0-0.8-0.1-1.2-0.2c-0.3-0.1-0.6-0.3-0.8-0.6c-0.2-0.3-0.3-0.6-0.3-0.9h1.2c0,0.6,0.4,0.9,1.1,0.9
		c0.2,0,0.5,0,0.7-0.2C85.4,513.4,85.4,513.2,85.5,513.1z M92.1,512c0,0.5-0.1,1-0.3,1.4c-0.2,0.4-0.5,0.7-0.9,0.9
		c-0.8,0.4-1.8,0.4-2.5,0c-0.4-0.2-0.7-0.5-0.9-0.9c-0.2-0.4-0.3-0.9-0.3-1.4v-0.3c0-0.5,0.1-1,0.3-1.4c0.2-0.4,0.5-0.7,0.9-0.9
		c0.8-0.4,1.8-0.4,2.5,0c0.4,0.2,0.7,0.5,0.9,0.9c0.2,0.4,0.3,0.9,0.3,1.4V512z M90.9,511.7c0-0.5-0.1-0.9-0.3-1.3
		c-0.4-0.5-1.1-0.6-1.7-0.2c-0.1,0-0.1,0.1-0.2,0.2c-0.2,0.4-0.4,0.8-0.3,1.3v0.3c0,0.5,0.1,0.9,0.3,1.3c0.2,0.3,0.6,0.5,0.9,0.5
		c0.4,0,0.7-0.2,0.9-0.4c0.2-0.4,0.4-0.8,0.3-1.3L90.9,511.7L90.9,511.7z"/>
</g>
<g>
	<path class="st8" d="M86.5,555.8L86.5,555.8c-4.7,0-8.5,3.8-8.5,8.5s3.8,8.5,8.5,8.5s8.5-3.8,8.5-8.5S91.2,555.8,86.5,555.8z
		 M86.5,570.9c-3.7,0-6.6-3-6.6-6.6c0-3.7,3-6.6,6.6-6.6s6.6,3,6.6,6.6C93.1,568,90.1,570.9,86.5,570.9z"/>
	<path class="st8" d="M86.2,567.6c-0.2,0-0.5,0.1-0.6,0.2c-0.2,0.2-0.2,0.4-0.2,0.6c0,0.4,0.3,0.8,0.8,0.8h0.1
		c0.2,0,0.5-0.1,0.6-0.2c0.3-0.3,0.3-0.8,0-1.2C86.7,567.6,86.4,567.5,86.2,567.6z"/>
	<path class="st8" d="M86.4,559.8c-0.7,0-1.4,0.2-2,0.7c-0.5,0.5-0.8,1.1-0.8,1.8h1.6c0-0.3,0.1-0.6,0.3-0.8s0.6-0.3,0.9-0.3
		s0.6,0.1,0.9,0.3c0.2,0.2,0.3,0.6,0.3,0.9c0,0.3-0.1,0.6-0.2,0.8c-0.2,0.3-0.5,0.6-0.8,0.8c-0.4,0.3-0.6,0.7-0.8,1.1
		c-0.2,0.4-0.2,0.9-0.2,1.3H87c0-0.5,0.1-1,0.4-1.4l0.8-0.8c0.6-0.5,0.9-1.2,1-2c0-0.7-0.2-1.3-0.7-1.8
		C87.8,560,87.1,559.8,86.4,559.8z"/>
</g>
<g>
	<path class="st11" d="M78,613.1v13h9v-1h-1v-3h1v-1h-4v-3h7v-1h-1v-3h4v4h1v-5H78z M79,618.1h3v3h-3V618.1z M85,622.1v3h-6v-3H85z
		 M83,617.1h-4v-3h4V617.1z M88,617.1h-4v-3h4V617.1z"/>
	<path class="st11" d="M93.2,624.4c-0.1,0.2-0.3,0.5-0.5,0.7c-0.1,0.2-0.3,0.3-0.5,0.5c0,0-0.4,0.3-0.9,0.4c-0.2,0-0.3,0.1-0.5,0.1
		c-0.1,0-0.2,0-0.3,0c-0.2,0-0.4-0.1-0.6-0.3c-0.1,0-0.3-0.2-0.3-0.2s-0.2-0.2-0.4-0.5c-0.5-0.6-1.2-1.7-0.8-3
		c0.1-0.3,0.3-0.7,0.5-1H89c0,0.2,0,0.6,0.1,1c0.1,0.5,0.3,1.1,0.7,1.3c0,0,0.1-0.6,0.2-1.3c0.1-0.3,0.1-0.7,0.2-1
		c0-0.1,0-0.2,0-0.2c0.1-0.8,0.4-1.6,1.2-2.8h0.1c0.1,0.3,0.5,1.2,0.9,1.8c0.2,0.2,0.4,0.7,0.7,1.2C93.5,622,93.8,623.2,93.2,624.4z
		"/>
	<path class="st11" d="M91.5,618.1L91.5,618.1C91.4,618.1,91.4,618,91.5,618.1C91.5,618,91.5,618,91.5,618.1z"/>
</g>
<g>
	<g>
		<rect x="80" y="673.1" class="st11" width="2" height="1"/>
		<rect x="80" y="677.1" class="st11" width="2" height="1"/>
		<path class="st11" d="M78,671.1v9h2c0.2-0.3,0.6-0.7,0.9-1H79v-3h8l1.3-1H79v-3h10v2.6l1-0.6v-3H78z"/>
	</g>
	<g>
		<path class="st11" d="M78.7,683.3c0,0,2,0.2,2.9-0.9c0.9-1.1,2.6-3.8,6.2-2.9c3.6,0.8,1.9,5.1,1.9,5.1s-1.2,3.2-6.1,1.9
			c0,0,2.7-1.4,2.1-3C85.6,683.5,80.1,687.4,78.7,683.3z"/>
		<path class="st11" d="M90.8,678.7c0.2,0.5,0.1,1.1-0.3,1.6l-2.3-2.1c0.4-0.5,1-0.6,1.6-0.5l3.9-4.3l1,1L90.8,678.7z"/>
	</g>
</g>
<g>
	<path class="st6" d="M88.8,740.5c0-0.1,0-0.1,0-0.2h-5.4c-0.2,0-0.4-0.2-0.4-0.4v-7c0-0.2,0.2-0.4,0.4-0.4h11.3
		c0.2,0,0.4,0.2,0.4,0.4v0.5c0.3,0,0.6-0.1,0.9-0.1c0.4,0,0.7,0,1.1,0.1v-0.5c0-1.3-1.1-2.4-2.4-2.4h-0.6v-0.7
		c0-1.3-1.1-2.4-2.4-2.4H80.4c-1.3,0-2.4,1.1-2.4,2.4v7c0,1.3,1.1,2.4,2.4,2.4H81v0.7c0,1.3,1.1,2.4,2.4,2.4H89
		C88.9,741.8,88.8,741.2,88.8,740.5z M81,732.9v4.4h-0.7c-0.2,0-0.4-0.2-0.4-0.4v-7c0-0.2,0.2-0.4,0.4-0.4h11.3
		c0.2,0,0.4,0.2,0.4,0.4v0.7h-8.7C82.1,730.5,81,731.5,81,732.9z"/>
	<path class="st6" d="M85.1,743.5v2h5.7c-0.5-0.6-1-1.3-1.3-2H85.1z"/>
	<path class="st6" d="M96.1,734.4c-3.4,0-6.2,2.8-6.2,6.2s2.8,6.2,6.2,6.2c3.4,0,6.2-2.8,6.2-6.2C102.2,737.1,99.5,734.4,96.1,734.4
		z M100.1,741.4h-3v3h-2v-3h-3v-2h3v-3h2v3h3V741.4z"/>
</g>
<g>
	<path class="st6" d="M90.9,844.9h-1H87v-1h-5v1h-3h-1v2h1v9.4c0,0.9,0.7,1.6,1.6,1.6h7.8c0.9,0,1.6-0.7,1.6-1.6v-9.4h1L90.9,844.9
		L90.9,844.9z M87.9,855.9H81v-9h6.9V855.9z"/>
	<rect x="82" y="847.9" class="st6" width="2" height="7"/>
	<rect x="84.9" y="847.9" class="st6" width="2" height="7"/>
</g>
<g>
	<path class="st6" d="M89,903.6l-1.4,1.4l-3.1-3.1v6.6c0,0.6-0.4,1-1,1l0,0c-0.6,0-1-0.4-1-1v-6.6l-3.1,3.1l-1.4-1.4l5-5h1L89,903.6
		z"/>
</g>
<g>
	<path class="st6" d="M87.6,1005.8c-3.7,0-6.8,2.8-7.4,6.3H78l2.5,3.3l0.8,1l1.2-1.5l2.2-2.8h-2.4c0.5-2.5,2.7-4.3,5.3-4.3
		c3,0,5.5,2.5,5.5,5.5c0,2.9-2.2,5.2-5,5.4c-0.2,0-0.3,0-0.5,0c-1.1,0-2.1-0.3-2.9-0.9l-1.3,1.5c1.2,0.8,2.7,1.3,4.2,1.3
		c0.1,0,0.2,0,0.3,0c4-0.1,7.2-3.4,7.2-7.4C95.1,1009.1,91.7,1005.8,87.6,1005.8z"/>
	<polygon class="st6" points="86.5,1009.5 86.5,1014.3 90.1,1014.3 90.1,1012.3 88.5,1012.3 88.5,1009.5 	"/>
</g>
<g>
	<g>
		<path class="st12" d="M84.2,1064.3c0.6,0,1-0.4,1-1v-1c0-0.6-0.4-1-1-1s-1,0.4-1,1v1C83.2,1063.8,83.6,1064.3,84.2,1064.3z"/>
		<path class="st12" d="M78.7,1067.3h21c0.3,0,0.5,0.2,0.5,0.5v-3.5c0-1.1-0.9-2-2-2h-2v2c0,0.6-0.4,1-1,1h-2c-0.6,0-1-0.4-1-1v-2
			h-6v2c0,0.6-0.4,1-1,1h-2c-0.6,0-1-0.4-1-1v-2h-2c-1.1,0-2,0.9-2,2v3.5C78.2,1067.5,78.4,1067.3,78.7,1067.3z"/>
		<path class="st12" d="M94.2,1064.3c0.6,0,1-0.4,1-1v-1c0-0.6-0.4-1-1-1s-1,0.4-1,1v1C93.2,1063.8,93.6,1064.3,94.2,1064.3z"/>
		<path class="st12" d="M90.2,1070.3h3v1h2v-1h3v1h2v-3.5c0,0.3-0.2,0.5-0.5,0.5h-21c-0.3,0-0.5-0.2-0.5-0.5v10.5c0,1.1,0.9,2,2,2
			h11v-2h-1v-3h1v-2h-1V1070.3z M83.2,1078.3h-3v-3h3V1078.3z M83.2,1073.3h-3v-3h3V1073.3z M88.2,1078.3h-3v-3h3V1078.3z
			 M88.2,1073.3h-3v-3h3V1073.3z"/>
		<path class="st12" d="M98.3,1075.8L98.3,1075.8c-1.4,0-2.6,1.1-2.6,2.5s1.1,2.6,2.5,2.6s2.6-1.1,2.6-2.5S99.7,1075.8,98.3,1075.8z
			 M99.3,1078.4c0,0.6-0.4,1-1,1s-1.1-0.4-1.1-1s0.4-1.1,1-1.1S99.2,1077.7,99.3,1078.4C99.3,1078.3,99.3,1078.3,99.3,1078.4z"/>
		<path class="st12" d="M103.2,1078.5v-0.4l0.7-0.6c0.4-0.3,0.5-0.9,0.3-1.4l-0.3-0.6c-0.2-0.5-0.6-0.7-1.1-0.8l-1.1,0.1
			c-0.1-0.1-0.2-0.2-0.2-0.2l0.1-1c0.1-0.5-0.2-1-0.7-1.2l-0.6-0.3c-0.5-0.2-1-0.1-1.4,0.3l-0.6,0.7H98l-0.6-0.8
			c-0.3-0.4-0.9-0.5-1.4-0.3l-0.6,0.3c-0.5,0.2-0.8,0.7-0.7,1.2l0.1,0.9l-0.3,0.3l-0.9-0.1h-0.1c-0.5,0-0.9,0.3-1.1,0.7l-0.3,0.6
			c-0.2,0.5-0.1,1,0.3,1.4l0.7,0.6c0,0.1,0,0.3,0,0.4l-0.7,0.6c-0.4,0.3-0.6,0.9-0.4,1.4l0.3,0.6c0.2,0.5,0.7,0.8,1.2,0.7l0.9-0.1
			c0.1,0.1,0.2,0.2,0.3,0.3l-0.1,0.9c-0.1,0.5,0.2,1,0.7,1.2l0.6,0.3c0.5,0.2,1,0.1,1.4-0.3l0.6-0.7h0.4l0.6,0.7
			c0.2,0.3,0.6,0.4,0.9,0.4c0.2,0,0.3,0,0.5-0.1l0.6-0.3c0.5-0.2,0.8-0.7,0.7-1.2l-0.1-0.9l0.3-0.3l0.9,0.1h0.1
			c0.5,0,0.9-0.3,1.1-0.7l0.3-0.6c0.2-0.5,0.1-1-0.3-1.4L103.2,1078.5z M101.7,1077.9c0,0.3,0,0.6,0,0.8v0.4l1.1,1l-0.1,0.2
			l-1.5-0.2l-0.3,0.3c-0.2,0.2-0.4,0.4-0.6,0.6l-0.3,0.3l0.1,1.5l-0.2,0.1l-0.9-1.1l-0.4,0.1c-0.3,0-0.6,0-0.9,0l-0.4-0.1l-0.9,1.1
			l-0.2-0.1l0.1-1.4l-0.3-0.3c-0.2-0.2-0.5-0.4-0.6-0.7l-0.3-0.3l-1.4,0.1l-0.1-0.2l1.1-0.9v-0.4c0-0.3,0-0.6,0-0.9l0.1-0.4l-1.1-1
			l0.1-0.2l1.5,0.2l0.3-0.3c0.2-0.2,0.4-0.4,0.6-0.6l0.3-0.3l-0.1-1.5l0.2-0.1l1,1.2l0.4-0.1c0.3,0,0.5,0,0.8,0l0.4,0.1l1-1.2
			l0.2,0.1l-0.2,1.6l0.3,0.3c0.2,0.2,0.4,0.4,0.6,0.6l0.3,0.3l1.5-0.2l0.1,0.2l-1.2,0.9L101.7,1077.9z"/>
	</g>
</g>
<g>
	<g>
		<path class="st13" d="M98.3,1137.5l-4.7-4.7c0.1-0.5,0.2-1.1,0.2-1.6c0-3.9-3.2-7.1-7.1-7.1c-0.8,0-1.5,0.1-2.3,0.4
			c-0.7,0.2-1.3,0.6-1.9,1l1.4,1.4l2.1,2.1l-1.3,1.3l-2.2-2.1l-1.4-1.4c-0.4,0.5-0.8,1.1-1.1,1.8c-0.4,0.9-0.6,1.8-0.6,2.8
			c0,3.9,3.2,7.1,7.1,7.1c0.7,0,1.4-0.1,2.1-0.3l4.5,4.5c0.4,0.4,1.1,0.7,1.7,0.7s1.2-0.2,1.7-0.7l1.6-1.6
			C99.2,1139.9,99.2,1138.4,98.3,1137.5L98.3,1137.5z M96.9,1139.4l-1.6,1.6c-0.1,0.1-0.3,0.2-0.5,0.1c0,0-0.1,0-0.1-0.1l-5.4-5.4
			c-0.7,0.4-1.4,0.6-2.2,0.7c-0.1,0-0.3,0-0.4,0c-2.8,0-5.1-2.3-5.1-5.1c0-0.4,0.1-0.8,0.2-1.2l2,2c0.6,0.6,1.6,0.6,2.2,0l1.8-1.9
			c0.6-0.6,0.6-1.6,0-2.2l0,0l-1.7-1.8c0.2,0,0.4,0,0.6,0c2.7,0,5,2.2,5.1,4.9c0,0.1,0,0.1,0,0.2c-0.1,0.7-0.2,1.5-0.4,2.2l5.5,5.5
			C97,1139.1,97,1139.3,96.9,1139.4z"/>
		<path class="st13" d="M102.1,1130.5c0-0.2,0-0.5,0-0.8l0.8-0.6c0.1-0.1,0.1-0.2,0.1-0.4l-0.2-0.4c0-0.1-0.2-0.2-0.3-0.2l-1,0.1
			c-0.1-0.2-0.3-0.4-0.5-0.5l0.1-1c0-0.1-0.1-0.3-0.2-0.3l-0.5-0.2h-0.1c-0.1,0-0.2,0-0.3,0.1l-0.6,0.8H99h-0.3l-0.6-0.8
			c-0.1-0.1-0.1-0.1-0.2-0.1h-0.1l-0.5,0.2c-0.1,0-0.2,0.2-0.2,0.3l0.1,1c-0.2,0.2-0.4,0.3-0.5,0.5l-1-0.1c-0.1,0-0.2,0.1-0.3,0.2
			l-0.2,0.5c-0.1,0.1,0,0.3,0.1,0.4l0.7,0.6c0,0.3,0,0.5,0,0.8l-0.7,0.6c-0.1,0.1-0.1,0.2-0.1,0.4l0.2,0.5c0.1,0.1,0.2,0.2,0.3,0.2
			l0.9-0.1c0.2,0.2,0.4,0.4,0.6,0.6l-0.1,0.9c0,0.1,0.1,0.3,0.2,0.3l0.5,0.2h0.1c0.1,0,0.2,0,0.3-0.1l0.6-0.7c0.1,0,0.3,0,0.4,0
			s0.3,0,0.4,0l0.6,0.7c0.1,0.1,0.2,0.1,0.3,0.1h0.1l0.5-0.2c0.1-0.1,0.2-0.2,0.2-0.3l-0.1-0.9c0.2-0.2,0.4-0.3,0.6-0.6l1,0.1
			c0.1,0,0.2-0.1,0.3-0.2l0.2-0.5c0.1-0.1,0.1-0.3,0-0.4L102.1,1130.5z M99,1131.5L99,1131.5c-0.8,0-1.4-0.6-1.4-1.3
			c0-0.7,0.6-1.3,1.3-1.3c0.7,0,1.3,0.6,1.3,1.3C100.3,1130.9,99.7,1131.5,99,1131.5z"/>
	</g>
</g>
<g>
	<line class="st14" x1="0.2" y1="1108.3" x2="27.8" y2="1108.3"/>
	<line class="st14" x1="0.2" y1="1116.8" x2="27.8" y2="1116.8"/>
	<line class="st14" x1="0.2" y1="1125.3" x2="27.8" y2="1125.3"/>
</g>
<g>
	<g>
		<path class="st15" d="M96.4,1189.2c-2.9,0-5.3,2-6,4.6h-2.3l2.3,2.9l1,1.2l1.9-1.9l1.8-2.3h-2.4c0.6-1.5,2.1-2.6,3.9-2.6
			c2.3,0,4.2,1.9,4.2,4.2c0,2.3-1.9,4.2-4.2,4.2c-0.7,0-1.4-0.2-2-0.5l-1.5,1.5c1,0.7,2.2,1.1,3.5,1.1c3.4,0,6.2-2.8,6.2-6.2
			C102.6,1192,99.8,1189.2,96.4,1189.2z"/>
		<path class="st15" d="M88.6,1198.2c0-0.6-0.4-1-1-1H82c-0.1,0-0.1-0.1-0.1-0.1v-11.5c0-0.1,0.1-0.1,0.1-0.1h15.5
			c0.1,0,0.1,0.1,0.1,0.1v1.8c0.7,0.1,1.4,0.2,2,0.5v-2.2c0-1.2-1-2.1-2.1-2.1H82c-1.2,0-2.1,1-2.1,2.1v11.5c0,1.2,1,2.1,2.1,2.1
			h5.5C88.1,1199.2,88.6,1198.8,88.6,1198.2z"/>
		<path class="st15" d="M89.9,1200.4h-4.3c-0.5,0-1,0.4-1,1l0,0c0,0.6,0.5,1,1,1h4.3c0.5,0,1-0.4,1-1l0,0
			C90.9,1200.8,90.4,1200.4,89.9,1200.4z"/>
	</g>
</g>
<path class="st16" d="M91.4,1249.4c1.8,0,3.2-1.4,3.2-3.2c0-1.8-1.4-3.2-3.2-3.2c-1.8,0-3.2,1.4-3.2,3.2
	C88.2,1247.9,89.6,1249.4,91.4,1249.4 M88.3,1236.4c-0.1,0-0.2,0-0.3,0.1l-1.1,0.4c-0.3,0.1-0.5,0.4-0.5,0.8l0.2,2.4
	c-0.5,0.4-0.9,0.8-1.3,1.3l-2.3-0.3h-0.1c-0.3,0-0.6,0.2-0.7,0.5l-0.5,1.1c-0.1,0.3,0,0.7,0.2,0.9l1.8,1.5c-0.1,0.6-0.1,1.3,0,1.9
	l-1.8,1.4c-0.3,0.2-0.4,0.6-0.2,0.9l0.4,1.1c0.1,0.3,0.4,0.5,0.7,0.5c0,0,0,0,0.1,0l2.3-0.2c0.4,0.5,0.8,1,1.4,1.4l-0.2,2.2
	c0,0.3,0.2,0.7,0.5,0.8l1.1,0.5c0.1,0,0.2,0.1,0.3,0.1c0.2,0,0.4-0.1,0.6-0.3l1.5-1.7c0.3,0,0.7,0.1,1,0.1s0.6,0,0.9-0.1l1.4,1.8
	c0.2,0.2,0.4,0.3,0.6,0.3c0.1,0,0.2,0,0.3-0.1l1.1-0.4c0.3-0.1,0.5-0.4,0.5-0.8l-0.2-2.3c0.5-0.4,1-0.8,1.3-1.3l2.3,0.2h0.1
	c0.3,0,0.6-0.2,0.7-0.5l0.5-1.1c0.1-0.3,0-0.7-0.2-0.9l-1.8-1.5c0.1-0.6,0.1-1.2,0-1.8l1.9-1.5c0.3-0.2,0.4-0.6,0.2-0.9l-0.4-1.1
	c-0.1-0.3-0.4-0.5-0.7-0.5c0,0,0,0-0.1,0l-2.4,0.2c-0.4-0.5-0.8-0.9-1.2-1.3l0.3-2.4c0-0.3-0.2-0.7-0.5-0.8l-1.1-0.5
	c-0.1,0-0.2-0.1-0.3-0.1c-0.2,0-0.4,0.1-0.6,0.3l-1.6,1.8c-0.3,0-0.7-0.1-1-0.1s-0.5,0-0.8,0l-1.5-1.9
	C88.8,1236.5,88.6,1236.4,88.3,1236.4L88.3,1236.4z"/>
<g class="st17">
	<path class="st18" d="M91.3,1287.1c-6.1,0-11,4.9-11,11c0,3.6,1.8,6.9,4.5,8.9c0.9,0.7,1.9,1.2,3,1.5c1.1,0.4,2.3,0.6,3.5,0.6
		s2.4-0.2,3.5-0.6s2.1-0.9,3-1.5c2.7-2,4.5-5.3,4.5-8.9C102.3,1292,97.4,1287.1,91.3,1287.1z M96,1305.8c-1.4,0.8-3,1.3-4.7,1.3
		s-3.3-0.5-4.7-1.3c0-0.1,0-0.2,0-0.3c0-2.6,2.1-4.7,4.7-4.7s4.7,2.1,4.7,4.7C96,1305.6,96,1305.7,96,1305.8z M91.3,1298.3
		c-1.3,0-2.3-1-2.3-2.3s1-2.3,2.3-2.3s2.3,1,2.3,2.3C93.6,1297.3,92.6,1298.3,91.3,1298.3z M97.9,1304.3c-0.4-2.2-1.9-4-3.9-4.9
		c1-0.8,1.6-2,1.6-3.3c0-2.4-1.9-4.3-4.3-4.3s-4.3,1.9-4.3,4.3c0,1.4,0.6,2.6,1.6,3.3c-2,0.9-3.5,2.7-3.9,4.9
		c-1.5-1.6-2.5-3.8-2.5-6.2c0-5,4-9,9-9s9,4,9,9C100.3,1300.5,99.4,1302.7,97.9,1304.3z"/>
</g>
<g>
	<polygon class="st18" points="90.2,1345.1 90.2,1351.9 97.2,1351.9 97.2,1349.9 92.2,1349.9 92.2,1345.1 	"/>
	<path class="st18" d="M91.2,1339.9c-3.2,0-6,1.4-8,3.5v-2.3h-2v5.8h5.9v-2h-2.6c1.6-1.9,4-3,6.7-3c5,0,9,4,9,9
		c0,2.9-1.4,5.6-3.7,7.3c-0.7,0.5-1.6,1-2.4,1.3c-1.8,0.6-3.9,0.6-5.7,0c-0.9-0.3-1.7-0.7-2.4-1.3c-2.3-1.7-3.7-4.4-3.7-7.3h-2
		c0,3.5,1.7,6.8,4.5,8.9c0.9,0.7,1.9,1.2,3,1.5c1.1,0.4,2.3,0.6,3.5,0.6s2.4-0.2,3.5-0.6s2.1-0.9,3-1.5c2.8-2.1,4.5-5.4,4.5-8.9
		C102.2,1344.9,97.3,1339.9,91.2,1339.9z"/>
</g>
<g class="st17">
	<path class="st18" d="M99.5,1401.2L99.5,1401.2l-4.2-4c-0.4-0.2-1-0.2-1.5,0.2c-0.4,0.4-0.4,1,0,1.4l2.4,2.2h-9.6v2h9.6l-2.3,2.2
		c-0.4,0.4-0.4,1,0,1.4s1,0.4,1.4,0l4.1-3.9c0,0,0,0,0.1-0.1c0.2-0.2,0.3-0.4,0.3-0.7S99.7,1401.4,99.5,1401.2z"/>
	<path class="st18" d="M96.8,1409.9H84.7v-16h12.1v2h2v-2c0-1.1-0.9-2-2-2H84.7c-1.1,0-2,0.9-2,2v16c0,1.1,0.9,2,2,2h12.1
		c1.1,0,2-0.9,2-2v-2h-2C96.8,1407.9,96.8,1409.9,96.8,1409.9z"/>
</g>
<path class="st19" d="M173,10h-6.5l1.2,1.2c0.4,0.4,0.4,1.1,0,1.5s-1.1,0.4-1.5,0l-2.9-3c-0.4-0.4-0.4-1.1,0-1.5l2.9-3
	c0.4-0.4,1.1-0.4,1.5,0s0.4,1.1,0,1.5L166.5,8h6.5c0.6,0,1,0.4,1,1S173.6,10,173,10z M169,3h-8v12h8c0.6,0,1,0.4,1,1s-0.4,1-1,1h-9
	c-0.6,0-1-0.4-1-1V2c0-0.6,0.4-1,1-1h9c0.6,0,1,0.4,1,1S169.6,3,169,3z"/>
<g>
	<path class="st20" d="M168,57c5,0,9,4,9,9s-4,9-9,9s-9-4-9-9S163,57,168,57z"/>
	<path class="st11" d="M168,72.5c-3.3,0-6-2.7-6-6c0-2.6,1.7-4.8,4-5.6v2.2c-1.2,0.7-2,2-2,3.4c0,2.2,1.8,4,4,4s4-1.8,4-4
		c0-1.5-0.8-2.8-2-3.4v-2.2c2.3,0.8,4,3,4,5.6C174,69.8,171.3,72.5,168,72.5z M168,66.5c-0.6,0-1-0.4-1-1v-5c0-0.6,0.4-1,1-1
		s1,0.4,1,1v5C169,66.1,168.6,66.5,168,66.5z"/>
</g>
<g>
	<path class="st21" d="M171.2,122.1c-0.1,0.3-0.3,1.7-1.2,2.4c0,1.1,0,1.2,0,1.2s0.1,0.1,0.3,0.2l-0.2,0.2c-1.2,1.2-1.2,2.1,0,3.2
		s2.1,1.2,3.2,0l1.4-1.4c0.5,0.3,1,0.8,1.2,1.4c0.3,1.2,0.2,2.9,0.2,2.9h-17c0,0,0-1.6,0.2-2.4c0.2-0.7,0.4-1.6,1.7-2.2
		c1.2-0.5,3.2-1.3,3.2-1.3l1.3-0.8l0.1-0.9c0,0-0.8-0.4-1-1.4s-0.2-1-0.2-1s-0.4-0.1-0.3-0.7c-0.2-0.7-0.6-1.6,0-1.5
		c0,0-1.1-4,1.6-4.3c0-0.3,0.2-0.8,1.5-0.7c1.3,0.1,4.3,0.6,4.4,2.9c-0.1,1.2-0.2,2-0.2,2s0.6-0.3,0.4,0.5
		C171.6,121.1,171.5,122.1,171.2,122.1z"/>
	<path class="st21" d="M178.4,120.8c0.4,0.4,0.4,1,0,1.4l-6.1,6.1c-0.4,0.4-1,0.4-1.4,0c-0.4-0.4-0.4-1,0-1.4l6.1-6.1
		C177.4,120.4,178,120.4,178.4,120.8z"/>
</g>
<path class="st22" d="M176,185.9h-16c-0.6,0-1-0.4-1-1v-12c0-0.6,0.4-1,1-1h16c0.6,0,1,0.4,1,1v12C177,185.5,176.6,185.9,176,185.9z
	 M175,173.9h-14v10h14V173.9z M164,186.9h8c0.6,0,1,0.4,1,1s-0.4,1-1,1h-8c-0.6,0-1-0.4-1-1C163,187.3,163.4,186.9,164,186.9z"/>
<g>
	<path class="st23" d="M176,243.2h-16c-0.6,0-1-0.4-1-1v-12c0-0.6,0.4-1,1-1h16c0.6,0,1,0.4,1,1v12C177,242.8,176.6,243.2,176,243.2
		z M175,231.2h-14v10h14V231.2z M165.2,233.4c0.3-0.3,0.8-0.3,1.1,0l1.7,1.7l1.7-1.7c0.3-0.3,0.8-0.3,1.1,0s0.3,0.8,0,1.1l-1.7,1.7
		l1.7,1.7c0.3,0.3,0.3,0.8,0,1.1s-0.8,0.3-1.1,0l-1.7-1.7l-1.7,1.7c-0.3,0.3-0.8,0.3-1.1,0s-0.3-0.8,0-1.1l1.7-1.7l-1.7-1.7
		C164.9,234.2,164.9,233.7,165.2,233.4z M164,244.2h8c0.6,0,1,0.4,1,1s-0.4,1-1,1h-8c-0.6,0-1-0.4-1-1
		C163,244.6,163.4,244.2,164,244.2z"/>
</g>
<path class="st24" d="M173,299.5h-13h-1v-1v-9v-2v-1h1v1h4v-1h5v1h4v-1h1v1v2v9v1H173z M173,289.5h-13v9h13V289.5z M164,293.5h-3v-3
	h3V293.5z M164,297.5h-3v-3h3V297.5z M168,293.5h-3v-3h3V293.5z M168,297.5h-3v-3h3V297.5z M172,293.5h-3v-3h3V293.5z M172,297.5h-3
	v-3h3V297.5z M170,285.5h2v1h-2V285.5z M161,285.5h2v1h-2V285.5z"/>
<g>
	<g>
		<path class="st25" d="M173,341.5v5.4c-1,4.2-4.5,6.6-6,7.4c-6.1-3-6-7.8-6-8v-0.1v-4.6L173,341.5 M175,339.5h-16v6.6
			c0,0-0.5,6.8,8,10.4c0,0,6.5-2.7,8-9.4C175,346.2,175,339.5,175,339.5L175,339.5z"/>
	</g>
	<path class="st25" d="M170.7,345.9l-3.7,3.8c-0.2,0.2-0.5,0.3-0.9,0.3c-0.3,0-0.6,0-0.8-0.3l-2.1-2.1c-0.4-0.4-0.4-1,0-1.4
		s1-0.4,1.4,0l1.4,1.4l3.2-3.3c0.4-0.4,1.1-0.4,1.5,0C171.1,344.8,171.1,345.4,170.7,345.9z"/>
</g>
<g>
	<g>
		<path class="st25" d="M173,399.3v5.4c-1,4.2-4.5,6.6-6,7.4c-6.1-3-6-7.8-6-8V404v-4.6L173,399.3 M175,397.3h-16v6.6
			c0,0-0.5,6.8,8,10.4c0,0,6.5-2.7,8-9.4C175,404,175,397.3,175,397.3L175,397.3z"/>
	</g>
	<path class="st26" d="M171.9,405.5c2.8,0,5,2.2,5,5s-2.2,5-5,5s-5-2.2-5-5S169.1,405.5,171.9,405.5z"/>
	<path class="st11" d="M168.9,409.5h6v2h-6V409.5z"/>
</g>
<g>
	<path class="st19" d="M176,469.2h-16c-0.6,0-1-0.4-1-1v-12c0-0.6,0.4-1,1-1h16c0.6,0,1,0.4,1,1v12C177,468.8,176.6,469.2,176,469.2
		z M175,457.2h-14v10h14V457.2z M165.6,461.5l1.4,1.4l3.2-3.3c0.4-0.4,1.1-0.4,1.5,0s0.4,1.1,0,1.5l-3.7,3.8
		c-0.2,0.2-0.5,0.3-0.9,0.3c-0.3,0-0.6,0-0.8-0.3l-2.1-2.1c-0.4-0.4-0.4-1,0-1.4C164.6,461.1,165.3,461.1,165.6,461.5z M164,470.2h8
		c0.6,0,1,0.4,1,1s-0.4,1-1,1h-8c-0.6,0-1-0.4-1-1S163.4,470.2,164,470.2z"/>
</g>
<path class="st27" d="M176,526.1h-16c-0.6,0-1-0.4-1-1v-12c0-0.6,0.4-1,1-1h16c0.6,0,1,0.4,1,1v12C177,525.7,176.6,526.1,176,526.1z
	 M175,514.1h-14v10h14V514.1z M169,520.1h-2v-5h2V520.1z M169,523.1h-2v-2h2V523.1z M164,527.1h8c0.6,0,1,0.4,1,1s-0.4,1-1,1h-8
	c-0.6,0-1-0.4-1-1S163.4,527.1,164,527.1z"/>
<g>
	<path class="st28" d="M168.2,579.1c0-0.3,0-0.7,0.1-1h-7.4l0,0v-9.5l7.4,6l6.7-5.7v5.6c0.7,0.3,1.3,0.8,1.8,1.4v-8.5
		c0-1-0.9-1.7-1.8-1.7l0,0h-14.1c-1,0-1.8,0.7-1.8,1.7l0,0V578c0,1,0.9,1.7,1.8,1.7l0,0h7.4C168.2,579.5,168.2,579.3,168.2,579.1z
		 M174.2,567.4l-5.9,5l-6.2-5H174.2z"/>
	<path class="st28" d="M173,573.8c-2.8,0-5.1,2.3-5.1,5.1s2.3,5.1,5.1,5.1s5.1-2.3,5.1-5.1l0,0C178,576.1,175.8,573.8,173,573.8z
		 M176.1,577.6l-3.2,3.6l0,0c-0.1,0.1-0.3,0.2-0.5,0.2s-0.4-0.1-0.5-0.2l0,0l-2-1.8l0,0c-0.1-0.1-0.2-0.3-0.2-0.5s0.1-0.4,0.2-0.5
		l0,0c0.1-0.1,0.3-0.2,0.5-0.2s0.4,0.1,0.5,0.2l0,0l1.5,1.3l2.7-3.1l0,0c0.1-0.1,0.3-0.2,0.5-0.2s0.4,0.1,0.5,0.2l0,0
		c0.1,0.1,0.2,0.3,0.2,0.5S176.2,577.5,176.1,577.6z"/>
</g>
<path class="st22" d="M176,624.8h-16c-0.6,0-1-0.4-1-1v-12c0-0.6,0.4-1,1-1h16c0.6,0,1,0.4,1,1v12C177,624.4,176.6,624.8,176,624.8z
	 M175,612.8h-14v10h14V612.8z M164,625.8h8c0.6,0,1,0.4,1,1s-0.4,1-1,1h-8c-0.6,0-1-0.4-1-1S163.4,625.8,164,625.8z"/>
<path class="st26" d="M174.7,618.9c2.8,0,5,2.2,5,5s-2.2,5-5,5s-5-2.2-5-5S171.9,618.9,174.7,618.9z"/>
<path class="st11" d="M171.7,622.9h6v2h-6V622.9z"/>
<path class="st11" d="M173.7,626.9v-6h2v6H173.7z"/>
<path class="st29" d="M159.4,692.3v-20h13v20H159.4z M164.4,691.3h3v-2h-3V691.3z M168.4,673.3h-5v1h5V673.3z M170.4,675.3h-9v13h9
	V675.3z"/>
<path class="st22" d="M170.4,754.3h-9c-1.1,0-2-0.9-2-2v-16c0-1.1,0.9-2,2-2h9c1.1,0,2,0.9,2,2v16
	C172.4,753.4,171.5,754.3,170.4,754.3z M165.9,753.3c0.8,0,1.5-0.7,1.5-1.5s-0.7-1.5-1.5-1.5s-1.5,0.7-1.5,1.5
	S165.1,753.3,165.9,753.3z M168.4,736.3h-5v1h5V736.3z M170.4,738.3h-9v11h9V738.3z"/>
<path class="st30" d="M177.4,821.3h-16c-1.1,0-2-0.9-2-2v-22c0-1.1,0.9-2,2-2h16c1.1,0,2,0.9,2,2v22
	C179.4,820.4,178.5,821.3,177.4,821.3z M177.4,798.3c0-0.6-0.4-1-1-1h-14c-0.6,0-1,0.4-1,1v1h16V798.3z M177.4,801.3h-16v12h16
	V801.3z M177.4,815.3h-16v3c0,0.6,0.4,1,1,1h14c0.6,0,1-0.4,1-1V815.3z M169.4,818.3c-0.6,0-1-0.4-1-1s0.4-1,1-1s1,0.4,1,1
	S169.9,818.3,169.4,818.3z"/>
<linearGradient id="SVGID_1_" gradientUnits="userSpaceOnUse" x1="4405.4131" y1="250.4195" x2="4426.2129" y2="250.4195" gradientTransform="matrix(6.123234e-17 -1 1 6.123234e-17 -59.9695 5336.5366)">
	<stop  offset="0" style="stop-color:#FFFFFF"/>
	<stop  offset="1" style="stop-color:#000000"/>
</linearGradient>
<polygon class="st31" points="230,910.4 210,931.1 150.9,931.1 171.8,910.3 "/>
<linearGradient id="SVGID_00000090283270663053533540000009702403628807836606_" gradientUnits="userSpaceOnUse" x1="154.1" y1="-3390.6545" x2="171.0192" y2="-3390.6545" gradientTransform="matrix(1 0 0 1 0 4290.3545)">
	<stop  offset="0" style="stop-color:#FFFFFF"/>
	<stop  offset="1" style="stop-color:#000000"/>
</linearGradient>
<polygon style="opacity:0.15;fill:url(#SVGID_00000090283270663053533540000009702403628807836606_);enable-background:new    ;" points="
	154.1,927.7 171,910.9 171,871.7 154.1,888.5 "/>
<path class="st33" d="M225.6,911h-52.3c-1.6,0-2.8-1.3-2.8-2.8V875c0-1.6,1.3-2.8,2.8-2.8h52.3c1.6,0,2.8,1.3,2.8,2.8v33.2
	C228.5,909.7,227.2,911,225.6,911z"/>
<path class="st34" d="M225.6,911h-52.3c-1.6,0-2.8-1.3-2.8-2.8V875c0-1.6,1.3-2.8,2.8-2.8h52.3c1.6,0,2.8,1.3,2.8,2.8v33.2
	C228.5,909.7,227.2,911,225.6,911z"/>
<rect x="170.5" y="905.6" class="st35" width="57.9" height="4.3"/>
<line class="st34" x1="185" y1="917.2" x2="213.9" y2="917.2"/>
<rect x="195.1" y="912.4" class="st35" width="9" height="4.4"/>
<polygon class="st36" points="189.1,896.5 208,899.5 208,879.8 189.1,882.8 "/>
<line class="st37" x1="188.6" y1="889.6" x2="208.8" y2="889.6"/>
<line class="st37" x1="197.7" y1="879.5" x2="197.7" y2="899.7"/>
<linearGradient id="SVGID_00000064336872612018218780000010006667712574774156_" gradientUnits="userSpaceOnUse" x1="4301.2876" y1="250.5195" x2="4322.0874" y2="250.5195" gradientTransform="matrix(6.123234e-17 -1 1 6.123234e-17 -59.9695 5336.5366)">
	<stop  offset="0" style="stop-color:#FFFFFF"/>
	<stop  offset="1" style="stop-color:#CBE5E8"/>
</linearGradient>
<polygon style="fill:url(#SVGID_00000064336872612018218780000010006667712574774156_);" points="237.5,1014.5 213.7,1035.2 
	143.6,1035.2 165.4,1014.4 "/>
<linearGradient id="SVGID_00000042011023888716170290000001199296847073789608_" gradientUnits="userSpaceOnUse" x1="143.563" y1="-3287.9045" x2="170.463" y2="-3287.9045" gradientTransform="matrix(1 0 0 1 0 4290.3545)">
	<stop  offset="0" style="stop-color:#FFFFFF"/>
	<stop  offset="1" style="stop-color:#CBE5E8"/>
</linearGradient>
<polygon style="fill:url(#SVGID_00000042011023888716170290000001199296847073789608_);" points="143.6,1035.1 170.5,1009.3 
	170.5,969.8 143.6,995.6 "/>
<path class="st40" d="M225.2,1009.4h-52.3c-1.6,0-2.8-1.3-2.8-2.8v-33.2c0-1.6,1.3-2.8,2.8-2.8h52.3c1.6,0,2.8,1.3,2.8,2.8v33.2
	C228,1008.1,226.8,1009.4,225.2,1009.4z"/>
<path class="st34" d="M227.5,1009.3h-56.8c-0.3,0-0.6-0.3-0.6-0.6v-37.6c0-0.3,0.3-0.6,0.6-0.6h56.8c0.3,0,0.6,0.3,0.6,0.6v37.6
	C228,1009.1,227.8,1009.3,227.5,1009.3z"/>
<g>
	<polygon class="st36" points="189.4,996.8 208.4,999.8 208.4,980.1 189.4,983.1 	"/>
	<line class="st37" x1="189" y1="990" x2="209.1" y2="990"/>
	<line class="st37" x1="198" y1="979.9" x2="198" y2="1000"/>
</g>
<polygon class="st41" points="234.5,1015.8 162.9,1015.8 159.8,1014.4 237.5,1014.4 "/>
<g>
	<g>
		<rect x="160.5" y="1010.8" class="st8" width="77" height="3.1"/>
	</g>
</g>
<g>
	<path class="st42" d="M198.6,1078.4l-8,3v6.6c0,0-0.5,6.8,8,10.4c0.3,0.3,6.5-2.7,8-9.4c0-0.9,0-7.6,0-7.6L198.6,1078.4z"/>
	<circle class="st42" cx="198.6" cy="1086.9" r="2.5"/>
	<line class="st42" x1="198.6" y1="1089.5" x2="198.6" y2="1093"/>
</g>
<g>
	<path class="st43" d="M198.6,1159.4l-8,3v6.6c0,0-0.5,6.8,8,10.4c0.3,0.3,6.5-2.7,8-9.4c0-0.9,0-7.6,0-7.6L198.6,1159.4z"/>
	<circle class="st43" cx="198.6" cy="1167.9" r="2.5"/>
	<line class="st43" x1="198.6" y1="1170.5" x2="198.6" y2="1174"/>
</g>
<g>
	<g>
		<path class="st11" d="M206.3,1244l-6.4-11.9c-0.6-0.8-2-0.8-2.5,0L191,1244c-0.3,0.5-0.4,1.1-0.1,1.6c0.3,0.5,0.8,0.9,1.4,0.9H205
			c0.6,0,1.1-0.3,1.4-0.9S206.6,1244.5,206.3,1244z M193,1244.5l5.6-10.8l5.6,10.8H193z M197.6,1241.5h2v-4h-2V1241.5z
			 M197.6,1243.5h2v-1h-2V1243.5z"/>
	</g>
</g>
<path class="st11" d="M199.6,1306.5v-2.3l-5,3.2l5,3.3v-2.2c2.8,0.5,5,2.9,5,5.9c0,3.3-2.7,6-6,6s-6-2.7-6-6c0-1,0.2-1.9,0.6-2.7
	l-1.8-0.9c-0.5,1.1-0.9,2.3-0.9,3.6c0,4.4,3.6,8,8,8s8-3.6,8-8C206.6,1310.3,203.5,1306.9,199.6,1306.5z"/>
<path class="st11" d="M201.6,1381.7v2.2c1.8,1,3,3,3,5.2c0,3.3-2.7,6-6,6s-6-2.7-6-6c0-2.2,1.2-4.2,3-5.2v-2.2c-2.9,1.2-5,4.1-5,7.4
	c0,4.4,3.6,8,8,8s8-3.6,8-8C206.6,1385.7,204.5,1382.8,201.6,1381.7z M199.6,1380.1h-2v9h2V1380.1z"/>
<g>
	<circle class="st44" cx="8" cy="1405.3" r="3.2"/>
	<path class="st44" d="M1.5,1415.6c2.2,0,10.7,0,13,0c0.3,0,0.5-0.2,0.5-0.5c-0.3-3.4-3.6-6.2-7-6.2s-6.7,2.9-7,6.2
		C1,1415.4,1.2,1415.6,1.5,1415.6z"/>
</g>
<g>
	<circle class="st45" cx="8" cy="1460.3" r="3.2"/>
	<path class="st45" d="M1.5,1470.6c2.2,0,10.7,0,13,0c0.3,0,0.5-0.2,0.5-0.5c-0.3-3.4-3.6-6.2-7-6.2s-6.7,2.9-7,6.2
		C1,1470.4,1.2,1470.6,1.5,1470.6z"/>
</g>
<polyline class="st45" points="1,1224.7 6.5,1230.2 1,1235.7 "/>
<polyline class="st46" points="1,1271.7 6.5,1277.2 1,1282.7 "/>
<polyline class="st45" points="12,1319.2 6.5,1324.7 1,1319.2 "/>
<polyline class="st46" points="12,1362.2 6.5,1367.7 1,1362.2 "/>
</svg>
