<?xml version="1.0" encoding="utf-8"?>
<!-- Generator: Adobe Illustrator 23.0.2, SVG Export Plug-In . SVG Version: 6.00 Build 0)  -->
<svg version="1.1" id="Layer_1" xmlns="http://www.w3.org/2000/svg" xmlns:xlink="http://www.w3.org/1999/xlink" x="0px" y="0px"
	 width="48px" height="678px" viewBox="0 0 48 678" style="enable-background:new 0 0 48 678;" xml:space="preserve">
<style type="text/css">
	.st0{fill:none;stroke:#8CACCC;stroke-width:2;stroke-miterlimit:10;}
	.st1{fill:none;stroke:#8CACCC;stroke-width:2;stroke-linecap:round;stroke-miterlimit:10;}
	.st2{fill:#8CACCC;}
	.st3{fill:none;stroke:#8CACCC;stroke-width:1.5;stroke-miterlimit:10;}
	.st4{fill:none;stroke:#2887C7;stroke-width:2;stroke-miterlimit:10;}
	.st5{fill:none;stroke:#2887C7;stroke-width:2;stroke-linecap:round;stroke-miterlimit:10;}
	.st6{fill:#8CACCC;stroke:#2887C7;stroke-miterlimit:10;}
	.st7{fill:none;stroke:#2887C7;stroke-width:1.5;stroke-miterlimit:10;}
	.st8{fill:none;stroke:#8691A3;stroke-width:2;stroke-miterlimit:10;}
	.st9{fill:none;stroke:#8691A3;stroke-width:2;stroke-linecap:round;stroke-miterlimit:10;}
	.st10{fill:#8CACCC;stroke:#8691A3;stroke-miterlimit:10;}
	.st11{fill:none;stroke:#FFFFFF;stroke-width:2;stroke-miterlimit:10;}
	.st12{fill:none;stroke:#FFFFFF;stroke-width:2;stroke-linecap:round;stroke-miterlimit:10;}
	.st13{fill:#8CACCC;stroke:#FFFFFF;stroke-miterlimit:10;}
</style>
<g>
	<path class="st0" d="M21,19H2c-0.6,0-1-0.4-1-1V4c0-0.6,0.4-1,1-1h19c0.6,0,1,0.4,1,1v14C22,18.5,21.6,19,21,19z"/>
	<line class="st0" x1="6" y1="22.1" x2="16.9" y2="22.1"/>
	<g>
		<line class="st1" x1="8.9" y1="9" x2="14" y2="14"/>
		<line class="st1" x1="14" y1="9" x2="8.9" y2="14"/>
	</g>
</g>
<g>
	<path class="st0" d="M17.6,69.8h2.5c0.5,0,1,0.4,1,1v13.4c0,0.5-0.4,1-1,1H2c-0.5,0-1-0.4-1-1V70.7c0-0.5,0.4-1,1-1h2.6"/>
	<line class="st0" x1="5.8" y1="88" x2="16.3" y2="88"/>
	<g>
		<path class="st0" d="M11.1,78l-3.8-5.7c-1.2-1.8-1-4.3,0.6-5.8l0,0c1.8-1.8,4.7-1.8,6.5,0l0,0c1.6,1.6,1.8,4,0.6,5.8L11.1,78z"/>
		<circle class="st2" cx="11.2" cy="69.9" r="1"/>
	</g>
</g>
<g>
	<path class="st0" d="M11.5,146H2c-0.6,0-1-0.4-1-1v-14c0-0.6,0.4-1,1-1h19c0.6,0,1,0.4,1,1v5.4"/>
	<line class="st0" x1="6" y1="149.1" x2="12.7" y2="149.1"/>
	<g>
		<path class="st3" d="M19.1,146.4c1.1,0,1.9-0.8,1.9-1.9c0-1.1-0.8-1.9-1.9-1.9c-1.1,0-1.9,0.8-1.9,1.9
			C17.2,145.5,18,146.4,19.1,146.4 M17.3,138.6c-0.1,0-0.1,0-0.2,0.1l-0.7,0.2c-0.2,0.1-0.3,0.2-0.3,0.5l0.1,1.4
			c-0.3,0.2-0.5,0.5-0.8,0.8l-1.4-0.2H14c-0.2,0-0.4,0.1-0.4,0.3l-0.3,0.7c-0.1,0.2,0,0.4,0.1,0.5l1.1,0.9c-0.1,0.4-0.1,0.8,0,1.1
			l-1.1,0.8c-0.2,0.1-0.2,0.4-0.1,0.5l0.2,0.7c0.1,0.2,0.2,0.3,0.4,0.3c0,0,0,0,0.1,0l1.4-0.1c0.2,0.3,0.5,0.6,0.8,0.8l-0.1,1.3
			c0,0.2,0.1,0.4,0.3,0.5l0.7,0.3c0.1,0,0.1,0.1,0.2,0.1c0.1,0,0.2-0.1,0.4-0.2l0.9-1c0.2,0,0.4,0.1,0.6,0.1s0.4,0,0.5-0.1l0.8,1.1
			c0.1,0.1,0.2,0.2,0.4,0.2c0.1,0,0.1,0,0.2-0.1l0.7-0.2c0.2-0.1,0.3-0.2,0.3-0.5l-0.1-1.4c0.3-0.2,0.6-0.5,0.8-0.8l1.4,0.1h0.1
			c0.2,0,0.4-0.1,0.4-0.3l0.3-0.7c0.1-0.2,0-0.4-0.1-0.5l-1.1-0.9c0.1-0.4,0.1-0.7,0-1.1l1.1-0.9c0.2-0.1,0.2-0.4,0.1-0.5l-0.2-0.7
			c-0.1-0.2-0.2-0.3-0.4-0.3c0,0,0,0-0.1,0l-1.4,0.1c-0.2-0.3-0.5-0.5-0.7-0.8l0.2-1.4c0-0.2-0.1-0.4-0.3-0.5l-0.7-0.3
			c-0.1,0-0.1-0.1-0.2-0.1c-0.1,0-0.2,0.1-0.4,0.2l-1,1.1c-0.2,0-0.4-0.1-0.6-0.1c-0.2,0-0.3,0-0.5,0l-0.9-1.1
			C17.6,138.7,17.4,138.6,17.3,138.6L17.3,138.6z"/>
	</g>
</g>
<g>
	<path class="st4" d="M21,207H2c-0.6,0-1-0.4-1-1v-14c0-0.6,0.4-1,1-1h19c0.6,0,1,0.4,1,1v14C22,206.5,21.6,207,21,207z"/>
	<line class="st4" x1="6" y1="210.1" x2="16.9" y2="210.1"/>
	<g>
		<line class="st5" x1="8.9" y1="197" x2="14" y2="202"/>
		<line class="st5" x1="14" y1="197" x2="8.9" y2="202"/>
	</g>
</g>
<g>
	<path class="st4" d="M17.6,257.8h2.5c0.5,0,1,0.4,1,1v13.4c0,0.5-0.4,1-1,1H2c-0.5,0-1-0.4-1-1v-13.4c0-0.5,0.4-1,1-1h2.6"/>
	<line class="st4" x1="5.8" y1="276" x2="16.3" y2="276"/>
	<g>
		<path class="st4" d="M11.1,266l-3.8-5.7c-1.2-1.8-1-4.3,0.6-5.8h0c1.8-1.8,4.7-1.8,6.5,0h0c1.6,1.6,1.8,4,0.6,5.8L11.1,266z"/>
		<circle class="st6" cx="11.2" cy="257.9" r="1"/>
	</g>
</g>
<g>
	<path class="st4" d="M11.5,334H2c-0.6,0-1-0.4-1-1v-14c0-0.6,0.4-1,1-1h19c0.6,0,1,0.4,1,1v5.4"/>
	<line class="st4" x1="6" y1="337.1" x2="12.7" y2="337.1"/>
	<g>
		<path class="st7" d="M19.1,334.4c1.1,0,1.9-0.8,1.9-1.9c0-1.1-0.8-1.9-1.9-1.9c-1.1,0-1.9,0.8-1.9,1.9
			C17.2,333.5,18,334.4,19.1,334.4 M17.3,326.6c-0.1,0-0.1,0-0.2,0.1l-0.7,0.2c-0.2,0.1-0.3,0.2-0.3,0.5l0.1,1.4
			c-0.3,0.2-0.5,0.5-0.8,0.8l-1.4-0.2H14c-0.2,0-0.4,0.1-0.4,0.3l-0.3,0.7c-0.1,0.2,0,0.4,0.1,0.5l1.1,0.9c-0.1,0.4-0.1,0.8,0,1.1
			l-1.1,0.8c-0.2,0.1-0.2,0.4-0.1,0.5l0.2,0.7c0.1,0.2,0.2,0.3,0.4,0.3c0,0,0,0,0.1,0l1.4-0.1c0.2,0.3,0.5,0.6,0.8,0.8l-0.1,1.3
			c0,0.2,0.1,0.4,0.3,0.5l0.7,0.3c0.1,0,0.1,0.1,0.2,0.1c0.1,0,0.2-0.1,0.4-0.2l0.9-1c0.2,0,0.4,0.1,0.6,0.1s0.4,0,0.5-0.1l0.8,1.1
			c0.1,0.1,0.2,0.2,0.4,0.2c0.1,0,0.1,0,0.2-0.1l0.7-0.2c0.2-0.1,0.3-0.2,0.3-0.5l-0.1-1.4c0.3-0.2,0.6-0.5,0.8-0.8l1.4,0.1h0.1
			c0.2,0,0.4-0.1,0.4-0.3l0.3-0.7c0.1-0.2,0-0.4-0.1-0.5l-1.1-0.9c0.1-0.4,0.1-0.7,0-1.1l1.1-0.9c0.2-0.1,0.2-0.4,0.1-0.5l-0.2-0.7
			c-0.1-0.2-0.2-0.3-0.4-0.3c0,0,0,0-0.1,0l-1.4,0.1c-0.2-0.3-0.5-0.5-0.7-0.8l0.2-1.4c0-0.2-0.1-0.4-0.3-0.5l-0.7-0.3
			c-0.1,0-0.1-0.1-0.2-0.1c-0.1,0-0.2,0.1-0.4,0.2l-1,1.1c-0.2,0-0.4-0.1-0.6-0.1c-0.2,0-0.3,0-0.5,0l-0.9-1.1
			C17.6,326.7,17.4,326.6,17.3,326.6L17.3,326.6z"/>
	</g>
</g>
<g>
	<path class="st8" d="M21,395H2c-0.6,0-1-0.4-1-1v-14c0-0.6,0.4-1,1-1h19c0.6,0,1,0.4,1,1v14C22,394.5,21.6,395,21,395z"/>
	<line class="st8" x1="6" y1="398.1" x2="16.9" y2="398.1"/>
	<g>
		<line class="st9" x1="8.9" y1="385" x2="14" y2="390"/>
		<line class="st9" x1="14" y1="385" x2="8.9" y2="390"/>
	</g>
</g>
<g>
	<path class="st8" d="M17.6,445.8h2.5c0.5,0,1,0.4,1,1v13.4c0,0.5-0.4,1-1,1H2c-0.5,0-1-0.4-1-1v-13.4c0-0.5,0.4-1,1-1h2.6"/>
	<line class="st8" x1="5.8" y1="464" x2="16.3" y2="464"/>
	<g>
		<path class="st8" d="M11.1,454l-3.8-5.7c-1.2-1.8-1-4.3,0.6-5.8h0c1.8-1.8,4.7-1.8,6.5,0h0c1.6,1.6,1.8,4,0.6,5.8L11.1,454z"/>
		<circle class="st10" cx="11.2" cy="445.9" r="1"/>
	</g>
</g>
<g>
	<path class="st11" d="M21,522H2c-0.6,0-1-0.4-1-1v-14c0-0.6,0.4-1,1-1h19c0.6,0,1,0.4,1,1v14C22,521.5,21.6,522,21,522z"/>
	<line class="st11" x1="6" y1="525.1" x2="16.9" y2="525.1"/>
	<g>
		<line class="st12" x1="8.9" y1="512" x2="14" y2="517"/>
		<line class="st12" x1="14" y1="512" x2="8.9" y2="517"/>
	</g>
</g>
<g>
	<path class="st11" d="M17.6,572.8h2.5c0.5,0,1,0.4,1,1v13.4c0,0.5-0.4,1-1,1H2c-0.5,0-1-0.4-1-1v-13.4c0-0.5,0.4-1,1-1h2.6"/>
	<line class="st11" x1="5.8" y1="591" x2="16.3" y2="591"/>
	<g>
		<path class="st11" d="M11.1,581l-3.8-5.7c-1.2-1.8-1-4.3,0.6-5.8h0c1.8-1.8,4.7-1.8,6.5,0h0c1.6,1.6,1.8,4,0.6,5.8L11.1,581z"/>
		<circle class="st13" cx="11.2" cy="572.9" r="1"/>
	</g>
</g>
</svg>
