<?xml version="1.0" encoding="utf-8"?>
<!-- Generator: Adobe Illustrator 27.9.4, SVG Export Plug-In . SVG Version: 9.03 Build 54784)  -->
<svg version="1.1" id="Layer_1" xmlns="http://www.w3.org/2000/svg" xmlns:xlink="http://www.w3.org/1999/xlink" x="0px" y="0px"
	 width="170px" height="751px" viewBox="0 0 170 751" style="enable-background:new 0 0 170 751;" xml:space="preserve">
<style type="text/css">
	.st0{fill:#6078BB;}
	.st1{fill-rule:evenodd;clip-rule:evenodd;fill:#0E72BA;}
	.st2{fill-rule:evenodd;clip-rule:evenodd;fill:#7F909B;}
	.st3{fill-rule:evenodd;clip-rule:evenodd;fill:#8892C2;}
	.st4{fill-rule:evenodd;clip-rule:evenodd;fill:#39A9E0;}
	.st5{fill-rule:evenodd;clip-rule:evenodd;fill:#449AD4;}
	.st6{fill-rule:evenodd;clip-rule:evenodd;fill:#FFFFFF;}
	.st7{fill:none;stroke:#F27072;stroke-width:2;stroke-miterlimit:10;}
	.st8{fill-rule:evenodd;clip-rule:evenodd;fill:#F27172;}
	.st9{fill-rule:evenodd;clip-rule:evenodd;fill:#F9A14B;}
	.st10{fill:#6078BA;}
	.st11{fill:#4E84C4;}
	.st12{fill:none;stroke:#FFFFFF;stroke-width:2;stroke-miterlimit:10;}
	.st13{fill:#EDB61E;}
	.st14{fill-rule:evenodd;clip-rule:evenodd;fill:#8791C0;}
	.st15{fill-rule:evenodd;clip-rule:evenodd;fill:#F8A04B;}
	.st16{fill:none;stroke:#2A7FC1;stroke-miterlimit:10;}
	.st17{fill:#2A7FC1;}
	.st18{fill:none;stroke:#2A7FC1;stroke-width:2;stroke-miterlimit:10;}
	.st19{fill:#439BD5;}
	.st20{fill:#E25E61;}
	.st21{fill:#FFFFFF;}
	.st22{fill:#95B0C1;}
	.st23{fill-rule:evenodd;clip-rule:evenodd;fill:#2A7FC1;}
	.st24{fill:#929EA6;}
	.st25{fill:none;stroke:#308CCD;stroke-width:2;stroke-miterlimit:10;}
	.st26{fill:none;stroke:#9BA6AD;stroke-width:2;stroke-miterlimit:10;}
	.st27{fill:none;stroke:#308CCD;stroke-width:2;stroke-linecap:round;stroke-miterlimit:10;}
	.st28{fill:#308CCD;}
</style>
<g>
	<polygon class="st0" points="12,131 8.3,135.4 6.8,134 8.7,132 2,132 2,130 8.5,130 6.8,128.3 8.2,126.9 	"/>
</g>
<path class="st1" d="M17,17H4c-1.1,0-2-0.9-2-2V4c0-1.1,0.9-2,2-2h13c1.1,0,2,0.9,2,2v11C19,16.1,18.1,17,17,17z M5,15h3V9H4v5
	C4,14.6,4.4,15,5,15z M16,4H5C4.4,4,4,4.4,4,5v2h13V5C17,4.4,16.6,4,16,4z M17,9h-7v6h6c0.6,0,1-0.4,1-1V9z"/>
<path class="st2" d="M17,78H4c-1.1,0-2-0.9-2-2V65c0-1.1,0.9-2,2-2h13c1.1,0,2,0.9,2,2v11C19,77.1,18.1,78,17,78z M5,76h3v-6H4v5
	C4,75.6,4.4,76,5,76z M16,65H5c-0.6,0-1,0.4-1,1v2h13v-2C17,65.4,16.6,65,16,65z M17,70h-7v6h6c0.6,0,1-0.4,1-1V70z"/>
<path class="st3" d="M2,222v-13h12v13H2z M7,220h2v-2H7V220z M7,217h2v-2H7V217z M4,220h2v-2H4V220z M4,217h2v-2H4V217z M12,211H4v3
	h8V211z M12,215h-2v2h2V215z M12,218h-2v2h2V218z"/>
<path class="st4" d="M17,179H4c-1.1,0-2-0.9-2-2v-2c0-1.1,0.9-2,2-2h13c1.1,0,2,0.9,2,2v2C19,178.1,18.1,179,17,179z M12,175H5v2h7
	V175z M16,175h-2v2h2V175z M17,172H4c-1.1,0-2-0.9-2-2v-2c0-1.1,0.9-2,2-2h13c1.1,0,2,0.9,2,2v2C19,171.1,18.1,172,17,172z M12,168
	H5v2h7V168z M16,168h-2v2h2V168z"/>
<g>
	<polygon class="st5" points="14.8,307.9 16.2,309.3 12,313.6 10.5,315 9.1,313.6 7.7,312.1 9.1,310.7 10.5,312.1 	"/>
	<path class="st5" d="M12,301.9c-5.2,0-9.5,4.2-9.5,9.5s4.2,9.5,9.5,9.5s9.5-4.2,9.5-9.5S17.2,301.9,12,301.9z M12,319
		c-4.1,0-7.4-3.4-7.4-7.6s3.3-7.6,7.4-7.6s7.4,3.4,7.4,7.6S16.1,319,12,319z"/>
	<polygon class="st5" points="16.2,309.3 12,313.6 10.5,315 9.1,313.6 7.7,312.1 9.1,310.7 10.5,312.1 14.8,307.9 	"/>
	<polygon class="st5" points="16.2,309.3 12,313.6 10.5,315 9.1,313.6 7.7,312.1 9.1,310.7 10.5,312.1 14.8,307.9 	"/>
</g>
<g>
	<path class="st6" d="M8,358v13h9v-1h-1v-3h1v-1h-4v-3h7v-1h-1v-3h4v4h1v-5H8z M9,363h3v3H9V363z M15,367v3H9v-3H15z M13,362H9v-3h4
		V362z M18,362h-4v-3h4V362z"/>
	<path class="st6" d="M18.9,366L18.9,366L18.9,366C18.9,365.9,18.9,366,18.9,366z"/>
	<path class="st6" d="M23.2,369.3c-0.1,0.2-0.3,0.5-0.5,0.7c-0.1,0.2-0.3,0.3-0.5,0.5c0,0-0.4,0.3-0.9,0.4c-0.2,0-0.3,0.1-0.5,0.1
		c-0.1,0-0.2,0-0.3,0c-0.2,0-0.4-0.1-0.6-0.3c-0.1,0-0.3-0.2-0.3-0.2s-0.2-0.2-0.4-0.5c-0.5-0.6-1.2-1.7-0.8-3
		c0.1-0.3,0.3-0.7,0.5-1H19c0,0.2,0,0.6,0.1,1c0.1,0.5,0.3,1.1,0.7,1.3c0,0,0.1-0.6,0.2-1.3c0.1-0.3,0.1-0.7,0.2-1
		c0-0.1,0-0.2,0-0.2c0.1-0.8,0.4-1.6,1.2-2.8h0.1c0.1,0.3,0.5,1.2,0.9,1.8c0.2,0.2,0.4,0.7,0.7,1.2
		C23.5,366.9,23.8,368.1,23.2,369.3z"/>
	<path class="st6" d="M21.5,363h-0.1c0,0,0-0.1,0.1-0.1C21.5,362.9,21.5,362.9,21.5,363z"/>
</g>
<g>
	<g>
		<rect x="11" y="418" class="st6" width="2" height="1"/>
		<rect x="11" y="422" class="st6" width="2" height="1"/>
		<path class="st6" d="M9,416v9h2c0.2-0.3,0.6-0.7,0.9-1H10v-3h8l1.3-1H10v-3h10v2.6l1-0.6v-3H9z"/>
	</g>
	<g>
		<path class="st6" d="M9.7,428.2c0,0,2,0.2,2.9-0.9c0.9-1.1,2.6-3.8,6.2-2.9c3.6,0.8,1.9,5.1,1.9,5.1s-1.2,3.2-6.1,1.9
			c0,0,2.7-1.4,2.1-3C16.6,428.4,11.1,432.3,9.7,428.2z"/>
		<path class="st6" d="M21.8,423.6c0.2,0.5,0.1,1.1-0.3,1.6l-2.3-2.1c0.4-0.5,1-0.6,1.6-0.5l3.9-4.3l1,1L21.8,423.6z"/>
	</g>
</g>
<g>
	<path class="st7" d="M14.2,254c-0.7-1.4-2.7-1.4-3.5,0l-7.4,13.8C2.5,269.2,3.5,271,5,271h14.9c1.5,0,2.5-1.8,1.7-3.2L14.2,254z"/>
	<rect x="11.5" y="259" class="st8" width="2" height="6"/>
	<rect x="11.5" y="266" class="st8" width="2" height="2"/>
</g>
<path class="st9" d="M6.6,471.2c0,0-1-3.7,2.3-4c-0.8-0.3-0.7-0.2,0.6,0.1c1.3-0.1,4.1-0.3,4.1,1.9c-0.1,1.1-0.2,1.9-0.2,1.9
	s0.6-0.2,0.3,1c-0.2,0.2-0.3,1.1-0.6,1.1c-0.1,0.3-0.3,1.5-1.1,2.2c0,1.1,0,1.1,0,1.1s1.1,0.5,1.5,0.7c0.3,0.1,2.2,0.8,2.3,0.9
	s1.6,0.6,1.9,1.7c1.1,1.1,0.2,2.7,0.2,2.7H2.1c0,0,0.2-1.5,0.1-2.2c0.2,0.1,0.4-1.5,1.6-2.1c1.1-0.5,3-1.2,3-1.2l1.2-0.7l0.3-0.4
	c0,0-1-0.8-1.2-1.7c-0.2-0.9-0.2-1-0.2-1s-0.4,0-0.3-0.6C6.4,471.9,6.4,471.1,6.6,471.2z"/>
<g>
	<path class="st10" d="M89.5,5.5L89.5,5.5c0,0.5-0.2,0.9-0.5,1.3l-4.3,4.3l-1.4-1.4l3.1-3.1H78v-2h8.4l-3.1-3.1L84.7,0L89,4.3
		C89.3,4.6,89.5,5.1,89.5,5.5z"/>
</g>
<g>
	<circle class="st11" cx="86.2" cy="59.2" r="8.2"/>
	<polyline class="st12" points="81.9,58.7 84.9,61.7 90.5,56.1 	"/>
</g>
<g>
	<path class="st13" d="M78.1,122.3l8.3-13.7c0.2-0.4,0.7-0.4,1,0l8.3,13.7c0.2,0.4,0,0.9-0.5,0.9H78.6
		C78.1,123.1,77.9,122.6,78.1,122.3z"/>
	<line class="st12" x1="86.8" y1="112.9" x2="86.8" y2="118.1"/>
	<line class="st12" x1="86.8" y1="119.4" x2="86.8" y2="121.3"/>
</g>
<path class="st14" d="M78.3,179.6v-16h15v16H78.3z M84.3,177.6h3v-3h-3V177.6z M84.3,173.6h3v-3h-3V173.6z M80.3,177.6h3v-3h-3
	V177.6z M80.3,173.6h3v-3h-3V173.6z M91.3,165.6h-11v4h11V165.6z M91.3,170.6h-3v3h3V170.6z M91.3,174.6h-3v3h3V174.6z"/>
<path class="st15" d="M83.8,224.6c0,0-1.2-4.5,2.8-4.9c-1-0.4-0.9-0.2,0.7,0.1c1.6-0.1,5.1-0.4,5.1,2.3c-0.1,1.4-0.2,2.3-0.2,2.3
	s0.7-0.2,0.4,1.2c-0.2,0.2-0.4,1.4-0.7,1.4c-0.1,0.4-0.4,1.8-1.4,2.7c0,1.4,0,1.4,0,1.4s1.4,0.6,1.9,0.9c0.4,0.1,2.7,1,2.8,1.1
	c0.1,0.1,2,0.7,2.4,2.1c1.4,1.4,0.2,3.3,0.2,3.3H78.3c0,0,0.2-1.8,0.1-2.7c0.2,0.1,0.5-1.8,2-2.6c1.4-0.6,3.7-1.5,3.7-1.5l1.5-0.9
	l0.4-0.5c0,0-1.2-1-1.5-2.1c-0.2-1.1-0.2-1.2-0.2-1.2s-0.5,0-0.4-0.7C83.6,225.5,83.6,224.5,83.8,224.6z"/>
<g>
	<rect x="79.5" y="279.5" class="st16" width="17.6" height="12.9"/>
	<rect x="86.8" y="295.3" class="st17" width="3" height="3"/>
	<line class="st16" x1="88.3" y1="293.8" x2="88.3" y2="296.5"/>
	<line class="st16" x1="92.9" y1="296.8" x2="90.9" y2="296.8"/>
	<line class="st16" x1="85.6" y1="296.8" x2="83.6" y2="296.8"/>
</g>
<g>
	<path class="st16" d="M96.1,344.9H80.4c-0.6,0-1.1-0.5-1.1-1.1v-4.3c0-0.6,0.5-1.1,1.1-1.1h15.7c0.6,0,1.1,0.5,1.1,1.1v4.3
		C97.2,344.4,96.7,344.9,96.1,344.9z"/>
	<path class="st16" d="M96.1,351.5H80.4c-0.6,0-1.1-0.5-1.1-1.1V346c0-0.6,0.5-1.1,1.1-1.1h15.7c0.6,0,1.1,0.5,1.1,1.1v4.3
		C97.2,351,96.7,351.5,96.1,351.5z"/>
	<path class="st16" d="M96.1,358.1H80.4c-0.6,0-1.1-0.5-1.1-1.1v-4.3c0-0.6,0.5-1.1,1.1-1.1h15.7c0.6,0,1.1,0.5,1.1,1.1v4.3
		C97.2,357.5,96.7,358.1,96.1,358.1z"/>
	<rect x="92.9" y="340.6" class="st17" width="2" height="2"/>
	<rect x="92.9" y="347.2" class="st17" width="2" height="2"/>
	<rect x="92.9" y="353.8" class="st17" width="2" height="2"/>
	<line class="st16" x1="82.3" y1="340.6" x2="82.3" y2="342.6"/>
	<line class="st16" x1="84" y1="340.6" x2="84" y2="342.6"/>
	<line class="st16" x1="82.3" y1="347.2" x2="82.3" y2="349.2"/>
	<line class="st16" x1="84" y1="347.2" x2="84" y2="349.2"/>
	<line class="st16" x1="82.3" y1="353.8" x2="82.3" y2="355.8"/>
	<line class="st16" x1="84" y1="353.8" x2="84" y2="355.8"/>
</g>
<g>
	<path class="st16" d="M95.9,417.9H80.6c-0.6,0-1.1-0.5-1.1-1.1v-17.6c0-0.6,0.5-1.1,1.1-1.1h15.3c0.6,0,1.1,0.5,1.1,1.1v17.6
		C97.1,417.4,96.5,417.9,95.9,417.9z"/>
	<line class="st18" x1="93.6" y1="400.6" x2="93.6" y2="415.4"/>
	<line class="st18" x1="90.1" y1="400.6" x2="90.1" y2="415.4"/>
	<line class="st18" x1="86.5" y1="400.6" x2="86.5" y2="415.4"/>
	<line class="st18" x1="83" y1="400.6" x2="83" y2="403.9"/>
</g>
<g>
	<circle class="st19" cx="90.1" cy="469.7" r="11.1"/>
	<polyline class="st12" points="85.8,469.5 88.8,472.5 94.4,467 	"/>
</g>
<circle class="st20" cx="89.8" cy="531.9" r="11.1"/>
<g>
	<g>
		<polygon class="st21" points="90.9,534.6 88.8,534.6 88.3,525.5 91.3,525.5 		"/>
	</g>
	<g>
		<rect x="88.7" y="536.1" class="st21" width="2.2" height="2.1"/>
	</g>
</g>
<polygon class="st22" points="2.1,540.9 2.1,533 6,536.9 "/>
<path class="st23" d="M151.6,6.9c0.3,0,0.5-0.2,0.5-0.5v-2c0-0.3-0.2-0.5-0.5-0.5s-0.5,0.2-0.5,0.5v2C151.1,6.7,151.3,6.9,151.6,6.9
	z M151.6,9.9c-0.3,0-0.5,0.2-0.5,0.5v2c0,0.3,0.2,0.5,0.5,0.5s0.5-0.2,0.5-0.5v-2C152.1,10.2,151.9,9.9,151.6,9.9z M154.6,6.9
	c0.3,0,0.5-0.2,0.5-0.5v-2c0-0.3-0.2-0.5-0.5-0.5s-0.5,0.2-0.5,0.5v2C154.1,6.7,154.3,6.9,154.6,6.9z M150.1,18.9h12v-1h-12V18.9z
	 M160.6,6.9c0.3,0,0.5-0.2,0.5-0.5v-2c0-0.3-0.2-0.5-0.5-0.5s-0.5,0.2-0.5,0.5v2C160.1,6.7,160.3,6.9,160.6,6.9z M157.6,6.9
	c0.3,0,0.5-0.2,0.5-0.5v-2c0-0.3-0.2-0.5-0.5-0.5s-0.5,0.2-0.5,0.5v2C157.1,6.7,157.3,6.9,157.6,6.9z M160.6,9.9
	c-0.3,0-0.5,0.2-0.5,0.5v2c0,0.3,0.2,0.5,0.5,0.5s0.5-0.2,0.5-0.5v-2C161.1,10.2,160.9,9.9,160.6,9.9z M154.6,9.9
	c-0.3,0-0.5,0.2-0.5,0.5v2c0,0.3,0.2,0.5,0.5,0.5s0.5-0.2,0.5-0.5v-2C155.1,10.2,154.9,9.9,154.6,9.9z M165.1-0.1h-18
	c-1.1,0-2,0.9-2,2v13c0,1.1,0.9,2,2,2h18c1.1,0,2-0.9,2-2v-13C167.1,0.8,166.2-0.1,165.1-0.1z M166.1,14.9c0,0.6-0.4,1-1,1h-18
	c-0.6,0-1-0.4-1-1v-13c0-0.6,0.4-1,1-1h18c0.6,0,1,0.4,1,1V14.9z M157.6,9.9c-0.3,0-0.5,0.2-0.5,0.5v2c0,0.3,0.2,0.5,0.5,0.5
	s0.5-0.2,0.5-0.5v-2C158.1,10.2,157.9,9.9,157.6,9.9z M163.6,7.9h-15c-0.3,0-0.5,0.2-0.5,0.5c0,0.3,0.2,0.5,0.5,0.5h15
	c0.3,0,0.5-0.2,0.5-0.5C164.1,8.2,163.9,7.9,163.6,7.9z"/>
<path class="st17" d="M155.1,58.9c-5.5,0-10,4.6-10,10.3c0,0.5,0,1.1,0.1,1.6c0.3,2,1.2,3.9,2.5,5.4l0.6,0.6l6.8,8.1l6.9-8.2
	l0.3-0.3c1.4-1.5,2.3-3.5,2.7-5.6c0.1-0.5,0.1-1,0.1-1.6C165.1,63.5,160.7,58.9,155.1,58.9z M164.1,70.6c-0.3,1.9-1.1,3.6-2.4,5
	l-6.5,7.7l-6.1-7.2l-0.6-0.6c-1.2-1.4-2-3-2.2-4.9c-0.1-0.5-0.1-0.9-0.1-1.4c0-5.1,4.1-9.3,9-9.3c5,0,9,4.2,9,9.3
	C164.2,69.7,164.1,70.2,164.1,70.6z M152.3,73.8h1v-8.2h-1V73.8z M157.1,65.6c-0.8,0-1.5,0.1-2,0.2v8.1h1v-3.3
	c0.2,0.1,0.5,0.1,0.8,0.1c1,0,1.9-0.3,2.4-0.9c0.4-0.4,0.6-1,0.6-1.7s-0.3-1.3-0.7-1.7C158.8,65.9,158.1,65.6,157.1,65.6z M157,69.8
	c-0.3,0-0.6,0-0.8-0.1v-3.2c0.2,0,0.5-0.1,1-0.1c1.1,0,1.9,0.5,1.9,1.6C159,69.2,158.2,69.8,157,69.8z"/>
<path class="st23" d="M163.1,137.1h-2v-1c0-1.1-0.9-2-2-2h-4v-2h2c0.6,0,1-0.4,1-1v-5c0-0.6-0.4-1-1-1h-5c-0.6,0-1,0.4-1,1v5
	c0,0.6,0.4,1,1,1h2v2h-4c-1.1,0-2,0.9-2,2v1h-2c-0.6,0-1,0.4-1,1v5c0,0.6,0.4,1,1,1h5c0.6,0,1-0.4,1-1v-5c0-0.6-0.4-1-1-1h-2v-1
	c0-0.6,0.4-1,1-1h9c0.6,0,1,0.4,1,1v1h-2c-0.6,0-1,0.4-1,1v5c0,0.6,0.4,1,1,1h5c0.6,0,1-0.4,1-1v-5
	C164.1,137.5,163.7,137.1,163.1,137.1z M152.1,131.1v-5h5v5H152.1z M151.1,138.1v5h-5v-5H151.1z M163.1,143.1h-5v-5h5V143.1z"/>
<path class="st23" d="M164.1,195h-15c-1.1,0-2,0.9-2,2c-1.1,0-2,0.9-2,2v11c0,1.1,0.9,2,2,2h15c1.1,0,2-0.9,2-2c1.1,0,2-0.9,2-2v-11
	C166.1,195.9,165.2,195,164.1,195z M163.1,210c0,0.6-0.4,1-1,1h-15c-0.6,0-1-0.4-1-1v-11c0-0.6,0.4-1,1-1h15c0.6,0,1,0.4,1,1V210z
	 M165.1,208c0,0.6-0.4,1-1,1v-10c0-1.1-0.9-2-2-2h-14c0-0.6,0.4-1,1-1h15c0.6,0,1,0.4,1,1V208z M150.1,214h9v-1h-9V214z"/>
<g>
	<path class="st23" d="M150.1,282.5h9v-1h-9V282.5z M163.1,278.5c0,0.6-0.4,1-1,1h-15c-0.6,0-1-0.4-1-1v-11c0-0.6,0.4-1,1-1h1v-1h-1
		c-1.1,0-2,0.9-2,2v11c0,1.1,0.9,2,2,2h15c1.1,0,2-0.9,2-2v-2h-1V278.5z M165.1,264.5h-14c-1.1,0-2,0.9-2,2v7c0,1.1,0.9,2,2,2h14
		c1.1,0,2-0.9,2-2v-7C167.1,265.4,166.2,264.5,165.1,264.5z M166.1,273.5c0,0.6-0.4,1-1,1h-14c-0.6,0-1-0.4-1-1v-7c0-0.6,0.4-1,1-1
		h14c0.6,0,1,0.4,1,1V273.5z"/>
	<g>
		<path class="st17" d="M153.7,273.6l-2.3-7h1l1.1,3.5c0.3,0.9,0.6,1.8,0.8,2.6l0,0c0.2-0.8,0.5-1.7,0.8-2.6l1.2-3.5h1l-2.5,7H153.7
			z"/>
		<path class="st17" d="M163.9,270.6c-0.1-1-0.1-2.2-0.1-3l0,0c-0.2,0.8-0.5,1.7-0.9,2.7l-1.2,3.4H161l-1.1-3.3
			c-0.3-1-0.6-1.9-0.8-2.7l0,0c0,0.9-0.1,2.1-0.1,3.1l-0.2,3h-0.9l0.5-7h1.2l1.2,3.4c0.3,0.9,0.5,1.6,0.7,2.4l0,0
			c0.2-0.7,0.4-1.5,0.7-2.4l1.3-3.4h1.2l0.4,7h-0.9L163.9,270.6z"/>
	</g>
</g>
<g>
	<path class="st23" d="M162.1,334.5h-6.3l-3-1.8l-0.3-0.2H147c-1.1,0-2,0.9-2,2v11c0,1.1,0.9,2,2,2h7v1h-1v1h-5v1h5v1h3v-1h5v-1h-5
		v-1h-1v-1h7c1.1,0,2-0.9,2-2v-9C164.1,335.4,163.2,334.5,162.1,334.5z M155.1,350.5h-1v-1h1V350.5z M163.1,345.5c0,0.6-0.5,1-1,1
		h-15c-0.5,0-1-0.4-1-1v-11c0-0.6,0.5-1,1-1h5.3l2.7,1.7l0.5,0.3h6.5c0.5,0,1,0.4,1,1V345.5z"/>
</g>
<g>
	<circle class="st24" cx="147.5" cy="384.5" r="2.5"/>
	<circle class="st24" cx="154.5" cy="384.5" r="2.5"/>
	<circle class="st24" cx="161.5" cy="384.5" r="2.5"/>
</g>
<g>
	<path class="st25" d="M152,430h-4c-1.1,0-2-0.9-2-2v-8c0-1.1,0.9-2,2-2h11c1.1,0,2,0.9,2,2v3"/>
	<path class="st26" d="M161,423"/>
	<line class="st27" x1="149" y1="433" x2="151" y2="433"/>
	<line class="st25" x1="151" y1="433" x2="152" y2="433"/>
	<path class="st27" d="M157,429.5c0-1.9,1.6-3.5,3.5-3.5s3.5,1.6,3.5,3.5s-1.6,3.5-3.5,3.5c-0.2,0-0.3,0-0.5,0"/>
	<polygon class="st28" points="154.1,429 157.1,432 160.1,429 	"/>
</g>
<g>
	<line class="st27" x1="150" y1="474" x2="155" y2="474"/>
	<line class="st27" x1="150" y1="477" x2="155" y2="477"/>
	<path class="st27" d="M157,481h-9c-1.1,0-2-0.9-2-2v-12c0-1.1,0.9-2,2-2h7c2.2,2,2.4,2.2,4,4v10C159,480.1,158.1,481,157,481z"/>
	<polyline class="st28" points="159,470 154,470 154,465 	"/>
</g>
<g>
	<path class="st16" d="M89.8,596.6h-4.9c-0.3,0-0.6-0.3-0.6-0.6v-18.3c0-0.3,0.3-0.6,0.6-0.6h10.8c0.3,0,0.6,0.3,0.6,0.6v8.7"/>
	<g>
		<path class="st16" d="M98.8,596.4l-7.3-0.9c-0.3,0-0.5-0.3-0.5-0.6v-5.6c0-0.3,0.2-0.5,0.4-0.5l7.3-0.7c0.4-0.1,0.7,0.2,0.7,0.5
			v7.2C99.5,596.2,99.2,596.4,98.8,596.4z"/>
		<line class="st16" x1="95.2" y1="588.4" x2="95.2" y2="596.1"/>
		<line class="st16" x1="91" y1="592.2" x2="99.5" y2="592.2"/>
	</g>
	<g>
		<line class="st16" x1="86.8" y1="582.8" x2="93.8" y2="582.8"/>
		<line class="st16" x1="86.8" y1="585.8" x2="93.8" y2="585.8"/>
		<line class="st16" x1="86.8" y1="579.8" x2="93.8" y2="579.8"/>
	</g>
</g>
</svg>
