<?xml version="1.0" encoding="UTF-8"?>
<svg id="Layer_1" data-name="Layer 1" xmlns="http://www.w3.org/2000/svg" width="377" height="12436" version="1.1" viewBox="0 0 377 12436">
  <defs>
    <style>
      .cls-1 {
        fill: #e3edf9;
      }

      .cls-1, .cls-2, .cls-3, .cls-4, .cls-5, .cls-6, .cls-7, .cls-8, .cls-9 {
        stroke-width: 0px;
      }

      .cls-1, .cls-3, .cls-5, .cls-6, .cls-10 {
        fill-rule: evenodd;
      }

      .cls-11 {
        stroke-width: 2.5px;
      }

      .cls-11, .cls-12, .cls-13, .cls-14, .cls-15, .cls-16, .cls-17, .cls-18, .cls-19, .cls-20, .cls-21 {
        fill: none;
      }

      .cls-11, .cls-12, .cls-13, .cls-14, .cls-17, .cls-19 {
        stroke-linecap: round;
      }

      .cls-11, .cls-12, .cls-14, .cls-17 {
        stroke-linejoin: round;
      }

      .cls-11, .cls-13, .cls-14, .cls-15, .cls-16, .cls-17, .cls-18, .cls-19, .cls-10 {
        stroke: #7cacee;
      }

      .cls-12, .cls-20 {
        stroke: #2da0ec;
        stroke-width: 4px;
      }

      .cls-13 {
        stroke-miterlimit: 10;
        stroke-width: 2px;
      }

      .cls-14, .cls-15, .cls-16, .cls-18, .cls-19, .cls-21 {
        stroke-width: 2px;
      }

      .cls-2 {
        fill: #2da0ec;
      }

      .cls-3, .cls-7 {
        fill: #7cacee;
      }

      .cls-15 {
        stroke-dasharray: 0 0 6.2 4.1;
      }

      .cls-15, .cls-16, .cls-18, .cls-19, .cls-20, .cls-21, .cls-10 {
        stroke-miterlimit: 10;
      }

      .cls-4, .cls-5, .cls-10 {
        fill: #e0ebfc;
      }

      .cls-16 {
        stroke-dasharray: 0 0 6.1 4.1;
      }

      .cls-17 {
        stroke-width: 3px;
      }

      .cls-6, .cls-8 {
        fill: #ebf0fa;
      }

      .cls-9 {
        fill: #fff;
      }

      .cls-21 {
        stroke: #ebf0fa;
      }

      .cls-10 {
        stroke-width: 1.2px;
      }
    </style>
  </defs>
  <path class="cls-5" d="M146.7,11150.7c17.2,0,31.2,14,31.2,31.2s-14,31.2-31.2,31.2-31.2-14-31.2-31.2c0-17.2,14-31.2,31.2-31.2Z"/>
  <path class="cls-4" d="M181.5,8228.5H60.5c-3.3,0-6-2.7-6-6v-12h-3v18c0,4.4,3.6,8,8,8h114c4.4,0,8-3.6,8-8ZM178.5,8247.6c1,.3,2,.6,3,.9v-7.1h-3v6.2ZM60.5,8290.5c-3.3,0-6-2.7-6-6v-12h-3v18c0,4.4,3.6,8,8,8h77.8c-1.2-2.5-2.2-5.2-2.8-8H60.5ZM59.5,8267.5h77.3c1.3-2.9,3-5.6,5-8H51.5c0,4.4,3.6,8,8,8Z"/>
  <path class="cls-5" d="M173,26.5h-98l-20,25h140l-22-25ZM57,87.5h134c4.4,0,8-3.6,8-8H58c-3.3,0-6-2.7-6-6v-17h-3v23c0,4.4,3.6,8,8,8ZM52,145.5v-17h-3v23c0,4.4,3.6,8,8,8h134c4.4,0,8-3.6,8-8H58c-3.3,0-6-2.7-6-6ZM196,109.5c0,3.3-2.7,6-6,6H49c0,4.4,3.6,8,8,8h134c4.4,0,8-3.6,8-8v-23h-3v17Z"/>
  <path class="cls-3" d="M75,110.5h11v-2h-11v2ZM61,146.5h11v-2h-11v2ZM61,110.5h11v-2h-11v2ZM109.3,34.2l14.3,14.3h0c0,0,.2,0,.3,0s.3,0,.4,0h0c0,0,14.5-14.5,14.5-14.5l-1.4-1.4-12.6,12.6V5.5h-2v39.6l-12.3-12.3-1.4,1.4ZM75,146.5h11v-2h-11v2ZM72,73.5v-2h-11v2h11ZM200,78.5v-18c0-3-1.3-5.7-3.4-7.5l-22.6-27.2v-.3h-36v2h34.8l20.2,24.3v1.3c2.9,1.2,5,4.1,5,7.4v18c0,4.4-3.6,8-8,8H58c-4.4,0-8-3.6-8-8v-18c0-2.5,1.1-4.7,2.9-6.1h0c0,0,.4-.4.4-.4,1.3-.9,2.9-1.4,4.6-1.4h122v-2H58c-.6,0-1.3,0-1.9.2l19.1-23.2h35.8v-2h-37v.3l-21.9,26.5c-2.5,1.8-4.1,4.8-4.1,8.1v18c0,4,2.3,7.4,5.7,9-3.3,1.6-5.7,5-5.7,9v18c0,4,2.3,7.4,5.7,9-3.3,1.6-5.7,5-5.7,9v18c0,5.5,4.5,10,10,10h132c5.5,0,10-4.5,10-10v-18c0-4-2.3-7.4-5.7-9,3.3-1.6,5.7-5,5.7-9v-18c0-4-2.3-7.4-5.7-9,3.4-1.6,5.7-5,5.7-9ZM198,132.5v18c0,4.4-3.6,8-8,8H58c-4.4,0-8-3.6-8-8v-18c0-4.4,3.6-8,8-8h132c4.4,0,8,3.6,8,8ZM198,96.5v18c0,4.4-3.6,8-8,8H58c-4.4,0-8-3.6-8-8v-18c0-4.4,3.6-8,8-8h132c4.4,0,8,3.6,8,8ZM86,73.5v-2h-11v2h11ZM175,73.5h11v-2h-11v2ZM187,50.5h-5v2h5v-2Z"/>
  <path class="cls-3" d="M6.8,140.3l-2.8,2.8-2.8-2.8-1.4,1.4,2.8,2.8-2.8,2.8,1.4,1.4,2.8-2.8,2.8,2.8,1.4-1.4-2.8-2.8,2.8-2.8-1.4-1.4ZM216.5,94.5c-2.5,0-4.5,2-4.5,4.5s2,4.5,4.5,4.5,4.5-2,4.5-4.5-2-4.5-4.5-4.5ZM216.5,101.5c-1.4,0-2.5-1.1-2.5-2.5s1.1-2.5,2.5-2.5,2.5,1.1,2.5,2.5-1.1,2.5-2.5,2.5ZM43.5,6.5c-2.5,0-4.5,2-4.5,4.5s2,4.5,4.5,4.5,4.5-2,4.5-4.5-2-4.5-4.5-4.5ZM43.5,13.5c-1.4,0-2.5-1.1-2.5-2.5s1.1-2.5,2.5-2.5,2.5,1.1,2.5,2.5-1.1,2.5-2.5,2.5Z"/>
  <path class="cls-6" d="M246.2,121.7l-1.4-1.4-2.8,2.8-2.8-2.8-1.4,1.4,2.8,2.8-2.8,2.8,1.4,1.4,2.8-2.8,2.8,2.8,1.4-1.4-2.8-2.8,2.8-2.8ZM32,103.5c-3.9,0-7,3.1-7,7s3.1,7,7,7,7-3.1,7-7-3.1-7-7-7ZM32,115.5c-2.8,0-5-2.2-5-5s2.2-5,5-5,5,2.2,5,5-2.2,5-5,5Z"/>
  <g>
    <g>
      <path class="cls-5" d="M213.6,574.5c-.1-12.9-10.6-23.3-23.5-23.3s-8.8,1.3-12.4,3.6c-6.3-12.8-19.4-21.6-34.6-21.6s-31.2,10.8-36.4,25.9c8.9,3.3,15.9,10.7,18.6,19.9.2,0,.3.2.5.4,3.7-3.2,8.5-5.2,13.8-5.2,11.6,0,21,9.4,21,21s0,1.4-.1,2.1c12.9,1,23.1,11.8,23.1,24.9s-.1,2.7-.3,4h26.3c14.4,0,26-11.6,26-26s-9.6-23.7-22-25.7Z"/>
      <path class="cls-3" d="M216,567.8c-.1-12.9-10.6-23.3-23.5-23.3s-8.8,1.3-12.4,3.6c-6.3-12.8-19.4-21.6-34.6-21.6s-27.3,8.1-33.8,20.1c.7,0,1.3.4,1.9.7,6.2-11.2,18.2-18.8,31.9-18.8s28.3,9.3,33.7,22.6c3.7-2.9,8.2-4.6,13.3-4.6,11.9,0,21.5,9.6,21.5,21.5s0,1.1-.1,1.6c12.4,1,22.1,11.3,22.1,23.9s-10.7,24-24,24h-20v2h20c14.4,0,26-11.6,26-26s-9.5-23.8-22-25.7ZM166,589.8c-.1-12.9-10.6-23.3-23.5-23.3s-8.8,1.3-12.4,3.6c-3.1-6.2-7.8-11.5-13.6-15.3l-11.2-5c-3.1-.8-6.4-1.3-9.8-1.3-21.3,0-38.5,17.2-38.5,38.5s0,2.3.2,3.4c-11,3-19.2,13.1-19.2,25.1s11.6,26,26,26h98c14.4,0,26-11.6,26-26s-9.5-23.8-22-25.7ZM162,639.5h-98c-13.3,0-24-10.7-24-24s8.3-21.4,19.3-23.5c-.2-1.6-.3-3.3-.3-5,0-20.2,16.3-36.5,36.5-36.5s28.3,9.3,33.7,22.6c3.7-2.9,8.2-4.6,13.3-4.6,11.9,0,21.5,9.6,21.5,21.5s0,1.1-.1,1.6c12.4,1,22.1,11.3,22.1,23.9s-10.7,24-24,24Z"/>
    </g>
    <path class="cls-3" d="M6.8,618.3l-2.8,2.8-2.8-2.8-1.4,1.4,2.8,2.8-2.8,2.8,1.4,1.4,2.8-2.8,2.8,2.8,1.4-1.4-2.8-2.8,2.8-2.8-1.4-1.4ZM83.5,500.5c-2.5,0-4.5,2-4.5,4.5s2,4.5,4.5,4.5,4.5-2,4.5-4.5-2-4.5-4.5-4.5ZM83.5,507.5c-1.4,0-2.5-1.1-2.5-2.5s1.1-2.5,2.5-2.5,2.5,1.1,2.5,2.5-1.1,2.5-2.5,2.5ZM253.5,582.5c-2.5,0-4.5,2-4.5,4.5s2,4.5,4.5,4.5,4.5-2,4.5-4.5-2-4.5-4.5-4.5ZM253.5,589.5c-1.4,0-2.5-1.1-2.5-2.5s1.1-2.5,2.5-2.5,2.5,1.1,2.5,2.5-1.1,2.5-2.5,2.5Z"/>
    <path class="cls-1" d="M262.2,622.7l-1.4-1.4-2.8,2.8-2.8-2.8-1.4,1.4,2.8,2.8-2.8,2.8,1.4,1.4,2.8-2.8,2.8,2.8,1.4-1.4-2.8-2.8,2.8-2.8ZM231.8,514.3l-2.8,2.8-2.8-2.8-1.4,1.4,2.8,2.8-2.8,2.8,1.4,1.4,2.8-2.8,2.8,2.8,1.4-1.4-2.8-2.8,2.8-2.8-1.4-1.4ZM33,571.5c-3.9,0-7,3.1-7,7s3.1,7,7,7,7-3.1,7-7-3.1-7-7-7ZM33,583.5c-2.8,0-5-2.2-5-5s2.2-5,5-5,5,2.2,5,5-2.2,5-5,5Z"/>
  </g>
  <path class="cls-5" d="M146,1577.5l-70,16v48l70,16v-80ZM30,1703.4v15.1c0,3.9,3.1,7,7,7h154c3.9,0,7-3.1,7-7v-15.1H30ZM114.5,1719.5c-1.4,0-2.5-1.1-2.5-2.5s1.1-2.5,2.5-2.5,2.5,1.1,2.5,2.5-1.1,2.5-2.5,2.5Z"/>
  <path class="cls-3" d="M146,1752.5v-2c0-1.7-1.3-3-3-3h-4.9c-7.3-3.9-12.4-11.3-13-20h64.9c5.5,0,10-4.5,10-10v-94c0-5.5-4.5-10-10-10h-34v2h34c4.4,0,8,3.6,8,8v94c0,4.4-3.6,8-8,8H38c-4.4,0-8-3.6-8-8v-94c0-4.4,3.6-8,8-8h31v-2h-31c-5.5,0-10,4.5-10,10v94c0,5.5,4.5,10,10,10h63.9c-.7,8.7-5.8,16.1-13,20h-4.9c-1.7,0-3,1.3-3,3v2c0,.4,0,.7.2,1H7v2h207v-2h-68.2c0-.3.2-.6.2-1ZM144,1752.5c0,.6-.4,1-1,1h-59c-.6,0-1-.4-1-1v-2c0-.6.4-1,1-1h6v-.3c7.8-4.3,13.2-12.3,13.9-21.7h19.2c.7,9,5.7,16.7,13,21.1,4.1,2.5,1.9.9,1.9.9h5c.6,0,1,.4,1,1v2ZM0,1755.5h5v-2H0v2ZM216,1753.5v2h10v-2h-10ZM152,1659.5v-89l-78,18v54l78,18v-1ZM106,1647.5l-30-7v-25h30v32ZM106,1613.5h-30v-23l30-6.9v29.9ZM150,1657.8l-42-9.8v-32.5h42v42.3ZM150,1613.5h-42v-30.4l42-9.7v40.1ZM110,1717c0,1.9,1.6,3.5,3.5,3.5s3.5-1.6,3.5-3.5-1.6-3.5-3.5-3.5-3.5,1.6-3.5,3.5ZM115,1717c0,.8-.7,1.5-1.5,1.5s-1.5-.7-1.5-1.5.7-1.5,1.5-1.5,1.5.7,1.5,1.5Z"/>
  <path class="cls-3" d="M6.8,1720.3l-2.8,2.8-2.8-2.8-1.4,1.4,2.8,2.8-2.8,2.8,1.4,1.4,2.8-2.8,2.8,2.8,1.4-1.4-2.8-2.8,2.8-2.8-1.4-1.4ZM203.5,1599.5c-2.5,0-4.5,2-4.5,4.5s2,4.5,4.5,4.5,4.5-2,4.5-4.5-2-4.5-4.5-4.5ZM203.5,1606.5c-1.4,0-2.5-1.1-2.5-2.5s1.1-2.5,2.5-2.5,2.5,1.1,2.5,2.5-1.1,2.5-2.5,2.5ZM48.5,1569.5c-2.5,0-4.5,2-4.5,4.5s2,4.5,4.5,4.5,4.5-2,4.5-4.5-2-4.5-4.5-4.5ZM48.5,1576.5c-1.4,0-2.5-1.1-2.5-2.5s1.1-2.5,2.5-2.5,2.5,1.1,2.5,2.5-1.1,2.5-2.5,2.5Z"/>
  <path class="cls-6" d="M11,1659.5c-3.9,0-7,3.1-7,7s3.1,7,7,7,7-3.1,7-7-3.1-7-7-7ZM11,1671.5c-2.8,0-5-2.2-5-5s2.2-5,5-5,5,2.2,5,5-2.2,5-5,5ZM230.2,1699.7l-1.4-1.4-2.8,2.8-2.8-2.8-1.4,1.4,2.8,2.8-2.8,2.8,1.4,1.4,2.8-2.8,2.8,2.8,1.4-1.4-2.8-2.8,2.8-2.8Z"/>
  <path class="cls-3" d="M29.8,3231.3l-2.8,2.8-2.8-2.8-1.4,1.4,2.8,2.8-2.8,2.8,1.4,1.4,2.8-2.8,2.8,2.8,1.4-1.4-2.8-2.8,2.8-2.8-1.4-1.4ZM73.5,3101.5c-2.5,0-4.5,2-4.5,4.5s2,4.5,4.5,4.5,4.5-2,4.5-4.5-2-4.5-4.5-4.5ZM73.5,3108.5c-1.4,0-2.5-1.1-2.5-2.5s1.1-2.5,2.5-2.5,2.5,1.1,2.5,2.5-1.1,2.5-2.5,2.5ZM219.5,3226.5c-2.5,0-4.5,2-4.5,4.5s2,4.5,4.5,4.5,4.5-2,4.5-4.5-2-4.5-4.5-4.5ZM219.5,3233.5c-1.4,0-2.5-1.1-2.5-2.5s1.1-2.5,2.5-2.5,2.5,1.1,2.5,2.5-1.1,2.5-2.5,2.5Z"/>
  <path class="cls-1" d="M7,3144.5c-3.9,0-7,3.1-7,7s3.1,7,7,7,7-3.1,7-7-3.1-7-7-7ZM7,3156.5c-2.8,0-5-2.2-5-5s2.2-5,5-5,5,2.2,5,5-2.2,5-5,5ZM242.2,3251.7l-1.4-1.4-2.8,2.8-2.8-2.8-1.4,1.4,2.8,2.8-2.8,2.8,1.4,1.4,2.8-2.8,2.8,2.8,1.4-1.4-2.8-2.8,2.8-2.8ZM163.8,3086.3l-2.8,2.8-2.8-2.8-1.4,1.4,2.8,2.8-2.8,2.8,1.4,1.4,2.8-2.8,2.8,2.8,1.4-1.4-2.8-2.8,2.8-2.8-1.4-1.4Z"/>
  <path class="cls-5" d="M92,4343.5l-8.5-8.5-8.5,8.5,4.5,4.5c-2.3,5.6-4.5,15.5-4.5,15.5l8.5,8.5,8.5-8.5s-2.5-9.9-4.8-15.2l4.8-4.8Z"/>
  <path class="cls-3" d="M28,4362.5v-8c0-15.5,12.5-28,28-28h7.1c-.7-.7-1.4-1.5-2-2.3-10.8-1.6-19.1-11-19.1-22.2s10.1-22.5,22.5-22.5,5.9.6,8.5,1.7c.9-.3,1.9-.6,2.8-.9-3.4-1.8-7.3-2.8-11.4-2.8-13.5,0-24.5,11-24.5,24.5s6.1,18.8,14.9,22.5c-16,.6-28.9,13.8-28.9,30v8c0,5.5,4.5,10,10,10h7v-2h-7c-4.3,0-7.9-3.6-7.9-8ZM114.1,4324.5c8.7-3.7,14.9-12.4,14.9-22.5s-11-24.5-24.5-24.5-9.1,1.3-12.8,3.6c.8.3,1.6.6,2.4,1,3.1-1.6,6.7-2.6,10.4-2.6,12.4,0,22.5,10.1,22.5,22.5s-10.1,22.5-22.5,22.5h-.8c-.6.7-1.2,1.4-1.8,2h11.1c15.5,0,28,12.5,28,28v8c0,4.4-3.6,8-8,8h-9v2h9c5.5,0,10-4.5,10-10v-8c0-16.2-12.8-29.4-28.9-30ZM82.5,4333.5l-9.5,9.5,4,4-4,17,9.5,9.5,9.5-9.5-4-17,4-4-9.5-9.5ZM86,4346.5l4,17-7.5,7-7.5-7,4-17,.2-.3-3.2-3.2,6.5-6.5,6.5,6.5-3.2,3.2.2.3ZM93.1,4329.5c8.7-3.7,14.9-12.4,14.9-22.5s-11-24.5-24.5-24.5-24.5,11-24.5,24.5,6.1,18.8,14.9,22.5c-16,.6-28.9,13.8-28.9,30v8c0,5.5,4.5,10,10,10h57c5.5,0,10-4.5,10-10v-8c0-16.2-12.8-29.4-28.9-30ZM61,4307c0-12.4,10.1-22.5,22.5-22.5s22.5,10.1,22.5,22.5-10.1,22.5-22.5,22.5-22.5-10.1-22.5-22.5ZM120,4367.5c0,4.4-3.6,8-8,8h-57c-4.4,0-8-3.6-8-8v-8c0-15.5,12.5-28,28-28h17c15.5,0,28,12.5,28,28v8Z"/>
  <path class="cls-3" d="M23.8,4394.3l-2.8,2.8-2.8-2.8-1.4,1.4,2.8,2.8-2.8,2.8,1.4,1.4,2.8-2.8,2.8,2.8,1.4-1.4-2.8-2.8,2.8-2.8-1.4-1.4ZM76.5,4250.5c-2.5,0-4.5,2-4.5,4.5s2,4.5,4.5,4.5,4.5-2,4.5-4.5-2-4.5-4.5-4.5ZM76.5,4257.5c-1.4,0-2.5-1.1-2.5-2.5s1.1-2.5,2.5-2.5,2.5,1.1,2.5,2.5-1.1,2.5-2.5,2.5ZM159.5,4338.5c-2.5,0-4.5,2-4.5,4.5s2,4.5,4.5,4.5,4.5-2,4.5-4.5-2-4.5-4.5-4.5ZM159.5,4345.5c-1.4,0-2.5-1.1-2.5-2.5s1.1-2.5,2.5-2.5,2.5,1.1,2.5,2.5-1.1,2.5-2.5,2.5Z"/>
  <path class="cls-1" d="M151.2,4252.7l-1.4-1.4-2.8,2.8-2.8-2.8-1.4,1.4,2.8,2.8-2.8,2.8,1.4,1.4,2.8-2.8,2.8,2.8,1.4-1.4-2.8-2.8,2.8-2.8ZM7,4303.5c-3.9,0-7,3.1-7,7s3.1,7,7,7,7-3.1,7-7-3.1-7-7-7ZM7,4315.5c-2.8,0-5-2.2-5-5s2.2-5,5-5,5,2.2,5,5-2.2,5-5,5ZM124.8,4386.3l-2.8,2.8-2.8-2.8-1.4,1.4,2.8,2.8-2.8,2.8,1.4,1.4,2.8-2.8,2.8,2.8,1.4-1.4-2.8-2.8,2.8-2.8-1.4-1.4Z"/>
  <path class="cls-5" d="M153.4,370.1l-35.4,19.4-36.4-19.6-28.6,15.6,65,35,64-35-28.6-15.4ZM117,381.5l-54.2-29.2-5.8,3.2,62,33.4,61-33.4-7.8-4.2-55.2,30.2ZM117,299.5l55.7,30,7.4-4-63.1-34-62.1,34,7.4,4,54.7-30Z"/>
  <g>
    <path class="cls-3" d="M154.4,340.6l27.6-15.1-65-35-64,35,27.6,14.9-27.6,15.1,27.6,14.9-27.6,15.1,65,35,64-35-27.6-14.9,27.6-15.1-27.6-14.9ZM57,325.5l60-33,61,33-60,33-61-33ZM178,385.5l-60,33-61-33,25.6-14.1,35.4,19.1,34.4-18.8,25.6,13.8ZM118,388.5l-61-33,25.6-14.1,35.4,19.1,34.4-18.8,25.6,13.8-60,33Z"/>
    <g>
      <line class="cls-18" x1="81.9" y1="340.2" x2="84.5" y2="338.7"/>
      <line class="cls-16" x1="88.1" y1="336.7" x2="113.1" y2="322.9"/>
      <polyline class="cls-18" points="114.9 322 117.5 320.5 120.1 322"/>
      <line class="cls-15" x1="123.7" y1="323.9" x2="149" y2="337.9"/>
      <line class="cls-18" x1="150.8" y1="338.9" x2="153.4" y2="340.3"/>
    </g>
  </g>
  <path class="cls-3" d="M6.8,386.3l-2.8,2.8-2.8-2.8-1.4,1.4,2.8,2.8-2.8,2.8,1.4,1.4,2.8-2.8,2.8,2.8,1.4-1.4-2.8-2.8,2.8-2.8-1.4-1.4ZM65.5,282.5c-2.5,0-4.5,2-4.5,4.5s2,4.5,4.5,4.5,4.5-2,4.5-4.5-2-4.5-4.5-4.5ZM65.5,289.5c-1.4,0-2.5-1.1-2.5-2.5s1.1-2.5,2.5-2.5,2.5,1.1,2.5,2.5-1.1,2.5-2.5,2.5ZM201.5,345.5c-2.5,0-4.5,2-4.5,4.5s2,4.5,4.5,4.5,4.5-2,4.5-4.5-2-4.5-4.5-4.5ZM201.5,352.5c-1.4,0-2.5-1.1-2.5-2.5s1.1-2.5,2.5-2.5,2.5,1.1,2.5,2.5-1.1,2.5-2.5,2.5Z"/>
  <path class="cls-6" d="M242.2,384.7l-1.4-1.4-2.8,2.8-2.8-2.8-1.4,1.4,2.8,2.8-2.8,2.8,1.4,1.4,2.8-2.8,2.8,2.8,1.4-1.4-2.8-2.8,2.8-2.8ZM32,350.5c-3.9,0-7,3.1-7,7s3.1,7,7,7,7-3.1,7-7-3.1-7-7-7ZM32,362.5c-2.8,0-5-2.2-5-5s2.2-5,5-5,5,2.2,5,5-2.2,5-5,5ZM184.8,270.3l-2.8,2.8-2.8-2.8-1.4,1.4,2.8,2.8-2.8,2.8,1.4,1.4,2.8-2.8,2.8,2.8,1.4-1.4-2.8-2.8,2.8-2.8-1.4-1.4Z"/>
  <g>
    <path class="cls-5" d="M158,1158h-42v-4.7H40v2.1c0,5.5,4.5,10,10,10h175c5.5,0,10-4.5,10-10v-2.1h-77v4.7ZM170,1038.5c-1.7,0-3,1.3-3,3v44h71c1.1,0,2-.9,2-2v-45h-70Z"/>
    <path class="cls-3" d="M67,1115.5h62v-2h-62v2ZM67,1085.5h90v-2h-90v2ZM134,1115.5v-2h-3v2h3ZM204,1103.5H67v2h137v-2ZM168,1087.5h24v7h-12v2h43v-2h-12v-7h24c3.3,0,6-2.7,6-6v-43c0-3.3-2.7-6-6-6h-67c-3.3,0-6,2.7-6,6v43c0,3.3,2.7,6,6,6ZM209,1094.5h-15v-7h15v7ZM164,1038.5c0-2.2,1.8-4,4-4h67c2.2,0,4,1.8,4,4v43c0,2.2-1.8,4-4,4h-67c-2.2,0-4-1.8-4-4v-43ZM222,1143.5v-42h-2v42h2ZM157,1073.5h-90v2h90v-2ZM7,1170.5h5v-2h-5v2ZM261,1168.5v2h16v-2h-16ZM235,1159.5v-7h-78v3c0,1.1-.9,2-2,2h-37c-1.1,0-2-.9-2-2v-3h-45v2h43v1c0,2.2,1.8,4,4,4h37c2.2,0,4-1.8,4-4v-1h74v4c0,5.5-4.5,10-10,10H48c-5.5,0-10-4.5-10-10v-4h28v-2h-14v-54h-2v54h-14v7c0,3.7,1.9,7,4.7,9H14v2h245v-2h-28.7c2.8-2,4.7-5.3,4.7-9ZM67,1095.5h90v-2h-90v2ZM242,1174.5h8v-2h-8v2ZM0,1170.5h5v-2H0v2ZM52,1060.5c0-4.4,3.6-8,8-8h97v-2H60c-5.5,0-10,4.5-10,10v31h2v-31ZM52,1094.5h-2v2h2v-2ZM201,1048.9v26.6h2v-26.2l10.3,10.3,1.4-1.4-11.7-11.7v-1h-2v.6l-12,12,1.4,1.4,10.6-10.6Z"/>
    <path class="cls-3" d="M38.8,1131.3l-2.8,2.8-2.8-2.8-1.4,1.4,2.8,2.8-2.8,2.8,1.4,1.4,2.8-2.8,2.8,2.8,1.4-1.4-2.8-2.8,2.8-2.8-1.4-1.4ZM101.5,1031.5c-2.5,0-4.5,2-4.5,4.5s2,4.5,4.5,4.5,4.5-2,4.5-4.5-2-4.5-4.5-4.5ZM101.5,1038.5c-1.4,0-2.5-1.1-2.5-2.5s1.1-2.5,2.5-2.5,2.5,1.1,2.5,2.5-1.1,2.5-2.5,2.5ZM257.5,1034.5c-2.5,0-4.5,2-4.5,4.5s2,4.5,4.5,4.5,4.5-2,4.5-4.5-2-4.5-4.5-4.5ZM257.5,1041.5c-1.4,0-2.5-1.1-2.5-2.5s1.1-2.5,2.5-2.5,2.5,1.1,2.5,2.5-1.1,2.5-2.5,2.5Z"/>
    <path class="cls-1" d="M247.2,1128.7l-1.4-1.4-2.8,2.8-2.8-2.8-1.4,1.4,2.8,2.8-2.8,2.8,1.4,1.4,2.8-2.8,2.8,2.8,1.4-1.4-2.8-2.8,2.8-2.8ZM31,1031.5c-3.9,0-7,3.1-7,7s3.1,7,7,7,7-3.1,7-7-3.1-7-7-7ZM31,1043.5c-2.8,0-5-2.2-5-5s2.2-5,5-5,5,2.2,5,5-2.2,5-5,5ZM148.8,999.3l-2.8,2.8-2.8-2.8-1.4,1.4,2.8,2.8-2.8,2.8,1.4,1.4,2.8-2.8,2.8,2.8,1.4-1.4-2.8-2.8,2.8-2.8-1.4-1.4Z"/>
  </g>
  <path class="cls-5" d="M97,831.5h62c2.2,0,4-1.8,4-4v-63h-17c-3.3,0-6-2.7-6-6v-18h-43c-2.2,0-4,1.8-4,4v83c0,2.2,1.8,4,4,4ZM42,851.4v22.1h170v-22.1H42ZM126.5,867.5c-1.4,0-2.5-1.1-2.5-2.5s1.1-2.5,2.5-2.5,2.5,1.1,2.5,2.5-1.1,2.5-2.5,2.5Z"/>
  <path class="cls-3" d="M153,793.5h-50v2h50v-2ZM130,787.5h-27v2h27v-2ZM13,903.5h5v-2h-5v2ZM97,833.5h62c3.3,0,6-2.7,6-6v-64h0l-24-24h-.1c0,0-43.9,0-43.9,0-3.3,0-6,2.7-6,6v82c0,3.2,2.7,5.9,6,5.9ZM141,742.2l21.3,21.3h-15.3c-3.3,0-6-2.7-6-6v-15.3ZM93,746.5c0-2.8,2.2-5,5-5h41v16c0,4.4,3.6,8,8,8h16v61c0,2.8-2.2,5-5,5h-60c-2.8,0-5-2.2-5-5v-80ZM229,901.5v2h10v-2h-10ZM159,900.5v-2c0-1.7-1.3-3-3-3h-4.9c-7.3-3.9-12.4-11.3-13-20h64.9c5.5,0,10-4.5,10-10v-94c0-5.5-4.5-10-10-10h-35v2h35c4.4,0,8,3.6,8,8v94c0,4.4-3.6,8-8,8H51c-4.4,0-8-3.6-8-8v-94c0-4.4,3.6-8,8-8h37v-2h-37c-5.5,0-10,4.5-10,10v94c0,5.5,4.5,10,10,10h63.9c-.7,8.7-5.8,16.1-13,20h-4.9c-1.7,0-3,1.3-3,3v2c0,.4,0,.7.2,1H20v2h207v-2h-68.2c0-.3.2-.6.2-1ZM157,900.5c0,.6-.4,1-1,1h-59c-.6,0-1-.4-1-1v-2c0-.6.4-1,1-1h6v-.3c7.8-4.3,13.2-12.3,13.9-21.7h19.2c.7,9,5.7,16.7,13,21.1,4.1,2.5,1.9.9,1.9.9h5c.6,0,1,.4,1,1v2ZM123,865c0,1.9,1.6,3.5,3.5,3.5s3.5-1.6,3.5-3.5-1.6-3.5-3.5-3.5-3.5,1.6-3.5,3.5ZM128,865c0,.8-.7,1.5-1.5,1.5s-1.5-.7-1.5-1.5.7-1.5,1.5-1.5,1.5.7,1.5,1.5ZM153,799.5h-50v2h50v-2Z"/>
  <path class="cls-3" d="M237.5,756.5c-2.5,0-4.5,2-4.5,4.5s2,4.5,4.5,4.5,4.5-2,4.5-4.5-2-4.5-4.5-4.5ZM237.5,763.5c-1.4,0-2.5-1.1-2.5-2.5s1.1-2.5,2.5-2.5,2.5,1.1,2.5,2.5-1.1,2.5-2.5,2.5ZM20.8,854.3l-2.8,2.8-2.8-2.8-1.4,1.4,2.8,2.8-2.8,2.8,1.4,1.4,2.8-2.8,2.8,2.8,1.4-1.4-2.8-2.8,2.8-2.8-1.4-1.4ZM79.5,730.5c-2.5,0-4.5,2-4.5,4.5s2,4.5,4.5,4.5,4.5-2,4.5-4.5-2-4.5-4.5-4.5ZM79.5,737.5c-1.4,0-2.5-1.1-2.5-2.5s1.1-2.5,2.5-2.5,2.5,1.1,2.5,2.5-1.1,2.5-2.5,2.5Z"/>
  <path class="cls-1" d="M7,738.5c-3.9,0-7,3.1-7,7s3.1,7,7,7,7-3.1,7-7-3.1-7-7-7ZM7,750.5c-2.8,0-5-2.2-5-5s2.2-5,5-5,5,2.2,5,5-2.2,5-5,5ZM237.2,840.7l-1.4-1.4-2.8,2.8-2.8-2.8-1.4,1.4,2.8,2.8-2.8,2.8,1.4,1.4,2.8-2.8,2.8,2.8,1.4-1.4-2.8-2.8,2.8-2.8ZM163.8,705.3l-2.8,2.8-2.8-2.8-1.4,1.4,2.8,2.8-2.8,2.8,1.4,1.4,2.8-2.8,2.8,2.8,1.4-1.4-2.8-2.8,2.8-2.8-1.4-1.4Z"/>
  <path class="cls-5" d="M183.5,1304h-89c-4.4,0-8,3.6-8,8v31h63c5.5,0,10,4.5,10,10v60h24c4.4,0,8-3.6,8-8v-93c0-4.4-3.6-8-8-8Z"/>
  <path class="cls-3" d="M189,1299.5h-94c-5.5,0-10,4.5-10,10v31h-30c-5.5,0-10,4.5-10,10v94c0,5.5,4.5,10,10,10h94c5.5,0,10-4.5,10-10v-31h30c5.5,0,10-4.5,10-10v-94c0-5.5-4.5-10-10-10ZM157,1444.5c0,4.4-3.6,8-8,8H55c-4.4,0-8-3.6-8-8v-94c0-4.4,3.6-8,8-8h30v61c0,5.5,4.5,10,10,10h62v31ZM157,1411.5h-62c-4.4,0-8-3.6-8-8v-61h62c4.4,0,8,3.6,8,8v61ZM197,1403.5c0,4.4-3.6,8-8,8h-30v-61c0-5.5-4.5-10-10-10h-62v-31c0-4.4,3.6-8,8-8h94c4.4,0,8,3.6,8,8v94Z"/>
  <path class="cls-3" d="M112,1291.5h-7v2h7v-2ZM56,1352.5h-2v4h2v-4ZM198,1291.5h-84v2h84c4.4,0,8,3.6,8,8v93h2v-93c0-5.5-4.5-10-10-10ZM56,1436.5v-78h-2v78c0,5.5,4.5,10,10,10h84v-2h-84c-4.4,0-8-3.6-8-8Z"/>
  <path class="cls-3" d="M60.5,1306.5c-2.5,0-4.5,2-4.5,4.5s2,4.5,4.5,4.5,4.5-2,4.5-4.5-2-4.5-4.5-4.5ZM60.5,1313.5c-1.4,0-2.5-1.1-2.5-2.5s1.1-2.5,2.5-2.5,2.5,1.1,2.5,2.5-1.1,2.5-2.5,2.5ZM27.8,1432.3l-2.8,2.8-2.8-2.8-1.4,1.4,2.8,2.8-2.8,2.8,1.4,1.4,2.8-2.8,2.8,2.8,1.4-1.4-2.8-2.8,2.8-2.8-1.4-1.4ZM235.5,1349.5c-2.5,0-4.5,2-4.5,4.5s2,4.5,4.5,4.5,4.5-2,4.5-4.5-2-4.5-4.5-4.5ZM235.5,1356.5c-1.4,0-2.5-1.1-2.5-2.5s1.1-2.5,2.5-2.5,2.5,1.1,2.5,2.5-1.1,2.5-2.5,2.5Z"/>
  <path class="cls-1" d="M7,1328.5c-3.9,0-7,3.1-7,7s3.1,7,7,7,7-3.1,7-7-3.1-7-7-7ZM7,1340.5c-2.8,0-5-2.2-5-5s2.2-5,5-5,5,2.2,5,5-2.2,5-5,5ZM182.2,1430.7l-1.4-1.4-2.8,2.8-2.8-2.8-1.4,1.4,2.8,2.8-2.8,2.8,1.4,1.4,2.8-2.8,2.8,2.8,1.4-1.4-2.8-2.8,2.8-2.8ZM165.8,1270.3l-2.8,2.8-2.8-2.8-1.4,1.4,2.8,2.8-2.8,2.8,1.4,1.4,2.8-2.8,2.8,2.8,1.4-1.4-2.8-2.8,2.8-2.8-1.4-1.4Z"/>
  <path class="cls-5" d="M165,1916.4v99.1h23v-99.1h-23ZM176.5,1930.5c-1.4,0-2.5-1.1-2.5-2.5s1.1-2.5,2.5-2.5,2.5,1.1,2.5,2.5-1.1,2.5-2.5,2.5ZM136,2015.5h23v-99.1h-23v99.1ZM147.5,1925.5c1.4,0,2.5,1.1,2.5,2.5s-1.1,2.5-2.5,2.5-2.5-1.1-2.5-2.5,1.1-2.5,2.5-2.5ZM107,2015.5h23v-99.1h-23v99.1ZM118.5,1925.5c1.4,0,2.5,1.1,2.5,2.5s-1.1,2.5-2.5,2.5-2.5-1.1-2.5-2.5,1.1-2.5,2.5-2.5Z"/>
  <path class="cls-3" d="M187,1904.5h-5v2h5v-2ZM63,2004.5h-6v2h6v-2ZM89,1997.5h2v-2h-2v2ZM83,2004.5h-18v2h18v-2ZM79,2015.5h6v-2h-6v2ZM72,1940.5c6.3,0,11.4-4.8,11.9-11h-2c-.5,5.1-4.8,9-9.9,9s-10-4.5-10-10,4.5-10,10-10,9.4,3.9,9.9,9h2c-.5-6.2-5.7-11-11.9-11s-12,5.4-12,12,5.4,12,12,12ZM62,2015.5h16v-2h-16v2ZM62,1997.5h25v-2h-25v2ZM118.5,1923.5c-2.5,0-4.5,2-4.5,4.5s2,4.5,4.5,4.5,4.5-2,4.5-4.5-2-4.5-4.5-4.5ZM118.5,1930.5c-1.4,0-2.5-1.1-2.5-2.5s1.1-2.5,2.5-2.5,2.5,1.1,2.5,2.5-1.1,2.5-2.5,2.5ZM200,1911.5l-.9-1.1c-.7-1.6-1.9-3-3.3-4.1l-21.8-26.5v-.3h-110v.3l-21.3,26.2c-1.8,1.2-3.3,2.9-4,5l-.4.5h.2c-.3,1-.4,2-.4,3v104c0,5.5,4.5,10,10,10h142c5.5,0,10-4.5,10-10v-104c0-1-.1-1.9-.4-2.8l.3-.2ZM198,2018.5c0,4.4-3.6,8-8,8H48c-4.4,0-8-3.6-8-8v-104c0-.9.2-1.8.4-2.6l3.5-4.3c1.2-.7,2.6-1.1,4.1-1.1h132v-2H48c-.6,0-1.1,0-1.6,0l18.8-23.1h107.6l20.2,24.6v1c.5.2,1,.5,1.5.8l2.8,3.4c.4,1,.7,2,.7,3.1v104.1h0ZM176.5,1923.5c-2.5,0-4.5,2-4.5,4.5s2,4.5,4.5,4.5,4.5-2,4.5-4.5-2-4.5-4.5-4.5ZM176.5,1930.5c-1.4,0-2.5-1.1-2.5-2.5s1.1-2.5,2.5-2.5,2.5,1.1,2.5,2.5-1.1,2.5-2.5,2.5ZM185,1915.5h-17c-2.2,0-4,1.8-4,4v94c0,2.2,1.8,4,4,4h17c2.2,0,4-1.8,4-4v-94c0-2.2-1.8-4-4-4ZM187,2013.5c0,1.1-.9,2-2,2h-17c-1.1,0-2-.9-2-2v-94c0-1.1.9-2,2-2h17c1.1,0,2,.9,2,2v94ZM127,1915.5h-17c-2.2,0-4,1.8-4,4v94c0,2.2,1.8,4,4,4h17c2.2,0,4-1.8,4-4v-94c0-2.2-1.8-4-4-4ZM129,2013.5c0,1.1-.9,2-2,2h-17c-1.1,0-2-.9-2-2v-94c0-1.1.9-2,2-2h17c1.1,0,2,.9,2,2v94ZM147.5,1923.5c-2.5,0-4.5,2-4.5,4.5s2,4.5,4.5,4.5,4.5-2,4.5-4.5-2-4.5-4.5-4.5ZM147.5,1930.5c-1.4,0-2.5-1.1-2.5-2.5s1.1-2.5,2.5-2.5,2.5,1.1,2.5,2.5-1.1,2.5-2.5,2.5ZM156,1915.5h-17c-2.2,0-4,1.8-4,4v94c0,2.2,1.8,4,4,4h17c2.2,0,4-1.8,4-4v-94c0-2.2-1.8-4-4-4ZM158,2013.5c0,1.1-.9,2-2,2h-17c-1.1,0-2-.9-2-2v-94c0-1.1.9-2,2-2h17c1.1,0,2,.9,2,2v94Z"/>
  <path class="cls-3" d="M6.8,2012.3l-2.8,2.8-2.8-2.8-1.4,1.4,2.8,2.8-2.8,2.8,1.4,1.4,2.8-2.8,2.8,2.8,1.4-1.4-2.8-2.8,2.8-2.8-1.4-1.4ZM39.5,1866.5c-2.5,0-4.5,2-4.5,4.5s2,4.5,4.5,4.5,4.5-2,4.5-4.5-2-4.5-4.5-4.5ZM39.5,1873.5c-1.4,0-2.5-1.1-2.5-2.5s1.1-2.5,2.5-2.5,2.5,1.1,2.5,2.5-1.1,2.5-2.5,2.5ZM216.5,1961.5c-2.5,0-4.5,2-4.5,4.5s2,4.5,4.5,4.5,4.5-2,4.5-4.5-2-4.5-4.5-4.5ZM216.5,1968.5c-1.4,0-2.5-1.1-2.5-2.5s1.1-2.5,2.5-2.5,2.5,1.1,2.5,2.5-1.1,2.5-2.5,2.5Z"/>
  <path class="cls-6" d="M25,1974.5c-3.9,0-7,3.1-7,7s3.1,7,7,7,7-3.1,7-7-3.1-7-7-7ZM25,1986.5c-2.8,0-5-2.2-5-5s2.2-5,5-5,5,2.2,5,5-2.2,5-5,5ZM202.8,1849.3l-2.8,2.8-2.8-2.8-1.4,1.4,2.8,2.8-2.8,2.8,1.4,1.4,2.8-2.8,2.8,2.8,1.4-1.4-2.8-2.8,2.8-2.8-1.4-1.4ZM242.2,2001.7l-1.4-1.4-2.8,2.8-2.8-2.8-1.4,1.4,2.8,2.8-2.8,2.8,1.4,1.4,2.8-2.8,2.8,2.8,1.4-1.4-2.8-2.8,2.8-2.8Z"/>
  <path class="cls-5" d="M148.9,2251.8c-.2,9.9-8.7,17.8-18.8,17.8h-14.5v10.1c0,.3-.4.5-.6.3l-26-19.1c-.2-.2-.2-.5,0-.6l26-19.1c.3-.2.6,0,.6.3v11.1h14.9c5.8,0,11.7-4.5,11.7-10.2s-.6-4.1-1.8-5.7c-.2-.3.2-.8.5-.5,1.2.7,2.7,1.7,3.6,2.5,3.4,3.3,4.5,8,4.4,13.1Z"/>
  <g>
    <g>
      <path class="cls-3" d="M55.9,2267.5c-2.8,0-5-2.2-5-5v-90c0-2.8,2.2-5,5-5h51v16c0,4.4,3.6,8,8,8h16v54h2v-56h0l-24-24h0c0,.1-53.9.1-53.9.1-3.3,0-6,2.7-6,6v92c0,3.3,2.7,6,6,6h33.4l-2.7-2h-29.7ZM108.9,2168.2l21.3,21.3h-15.3c-3.3,0-6-2.7-6-6,0,0,0-15.3,0-15.3ZM121.9,2230h-60v2h60v-2ZM61.9,2238h60v-2h-60v2ZM61.9,2224v2h37v-2h-37Z"/>
      <path class="cls-18" d="M149.8,2251.4c-.2,10.6-8.3,19.1-18.9,19.1h-15v10.5c0,.3-.3.5-.5.3l-27.3-20.3c-.2-.2-.2-.5,0-.7l27.2-20.3c.3-.2.6,0,.6.3v12.1c0,0,14.9,0,14.9,0,6,0,10.8-5.1,10.8-11.1s-.7-4.4-1.8-6.1c-.2-.4.2-.8.5-.6,1.3.8,2.8,1.8,3.7,2.7,3.7,3.7,5.9,8.6,5.8,14.1Z"/>
    </g>
    <path class="cls-3" d="M29.7,2247.3l-2.8,2.8-2.8-2.8-1.4,1.4,2.8,2.8-2.8,2.8,1.4,1.4,2.8-2.8,2.8,2.8,1.4-1.4-2.8-2.8,2.8-2.8-1.4-1.4ZM53.4,2147.5c-2.5,0-4.5,2-4.5,4.5s2,4.5,4.5,4.5,4.5-2,4.5-4.5-2-4.5-4.5-4.5ZM53.4,2154.5c-1.4,0-2.5-1.1-2.5-2.5s1.1-2.5,2.5-2.5,2.5,1.1,2.5,2.5-1.1,2.5-2.5,2.5ZM179.4,2242.5c-2.5,0-4.5,2-4.5,4.5s2,4.5,4.5,4.5,4.5-2,4.5-4.5-2-4.5-4.5-4.5ZM179.4,2249.5c-1.4,0-2.5-1.1-2.5-2.5s1.1-2.5,2.5-2.5,2.5,1.1,2.5,2.5-1.1,2.5-2.5,2.5Z"/>
    <path class="cls-1" d="M203.1,2269.7l-1.4-1.4-2.8,2.8-2.8-2.8-1.4,1.4,2.8,2.8-2.8,2.8,1.4,1.4,2.8-2.8,2.8,2.8,1.4-1.4-2.8-2.8,2.8-2.8ZM145.1,2135.7l-1.4-1.4-2.3,2.3-2.3-2.3-1.4,1.4,2.3,2.3-3.3,3.3,1.4,1.4,3.3-3.3,3.3,3.3,1.4-1.4-3.3-3.3,2.3-2.3ZM7.9,2161.5c-3.9,0-7,3.1-7,7s3.1,7,7,7,7-3.1,7-7-3.1-7-7-7ZM7.9,2173.5c-2.8,0-5-2.2-5-5s2.2-5,5-5,5,2.2,5,5-2.2,5-5,5Z"/>
  </g>
  <path class="cls-5" d="M106,2412.3h-49c-4.4,0-8,3.6-8,8v11.3h43c5.5,0,10,4.5,10,10v39.8h4c4.4,0,8-3.6,8-8v-53c0-4.6-3.6-8.1-8-8.1Z"/>
  <g>
    <path class="cls-3" d="M112,2408.7h-54c-5.5,0-10,4.5-10,10v10.8h-10c-5.5,0-10,4.5-10,10v54c0,5.5,4.5,10,10,10h54c5.5,0,10-4.5,10-10v-10.8h10c5.5,0,10-4.5,10-10v-54c0-5.5-4.5-10-10-10ZM100,2493.5c0,4.4-3.6,8-8,8h-54c-4.4,0-8-3.6-8-8v-54c0-4.4,3.6-8,8-8h10v41c0,5.5,4.5,10,10,10h42v11ZM100,2480.5h-42c-4.4,0-8-3.6-8-8v-41h42c4.4,0,8,3.6,8,8v41ZM120,2472.7c0,4.4-3.6,8-8,8h-10v-41.2c0-5.5-4.5-10-10-10h-42v-10.8c0-4.4,3.6-8,8-8h54c4.4,0,8,3.6,8,8v54ZM75,2441.7c-7,0-12.9,5.2-13.8,12h-5.2l6.5,6,6.5-6h-5.8c1-5.7,5.9-10,11.8-10s12,5.4,12,12-5.4,12-12,12-4.5-.7-6.3-1.8l-1,1.7c2.1,1.3,4.6,2.1,7.3,2.1,7.7,0,14-6.3,14-14s-6.3-14-14-14Z"/>
    <path class="cls-3" d="M37.7,2462.5h-2v4h2v-4ZM41.7,2494.3c-2.2,0-4-1.8-4-4v-21.8h-2v21.8c0,3.3,2.7,6,6,6h28v-2h-28Z"/>
    <path class="cls-3" d="M6.8,2473.5l-2.8,2.8-2.8-2.8-1.4,1.4,2.8,2.8-2.8,2.8,1.4,1.4,2.8-2.8,2.8,2.8,1.4-1.4-2.8-2.8,2.8-2.8-1.4-1.4ZM139.5,2435.7c-2.5,0-4.5,2-4.5,4.5s2,4.5,4.5,4.5,4.5-2,4.5-4.5-2-4.5-4.5-4.5ZM139.5,2442.7c-1.4,0-2.5-1.1-2.5-2.5s1.1-2.5,2.5-2.5,2.5,1.1,2.5,2.5-1.1,2.5-2.5,2.5ZM32.5,2411.7c-2.5,0-4.5,2-4.5,4.5s2,4.5,4.5,4.5,4.5-2,4.5-4.5-2-4.5-4.5-4.5ZM32.5,2418.7c-1.4,0-2.5-1.1-2.5-2.5s1.1-2.5,2.5-2.5,2.5,1.1,2.5,2.5-1.1,2.5-2.5,2.5Z"/>
    <path class="cls-6" d="M43.8,2518.5l-2.8,2.8-2.8-2.8-1.4,1.4,2.8,2.8-2.8,2.8,1.4,1.4,2.8-2.8,2.8,2.8,1.4-1.4-2.8-2.8,2.8-2.8-1.4-1.4ZM108.8,2382.5l-2.8,2.8-2.8-2.8-1.4,1.4,2.8,2.8-2.8,2.8,1.4,1.4,2.8-2.8,2.8,2.8,1.4-1.4-2.8-2.8,2.8-2.8-1.4-1.4ZM133,2491.8c-3.9,0-7,3.1-7,7s3.1,7,7,7,7-3.1,7-7-3.1-7-7-7ZM133,2503.7c-2.8,0-5-2.2-5-5s2.2-5,5-5,5,2.2,5,5-2.2,5-5,5Z"/>
  </g>
  <g>
    <path class="cls-5" d="M76.5,2718.5h14v-58.1h-14v58.1ZM83,2665.5c1.4,0,2.5,1.1,2.5,2.5s-1.1,2.5-2.5,2.5-2.5-1.1-2.5-2.5,1.1-2.5,2.5-2.5ZM97.5,2718.5h14v-58h-14v58ZM104,2665.5c1.4,0,2.5,1.1,2.5,2.5s-1.1,2.5-2.5,2.5-2.5-1.1-2.5-2.5,1.1-2.5,2.5-2.5ZM117.5,2660.4v58.1h15v-58.1h-15ZM125,2670.5c-1.4,0-2.5-1.1-2.5-2.5s1.1-2.5,2.5-2.5,2.5,1.1,2.5,2.5-1.1,2.5-2.5,2.5Z"/>
    <path class="cls-3" d="M46,2701.9h21v-2h-21v2ZM62,2715.9h3v-2h-3v2ZM55.5,2682.9c5.6,0,10.2-4.4,10.5-10h-2c-.3,4.5-3.9,8-8.5,8s-8.5-3.8-8.5-8.5,3.8-8.5,8.5-8.5,7.7,3,8.4,7h2c-.7-5.1-5.1-9-10.4-9s-10.5,4.7-10.5,10.5,4.7,10.5,10.5,10.5ZM46,2708.9h14v-2h-14v2ZM132,2647.9h-5v2h5v-2ZM42,2708.9h2v-2h-2v2ZM69,2701.9h3v-2h-3v2ZM46,2715.9h14v-2h-14v2ZM109,2658.9h-9c-2.2,0-4,1.8-4,4v53c0,2.2,1.8,4,4,4h9c2.2,0,4-1.8,4-4v-53c0-2.2-1.8-4-4-4ZM111,2715.9c0,1.1-.9,2-2,2h-9c-1.1,0-2-.9-2-2v-53c0-1.1.9-2,2-2h9c1.1,0,2,.9,2,2v53ZM125.5,2663.9c-1.9,0-3.5,1.6-3.5,3.5s1.6,3.5,3.5,3.5,3.5-1.6,3.5-3.5-1.6-3.5-3.5-3.5ZM125.5,2668.9c-.8,0-1.5-.7-1.5-1.5s.7-1.5,1.5-1.5,1.5.7,1.5,1.5-.7,1.5-1.5,1.5ZM144.2,2654c-.8-1.9-24.4-28-24.4-28h-63.5l-18.2,24c-1.5,1.1-2.7,2.7-3.4,4.5l-.2.6c-.3.9-.4,1.9-.4,2.9v63c0,5.5,4.5,10,10,10h91c5.5,0,10-4.5,10-10v-63c0-1-.1-1.9-.4-2.8l-.5-1.2ZM143,2720.9c0,4.4-3.6,8-8,8H44c-4.4,0-8-3.6-8-8v-63c0-.9.2-1.8.5-2.6l3-3.9c1.3-.9,2.9-1.4,4.6-1.4h81v-2H44c-.7,0-1.4.1-2.1.2l15.4-20.2h61.6l23.5,27c.4.9.6,1.9.6,3v62.9ZM130,2658.9h-9c-2.2,0-4,1.8-4,4v53c0,2.2,1.8,4,4,4h9c2.2,0,4-1.8,4-4v-53c0-2.2-1.8-4-4-4ZM132,2715.9c0,1.1-.9,2-2,2h-9c-1.1,0-2-.9-2-2v-53c0-1.1.9-2,2-2h9c1.1,0,2,.9,2,2v53ZM83.5,2663.9c-1.9,0-3.5,1.6-3.5,3.5s1.6,3.5,3.5,3.5,3.5-1.6,3.5-3.5-1.6-3.5-3.5-3.5ZM83.5,2668.9c-.8,0-1.5-.7-1.5-1.5s.7-1.5,1.5-1.5,1.5.7,1.5,1.5-.7,1.5-1.5,1.5ZM104.5,2663.9c-1.9,0-3.5,1.6-3.5,3.5s1.6,3.5,3.5,3.5,3.5-1.6,3.5-3.5-1.6-3.5-3.5-3.5ZM104.5,2668.9c-.8,0-1.5-.7-1.5-1.5s.7-1.5,1.5-1.5,1.5.7,1.5,1.5-.7,1.5-1.5,1.5ZM88,2658.9h-9c-2.2,0-4,1.8-4,4v53c0,2.2,1.8,4,4,4h9c2.2,0,4-1.8,4-4v-53c0-2.2-1.8-4-4-4ZM90,2715.9c0,1.1-.9,2-2,2h-9c-1.1,0-2-.9-2-2v-53c0-1.1.9-2,2-2h9c1.1,0,2,.9,2,2v53Z"/>
    <path class="cls-3" d="M6.8,2728.8l-2.8,2.8-2.8-2.8-1.4,1.4,2.8,2.8-2.8,2.8,1.4,1.4,2.8-2.8,2.8,2.8,1.4-1.4-2.8-2.8,2.8-2.8-1.4-1.4ZM28.5,2623c-2.5,0-4.5,2-4.5,4.5s2,4.5,4.5,4.5,4.5-2,4.5-4.5-2-4.5-4.5-4.5ZM28.5,2630c-1.4,0-2.5-1.1-2.5-2.5s1.1-2.5,2.5-2.5,2.5,1.1,2.5,2.5-1.1,2.5-2.5,2.5ZM161.5,2701c-2.5,0-4.5,2-4.5,4.5s2,4.5,4.5,4.5,4.5-2,4.5-4.5-2-4.5-4.5-4.5ZM161.5,2708c-1.4,0-2.5-1.1-2.5-2.5s1.1-2.5,2.5-2.5,2.5,1.1,2.5,2.5-1.1,2.5-2.5,2.5Z"/>
    <path class="cls-1" d="M182.2,2734.2l-1.4-1.4-2.8,2.8-2.8-2.8-1.4,1.4,2.8,2.8-2.8,2.8,1.4,1.4,2.8-2.8,2.8,2.8,1.4-1.4-2.8-2.8,2.8-2.8ZM146.8,2605.8l-2.8,2.8-2.8-2.8-1.4,1.4,2.8,2.8-2.8,2.8,1.4,1.4,2.8-2.8,2.8,2.8,1.4-1.4-2.8-2.8,2.8-2.8-1.4-1.4ZM19,2700c-3.9,0-7,3.1-7,7s3.1,7,7,7,7-3.1,7-7-3.1-7-7-7ZM19,2712c-2.8,0-5-2.2-5-5s2.2-5,5-5,5,2.2,5,5-2.2,5-5,5Z"/>
  </g>
  <path class="cls-5" d="M142.5,2933.5c18.5,0,33.5,15,33.5,33.5s-15,33.5-33.5,33.5-33.5-15-33.5-33.5,15-33.5,33.5-33.5Z"/>
  <path class="cls-3" d="M141,2924.5v-2h-5v2h5ZM141,2916.5h-43v2h43v-2ZM141,2910.5h-44v2h44v-2ZM65,2867.5h64v-2h-65c-3.3,0-6,2.7-6,6v102h2.1c0-.3,0-.7,0-1v-100c0-2.8,2.2-5,5-5ZM70,2982.5c-2.8,0-5-2.2-5-5v-100c0-2.8,2.2-5,5-5h57v16c0,4.4,3.6,8,8,8h16v34c.7.2,1.3.3,2,.5v-36.5h0l-24-24h-.1c0,.1-59.9.1-59.9.1-3.3,0-6,2.7-6,6v102c0,3.3,2.7,6,6,6h40.3c-.3-.7-.7-1.3-1-2h-38.3ZM129,2873.2l21.3,21.3h-15.3c-3.3,0-6-2.7-6-6v-15.3ZM98,2924.5h36v-2h-36v2ZM118,2892.5h-36v2h36v-2ZM144,2950.5h-2v.6l-13,13,1.4,1.4,11.6-11.6v29.6h2v-29.6l11.6,11.6,1.4-1.4-13-13v-.6ZM142.5,2932.5c-19.1,0-34.5,15.4-34.5,34.5s15.4,34.5,34.5,34.5,34.5-15.4,34.5-34.5-15.4-34.5-34.5-34.5ZM142.5,2999.5c-17.9,0-32.5-14.6-32.5-32.5s14.6-32.5,32.5-32.5,32.5,14.6,32.5,32.5-14.6,32.5-32.5,32.5ZM141,2904.5h-66v2h66v-2ZM75,2892.5v2h5v-2h-5ZM75,2912.5h20v-2h-20v2ZM75,2900.5h43v-2h-43v2Z"/>
  <path class="cls-3" d="M29.8,2962.3l-2.8,2.8-2.8-2.8-1.4,1.4,2.8,2.8-2.8,2.8,1.4,1.4,2.8-2.8,2.8,2.8,1.4-1.4-2.8-2.8,2.8-2.8-1.4-1.4ZM219.5,2957.5c-2.5,0-4.5,2-4.5,4.5s2,4.5,4.5,4.5,4.5-2,4.5-4.5-2-4.5-4.5-4.5ZM219.5,2964.5c-1.4,0-2.5-1.1-2.5-2.5s1.1-2.5,2.5-2.5,2.5,1.1,2.5,2.5-1.1,2.5-2.5,2.5ZM73.5,2832.5c-2.5,0-4.5,2-4.5,4.5s2,4.5,4.5,4.5,4.5-2,4.5-4.5-2-4.5-4.5-4.5ZM73.5,2839.5c-1.4,0-2.5-1.1-2.5-2.5s1.1-2.5,2.5-2.5,2.5,1.1,2.5,2.5-1.1,2.5-2.5,2.5Z"/>
  <path class="cls-1" d="M7,2875.5c-3.9,0-7,3.1-7,7s3.1,7,7,7,7-3.1,7-7-3.1-7-7-7ZM7,2887.5c-2.8,0-5-2.2-5-5s2.2-5,5-5,5,2.2,5,5-2.2,5-5,5ZM242.2,2982.7l-1.4-1.4-2.8,2.8-2.8-2.8-1.4,1.4,2.8,2.8-2.8,2.8,1.4,1.4,2.8-2.8,2.8,2.8,1.4-1.4-2.8-2.8,2.8-2.8ZM163.8,2817.3l-2.8,2.8-2.8-2.8-1.4,1.4,2.8,2.8-2.8,2.8,1.4,1.4,2.8-2.8,2.8,2.8,1.4-1.4-2.8-2.8,2.8-2.8-1.4-1.4Z"/>
  <path class="cls-5" d="M174.4,3233c.1-.8.2-1.6.2-2.5,0-11-9-20-20-20s-20,9-20,20,.1,1.8.2,2.7c-7.1,2.1-12.2,8.6-12.2,16.3s7.6,17,17,17h31c9.4,0,17-7.6,17-17,0-8.1-5.7-14.8-13.2-16.5Z"/>
  <path class="cls-3" d="M141,3193.5v-2h-5v2h5ZM141,3185.5h-43v2h43v-2ZM98,3193.5h36v-2h-36v2ZM70,3251.5c-2.8,0-5-2.2-5-5v-100c0-2.8,2.2-5,5-5h57v16c0,4.4,3.6,8,8,8h16v34.8c.7.3,1.4.6,2,1v-37.7h0l-24-24h-.1c0,.1-59.9.1-59.9.1-3.3,0-6,2.7-6,6v102c0,3.3,2.7,6,6,6h38.5c-.5-.6-.9-1.3-1.3-2h-36.2v-.2ZM129,3142.2l21.3,21.3h-15.3c-3.3,0-6-2.7-6-6v-15.3ZM65,3136.5h64v-2h-65c-3.3,0-6,2.7-6,6v102h2.1c0-.3,0-.7,0-1v-100c0-2.8,2.2-5,5-5ZM141,3179.5h-44v2h44v-2ZM170.4,3230.1c-.5-.4-1-.7-1.5-1,0-.4.1-.7.1-1.1,0-9.2-6.1-17-14.5-19.6-3.4-2.4-7.5-3.9-12-3.9-11.3,0-20.5,9.2-20.5,20.5s0,1.2,0,1.8c-8,1.4-14.1,8.3-14.1,16.7s5.3,14.4,12.6,16.4c2.9,2.3,6.5,3.6,10.4,3.6h35c9.4,0,17-7.6,17-17s-5.3-14.5-12.6-16.4ZM110,3243.5c0-8.1,6.4-14.6,14.3-15-.2-1.1-.3-2.3-.3-3.5,0-10.2,8.3-18.5,18.5-18.5s4.1.4,6,1c-11.3,0-20.5,9.2-20.5,20.5s0,1.2.1,1.8c-8,1.4-14.1,8.3-14.1,16.7s1.1,7,3.1,9.7c-4.3-2.6-7.1-7.3-7.1-12.7ZM166,3261.5h-35c-8.3,0-15-6.7-15-15s6.4-14.6,14.3-15c-.2-1.1-.3-2.3-.3-3.5,0-10.2,8.3-18.5,18.5-18.5s18.5,8.3,18.5,18.5-.1,2.4-.3,3.5c8,.3,14.3,6.9,14.3,15s-6.7,15-15,15ZM118,3161.5h-36v2h36v-2ZM75,3161.5v2h5v-2h-5ZM75,3181.5h20v-2h-20v2ZM141,3173.5h-66v2h66v-2ZM75,3169.5h43v-2h-43v2Z"/>
  <g>
    <path class="cls-5" d="M63,3475.5h99c4.1,0,7.4-3.1,7.9-7h-103.9c-3.3,0-6-2.7-6-6v-18h-3v25c0,3.3,2.7,6,6,6ZM151,3421.5h-75l-16,20h107l-16-20ZM133.1,3534.5h-67.1c-3.3,0-6-2.7-6-6v-18h-3v25c0,3.3,2.7,6,6,6h70.8c-.5-1.6-.8-3.3-.8-5s.1-1.3.1-2ZM63,3507.5h86.9c1.9-3,4.5-5.4,7.7-7h-91.6c-3.3,0-6-2.7-6-6v-18h-3v25c0,3.3,2.7,6,6,6ZM195.8,3528c.1-.8.2-1.6.2-2.5,0-11-9-20-20-20s-20,9-20,20,.1,1.8.2,2.7c-7.1,2.1-12.2,8.6-12.2,16.3s7.6,17,17,17h31c9.4,0,17-7.6,17-17s-5.6-14.8-13.2-16.5Z"/>
    <path class="cls-3" d="M85,3464.5h-5v2h5v-2ZM88,3420.5h-4v2h4v-2ZM78,3464.5h-12v2h12v-2ZM85,3496.5h-5v2h5v-2ZM193.4,3523.1c-.5-.4-1-.7-1.5-1,0-.4.1-.7.1-1.1,0-9.2-6.1-17.1-14.5-19.6-1.9-1.4-4.1-2.5-6.5-3.1v-17.8c0-2.1-1.1-3.9-2.7-5,1.6-1.1,2.7-2.9,2.7-5v-23c0-.6-.1-1.3-.3-1.8l.3-.2-.9-1.1c-.3-.5-.6-.9-1-1.3l-18.3-22.6-.7.4v-.4h-60.1v2h59.8l15.4,19H61l15.2-19h5.8v-2h-7v.3l-17.4,21.7c-1,.7-1.7,1.6-2.1,2.7l-.2.2h0c-.2.6-.3,1.3-.3,2v23c0,2.1,1.1,3.9,2.7,5-1.6,1.1-2.7,2.9-2.7,5v23c0,2.1,1.1,3.9,2.7,5-1.6,1.1-2.7,2.9-2.7,5v23c0,3.3,2.7,6,6,6h71.1c1.9,5.1,6.2,9,11.5,10.4,2.9,2.2,6.5,3.6,10.4,3.6h35c9.4,0,17-7.6,17-17,0-7.8-5.4-14.4-12.7-16.3ZM57,3470.5v-23c0-.5,0-.9.3-1.4l1.6-2c.6-.4,1.3-.6,2.1-.6h104c1,0,2,.4,2.7,1.1l.7.9c.4.6.6,1.3.6,2.1v23c0,2.2-1.8,4-4,4H61c-2.2-.1-4-1.9-4-4.1ZM57,3503.5v-23c0-2.2,1.8-4,4-4h104c2.2,0,4,1.8,4,4v17.3c-1.1-.2-2.3-.3-3.5-.3-7.5,0-14,4-17.6,10H61c-2.2,0-4-1.8-4-4ZM131.5,3540.5H61c-2.2,0-4-1.8-4-4v-23c0-2.2,1.8-4,4-4h85.9c-1.2,2.6-1.9,5.5-1.9,8.5s0,1.2.1,1.8c-8,1.4-14.1,8.3-14.1,16.7s.2,2.7.5,4ZM133,3536.5c0-8.1,6.4-14.6,14.3-15-.2-1.1-.3-2.3-.3-3.5,0-10.2,8.3-18.5,18.5-18.5s4.1.4,6,1c-11.3,0-20.5,9.2-20.5,20.5s0,1.2.1,1.8c-8,1.4-14.1,8.3-14.1,16.7s1.1,7,3.1,9.7c-4.3-2.6-7.1-7.3-7.1-12.7ZM189,3554.5h-35c-8.3,0-15-6.7-15-15s6.4-14.6,14.3-15c-.2-1.1-.3-2.3-.3-3.5,0-10.2,8.3-18.5,18.5-18.5s18.5,8.3,18.5,18.5-.1,2.4-.3,3.5c8,.3,14.3,6.9,14.3,15s-6.7,15-15,15ZM80,3532.5h5v-2h-5v2ZM66,3532.5h12v-2h-12v2ZM78,3496.5h-12v2h12v-2Z"/>
    <path class="cls-3" d="M31.8,3529.3l-2.8,2.8-2.8-2.8-1.4,1.4,2.8,2.8-2.8,2.8,1.4,1.4,2.8-2.8,2.8,2.8,1.4-1.4-2.8-2.8,2.8-2.8-1.4-1.4ZM199.5,3482.5c-2.5,0-4.5,2-4.5,4.5s2,4.5,4.5,4.5,4.5-2,4.5-4.5-2-4.5-4.5-4.5ZM199.5,3489.5c-1.4,0-2.5-1.1-2.5-2.5s1.1-2.5,2.5-2.5,2.5,1.1,2.5,2.5-1.1,2.5-2.5,2.5ZM96.5,3374.5c-2.5,0-4.5,2-4.5,4.5s2,4.5,4.5,4.5,4.5-2,4.5-4.5-2-4.5-4.5-4.5ZM96.5,3381.5c-1.4,0-2.5-1.1-2.5-2.5s1.1-2.5,2.5-2.5,2.5,1.1,2.5,2.5-1.1,2.5-2.5,2.5Z"/>
    <path class="cls-1" d="M265.2,3544.7l-1.4-1.4-2.8,2.8-2.8-2.8-1.4,1.4,2.8,2.8-2.8,2.8,1.4,1.4,2.8-2.8,2.8,2.8,1.4-1.4-2.8-2.8,2.8-2.8ZM7,3445.5c-3.9,0-7,3.1-7,7s3.1,7,7,7,7-3.1,7-7-3.1-7-7-7ZM7,3457.5c-2.8,0-5-2.2-5-5s2.2-5,5-5,5,2.2,5,5-2.2,5-5,5ZM169.8,3393.3l-2.8,2.8-2.8-2.8-1.4,1.4,2.8,2.8-2.8,2.8,1.4,1.4,2.8-2.8,2.8,2.8,1.4-1.4-2.8-2.8,2.8-2.8-1.4-1.4Z"/>
  </g>
  <path class="cls-5" d="M143.4,3779.5c18.5,0,33.5,15,33.5,33.5s-15,33.5-33.5,33.5-33.5-15-33.5-33.5c0-18.5,15-33.5,33.5-33.5Z"/>
  <path class="cls-3" d="M141,3770.5v-2h-5v2h5ZM141,3762.5h-43v2h43v-2ZM98,3770.5h36v-2h-36v2ZM70,3828.5c-2.8,0-5-2.2-5-5v-100c0-2.8,2.2-5,5-5h57v16c0,4.4,3.6,8,8,8h16v34c.7.2,1.3.3,2,.5v-36.5h0l-24-24h-.1c0,.1-59.9.1-59.9.1-3.3,0-6,2.7-6,6v102c0,3.3,2.7,6,6,6h40.3c-.3-.7-.7-1.3-1-2h-38.3ZM129,3719.2l21.3,21.3h-15.3c-3.3,0-6-2.7-6-6v-15.3ZM65,3713.5h64v-2h-65c-3.3,0-6,2.7-6,6v102h2.1c0-.3,0-.7,0-1v-100c0-2.8,2.2-5,5-5ZM141,3756.5h-44v2h44v-2ZM118,3738.5h-36v2h36v-2ZM142.5,3792.5c-8.2,0-15.2,4.8-18.5,11.7v-7.7h-2v11h12v-2h-8.4c2.9-6.5,9.4-11,16.9-11s18.5,8.3,18.5,18.5-8.3,18.5-18.5,18.5-14-4.5-16.9-11h-2.2c3,7.6,10.4,13,19.1,13s20.5-9.2,20.5-20.5-9.2-20.5-20.5-20.5ZM142.5,3778.5c-19.1,0-34.5,15.4-34.5,34.5s15.4,34.5,34.5,34.5,34.5-15.4,34.5-34.5-15.4-34.5-34.5-34.5ZM142.5,3845.5c-17.9,0-32.5-14.6-32.5-32.5s14.6-32.5,32.5-32.5,32.5,14.6,32.5,32.5-14.6,32.5-32.5,32.5ZM141,3750.5h-66v2h66v-2ZM75,3738.5v2h5v-2h-5ZM75,3758.5h20v-2h-20v2ZM75,3746.5h43v-2h-43v2Z"/>
  <path class="cls-3" d="M73.5,3678.5c-2.5,0-4.5,2-4.5,4.5s2,4.5,4.5,4.5,4.5-2,4.5-4.5-2-4.5-4.5-4.5ZM73.5,3685.5c-1.4,0-2.5-1.1-2.5-2.5s1.1-2.5,2.5-2.5,2.5,1.1,2.5,2.5-1.1,2.5-2.5,2.5ZM29.8,3808.3l-2.8,2.8-2.8-2.8-1.4,1.4,2.8,2.8-2.8,2.8,1.4,1.4,2.8-2.8,2.8,2.8,1.4-1.4-2.8-2.8,2.8-2.8-1.4-1.4ZM219.5,3803.5c-2.5,0-4.5,2-4.5,4.5s2,4.5,4.5,4.5,4.5-2,4.5-4.5-2-4.5-4.5-4.5ZM219.5,3810.5c-1.4,0-2.5-1.1-2.5-2.5s1.1-2.5,2.5-2.5,2.5,1.1,2.5,2.5-1.1,2.5-2.5,2.5Z"/>
  <path class="cls-1" d="M7,3722.5c-3.9,0-7,3.1-7,7s3.1,7,7,7,7-3.1,7-7-3.1-7-7-7ZM7,3734.5c-2.8,0-5-2.2-5-5s2.2-5,5-5,5,2.2,5,5-2.2,5-5,5ZM163.8,3664.3l-2.8,2.8-2.8-2.8-1.4,1.4,2.8,2.8-2.8,2.8,1.4,1.4,2.8-2.8,2.8,2.8,1.4-1.4-2.8-2.8,2.8-2.8-1.4-1.4ZM242.2,3829.7l-1.4-1.4-2.8,2.8-2.8-2.8-1.4,1.4,2.8,2.8-2.8,2.8,1.4,1.4,2.8-2.8,2.8,2.8,1.4-1.4-2.8-2.8,2.8-2.8Z"/>
  <path class="cls-5" d="M143,4070.5c18.5,0,33.5,15,33.5,33.5s-15,33.5-33.5,33.5-33.5-15-33.5-33.5,15-33.5,33.5-33.5Z"/>
  <path class="cls-3" d="M141,4047.1h-44v2h44v-2ZM98,4061.1h36v-2h-36v2ZM141,4053.1h-43v2h43v-2ZM141,4061.1v-2h-5v2h5ZM70,4119.1c-2.8,0-5-2.2-5-5v-100c0-2.8,2.2-5,5-5h57v16c0,4.4,3.6,8,8,8h16v34c.7.2,1.3.3,2,.5v-36.5h0l-24-24h-.1c0,.1-59.9.1-59.9.1-3.3,0-6,2.7-6,6v102c0,3.3,2.7,6,6,6h40.3c-.3-.7-.7-1.3-1-2h-38.3ZM129,4009.8l21.3,21.3h-15.3c-3.3,0-6-2.7-6-6v-15.3ZM65,4004.1h64v-2h-65c-3.3,0-6,2.7-6,6v102h2.1c0-.3,0-.7,0-1v-100c0-2.8,2.2-5,5-5ZM142.5,4069.1c-19.1,0-34.5,15.4-34.5,34.5s15.4,34.5,34.5,34.5,34.5-15.4,34.5-34.5-15.4-34.5-34.5-34.5ZM142.5,4136.1c-17.9,0-32.5-14.6-32.5-32.5s14.6-32.5,32.5-32.5,32.5,14.6,32.5,32.5-14.6,32.5-32.5,32.5ZM75,4029.1v2h5v-2h-5ZM118,4029.1h-36v2h36v-2ZM141,4041.1h-66v2h66v-2ZM75,4049.1h20v-2h-20v2ZM75,4037.1h43v-2h-43v2ZM154.3,4090.3l-11.3,11.3-11.3-11.3-1.4,1.4,11.3,11.3-11.3,11.3,1.4,1.4,11.3-11.3,11.3,11.3,1.4-1.4-11.3-11.3,11.3-11.3-1.4-1.4Z"/>
  <path class="cls-3" d="M29.8,4098.3l-2.8,2.8-2.8-2.8-1.4,1.4,2.8,2.8-2.8,2.8,1.4,1.4,2.8-2.8,2.8,2.8,1.4-1.4-2.8-2.8,2.8-2.8-1.4-1.4ZM73.5,3968.5c-2.5,0-4.5,2-4.5,4.5s2,4.5,4.5,4.5,4.5-2,4.5-4.5-2-4.5-4.5-4.5ZM73.5,3975.5c-1.4,0-2.5-1.1-2.5-2.5s1.1-2.5,2.5-2.5,2.5,1.1,2.5,2.5-1.1,2.5-2.5,2.5ZM219.5,4093.5c-2.5,0-4.5,2-4.5,4.5s2,4.5,4.5,4.5,4.5-2,4.5-4.5-2-4.5-4.5-4.5ZM219.5,4100.5c-1.4,0-2.5-1.1-2.5-2.5s1.1-2.5,2.5-2.5,2.5,1.1,2.5,2.5-1.1,2.5-2.5,2.5Z"/>
  <path class="cls-1" d="M7,4012.5c-3.9,0-7,3.1-7,7s3.1,7,7,7,7-3.1,7-7-3.1-7-7-7ZM7,4024.5c-2.8,0-5-2.2-5-5s2.2-5,5-5,5,2.2,5,5-2.2,5-5,5ZM163.8,3954.3l-2.8,2.8-2.8-2.8-1.4,1.4,2.8,2.8-2.8,2.8,1.4,1.4,2.8-2.8,2.8,2.8,1.4-1.4-2.8-2.8,2.8-2.8-1.4-1.4ZM242.2,4119.7l-1.4-1.4-2.8,2.8-2.8-2.8-1.4,1.4,2.8,2.8-2.8,2.8,1.4,1.4,2.8-2.8,2.8,2.8,1.4-1.4-2.8-2.8,2.8-2.8Z"/>
  <path class="cls-5" d="M137,4610.5v-12h-4.8c-.5-1.9-1.3-3.8-2.3-5.5l3.4-3.4-8.5-8.5-3.4,3.4c-1.7-1-3.5-1.7-5.5-2.3v-4.8h-12v4.8c-1.7.5-3.3,1.1-4.8,1.9l-3.7-3.7-8.5,8.5,3.4,3.4c-1.1,1.9-2,3.9-2.6,6h-4.7v12h4.8c.5,1.9,1.3,3.8,2.3,5.5l-3.4,3.4,8.5,8.5,3.4-3.4c1.7,1,3.5,1.7,5.5,2.3v4.8h12v-4.8c2.2-.6,4.2-1.5,6-2.6l3.4,3.4,8.5-8.5-3.7-3.7c.8-1.5,1.4-3.1,1.9-4.8h4.8ZM110,4617.5c-7.2,0-13-5.8-13-13s5.8-13,13-13,13,5.8,13,13-5.8,13-13,13Z"/>
  <path class="cls-3" d="M136,4597.5h-3c-.5-1.5-1.1-2.9-1.8-4.3l2.2-2.2c.8-.8.8-2,0-2.8l-7.1-7.1c-.8-.8-2-.8-2.8,0l-2.2,2.2c-1.4-.7-2.8-1.3-4.3-1.8v-3c0-1.1-.9-2-2-2h-10c-1.1,0-2,.9-2,2v3c-1.5.5-2.9,1.1-4.3,1.8l-2.2-2.2c-.8-.8-2-.8-2.8,0l-7.1,7.1c-.8.8-.8,2,0,2.8l2.2,2.2c-.7,1.4-1.3,2.8-1.8,4.3h-3c-1.1,0-2,.9-2,2v10c0,1.1.9,2,2,2h3c.5,1.5,1.1,2.9,1.8,4.3l-2.2,2.2c-.8.8-.8,2,0,2.8l7.1,7.1c.8.8,2,.8,2.8,0l2.2-2.2c1.4.7,2.8,1.3,4.3,1.8v3c0,1.1.9,2,2,2h10c1.1,0,2-.9,2-2v-3c1.5-.5,2.9-1.1,4.3-1.8l2.2,2.2c.8.8,2,.8,2.8,0l7.1-7.1c.8-.8.8-2,0-2.8l-2.2-2.2c.7-1.4,1.3-2.8,1.8-4.3h3c1.1,0,2-.9,2-2v-10c0-1.1-.9-2-2-2ZM136,4609.5h-4.6c-.6,2.4-1.5,4.6-2.7,6.6l3.3,3.3-7.1,7.1-3.2-3.2c-2,1.3-4.2,2.2-6.6,2.8v4.6h-10v-4.6c-2.4-.6-4.6-1.5-6.6-2.8l-3.2,3.2-7.1-7.1,3.3-3.3c-1.2-2-2.2-4.2-2.7-6.6h-4.8v-10h4.6c.6-2.4,1.5-4.6,2.7-6.6l-3.3-3.3,7.1-7.1,3.2,3.2c2-1.3,4.2-2.2,6.6-2.8v-4.6h10v4.6c2.4.6,4.6,1.5,6.6,2.8l3.2-3.2,7.1,7.1-3.3,3.3c1.2,2,2.2,4.2,2.7,6.6h4.6v10h.2ZM110,4590.5c-7.7,0-14,6.3-14,14s6.3,14,14,14,14-6.3,14-14-6.3-14-14-14ZM110,4616.5c-6.6,0-12-5.4-12-12s5.4-12,12-12,12,5.4,12,12-5.4,12-12,12ZM80,4582.9v-1.4h1c.5-.7,1.1-1.4,1.7-2h-2.7v-21c7.3.1,14.5,1.4,21,3.1.5,2.2.9,4.4,1.2,6.7.6-.1,1.3-.3,2-.4-.3-2-.6-3.9-1-5.8,10.2,2.9,18.2,6.5,20.9,7.8v.3c.8.3,1.5.6,2.2,1-3.1-17.9-16.1-32.5-33.2-37.7h0c0-.1-.3-.1-.3-.1-4.3-1.3-8.9-2-13.7-2s-9.4.7-13.7,2h-.4c-19.7,6.1-34,24.4-34,46s14.3,39.9,33.9,45.9c0,.1,0,.1,0,.1h.3c4,1.2,8.3,1.9,12.7,2h2c.3,0,.6,0,1-.1-1.1-1.4-2.1-2.8-3-4.4v2.4c-4.1-.1-8.1-.7-11.9-1.8-1.7-3.5-5.3-11.8-7.9-22,4.7,1.2,9.7,2.1,14.8,2.5,0-.7,0-1.3,0-2-5.4-.5-10.6-1.4-15.4-2.7-1.4-5.7-2.4-11.8-2.6-18h23v4.4c.5-.8,1.2-1.9,1.9-2.8ZM123.5,4567.8c-3.2-1.5-11-5-20.9-7.7-2.5-10.7-6.4-19.7-8.3-23.9,14.2,5,25.3,16.8,29.2,31.6ZM80,4533.5c4.1.1,8.1.7,11.9,1.8,1.8,3.8,5.9,13,8.6,24.1-6.3-1.6-13.4-2.8-20.5-3v-22.9ZM66.1,4535.4c3.8-1.1,7.8-1.8,11.9-1.8v23c-7.1.1-14.1,1.2-20.4,2.9,2.6-11.2,6.7-20.4,8.5-24.1ZM63.7,4536.1c-2,4.2-5.8,13.2-8.3,23.8-9.8,2.7-17.7,6.3-20.9,7.8,3.9-14.7,15-26.6,29.2-31.6ZM34,4570c2.7-1.3,10.7-5.1,20.9-7.9-1.2,5.4-1.9,11.2-1.9,17v.4h-20c0-3.3.3-6.4,1-9.5ZM63.7,4622.9c-13.5-4.8-24.2-15.6-28.6-29.3,3.6,1.7,11.3,5,20.8,7.5,2.6,9.8,6,17.8,7.8,21.8ZM55.5,4599c-9.9-2.7-17.8-6.2-21-7.7-.8-3.1-1.3-6.4-1.5-9.7h20c.3,5.9,1.2,11.9,2.5,17.4ZM55,4579.5v-.3c0-6,.8-12,2.1-17.6,6.5-1.7,13.7-2.9,20.9-3v21h-23Z"/>
  <path class="cls-3" d="M23.8,4654.3l-2.8,2.8-2.8-2.8-1.4,1.4,2.8,2.8-2.8,2.8,1.4,1.4,2.8-2.8,2.8,2.8,1.4-1.4-2.8-2.8,2.8-2.8-1.4-1.4ZM159.5,4598.5c-2.5,0-4.5,2-4.5,4.5s2,4.5,4.5,4.5,4.5-2,4.5-4.5-2-4.5-4.5-4.5ZM159.5,4605.5c-1.4,0-2.5-1.1-2.5-2.5s1.1-2.5,2.5-2.5,2.5,1.1,2.5,2.5-1.1,2.5-2.5,2.5ZM76.5,4510.5c-2.5,0-4.5,2-4.5,4.5s2,4.5,4.5,4.5,4.5-2,4.5-4.5-2-4.5-4.5-4.5ZM76.5,4517.5c-1.4,0-2.5-1.1-2.5-2.5s1.1-2.5,2.5-2.5,2.5,1.1,2.5,2.5-1.1,2.5-2.5,2.5Z"/>
  <path class="cls-1" d="M151.2,4511.7l-1.4-1.4-2.8,2.8-2.8-2.8-1.4,1.4,2.8,2.8-2.8,2.8,1.4,1.4,2.8-2.8,2.8,2.8,1.4-1.4-2.8-2.8,2.8-2.8ZM7,4562.5c-3.9,0-7,3.1-7,7s3.1,7,7,7,7-3.1,7-7-3.1-7-7-7ZM7,4574.5c-2.8,0-5-2.2-5-5s2.2-5,5-5,5,2.2,5,5-2.2,5-5,5ZM124.8,4645.3l-2.8,2.8-2.8-2.8-1.4,1.4,2.8,2.8-2.8,2.8,1.4,1.4,2.8-2.8,2.8,2.8,1.4-1.4-2.8-2.8,2.8-2.8-1.4-1.4Z"/>
  <path class="cls-5" d="M188.4,4775.5c-2.3-1.1-5-.1-6.1,2.2l-28.9,53.2s4.6-.5,8.5,1.4c3.9,1.8,8.2,4.6,8.2,4.6l20.5-55.2c1.1-2.4.1-5.2-2.2-6.2ZM146.1,4836.4l-7.7,11.5,31.7,13.4s3-12.1,1.9-15.4c-1.1-3.2-9.8-12.4-25.9-9.5Z"/>
  <path class="cls-3" d="M200,4887.5v-4c0-2.2-1.8-4-4-4h-25v2h25c1.1,0,2,.9,2,2v35c0,1.1-.9,2-2,2H52c-1.1,0-2-.9-2-2v-35c0-1.1.9-2,2-2h42v-2h-42c-2.2,0-4,1.8-4,4v4h-3v27h3v4c0,2.2,1.8,4,4,4h17v2h12v-2h85v2h12v-2h18c2.2,0,4-1.8,4-4v-4h3v-27h-3ZM174.5,4913.5c6.9,0,12.5-5.6,12.5-12.5s-5.6-12.5-12.5-12.5-12.5,5.6-12.5,12.5,5.6,12.5,12.5,12.5ZM174.5,4890.5c5.8,0,10.5,4.7,10.5,10.5s-4.7,10.5-10.5,10.5-10.5-4.7-10.5-10.5,4.7-10.5,10.5-10.5ZM183,4901h-2c0,3.6-2.9,6.5-6.5,6.5v2c4.7,0,8.5-3.8,8.5-8.5Z"/>
  <path class="cls-3" d="M73,4914.4h2v-3h-2v3ZM67,4890.4h2v-3h-2v3ZM73,4909.4h2v-22h-2v22ZM61,4914.4h2v-3h-2v3ZM67,4914.4h2v-22h-2v22ZM79,4914.4h2v-22h-2v22ZM61,4909.4h2v-22h-2v22ZM91,4890.4h2v-3h-2v3ZM91,4914.4h2v-22h-2v22ZM97,4914.4h2v-3h-2v3ZM79,4890.4h2v-3h-2v3ZM97,4887.4v22h2v-22h-2ZM85,4909.4h2v-22h-2v22ZM85,4914.4h2v-3h-2v3Z"/>
  <path class="cls-18" d="M189,4775c-2.3-1.1-5.1-.1-6.2,2.2l-31.1,54.6s6.3-.9,10.3.9c4,1.9,8.4,4.7,8.4,4.7l20.8-56.3c1.2-2.2.2-5-2.2-6.1ZM144.8,4836.5c-10,28.2-47.8,38.2-47.8,38.2l14.3,8.6c12.9.3,25.8-9.6,25.8-9.6-3.8,5.5-22,13.4-22,13.4l22,10.5c12.6-10.4,14.3-13.4,14.3-13.4-.3,1.5-11.5,15.3-11.5,15.3,36.5-10.7,32.5-53.5,32.5-53.5-9.6-13.7-27.6-9.5-27.6-9.5Z"/>
  <path class="cls-3" d="M6.8,4902.3l-2.8,2.8-2.8-2.8-1.4,1.4,2.8,2.8-2.8,2.8,1.4,1.4,2.8-2.8,2.8,2.8,1.4-1.4-2.8-2.8,2.8-2.8-1.4-1.4ZM216.5,4856.5c-2.5,0-4.5,2-4.5,4.5s2,4.5,4.5,4.5,4.5-2,4.5-4.5-2-4.5-4.5-4.5ZM216.5,4863.5c-1.4,0-2.5-1.1-2.5-2.5s1.1-2.5,2.5-2.5,2.5,1.1,2.5,2.5-1.1,2.5-2.5,2.5ZM76.5,4777.5c-2.5,0-4.5,2-4.5,4.5s2,4.5,4.5,4.5,4.5-2,4.5-4.5-2-4.5-4.5-4.5ZM76.5,4784.5c-1.4,0-2.5-1.1-2.5-2.5s1.1-2.5,2.5-2.5,2.5,1.1,2.5,2.5-1.1,2.5-2.5,2.5Z"/>
  <path class="cls-18" d="M138.7,4847.9l32,14"/>
  <path class="cls-6" d="M65,4847.5c-3.9,0-7,3.1-7,7s3.1,7,7,7,7-3.1,7-7-3.1-7-7-7ZM65,4859.5c-2.8,0-5-2.2-5-5s2.2-5,5-5,5,2.2,5,5-2.2,5-5,5ZM214.8,4814.3l-2.8,2.8-2.8-2.8-1.4,1.4,2.8,2.8-2.8,2.8,1.4,1.4,2.8-2.8,2.8,2.8,1.4-1.4-2.8-2.8,2.8-2.8-1.4-1.4ZM265.2,4907.7l-1.4-1.4-2.8,2.8-2.8-2.8-1.4,1.4,2.8,2.8-2.8,2.8,1.4,1.4,2.8-2.8,2.8,2.8,1.4-1.4-2.8-2.8,2.8-2.8Z"/>
  <path class="cls-5" d="M122.4,5158.7l6.9-6.9,25.4,25.5-6.9,6.9-25.4-25.5Z"/>
  <path class="cls-3" d="M74.9,5107.4l-1.7-1.8c-4.1,4.4-6.6,10.4-6.6,16.9s2.5,12.5,6.6,17l1.7-1.7c-3.7-4-5.9-9.4-5.9-15.2,0-5.8,2.3-11.2,5.9-15.2ZM155.3,5176l-23.7-23.8c-.9-1-2.5-1-3.4,0l-1.3,1.3-5.8-5.8c6.1-6.6,9.8-15.5,9.8-25.2,0-20.5-16.5-37.1-36.9-37.1s-36.9,16.6-36.9,37.1,16.5,37.1,36.9,37.1,18.8-3.9,25.5-10.2l5.7,5.8-1.3,1.3c-.9,1-.9,2.5,0,3.4l23.7,23.8c.9,1,2.5,1,3.4,0l4.3-4.3c.9-.9.9-2.4,0-3.4ZM93.9,5157.3c-19.1,0-34.5-15.5-34.5-34.7s15.5-34.7,34.5-34.7,34.5,15.5,34.5,34.7-15.4,34.7-34.5,34.7ZM149.3,5182.1l-23.7-23.8,4.3-4.3,23.7,23.8-4.3,4.3Z"/>
  <path class="cls-3" d="M6.8,5148.3l-2.8,2.8-2.8-2.8-1.4,1.4,2.8,2.8-2.8,2.8,1.4,1.4,2.8-2.8,2.8,2.8,1.4-1.4-2.8-2.8,2.8-2.8-1.4-1.4ZM54.5,5023.5c-2.5,0-4.5,2-4.5,4.5s2,4.5,4.5,4.5,4.5-2,4.5-4.5-2-4.5-4.5-4.5ZM54.5,5030.5c-1.4,0-2.5-1.1-2.5-2.5s1.1-2.5,2.5-2.5,2.5,1.1,2.5,2.5-1.1,2.5-2.5,2.5ZM160.5,5120.5c-2.5,0-4.5,2-4.5,4.5s2,4.5,4.5,4.5,4.5-2,4.5-4.5-2-4.5-4.5-4.5ZM160.5,5127.5c-1.4,0-2.5-1.1-2.5-2.5s1.1-2.5,2.5-2.5,2.5,1.1,2.5,2.5-1.1,2.5-2.5,2.5Z"/>
  <path class="cls-1" d="M50,5079.5c-3.9,0-7,3.1-7,7s3.1,7,7,7,7-3.1,7-7-3.1-7-7-7ZM50,5091.5c-2.8,0-5-2.2-5-5s2.2-5,5-5,5,2.2,5,5-2.2,5-5,5ZM137.8,5052.3l-2.8,2.8-2.8-2.8-1.4,1.4,2.8,2.8-2.8,2.8,1.4,1.4,2.8-2.8,2.8,2.8,1.4-1.4-2.8-2.8,2.8-2.8-1.4-1.4ZM238.2,5153.7l-1.4-1.4-2.8,2.8-2.8-2.8-1.4,1.4,2.8,2.8-2.8,2.8,1.4,1.4,2.8-2.8,2.8,2.8,1.4-1.4-2.8-2.8,2.8-2.8Z"/>
  <path class="cls-5" d="M89.5,5346c8.3,0,15,6.7,15,15s-6.7,15-15,15-15-6.7-15-15,6.7-15,15-15Z"/>
  <path class="cls-3" d="M86.3,5355.7l-4.3,4.3,1.5,1.5,3.5-3.5v9.5h2v-9.5l3.5,3.5,1.5-1.5-4.3-4.3c-.5-.5-1.1-.7-1.7-.7h0c-.6,0-1.3.3-1.7.7ZM88.5,5344.5c-9.1,0-16.5,7.4-16.5,16.5s7.4,16.5,16.5,16.5,16.5-7.4,16.5-16.5-7.4-16.5-16.5-16.5ZM88.5,5375.5c-8,0-14.5-6.5-14.5-14.5s6.5-14.5,14.5-14.5,14.5,6.5,14.5,14.5-6.5,14.5-14.5,14.5ZM63,5368.7c-13.4,0-24.4-3.5-26-7.9v-9.1c4.1,4,14.2,6.8,26,6.8s4.9-.1,7.2-.4c0-.6.2-1.2.4-1.8-2.4.3-5,.4-7.6.4-13.4,0-24.4-3.5-26-7.9v-8.9c4.1,4,14.2,6.8,26,6.8s12.6-.9,17.4-2.3c1.1-.5,2.3-1,3.5-1.3,2.1-.9,3.9-2,5.1-3.1v2.6c.7,0,1.3.1,2,.2v-18.2h0v-.2c0-6-12.5-10.8-28-10.8s-28,4.8-28,10.8v.2h0l.4,37c2.2,5.1,13.7,9,27.6,9s6.4-.2,9.3-.6c-.3-.5-.6-1.1-.8-1.7-2.7.2-5.5.4-8.5.4ZM89,5337c-1.6,4.5-12.6,7.9-26,7.9s-24.4-3.5-26-7.9v-8.7c4.1,4,14.2,6.8,26,6.8s21.9-2.8,26-6.8v8.7ZM36.8,5324.3c0-5,11.7-9,26.2-9s26.2,4,26.2,9v.2l-.2.9c-1.6,4.5-12.6,7.9-26,7.9s-24.4-3.5-26-7.9l-.2-.9v-.2Z"/>
  <path class="cls-3" d="M25.5,5293.5c-2.5,0-4.5,2-4.5,4.5s2,4.5,4.5,4.5,4.5-2,4.5-4.5-2-4.5-4.5-4.5ZM25.5,5300.5c-1.4,0-2.5-1.1-2.5-2.5s1.1-2.5,2.5-2.5,2.5,1.1,2.5,2.5-1.1,2.5-2.5,2.5Z"/>
  <path class="cls-1" d="M7,5354.5c-3.9,0-7,3.1-7,7s3.1,7,7,7,7-3.1,7-7-3.1-7-7-7ZM7,5366.5c-2.8,0-5-2.2-5-5s2.2-5,5-5,5,2.2,5,5-2.2,5-5,5ZM113.2,5327.7l-1.4-1.4-2.8,2.8-2.8-2.8-1.4,1.4,2.8,2.8-2.8,2.8,1.4,1.4,2.8-2.8,2.8,2.8,1.4-1.4-2.8-2.8,2.8-2.8Z"/>
  <path class="cls-5" d="M42,5645.4v13.1c0,5,4,9,9,9h130c5,0,9-4,9-9v-13.1H42ZM116.5,5661.5c-1.4,0-2.5-1.1-2.5-2.5s1.1-2.5,2.5-2.5,2.5,1.1,2.5,2.5-1.1,2.5-2.5,2.5ZM88,5635.5h57c2.2,0,4-1.8,4-4v-78c0-2.2-1.8-4-4-4h-4v78c0,2.2-1.8,4-4,4h-53c0,2.2,1.8,4,4,4Z"/>
  <path class="cls-3" d="M88,5636.5h57c3.3,0,6-2.7,6-6v-77c0-3.3-2.7-6-6-6h-10v2h9c2.8,0,5,2.2,5,5v75c0,2.8-2.2,5-5,5h-55c-2.8,0-5-2.2-5-5v-75c0-2.8,2.2-5,5-5h8v-2h-9c-3.3,0-6,2.7-6,6v77c0,3.3,2.7,6,6,6ZM130,5552.5c0-3.3-2.7-6-6-6h-1c0-3.9-3.1-7-7-7s-7,3.1-7,7h-1c-3.3,0-6,2.7-6,6v2h28v-2ZM116,5549.5c-1.7,0-3-1.3-3-3s1.3-3,3-3,3,1.3,3,3-1.3,3-3,3ZM123,5591.9h-.2c0-.1-4.8,11.3-4.8,11.3l-6-25.5h0c0-.1,0-.4,0-.4l-.2-.7h-.2c0,.1-.5-1-.5-1l-.8,1.9h-.2c0,.1,0,.4,0,.4l-6.4,15.7h-7.7v2h9l5.7-14.8,6.3,26.8h2l-.4-1.5,5.5-12.5h6c.4,1.2,1.5,2,2.8,2s3-1.3,3-3-1.3-3-3-3-2.4.8-2.8,2h-7.1v.3ZM13,5696.5h5v-2h-5v2ZM207,5694.5v2h10v-2h-10ZM149,5693.5v-2c0-1.7-1.3-3-3-3h-4.9c-7.3-3.9-12.4-11.3-13-20h52.9c5.5,0,10-4.5,10-10v-84c0-5.5-4.5-10-10-10h-25v2h25c4.4,0,8,3.6,8,8v84c0,4.4-3.6,8-8,8H51c-4.4,0-8-3.6-8-8v-84c0-4.4,3.6-8,8-8h27v-2h-27c-5.5,0-10,4.5-10,10v84c0,5.5,4.5,10,10,10h53.9c-.7,8.7-5.8,16.1-13,20h-4.9c-1.7,0-3,1.3-3,3v2c0,.4,0,.7.2,1H20v2h185v-2h-56.2c0-.3.2-.6.2-1ZM147,5693.5c0,.6-.4,1-1,1h-59c-.6,0-1-.4-1-1v-2c0-.6.4-1,1-1h6v-.3c7.8-4.3,13.2-12.3,13.9-21.7h19.2c.7,9,5.7,16.7,13,21.1,4.1,2.5,1.9.9,1.9.9h5c.6,0,1,.4,1,1v2ZM113,5658c0,1.9,1.6,3.5,3.5,3.5s3.5-1.6,3.5-3.5-1.6-3.5-3.5-3.5-3.5,1.6-3.5,3.5ZM118,5658c0,.8-.7,1.5-1.5,1.5s-1.5-.7-1.5-1.5.7-1.5,1.5-1.5,1.5.7,1.5,1.5Z"/>
  <path class="cls-3" d="M20.8,5646.3l-2.8,2.8-2.8-2.8-1.4,1.4,2.8,2.8-2.8,2.8,1.4,1.4,2.8-2.8,2.8,2.8,1.4-1.4-2.8-2.8,2.8-2.8-1.4-1.4ZM206.5,5567.5c-2.5,0-4.5,2-4.5,4.5s2,4.5,4.5,4.5,4.5-2,4.5-4.5-2-4.5-4.5-4.5ZM206.5,5574.5c-1.4,0-2.5-1.1-2.5-2.5s1.1-2.5,2.5-2.5,2.5,1.1,2.5,2.5-1.1,2.5-2.5,2.5ZM153.5,5501.5c-2.5,0-4.5,2-4.5,4.5s2,4.5,4.5,4.5,4.5-2,4.5-4.5-2-4.5-4.5-4.5ZM153.5,5508.5c-1.4,0-2.5-1.1-2.5-2.5s1.1-2.5,2.5-2.5,2.5,1.1,2.5,2.5-1.1,2.5-2.5,2.5Z"/>
  <path class="cls-6" d="M8,5540.5c-3.9,0-7,3.1-7,7s3.1,7,7,7,7-3.1,7-7-3.1-7-7-7ZM8,5552.5c-2.8,0-5-2.2-5-5s2.2-5,5-5,5,2.2,5,5-2.2,5-5,5ZM216.2,5632.7l-1.4-1.4-2.8,2.8-2.8-2.8-1.4,1.4,2.8,2.8-2.8,2.8,1.4,1.4,2.8-2.8,2.8,2.8,1.4-1.4-2.8-2.8,2.8-2.8Z"/>
  <path class="cls-5" d="M180.2,5947.6l5.6-5.6,20.8,20.8-5.6,5.6-20.8-20.8Z"/>
  <path class="cls-5" d="M58,5933.8c-3.3,0-6-2.7-6-6v-12h-3v18c0,4.4,3.6,8,8,8h71.1c-2.3-2.4-4.3-5.1-5.8-8H58ZM179,5871.8H58c-3.3,0-6-2.7-6-6v-12h-3v18c0,4.4,3.6,8,8,8h114c4.4,0,8-3.6,8-8ZM118.5,5910.8c.5-2.8,1.2-5.5,2.3-8H49c0,4.4,3.6,8,8,8h61.5ZM176,5888.3c1,.8,2,1.7,3,2.6v-6.1h-3v3.5Z"/>
  <path class="cls-3" d="M72,5864.8v-2h-11v2h11ZM86,5896.7v-2h-11v2h11ZM72,5896.7v-2h-11v2h11ZM155,5864.8h11v-2h-11v2ZM58,5939.8c-4.4,0-8-3.6-8-8v-13c0-4.4,3.6-8,8-8h60.4c0-.7.2-1.3.3-2h-60.7c-4.4,0-8-3.6-8-8v-13c0-4.4,3.6-8,8-8h112c4.4,0,8,3.6,8,8v1.2c.7.6,1.4,1.3,2,1.9v-3.1c0-4-2.3-7.4-5.7-9,3.3-1.6,5.7-5,5.7-9v-13c0-4.5-2.9-8.3-7-9.5v2.1c2.9,1.2,5,4.1,5,7.4v13c0,4.4-3.6,8-8,8H58c-4.4,0-8-3.6-8-8v-13c0-4.4,3.6-8,8-8h102v-2H58c-5.5,0-10,4.5-10,10v13c0,4,2.3,7.4,5.7,9-3.3,1.6-5.7,5-5.7,9v13c0,4,2.3,7.4,5.7,9-3.3,1.6-5.7,5-5.7,9v13c0,5.5,4.5,10,10,10h71.1c-.7-.6-1.3-1.3-1.9-2H58ZM86,5864.8v-2h-11v2h11ZM167,5846.7h-5v2h5v-2ZM86,5927.8v-2h-11v2h11ZM150,5928.7h7v-21h-7v21ZM152,5909.8h3v17h-3v-17ZM207.4,5962.4l-20.6-20.6c-.8-.8-2.2-.8-3,0l-1.1,1.1-5-5c5.3-5.7,8.5-13.4,8.5-21.9,0-17.8-14.4-32.2-32.1-32.2s-32.1,14.4-32.1,32.2,14.4,32.2,32.1,32.2,16.4-3.4,22.1-8.9l5,5-1.1,1.1c-.8.8-.8,2.2,0,3l20.6,20.6c.8.8,2.2.8,3,0l3.7-3.7c.8-.7.8-2.1,0-2.9ZM154.1,5946.1c-16.6,0-30-13.5-30-30.1s13.4-30.1,30-30.1,30,13.5,30,30.1-13.4,30.1-30,30.1ZM202.2,5967.6l-20.6-20.6,3.7-3.7,20.6,20.6-3.7,3.7ZM159,5928.7h7v-28h-7v28ZM161,5902.8h3v24h-3v-24ZM141,5928.7h7v-15h-7v15ZM143,5915.8h3v11h-3v-11ZM72,5927.8v-2h-11v2h11Z"/>
  <path class="cls-3" d="M6.8,5936.5l-2.8,2.8-2.8-2.8-1.4,1.4,2.8,2.8-2.8,2.8,1.4,1.4,2.8-2.8,2.8,2.8,1.4-1.4-2.8-2.8,2.8-2.8-1.4-1.4ZM43.5,5802.7c-2.5,0-4.5,2-4.5,4.5s2,4.5,4.5,4.5,4.5-2,4.5-4.5-2-4.5-4.5-4.5ZM43.5,5809.8c-1.4,0-2.5-1.1-2.5-2.5s1.1-2.5,2.5-2.5,2.5,1.1,2.5,2.5-1.1,2.5-2.5,2.5ZM216.5,5890.8c-2.5,0-4.5,2-4.5,4.5s2,4.5,4.5,4.5,4.5-2,4.5-4.5-2-4.5-4.5-4.5ZM216.5,5897.7c-1.4,0-2.5-1.1-2.5-2.5s1.1-2.5,2.5-2.5,2.5,1.1,2.5,2.5-1.1,2.5-2.5,2.5Z"/>
  <path class="cls-1" d="M32,5900.8c-3.9,0-7,3.1-7,7s3.1,7,7,7,7-3.1,7-7-3.1-7-7-7ZM32,5912.8c-2.8,0-5-2.2-5-5s2.2-5,5-5,5,2.2,5,5-2.2,5-5,5ZM197.8,5796.5l-2.8,2.8-2.8-2.8-1.4,1.4,2.8,2.8-2.8,2.8,1.4,1.4,2.8-2.8,2.8,2.8,1.4-1.4-2.8-2.8,2.8-2.8-1.4-1.4ZM246.2,5918.9l-1.4-1.4-2.8,2.8-2.8-2.8-1.4,1.4,2.8,2.8-2.8,2.8,1.4,1.4,2.8-2.8,2.8,2.8,1.4-1.4-2.8-2.8,2.8-2.8Z"/>
  <g>
    <path class="cls-5" d="M118,6160.5v-12h-4.8c-.5-1.9-1.3-3.8-2.3-5.5l3.4-3.4-8.5-8.5-3.4,3.4c-1.7-1-3.5-1.7-5.5-2.3v-4.8h-11.9v4.8c-1.7.5-3.3,1.1-4.8,1.9l-3.7-3.7-8.5,8.5,3.4,3.4c-1.1,1.9-2,3.9-2.6,6h-4.8v12h4.8c.5,1.9,1.3,3.8,2.3,5.5l-3.4,3.4,8.5,8.5,3.4-3.4c1.7,1,3.5,1.7,5.5,2.3v4.8h12v-4.8c2.2-.6,4.2-1.5,6-2.6l3.4,3.4,8.5-8.5-3.7-3.7c.8-1.5,1.4-3.1,1.9-4.8h4.8,0ZM91,6167.5c-7.2,0-13-5.8-13-13s5.8-13,13-13,13,5.8,13,13-5.8,13-13,13Z"/>
    <path class="cls-3" d="M92,6109.5c-17.4,0-32.5,9.9-40,24.4v-11.4h-2v14h14v-2h-10.1c7.2-13.7,21.5-23,38.1-23,23.7,0,43,19.3,43,43s-19.3,43-43,43-39.7-16.1-42.6-37h-2c2.9,22,21.8,39,44.6,39s45-20.1,45-45-20.1-45-45-45ZM92,6168.5c7.7,0,14-6.3,14-14s-6.3-14-14-14-14,6.3-14,14,6.3,14,14,14ZM92,6142.5c6.6,0,12,5.4,12,12s-5.4,12-12,12-12-5.4-12-12,5.4-12,12-12ZM66,6147.5c-1.1,0-2,.9-2,2v10c0,1.1.9,2,2,2h3c.5,1.5,1.1,2.9,1.8,4.3l-2.2,2.2c-.8.8-.8,2,0,2.8l7.1,7.1c.8.8,2,.8,2.8,0l2.2-2.2c1.4.7,2.8,1.3,4.3,1.8v3c0,1.1.9,2,2,2h10c1.1,0,2-.9,2-2v-3c1.5-.5,2.9-1.1,4.3-1.8l2.2,2.2c.8.8,2,.8,2.8,0l7.1-7.1c.8-.8.8-2,0-2.8l-2.2-2.2c.7-1.4,1.3-2.8,1.8-4.3h3c1.1,0,2-.9,2-2v-10c0-1.1-.9-2-2-2h-3c-.5-1.5-1.1-2.9-1.8-4.3l2.2-2.2c.8-.8.8-2,0-2.8l-7.1-7.1c-.8-.8-2-.8-2.8,0l-2.2,2.2c-1.4-.7-2.8-1.3-4.3-1.8v-3c0-1.1-.9-2-2-2h-10c-1.1,0-2,.9-2,2v3c-1.5.5-2.9,1.1-4.3,1.8l-2.2-2.2c-.8-.8-2-.8-2.8,0l-7.1,7.1c-.8.8-.8,2,0,2.8l2.2,2.2c-.7,1.4-1.3,2.8-1.8,4.3h-3ZM73.3,6142.9l-3.3-3.3,7.1-7.1,3.2,3.2c2-1.3,4.2-2.2,6.6-2.8v-4.6h10v4.6c2.4.6,4.6,1.5,6.6,2.8l3.2-3.2,7.1,7.1-3.3,3.3c1.2,2,2.2,4.2,2.7,6.6h4.6v10h-4.6c-.6,2.4-1.5,4.6-2.7,6.6l3.3,3.3-7.1,7.1-3.2-3.2c-2,1.3-4.2,2.2-6.6,2.8v4.6h-9.9v-4.6c-2.4-.6-4.6-1.5-6.6-2.8l-3.2,3.2-7.1-7.1,3.3-3.3c-1.2-2-2.2-4.2-2.7-6.6h-4.7v-10h4.6c.5-2.4,1.5-4.6,2.7-6.6Z"/>
    <path class="cls-3" d="M32.8,6201.3l-2.8,2.8-2.8-2.8-1.4,1.4,2.8,2.8-2.8,2.8,1.4,1.4,2.8-2.8,2.8,2.8,1.4-1.4-2.8-2.8,2.8-2.8-1.4-1.4ZM60.5,6082.5c-2.5,0-4.5,2-4.5,4.5s2,4.5,4.5,4.5,4.5-2,4.5-4.5-2-4.5-4.5-4.5ZM60.5,6089.5c-1.4,0-2.5-1.1-2.5-2.5s1.1-2.5,2.5-2.5,2.5,1.1,2.5,2.5-1.1,2.5-2.5,2.5ZM152.5,6161.5c-2.5,0-4.5,2-4.5,4.5s2,4.5,4.5,4.5,4.5-2,4.5-4.5-2-4.5-4.5-4.5ZM152.5,6168.5c-1.4,0-2.5-1.1-2.5-2.5s1.1-2.5,2.5-2.5,2.5,1.1,2.5,2.5-1.1,2.5-2.5,2.5Z"/>
    <path class="cls-1" d="M181.2,6086.7l-1.4-1.4-2.8,2.8-2.8-2.8-1.4,1.4,2.8,2.8-2.8,2.8,1.4,1.4,2.8-2.8,2.8,2.8,1.4-1.4-2.8-2.8,2.8-2.8ZM7,6137.5c-3.9,0-7,3.1-7,7s3.1,7,7,7,7-3.1,7-7-3.1-7-7-7ZM7,6149.5c-2.8,0-5-2.2-5-5s2.2-5,5-5,5,2.2,5,5-2.2,5-5,5Z"/>
  </g>
  <g>
    <path class="cls-5" d="M99,6424c14.1,0,25.5,11.4,25.5,25.5s-11.4,25.5-25.5,25.5-25.5-11.4-25.5-25.5,11.4-25.5,25.5-25.5Z"/>
    <path class="cls-3" d="M75,6431.5h-26v2h24.6c.5-.7.9-1.4,1.4-2ZM49,6439.5h21.7c.2-.7.5-1.3.8-2h-22.5v2ZM44,6463.5c-2.8,0-5-2.2-5-5v-78c0-2.8,2.2-5,5-5h42v14c0,4.4,3.6,8,8,8h14v23.4c.7.2,1.3.5,2,.7v-26.1h0l-22-22h0c0,.1-1.9.1-1.9.1h-43c-3.3,0-6,2.7-6,6v80c0,3.3,2.7,6,6,6h30.6c-.4-.7-.8-1.3-1.2-2h-28.4ZM88,6376.2l19.3,19.3h-13.3c-3.3,0-6-2.7-6-6v-13.3ZM99,6422.5c-14.9,0-27,12.1-27,27s12.1,27,27,27,27-12.1,27-27-12.1-27-27-27ZM99,6474.5c-13.8,0-25-11.2-25-25s11.2-25,25-25,25,11.2,25,25-11.2,25-25,25ZM75,6425.5h-26v2h26v-2ZM100,6433.5h-2v19h13v-2h-11v-17Z"/>
    <path class="cls-3" d="M13,6447.1l-2.8,2.8-2.8-2.8-1.4,1.4,2.8,2.8-2.8,2.8,1.4,1.4,2.8-2.8,2.8,2.8,1.4-1.4-2.8-2.8,2.8-2.8-1.4-1.4ZM36.7,6347.4c-2.5,0-4.5,2-4.5,4.5s2,4.5,4.5,4.5,4.5-2,4.5-4.5-2-4.5-4.5-4.5ZM36.7,6354.4c-1.4,0-2.5-1.1-2.5-2.5s1.1-2.5,2.5-2.5,2.5,1.1,2.5,2.5-1.1,2.5-2.5,2.5ZM162.7,6442.4c-2.5,0-4.5,2-4.5,4.5s2,4.5,4.5,4.5,4.5-2,4.5-4.5-2-4.5-4.5-4.5ZM162.7,6449.4c-1.4,0-2.5-1.1-2.5-2.5s1.1-2.5,2.5-2.5,2.5,1.1,2.5,2.5-1.1,2.5-2.5,2.5Z"/>
    <path class="cls-1" d="M7,6389.5c-3.9,0-7,3.1-7,7s3.1,7,7,7,7-3.1,7-7-3.1-7-7-7ZM7,6401.5c-2.8,0-5-2.2-5-5s2.2-5,5-5,5,2.2,5,5-2.2,5-5,5ZM145.2,6362.7l-1.4-1.4-2.8,2.8-2.8-2.8-1.4,1.4,2.8,2.8-2.8,2.8,1.4,1.4,2.8-2.8,2.8,2.8,1.4-1.4-2.8-2.8,2.8-2.8Z"/>
  </g>
  <g>
    <path class="cls-3" d="M44.2,6706.5v2h42v-2h-42ZM84.2,6660.5c0-3.3-2.7-6-6-6h-1c0-3.9-3.1-7-7-7s-7,3.1-7,7h-1c-3.3,0-6,2.7-6,6v2h28v-2ZM70.2,6657.5c-1.7,0-3-1.3-3-3s1.3-3,3-3,3,1.3,3,3-1.3,3-3,3ZM97.2,6711.5h-53v2h53v-2ZM97.2,6701.5h-53v2h53v-2ZM44.2,6696.5v2h12v-2h-12ZM44.2,6686.5v2h27v-2h-27ZM102.2,6655.5h-10v2h9c2.8,0,5,2.2,5,5v79c0,2.8-2.2,5-5,5h-61c-2.8,0-5-2.2-5-5v-79c0-2.8,2.2-5,5-5h11v-2h-12c-3.3,0-6,2.7-6,6v81c0,3.3,2.7,6,6,6h63c3.3,0,6-2.7,6-6v-81c0-3.3-2.6-6-6-6ZM97.2,6681.5h-53v2h53v-2ZM97.2,6691.5h-53v2h53v-2ZM44.2,6718.5h22v-2h-22s0,2,0,2Z"/>
    <path class="cls-3" d="M7.1,6743.3l-2.8,2.8-2.8-2.8-1.4,1.4,2.8,2.8-2.8,2.8,1.4,1.4,2.8-2.8,2.8,2.8,1.4-1.4-2.8-2.8,2.8-2.8-1.4-1.4ZM155.7,6679.5c-2.5,0-4.5,2-4.5,4.5s2,4.5,4.5,4.5,4.5-2,4.5-4.5-2-4.5-4.5-4.5ZM155.7,6686.5c-1.4,0-2.5-1.1-2.5-2.5s1.1-2.5,2.5-2.5,2.5,1.1,2.5,2.5-1.1,2.5-2.5,2.5ZM4.7,6616.5c-2.5,0-4.5,2-4.5,4.5s2,4.5,4.5,4.5,4.5-2,4.5-4.5-2-4.5-4.5-4.5ZM4.7,6623.5c-1.4,0-2.5-1.1-2.5-2.5s1.1-2.5,2.5-2.5,2.5,1.1,2.5,2.5-1.1,2.5-2.5,2.5Z"/>
    <polygon class="cls-1" points="134.5 6721.7 133.1 6720.3 130.2 6723.1 127.4 6720.3 126 6721.7 128.8 6724.5 126 6727.3 127.4 6728.7 130.2 6725.9 133.1 6728.7 134.5 6727.3 131.7 6724.5 134.5 6721.7"/>
  </g>
  <g>
    <path class="cls-5" d="M73,6939.2c-.3.3-.5.6-.6,1,0,.2,0,.4,0,.6-1.2.3-2.3.8-3.3,1.3-2.3,1.6-4,3.5-4.6,5.8-1.1,3.4-.3,10.3,0,13.2,0,.2,0,.3,0,.5,0,.1.2.3,0,.4-1,.9.3-1.5-1.7.5h0c-1.1,1.2.2,4.1.8,5.7,0,1,.3,2.1.7,2.4v.7c0,1,.7,1.7,1,1.7h.3c1,5.1,2,9.5,5.8,12.2v4.8c-18.4,10.6-28.8,6.6-31.2,24h-12.4v-1.8c.5-23,9.9-17.2,28.3-27.8v-4.2c-3.4-2.4-4.3-6.4-5.2-10.9h-.3c-.3,0-.9-.6-.9-1.5v-.6c-.3-.3-.6-1.2-.6-2.1-.6-1.5-1.8-4-.7-5h0c1.8-1.8.6.3,1.5-.5,0-.1,0-.3,0-.4,0-.1,0-.3,0-.4-.4-2.6-1.1-8.7,0-11.8.6-2,2.1-3.8,4.1-5.2.8-.5,1.8-.8,2.9-1.1,0-.2,0-.4,0-.6.6-2.2,4.7-3,9.5-2.5,1.7,0,4.5.9,6.6,1.6Z"/>
    <path class="cls-18" d="M127,7023.5H39.1v-2.1c.5-26.2,11.3-19.7,32.3-31.7v-4.8c-3.8-2.7-4.9-7.3-5.9-12.4h-.4c-.3,0-1-.7-1-1.7v-.7c-.4-.3-.7-1.4-.7-2.4-.7-1.7-2-4.6-.9-5.7h0c2-2.1.7.4,1.7-.6,0-.1,0-.3,0-.4s0-.3,0-.5c-.4-3-1.2-10-.2-13.5.7-2.3,2.4-4.3,4.7-5.9.9-.5,2-.9,3.3-1.3,0-.2,0-.4,0-.6.7-2.5,5.4-3.4,10.8-2.9,3.6.4,10.9,3.3,10.9,3.5,1.3.3,2.4.8,3.4,1.3,2.3,1.6,4,3.6,4.7,5.9,1.1,3.5.3,10.5-.2,13.5,0,.2,0,.3,0,.5s0,.3,0,.5c0,.3,0,.5,0,.3.2-.2.8-.8,1.7.1h0c1.1,1.3-.2,4.2-.9,5.8,0,1-.3,2.1-.7,2.4v.7c0,1-.7,1.7-1,1.7h-.4c-1,5.2-2.1,9.7-5.9,12.4v4.8c21,12.1,31.8,5.5,32.3,31.7.4.7.4,1.4.4,2.1Z"/>
    <path class="cls-18" d="M35.2,7013.9h-6.8v-1.8c.4-22.6,9.7-17,27.9-27.4v-4.2c-3.3-2.4-4.2-6.3-5.1-10.7h-.2c-.3,0-.9-.6-.9-1.5v-.6c-.3-.3-.6-1.2-.6-2.1-.6-1.4-1.7-4-.7-4.9h0c1.7-1.8.6.3,1.5-.5,0-.1,0-.2,0-.4,0-.1,0-.3,0-.4-.4-2.6-1.1-8.6,0-11.6.6-2,2.1-3.7,4.1-5.1.8-.4,1.8-.8,2.9-1.1,0-.2,0-.4,0-.5.6-2.2,4.6-3,9.4-2.5"/>
    <path class="cls-3" d="M13,7007.1l-2.8,2.8-2.8-2.8-1.4,1.4,2.8,2.8-2.8,2.8,1.4,1.4,2.8-2.8,2.8,2.8,1.4-1.4-2.8-2.8,2.8-2.8-1.4-1.4ZM162.7,7002.4c-2.5,0-4.5,2-4.5,4.5s2,4.5,4.5,4.5,4.5-2,4.5-4.5-2-4.5-4.5-4.5ZM162.7,7009.4c-1.4,0-2.5-1.1-2.5-2.5s1.1-2.5,2.5-2.5,2.5,1.1,2.5,2.5-1.1,2.5-2.5,2.5ZM69.1,6898.8c-2.5,0-4.5,2-4.5,4.5s2,4.5,4.5,4.5,4.5-2,4.5-4.5-2-4.5-4.5-4.5ZM69.1,6905.8c-1.4,0-2.5-1.1-2.5-2.5s1.1-2.5,2.5-2.5,2.5,1.1,2.5,2.5-1.1,2.5-2.5,2.5Z"/>
    <path class="cls-1" d="M135.5,6953.7l-1.4-1.4-2.8,2.8-2.8-2.8-1.4,1.4,2.8,2.8-2.8,2.8,1.4,1.4,2.8-2.8,2.8,2.8,1.4-1.4-2.8-2.8,2.8-2.8ZM7,6949.5c-3.9,0-7,3.1-7,7s3.1,7,7,7,7-3.1,7-7-3.1-7-7-7ZM7,6961.5c-2.8,0-5-2.2-5-5s2.2-5,5-5,5,2.2,5,5-2.2,5-5,5Z"/>
  </g>
  <g>
    <path class="cls-5" d="M78.2,7241.5c11,0,20,9,20,20s-9,20-20,20-20-9-20-20c0-11.1,9-20,20-20Z"/>
    <path class="cls-3" d="M78.2,7240.5c-11.6,0-21,9.4-21,21s9.4,21,21,21,21-9.4,21-21-9.4-21-21-21ZM78.2,7280.5c-10.5,0-19-8.5-19-19s8.5-19,19-19,19,8.5,19,19-8.5,19-19,19ZM120.2,7250.5h-5.6c-.7-2.4-1.7-4.7-2.9-6.9l4-4c.8-.8.8-2,0-2.8l-12.7-12.8c-.8-.8-2-.8-2.8,0l-4,4c-2.2-1.2-4.5-2.1-6.9-2.9v-5.6c0-1.1-.9-2-2-2h-18c-1.1,0-2,.9-2,2v5.6c-2.4.7-4.7,1.7-6.9,2.9l-4-4c-.8-.8-2-.8-2.8,0l-12.7,12.7c-.8.8-.8,2,0,2.8l4,4c-1.2,2.2-2.1,4.5-2.9,6.9h-5.6c-1.1,0-2,.9-2,2v18c0,1.1.9,2,2,2h5.6c.7,2.4,1.7,4.7,2.9,6.9l-4,4c-.8.8-.8,2,0,2.8l12.7,12.7c.8.8,2,.8,2.8,0l4-4c2.2,1.2,4.5,2.1,6.9,2.9v5.6c0,1.1.9,2,2,2h18c1.1,0,2-.9,2-2v-5.6c2.4-.7,4.7-1.7,6.9-2.9l4,4c.8.8,2,.8,2.8,0l12.7-12.7c.8-.8.8-2,0-2.8l-4-4c1.2-2.2,2.1-4.5,2.9-6.9h5.6c1.1,0,2-.9,2-2v-18c0-1-.9-1.9-2-1.9ZM120.2,7270.5h-7.1c-.8,3.3-2.2,6.4-3.9,9.3l5.1,5.1-12.7,12.7-5.1-5.1c-2.9,1.7-6,3-9.3,3.9v7.1h-18v-7.1c-3.3-.9-6.4-2.2-9.3-3.9l-5.1,5.1-12.7-12.7,5.1-5.1c-1.7-2.9-3-6-3.9-9.3h-7.1v-18h7.1c.8-3.3,2.2-6.4,3.9-9.3l-5.1-5.1,12.7-12.7,5.1,5.1c2.9-1.7,6-3,9.3-3.9v-7.1h18v7.1c3.3.9,6.4,2.2,9.3,3.9l5.1-5.1,12.7,12.7-5.1,5.1c1.7,2.9,3,6,3.9,9.3h7.1v18Z"/>
    <path class="cls-3" d="M7.1,7303.5l-2.8,2.8-2.8-2.8-1.4,1.4,2.8,2.8-2.8,2.8,1.4,1.4,2.8-2.8,2.8,2.8,1.4-1.4-2.8-2.8,2.8-2.8-1.4-1.4ZM117.7,7183.3c-2.5,0-4.5,2-4.5,4.5s2,4.5,4.5,4.5,4.5-2,4.5-4.5-2-4.5-4.5-4.5ZM117.7,7190.3c-1.4,0-2.5-1.1-2.5-2.5s1.1-2.5,2.5-2.5,2.5,1.1,2.5,2.5-1.1,2.5-2.5,2.5ZM164.9,7282.4c-2.5,0-4.5,2-4.5,4.5s2,4.5,4.5,4.5,4.5-2,4.5-4.5-2-4.5-4.5-4.5ZM164.9,7289.4c-1.4,0-2.5-1.1-2.5-2.5s1.1-2.5,2.5-2.5,2.5,1.1,2.5,2.5-1.1,2.5-2.5,2.5Z"/>
    <path class="cls-1" d="M137.7,7233.7l-1.4-1.4-2.8,2.8-2.8-2.8-1.4,1.4,2.8,2.8-2.8,2.8,1.4,1.4,2.8-2.8,2.8,2.8,1.4-1.4-2.8-2.8,2.8-2.8ZM9.2,7229.5c-3.9,0-7,3.1-7,7s3.1,7,7,7,7-3.1,7-7-3.1-7-7-7ZM9.2,7241.5c-2.8,0-5-2.2-5-5s2.2-5,5-5,5,2.2,5,5-2.2,5-5,5Z"/>
  </g>
  <g>
    <path class="cls-5" d="M37.2,7528.8h89v5c0,4.4-3.6,8-8,8H45.2c-4.4,0-8-3.6-8-8,0,0,0-5,0-5Z"/>
    <path class="cls-3" d="M90.2,7474.3c0-2.7-2.2-4.8-4.8-4.8h-.2c0-.2,0-.3,0-.5,0-1.9-1.6-3.5-3.5-3.5s-3.5,1.6-3.5,3.5,0,.3,0,.5h-.2c-2.7,0-4.8,2.2-4.8,4.8v.2h17v-.2h-.2ZM81.7,7470.5c-.8,0-1.5-.7-1.5-1.5s.7-1.5,1.5-1.5,1.5.7,1.5,1.5-.6,1.5-1.5,1.5ZM67.2,7523.5h30c3.3,0,6-2.7,6-6v-42c0-3.3-2.7-6-6-6h-4v2h4c2.2,0,4,1.8,4,4v42c0,2.2-1.8,4-4,4h-30c-2.2,0-4-1.8-4-4v-42c0-2.2,1.8-4,4-4h3v-2h-3c-3.3,0-6,2.7-6,6v42c0,3.3,2.7,6,6,6ZM85.2,7495.5l-2.7,5.4-3.4-13.1v-.3c0,0-.2-.2-.2-.2l-.7-2.8-1,3h0l-3.9,10h-4.2v2h4.7c0-.1,0-.5,0-.5l.3.4,3.8-9.1,3.4,12.8v.3c0,0,.3.9.3.9l.6,2.1,1-3,3-6h4.3c.3.6,1,1,1.7,1,1.1,0,2-.9,2-2s-.9-2-2-2-1.4.4-1.7,1h-5.4s0,.1,0,.1ZM136.2,7557.5v2h6v-2h-6ZM101.2,7557.1v-1.2c0-1.3-1.1-2.4-2.4-2.4h-4.6v.2c-3.4-2.6-5.6-6.6-5.9-11.2h30.9c4.4,0,8-3.6,8-8v-47c0-4.4-3.6-8-8-8h-13.8v2h13.8c3.3,0,6,2.7,6,6v47c0,3.3-2.7,6-6,6H44.2c-3.3,0-6-2.7-6-6v-47c0-3.3,2.7-6,6-6h14.1v-2h-14.1c-4.4,0-8,3.6-8,8v47c0,4.4,3.6,8,8,8h30.1c-.3,4.6-2.6,8.7-6.1,11.3v-.3h-3.6c-1.3,0-2.4,1.1-2.4,2.4v1.6H23.2v2h112v-2h-34c0-.1,0-.3,0-.4ZM96.4,7554.7v.4c-.2-.1-.4-.2-.6-.4h.6ZM98.2,7557.5h-33c-.6,0-1-.4-1-1s.4-1,1-1h3.6c4.1-2.9,7-7.7,7.4-13h10.1c.4,5.1,3.6,10,7.5,13h4.4c.6,0,1,.4,1,1s-.4,1-1,1ZM19.2,7559.5h3v-2h-3v2ZM79.5,7535.3c0,1.2.9,2.1,2.1,2.1s2.1-1,2.1-2.1-.9-2.1-2.1-2.1c-1.2,0-2.1.9-2.1,2.1Z"/>
    <path class="cls-3" d="M7.1,7532.3l-2.8,2.8-2.8-2.8-1.4,1.4,2.8,2.8-2.8,2.8,1.4,1.4,2.8-2.8,2.8,2.8,1.4-1.4-2.8-2.8,2.8-2.8-1.4-1.4ZM164.7,7536.5c-2.5,0-4.5,2-4.5,4.5s2,4.5,4.5,4.5,4.5-2,4.5-4.5-2-4.5-4.5-4.5ZM164.7,7543.5c-1.4,0-2.5-1.1-2.5-2.5s1.1-2.5,2.5-2.5,2.5,1.1,2.5,2.5-1.1,2.5-2.5,2.5Z"/>
    <path class="cls-1" d="M31.2,7437.5c-3.3,0-6,2.7-6,6s2.7,6,6,6,6-2.7,6-6-2.6-6-6-6ZM31.2,7447.5c-2.2,0-4-1.8-4-4s1.8-4,4-4,4,1.8,4,4-1.7,4-4,4ZM144.5,7483.7l-1.4-1.4-2.8,2.8-2.8-2.8-1.4,1.4,2.8,2.8-2.8,2.8,1.4,1.4,2.8-2.8,2.8,2.8,1.4-1.4-2.8-2.8,2.8-2.8Z"/>
  </g>
  <path class="cls-5" d="M37.2,7768.8h89v5c0,4.4-3.6,8-8,8H45.2c-4.4,0-8-3.6-8-8,0,0,0-5,0-5Z"/>
  <g>
    <path class="cls-7" d="M81.6,7773.2c-1.2,0-2.1,1-2.1,2.1s.9,2.1,2.1,2.1,2.1-1,2.1-2.1-1-2.1-2.1-2.1Z"/>
    <rect class="cls-7" x="19" y="7798" width="3" height="2"/>
    <rect class="cls-7" x="136" y="7798" width="6" height="2"/>
    <path class="cls-7" d="M96,7795v.3c-.2-.1-.4-.2-.6-.3h.6ZM102.2,7722h16.8c3.3,0,6,2.7,6,6v47c0,3.3-2.7,6-6,6H44c-3.3,0-6-2.7-6-6v-47c0-3.3,2.7-6,6-6h15.3l.4-2h-15.7c-4.4,0-8,3.6-8,8v47c0,4.4,3.6,8,8,8h30.3c-.3,4.7-2.7,8.9-6.3,11.5v-.5h-3.6c-1.3,0-2.4,1.1-2.4,2.4v1.6H23v2h112v-2h-34v-1.6c0-1.3-1.1-2.4-2.4-2.4h-4.6c-3.3-2.6-5.4-6.5-5.7-11h30.7c4.4,0,8-3.6,8-8v-47c0-4.4-3.6-8-8-8h-17.2l.4,2ZM67,7795h.2c0,0,0,.1-.2.1h0ZM98.2,7798h-33c-.6,0-1-.4-1-1s.4-1,1-1h3.6c4.1-2.9,7-7.7,7.4-13h10.1c.4,5.1,3.6,10,7.5,13h4.4c.6,0,1,.4,1,1s-.4,1-1,1Z"/>
  </g>
  <path class="cls-3" d="M7.1,7772.3l-2.8,2.8-2.8-2.8-1.4,1.4,2.8,2.8-2.8,2.8,1.4,1.4,2.8-2.8,2.8,2.8,1.4-1.4-2.8-2.8,2.8-2.8-1.4-1.4ZM164.7,7776.5c-2.5,0-4.5,2-4.5,4.5s2,4.5,4.5,4.5,4.5-2,4.5-4.5-2-4.5-4.5-4.5ZM164.7,7783.5c-1.4,0-2.5-1.1-2.5-2.5s1.1-2.5,2.5-2.5,2.5,1.1,2.5,2.5-1.1,2.5-2.5,2.5Z"/>
  <path class="cls-1" d="M31.2,7677.5c-3.3,0-6,2.7-6,6s2.7,6,6,6,6-2.7,6-6-2.6-6-6-6ZM31.2,7687.5c-2.2,0-4-1.8-4-4s1.8-4,4-4,4,1.8,4,4-1.7,4-4,4ZM144.5,7723.7l-1.4-1.4-2.8,2.8-2.8-2.8-1.4,1.4,2.8,2.8-2.8,2.8,1.4,1.4,2.8-2.8,2.8,2.8,1.4-1.4-2.8-2.8,2.8-2.8Z"/>
  <path class="cls-18" d="M99.9,7725c0,4.6-1.6,8.8-4.4,12.2h0c0,.1-14.8,18.1-14.8,18.1l-15-18.3c-2.6-3.3-4.2-7.4-4.2-11.9,0-10.6,8.6-19.2,19.2-19.2s19.2,8.5,19.2,19.1Z"/>
  <circle class="cls-18" cx="80.7" cy="7723.9" r="7.7"/>
  <circle class="cls-4" cx="81.3" cy="7724.6" r="6.1"/>
  <path class="cls-5" d="M37.2,8001.8h89v5c0,4.4-3.6,8-8,8H45.2c-4.4,0-8-3.6-8-8,0,0,0-5,0-5Z"/>
  <g>
    <path class="cls-7" d="M81.6,8006.2c-1.2,0-2.1,1-2.1,2.1s.9,2.1,2.1,2.1,2.1-1,2.1-2.1-1-2.1-2.1-2.1Z"/>
    <rect class="cls-7" x="19" y="8031" width="3" height="2"/>
    <rect class="cls-7" x="136" y="8031" width="6" height="2"/>
    <path class="cls-7" d="M101,8031v-1.6c0-1.3-1.1-2.4-2.4-2.4h-4.6c-3.3-2.6-5.4-6.5-5.7-11h30.7c4.4,0,8-3.6,8-8v-18.2c-.7.2-1.3.4-2,.6v17.6c0,3.3-2.7,6-6,6H44c-3.3,0-6-2.7-6-6v-47c0-3.3,2.7-6,6-6h47.5c.2-.7.4-1.4.7-2h-48.2c-4.4,0-8,3.6-8,8v47c0,4.4,3.6,8,8,8h30.3c-.3,4.7-2.7,8.9-6.3,11.5v-.5h-3.6c-1.3,0-2.4,1.1-2.4,2.4v1.6H23v2h112v-2h-34ZM96,8028v.3c-.2-.1-.4-.2-.6-.3h.6ZM67,8028h.2q0,.1-.2.1h0ZM98.2,8031h-33c-.5,0-1-.4-1-1s.5-1,1-1h3.6c4.1-2.9,7-7.7,7.4-13h10.1c.4,5.1,3.7,10,7.5,13h4.4c.6,0,1,.5,1,1s-.4,1-1,1Z"/>
  </g>
  <path class="cls-3" d="M7.1,8005.3l-2.8,2.8-2.8-2.8-1.4,1.4,2.8,2.8-2.8,2.8,1.4,1.4,2.8-2.8,2.8,2.8,1.4-1.4-2.8-2.8,2.8-2.8-1.4-1.4ZM164.7,8009.5c-2.5,0-4.5,2-4.5,4.5s2,4.5,4.5,4.5,4.5-2,4.5-4.5-2-4.5-4.5-4.5ZM164.7,8016.5c-1.4,0-2.5-1.1-2.5-2.5s1.1-2.5,2.5-2.5,2.5,1.1,2.5,2.5-1.1,2.5-2.5,2.5Z"/>
  <path class="cls-1" d="M31.2,7910.5c-3.3,0-6,2.7-6,6s2.7,6,6,6,6-2.7,6-6-2.6-6-6-6ZM31.2,7920.5c-2.2,0-4-1.8-4-4s1.8-4,4-4,4,1.8,4,4-1.7,4-4,4ZM164.5,7947.4l-1.4-1.4-2.8,2.8-2.8-2.8-1.4,1.4,2.8,2.8-2.8,2.8,1.4,1.4,2.8-2.8,2.8,2.8,1.4-1.4-2.8-2.8,2.8-2.8Z"/>
  <path class="cls-7" d="M117.8,7989c-13.9,0-25.3-11.3-25.3-25.3s11.3-25.3,25.3-25.3,25.3,11.3,25.3,25.3-11.4,25.3-25.3,25.3ZM117.8,7940.5c-12.8,0-23.3,10.4-23.3,23.3s10.4,23.3,23.3,23.3,23.3-10.4,23.3-23.3-10.5-23.3-23.3-23.3Z"/>
  <circle class="cls-4" cx="119.5" cy="7965.5" r="21.5"/>
  <g>
    <line class="cls-18" x1="109.2" y1="7955.2" x2="126.3" y2="7972.3"/>
    <line class="cls-18" x1="109.2" y1="7972.3" x2="126.3" y2="7955.2"/>
  </g>
  <path class="cls-3" d="M6.8,8302.5l-2.8,2.8-2.8-2.8-1.4,1.4,2.8,2.8-2.8,2.8,1.4,1.4,2.8-2.8,2.8,2.8,1.4-1.4-2.8-2.8,2.8-2.8-1.4-1.4ZM43.5,8168.8c-2.5,0-4.5,2-4.5,4.5s2,4.5,4.5,4.5,4.5-2,4.5-4.5-2-4.5-4.5-4.5ZM43.5,8175.8c-1.4,0-2.5-1.1-2.5-2.5s1.1-2.5,2.5-2.5,2.5,1.1,2.5,2.5-1.1,2.5-2.5,2.5ZM216.5,8256.8c-2.5,0-4.5,2-4.5,4.5s2,4.5,4.5,4.5,4.5-2,4.5-4.5-2-4.5-4.5-4.5ZM216.5,8263.8c-1.4,0-2.5-1.1-2.5-2.5s1.1-2.5,2.5-2.5,2.5,1.1,2.5,2.5-1.1,2.5-2.5,2.5Z"/>
  <path class="cls-1" d="M32,8266.8c-3.9,0-7,3.1-7,7s3.1,7,7,7,7-3.1,7-7-3.1-7-7-7ZM32,8278.8c-2.8,0-5-2.2-5-5s2.2-5,5-5,5,2.2,5,5-2.2,5-5,5ZM197.8,8162.5l-2.8,2.8-2.8-2.8-1.4,1.4,2.8,2.8-2.8,2.8,1.4,1.4,2.8-2.8,2.8,2.8,1.4-1.4-2.8-2.8,2.8-2.8-1.4-1.4ZM246.2,8284.9l-1.4-1.4-2.8,2.8-2.8-2.8-1.4,1.4,2.8,2.8-2.8,2.8,1.4,1.4,2.8-2.8,2.8,2.8,1.4-1.4-2.8-2.8,2.8-2.8Z"/>
  <path class="cls-3" d="M75.5,8221.5v-2h-11v2h11ZM89.5,8221.5v-2h-11v2h11ZM61.5,8296.5c-4.4,0-8-3.6-8-8v-13c0-4.4,3.6-8,8-8h75.8c.3-.7.6-1.3.9-2H61.5c-4.4,0-8-3.6-8-8v-13c0-4.4,3.6-8,8-8h112c4.4,0,8,3.6,8,8v2.7c.7.2,1.3.5,2,.7v-3.4c0-4-2.3-7.4-5.7-9,3.3-1.6,5.7-5,5.7-9v-13c0-4.5-2.9-8.3-7-9.5v2.1c2.9,1.2,5,4.1,5,7.4v13c0,4.4-3.6,8-8,8H61.5c-4.4,0-8-3.6-8-8v-13c0-4.4,3.6-8,8-8h102v-2H61.5c-5.5,0-10,4.5-10,10v13c0,4,2.3,7.4,5.7,9-3.3,1.6-5.7,5-5.7,9v13c0,4,2.3,7.4,5.7,9-3.3,1.6-5.7,5-5.7,9v13c0,5.5,4.5,10,10,10h77.3c-.4-.7-.7-1.3-1-2H61.5ZM158.5,8221.5h11v-2h-11v2ZM170.5,8203.5h-5v2h5v-2ZM75.5,8284.5v-2h-11v2h11ZM171.5,8259.5h-2v24h0l13.8,8,1-1.7-12.9-7.4v-22.9h0ZM170.6,8249.5c-17.7,0-32.1,14.4-32.1,32.2s14.4,32.2,32.1,32.2,2.3,0,3.5-.2l-7.7,5.5,1.2,1.6,10.5-7.6-1.2-1.6-6.4-8.9-1.6,1.2,5.5,7.7c-1.2.2-2.5.2-3.8.2-16.6,0-30-13.5-30-30.1s13.4-30.1,30-30.1,30,13.5,30,30.1-2.3,13.2-6.2,18.3l1.6,1.4c4.2-5.4,6.7-12.3,6.7-19.7,0-17.8-14.4-32.2-32.1-32.2ZM89.5,8284.5v-2h-11v2h11ZM75.5,8253.5v-2h-11v2h11ZM89.5,8253.5v-2h-11v2h11Z"/>
  <g>
    <path class="cls-5" d="M77.9,8486v16.8c0,0,3.4,4.5,15.1,5.1,0,0,19.8,1.7,17.6-11.8l-.2-12.2s-8.1-4.2-15.3-4.1c-6.9,0-19.1,2.2-17.2,6.2Z"/>
    <path class="cls-3" d="M32.8,8539.2l-2.8,2.8-2.8-2.8-1.4,1.4,2.8,2.8-2.8,2.8,1.4,1.4,2.8-2.8,2.8,2.8,1.4-1.4-2.8-2.8,2.8-2.8-1.4-1.4ZM60.5,8420.4c-2.5,0-4.5,2-4.5,4.5s2,4.5,4.5,4.5,4.5-2,4.5-4.5-2-4.5-4.5-4.5ZM60.5,8427.4c-1.4,0-2.5-1.1-2.5-2.5s1.1-2.5,2.5-2.5,2.5,1.1,2.5,2.5-1.1,2.5-2.5,2.5ZM152.5,8499.4c-2.5,0-4.5,2-4.5,4.5s2,4.5,4.5,4.5,4.5-2,4.5-4.5-2-4.5-4.5-4.5ZM152.5,8506.4c-1.4,0-2.5-1.1-2.5-2.5s1.1-2.5,2.5-2.5,2.5,1.1,2.5,2.5-1.1,2.5-2.5,2.5Z"/>
    <path class="cls-1" d="M181.2,8424.6l-1.4-1.4-2.8,2.8-2.8-2.8-1.4,1.4,2.8,2.8-2.8,2.8,1.4,1.4,2.8-2.8,2.8,2.8,1.4-1.4-2.8-2.8,2.8-2.8ZM7,8475.4c-3.9,0-7,3.1-7,7s3.1,7,7,7,7-3.1,7-7-3.1-7-7-7ZM7,8487.4c-2.8,0-5-2.2-5-5s2.2-5,5-5,5,2.2,5,5-2.2,5-5,5Z"/>
    <g>
      <g>
        <path class="cls-3" d="M52.4,8524.4v-11.3c-.5-.9-.9-1.8-1.3-2.7h-.7v14h2ZM64.4,8512.4v-2h-11.1c.3.7.6,1.3,1,2h10.1ZM106.2,8533.1c-1.3.4-2.6.8-3.9,1.1,1.3-.2,2.6-.6,3.9-1.1ZM110.1,8531.6c-1,.4-1.9.8-2.9,1.2,1-.4,1.9-.8,2.9-1.2ZM114.9,8529.1c-.2,0-.3.2-.5.3-.5.3-.9.5-1.4.8.4-.2.8-.4,1.2-.7h0c.2-.2.4-.3.7-.4ZM130.5,8516.3c-5.6,8.8-14.1,15.6-24.2,18.9,10.2-3.3,18.7-10,24.2-18.9ZM133.5,8510.7c-.4.9-.8,1.8-1.3,2.7.5-.9.9-1.8,1.3-2.7ZM136.5,8501.5c-.3,1.3-.6,2.7-1,3.9.4-1.3.7-2.6,1-3.9ZM103.3,8448.7c-.9-.2-1.8-.4-2.7-.6.9.2,1.8.4,2.7.6ZM132.4,8471.8h0c-5.5-10.7-15.1-18.9-26.8-22.4,11.7,3.6,21.3,11.7,26.8,22.4Z"/>
        <path class="cls-3" d="M137.4,8492.4c0-2.5-.2-4.9-.6-7.3h-2c.4,2.4.6,4.8.6,7.3,0,14.1-6.8,26.7-17.4,34.5h0c0,0,0,.2,0,.2-.6.4-1.2.8-1.8,1.2-.2.2-.5.3-.7.5-.2,0-.3.2-.5.3,0,0-.3.2-.4.3h0s0,0-.2,0h0c-.4.2-.8.5-1.2.7,0,0,0,0-.2,0,0,0-.2,0-.2,0,0,0-.3.2-.4.2-.7.3-1.3.7-2,1-1,.4-1.9.8-2.9,1.2-.3,0-.7.2-1,.3-1.3.4-2.6.8-3.9,1.1-.8.2-1.5.3-2.3.5-.7,0-1.4.2-2.1.3-.2,0-.5,0-.7,0-.3,0-.5,0-.8,0s-.5,0-.7,0c-.4,0-.7,0-1.1,0-.7,0-1.5,0-2.2,0h-2.6c-.2,0-.5,0-.7,0-.7,0-1.4,0-2.2-.2-.4,0-.7,0-1.1-.2-.7,0-1.4-.2-2.1-.4-.4,0-.7,0-1-.2-.8-.2-1.5-.4-2.3-.6s-.7-.2-1.1-.3c-3-1-6-2.3-8.7-3.8-.3,0-.5-.3-.7-.4-.4-.2-.7-.4-1.1-.7-.3-.2-.6-.4-.9-.6-3.1-2.1-5.9-4.6-8.3-7.4-.2-.3-.4-.5-.7-.8-.9-1.1-1.8-2.3-2.6-3.5,0-.2-.3-.4-.4-.6-.2-.2-.3-.5-.4-.7-.5-.8-1-1.6-1.4-2.5h0c-.4-.7-.7-1.3-1-2h-2.2c.4.9.8,1.8,1.3,2.7h0c.2.2.3.6.5.9,0,.2.2.4.4.7,1.1,2,2.4,3.8,3.8,5.6.2.3.4.5.6.7.3.3.5.6.8.9.2.3.5.5.7.8.6.6,1.2,1.2,1.8,1.8s.6.5.9.8c.6.5,1.2,1.1,1.8,1.6.6.5,1.2,1,1.9,1.5.3.2.6.5,1,.7.3.2.6.5,1,.7.3.2.7.4,1,.6.3.2.7.4,1,.6.3.2.7.4,1,.6.3.2.7.4,1,.5,0,0,0,0,0,0,.3.2.7.3,1,.5.4.2.7.3,1.1.5.5.2.9.4,1.4.6.2,0,.4.2.7.3,0,0,.3,0,.4.2.3,0,.6.2.9.4,0,0,.3,0,.4,0,.3,0,.5.2.8.3h0c.4,0,.8.3,1.1.4.4,0,.8.2,1.2.3.4,0,.8.2,1.2.3h0c.9.2,1.8.4,2.7.6.5,0,.9.2,1.3.2h.2c.2,0,.3,0,.5,0,.4,0,.9,0,1.3.2.5,0,.9,0,1.4,0h-.1.6c.4,0,.8,0,1.1,0h1.6c1.4,0,2.8,0,4.2-.2.3,0,.7,0,1,0s.7,0,1,0c.4,0,.8,0,1.3-.2.3,0,.5,0,.8,0,1.5-.3,3-.7,4.5-1.1.4,0,.7-.2,1.1-.3.6-.2,1.3-.4,1.9-.7.9-.3,1.8-.7,2.7-1.1h0c8.1-3.7,14.9-9.7,19.6-17.1h0c.4-.6.8-1.3,1.1-1.9.2-.3.4-.7.5-1h0c.5-.9.9-1.8,1.3-2.7.6-1.4,1.2-2.8,1.6-4.2h0c.1-.4.2-.7.3-1,.4-1.3.7-2.6,1-3.9h0c.1-.7.3-1.3.4-2,.1-.3.1-.7.2-1,.5-2.4.6-4.4.6-6.4Z"/>
        <path class="cls-3" d="M79.3,8533.4c-10.8-3.5-19.8-11.1-25-21h0c.4.8.9,1.7,1.4,2.5,0,.2.3.5.4.7,0,.2.2.4.4.6.8,1.2,1.7,2.4,2.6,3.5.2.3.4.5.7.8,2.4,2.8,5.2,5.3,8.3,7.4.3.2.6.4.9.6.3.2.7.5,1.1.7.2,0,.5.3.7.4,2.6,1.5,5.5,2.8,8.5,3.8ZM76,8534.3c-.2,0-.4,0-.5-.2-.7-.3-1.3-.6-2-.9-.4-.2-.7-.3-1.1-.5-.3-.2-.7-.3-1-.5h0c-.3-.3-.7-.5-1-.6-.4-.2-.7-.4-1-.6-.3-.2-.7-.4-1-.6-.3-.2-.7-.4-1-.6-.3-.2-.7-.5-1-.7s-.6-.5-1-.7c-.6-.5-1.3-1-1.9-1.5s-1.2-1-1.8-1.6-.6-.5-.9-.8c-.6-.6-1.2-1.2-1.8-1.8-.2-.3-.5-.5-.7-.8-.3-.3-.5-.6-.8-.9-.2-.2-.4-.5-.6-.7-1.4-1.8-2.7-3.6-3.8-5.6,0-.2-.3-.4-.4-.7-.2-.3-.4-.7-.5-1h0c4.8,9.4,12.8,16.8,22.5,20.9.2,0,.4.2.7.3.4,0,.5,0,.7,0,.2,0,.5.2.8.3,0,0,.3,0,.4,0,.3,0,.5.2.8.3.4,0,.8.3,1.1.4-.4,0-.8-.3-1.1-.4-.6-.2-1.3-.4-2-.7ZM84.2,8536.7c-.9-.2-1.8-.3-2.7-.6.9.2,1.8.4,2.7.6ZM134.4,8474.4v-14h-2v11.3c.4.9.9,1.8,1.3,2.7h.7ZM131.5,8474.4c-.3-.7-.6-1.3-1-2h-10.1v2h11.1ZM82.5,8450.5c-1.3.3-2.6.7-3.9,1.1,1.3-.4,2.6-.7,3.9-1.1ZM77.6,8452c-1,.4-2,.8-2.9,1.2,1-.4,2-.8,2.9-1.2ZM52.6,8471.4c-.5.9-.9,1.8-1.3,2.7.4-.9.8-1.8,1.3-2.7ZM78.5,8449.6c-1,.3-1.9.7-2.9,1,1-.3,1.9-.7,2.9-1ZM75.5,8450.7c-8.8,3.6-16.3,9.8-21.2,17.8.7-1.2,1.5-2.3,2.3-3.4.3-.4.6-.8.9-1.2,0,0,0-.2.2-.3.4-.5.8-1,1.2-1.4.9-1,1.9-2,2.9-2.9.3-.3.7-.6,1-.9h0c.2-.3.5-.5.7-.7.2,0,.3-.3.4-.4.5-.4.9-.7,1.4-1.1,1.2-.9,2.5-1.8,3.8-2.6.3-.2.6-.4,1-.6.6-.3,1.2-.7,1.9-1,.2,0,.4-.2.6-.3.9-.2,1.9-.6,2.8-1ZM75.6,8450.6s0,0,0,0c0,.1,0,.1,0,0ZM49.3,8479.4c-.4,1.3-.7,2.6-1,3.9.3-1.3.6-2.6,1-3.9Z"/>
      </g>
      <path class="cls-3" d="M132.4,8471.7h0c-5.2-9.9-14-17.7-24.6-21.6-.7-.3-1.4-.5-2.2-.7-.8-.2-1.6-.5-2.4-.7h0c-.9-.2-1.8-.4-2.7-.6-.5,0-.9-.2-1.3-.2s-.5,0-.7,0c-.4,0-.9,0-1.3-.2-.4,0-.9,0-1.4,0h-.7c-.4,0-.8,0-1.1,0h-1.6c-1.4,0-2.8,0-4.2.2-.3,0-.7,0-1,0s-.7,0-1,0-.8,0-1.3.2c-.3,0-.5,0-.8,0-1.5.3-3,.7-4.5,1.1-.4,0-.7.2-1.1.3-2,.7-3.9,1.4-5.8,2.3-.2,0-.4.2-.6.3-.6.3-1.3.6-1.9,1-.3.2-.6.4-1,.6-1.3.8-2.6,1.7-3.8,2.6-.5.3-.9.7-1.4,1.1,0,0-.3.2-.4.4-.2.2-.5.4-.7.6h0c-.3.4-.7.7-1,1-1,.9-2,1.9-2.9,2.9-.4.5-.8.9-1.2,1.4,0,0,0,.2-.2.3-.3.4-.6.8-.9,1.2-.8,1.1-1.6,2.2-2.3,3.4h0c-.4.6-.8,1.3-1.1,1.9-.2.3-.4.7-.5,1h0c-.5.9-.9,1.8-1.3,2.7-.6,1.4-1.2,2.8-1.6,4.2h0c0,.4-.2.7-.3,1-.4,1.3-.7,2.6-1,3.9h0c0,.7-.3,1.3-.4,2,0,.3,0,.7-.2,1-.3,2-.4,4-.4,6s.2,4.9.6,7.3h2c-.4-2.4-.6-4.8-.6-7.3,0-14.1,6.8-26.6,17.4-34.5h0c.6-.6,1.2-1,1.9-1.4.2-.2.4-.3.7-.5.3-.2.6-.4,1-.6.5-.3,1.1-.6,1.6-.9.2,0,.4-.2.6-.3.7-.4,1.3-.7,2-1,1-.4,1.9-.8,2.9-1.2.3,0,.7-.2,1-.3,1.3-.4,2.6-.8,3.9-1.1.8-.2,1.5-.3,2.3-.5.7,0,1.4-.2,2.1-.3.2,0,.5,0,.7,0,.3,0,.5,0,.8,0h0c.6,0,1.1,0,1.7,0s1.5,0,2.2,0h2.5c.2,0,.5,0,.7,0,.7,0,1.5,0,2.2.2.4,0,.7,0,1.1,0,.7,0,1.4.2,2.1.4.4,0,.7,0,1,.2.8.2,1.5.4,2.3.6.3,0,.7.2,1.1.3,10.9,3.4,19.8,11,25,21h0c.3.7.7,1.3,1,2h2.2c-.4-.7-.9-1.6-1.3-2.5Z"/>
    </g>
    <g>
      <ellipse class="cls-18" cx="92.4" cy="8483" rx="17.4" ry="6.1"/>
      <path class="cls-18" d="M109.8,8492.8c0,3.4-7.8,6.1-17.4,6.1s-17.4-2.7-17.4-6.1"/>
      <path class="cls-18" d="M109.8,8501.8c0,3.4-7.8,6.1-17.4,6.1s-17.4-2.7-17.4-6.1"/>
      <line class="cls-18" x1="75" y1="8483" x2="75" y2="8501.8"/>
      <line class="cls-18" x1="109.8" y1="8501.8" x2="109.8" y2="8483"/>
    </g>
  </g>
  <g>
    <path class="cls-3" d="M169.2,8736.4c-.1-12.9-10.6-23.3-23.5-23.3s-8.8,1.3-12.4,3.6c-3.1-6.2-7.8-11.5-13.6-15.3l-11.2-5c-3.1-.8-6.4-1.3-9.8-1.3-21.3,0-38.5,17.2-38.5,38.5s0,2.3.2,3.4c-11,3-19.2,13.1-19.2,25.1s11.6,26,26,26h19v-2h-19c-13.3,0-24-10.7-24-24s8.3-21.4,19.3-23.5c-.2-1.6-.3-3.3-.3-5,0-20.2,16.3-36.5,36.5-36.5s28.3,9.3,33.7,22.6c3.7-2.9,8.2-4.6,13.3-4.6,11.9,0,21.5,9.6,21.5,21.5s0,1.1-.1,1.6c12.4,1,22.1,11.3,22.1,23.9s-10.7,24-24,24h-23v2h23c14.4,0,26-11.6,26-26,0-12.9-9.5-23.7-22-25.7Z"/>
    <path class="cls-3" d="M10,8764.8l-2.8,2.8-2.8-2.8-1.4,1.4,2.8,2.8-2.8,2.8,1.4,1.4,2.8-2.8,2.8,2.8,1.4-1.4-2.8-2.8,2.8-2.8-1.4-1.4ZM86.8,8647.1c-2.5,0-4.5,2-4.5,4.5s2,4.5,4.5,4.5,4.5-2,4.5-4.5-2-4.5-4.5-4.5ZM86.7,8654.1c-1.4,0-2.5-1.1-2.5-2.5s1.1-2.5,2.5-2.5,2.5,1.1,2.5,2.5-1.1,2.5-2.5,2.5ZM206.7,8699.2c-2.5,0-4.5,2-4.5,4.5s2,4.5,4.5,4.5,4.5-2,4.5-4.5-2-4.5-4.5-4.5ZM206.7,8706.2c-1.4,0-2.5-1.1-2.5-2.5s1.1-2.5,2.5-2.5,2.5,1.1,2.5,2.5-1.1,2.5-2.5,2.5Z"/>
    <path class="cls-5" d="M138.6,8766.9h-2.8c-.5-1.4-1-2.7-1.7-4l2-2c.7-.7.7-1.9,0-2.6l-6.6-6.6c-.7-.7-1.9-.7-2.6,0l-2,2c-1.3-.7-2.6-1.2-4-1.7v-2.8c0-1-.8-1.9-1.9-1.9h-9.3c-1,0-1.9.8-1.9,1.8v2.8c-1.4.5-2.7,1-4,1.7l-2-2c-.7-.7-1.8-.7-2.6,0l-6.6,6.6c-.7.7-.7,1.9,0,2.6l2,2c-.7,1.3-1.2,2.6-1.7,4h-2.8c-1,0-1.9.8-1.9,1.9v9.3c0,1,.8,1.9,1.8,1.9h2.8c.5,1.4,1,2.7,1.7,4l-2,2c-.7.7-.7,1.8,0,2.6l6.6,6.6c.7.7,1.8.7,2.6,0l2-2c1.3.7,2.6,1.2,4,1.7v2.8c0,1,.8,1.9,1.8,1.9h9.3c1,0,1.9-.8,1.9-1.8v-2.8c1.4-.5,2.7-1,4-1.7l2,2c.7.7,1.9.7,2.6,0l6.6-6.6c.7-.7.7-1.9,0-2.6l-2-2c.7-1.3,1.2-2.6,1.7-4h2.8c1,0,1.9-.8,1.9-1.8v-9.3c.2-1.2-.6-2-1.7-2ZM114.4,8784.9c-7.1,0-12.9-5.8-12.9-12.9s5.8-12.9,12.9-12.9,12.9,5.8,12.9,12.9-5.8,13-12.9,12.9Z"/>
    <path class="cls-1" d="M155,8680.9l-2.8,2.8-2.8-2.8-1.4,1.4,2.8,2.8-2.8,2.8,1.4,1.4,2.8-2.8,2.8,2.8,1.4-1.4-2.8-2.8,2.8-2.8-1.4-1.4ZM36.2,8718c-3.9,0-7,3.1-7,7s3.1,7,7,7,7-3.1,7-7-3.1-6.9-7-7ZM36.2,8730c-2.8,0-5-2.2-5-5s2.2-5,5-5,5,2.2,5,5-2.2,5.1-5,5Z"/>
    <path class="cls-3" d="M140.2,8765.1h-3c-.5-1.5-1.1-2.9-1.8-4.3l2.2-2.2c.8-.8.8-2,0-2.8l-7.1-7.1c-.8-.8-2-.8-2.8,0l-2.2,2.2c-1.4-.7-2.8-1.3-4.3-1.8v-3c0-1.1-.9-2-2-2h-10c-1.1,0-2,.9-2,2v3c-1.5.5-2.9,1.1-4.3,1.8l-2.2-2.2c-.8-.8-2-.8-2.8,0l-7.1,7.1c-.8.8-.8,2,0,2.8l2.2,2.2c-.7,1.4-1.3,2.8-1.8,4.3h-3c-1.1,0-2,.9-2,2v10c0,1.1.9,2,2,2h3c.5,1.5,1.1,2.9,1.8,4.3l-2.2,2.2c-.8.8-.8,2,0,2.8l7.1,7.1c.8.8,2,.8,2.8,0l2.2-2.2c1.4.7,2.8,1.3,4.3,1.8v3c0,1.1.9,2,2,2h10c1.1,0,2-.9,2-2v-3c1.5-.5,2.9-1.1,4.3-1.8l2.2,2.2c.8.8,2,.8,2.8,0l7.1-7.1c.8-.8.8-2,0-2.8l-2.2-2.2c.7-1.4,1.3-2.8,1.8-4.3h3c1.1,0,2-.9,2-2v-10c0-1.1-.9-2-2-2ZM140,8777.1h-4.4c-.6,2.4-1.5,4.6-2.7,6.6l3.3,3.3-7.1,7.1-3.2-3.2c-2,1.3-4.2,2.2-6.6,2.8v4.6h-10v-4.6c-2.4-.6-4.6-1.5-6.6-2.8l-3.2,3.2-7.1-7.1,3.3-3.3c-1.2-2-2.2-4.2-2.7-6.6h-4.8v-10h4.6c.6-2.4,1.5-4.6,2.7-6.6l-3.3-3.3,7.1-7.1,3.2,3.2c2-1.3,4.2-2.2,6.6-2.8v-4.6h10v4.6c2.4.6,4.6,1.5,6.6,2.8l3.2-3.2,7.1,7.1-3.3,3.3c1.2,2,2.2,4.2,2.7,6.6h4.6v10Z"/>
    <path class="cls-3" d="M114.2,8758.1c-7.7,0-14,6.3-14,14s6.3,14,14,14,14-6.3,14-14-6.3-14-14-14ZM114.2,8784.1c-6.6,0-12-5.4-12-12s5.4-12,12-12,12,5.4,12,12-5.4,12-12,12Z"/>
  </g>
  <g>
    <g>
      <line class="cls-19" x1="68.7" y1="8955.8" x2="125.5" y2="8955.8"/>
      <path class="cls-19" d="M110.6,9039.4h-59.3c-5.5,0-10-4.5-10-10v-63.6c0-5.5,4.5-10,10-10h13"/>
      <line class="cls-19" x1="148.5" y1="8984" x2="148.5" y2="8990.2"/>
      <path class="cls-19" d="M130,8955.8h8.5c5.5,0,10,4.5,10,10v12.3"/>
      <line class="cls-18" x1="41.3" y1="8976.8" x2="148.5" y2="8976.8"/>
    </g>
    <g>
      <line class="cls-19" x1="64.3" y1="8951.6" x2="64.3" y2="8965.5"/>
      <line class="cls-19" x1="125.5" y1="8951.6" x2="125.5" y2="8965.5"/>
    </g>
    <path class="cls-18" d="M67.1,9003h-10.8c-.6,0-1-.4-1-1v-10.8c0-.6.4-1,1-1h10.8c.6,0,1,.4,1,1v10.8c0,.5-.5,1-1,1Z"/>
    <path class="cls-18" d="M89.2,9003h-10.8c-.6,0-1-.4-1-1v-10.8c0-.6.4-1,1-1h10.8c.6,0,1,.4,1,1v10.8c0,.5-.4,1-1,1Z"/>
    <path class="cls-18" d="M111.4,9003h-10.8c-.6,0-1-.4-1-1v-10.8c0-.6.4-1,1-1h10.8c.6,0,1,.4,1,1v10.8c0,.5-.5,1-1,1Z"/>
    <path class="cls-18" d="M67.1,9024.4h-10.8c-.6,0-1-.4-1-1v-10.8c0-.6.4-1,1-1h10.8c.6,0,1,.4,1,1v10.8c0,.5-.5,1-1,1Z"/>
    <path class="cls-18" d="M89.2,9024.4h-10.8c-.6,0-1-.4-1-1v-10.8c0-.6.4-1,1-1h10.8c.6,0,1,.4,1,1v10.8c0,.5-.4,1-1,1Z"/>
    <path class="cls-4" d="M143.7,8998c-15,0-27.1,12.1-27.1,27.1s12.1,27.1,27.1,27.1,27.1-12.2,27.1-27.1-12.2-27.1-27.1-27.1ZM137.5,9035.2l-6.6.5.5-6.6,17.8-17.8,6,6-17.7,17.9Z"/>
    <circle class="cls-13" cx="143.4" cy="9024.2" r="28.9" transform="translate(-8881.8 9058.6) rotate(-89.3)"/>
    <g>
      <polygon class="cls-19" points="137.5 9035.2 130.9 9035.7 131.5 9029.1 149.3 9011.3 155.3 9017.4 137.5 9035.2"/>
      <line class="cls-19" x1="132.6" y1="9028" x2="138.7" y2="9034"/>
    </g>
    <path class="cls-3" d="M10,8928.8l-2.8,2.8-2.8-2.8-1.4,1.4,2.8,2.8-2.8,2.8,1.4,1.4,2.8-2.8,2.8,2.8,1.4-1.4-2.8-2.8,2.8-2.8-1.4-1.4ZM16.8,8981.1c-2.5,0-4.5,2-4.5,4.5s2,4.5,4.5,4.5,4.5-2,4.5-4.5-2-4.5-4.5-4.5ZM16.7,8988.1c-1.4,0-2.5-1.1-2.5-2.5s1.1-2.5,2.5-2.5,2.5,1.1,2.5,2.5-1.1,2.5-2.5,2.5ZM126.7,8903.2c-2.5,0-4.5,2-4.5,4.5s2,4.5,4.5,4.5,4.5-2,4.5-4.5-2-4.5-4.5-4.5ZM126.7,8910.2c-1.4,0-2.5-1.1-2.5-2.5s1.1-2.5,2.5-2.5,2.5,1.1,2.5,2.5-1.1,2.5-2.5,2.5Z"/>
    <path class="cls-1" d="M65.3,8929l2.8,2.8-2.8,2.8,1.4,1.4,2.8-2.8,2.8,2.8,1.4-1.4-2.8-2.8,2.8-2.8-1.4-1.4-2.8,2.8-2.8-2.8-1.4,1.4ZM178.5,8971.7c0,3.9,3.1,7,7,7s7-3.1,7-7-3.1-7-7-7-7,3.1-7,7ZM180.5,8971.7c0-2.8,2.2-5,5-5s5,2.2,5,5-2.2,5-5,5-5-2.2-5-5Z"/>
  </g>
  <path class="cls-3" d="M58.8,9296.1c-13.3,0-24-10.7-24-24s8.3-21.4,19.3-23.5c-.2-1.6-.3-3.3-.3-5,0-20.2,16.3-36.5,36.5-36.5s28.3,9.3,33.7,22.6c3.7-2.9,8.2-4.6,13.3-4.6,8.4,0,15.6,4.8,19.1,11.7.8,0,1.5,0,2.3.2-3.7-8.2-11.9-13.9-21.5-13.9s-8.8,1.3-12.4,3.6c-3.1-6.2-7.8-11.5-13.6-15.3l-11.2-5c-3.1-.8-6.4-1.3-9.8-1.3-21.3,0-38.5,17.2-38.5,38.5s0,2.3.2,3.4c-11,3-19.2,13.1-19.2,25.1s11.6,26,26,26h64.2c-.5-.7-.9-1.3-1.4-2h-62.7Z"/>
  <path class="cls-3" d="M210.9,9258.3l3.3,2.3-2.3,3.3,1.6,1.1,2.3-3.3,3.3,2.3,1.1-1.6-3.3-2.3,2.3-3.3-1.6-1.1-2.3,3.3-3.3-2.3-1.1,1.6ZM111.9,9159.7c.4,2.5,2.8,4.1,5.2,3.6s4.1-2.8,3.6-5.2c-.4-2.5-2.8-4.1-5.2-3.6-2.5.4-4.1,2.7-3.6,5.2ZM113.8,9159.3c-.3-1.4.6-2.7,2-2.9,1.4-.3,2.7.6,2.9,2,.3,1.4-.6,2.7-2,2.9-1.4.3-2.6-.6-2.9-2ZM3.1,9232.3c.4,2.5,2.8,4.1,5.2,3.6,2.5-.4,4.1-2.8,3.6-5.2-.4-2.5-2.8-4.1-5.2-3.6s-4.1,2.7-3.6,5.2ZM5,9232c-.3-1.4.6-2.7,2-2.9,1.4-.3,2.7.6,2.9,2s-.6,2.7-2,2.9c-1.3.2-2.6-.7-2.9-2Z"/>
  <path class="cls-1" d="M53.2,9201.6l3.3,2.3-2.3,3.3,1.6,1.1,2.3-3.3,3.3,2.3,1.1-1.6-3.3-2.3,2.3-3.3-1.6-1.1-2.3,3.3-3.3-2.3-1.1,1.6ZM172.2,9223.4c.7,3.8,4.3,6.3,8.1,5.6s6.3-4.3,5.6-8.1-4.3-6.3-8.1-5.6c-3.8.7-6.3,4.3-5.6,8.1ZM174.2,9223.1c-.5-2.8,1.3-5.3,4-5.8,2.8-.5,5.3,1.3,5.8,4s-1.3,5.3-4,5.8c-2.8.5-5.3-1.3-5.8-4Z"/>
  <path class="cls-4" d="M155.6,9244.5c-17.8,0-32.2,14.4-32.2,32.2s14.4,32.2,32.2,32.2,32.2-14.4,32.2-32.2c-.1-17.8-14.5-32.2-32.2-32.2Z"/>
  <circle class="cls-19" cx="154.3" cy="9275.5" r="34.3"/>
  <polyline class="cls-14" points="167.3 9267 150.4 9283.9 141.3 9274.8"/>
  <path class="cls-5" d="M145.5,9527.1c18.5,0,33.5,15,33.5,33.5s-15,33.5-33.5,33.5-33.5-15-33.5-33.5,15-33.5,33.5-33.5Z"/>
  <path class="cls-3" d="M144,9504.1h-44v2h44v-2ZM68,9461.1h64v-2h-65c-3.3,0-6,2.7-6,6v102h2.1c0-.3,0-.7,0-1v-100c0-2.8,2.2-5,5-5ZM73,9576.1c-2.8,0-5-2.2-5-5v-100c0-2.8,2.2-5,5-5h57v16c0,4.4,3.6,8,8,8h16v34c.7.2,1.3.3,2,.5v-36.5h0l-24-24h-.1c0,0-59.9,0-59.9,0-3.3,0-6,2.7-6,6v102c0,3.3,2.7,6,6,6h40.3c-.3-.7-.7-1.3-1-2h-38.3ZM132,9466.8l21.3,21.3h-15.3c-3.3,0-6-2.7-6-6v-15.3ZM147,9544.1h-2v.6l-13,13,1.4,1.4,11.6-11.6v29.6h2v-29.6l11.6,11.6,1.4-1.4-13-13v-.6ZM145.5,9526.1c-19.1,0-34.5,15.4-34.5,34.5s15.4,34.5,34.5,34.5,34.5-15.4,34.5-34.5-15.4-34.5-34.5-34.5ZM145.5,9593.1c-17.9,0-32.5-14.6-32.5-32.5s14.6-32.5,32.5-32.5,32.5,14.6,32.5,32.5-14.6,32.5-32.5,32.5ZM144,9498.1h-66v2h66v-2ZM78,9506.1h20v-2h-20v2ZM78,9494.1h43v-2h-43v2Z"/>
  <path class="cls-3" d="M32.8,9555.9l-2.8,2.8-2.8-2.8-1.4,1.4,2.8,2.8-2.8,2.8,1.4,1.4,2.8-2.8,2.8,2.8,1.4-1.4-2.8-2.8,2.8-2.8-1.4-1.4ZM222.5,9551.1c-2.5,0-4.5,2-4.5,4.5s2,4.5,4.5,4.5,4.5-2,4.5-4.5-2-4.5-4.5-4.5ZM222.5,9558.1c-1.4,0-2.5-1.1-2.5-2.5s1.1-2.5,2.5-2.5,2.5,1.1,2.5,2.5-1.1,2.5-2.5,2.5ZM76.5,9426.1c-2.5,0-4.5,2-4.5,4.5s2,4.5,4.5,4.5,4.5-2,4.5-4.5-2-4.5-4.5-4.5ZM76.5,9433.1c-1.4,0-2.5-1.1-2.5-2.5s1.1-2.5,2.5-2.5,2.5,1.1,2.5,2.5-1.1,2.5-2.5,2.5Z"/>
  <path class="cls-1" d="M10,9469.1c-3.9,0-7,3.1-7,7s3.1,7,7,7,7-3.1,7-7-3.1-7-7-7ZM10,9481.1c-2.8,0-5-2.2-5-5s2.2-5,5-5,5,2.2,5,5-2.2,5-5,5ZM166.8,9410.9l-2.8,2.8-2.8-2.8-1.4,1.4,2.8,2.8-2.8,2.8,1.4,1.4,2.8-2.8,2.8,2.8,1.4-1.4-2.8-2.8,2.8-2.8-1.4-1.4Z"/>
  <path class="cls-5" d="M54,9840.4v13.1c0,5,4,9,9,9h110c5,0,9-4,9-9v-13.1H54ZM118.5,9856.5c-1.4,0-2.5-1.1-2.5-2.5s1.1-2.5,2.5-2.5,2.5,1.1,2.5,2.5-1.1,2.5-2.5,2.5Z"/>
  <path class="cls-3" d="M118.5,9849.5c-1.9,0-3.5,1.6-3.5,3.5s1.6,3.5,3.5,3.5,3.5-1.6,3.5-3.5-1.6-3.5-3.5-3.5ZM118.5,9854.5c-.8,0-1.5-.7-1.5-1.5s.7-1.5,1.5-1.5,1.5.7,1.5,1.5-.7,1.5-1.5,1.5ZM209,9889.5v2h10v-2h-10ZM15,9889.5v2h5v-2h-5Z"/>
  <path class="cls-3" d="M150.8,9889.5c.1-.3.2-.6.2-1v-2c0-1.7-1.3-3-3-3h-4.9c-7.3-3.9-12.4-11.3-13-20h42.9c5.5,0,10-4.5,10-10v-74c0-5.5-4.5-10-10-10H63c-5.5,0-10,4.5-10,10v74c0,5.5,4.5,10,10,10h43.9c-.7,8.7-5.8,16.1-13,20h-4.9c-1.7,0-3,1.3-3,3v2c0,.4,0,.7.2,1H22v2h185v-2h-56.2ZM63,9861.5c-4.4,0-8-3.6-8-8v-74c0-4.4,3.6-8,8-8h110c4.4,0,8,3.6,8,8v74c0,4.4-3.6,8-8,8H63ZM149,9888.5c0,.6-.4,1-1,1h-59c-.6,0-1-.4-1-1v-2c0-.6.4-1,1-1h6v-.3c7.8-4.3,13.2-12.3,13.9-21.7h19.2c.7,9,5.7,16.7,13,21.1,4.1,2.5,1.9.9,1.9.9h5c.6,0,1,.4,1,1v2Z"/>
  <path class="cls-3" d="M166.5,9762.6H56.5c-5.5,0-10,4.5-10,10v74h2v-74c0-4.4,3.6-8,8-8h110v-2Z"/>
  <path class="cls-3" d="M22.8,9841.3l-2.8,2.8-2.8-2.8-1.4,1.4,2.8,2.8-2.8,2.8,1.4,1.4,2.8-2.8,2.8,2.8,1.4-1.4-2.8-2.8,2.8-2.8-1.4-1.4ZM208.5,9762.5c-2.5,0-4.5,2-4.5,4.5s2,4.5,4.5,4.5,4.5-2,4.5-4.5-2-4.5-4.5-4.5ZM208.5,9769.5c-1.4,0-2.5-1.1-2.5-2.5s1.1-2.5,2.5-2.5,2.5,1.1,2.5,2.5-1.1,2.5-2.5,2.5ZM155.5,9696.5c-2.5,0-4.5,2-4.5,4.5s2,4.5,4.5,4.5,4.5-2,4.5-4.5-2-4.5-4.5-4.5ZM155.5,9703.5c-1.4,0-2.5-1.1-2.5-2.5s1.1-2.5,2.5-2.5,2.5,1.1,2.5,2.5-1.1,2.5-2.5,2.5Z"/>
  <path class="cls-21" d="M50.1,9744.6c-2.8,0-4.9,2.2-4.9,4.9s2.2,4.9,4.9,4.9,4.9-2.2,4.9-4.9-2.2-4.9-4.9-4.9ZM23.2,9749.6c-2,0-3.5-1.6-3.5-3.5s1.6-3.5,3.5-3.5,3.5,1.6,3.5,3.5-1.5,3.5-3.5,3.5ZM218.2,9827.7l-1.4-1.4-2.8,2.8-2.8-2.8-1.4,1.4,2.8,2.8-2.8,2.8,1.4,1.4,2.8-2.8,2.8,2.8,1.4-1.4-2.8-2.8,2.8-2.8Z"/>
  <g>
    <rect class="cls-7" x="65.5" y="9797.5" width="42" height="2"/>
    <rect class="cls-7" x="109.5" y="9797.5" width="3" height="2"/>
    <rect class="cls-7" x="65.5" y="9787.5" width="104" height="2"/>
  </g>
  <path class="cls-5" d="M135.7,10152.5c0-5.8,1.3-11.2,3.5-16.1H54v13.1c0,5,4,9,9,9h73.2c0-.3-.1-.7-.1-1-.3-1.6-.4-3.3-.4-5ZM118.5,10152.5c-1.4,0-2.5-1.1-2.5-2.5s1.1-2.5,2.5-2.5,2.5,1.1,2.5,2.5-1.1,2.5-2.5,2.5Z"/>
  <path class="cls-3" d="M118.5,10145.5c-1.9,0-3.5,1.6-3.5,3.5s1.6,3.5,3.5,3.5,3.5-1.6,3.5-3.5-1.6-3.5-3.5-3.5ZM118.5,10150.5c-.8,0-1.5-.7-1.5-1.5s.7-1.5,1.5-1.5,1.5.7,1.5,1.5-.7,1.5-1.5,1.5ZM209,10185.5v2h10v-2h-10ZM15,10185.5v2h5v-2h-5Z"/>
  <path class="cls-3" d="M150.8,10185.5c.1-.3.2-.6.2-1v-2c0-1.7-1.3-3-3-3h-4.9c-7.3-3.9-12.4-11.3-13-20h6.3c-.1-.7-.2-1.3-.3-2H63c-4.4,0-8-3.6-8-8v-74c0-4.4,3.6-8,8-8h110c4.4,0,8,3.6,8,8v39c.7,0,1.3.3,2,.4v-39.4c0-5.5-4.5-10-10-10H63c-5.5,0-10,4.5-10,10v74c0,5.5,4.5,10,10,10h43.9c-.7,8.7-5.5,16.1-12.7,20h-5.2c-1.7,0-3,1.3-3,3v2c0,.4,0,.7.2,1H22v2h185v-2h-56.2ZM149,10184.5c0,.6-.4,1-1,1h-59c-.6,0-1-.4-1-1v-2c0-.6.4-1,1-1h6c7.8-4.3,13.2-12.6,13.9-22h19.2c.7,9,5.7,16.7,13,21.1.2.2,1.9.9,1.9.9h5c.6,0,1,.4,1,1v2Z"/>
  <path class="cls-3" d="M22.8,10137.3l-2.8,2.8-2.8-2.8-1.4,1.4,2.8,2.8-2.8,2.8,1.4,1.4,2.8-2.8,2.8,2.8,1.4-1.4-2.8-2.8,2.8-2.8-1.4-1.4ZM208.5,10058.5c-2.5,0-4.5,2-4.5,4.5s2,4.5,4.5,4.5,4.5-2,4.5-4.5-2-4.5-4.5-4.5ZM208.5,10065.5c-1.4,0-2.5-1.1-2.5-2.5s1.1-2.5,2.5-2.5,2.5,1.1,2.5,2.5-1.1,2.5-2.5,2.5ZM155.5,9992.5c-2.5,0-4.5,2-4.5,4.5s2,4.5,4.5,4.5,4.5-2,4.5-4.5-2-4.5-4.5-4.5ZM155.5,9999.5c-1.4,0-2.5-1.1-2.5-2.5s1.1-2.5,2.5-2.5,2.5,1.1,2.5,2.5-1.1,2.5-2.5,2.5Z"/>
  <path class="cls-21" d="M50.1,10040.6c-2.8,0-4.9,2.2-4.9,4.9s2.2,4.9,4.9,4.9,4.9-2.2,4.9-4.9-2.2-4.9-4.9-4.9ZM23.2,10045.6c-2,0-3.5-1.6-3.5-3.5s1.6-3.5,3.5-3.5,3.5,1.6,3.5,3.5c0,1.9-1.5,3.5-3.5,3.5ZM218.2,10123.7l-1.4-1.4-2.8,2.8-2.8-2.8-1.4,1.4,2.8,2.8-2.8,2.8,1.4,1.4,2.8-2.8,2.8,2.8,1.4-1.4-2.8-2.8,2.8-2.8Z"/>
  <g>
    <rect class="cls-7" x="65.5" y="10093.5" width="42" height="2"/>
    <rect class="cls-7" x="109.5" y="10093.5" width="3" height="2"/>
    <rect class="cls-7" x="65.5" y="10083.5" width="104" height="2"/>
  </g>
  <path class="cls-4" d="M175.6,10121.5c-17.8,0-32.2,14.4-32.2,32.2s14.4,32.2,32.2,32.2,32.2-14.4,32.2-32.2c-.1-17.8-14.5-32.2-32.2-32.2Z"/>
  <circle class="cls-19" cx="174.3" cy="10152.5" r="34.3"/>
  <g>
    <path class="cls-7" d="M163,10159l5.7-16.4h2.9l-7.4,19.9h-2.3l-7.4-19.9h2.9l5.6,16.4Z"/>
    <path class="cls-7" d="M177.6,10142.5l6.5,16.2,6.5-16.2h3.4v19.9h-2.6v-7.8l.2-8.4-6.5,16.1h-2l-6.5-16.1.3,8.3v7.8h-2.6v-19.9h3.3Z"/>
  </g>
  <path class="cls-3" d="M22.8,10488.7l-2.8,2.8-2.8-2.8-1.4,1.4,2.8,2.8-2.8,2.8,1.4,1.4,2.8-2.8,2.8,2.8,1.4-1.4-2.8-2.8,2.8-2.8-1.4-1.4ZM208.5,10409.9c-2.5,0-4.5,2-4.5,4.5s2,4.5,4.5,4.5,4.5-2,4.5-4.5-2-4.5-4.5-4.5ZM208.5,10416.9c-1.4,0-2.5-1.1-2.5-2.5s1.1-2.5,2.5-2.5,2.5,1.1,2.5,2.5-1.1,2.5-2.5,2.5ZM155.5,10343.9c-2.5,0-4.5,2-4.5,4.5s2,4.5,4.5,4.5,4.5-2,4.5-4.5-2-4.5-4.5-4.5ZM155.5,10350.9c-1.4,0-2.5-1.1-2.5-2.5s1.1-2.5,2.5-2.5,2.5,1.1,2.5,2.5-1.1,2.5-2.5,2.5Z"/>
  <path class="cls-8" d="M216.8,10464.9l-2.8-2.8-2.8,2.8-2.8-2.8,2.8-2.8-2.8-2.8,2.8-2.8,2.8,2.8,2.8-2.8,2.8,2.8-2.8,2.8,2.8,2.8-2.8,2.8ZM50.1,10384.2c-3.3,0-5.9-2.6-5.9-5.9s2.6-5.9,5.9-5.9,5.9,2.6,5.9,5.9-2.6,5.9-5.9,5.9ZM50.1,10374.4c-2.2,0-3.9,1.7-3.9,3.9s1.7,3.9,3.9,3.9,3.9-1.8,3.9-3.9-1.7-3.9-3.9-3.9ZM23.2,10379.4c-2.5,0-4.5-2-4.5-4.5s2-4.5,4.5-4.5,4.5,2.1,4.5,4.5c.1,1.1-.4,2.2-1.2,3.1-.8.9-2,1.4-3.3,1.4ZM23.2,10372.4c-1.4,0-2.5,1.1-2.5,2.5s1.1,2.5,2.5,2.5,1.4-.3,1.9-.8c.4-.5.7-1,.6-1.7,0-1.3-1.1-2.5-2.5-2.5Z"/>
  <path class="cls-7" d="M182.3,10518h-112.6c-7.4,0-13.5-6.1-13.5-13.5v-79.9c0-7.4,6.1-13.5,13.5-13.5h97.6c7.4,0,13.5,6.1,13.5,13.5v66.9h-2v-66.9c0-6.3-5.2-11.5-11.5-11.5h-97.6c-6.3,0-11.5,5.2-11.5,11.5v79.9c0,6.3,5.2,11.5,11.5,11.5h112.6v2h0Z"/>
  <path class="cls-7" d="M74.3,10518.2H26.7c-.6,0-1-.4-1-1s.4-1,1-1h47.7c.6,0,1,.4,1,1s-.5,1-1.1,1Z"/>
  <path class="cls-7" d="M194.8,10518.2h-6.7c-.6,0-1-.4-1-1s.4-1,1-1h6.7c.6,0,1,.4,1,1s-.5,1-1,1Z"/>
  <path class="cls-7" d="M212.3,10518.2h-12.7c-.6,0-1-.4-1-1s.4-1,1-1h12.7c.6,0,1,.4,1,1s-.4,1-1,1Z"/>
  <path class="cls-7" d="M176.4,10525.3c-.2,0-.5,0-.7-.3-.4-.4-.4-1,0-1.4l6.5-6.8-6.5-6.7c-.4-.4-.4-1,0-1.4s1-.4,1.4,0l7.9,8.1-7.9,8.2c-.2.2-.4.3-.7.3Z"/>
  <g>
    <path class="cls-7" d="M160,10436.2h-80c-.6,0-1-.4-1-1s.4-1,1-1h80c.6,0,1,.4,1,1s-.4,1-1,1Z"/>
    <path class="cls-7" d="M160,10456.2h-80c-.6,0-1-.4-1-1s.4-1,1-1h80c.6,0,1,.4,1,1s-.4,1-1,1Z"/>
    <path class="cls-7" d="M158,10476.2h-78c-.6,0-1-.4-1-1s.4-1,1-1h78c.6,0,1,.4,1,1s-.4,1-1,1Z"/>
    <path class="cls-7" d="M130,10493.2h-50c-.6,0-1-.4-1-1s.4-1,1-1h50c.6,0,1,.4,1,1s-.4,1-1,1Z"/>
  </g>
  <path class="cls-4" d="M70.3,10513.5v-100.2h-1c-6,0-10.8,4.9-10.8,10.8v81c0,6,4.9,10.8,10.8,10.8h76.9c2.6,0,5-.9,6.9-2.5h-82.8Z"/>
  <path class="cls-5" d="M147.2,10810.5c17.6,0,31.8,14.2,31.8,31.8s-14.2,31.8-31.8,31.8-31.8-14.2-31.8-31.8,14.2-31.8,31.8-31.8Z"/>
  <path class="cls-3" d="M73,10856.1c-2.8,0-5-2.2-5-5v-100c0-2.8,2.2-5,5-5h57v16c0,4.4,3.6,8,8,8h16v34c.7.2,1.3.3,2,.5v-36.5h0l-24-24h-.1c0,0-59.9,0-59.9,0-3.3,0-6,2.7-6,6v102c0,3.3,2.7,6,6,6h40.3c-.3-.7-.7-1.3-1-2h-38.3ZM132,10746.8l21.3,21.3h-15.3c-3.3,0-6-2.7-6-6v-15.3ZM145.5,10806.1c-19.1,0-34.5,15.4-34.5,34.5s15.4,34.5,34.5,34.5,34.5-15.4,34.5-34.5-15.4-34.5-34.5-34.5ZM145.5,10873.1c-17.9,0-32.5-14.6-32.5-32.5s14.6-32.5,32.5-32.5,32.5,14.6,32.5,32.5-14.6,32.5-32.5,32.5ZM144,10784.1h-66v2h66v-2ZM144,10796.7h-66v2h66v-2ZM78,10811.7h20v-2h-20v2ZM78,10774.1h43v-2h-43v2Z"/>
  <path class="cls-3" d="M32.8,10835.9l-2.8,2.8-2.8-2.8-1.4,1.4,2.8,2.8-2.8,2.8,1.4,1.4,2.8-2.8,2.8,2.8,1.4-1.4-2.8-2.8,2.8-2.8-1.4-1.4ZM222.5,10831.1c-2.5,0-4.5,2-4.5,4.5s2,4.5,4.5,4.5,4.5-2,4.5-4.5-2-4.5-4.5-4.5ZM222.5,10838.1c-1.4,0-2.5-1.1-2.5-2.5s1.1-2.5,2.5-2.5,2.5,1.1,2.5,2.5-1.1,2.5-2.5,2.5ZM76.5,10706.1c-2.5,0-4.5,2-4.5,4.5s2,4.5,4.5,4.5,4.5-2,4.5-4.5-2-4.5-4.5-4.5ZM76.5,10713.1c-1.4,0-2.5-1.1-2.5-2.5s1.1-2.5,2.5-2.5,2.5,1.1,2.5,2.5-1.1,2.5-2.5,2.5Z"/>
  <path class="cls-1" d="M10,10749.1c-3.9,0-7,3.1-7,7s3.1,7,7,7,7-3.1,7-7-3.1-7-7-7ZM10,10761.1c-2.8,0-5-2.2-5-5s2.2-5,5-5,5,2.2,5,5-2.2,5-5,5ZM166.8,10690.9l-2.8,2.8-2.8-2.8-1.4,1.4,2.8,2.8-2.8,2.8,1.4,1.4,2.8-2.8,2.8,2.8,1.4-1.4-2.8-2.8,2.8-2.8-1.4-1.4Z"/>
  <g>
    <polyline class="cls-11" points="127.9 10840.1 135.5 10840.1 139.7 10829.4 146.2 10851.7 151.2 10839.3 166 10839.3"/>
    <polyline class="cls-11" points="161.7 10833.5 167.3 10839.1 161.7 10844.7"/>
  </g>
  <path class="cls-3" d="M73,11196.1c-2.8,0-5-2.2-5-5v-100c0-2.8,2.2-5,5-5h57v16c0,4.4,3.6,8,8,8h16v34c.7.2,1.3.3,2,.5v-36.5h0l-24-24h-.1c0,0-59.9,0-59.9,0-3.3,0-6,2.7-6,6v102c0,3.3,2.7,6,6,6h40.3c-.3-.7-.7-1.3-1-2h-38.3ZM132,11086.8l21.3,21.3h-15.3c-3.3,0-6-2.7-6-6v-15.3ZM145.5,11146.1c-19.1,0-34.5,15.4-34.5,34.5s15.4,34.5,34.5,34.5,34.5-15.4,34.5-34.5-15.4-34.5-34.5-34.5ZM145.5,11213.1c-17.9,0-32.5-14.6-32.5-32.5s14.6-32.5,32.5-32.5,32.5,14.6,32.5,32.5-14.6,32.5-32.5,32.5ZM144,11124.1h-66v2h66v-2ZM144,11136.7h-66v2h66v-2ZM78,11151.7h20v-2h-20v2ZM78,11114.1h43v-2h-43v2Z"/>
  <path class="cls-3" d="M32.8,11175.9l-2.8,2.8-2.8-2.8-1.4,1.4,2.8,2.8-2.8,2.8,1.4,1.4,2.8-2.8,2.8,2.8,1.4-1.4-2.8-2.8,2.8-2.8-1.4-1.4ZM222.5,11171.1c-2.5,0-4.5,2-4.5,4.5s2,4.5,4.5,4.5,4.5-2,4.5-4.5-2-4.5-4.5-4.5ZM222.5,11178.1c-1.4,0-2.5-1.1-2.5-2.5s1.1-2.5,2.5-2.5,2.5,1.1,2.5,2.5-1.1,2.5-2.5,2.5ZM76.5,11046.1c-2.5,0-4.5,2-4.5,4.5s2,4.5,4.5,4.5,4.5-2,4.5-4.5-2-4.5-4.5-4.5ZM76.5,11053.1c-1.4,0-2.5-1.1-2.5-2.5s1.1-2.5,2.5-2.5,2.5,1.1,2.5,2.5-1.1,2.5-2.5,2.5Z"/>
  <path class="cls-1" d="M10,11089.1c-3.9,0-7,3.1-7,7s3.1,7,7,7,7-3.1,7-7-3.1-7-7-7ZM10,11101.1c-2.8,0-5-2.2-5-5s2.2-5,5-5,5,2.2,5,5-2.2,5-5,5ZM166.8,11030.9l-2.8,2.8-2.8-2.8-1.4,1.4,2.8,2.8-2.8,2.8,1.4,1.4,2.8-2.8,2.8,2.8,1.4-1.4-2.8-2.8,2.8-2.8-1.4-1.4Z"/>
  <line class="cls-17" x1="130" y1="11180.2" x2="156.2" y2="11180.2"/>
  <polyline class="cls-17" points="148.6 11170.4 158.5 11180.2 148.6 11190.1"/>
  <g>
    <path class="cls-5" d="M23.5,11510.7v7.2c0,2.8,2.2,5,5,5h60.7c2.8,0,5-2.2,5-5v-7.2H23.5ZM59.1,11519.6c-.8,0-1.4-.6-1.4-1.4s.6-1.4,1.4-1.4,1.4.6,1.4,1.4-.6,1.4-1.4,1.4Z"/>
    <path class="cls-3" d="M59.1,11515.7c-1,0-1.9.9-1.9,1.9s.9,1.9,1.9,1.9,1.9-.9,1.9-1.9-.8-1.9-1.9-1.9ZM59.1,11518.5c-.4,0-.8-.4-.8-.8s.4-.8.8-.8.8.4.8.8-.3.8-.8.8ZM109.1,11537.8v1.1h5.5v-1.1h-5.5ZM2,11537.8v1.1h2.8v-1.1h-2.8Z"/>
    <path class="cls-3" d="M77,11537.8c0-.2,0-.3,0-.6v-1.1c0-.9-.7-1.7-1.7-1.7h-2.7c-4-2.2-6.8-6.2-7.2-11h23.7c3,0,5.5-2.5,5.5-5.5v-40.8c0-3-2.5-5.5-5.5-5.5H28.5c-3,0-5.5,2.5-5.5,5.5v40.8c0,3,2.5,5.5,5.5,5.5h24.2c-.4,4.8-3.2,8.9-7.2,11h-2.7c-.9,0-1.7.7-1.7,1.7v1.1c0,.2,0,.4,0,.6H5.9v1.1h102.1v-1.1h-31ZM28.5,11522.3c-2.4,0-4.4-2-4.4-4.4v-40.8c0-2.4,2-4.4,4.4-4.4h60.7c2.4,0,4.4,2,4.4,4.4v40.8c0,2.4-2,4.4-4.4,4.4H28.5ZM76,11537.2c0,.3-.2.6-.6.6h-32.6c-.3,0-.6-.2-.6-.6v-1.1c0-.3.2-.6.6-.6h3.3v-.2c4.3-2.4,7.3-6.8,7.7-12h10.6c.4,5,3.1,9.2,7.2,11.6,2.3,1.4,1,.5,1,.5h2.8c.3,0,.6.2.6.6v1.2Z"/>
    <path class="cls-3" d="M85.6,11467.8H24.9c-3,0-5.5,2.5-5.5,5.5v40.8h1.1v-40.8c0-2.4,2-4.4,4.4-4.4h60.7v-1.1Z"/>
    <path class="cls-3" d="M6.3,11511.2l-1.5,1.5-1.5-1.5-.8.8,1.5,1.5-1.5,1.5.8.8,1.5-1.5,1.5,1.5.8-.8-1.5-1.5,1.5-1.5-.8-.8ZM108.8,11467.7c-1.4,0-2.5,1.1-2.5,2.5s1.1,2.5,2.5,2.5,2.5-1.1,2.5-2.5-1.1-2.5-2.5-2.5ZM108.8,11471.6c-.8,0-1.4-.6-1.4-1.4s.6-1.4,1.4-1.4,1.4.6,1.4,1.4c0,.8-.6,1.4-1.4,1.4ZM68.8,11455.7c-1.4,0-2.5,1.1-2.5,2.5s1.1,2.5,2.5,2.5,2.5-1.1,2.5-2.5-1.1-2.5-2.5-2.5ZM68.8,11459.6c-.8,0-1.4-.6-1.4-1.4s.6-1.4,1.4-1.4,1.4.6,1.4,1.4c0,.8-.6,1.4-1.4,1.4Z"/>
    <path class="cls-21" d="M21.4,11457.8c-1.5,0-2.7,1.2-2.7,2.7s1.2,2.7,2.7,2.7,2.7-1.2,2.7-2.7-1.2-2.7-2.7-2.7ZM6.5,11460.6c-1.1,0-1.9-.9-1.9-1.9s.9-1.9,1.9-1.9,1.9.9,1.9,1.9-.8,1.9-1.9,1.9ZM114.2,11493.7l-.8-.8-1.5,1.5-1.5-1.5-.8.8,1.5,1.5-1.5,1.5.8.8,1.5-1.5,1.5,1.5.8-.8-1.5-1.5,1.5-1.5Z"/>
    <g>
      <rect class="cls-7" x="29.9" y="11487" width="23.2" height="1.1"/>
      <rect class="cls-7" x="54.2" y="11487" width="1.7" height="1.1"/>
      <rect class="cls-7" x="29.9" y="11481.5" width="57.4" height="1.1"/>
    </g>
    <path class="cls-10" d="M94.5,11501.2c10.2,0,18.5,8.3,18.5,18.5s-8.3,18.5-18.5,18.5-18.5-8.3-18.5-18.5,8.2-18.5,18.5-18.5Z"/>
    <g>
      <line class="cls-14" x1="94.5" y1="11511.5" x2="94.5" y2="11527.9"/>
      <line class="cls-14" x1="102.6" y1="11519.7" x2="86.3" y2="11519.7"/>
    </g>
    <path class="cls-9" d="M77.8,11520.4c0-9.6,7.8-17.4,17.4-17.4s12.5,3.8,15.4,9.3c-2.9-6.1-9.1-10.4-16.3-10.4s-18,8-18,18,8,18,18,18h.5c-9.5-.4-17-8-17-17.5Z"/>
  </g>
  <g>
    <path class="cls-5" d="M40.5,11863.1v12.9c0,5,3.9,8.9,8.9,8.9h108.6c5,0,8.9-3.9,8.9-8.9v-12.9H40.5ZM104.2,11879.1c-1.4,0-2.5-1.1-2.5-2.5s1.1-2.5,2.5-2.5,2.5,1.1,2.5,2.5-1.1,2.5-2.5,2.5Z"/>
    <path class="cls-3" d="M104.2,11872.1c-1.8,0-3.4,1.6-3.4,3.4s1.6,3.4,3.4,3.4,3.4-1.6,3.4-3.4-1.5-3.4-3.4-3.4ZM104.2,11877.1c-.7,0-1.4-.7-1.4-1.4s.7-1.4,1.4-1.4,1.4.7,1.4,1.4-.5,1.4-1.4,1.4ZM193.6,11911.6v2h9.8v-2h-9.8ZM2,11911.6v2h5v-2H2Z"/>
    <path class="cls-3" d="M136.2,11911.6c.2-.4.2-.5.2-1.1v-2c0-1.6-1.3-3-3-3h-4.8c-7.2-3.9-12.2-11.1-12.9-19.7h42.3c5.4,0,9.8-4.5,9.8-9.8v-73c0-5.4-4.5-9.8-9.8-9.8H49.4c-5.4,0-9.8,4.5-9.8,9.8v73c0,5.4,4.5,9.8,9.8,9.8h43.3c-.7,8.6-5.7,15.9-12.9,19.7h-4.8c-1.6,0-3,1.3-3,3v2c0,.4.2.7.2,1.1H9v2h182.7v-2h-55.5ZM49.4,11883.9c-4.3,0-7.9-3.6-7.9-7.9v-73c0-4.3,3.6-7.9,7.9-7.9h108.6c4.3,0,7.9,3.6,7.9,7.9v73c0,4.3-3.6,7.9-7.9,7.9H49.4ZM134.4,11910.6c0,.5-.4,1.1-1.1,1.1h-58.3c-.5,0-1.1-.4-1.1-1.1v-2c0-.5.4-1.1,1.1-1.1h5.9v-.4c7.7-4.3,13.1-12.2,13.8-21.5h19c.7,8.9,5.5,16.5,12.9,20.8,4.1,2.5,1.8.9,1.8.9h5c.5,0,1.1.4,1.1,1.1v2.2h-.1Z"/>
    <path class="cls-3" d="M151.6,11786.4H43c-5.4,0-9.8,4.5-9.8,9.8v73h2v-73c0-4.3,3.6-7.9,7.9-7.9h108.6v-1.9h0Z"/>
    <path class="cls-3" d="M9.7,11864l-2.7,2.7-2.7-2.7-1.4,1.4,2.7,2.7-2.7,2.7,1.4,1.4,2.7-2.7,2.7,2.7,1.4-1.4-2.7-2.7,2.7-2.7-1.4-1.4ZM193.1,11786.2c-2.5,0-4.5,2-4.5,4.5s2,4.5,4.5,4.5,4.5-2,4.5-4.5-2-4.5-4.5-4.5ZM193.1,11793.2c-1.4,0-2.5-1.1-2.5-2.5s1.1-2.5,2.5-2.5,2.5,1.1,2.5,2.5-1.1,2.5-2.5,2.5ZM121.5,11764.7c-2.5,0-4.5,2-4.5,4.5s2,4.5,4.5,4.5,4.5-2,4.5-4.5-2-4.5-4.5-4.5ZM121.5,11771.7c-1.4,0-2.5-1.1-2.5-2.5s1.1-2.5,2.5-2.5,2.5,1.1,2.5,2.5-1,2.5-2.5,2.5Z"/>
    <path class="cls-21" d="M36.7,11768.5c-2.7,0-4.8,2.1-4.8,4.8s2.1,4.8,4.8,4.8,4.8-2.1,4.8-4.8-2.1-4.8-4.8-4.8ZM10.1,11773.5c-2,0-3.4-1.6-3.4-3.4s1.6-3.4,3.4-3.4,3.4,1.6,3.4,3.4-1.5,3.4-3.4,3.4ZM202.8,11832.7l-1.4-1.4-2.7,2.7-2.7-2.7-1.4,1.4,2.7,2.7-2.7,2.7,1.4,1.4,2.7-2.7,2.7,2.7,1.4-1.4-2.7-2.7,2.7-2.7Z"/>
    <g>
      <rect class="cls-7" x="51.9" y="11820.7" width="41.5" height="2"/>
      <rect class="cls-7" x="95.4" y="11820.7" width="3" height="2"/>
      <rect class="cls-7" x="51.9" y="11810.9" width="102.7" height="2"/>
    </g>
    <path class="cls-10" d="M167.5,11846.2c18.3,0,33.1,14.9,33.1,33.1s-14.9,33.1-33.1,33.1-33.1-14.9-33.1-33.1,14.7-33.1,33.1-33.1Z"/>
    <g>
      <line class="cls-14" x1="167.5" y1="11864.6" x2="167.5" y2="11893.9"/>
      <line class="cls-14" x1="182" y1="11879.3" x2="152.8" y2="11879.3"/>
    </g>
    <path class="cls-9" d="M137.6,11880.5c0-17.2,14-31.1,31.1-31.1s22.4,6.8,27.6,16.6c-5.2-10.9-16.3-18.6-29.2-18.6s-32.2,14.3-32.2,32.2,14.3,32.2,32.2,32.2h.9c-17-.7-30.4-14.3-30.4-31.3Z"/>
  </g>
  <g>
    <path id="Rectangle_112" data-name="Rectangle 112" class="cls-12" d="M103.2,12299.3h-46.1c-4.9,0-8.8-3.9-8.8-8.8v-94.7c0-4.9,3.9-8.8,8.8-8.8h55.2c4.9,0,8.8,3.9,8.8,8.8v38.6"/>
    <path id="Path_133" data-name="Path 133" class="cls-2" d="M90.7,12279.5c0,3.3-2.6,5.9-5.9,5.9s-5.9-2.6-5.9-5.9,2.6-5.9,5.9-5.9h0c3.3,0,5.9,2.6,5.9,5.9"/>
    <path id="Path_134" data-name="Path 134" class="cls-20" d="M141.1,12268.1h23.9c.4,0,.7-.4.7-.8v-23.3c0-.4-.3-.8-.7-.8h0l-23.9,3c-.4,0-.6.4-.6.8v20.4c0,.4.3.8.7.8h0Z"/>
    <path id="Path_135" data-name="Path 135" class="cls-20" d="M132.7,12267.3v-19.7c0-.4-.3-.8-.7-.8h0l-22.4,2.9c-.4,0-.6.4-.6.8v16.8c0,.4.3.8.7.8h22.4c.4,0,.7-.4.7-.8h0Z"/>
    <path id="Path_136" data-name="Path 136" class="cls-20" d="M140.4,12277v20.4c0,.4.2.7.6.8l23.9,3c.4,0,.7-.3.8-.7h0v-23.4c0-.4-.3-.8-.7-.8h-23.9c-.4,0-.7.4-.7.8h0Z"/>
    <path id="Path_137" data-name="Path 137" class="cls-20" d="M132,12276.2h-22.4c-.4,0-.7.4-.7.8v16.8c0,.4.2.7.6.8l22.4,2.9c.4,0,.8-.3.8-.7h0v-19.7c0-.4-.3-.8-.7-.8h0Z"/>
    <g id="Group_208" data-name="Group 208">
      <line id="Line_56" data-name="Line 56" class="cls-12" x1="64.1" y1="12202.9" x2="105.4" y2="12202.9"/>
      <line id="Line_57" data-name="Line 57" class="cls-12" x1="64.1" y1="12218.7" x2="105.4" y2="12218.7"/>
      <line id="Line_58" data-name="Line 58" class="cls-12" x1="64.1" y1="12234.5" x2="105.4" y2="12234.5"/>
      <line id="Line_59" data-name="Line 59" class="cls-12" x1="59.6" y1="12299.3" x2="36" y2="12299.3"/>
      <line id="Line_60" data-name="Line 60" class="cls-12" x1="28.8" y1="12289.2" x2="5.3" y2="12289.2"/>
      <line id="Line_61" data-name="Line 61" class="cls-12" x1="28.8" y1="12299.3" x2="21.9" y2="12299.3"/>
      <line id="Line_62" data-name="Line 62" class="cls-12" x1="99.5" y1="12299.3" x2="84.8" y2="12299.3"/>
    </g>
  </g>
  <metadata>
    <sfw xmlns="http://ns.adobe.com/SaveForWeb/1.0/">
      <slices/>
      <sliceSourceBounds x="-0.2" y="-169.6" width="277.2" height="12297.7" bottomLeftOrigin="true"/>
    </sfw>
  </metadata>
</svg>