<?xml version="1.0" encoding="utf-8"?>
<!-- Generator: Adobe Illustrator 25.4.1, SVG Export Plug-In . SVG Version: 6.00 Build 0)  -->
<!DOCTYPE svg PUBLIC "-//W3C//DTD SVG 1.1//EN" "http://www.w3.org/Graphics/SVG/1.1/DTD/svg11.dtd" [
	<!ENTITY ns_extend "http://ns.adobe.com/Extensibility/1.0/">
	<!ENTITY ns_ai "http://ns.adobe.com/AdobeIllustrator/10.0/">
	<!ENTITY ns_graphs "http://ns.adobe.com/Graphs/1.0/">
	<!ENTITY ns_vars "http://ns.adobe.com/Variables/1.0/">
	<!ENTITY ns_imrep "http://ns.adobe.com/ImageReplacement/1.0/">
	<!ENTITY ns_sfw "http://ns.adobe.com/SaveForWeb/1.0/">
	<!ENTITY ns_custom "http://ns.adobe.com/GenericCustomNamespace/1.0/">
	<!ENTITY ns_adobe_xpath "http://ns.adobe.com/XPath/1.0/">
]>
<svg version="1.1" id="Layer_1" xmlns:x="&ns_extend;" xmlns:i="&ns_ai;" xmlns:graph="&ns_graphs;"
	 xmlns="http://www.w3.org/2000/svg" xmlns:xlink="http://www.w3.org/1999/xlink" x="0px" y="0px" width="151.1px" height="530.4px"
	 viewBox="0 0 151.1 530.4" enable-background="new 0 0 151.1 530.4" xml:space="preserve">
<metadata>
	<sfw  xmlns="&ns_sfw;">
		<slices></slices>
		<sliceSourceBounds  bottomLeftOrigin="true" height="415.1" width="83.6" x="1" y="114.5"></sliceSourceBounds>
	</sfw>
</metadata>
<g>
	<path fill="#3C495F" d="M70,0.8h-6.9c-0.6,0-1.1,0.5-1.1,1.1v16.8c0,0.6,0.5,1.1,1.1,1.1h7v-1l-7.1-0.1l0.1-16.9l6.9,0.1v6.9h1V1.8
		C71.1,1.3,70.6,0.8,70,0.8z"/>
	<path fill="#3C495F" d="M73.1,1.8l6.9,0.1v6.9h1V1.8c0-0.6-0.5-1.1-1.1-1.1c0,0,0,0,0,0h-6.8c-0.6,0-1.1,0.5-1.1,1.1v6.9h1
		L73.1,1.8z"/>
	<rect x="65.1" y="15.7" fill="#3C495F" width="2" height="1"/>
	<rect x="64.1" y="2.7" fill="#3C495F" width="5" height="1"/>
	<rect x="64.1" y="4.7" fill="#3C495F" width="5" height="1"/>
	<rect x="64.1" y="6.7" fill="#3C495F" width="5" height="1"/>
	<rect x="74.1" y="2.7" fill="#3C495F" width="5" height="1"/>
	<rect x="74.1" y="4.7" fill="#3C495F" width="5" height="1"/>
	<rect x="74.1" y="6.7" fill="#3C495F" width="5" height="1"/>
	<path fill="#3C495F" d="M83,12.6h-1.9v-1.8c0-0.6-0.5-1.1-1.1-1.1h-7.8c-0.6,0-1.1,0.5-1.1,1.1v7.8c0,0.6,0.5,1.1,1.1,1.1h1.8v1
		c0,0.6,0.5,1.1,1.1,1.1H83c0.6,0,1.1-0.5,1.1-1.1v-7C84.1,13.1,83.6,12.7,83,12.6C83,12.6,83,12.6,83,12.6z M74.1,13.7v5h-1.9
		l0.1-7.9l7.9,0.1v1.8h-5C74.6,12.7,74.1,13.1,74.1,13.7L74.1,13.7z M83.1,20.7C83.1,20.7,83,20.8,83.1,20.7h-8v-2v-5.1h5h1H83
		L83.1,20.7z"/>
	<polygon fill="#3C495F" points="79.1,14.8 78.1,14.8 78.1,17.7 81.1,17.7 81.1,16.7 79.1,16.7 	"/>
	<path fill="#3C495F" d="M62.6,63.6l6.9,0.1v7.9h1v-7.9c0-0.6-0.5-1.1-1.1-1.1h-6.9c-0.6,0-1.1,0.5-1.1,1.1v16.8
		c0,0.6,0.5,1.1,1.1,1.1h7v-1l-7.1-0.1L62.6,63.6z"/>
	<path fill="#3C495F" d="M72.6,63.6l6.9,0.1v7.9h1v-7.9c0-0.6-0.5-1.1-1.1-1.1h-6.9c-0.6,0-1.1,0.5-1.1,1.1v7.9h1L72.6,63.6z"/>
	<path fill="#3C495F" d="M70.6,72.5v9.1h14v-9.1H70.6z M83.6,80.5h-12v-7.1h12V80.5z"/>
	<rect x="64.6" y="77.5" fill="#3C495F" width="2" height="1"/>
	<rect x="63.6" y="64.5" fill="#3C495F" width="5" height="1"/>
	<rect x="63.6" y="66.5" fill="#3C495F" width="5" height="1"/>
	<rect x="63.6" y="68.5" fill="#3C495F" width="5" height="1"/>
	<rect x="73.5" y="64.5" fill="#3C495F" width="5" height="1"/>
	<rect x="73.5" y="66.5" fill="#3C495F" width="5" height="1"/>
	<rect x="73.5" y="68.5" fill="#3C495F" width="5" height="1"/>
	<polygon fill="#3C495F" points="76.8,78.7 73.9,78.7 73.9,77.3 76.4,77.3 76.4,76.6 73.9,76.6 73.9,75.3 76.8,75.3 76.8,74.6 
		72.8,74.6 72.8,79.4 76.8,79.4 	"/>
	<polygon fill="#3C495F" points="78.5,79.4 79.8,77.6 81.1,79.4 82.3,79.4 80.5,77 82.3,74.6 81.1,74.6 79.8,76.3 78.5,74.6 
		77.3,74.6 79.1,77 77.2,79.4 	"/>
	<polygon opacity="8.000000e-02" fill="#006CBB" enable-background="new    " points="77.6,122.5 77.6,129.5 75.6,129.5 75.6,124.5 
		67.3,124.5 67.3,122.5 	"/>
	<polygon opacity="8.000000e-02" fill="#006CBB" enable-background="new    " points="63.5,126.5 63.5,136.5 65.5,136.5 65.5,129.5 
		73.7,129.5 73.7,126.5 	"/>
	<polygon fill="none" stroke="#006CBB" stroke-width="1" stroke-miterlimit="9.9996" points="74.1,126 74.1,131 67.1,131 
		67.1,135.9 63.1,135.9 63.1,126 	"/>
	<polygon fill="none" stroke="#006CBB" stroke-width="1" stroke-miterlimit="9.9996" points="78.1,121.9 78.1,131 74.1,131 
		74.1,126 67.1,126 67.1,121.9 	"/>
	<rect x="67.1" y="131" fill="#FFFFFF" stroke="#006CBB" stroke-width="1" stroke-miterlimit="9.9996" width="16" height="7.8"/>
	<polygon fill="#006CBB" points="72.2,137.3 74,132.5 73.3,132.5 72,136.5 70.6,132.5 69.9,132.5 71.7,137.3 	"/>
	<polygon fill="#006CBB" points="75.3,135.4 75.2,133.4 76.8,137.3 77.3,137.3 78.9,133.4 78.8,135.4 78.8,137.3 79.5,137.3 
		79.5,132.5 78.6,132.5 77.1,136.4 75.5,132.5 74.7,132.5 74.7,137.3 75.3,137.3 	"/>
	<polygon points="79.3,190.6 73.8,185.2 79.2,179.7 78.5,179 73.1,184.5 67.6,179.1 66.9,179.8 72.4,185.2 66.9,190.7 67.7,191.4 
		73.1,185.9 78.6,191.4 	"/>
	<path fill="#B3BAC7" d="M80.1,245.8h-14v-14h14V245.8z M67.1,244.8h12v-12h-12V244.8z"/>
	<rect x="69.2" y="237.8" fill="#4A9BCF" width="7.9" height="2"/>
	<path fill="#B3BAC7" d="M80.1,300.2h-14v-14h14V300.2z M67.1,299.2h12v-12h-12V299.2z"/>
	<path fill="#0071BC" d="M80.1,353.7h-14v-14h14V353.7z"/>
	<path fill="#FFFFFF" d="M76.7,343.5c-0.4-0.3-1.1-0.3-1.4,0.2c0,0,0,0,0,0l-3.1,3.8l-1.6-1.4c-0.4-0.4-1-0.4-1.4,0
		c-0.4,0.4-0.4,1,0,1.4c0,0,0,0,0.1,0.1l2.5,2.2c0.4,0.3,0.9,0.3,1.2-0.1c0,0,0,0,0,0l3.8-4.8C77.2,344.5,77.2,343.9,76.7,343.5
		C76.7,343.5,76.7,343.5,76.7,343.5L76.7,343.5z"/>
</g>
<path fill="#3790CA" d="M73.1,399.4c-3.1,0-5.5,2.5-5.5,5.5s2.5,5.5,5.5,5.5c3.1,0,5.5-2.5,5.5-5.5l0,0
	C78.6,401.9,76.1,399.4,73.1,399.4z M73.1,409.5c-2.5,0-4.5-2-4.5-4.5c0-2.5,2-4.5,4.5-4.5c2.5,0,4.5,2,4.5,4.5l0,0
	C77.6,407.4,75.6,409.5,73.1,409.5z"/>
<rect x="70.6" y="404.4" fill="#3790CA" width="5" height="1"/>
<g>
	<g>
		<path fill="#4697CD" d="M3,3h6v5h2V2.3C11,1.6,10.4,1,9.7,1l0,0H2.3C1.6,1,1,1.6,1,2.3c0,0,0,0,0,0v12.4C1,15.4,1.6,16,2.3,16l0,0
			H7v-2H3V3z"/>
		<path fill="#4697CD" d="M14,3h6v5h2V2.3c0-0.7-0.6-1.3-1.3-1.3c0,0,0,0,0,0h-7.4C12.6,1,12,1.6,12,2.3c0,0,0,0,0,0V8h2V3z"/>
		<path fill="#4697CD" d="M24.2,9H8.8C8.3,9,8,9.4,8,9.8v0v7.4C8,17.6,8.3,18,8.8,18h0h15.4c0.4,0,0.8-0.3,0.8-0.8c0,0,0,0,0,0V9.8
			C25,9.4,24.6,9,24.2,9C24.2,9,24.2,9,24.2,9z M24,17H9v-7h15V17z"/>
		<rect x="4" y="5" fill="#4697CD" width="4" height="1"/>
		<rect x="4" y="7" fill="#4697CD" width="4" height="1"/>
		<rect x="15" y="5" fill="#4697CD" width="4" height="1"/>
		<rect x="15" y="7" fill="#4697CD" width="4" height="1"/>
		<polygon fill="#4697CD" points="13.2,15.4 10.8,15.4 10.8,13.7 12.9,13.7 12.9,13.2 10.8,13.2 10.8,11.6 13.2,11.6 13.2,11.1 
			10.2,11.1 10.2,15.9 13.2,15.9 		"/>
		<path fill="#4697CD" d="M15.5,15.5c-0.3,0-0.6-0.1-0.9-0.2c-0.2-0.2-0.3-0.4-0.3-0.7h-0.6c0,0.3,0.1,0.5,0.2,0.7
			c0.2,0.2,0.4,0.4,0.7,0.5c0.3,0.1,0.6,0.2,0.9,0.2c0.4,0,0.9-0.1,1.2-0.3c0.3-0.2,0.5-0.6,0.5-0.9c0-0.2,0-0.4-0.2-0.6
			c-0.1-0.2-0.3-0.4-0.5-0.5c-0.3-0.2-0.6-0.3-0.9-0.4c-0.3-0.1-0.6-0.2-0.8-0.4c-0.2-0.1-0.3-0.3-0.2-0.5c0-0.2,0.1-0.4,0.3-0.6
			c0.2-0.2,0.5-0.2,0.7-0.2c0.3,0,0.6,0.1,0.8,0.2c0.2,0.2,0.3,0.4,0.3,0.7h0.6c0-0.3-0.1-0.5-0.2-0.7c-0.1-0.2-0.4-0.4-0.6-0.5
			c-0.3-0.1-0.6-0.2-0.9-0.2c-0.4,0-0.8,0.1-1.2,0.4c-0.3,0.2-0.5,0.6-0.4,0.9c0,0.3,0.1,0.6,0.4,0.8c0.3,0.3,0.8,0.5,1.2,0.6
			c0.3,0.1,0.6,0.2,0.9,0.4c0.2,0.1,0.3,0.3,0.2,0.5c0,0.2-0.1,0.4-0.3,0.6C16.1,15.4,15.8,15.5,15.5,15.5z"/>
		<polygon fill="#4697CD" points="18.4,15.9 19.6,14 20.8,15.9 21.5,15.9 20,13.5 21.5,11.1 20.8,11.1 19.6,12.9 18.4,11.1 
			17.7,11.1 19.2,13.5 17.7,15.9 		"/>
		<rect x="22.2" y="12.3" fill="#4697CD" width="0.6" height="3.6"/>
		<path fill="#4697CD" d="M22.5,11.7c0.1,0,0.2,0,0.3-0.1c0.1-0.1,0.1-0.4,0-0.5c-0.2-0.1-0.4-0.1-0.5,0c-0.1,0.1-0.1,0.4,0,0.5
			C22.4,11.7,22.4,11.8,22.5,11.7z"/>
	</g>
	<g>
		<polygon fill="#4697CD" points="15.9,71.1 17.7,66.3 17,66.3 15.6,70.3 14.3,66.3 13.6,66.3 15.3,71.1 		"/>
		<polygon fill="#4697CD" points="19,69.2 18.9,67.2 20.5,71.1 21,71.1 22.5,67.2 22.5,69.2 22.5,71.1 23.1,71.1 23.1,66.3 
			22.3,66.3 20.7,70.2 19.2,66.3 18.3,66.3 18.3,71.1 19,71.1 		"/>
		<path fill="#4697CD" d="M5,64.1H3v5.8c0,0.7,0.6,1.3,1.3,1.3H10v-2H5V64.1z"/>
		<path fill="#4697CD" d="M17,63h2v-2.7c0-0.7-0.6-1.3-1.3-1.3c0,0,0,0,0,0H8v2h9V63z"/>
		<path fill="#4697CD" d="M25.2,64.1H11.8c-0.4,0-0.8,0.3-0.8,0.8v7.4c0,0.4,0.3,0.8,0.8,0.8h13.4c0.4,0,0.8-0.3,0.8-0.8v-7.4
			C26,64.4,25.7,64.1,25.2,64.1C25.2,64.1,25.2,64.1,25.2,64.1z M25,72.1H12v-7h13L25,72.1L25,72.1z"/>
		<polygon fill="#4697CD" points="3,63 5,63 5,61 7,61 7,59.1 5,59.1 5,57 3,57 3,59 1,59 1,61 3,61 		"/>
		<path fill="#4697CD" d="M6,73c0,0.6,0.4,1,1,1h3v-2H7C6.4,72,6,72.5,6,73z"/>
	</g>
	<g>
		<path fill="#4697CD" d="M17.5,114.1h-3.5v1.9h-2v-1.9h-4v1.9h-2v-1.9H2.6c-0.9,0-1.6,0.7-1.6,1.6c0,0,0,0,0,0v12.7
			c0,0.9,0.7,1.6,1.6,1.6c0,0,0,0,0,0h14.9c0.9,0,1.5-0.7,1.5-1.6v-12.7C19,114.8,18.3,114.1,17.5,114.1z M17,128H3v-9.9h14V128z"/>
		<rect x="5" y="120" fill="#4697CD" width="1.9" height="1.9"/>
		<rect x="8.9" y="120" fill="#4697CD" width="1.9" height="1.9"/>
		<rect x="12.9" y="120" fill="#4697CD" width="1.9" height="1.9"/>
		<rect x="5" y="124" fill="#4697CD" width="1.9" height="1.9"/>
		<rect x="8.9" y="124" fill="#4697CD" width="1.9" height="1.9"/>
		<rect x="12.9" y="124" fill="#4697CD" width="1.9" height="1.9"/>
	</g>
	<g>
		<path fill="#4697CD" d="M10,170c-5,0-9,4-9,9c0,5,4,9,9,9s9-4,9-9c0,0,0,0,0,0C19,174,15,170,10,170z M10,185.9
			c-3.8,0-6.9-3.2-6.9-7c0-3.8,3.2-6.9,7-6.9c3.8,0,6.9,3.1,6.9,6.9C17,182.8,13.8,185.9,10,185.9z"/>
		<path fill="#4697CD" d="M13.6,175.4c-0.4-0.3-1.1-0.3-1.4,0.2c0,0,0,0,0,0l-3.1,3.8L7.5,178c-0.4-0.4-1-0.4-1.4,0
			c-0.4,0.4-0.4,1,0,1.4c0,0,0,0,0.1,0.1l2.5,2.2c0.4,0.3,0.9,0.3,1.2-0.1c0,0,0,0,0,0l3.8-4.8C14.1,176.4,14,175.7,13.6,175.4
			C13.6,175.4,13.6,175.4,13.6,175.4L13.6,175.4z"/>
	</g>
	<g>
		<path fill="#D7D0D0" d="M3,231h6v5h2v-5.7c0-0.7-0.6-1.3-1.3-1.3H2.3c-0.7,0-1.3,0.6-1.3,1.3c0,0,0,0,0,0v12.4
			c0,0.7,0.6,1.3,1.3,1.3H7v-2H3V231z"/>
		<path fill="#D7D0D0" d="M14,231h6v5h2v-5.7c0-0.7-0.6-1.3-1.3-1.3c0,0,0,0,0,0h-7.4c-0.7,0-1.3,0.6-1.3,1.3c0,0,0,0,0,0v5.7h2V231
			z"/>
		<path fill="#D7D0D0" d="M24.2,237H8.8c-0.4,0-0.8,0.3-0.8,0.8v7.4c0,0.4,0.3,0.8,0.8,0.8h15.4c0.4,0,0.8-0.3,0.8-0.8v-7.4
			C25,237.4,24.6,237,24.2,237z M24,245H9V238h15V245z"/>
		<rect x="4" y="233" fill="#D7D0D0" width="4" height="1"/>
		<rect x="4" y="235" fill="#D7D0D0" width="4" height="1"/>
		<rect x="15" y="233" fill="#D7D0D0" width="4" height="1"/>
		<rect x="15" y="235" fill="#D7D0D0" width="4" height="1"/>
		<polygon fill="#D7D0D0" points="13.2,243.4 10.8,243.4 10.8,241.7 12.9,241.7 12.9,241.2 10.8,241.2 10.8,239.6 13.2,239.6 
			13.2,239.1 10.2,239.1 10.2,243.9 13.2,243.9 		"/>
		<path fill="#D7D0D0" d="M15.5,243.5c-0.3,0-0.6-0.1-0.9-0.2c-0.2-0.2-0.3-0.4-0.3-0.7h-0.6c0,0.3,0.1,0.5,0.2,0.7
			c0.2,0.2,0.4,0.4,0.7,0.5c0.3,0.1,0.6,0.2,0.9,0.2c0.4,0,0.9-0.1,1.2-0.3c0.3-0.2,0.5-0.6,0.5-0.9c0-0.2,0-0.4-0.2-0.6
			c-0.1-0.2-0.3-0.4-0.5-0.5c-0.3-0.2-0.6-0.3-0.9-0.4c-0.3-0.1-0.6-0.2-0.8-0.4c-0.2-0.1-0.3-0.3-0.2-0.5c0-0.2,0.1-0.4,0.3-0.6
			c0.2-0.2,0.5-0.2,0.7-0.2c0.3,0,0.6,0.1,0.8,0.2c0.2,0.2,0.3,0.4,0.3,0.7h0.6c0-0.3-0.1-0.5-0.2-0.7c-0.1-0.2-0.4-0.4-0.6-0.5
			c-0.3-0.1-0.6-0.2-0.9-0.2c-0.4,0-0.8,0.1-1.2,0.4c-0.3,0.2-0.5,0.6-0.4,0.9c0,0.3,0.1,0.6,0.4,0.8c0.3,0.3,0.8,0.5,1.2,0.6
			c0.3,0.1,0.6,0.2,0.9,0.4c0.2,0.1,0.3,0.3,0.2,0.5c0,0.2-0.1,0.4-0.3,0.6C16.1,243.4,15.8,243.5,15.5,243.5z"/>
		<polygon fill="#D7D0D0" points="18.4,243.9 19.6,242 20.8,243.9 21.5,243.9 20,241.5 21.5,239.1 20.8,239.1 19.6,240.9 
			18.4,239.1 17.7,239.1 19.2,241.5 17.7,243.9 		"/>
		<rect x="22.2" y="240.3" fill="#D7D0D0" width="0.6" height="3.6"/>
		<path fill="#D7D0D0" d="M22.5,239.7c0.1,0,0.2,0,0.3-0.1c0.1-0.1,0.1-0.4,0-0.5c-0.2-0.1-0.4-0.1-0.5,0c-0.1,0.1-0.1,0.4,0,0.5
			C22.4,239.7,22.4,239.7,22.5,239.7z"/>
	</g>
	<g>
		<polygon fill="#D7D0D0" points="15.9,299.1 17.7,294.3 17,294.3 15.6,298.3 14.3,294.3 13.6,294.3 15.3,299.1 		"/>
		<polygon fill="#D7D0D0" points="19,297.2 18.9,295.2 20.5,299.1 21,299.1 22.5,295.2 22.5,297.2 22.5,299.1 23.1,299.1 
			23.1,294.3 22.3,294.3 20.7,298.2 19.2,294.3 18.3,294.3 18.3,299.1 19,299.1 		"/>
		<path fill="#D7D0D0" d="M5,292.1H3v5.8c0,0.7,0.6,1.3,1.3,1.3H10v-2H5V292.1z"/>
		<path fill="#D7D0D0" d="M17,291h2v-2.7c0-0.7-0.6-1.3-1.3-1.3c0,0,0,0,0,0H8v2h9V291z"/>
		<path fill="#D7D0D0" d="M25.2,292.1H11.8c-0.4,0-0.8,0.3-0.8,0.8v7.4c0,0.4,0.3,0.8,0.8,0.8h13.4c0.4,0,0.8-0.3,0.8-0.8v-7.4
			C26,292.4,25.7,292.1,25.2,292.1C25.2,292.1,25.2,292.1,25.2,292.1z M25,300H12v-6.9h13V300z"/>
		<polygon fill="#D7D0D0" points="3,291 5,291 5,289 7,289 7,287 5,287 5,285 3,285 3,287 1,287 1,289 3,289 		"/>
		<path fill="#D7D0D0" d="M6,301c0,0.6,0.4,1,1,1h3v-2H7C6.4,300,6,300.5,6,301z"/>
	</g>
	<g>
		<path fill="#D7D0D0" d="M17.5,342.1h-3.5v1.9h-2v-1.9h-4v1.9h-2v-1.9H2.6c-0.9,0-1.6,0.7-1.6,1.6c0,0,0,0,0,0v12.7
			c0,0.9,0.7,1.6,1.6,1.6c0,0,0,0,0,0h14.9c0.9,0,1.5-0.7,1.5-1.6v-12.7C19,342.8,18.3,342.1,17.5,342.1z M17,355.9H3v-9.9h14V355.9
			z"/>
		<rect x="5" y="348" fill="#D7D0D0" width="1.9" height="1.9"/>
		<rect x="8.9" y="348" fill="#D7D0D0" width="1.9" height="1.9"/>
		<rect x="12.9" y="348" fill="#D7D0D0" width="1.9" height="1.9"/>
		<rect x="5" y="352" fill="#D7D0D0" width="1.9" height="1.9"/>
		<rect x="8.9" y="352" fill="#D7D0D0" width="1.9" height="1.9"/>
		<rect x="12.9" y="352" fill="#D7D0D0" width="1.9" height="1.9"/>
	</g>
	<g>
		<path fill="#D7D0D0" d="M10,398c-4.9,0-8.9,4.1-8.9,9c0,4.9,4.1,8.9,9,8.9c4.9,0,8.9-4,8.9-8.9C19,402,15,398,10,398z M10,413.9
			c-3.8,0-6.9-3.2-6.9-7c0-3.8,3.2-6.9,7-6.9c3.8,0,6.9,3.1,6.9,6.9C17,410.8,13.8,413.9,10,413.9z"/>
		<path fill="#D7D0D0" d="M13.6,403.4c-0.4-0.3-1.1-0.3-1.4,0.2c0,0,0,0,0,0l-3.1,3.8L7.5,406c-0.4-0.4-1-0.4-1.4,0
			c-0.4,0.4-0.4,1,0,1.4c0,0,0,0,0.1,0.1l2.5,2.2c0.4,0.3,0.9,0.3,1.2-0.1c0,0,0,0,0,0l3.8-4.8C14.1,404.3,14,403.7,13.6,403.4
			C13.6,403.4,13.6,403.4,13.6,403.4L13.6,403.4z"/>
	</g>
</g>
</svg>
