<?xml version="1.0" encoding="utf-8"?>
<!-- Generator: Adobe Illustrator 26.5.0, SVG Export Plug-In . SVG Version: 6.00 Build 0)  -->
<svg version="1.1" id="Layer_1" xmlns="http://www.w3.org/2000/svg" xmlns:xlink="http://www.w3.org/1999/xlink" x="0px" y="0px"
	 width="210px" height="32px" viewBox="0 0 210 32" style="enable-background:new 0 0 210 32;" xml:space="preserve">
<style type="text/css">
	.st0{fill:#FFFFFF;}
</style>
<g>
	<g>
		<g>
			<path class="st0" d="M98.1,28.6h-8V13c0-1,0.8-1.9,1.8-1.9h6.5c3.4,0,5.5,1.3,5.5,4.4c0,1.9-0.8,3-2.1,3.7
				c1.8,0.7,2.8,1.8,2.8,4.1C104.5,26.9,101.9,28.6,98.1,28.6z M97.6,14h-4v3.8h4.1c1.5,0,2.6-0.5,2.6-1.9S99.2,14,97.6,14z
				 M97.7,20.8h-4.1v4.6h4.2c1.8,0,2.9-0.5,2.9-2.3C100.6,21.3,99.6,20.8,97.7,20.8z"/>
			<path class="st0" d="M108,11.1h3.4l3.5,13.4l3.4-13.4h5.4v17.6h-3.4V14.4l-3.6,14.2h-3.7l-3.6-14.2v14.2h-3.4V13
				C106.1,11.9,107,11.1,108,11.1z"/>
			<path class="st0" d="M137.1,20.2c0.8,0.2,1.3,0.7,1.7,1.2c0.3,0.5,0.5,1.5,0.5,2.6l0.2,3.4c0,0.5,0.2,0.9,0.5,1.1h-4
				c-0.2-0.3-0.2-0.7-0.3-1.1c-0.1-0.2-0.2-1.2-0.2-3c-0.2-2.1-0.5-2.8-2.7-2.8H129v6.8h-3.6V13c0-1,0.8-1.9,1.8-1.9h6.7
				c3.7,0,5.7,1.4,5.7,5.1C139.7,18.3,138.8,19.7,137.1,20.2z M133.6,14h-4.4v4.7h4.2c1.7,0,2.7-0.6,2.7-2.3S135.2,14,133.6,14z"/>
		</g>
		<g>
			<path class="st0" d="M85.6,7.7c-0.2-0.2-0.3-0.2-0.5-0.4c0.4-0.1,0.7-0.2,0.8-0.4s0.3-0.5,0.3-0.8c0-0.2-0.1-0.5-0.2-0.7
				c-0.2-0.2-0.3-0.4-0.5-0.4c-0.2-0.1-0.5-0.2-1-0.2h-0.1h-1.7v4.1h0.8V7.4h0.2c0.2,0,0.4,0,0.4,0.1c0.1,0,0.2,0.1,0.2,0.2
				c0.1,0.2,0.2,0.3,0.4,0.6l0.6,0.9h1l-0.5-0.8C85.9,8.1,85.7,7.8,85.6,7.7z M84.6,6.9c-0.1,0-0.2,0-0.2,0h-0.6V5.8h0.7
				c0.1,0,0.2,0,0.2,0c0.2,0,0.4,0,0.4,0c0.2,0,0.2,0.1,0.3,0.2c0.1,0.1,0.2,0.2,0.2,0.4c0,0.2-0.1,0.2-0.2,0.3
				c-0.1,0.1-0.2,0.2-0.2,0.2C85,6.9,84.8,6.9,84.6,6.9z"/>
			<path class="st0" d="M87.4,4.3c-0.7-0.7-1.8-1.2-2.9-1.2s-2.1,0.5-2.9,1.2c-0.7,0.7-1.2,1.8-1.2,2.9s0.5,2.1,1.2,2.9
				c0.7,0.7,1.8,1.2,2.9,1.2s2.1-0.5,2.9-1.2c0.7-0.7,1.2-1.8,1.2-2.9C88.5,6,88.1,5,87.4,4.3z M86.8,9.5c-0.6,0.6-1.4,0.9-2.3,0.9
				s-1.7-0.4-2.3-0.9c-0.6-0.6-1-1.4-1-2.3s0.4-1.7,1-2.3s1.4-1,2.3-1s1.7,0.4,2.3,1s1,1.4,1,2.3C87.8,8,87.4,8.8,86.8,9.5z"/>
		</g>
		<g>
			<path class="st0" d="M3.5,6.5C3,7,2.8,7.6,2.8,8.3v20.4h4.9V5.9H5.2C4.6,5.9,4,6.1,3.5,6.5z"/>
			<path class="st0" d="M19.2,5.9h-6.9c-0.7,0-1.3,0.2-1.8,0.7c-0.5,0.5-0.7,1.1-0.7,1.7v20.4H18c2.3,0,4-0.2,5.1-0.5
				c1.1-0.3,2.2-0.8,3.3-1.6c1.1-0.8,2.1-2.1,3-3.8c0.7-1.6,1-3.4,1-5.4c0-3.8-0.9-6.7-2.7-8.6C25.6,6.9,22.9,5.9,19.2,5.9z
				 M23.5,22.9c-1.1,1.1-2.8,1.7-5,1.7h-4V9.8h4.6c2.1,0,3.5,0.6,4.4,1.8c1,1.1,1.5,3.1,1.5,5.6C25.1,19.9,24.6,21.8,23.5,22.9z"/>
			<path class="st0" d="M40.9,11.1c-1.2,0-2.5,0.2-3.7,0.5S35,12.3,34.2,13c-0.9,0.7-1.6,1.6-2.1,2.8c-0.5,1.1-0.8,2.6-0.8,4.4v8.5
				h4.9v-9.1c0-1.3,0.3-2.3,1-2.9c0.7-0.6,1.6-0.9,3.1-0.9h1.6v-4.7h-0.3H40.9L40.9,11.1z"/>
			<path class="st0" d="M45.6,11.1h-2.5v17.6H48V13.4c0-0.6-0.2-1.1-0.7-1.6C46.8,11.2,46.3,11.1,45.6,11.1z"/>
			<path class="st0" d="M63.2,11.1c-1.1,0-1.8,0.5-2.2,1.6l-3.3,10.8L54,11.1h-5.2l6.5,17.6h4.9l6.6-17.6H63.2z"/>
			<path class="st0" d="M45.3,4.6c1.5,0,2.7,1.1,2.7,2.6c0,1.4-1.1,2.6-2.7,2.6c-1.5,0-2.7-1.1-2.7-2.6S43.8,4.6,45.3,4.6z"/>
			<path class="st0" d="M81.2,13.3c-1.5-1.5-3.6-2.3-6.3-2.3c-2.5,0-4.6,0.8-6,2.4c-1.4,1.5-2.1,3.7-2.1,6.4c0,2.8,0.7,5.1,2.1,6.6
				c1.5,1.6,3.4,2.4,6,2.4c2.1,0,3.9-0.5,5.3-1.5c1.4-0.9,2.4-2.3,2.8-4.1h-3.4c-0.5,0-0.9,0.2-1.3,0.3c-0.3,0.2-0.5,0.4-0.5,0.5
				c-0.2,0.2-0.2,0.2-0.4,0.4s-0.2,0.2-0.4,0.2c-0.5,0.3-1.2,0.5-2,0.5c-1.1,0-2.1-0.3-2.6-1c-0.6-0.6-0.9-1.6-1-2.9h11.7
				c0.1-0.1,0.1-0.2,0.1-0.5v-0.2v-0.5C83.3,17,82.6,14.9,81.2,13.3z M71.6,18.1c0.1-1.1,0.4-2,1-2.5c0.6-0.5,1.5-0.9,2.4-0.9
				c1.1,0,1.9,0.3,2.4,0.9c0.5,0.5,0.8,1.4,0.9,2.5H71.6z"/>
		</g>
	</g>
	<g>
		<g>
			<path class="st0" d="M160.7,22c-0.4,3.8-3.5,6.9-8.4,6.9c-5.5,0-9-3.4-9-8.9c0-3.9,2.4-9,9-9c3.7,0,7.7,1.7,8.3,6.1h-1.8
				c-0.5-3.2-3.4-4.5-6.5-4.5c-4.2,0-7.1,2.4-7.1,7.3c0,3.8,2,7.3,7.1,7.3c4.1,0,6-2.1,6.7-5.3L160.7,22L160.7,22z"/>
			<path class="st0" d="M173.6,26.1L173.6,26.1c-0.5,1.3-2.4,2.8-5.1,2.8c-4.1,0-5.4-2.1-5.4-5.1v-7.7h1.8v8c0,2.4,1.5,3.3,3.8,3.3
				c3.4,0,5.1-1.8,5.1-4.6v-6.7h1.8v12.7h-1.8L173.6,26.1z"/>
			<path class="st0" d="M178,11.4h1.8v7.2h0.1c0.8-1.6,2.7-2.8,5.1-2.8c4.6,0,6.7,3.1,6.7,6.6c0,3-1.7,6.6-6.7,6.6
				c-3,0-4.6-1.8-5.1-2.8h-0.1v2.8H178V11.4z M184.9,27.4c3.6,0,5-2.6,5-5.1c0-3.1-2.2-5.1-5-5.1c-3.6,0-5.2,2.5-5.2,5.1
				C179.7,25.5,182,27.4,184.9,27.4z"/>
			<path class="st0" d="M206.9,24.5c-0.7,2.2-2.6,4.4-6.7,4.4c-5.1,0-6.7-3.5-6.7-6.6c0-3.4,2.1-6.6,6.7-6.6c3.1,0,7,1.4,7,7h-11.9
				c0,2.6,1.8,4.7,5,4.7c3,0,4.3-0.9,4.9-2.8C205.1,24.5,206.9,24.5,206.9,24.5z M205.4,21.4c-0.5-3.1-2.8-4.2-5.1-4.2
				s-4.7,1.1-5.1,4.2H205.4z"/>
		</g>
	</g>
</g>
</svg>
