<?xml version="1.0" encoding="utf-8"?>
<!-- Generator: Adobe Illustrator 24.3.0, SVG Export Plug-In . SVG Version: 6.00 Build 0)  -->
<svg version="1.1" id="Layer_1" xmlns="http://www.w3.org/2000/svg" xmlns:xlink="http://www.w3.org/1999/xlink" x="0px" y="0px"
	 width="381px" height="1345.8px" viewBox="0 0 381 1345.8" style="enable-background:new 0 0 381 1345.8;" xml:space="preserve">
<style type="text/css">
	.st0{fill:none;stroke:#FFFFFF;stroke-miterlimit:10;}
	.st1{fill:none;stroke:#FFFFFF;stroke-linecap:round;stroke-linejoin:round;stroke-miterlimit:10;}
	.st2{fill:none;stroke:#0D72BA;stroke-miterlimit:10;}
	.st3{fill:none;stroke:#0D72BA;stroke-width:3;stroke-miterlimit:10;}
	.st4{fill:#0D72BA;}
	.st5{fill:#FFFFFF;}
	.st6{fill:none;stroke:#FFFFFF;stroke-linecap:round;stroke-miterlimit:10;}
	.st7{fill:none;stroke:#FFFFFF;stroke-width:3;stroke-miterlimit:10;}
	.st8{fill:none;stroke:#3A579B;stroke-miterlimit:10;}
	.st9{fill:#3A579B;}
	.st10{fill:#9DA2A6;}
	.st11{fill:none;stroke:#FFFFFF;stroke-width:2;stroke-miterlimit:10;}
	.st12{fill:none;stroke:#0063A5;stroke-linecap:round;stroke-miterlimit:10;}
	.st13{fill:none;stroke:#0E2032;stroke-linecap:round;stroke-miterlimit:10;}
	.st14{fill:none;stroke:#75A1CF;stroke-miterlimit:10;}
	.st15{fill:none;stroke:#7293AF;stroke-width:3;stroke-miterlimit:10;}
	.st16{fill:none;stroke:#7293AF;stroke-width:3;stroke-linecap:round;stroke-miterlimit:10;}
	.st17{fill:#4C6275;}
	.st18{fill:#E87060;}
	.st19{font-family:'ArialMT';}
	.st20{font-size:13px;}
	.st21{fill:#6ABD4C;}
	.st22{font-family:'Roboto-Regular';}
	.st23{fill:none;stroke:#7394B0;stroke-width:4;stroke-miterlimit:10;}
	.st24{fill:none;stroke:#7394B0;stroke-width:4;stroke-linecap:round;stroke-miterlimit:10;}
	.st25{fill:none;stroke:#F47A67;stroke-width:3;stroke-miterlimit:10;}
	.st26{fill:none;stroke:#F47A67;stroke-width:3;stroke-linecap:round;stroke-miterlimit:10;}
	.st27{fill:#AB5447;}
	.st28{fill:#A3B7C0;}
	.st29{font-size:12.2591px;}
	.st30{fill:none;stroke:#005287;stroke-miterlimit:10;}
	.st31{fill:none;stroke:#005287;stroke-linejoin:round;stroke-miterlimit:10;}
	.st32{fill:#005287;}
	.st33{fill:none;stroke:#F5AC43;stroke-width:2;stroke-miterlimit:10;}
	.st34{fill:none;stroke:#72CDDD;stroke-width:2;stroke-miterlimit:10;}
	.st35{fill:#45474B;}
	.st36{font-family:'OpenSans';}
	.st37{font-size:23px;}
	.st38{fill:none;stroke:#F37A71;stroke-miterlimit:10;}
	.st39{fill:none;stroke:#F37A71;stroke-width:4;stroke-linecap:round;stroke-miterlimit:10;}
	.st40{fill:#F37A71;}
	.st41{fill:none;stroke:#0D72BA;stroke-width:1.5;stroke-linecap:round;stroke-linejoin:round;stroke-miterlimit:10;}
	.st42{fill:none;stroke:#FFFFFF;stroke-width:1.5;stroke-linecap:round;stroke-linejoin:round;stroke-miterlimit:10;}
	.st43{fill:none;stroke:#3E3E3E;stroke-miterlimit:10;}
	.st44{fill:none;stroke:#8795A4;stroke-miterlimit:10;}
	.st45{fill:none;stroke:#8795A4;stroke-linecap:round;stroke-miterlimit:10;}
	.st46{fill:none;stroke:#488ECC;stroke-width:2;stroke-miterlimit:10;}
	.st47{fill:none;stroke:#488ECC;stroke-width:2;stroke-linecap:round;stroke-linejoin:round;stroke-miterlimit:10;}
	.st48{fill:none;stroke:#E15D4A;stroke-width:2;stroke-miterlimit:10;}
	.st49{fill:none;stroke:#E15D4A;stroke-width:2;stroke-linecap:round;stroke-miterlimit:10;}
	.st50{fill:#7293AF;}
	.st51{fill:none;stroke:#75A1CF;stroke-width:3;stroke-miterlimit:10;}
	.st52{fill:#FFFFFF;stroke:#75A1CF;stroke-miterlimit:10;}
	.st53{fill:#75A1CF;}
	.st54{fill:none;stroke:#A3B7C0;stroke-width:2;stroke-miterlimit:10;}
	.st55{fill:none;stroke:#6E8BA7;stroke-miterlimit:10;}
	.st56{fill:none;stroke:#2DA5D8;stroke-width:2;stroke-linecap:round;stroke-miterlimit:10;}
	.st57{fill:#2DA5D8;}
	.st58{fill:none;stroke:#D5973B;stroke-width:2;stroke-miterlimit:10;}
	.st59{fill:none;stroke:#D5973B;stroke-width:2;stroke-linecap:round;stroke-linejoin:round;stroke-miterlimit:10;}
	.st60{fill:none;stroke:#D4973B;stroke-width:2;stroke-miterlimit:10;}
	.st61{fill:none;stroke:#D4973B;stroke-width:2;stroke-linecap:round;stroke-miterlimit:10;}
	.st62{fill:none;stroke:#72CDDD;stroke-width:2;stroke-linecap:round;stroke-linejoin:round;stroke-miterlimit:10;}
	.st63{fill:none;stroke:#F47A67;stroke-width:2;stroke-miterlimit:10;}
	.st64{fill:#FFFFFF;stroke:#9BBAD6;stroke-miterlimit:10;}
	.st65{fill:#FFFFFF;stroke:#0D72BA;stroke-miterlimit:10;}
	.st66{fill:none;stroke:#0D72BA;stroke-width:2;stroke-miterlimit:10;}
	.st67{fill:none;stroke:#F3766D;stroke-width:2;stroke-linecap:round;stroke-miterlimit:10;}
	.st68{fill:#AAC0D6;}
	.st69{fill:none;stroke:#0E2134;stroke-linecap:round;stroke-miterlimit:10;}
	.st70{fill:none;stroke:#8BAAC4;stroke-width:2;stroke-miterlimit:10;}
	.st71{fill:#8BAAC4;}
	.st72{fill:none;stroke:#8BAAC4;stroke-width:2;stroke-linecap:round;stroke-miterlimit:10;}
	.st73{fill:none;stroke:#8BAAC4;stroke-width:2;stroke-linecap:round;stroke-linejoin:round;stroke-miterlimit:10;}
	.st74{fill:none;stroke:#0973BA;stroke-miterlimit:10;}
	.st75{fill:#0973BA;}
	.st76{fill:none;stroke:#565656;stroke-miterlimit:10;}
	.st77{fill:#565656;}
	.st78{fill:none;stroke:#565656;stroke-linejoin:round;stroke-miterlimit:10;}
	.st79{fill:none;stroke:#74A1CF;stroke-miterlimit:10;}
	.st80{fill:none;stroke:#0D72BA;stroke-linecap:round;stroke-miterlimit:10;}
	.st81{fill:none;stroke:#748996;stroke-miterlimit:10;}
	.st82{fill:#9ABAD6;}
	.st83{fill:url(#SVGID_1_);}
	.st84{fill:url(#SVGID_2_);}
	.st85{fill:none;stroke:#75A1CF;stroke-width:2;stroke-miterlimit:10;}
	.st86{fill:#FFFFFF;stroke:#A0BED8;stroke-miterlimit:10;}
	.st87{fill:#A0BED8;}
	.st88{fill:#505F6C;}
	.st89{fill:none;stroke:#A0BED8;stroke-width:2;stroke-miterlimit:10;}
	.st90{fill:none;stroke:#0973BA;stroke-linejoin:round;stroke-miterlimit:10;}
	.st91{fill:none;stroke:#FFFFFF;stroke-linejoin:round;stroke-miterlimit:10;}
	.st92{fill:none;stroke:#74A1CF;stroke-width:2;stroke-miterlimit:10;}
	.st93{fill:none;stroke:#113D65;stroke-miterlimit:10;}
	.st94{fill:none;stroke:#113D65;stroke-width:3;stroke-linecap:round;stroke-miterlimit:10;}
	.st95{fill:none;stroke:#30ABE2;stroke-width:2;stroke-miterlimit:10;}
	.st96{fill:none;stroke:#30ABE2;stroke-width:2;stroke-linecap:round;stroke-miterlimit:10;}
	.st97{fill:#30ABE2;}
	.st98{fill:#BCD1E4;}
	.st99{fill:none;stroke:#444445;stroke-miterlimit:10;}
	.st100{fill:none;stroke:#83D3F6;stroke-width:2;stroke-miterlimit:10;}
	.st101{fill:none;stroke:#83D3F6;stroke-width:2;stroke-linecap:round;stroke-miterlimit:10;}
	.st102{fill:#83D3F6;}
	.st103{fill:none;stroke:#84D2F5;stroke-width:2;stroke-miterlimit:10;}
	.st104{fill:none;stroke:#84D2F5;stroke-width:2;stroke-linecap:round;stroke-miterlimit:10;}
	.st105{fill:none;stroke:#CCCCCB;stroke-width:2;stroke-miterlimit:10;}
	.st106{fill:none;stroke:#CCCCCB;stroke-width:2;stroke-linecap:round;stroke-miterlimit:10;}
	.st107{fill:#CCCCCB;}
	.st108{fill:none;stroke:#CCCCCB;stroke-miterlimit:10;}
	.st109{fill:none;stroke:#CCCCCB;stroke-width:3;stroke-linecap:round;stroke-miterlimit:10;}
	.st110{fill:none;stroke:#92A0AE;stroke-miterlimit:10;}
	.st111{fill:none;stroke:#92A0AE;stroke-linecap:round;stroke-miterlimit:10;}
	.st112{fill:none;stroke:#0973BA;stroke-width:2;stroke-miterlimit:10;}
	.st113{fill:none;stroke:#94A7BA;stroke-width:2;stroke-miterlimit:10;}
	.st114{fill:none;stroke:#FFFFFF;stroke-width:3;stroke-linejoin:round;stroke-miterlimit:10;}
	.st115{fill:none;stroke:#6693B2;stroke-width:2;stroke-miterlimit:10;}
	.st116{fill:none;stroke:#6693B2;stroke-width:2;stroke-linecap:round;stroke-miterlimit:10;}
	.st117{fill:none;stroke:#6693B2;stroke-width:2;stroke-linecap:round;stroke-linejoin:round;stroke-miterlimit:10;}
	.st118{fill:none;stroke:#30ABE2;stroke-width:2;stroke-linecap:round;stroke-linejoin:round;stroke-miterlimit:10;}
	.st119{fill:#708597;}
	.st120{fill:none;stroke:#7293AF;stroke-width:2;stroke-miterlimit:10;}
</style>
<g>
	<g>
		<line class="st0" x1="332.4" y1="83" x2="332.4" y2="93.9"/>
		<polyline class="st1" points="337.4,88.6 332.4,93.6 327.5,88.6 		"/>
	</g>
	<line class="st0" x1="326.9" y1="95.5" x2="337.9" y2="95.5"/>
</g>
<g>
	<circle class="st2" cx="331.9" cy="127" r="13.5"/>
	<polyline class="st3" points="325.4,126.8 330.2,131.4 338.6,123.4 	"/>
</g>
<g>
	<path class="st2" d="M344.4,54.4c0,3.3-1.3,6.2-3.4,8.4c-2.2,2.3-5.3,3.6-8.6,3.6c-3.4,0-6.4-1.4-8.6-3.6c-2.1-2.2-3.4-5.1-3.4-8.4
		c0-6.7,5.4-12,12-12S344.4,47.8,344.4,54.4z"/>
	<circle class="st4" cx="332.3" cy="50.4" r="4.5"/>
	<path class="st4" d="M341,62.8c-2.2,2.3-5.3,3.6-8.6,3.6c-3.4,0-6.4-1.4-8.6-3.6c1.3-3.5,4.7-6,8.6-6
		C336.3,56.8,339.7,59.3,341,62.8z"/>
</g>
<g>
	<path class="st0" d="M344.4,176.4c0,3.3-1.3,6.2-3.4,8.4c-2.2,2.3-5.3,3.6-8.6,3.6c-3.4,0-6.4-1.4-8.6-3.6
		c-2.1-2.2-3.4-5.1-3.4-8.4c0-6.7,5.4-12,12-12S344.4,169.8,344.4,176.4z"/>
	<circle class="st5" cx="332.3" cy="172.5" r="4.5"/>
	<path class="st5" d="M341,184.8c-2.2,2.3-5.3,3.6-8.6,3.6c-3.4,0-6.4-1.4-8.6-3.6c1.3-3.5,4.7-6,8.6-6S339.7,181.3,341,184.8z"/>
</g>
<g>
	<rect x="319.5" y="218.5" class="st0" width="21.9" height="16"/>
	<line class="st0" x1="327" y1="236.4" x2="334" y2="236.4"/>
	<path class="st6" d="M326.7,225c0.6-1.5,2-2.6,3.8-2.6c2.2,0,4,1.8,4,4s-1.8,4-4,4c-1.8,0-3.4-1.2-3.9-2.9"/>
	<polygon class="st5" points="329.4,225.5 325.9,225.5 325.9,222 	"/>
</g>
<g>
	<line class="st7" x1="319" y1="278.5" x2="340.9" y2="278.5"/>
	<line class="st7" x1="319" y1="285.4" x2="340.9" y2="285.4"/>
	<line class="st7" x1="319" y1="292.4" x2="340.9" y2="292.4"/>
</g>
<g>
	<path class="st8" d="M351.3,371c1.2-2.2,3.5-3.6,6.2-3.6c3.9,0,7,3.1,7,7s-3.1,7-7,7c-3.7,0-6.7-2.8-7-6.4"/>
	<polygon class="st9" points="354,371.9 350,371.9 350,367.9 	"/>
</g>
<polygon class="st10" points="360.4,403 355.5,407.9 350.5,403 "/>
<circle class="st4" cx="358" cy="435.8" r="8"/>
<polyline class="st11" points="354.1,436 356.9,439 362.3,433.7 "/>
<g>
	<line class="st12" x1="351.5" y1="463.5" x2="360.4" y2="472.5"/>
	<line class="st12" x1="360.4" y1="463.5" x2="351.5" y2="472.5"/>
</g>
<g>
	<line class="st13" x1="350.6" y1="498.6" x2="363.3" y2="511.3"/>
	<line class="st13" x1="363.3" y1="498.6" x2="350.6" y2="511.3"/>
</g>
<g>
	<line class="st13" x1="350.4" y1="526.4" x2="359.5" y2="535.5"/>
	<line class="st13" x1="359.5" y1="526.4" x2="350.4" y2="535.5"/>
</g>
<g>
	<path class="st6" d="M366.4,568.8L366.4,568.8c0,3.1-2.5,5.5-5.5,5.5h-15c-3,0-5.5-2.5-5.5-5.5l0,0c0-3.1,2.5-5.5,5.5-5.5h0.1
		c0.2-3.9,3.5-7,7.4-7s7.2,3.1,7.4,7h0.1C364,563.3,366.4,565.8,366.4,568.8z"/>
	<polygon class="st6" points="357.7,568.4 353.4,572.7 349.2,568.4 351.4,568.4 351.4,562.4 355.5,562.4 355.5,568.4 	"/>
</g>
<g>
	<path class="st6" d="M366.4,658.9L366.4,658.9c0,3.1-2.5,5.5-5.5,5.5h-15c-3,0-5.5-2.5-5.5-5.5l0,0c0-3.1,2.5-5.5,5.5-5.5h0.1
		c0.2-3.9,3.5-7,7.4-7s7.2,3.1,7.4,7h0.1C364,653.4,366.4,655.9,366.4,658.9z"/>
	<polygon class="st6" points="348.5,657.6 353.4,652.7 358.4,657.6 355.8,657.6 355.8,664.5 351.1,664.5 351.1,657.6 	"/>
</g>
<g>
	<path class="st14" d="M366.4,708.7L366.4,708.7c0,3.1-2.5,5.5-5.5,5.5h-15c-3,0-5.5-2.5-5.5-5.5l0,0c0-3.1,2.5-5.5,5.5-5.5h0.1
		c0.2-3.9,3.5-7,7.4-7s7.2,3.1,7.4,7h0.1C364,703.1,366.4,705.6,366.4,708.7z"/>
	<polygon class="st14" points="348.5,707.3 353.4,702.4 358.4,707.3 355.8,707.3 355.8,714.2 351.1,714.2 351.1,707.3 	"/>
</g>
<g>
	<path class="st14" d="M366.4,610.8L366.4,610.8c0,3.1-2.5,5.5-5.5,5.5h-15c-3,0-5.5-2.5-5.5-5.5l0,0c0-3.1,2.5-5.5,5.5-5.5h0.1
		c0.2-3.9,3.5-7,7.4-7s7.2,3.1,7.4,7h0.1C364,605.3,366.4,607.8,366.4,610.8z"/>
	<polygon class="st14" points="357.7,610.4 353.4,614.7 349.2,610.4 351.4,610.4 351.4,604.4 355.5,604.4 355.5,610.4 	"/>
</g>
<g>
	<g>
		<path class="st15" d="M47.2,47.8H7.5c-3.1,0-5.7-2.5-5.7-5.7V9.5c0-3.1,2.5-5.7,5.7-5.7h39.7c3.1,0,5.7,2.5,5.7,5.7v32.7
			C52.9,45.3,50.4,47.8,47.2,47.8z"/>
		<line class="st16" x1="11.6" y1="52.4" x2="43.4" y2="52.4"/>
		<polygon class="st17" points="27,18.9 27,25.8 19,25.8 19,19.9 		"/>
		<polygon class="st17" points="27,26.8 27,33.7 19,32.8 19,26.8 		"/>
		<polygon class="st17" points="35.9,26.8 35.9,34.8 28,33.8 28,26.8 		"/>
		<polygon class="st17" points="35.9,17.9 35.9,25.8 28,25.8 28,18.8 		"/>
	</g>
	<path class="st18" d="M42.9,73.8h-33c-4.5,0-8.1-3.6-8.1-8.1l0,0c0-4.5,3.6-8.1,8.1-8.1h33c4.5,0,8.1,3.6,8.1,8.1l0,0
		C51,70.1,47.4,73.8,42.9,73.8z"/>
	<text transform="matrix(1 0 0 1 14.3402 69.7661)" class="st5 st19 st20">New</text>
</g>
<g>
	<g>
		<path class="st15" d="M46.8,142H7.1c-3.1,0-5.7-2.5-5.7-5.7v-32.7c0-3.1,2.5-5.7,5.7-5.7h39.7c3.1,0,5.7,2.5,5.7,5.7v32.7
			C52.5,139.4,50,142,46.8,142z"/>
		<line class="st16" x1="11.2" y1="146.5" x2="43" y2="146.5"/>
		<polygon class="st17" points="26.6,113.1 26.6,120 18.6,120 18.6,114 		"/>
		<polygon class="st17" points="26.6,121 26.6,127.9 18.6,126.9 18.6,121 		"/>
		<polygon class="st17" points="35.5,121 35.5,128.9 27.6,128 27.6,121 		"/>
		<polygon class="st17" points="35.5,112 35.5,120 27.6,120 27.6,112.9 		"/>
	</g>
	<g>
		<path class="st21" d="M43.4,167.9h-33c-4.5,0-8.1-3.6-8.1-8.1l0,0c0-4.5,3.6-8.1,8.1-8.1h33c4.5,0,8.1,3.6,8.1,8.1l0,0
			C51.5,164.3,47.9,167.9,43.4,167.9z"/>
		<text transform="matrix(1 0 0 1 8.7683 164.2981)" class="st5 st22 st20">Online</text>
	</g>
</g>
<g>
	<path class="st23" d="M74.7,457.2H11c-4.7,0-8.5-3.8-8.5-8.5v-52.2c0-4.7,3.8-8.5,8.5-8.5h63.7c4.7,0,8.5,3.8,8.5,8.5v52.2
		C83.2,453.4,79.4,457.2,74.7,457.2z"/>
	<line class="st24" x1="17.7" y1="464.3" x2="68" y2="464.3"/>
	<g>
		<polygon class="st17" points="40.5,409.2 40.5,419.9 28.2,419.9 28.2,410.7 		"/>
		<polygon class="st17" points="40.5,421.4 40.5,432 28.2,430.6 28.2,421.4 		"/>
		<polygon class="st17" points="54.3,421.4 54.3,433.7 42.1,432.2 42.1,421.4 		"/>
		<polygon class="st17" points="54.3,407.6 54.3,419.9 42.1,419.9 42.1,409 		"/>
	</g>
</g>
<g>
	<path class="st25" d="M48.2,236H8.5c-3.1,0-5.7-2.5-5.7-5.7v-32.7c0-3.1,2.5-5.7,5.7-5.7h39.7c3.1,0,5.7,2.5,5.7,5.7v32.7
		C53.9,233.4,51.4,236,48.2,236z"/>
	<line class="st26" x1="12.6" y1="240.5" x2="44.4" y2="240.5"/>
	<polygon class="st27" points="28,207.1 28,214 20,214 20,208 	"/>
	<polygon class="st27" points="28,215 28,221.9 20,220.9 20,215 	"/>
	<polygon class="st27" points="36.9,215 36.9,222.9 29,222 29,215 	"/>
	<polygon class="st27" points="36.9,206 36.9,214 29,214 29,206.9 	"/>
	<g>
		<path class="st28" d="M46.5,261.9H9.1c-4.5,0-8.1-3.6-8.1-8.1l0,0c0-4.5,3.6-8.1,8.1-8.1h37.3c4.5,0,8.1,3.6,8.1,8.1l0,0
			C54.6,258.3,50.9,261.9,46.5,261.9z"/>
		<text transform="matrix(1 0 0 1 9.2129 258.0821)" class="st5 st22 st29">Offline</text>
	</g>
</g>
<g>
	<path class="st30" d="M63.8,327.4H13.9c-0.8,0-1.4-0.6-1.4-1.4v-31c0-0.8,0.6-1.4,1.4-1.4h49.9c0.8,0,1.4,0.6,1.4,1.4v31
		C65.2,326.7,64.6,327.4,63.8,327.4z"/>
	<line class="st30" x1="12.5" y1="332.6" x2="66.2" y2="332.6"/>
	<g>
		<circle class="st30" cx="38.9" cy="309.9" r="11.3"/>
		<polygon class="st31" points="36.2,315.7 36.2,304.9 44.5,310.3 		"/>
	</g>
	<circle class="st32" cx="24.1" cy="332.3" r="2.8"/>
</g>
<g>
	<path class="st21" d="M43.6,588.4h-33c-4.5,0-8.1-3.6-8.1-8.1V580c0-4.5,3.6-8.1,8.1-8.1h33c4.5,0,8.1,3.6,8.1,8.1v0.3
		C51.7,584.8,48.1,588.4,43.6,588.4z"/>
	<text transform="matrix(0.9844 0 0 1 8.9385 584.709)" class="st5 st22 st20">Online</text>
	<polygon class="st27" points="26.7,532.5 26.7,539.4 18.7,539.4 18.7,533.5 	"/>
	<polygon class="st27" points="26.7,540.4 26.7,547.3 18.7,546.4 18.7,540.4 	"/>
	<path class="st25" d="M47,561.4H7.2c-3.1,0-5.7-2.5-5.7-5.7V523c0-3.1,2.5-5.7,5.7-5.7H47c3.1,0,5.7,2.5,5.7,5.7v32.7
		C52.6,558.9,50.1,561.4,47,561.4z"/>
	<line class="st26" x1="11.3" y1="566" x2="43.1" y2="566"/>
	<polygon class="st27" points="35.7,540.4 35.7,548.4 27.7,547.5 27.7,540.4 	"/>
	<polygon class="st27" points="35.7,531.5 35.7,539.4 27.7,539.4 27.7,532.4 	"/>
</g>
<g>
	<path class="st15" d="M47.9,673.5H8.2c-3.1,0-5.7-2.5-5.7-5.7v-32.7c0-3.1,2.5-5.7,5.7-5.7h39.7c3.1,0,5.7,2.5,5.7,5.7v32.7
		C53.6,670.9,51,673.5,47.9,673.5z"/>
	<line class="st16" x1="12.3" y1="678" x2="44.1" y2="678"/>
	<polygon class="st17" points="27.6,644.6 27.6,651.5 19.7,651.5 19.7,645.5 	"/>
	<polygon class="st17" points="27.6,652.5 27.6,659.4 19.7,658.4 19.7,652.5 	"/>
	<polygon class="st17" points="36.6,652.5 36.6,660.4 28.6,659.5 28.6,652.5 	"/>
	<polygon class="st17" points="36.6,643.5 36.6,651.5 28.6,651.5 28.6,644.5 	"/>
</g>
<path class="st28" d="M46.7,699.7H9c-4.5,0-8.1-3.6-8.1-8.1l0,0c0-4.5,3.6-8.1,8.1-8.1h37.7c4.5,0,8.1,3.6,8.1,8.1l0,0
	C54.8,696.1,51.2,699.7,46.7,699.7z"/>
<text transform="matrix(1 0 0 1 9.4497 695.9115)" class="st5 st22 st29">Offline</text>
<g>
	
		<ellipse transform="matrix(0.9999 -1.020248e-02 1.020248e-02 0.9999 -7.698 0.1974)" class="st33" cx="15.5" cy="754.6" rx="13.3" ry="13.3"/>
	<polyline class="st33" points="10.3,753.7 14.3,757.8 20.8,751.4 	"/>
</g>
<g>
	
		<ellipse transform="matrix(0.9999 -1.020248e-02 1.020248e-02 0.9999 -8.4428 0.2012)" class="st34" cx="15.5" cy="827.6" rx="13.3" ry="13.3"/>
	<polyline class="st34" points="10.3,826.7 14.3,830.8 20.8,824.4 	"/>
</g>
<g>
	
		<ellipse transform="matrix(0.9999 -1.020248e-02 1.020248e-02 0.9999 -9.1978 0.2051)" class="st33" cx="15.5" cy="901.6" rx="13.3" ry="13.3"/>
	<g>
		<line class="st33" x1="15.5" y1="894.7" x2="15.5" y2="905.2"/>
		<line class="st33" x1="15.5" y1="906.6" x2="15.5" y2="908.5"/>
	</g>
</g>
<g>
	<rect x="1" y="977.9" class="st35" width="174.8" height="116.9"/>
	<text transform="matrix(1 0 0 1 48.1391 1030.4152)" class="st5 st36 st37">POWER</text>
	<text transform="matrix(1 0 0 1 67.3391 1058.0151)" class="st5 st36 st37">OFF</text>
</g>
<g>
	<circle class="st38" cx="134.2" cy="15" r="13.6"/>
	<line class="st39" x1="134.2" y1="21.2" x2="134.2" y2="14"/>
	<circle class="st40" cx="134.2" cy="9" r="2"/>
</g>
<polyline class="st41" points="132.7,50.4 128.5,54.6 124.3,50.4 "/>
<polyline class="st42" points="132.7,84.4 128.5,88.5 124.3,84.4 "/>
<circle class="st2" cx="127.5" cy="112.5" r="7.1"/>
<circle class="st4" cx="127.5" cy="112.5" r="3.5"/>
<circle class="st43" cx="127.5" cy="152.5" r="7.1"/>
<path class="st6" d="M132.5,191v7.1c0,0.8-0.6,1.4-1.4,1.4h-9.2c-0.8,0-1.4-0.6-1.4-1.4v-9.2c0-0.8,0.6-1.4,1.4-1.4h7.1"/>
<g>
	<g>
		
			<rect x="123.1" y="190.7" transform="matrix(0.7071 -0.7071 0.7071 0.7071 -98.174 146.7726)" class="st5" width="10" height="2.3"/>
		<polygon class="st5" points="125.1,196.6 124.5,197.1 123,197 122.9,195.5 123.4,195 		"/>
	</g>
	<g>
		
			<rect x="131.8" y="186.1" transform="matrix(0.7071 -0.7071 0.7071 0.7071 -93.5387 148.7254)" class="st5" width="1.9" height="2.3"/>
	</g>
</g>
<circle class="st44" cx="127.5" cy="235.5" r="7"/>
<line class="st45" x1="132.5" y1="240.4" x2="137.5" y2="245.5"/>
<circle class="st46" cx="129" cy="282" r="9.1"/>
<polyline class="st47" points="125.8,281.3 128.5,284.1 132.6,279.8 "/>
<circle class="st48" cx="129" cy="331.6" r="9.1"/>
<g>
	<line class="st49" x1="129" y1="327.9" x2="129" y2="332.8"/>
	<line class="st49" x1="129" y1="335.4" x2="129" y2="335.6"/>
</g>
<g>
	<polygon class="st50" points="128.4,429.6 127.6,430.5 124.4,430.2 124.1,427 125,426.2 	"/>
	
		<rect x="125.7" y="421.2" transform="matrix(0.7071 -0.7071 0.7071 0.7071 -261.1705 216.7199)" class="st50" width="10.6" height="4.9"/>
	
		<rect x="134.9" y="415.9" transform="matrix(0.7071 -0.7071 0.7071 0.7071 -255.8706 218.8829)" class="st50" width="2.8" height="4.9"/>
</g>
<polyline class="st51" points="123.2,512 129.1,517.4 138.7,508.1 "/>
<g>
	<path class="st52" d="M202.3,405h-19.7c-7.9,0-14.3-6.4-14.3-14.3l0,0c0-7.9,6.4-14.3,14.3-14.3h19.7c7.9,0,14.3,6.4,14.3,14.3l0,0
		C216.5,398.6,210.2,405,202.3,405z"/>
	<g>
		<polyline class="st51" points="202,397.4 202,390.2 186.5,390.2 		"/>
		<polygon class="st53" points="188.5,396.5 180.3,390.2 188.5,384 		"/>
	</g>
</g>
<g>
	<path class="st53" d="M202.8,462.1h-20.5c-7.9,0-14.3-6.4-14.3-14.3v-0.5c0-7.9,6.4-14.3,14.3-14.3h20.5c7.9,0,14.3,6.4,14.3,14.3
		v0.5C217.1,455.7,210.7,462.1,202.8,462.1z"/>
	<g>
		<polyline class="st7" points="202.3,454.4 202.3,447.1 186.5,447.1 		"/>
		<polygon class="st5" points="188.6,453.4 180.2,447.1 188.6,440.7 		"/>
	</g>
</g>
<g>
	
		<ellipse transform="matrix(3.327799e-02 -0.9994 0.9994 3.327799e-02 -451.8734 686.6305)" class="st54" cx="129" cy="576.9" rx="8.9" ry="8.9"/>
	<line class="st54" x1="127" y1="573.1" x2="127" y2="581"/>
	<line class="st54" x1="131" y1="573.1" x2="131" y2="581"/>
</g>
<g>
	<path class="st50" d="M123,615v5.5c0,4.1,3.3,7.5,7.4,7.5c4.1,0,7.5-3.3,7.5-7.5V615H123z M130.5,621.1c-0.6,0-1.1-0.3-1.4-0.8
		c-0.1-0.2-0.2-0.5-0.2-0.8c0-0.7,0.4-1.2,1-1.5c0.2-0.1,0.4-0.1,0.6-0.1c0.2,0,0.4,0,0.6,0.1c0.6,0.2,1,0.8,1,1.5
		c0,0.3-0.1,0.5-0.2,0.8C131.6,620.8,131.1,621.1,130.5,621.1z"/>
	<g>
		<path class="st50" d="M130.5,606.8c-3.4,0-6.3,2.8-6.3,6.3v7.3h4.9c-0.1-0.2-0.2-0.5-0.2-0.8c0-0.7,0.4-1.2,1-1.5h-3.5V613
			c0-2.2,1.8-4,4-4s4.1,1.8,4.1,4v5.1H131c0.6,0.2,1,0.8,1,1.5c0,0.3-0.1,0.5-0.2,0.8h4.9V613C136.7,609.6,133.9,606.8,130.5,606.8z
			"/>
	</g>
</g>
<g>
	<circle class="st55" cx="130" cy="656.9" r="6.5"/>
	<line class="st56" x1="130" y1="656.9" x2="130" y2="659.8"/>
	<circle class="st57" cx="129.9" cy="653.8" r="1"/>
</g>
<g>
	
		<ellipse transform="matrix(3.327788e-02 -0.9994 0.9994 3.327788e-02 -576.8008 807.2742)" class="st58" cx="128.9" cy="701.8" rx="9.1" ry="9.1"/>
	<polyline class="st59" points="125.7,701.1 128.4,703.9 132.4,699.6 	"/>
</g>
<g>
	
		<ellipse transform="matrix(3.327788e-02 -0.9994 0.9994 3.327788e-02 -677.8448 905.0098)" class="st60" cx="128.9" cy="802.9" rx="9.1" ry="9.1"/>
	<g>
		<line class="st61" x1="128.9" y1="799.1" x2="128.9" y2="804"/>
		<line class="st61" x1="128.9" y1="806.6" x2="128.9" y2="806.8"/>
	</g>
</g>
<g>
	
		<ellipse transform="matrix(3.327788e-02 -0.9994 0.9994 3.327788e-02 -626.8731 855.707)" class="st34" cx="128.9" cy="751.9" rx="9.1" ry="9.1"/>
	<polyline class="st62" points="125.7,751.2 128.4,754 132.4,749.7 	"/>
</g>
<g>
	<circle class="st46" cx="128.9" cy="852.9" r="13.3"/>
	<polyline class="st46" points="123.6,852 127.7,856.2 134.2,849.7 	"/>
</g>
<g>
	
		<ellipse transform="matrix(3.327797e-02 -0.9994 0.9994 3.327797e-02 -777.8926 1001.9752)" class="st63" cx="129" cy="903.1" rx="13.4" ry="13.4"/>
	<g>
		<line class="st63" x1="129" y1="896.2" x2="129" y2="906.7"/>
		<line class="st63" x1="129" y1="908.1" x2="129" y2="910.1"/>
	</g>
</g>
<rect x="176.5" y="42.6" class="st64" width="12" height="12"/>
<path class="st4" d="M175.9,82v13h13V82H175.9z M186.9,86.9l-4.8,4.7c-0.2,0.2-0.5,0.3-0.7,0.3s-0.5-0.1-0.7-0.3l-2.9-2.7
	c-0.4-0.4-0.4-1-0.1-1.4c0.4-0.4,1-0.4,1.4-0.1l2.2,2.1l4.1-4c0.4-0.4,1-0.4,1.4,0C187.3,85.8,187.3,86.5,186.9,86.9z"/>
<g>
	<rect x="176.5" y="6.5" class="st65" width="12" height="12"/>
	<line class="st66" x1="179" y1="12.5" x2="186" y2="12.5"/>
</g>
<polygon class="st10" points="182.9,120.4 177.5,115 188.2,115 "/>
<g>
	<line class="st67" x1="186.9" y1="145" x2="175.9" y2="156"/>
	<line class="st67" x1="175.9" y1="145" x2="186.9" y2="156"/>
</g>
<g>
	<path class="st68" d="M181.4,183.9c-4.7,0-8.6,3.8-8.6,8.6s3.8,8.6,8.6,8.6s8.6-3.8,8.6-8.6S186.2,183.9,181.4,183.9z M184.4,195
		l-3-3l-3,3l-1.4-1.4l3.7-3.7c0.4-0.4,1-0.4,1.4,0l3.7,3.7L184.4,195z"/>
</g>
<g>
	<line class="st69" x1="172.5" y1="228.5" x2="185.5" y2="241.5"/>
	<line class="st69" x1="185.5" y1="228.5" x2="172.5" y2="241.5"/>
</g>
<g>
	<g>
		<rect x="170.4" y="269.4" class="st14" width="22" height="22"/>
		<rect x="170.4" y="269.4" class="st53" width="22" height="6.5"/>
	</g>
	<line class="st14" x1="177" y1="279.4" x2="189.9" y2="279.4"/>
	<line class="st14" x1="177" y1="283.5" x2="189.9" y2="283.5"/>
	<line class="st14" x1="177" y1="287.5" x2="189.9" y2="287.5"/>
	<rect x="172.9" y="279" class="st53" width="2" height="2"/>
	<rect x="172.9" y="283" class="st53" width="2" height="2"/>
	<rect x="172.9" y="287" class="st53" width="2" height="2"/>
</g>
<g>
	<rect x="170.5" y="319.4" class="st0" width="22" height="22"/>
	<rect x="170.5" y="319.4" class="st5" width="22" height="6.5"/>
	<line class="st0" x1="177" y1="329.4" x2="189.9" y2="329.4"/>
	<line class="st0" x1="177" y1="333.5" x2="189.9" y2="333.5"/>
	<line class="st0" x1="177" y1="337.5" x2="189.9" y2="337.5"/>
	<rect x="173" y="329" class="st5" width="2" height="2"/>
	<rect x="173" y="333" class="st5" width="2" height="2"/>
	<rect x="173" y="337" class="st5" width="2" height="2"/>
</g>
<g>
	<g>
		<path class="st70" d="M201.6,510.1h-21.2c-0.8,0-1.4-0.6-1.4-1.4v-16.3c0-0.8,0.6-1.4,1.4-1.4h21.2c0.8,0,1.4,0.6,1.4,1.4v16.3
			C203,509.4,202.3,510.1,201.6,510.1z"/>
		<rect x="179" y="505.9" class="st71" width="24" height="4.1"/>
		<line class="st72" x1="184.9" y1="512.9" x2="197.1" y2="512.9"/>
	</g>
	<polyline class="st73" points="188.1,499 191,501.6 196,497 	"/>
</g>
<g>
	<rect x="180.5" y="557.4" class="st74" width="22" height="16"/>
	<line class="st74" x1="188.1" y1="575.4" x2="195" y2="575.4"/>
	<path class="st74" d="M187.8,563.9c0.6-1.4,2-2.4,3.7-2.4c2.2,0,4,1.8,4,4s-1.8,4-4,4c-1.9,0-3.4-1.3-3.9-3"/>
	<polygon class="st75" points="190.9,564.8 187.1,564.8 187.1,560.9 	"/>
</g>
<g>
	<rect x="180.4" y="608.4" class="st0" width="22" height="16"/>
	<line class="st0" x1="188" y1="626.4" x2="194.9" y2="626.4"/>
	<path class="st0" d="M187.8,614.9c0.6-1.4,2-2.4,3.7-2.4c2.2,0,4,1.8,4,4s-1.8,4-4,4c-1.9,0-3.4-1.3-3.9-3"/>
	<polygon class="st5" points="190.9,615.8 187,615.8 187,611.9 	"/>
</g>
<g>
	<polygon class="st76" points="196.4,654.4 196.4,667.4 181.4,667.4 181.4,650.4 192.4,650.4 	"/>
	<polyline class="st76" points="196.6,654.6 192.4,654.6 192.4,650.4 	"/>
	<line class="st76" x1="184" y1="656.4" x2="188" y2="656.4"/>
	<line class="st76" x1="184" y1="660.4" x2="193" y2="660.4"/>
	<line class="st76" x1="184" y1="664.4" x2="193" y2="664.4"/>
</g>
<g>
	<rect x="181.4" y="686.4" class="st76" width="15" height="15"/>
	<path class="st77" d="M181.4,701.4h15v-0.6l-4.2-6.5c-0.1-0.2-0.4-0.2-0.5,0l-1.8,2.7l-2.8-5.3c-0.1-0.2-0.4-0.2-0.5,0L181.4,701.4
		L181.4,701.4z"/>
	<circle class="st77" cx="192.9" cy="689.4" r="1.5"/>
</g>
<g>
	<polygon class="st76" points="196.4,723.4 196.4,736.4 181.4,736.4 181.4,719.4 192.4,719.4 	"/>
	<polyline class="st76" points="196.6,723.6 192.4,723.6 192.4,719.4 	"/>
	<g>
		<circle class="st76" cx="188.9" cy="728.7" r="4.4"/>
		<line class="st76" x1="185.8" y1="725.7" x2="192" y2="731.9"/>
	</g>
</g>
<g>
	<g>
		<polygon class="st76" points="196.4,759.4 196.4,772.4 181.5,772.4 181.5,755.4 192.5,755.4 		"/>
		<polyline class="st76" points="196.6,759.6 192.5,759.6 192.5,755.4 		"/>
	</g>
	<polyline class="st78" points="184.8,761.7 184.8,769.3 188.9,762 189.6,769.3 193.3,761.7 	"/>
</g>
<g>
	<polygon class="st76" points="196.5,800.4 196.5,813.4 181.5,813.4 181.5,796.4 192.5,796.4 	"/>
	<polyline class="st76" points="196.7,800.5 192.5,800.5 192.5,796.4 	"/>
	<path class="st77" d="M184.9,811.4L184.9,811.4c-0.2,0-0.3-0.1-0.4-0.2c-0.5-0.4-0.5-0.8-0.5-1c0.1-0.8,1-1.5,2.8-2.3
		c0.7-1.5,1.4-3.4,1.7-5c-0.5-1-0.9-2.3-0.6-3.1c0.1-0.3,0.3-0.5,0.5-0.6c0.1,0,0.4-0.1,0.5-0.1c0.2,0,0.4,0.3,0.6,0.5
		c0.1,0.2,0.4,0.5-0.2,3.1c0.6,1.3,1.5,2.6,2.3,3.5c0.6-0.1,1.1-0.2,1.5-0.2c0.7,0,1.2,0.2,1.3,0.5s0.1,0.6-0.2,1s-0.6,0.5-1,0.5
		c-0.6,0-1.2-0.4-1.9-1.1c-1.3,0.3-2.8,0.8-4.1,1.3c-0.4,0.8-0.8,1.5-1.1,2C185.7,811,185.3,811.4,184.9,811.4z M186.2,809
		c-1,0.6-1.4,1-1.4,1.3c0,0,0,0.2,0.2,0.3C185,810.6,185.4,810.4,186.2,809z M192.4,806.9c0.4,0.3,0.5,0.4,0.7,0.4
		c0.1,0,0.4,0,0.6-0.2c0.1-0.1,0.1-0.2,0.1-0.2c-0.1,0-0.1-0.1-0.5-0.1C193,806.9,192.7,806.9,192.4,806.9z M189,803.9
		c-0.3,1.1-0.8,2.4-1.2,3.5c1-0.4,2-0.7,3-0.9C190.1,805.7,189.5,804.8,189,803.9z M188.7,800c0,0-0.6,0.8,0,1.5
		C189.2,800.5,188.7,800,188.7,800z"/>
</g>
<g>
	<polygon class="st5" points="201.1,842.6 197.5,842.6 197.5,839 	"/>
	<g>
		<path class="st53" d="M186.6,857.2L186.6,857.2c-0.2,0-0.3-0.1-0.5-0.2c-0.5-0.4-0.6-0.8-0.6-1.1c0.1-0.8,1.1-1.7,3.1-2.6
			c0.8-1.7,1.5-3.8,1.9-5.5c-0.5-1.1-1-2.6-0.6-3.4c0.1-0.3,0.3-0.5,0.6-0.6c0.1,0,0.4-0.1,0.5-0.1c0.3,0,0.5,0.3,0.6,0.5
			c0.2,0.2,0.5,0.6-0.2,3.5c0.7,1.4,1.7,2.9,2.6,3.9c0.7-0.1,1.2-0.2,1.7-0.2c0.8,0,1.3,0.2,1.5,0.6c0.2,0.3,0.1,0.7-0.2,1.1
			c-0.3,0.4-0.7,0.6-1.1,0.6c-0.6,0-1.3-0.4-2.2-1.2c-1.5,0.3-3.1,0.8-4.5,1.4c-0.4,0.9-0.8,1.6-1.2,2.2
			C187.5,856.8,187.1,857.2,186.6,857.2z M188,854.6c-1.1,0.6-1.5,1.1-1.6,1.4c0,0,0,0.2,0.2,0.4C186.7,856.3,187.1,856.1,188,854.6
			z M195,852.3c0.4,0.3,0.5,0.5,0.8,0.5c0.1,0,0.5,0,0.6-0.2c0.1-0.1,0.1-0.2,0.1-0.2c-0.1,0-0.1-0.1-0.6-0.1
			C195.6,852.2,195.3,852.3,195,852.3z M191.1,848.9c-0.4,1.3-0.8,2.6-1.4,3.9c1.1-0.4,2.2-0.8,3.3-1
			C192.4,851,191.7,850,191.1,848.9z M190.8,844.6c-0.1,0-0.7,0.9,0,1.6C191.4,845.2,190.8,844.6,190.8,844.6z"/>
		<g>
			<polygon class="st79" points="201.4,842.4 201.4,860.4 181.5,860.4 181.5,838.4 197.5,838.4 			"/>
			<polyline class="st79" points="201.6,842.5 197.5,842.5 197.5,838.4 			"/>
		</g>
	</g>
</g>
<g>
	<g>
		<polyline class="st2" points="241,18.5 232.5,18.5 232.5,3.5 250.5,3.5 250.5,8.5 232.5,8.5 		"/>
		<line class="st2" x1="232.5" y1="13.5" x2="242.5" y2="13.5"/>
		<line class="st2" x1="238.5" y1="3.5" x2="238.5" y2="18.5"/>
		<line class="st2" x1="244.5" y1="3.5" x2="244.5" y2="11"/>
		<line class="st2" x1="234" y1="1.5" x2="236" y2="1.5"/>
		<line class="st2" x1="247" y1="1.5" x2="249" y2="1.5"/>
	</g>
	<circle class="st2" cx="250.5" cy="18.6" r="7.1"/>
	<polyline class="st80" points="250.5,14 250.5,18.6 253.4,21.4 	"/>
</g>
<g>
	<g>
		<rect x="230.5" y="115.5" class="st2" width="22" height="16.9"/>
		<rect x="230.5" y="115.5" class="st4" width="22" height="1.4"/>
	</g>
	<line class="st2" x1="237" y1="120.5" x2="250" y2="120.5"/>
	<line class="st2" x1="237" y1="124.5" x2="250" y2="124.5"/>
	<line class="st2" x1="237" y1="128.5" x2="250" y2="128.5"/>
	<rect x="233" y="120" class="st4" width="2" height="2"/>
	<rect x="233" y="124" class="st4" width="2" height="2"/>
	<rect x="233" y="128" class="st4" width="2" height="2"/>
</g>
<g>
	<polyline class="st2" points="241,181.5 230.5,181.5 230.5,167.5 251.5,167.5 251.5,173 	"/>
	<line class="st2" x1="237" y1="184.5" x2="241" y2="184.5"/>
	<circle class="st2" cx="250" cy="182" r="6.6"/>
	<line class="st66" x1="249.9" y1="181" x2="249.9" y2="185.9"/>
	<line class="st66" x1="249.9" y1="178" x2="249.9" y2="180"/>
</g>
<g>
	<path class="st5" d="M251.1,71.4v-2.8H249c-0.2-0.9-0.5-1.8-1-2.5l1.5-1.5l-2-2l-1.5,1.5c-0.7-0.5-1.6-0.9-2.5-1V61h-2.8v2
		c-0.9,0.2-1.8,0.5-2.5,1l-1.5-1.5l-2,2L236,66c-0.5,0.8-0.9,1.6-1,2.5h-2.1v2.8h2.1c0.2,0.9,0.5,1.8,1,2.5l-1.5,1.5l2,2l1.5-1.5
		c0.7,0.5,1.6,0.9,2.5,1v2.1h2.8v-2.1c0.9-0.2,1.8-0.6,2.5-1l1.5,1.5l2-2l-1.5-1.5c0.5-0.7,0.9-1.6,1-2.5L251.1,71.4L251.1,71.4z
		 M246.1,71.4c-0.1,0.2-0.1,0.3-0.2,0.5c-0.4,0.9-1.1,1.6-2,2c-0.2,0.1-0.3,0.2-0.5,0.2c-0.4,0.2-0.9,0.2-1.4,0.2s-1-0.1-1.4-0.2
		c-0.2-0.1-0.3-0.1-0.5-0.2c-0.9-0.4-1.6-1.1-2-2c-0.1-0.2-0.2-0.3-0.2-0.5c-0.2-0.4-0.2-0.9-0.2-1.4s0.1-1,0.2-1.4
		c0-0.2,0.1-0.3,0.2-0.5c0.4-0.9,1.1-1.6,2-2c0.2-0.1,0.3-0.2,0.5-0.2c0.4-0.2,0.9-0.2,1.4-0.2s1,0.1,1.4,0.2c0.2,0,0.3,0.1,0.5,0.2
		c0.9,0.4,1.6,1.1,2,2c0.1,0.2,0.2,0.3,0.2,0.5c0.2,0.4,0.2,0.9,0.2,1.4S246.2,70.9,246.1,71.4z"/>
	<path class="st81" d="M251.5,71.4v-3h-2.3c-0.2-1-0.6-1.8-1.1-2.6l1.6-1.6l-2.1-2.1l-1.6,1.6c-0.8-0.5-1.7-0.9-2.6-1.1v-2.2h-3v2.2
		c-1,0.2-1.8,0.6-2.6,1.1l-1.6-1.6l-2.1,2.1l1.6,1.6c-0.5,0.8-0.9,1.7-1.1,2.6h-2.2v3h2.2c0.2,1,0.6,1.9,1.1,2.6l-1.6,1.6l2.1,2.1
		l1.6-1.6c0.8,0.5,1.7,0.9,2.6,1.1v2.2h3v-2.2c1-0.2,1.9-0.6,2.6-1.1l1.6,1.6l2.1-2.1l-1.6-1.6c0.5-0.8,0.9-1.7,1.1-2.6H251.5z
		 M246.3,71.4c-0.1,0.2-0.1,0.4-0.2,0.5c-0.4,0.9-1.2,1.7-2.1,2.1c-0.2,0.1-0.3,0.2-0.5,0.2c-0.5,0.2-1,0.3-1.5,0.3s-1-0.1-1.5-0.3
		c-0.2-0.1-0.3-0.1-0.5-0.2c-0.9-0.4-1.7-1.2-2.1-2.1c-0.1-0.2-0.2-0.3-0.2-0.5c-0.2-0.5-0.3-1-0.3-1.5s0.1-1,0.3-1.5
		c0-0.2,0.1-0.4,0.2-0.5c0.4-0.9,1.2-1.7,2.1-2.1c0.2-0.1,0.3-0.2,0.5-0.2c0.5-0.2,1-0.3,1.5-0.3s1,0.1,1.5,0.3
		c0.2,0,0.4,0.1,0.5,0.2c0.9,0.4,1.7,1.2,2.1,2.1c0.1,0.2,0.2,0.3,0.2,0.5c0.2,0.5,0.3,1,0.3,1.5S246.4,71,246.3,71.4z"/>
	<path class="st81" d="M246.5,70c0,0.5-0.1,1-0.3,1.5c-0.1,0.2-0.1,0.4-0.2,0.5c-0.4,0.9-1.2,1.7-2.1,2.1c-0.2,0.1-0.3,0.2-0.5,0.2
		c-0.5,0.2-1,0.3-1.5,0.3s-1-0.1-1.5-0.3c-0.2-0.1-0.3-0.1-0.5-0.2c-0.9-0.4-1.7-1.2-2.1-2.1c-0.1-0.2-0.2-0.3-0.2-0.5
		c-0.2-0.5-0.3-1-0.3-1.5s0.1-1,0.3-1.5c0-0.2,0.1-0.4,0.2-0.5c0.4-0.9,1.2-1.7,2.1-2.1c0.2-0.1,0.3-0.2,0.5-0.2
		c0.5-0.2,1-0.3,1.5-0.3s1,0.1,1.5,0.3c0.2,0,0.4,0.1,0.5,0.2c0.9,0.4,1.7,1.2,2.1,2.1c0.1,0.2,0.2,0.3,0.2,0.5
		C246.4,68.9,246.5,69.4,246.5,70z"/>
</g>
<g>
	<path class="st82" d="M254.8,244h-26.6c-0.4,0-0.8-0.1-1.1-0.4v3.1c0,0.8,0.6,1.4,1.4,1.4h26c0.8,0,1.4-0.6,1.4-1.4v-3.1
		C255.6,243.8,255.2,244,254.8,244z M245,247h-7v-2h7V247z"/>
	
		<linearGradient id="SVGID_1_" gradientUnits="userSpaceOnUse" x1="241.5" y1="1103.0519" x2="241.5" y2="1134.0293" gradientTransform="matrix(1 0 0 -1 0 1346)">
		<stop  offset="4.102398e-07" style="stop-color:#9ABAD6"/>
		<stop  offset="0.3542" style="stop-color:#A6C2DA"/>
		<stop  offset="1" style="stop-color:#B8CFE1"/>
	</linearGradient>
	<path class="st83" d="M254.8,212h-26.5c-0.5,0-0.9,0.3-1.2,0.6V242c0,0.5,0.4,0.9,0.9,0.9h27c0.5,0,0.9-0.4,0.9-0.9v-29.4
		C255.7,212.2,255.3,212,254.8,212z"/>
</g>
<g>
	<path class="st82" d="M280.8,412h-26.6c-0.4,0-0.8-0.1-1.1-0.4v3.1c0,0.8,0.6,1.4,1.4,1.4h26c0.8,0,1.4-0.6,1.4-1.4v-3.1
		C281.6,411.8,281.2,412,280.8,412z M271,415h-7v-2h7V415z"/>
	
		<linearGradient id="SVGID_2_" gradientUnits="userSpaceOnUse" x1="267.45" y1="935.0372" x2="267.45" y2="966.0147" gradientTransform="matrix(1 0 0 -1 0 1346)">
		<stop  offset="4.102398e-07" style="stop-color:#9ABAD6"/>
		<stop  offset="0.3542" style="stop-color:#A6C2DA"/>
		<stop  offset="1" style="stop-color:#B8CFE1"/>
	</linearGradient>
	<path class="st84" d="M280.7,380h-26.5c-0.5,0-0.9,0.3-1.2,0.6V410c0,0.5,0.4,0.9,0.9,0.9H281c0.5,0,0.9-0.4,0.9-0.9v-29.4
		C281.7,380.2,281.3,380,280.7,380z"/>
</g>
<g>
	<path class="st85" d="M252.7,278.9h-2.4c-0.2-0.7-0.4-1.3-0.8-1.9l1.7-1.7c0.1-0.1,0.1-0.3,0-0.4l-3.2-3.2c-0.1-0.1-0.3-0.1-0.4,0
		l-1.7,1.7c-0.6-0.3-1.2-0.6-1.9-0.8v-2.4c0-0.2-0.1-0.3-0.3-0.3h-4.5c-0.2,0-0.3,0.1-0.3,0.3v2.4c-0.7,0.2-1.3,0.4-1.9,0.8
		l-1.7-1.7c-0.1-0.1-0.3-0.1-0.4,0l-3.2,3.2c-0.1,0.1-0.1,0.3,0,0.4l1.7,1.7c-0.3,0.6-0.6,1.2-0.8,1.9h-2.4c-0.2,0-0.3,0.1-0.3,0.3
		v4.5c0,0.2,0.1,0.3,0.3,0.3h2.4c0.2,0.7,0.4,1.3,0.8,1.9l-1.7,1.7c-0.1,0.1-0.1,0.3,0,0.4l3.2,3.2c0.1,0.1,0.3,0.1,0.4,0l1.7-1.7
		c0.6,0.3,1.2,0.6,1.9,0.8v2.4c0,0.2,0.1,0.3,0.3,0.3h4.5c0.2,0,0.3-0.1,0.3-0.3v-2.4c0.7-0.2,1.3-0.4,1.9-0.8l1.7,1.7
		c0.1,0.1,0.3,0.1,0.4,0l3.2-3.2c0.1-0.1,0.1-0.3,0-0.4l-1.7-1.7c0.3-0.6,0.6-1.2,0.8-1.9h2.4c0.2,0,0.3-0.1,0.3-0.3v-4.5
		C253,279,252.8,278.9,252.7,278.9z M246,282.3c-0.1,0.6-0.4,1.2-0.7,1.7s-0.7,0.9-1.2,1.2c-0.5,0.3-1.1,0.6-1.7,0.7
		c-0.3,0.1-0.6,0.1-0.9,0.1c-0.3,0-0.6,0-0.9-0.1c-0.6-0.1-1.2-0.4-1.7-0.7c-0.5-0.3-0.9-0.7-1.2-1.2s-0.6-1.1-0.7-1.7
		c-0.1-0.3-0.1-0.6-0.1-0.9s0-0.6,0.1-0.9c0.1-0.6,0.4-1.2,0.7-1.7s0.7-0.9,1.2-1.2c0.5-0.3,1.1-0.6,1.7-0.7
		c0.3-0.1,0.6-0.1,0.9-0.1c0.3,0,0.6,0,0.9,0.1c0.6,0.1,1.2,0.4,1.7,0.7c0.5,0.3,0.9,0.7,1.2,1.2s0.6,1.1,0.7,1.7
		c0.1,0.3,0.1,0.6,0.1,0.9C246,281.7,246,282,246,282.3z"/>
	<path class="st85" d="M246,281.4c0,0.3,0,0.6-0.1,0.9c-0.1,0.6-0.4,1.2-0.7,1.7s-0.7,0.9-1.2,1.2c-0.5,0.3-1.1,0.6-1.7,0.7
		c-0.3,0.1-0.6,0.1-0.9,0.1c-0.3,0-0.6,0-0.9-0.1c-0.6-0.1-1.2-0.4-1.7-0.7c-0.5-0.3-0.9-0.7-1.2-1.2s-0.6-1.1-0.7-1.7
		c-0.1-0.3-0.1-0.6-0.1-0.9s0-0.6,0.1-0.9c0.1-0.6,0.4-1.2,0.7-1.7s0.7-0.9,1.2-1.2c0.5-0.3,1.1-0.6,1.7-0.7
		c0.3-0.1,0.6-0.1,0.9-0.1c0.3,0,0.6,0,0.9,0.1c0.6,0.1,1.2,0.4,1.7,0.7c0.5,0.3,0.9,0.7,1.2,1.2s0.6,1.1,0.7,1.7
		C246,280.8,246,281.1,246,281.4z"/>
	<path class="st85" d="M246,281.4c0,0.3,0,0.6-0.1,0.9c-0.1,0.6-0.4,1.2-0.7,1.7s-0.7,0.9-1.2,1.2c-0.5,0.3-1.1,0.6-1.7,0.7
		c-0.3,0.1-0.6,0.1-0.9,0.1c-0.3,0-0.6,0-0.9-0.1c-0.6-0.1-1.2-0.4-1.7-0.7c-0.5-0.3-0.9-0.7-1.2-1.2s-0.6-1.1-0.7-1.7
		c-0.1-0.3-0.1-0.6-0.1-0.9s0-0.6,0.1-0.9c0.1-0.6,0.4-1.2,0.7-1.7s0.7-0.9,1.2-1.2c0.5-0.3,1.1-0.6,1.7-0.7
		c0.3-0.1,0.6-0.1,0.9-0.1c0.3,0,0.6,0,0.9,0.1c0.6,0.1,1.2,0.4,1.7,0.7c0.5,0.3,0.9,0.7,1.2,1.2s0.6,1.1,0.7,1.7
		C246,280.8,246,281.1,246,281.4z"/>
</g>
<g>
	<path class="st11" d="M252.7,328.9h-2.4c-0.2-0.7-0.4-1.3-0.8-1.9l1.7-1.7c0.1-0.1,0.1-0.3,0-0.4l-3.2-3.2c-0.1-0.1-0.3-0.1-0.4,0
		l-1.7,1.7c-0.6-0.3-1.2-0.6-1.9-0.8v-2.4c0-0.2-0.1-0.3-0.3-0.3h-4.5c-0.2,0-0.3,0.1-0.3,0.3v2.4c-0.7,0.2-1.3,0.4-1.9,0.8
		l-1.7-1.7c-0.1-0.1-0.3-0.1-0.4,0l-3.2,3.2c-0.1,0.1-0.1,0.3,0,0.4l1.7,1.7c-0.3,0.6-0.6,1.2-0.8,1.9h-2.4c-0.2,0-0.3,0.1-0.3,0.3
		v4.5c0,0.2,0.1,0.3,0.3,0.3h2.4c0.2,0.7,0.4,1.3,0.8,1.9l-1.7,1.7c-0.1,0.1-0.1,0.3,0,0.4l3.2,3.2c0.1,0.1,0.3,0.1,0.4,0l1.7-1.7
		c0.6,0.3,1.2,0.6,1.9,0.8v2.4c0,0.2,0.1,0.3,0.3,0.3h4.5c0.2,0,0.3-0.1,0.3-0.3v-2.4c0.7-0.2,1.3-0.4,1.9-0.8l1.7,1.7
		c0.1,0.1,0.3,0.1,0.4,0l3.2-3.2c0.1-0.1,0.1-0.3,0-0.4l-1.7-1.7c0.3-0.6,0.6-1.2,0.8-1.9h2.4c0.2,0,0.3-0.1,0.3-0.3v-4.5
		C253,329.1,252.9,328.9,252.7,328.9z M246,332.3c-0.1,0.6-0.4,1.2-0.7,1.7s-0.7,0.9-1.2,1.2c-0.5,0.3-1.1,0.6-1.7,0.7
		c-0.3,0.1-0.6,0.1-0.9,0.1c-0.3,0-0.6,0-0.9-0.1c-0.6-0.1-1.2-0.4-1.7-0.7c-0.5-0.3-0.9-0.7-1.2-1.2s-0.6-1.1-0.7-1.7
		c-0.1-0.3-0.1-0.6-0.1-0.9s0-0.6,0.1-0.9c0.1-0.6,0.4-1.2,0.7-1.7s0.7-0.9,1.2-1.2c0.5-0.3,1.1-0.6,1.7-0.7
		c0.3-0.1,0.6-0.1,0.9-0.1c0.3,0,0.6,0,0.9,0.1c0.6,0.1,1.2,0.4,1.7,0.7c0.5,0.3,0.9,0.7,1.2,1.2s0.6,1.1,0.7,1.7
		c0.1,0.3,0.1,0.6,0.1,0.9C246.1,331.8,246,332.1,246,332.3z"/>
	<path class="st11" d="M246.1,331.5c0,0.3,0,0.6-0.1,0.9c-0.1,0.6-0.4,1.2-0.7,1.7s-0.7,0.9-1.2,1.2c-0.5,0.3-1.1,0.6-1.7,0.7
		c-0.3,0.1-0.6,0.1-0.9,0.1c-0.3,0-0.6,0-0.9-0.1c-0.6-0.1-1.2-0.4-1.7-0.7c-0.5-0.3-0.9-0.7-1.2-1.2s-0.6-1.1-0.7-1.7
		c-0.1-0.3-0.1-0.6-0.1-0.9s0-0.6,0.1-0.9c0.1-0.6,0.4-1.2,0.7-1.7s0.7-0.9,1.2-1.2c0.5-0.3,1.1-0.6,1.7-0.7
		c0.3-0.1,0.6-0.1,0.9-0.1c0.3,0,0.6,0,0.9,0.1c0.6,0.1,1.2,0.4,1.7,0.7c0.5,0.3,0.9,0.7,1.2,1.2s0.6,1.1,0.7,1.7
		C246,330.9,246.1,331.2,246.1,331.5z"/>
	<path class="st11" d="M246.1,331.5c0,0.3,0,0.6-0.1,0.9c-0.1,0.6-0.4,1.2-0.7,1.7s-0.7,0.9-1.2,1.2c-0.5,0.3-1.1,0.6-1.7,0.7
		c-0.3,0.1-0.6,0.1-0.9,0.1c-0.3,0-0.6,0-0.9-0.1c-0.6-0.1-1.2-0.4-1.7-0.7c-0.5-0.3-0.9-0.7-1.2-1.2s-0.6-1.1-0.7-1.7
		c-0.1-0.3-0.1-0.6-0.1-0.9s0-0.6,0.1-0.9c0.1-0.6,0.4-1.2,0.7-1.7s0.7-0.9,1.2-1.2c0.5-0.3,1.1-0.6,1.7-0.7
		c0.3-0.1,0.6-0.1,0.9-0.1c0.3,0,0.6,0,0.9,0.1c0.6,0.1,1.2,0.4,1.7,0.7c0.5,0.3,0.9,0.7,1.2,1.2s0.6,1.1,0.7,1.7
		C246,330.9,246.1,331.2,246.1,331.5z"/>
</g>
<rect x="253.5" y="492.5" class="st86" width="12" height="12"/>
<g>
	<rect x="253" y="434.9" class="st87" width="13" height="13"/>
	<polyline class="st11" points="255.6,441 258.4,443.8 263.3,439.1 	"/>
</g>
<g>
	<rect x="253" y="520.9" class="st88" width="13" height="13"/>
	<polyline class="st11" points="255.6,527 258.4,529.8 263.3,525 	"/>
</g>
<g>
	<rect x="253.5" y="464.5" class="st86" width="12" height="12"/>
	<line class="st89" x1="256" y1="470.5" x2="262.9" y2="470.5"/>
</g>
<g>
	<g>
		<path class="st74" d="M243,575.4h-5.5v-19.9h9.7c0.2,0,0.3,0.1,0.3,0.3v4.7h4.7c0.2,0,0.3,0.1,0.3,0.3v7.1"/>
		<path class="st90" d="M252.5,560.5h-5v-5L252.5,560.5z"/>
	</g>
	<path class="st74" d="M252.5,575.9V570c0-0.3-0.3-0.6-0.6-0.6H245c-0.3,0-0.6,0.3-0.6,0.6v5.9"/>
	<line class="st74" x1="248.5" y1="571.9" x2="248.5" y2="575.9"/>
	<line class="st74" x1="246.5" y1="571.9" x2="246.5" y2="575.9"/>
	<line class="st74" x1="250.5" y1="571.9" x2="250.5" y2="575.9"/>
	<rect x="247.5" y="562.4" class="st74" width="2" height="7"/>
	<line class="st74" x1="247.5" y1="564.5" x2="249.5" y2="564.5"/>
</g>
<g>
	<g>
		<path class="st0" d="M242.9,626.4h-5.5v-19.9h9.7c0.2,0,0.3,0.1,0.3,0.3v4.7h4.7c0.2,0,0.3,0.1,0.3,0.3v7.1"/>
		<path class="st91" d="M252.4,611.5h-5v-5L252.4,611.5z"/>
	</g>
	<path class="st0" d="M252.4,627v-5.9c0-0.3-0.3-0.6-0.6-0.6H245c-0.3,0-0.6,0.3-0.6,0.6v5.9"/>
	<line class="st0" x1="248.4" y1="623" x2="248.4" y2="627"/>
	<line class="st0" x1="246.4" y1="623" x2="246.4" y2="627"/>
	<line class="st0" x1="250.4" y1="623" x2="250.4" y2="627"/>
	<rect x="247.4" y="613.5" class="st0" width="2" height="7"/>
	<line class="st0" x1="247.4" y1="615.5" x2="249.4" y2="615.5"/>
</g>
<g>
	<g>
		<polygon class="st76" points="232.5,654.4 232.5,667.4 217.5,667.4 217.5,650.4 228.5,650.4 		"/>
		<polyline class="st76" points="232.7,654.6 228.5,654.6 228.5,650.4 		"/>
	</g>
	<g>
		<path class="st76" d="M229.5,659.3c0,2.3-1.9,4.1-4.1,4.1c-2.3,0-4.1-1.9-4.1-4.1c0-2.3,1.8-4.1,4.1-4.1v4.1H229.5z"/>
	</g>
</g>
<g>
	<g>
		<polygon class="st76" points="232.5,690.5 232.5,703.4 217.5,703.4 217.5,686.4 228.5,686.4 		"/>
		<polyline class="st76" points="232.7,690.6 228.5,690.6 228.5,686.4 		"/>
	</g>
	<g>
		<line class="st76" x1="220.6" y1="698.9" x2="226.7" y2="692"/>
		<line class="st76" x1="220.5" y1="691.9" x2="228.7" y2="701.8"/>
	</g>
</g>
<g>
	<polygon class="st0" points="237.5,739 237.5,756.4 217.5,756.4 217.5,734.4 231.9,734.4 	"/>
	<polygon class="st5" points="237.5,739 231.9,739 231.9,734.4 	"/>
	<line class="st11" x1="223" y1="741.9" x2="229" y2="741.9"/>
	<line class="st11" x1="220" y1="741.9" x2="222" y2="741.9"/>
	<line class="st11" x1="223" y1="746.9" x2="235" y2="746.9"/>
	<line class="st11" x1="220" y1="746.9" x2="222" y2="746.9"/>
	<line class="st11" x1="223" y1="751.9" x2="235" y2="751.9"/>
	<line class="st11" x1="220" y1="751.9" x2="222" y2="751.9"/>
</g>
<g>
	<polygon class="st5" points="237,788.9 231.9,788.9 231.9,785 	"/>
	<polygon class="st79" points="237.4,788.9 237.4,806.3 217.4,806.3 217.4,784.4 231.9,784.4 	"/>
	<polyline class="st79" points="237.4,788.9 231.9,788.9 231.9,784.4 	"/>
	<line class="st92" x1="222.9" y1="791.9" x2="228.9" y2="791.9"/>
	<line class="st92" x1="219.9" y1="791.9" x2="221.9" y2="791.9"/>
	<line class="st92" x1="222.9" y1="796.9" x2="234.9" y2="796.9"/>
	<line class="st92" x1="219.9" y1="796.9" x2="221.9" y2="796.9"/>
	<line class="st92" x1="222.9" y1="801.9" x2="234.9" y2="801.9"/>
	<line class="st92" x1="219.9" y1="801.9" x2="221.9" y2="801.9"/>
</g>
<g>
	<circle class="st93" cx="227.5" cy="849.4" r="12"/>
	<line class="st94" x1="227.5" y1="854.5" x2="227.5" y2="849"/>
	<line class="st94" x1="227.5" y1="844.7" x2="227.5" y2="844.2"/>
</g>
<g>
	<path class="st95" d="M258.1,912.2c2.4,1.6,4,4.4,4,7.5c0,5-4.1,9.1-9.1,9.1s-9.1-4.1-9.1-9.1c0-3.1,1.6-5.9,4-7.5"/>
	<line class="st96" x1="252.9" y1="908.8" x2="252.9" y2="918.9"/>
</g>
<g>
	<path class="st95" d="M258.1,965.3c2.4,1.6,4,4.4,4,7.5c0,5-4.1,9.1-9.1,9.1s-9.1-4.1-9.1-9.1c0-3.1,1.6-5.9,4-7.5l1.6-0.9"/>
	<polygon class="st97" points="250.7,971 244.8,960.8 252.9,963 	"/>
</g>
<g>
	<g>
		<path class="st95" d="M253.4,1034.1L253.4,1034.1c-3.6,0-6.5-2.9-6.5-6.5v-9.6h13v9.6C259.9,1031.2,257,1034.1,253.4,1034.1z"/>
		<line class="st96" x1="245" y1="1017.9" x2="262.1" y2="1017.9"/>
		<line class="st96" x1="250" y1="1014.9" x2="257.1" y2="1014.9"/>
	</g>
	<line class="st96" x1="251" y1="1021.9" x2="251" y2="1029.7"/>
	<line class="st96" x1="255.9" y1="1021.9" x2="255.9" y2="1029.7"/>
</g>
<g>
	<path class="st96" d="M263.7,1081.1h-2.2c-0.2-0.6-0.4-1.2-0.7-1.7l1.6-1.6c0.1-0.1,0.1-0.3,0-0.4l-2.9-2.9c-0.1-0.1-0.3-0.1-0.4,0
		l-1.6,1.6c-0.5-0.3-1.1-0.5-1.7-0.7v-2.2c0-0.2-0.1-0.3-0.3-0.3h-4.2c-0.2,0-0.3,0.1-0.3,0.3v2.2c-0.6,0.2-1.2,0.4-1.7,0.7
		l-1.6-1.6c-0.1-0.1-0.3-0.1-0.4,0l-2.9,2.9c-0.1,0.1-0.1,0.3,0,0.4l1.6,1.6c-0.3,0.5-0.5,1.1-0.7,1.7h-2.2c-0.2,0-0.3,0.1-0.3,0.3
		v4.1c0,0.2,0.1,0.3,0.3,0.3h2.2c0.2,0.6,0.4,1.2,0.7,1.7l-1.6,1.6c-0.1,0.1-0.1,0.3,0,0.4l2.9,2.9c0.1,0.1,0.3,0.1,0.4,0l1.6-1.6
		c0.5,0.3,1.1,0.5,1.7,0.7v2.2c0,0.2,0.1,0.3,0.3,0.3h4.2c0.1,0,0.3-0.1,0.3-0.3v-2.2c0.6-0.2,1.2-0.4,1.7-0.7l1.6,1.6
		c0.1,0.1,0.3,0.1,0.4,0l2.9-2.9c0.1-0.1,0.1-0.3,0-0.4l-1.6-1.6c0.3-0.5,0.5-1.1,0.7-1.7h2.2c0.2,0,0.3-0.1,0.3-0.3v-4.1
		C264,1081.2,263.9,1081.1,263.7,1081.1z M257.5,1084.2c-0.1,0.6-0.3,1.1-0.7,1.6c-0.3,0.4-0.7,0.8-1.1,1.1c-0.5,0.3-1,0.5-1.6,0.7
		c-0.3,0-0.5,0.1-0.8,0.1s-0.5,0-0.8-0.1c-0.6-0.1-1.1-0.3-1.6-0.6c-0.4-0.3-0.8-0.7-1.1-1.1c-0.3-0.5-0.5-1-0.7-1.6
		c0-0.3-0.1-0.5-0.1-0.8s0-0.5,0.1-0.8c0.1-0.6,0.3-1.1,0.7-1.6c0.3-0.4,0.7-0.8,1.1-1.1c0.5-0.3,1-0.5,1.6-0.6
		c0.3,0,0.5-0.1,0.8-0.1s0.5,0,0.8,0.1c0.6,0.1,1.1,0.3,1.6,0.7c0.4,0.3,0.8,0.7,1.1,1.1c0.3,0.5,0.5,1,0.7,1.6
		c0,0.3,0.1,0.5,0.1,0.8C257.6,1083.7,257.6,1083.9,257.5,1084.2z"/>
	<path class="st96" d="M257.6,1083.4c0,0.3,0,0.5-0.1,0.8c-0.1,0.6-0.3,1.1-0.7,1.6c-0.3,0.4-0.7,0.8-1.1,1.1
		c-0.5,0.3-1,0.5-1.6,0.7c-0.3,0-0.5,0.1-0.8,0.1s-0.5,0-0.8-0.1c-0.6-0.1-1.1-0.3-1.6-0.6c-0.4-0.3-0.8-0.7-1.1-1.1
		c-0.3-0.5-0.5-1-0.7-1.6c0-0.3-0.1-0.5-0.1-0.8s0-0.5,0.1-0.8c0.1-0.6,0.3-1.1,0.7-1.6c0.3-0.4,0.7-0.8,1.1-1.1
		c0.5-0.3,1-0.5,1.6-0.6c0.3,0,0.5-0.1,0.8-0.1s0.5,0,0.8,0.1c0.6,0.1,1.1,0.3,1.6,0.7c0.4,0.3,0.8,0.7,1.1,1.1
		c0.3,0.5,0.5,1,0.7,1.6C257.6,1082.9,257.6,1083.1,257.6,1083.4z"/>
	<path class="st96" d="M257.6,1083.4c0,0.3,0,0.5-0.1,0.8c-0.1,0.6-0.3,1.1-0.7,1.6c-0.3,0.4-0.7,0.8-1.1,1.1
		c-0.5,0.3-1,0.5-1.6,0.7c-0.3,0-0.5,0.1-0.8,0.1s-0.5,0-0.8-0.1c-0.6-0.1-1.1-0.3-1.6-0.6c-0.4-0.3-0.8-0.7-1.1-1.1
		c-0.3-0.5-0.5-1-0.7-1.6c0-0.3-0.1-0.5-0.1-0.8s0-0.5,0.1-0.8c0.1-0.6,0.3-1.1,0.7-1.6c0.3-0.4,0.7-0.8,1.1-1.1
		c0.5-0.3,1-0.5,1.6-0.6c0.3,0,0.5-0.1,0.8-0.1s0.5,0,0.8,0.1c0.6,0.1,1.1,0.3,1.6,0.7c0.4,0.3,0.8,0.7,1.1,1.1
		c0.3,0.5,0.5,1,0.7,1.6C257.6,1082.9,257.6,1083.1,257.6,1083.4z"/>
</g>
<g>
	<rect x="244.9" y="1140.9" class="st98" width="16" height="16"/>
	<polyline class="st11" points="247.9,1147.8 251.3,1151.2 258,1144.9 	"/>
</g>
<g>
	<rect x="244.9" y="1181.9" class="st4" width="16" height="16"/>
	<polyline class="st11" points="247.9,1188.8 251.3,1192.2 258,1185.9 	"/>
</g>
<g>
	<g>
		<polyline class="st0" points="287,18.5 278.5,18.5 278.5,3.5 296.5,3.5 296.5,8.5 278.5,8.5 		"/>
		<line class="st0" x1="278.5" y1="13.5" x2="288.5" y2="13.5"/>
		<line class="st0" x1="284.5" y1="3.5" x2="284.5" y2="18.5"/>
		<line class="st0" x1="290.5" y1="3.5" x2="290.5" y2="11"/>
		<line class="st0" x1="280" y1="1.5" x2="282" y2="1.5"/>
		<line class="st0" x1="293" y1="1.5" x2="295" y2="1.5"/>
	</g>
	<circle class="st0" cx="296.5" cy="18.6" r="7.1"/>
	<polyline class="st6" points="296.5,14 296.5,18.6 299.4,21.4 	"/>
</g>
<g>
	<rect x="276.5" y="115.5" class="st0" width="22" height="16.9"/>
	<rect x="276.5" y="115.5" class="st5" width="22" height="1.4"/>
	<line class="st0" x1="283" y1="120.5" x2="296" y2="120.5"/>
	<line class="st0" x1="283" y1="124.5" x2="296" y2="124.5"/>
	<line class="st0" x1="283" y1="128.5" x2="296" y2="128.5"/>
	<rect x="279" y="120" class="st5" width="2" height="2"/>
	<rect x="279" y="124" class="st5" width="2" height="2"/>
	<rect x="279" y="128" class="st5" width="2" height="2"/>
</g>
<g>
	<polyline class="st0" points="287,181.5 276.5,181.5 276.5,167.5 297.5,167.5 297.5,173 	"/>
	<line class="st0" x1="283" y1="184.5" x2="287" y2="184.5"/>
	<circle class="st0" cx="296" cy="182" r="6.6"/>
	<line class="st11" x1="295.9" y1="181" x2="295.9" y2="185.9"/>
	<line class="st11" x1="295.9" y1="178" x2="295.9" y2="180"/>
</g>
<g>
	<path class="st0" d="M298.2,67h-2.3c-0.2-0.6-0.4-1.2-0.7-1.8l1.6-1.6c0.1-0.1,0.1-0.3,0-0.4l-3-3c-0.1-0.1-0.3-0.1-0.4,0l-1.6,1.6
		c-0.6-0.3-1.2-0.6-1.8-0.7v-2.3c0-0.2-0.1-0.3-0.3-0.3h-4.3c-0.2,0-0.3,0.1-0.3,0.3v2.3c-0.6,0.2-1.2,0.4-1.8,0.7l-1.6-1.6
		c-0.1-0.1-0.3-0.1-0.4,0l-3,3c-0.1,0.1-0.1,0.3,0,0.4l1.6,1.6c-0.3,0.6-0.6,1.2-0.7,1.8h-2.3c-0.2,0-0.3,0.1-0.3,0.3v4.3
		c0,0.2,0.1,0.3,0.3,0.3h2.3c0.2,0.6,0.4,1.2,0.7,1.8l-1.6,1.6c-0.1,0.1-0.1,0.3,0,0.4l3,3c0.1,0.1,0.3,0.1,0.4,0l1.6-1.6
		c0.6,0.3,1.2,0.6,1.8,0.7v2.3c0,0.2,0.1,0.3,0.3,0.3h4.3c0.1,0,0.3-0.1,0.3-0.3v-2.3c0.6-0.2,1.2-0.4,1.8-0.7l1.6,1.6
		c0.1,0.1,0.3,0.1,0.4,0l3-3c0.1-0.1,0.1-0.3,0-0.4l-1.6-1.6c0.3-0.6,0.6-1.2,0.7-1.8h2.3c0.2,0,0.3-0.1,0.3-0.3v-4.3
		C298.5,67.2,298.4,67,298.2,67z M291.8,70.3c-0.1,0.6-0.3,1.1-0.7,1.6c-0.3,0.5-0.7,0.8-1.2,1.2c-0.5,0.3-1,0.6-1.6,0.7
		c-0.3,0-0.5,0.1-0.8,0.1s-0.5,0-0.8-0.1c-0.6-0.1-1.1-0.3-1.6-0.7c-0.5-0.3-0.9-0.7-1.2-1.2c-0.3-0.5-0.6-1-0.7-1.6
		c0-0.3-0.1-0.5-0.1-0.8s0-0.6,0.1-0.8c0.1-0.6,0.3-1.1,0.7-1.6c0.3-0.5,0.7-0.9,1.2-1.2c0.5-0.3,1-0.6,1.6-0.7
		c0.3,0,0.5-0.1,0.8-0.1s0.6,0,0.8,0.1c0.6,0.1,1.1,0.3,1.6,0.7c0.5,0.3,0.9,0.7,1.2,1.2c0.3,0.5,0.6,1,0.7,1.6
		c0,0.3,0.1,0.5,0.1,0.8S291.9,70,291.8,70.3z"/>
	<path class="st0" d="M291.9,69.5c0,0.3,0,0.6-0.1,0.8c-0.1,0.6-0.3,1.1-0.7,1.6c-0.3,0.5-0.7,0.8-1.2,1.2c-0.5,0.3-1,0.6-1.6,0.7
		c-0.3,0-0.5,0.1-0.8,0.1s-0.5,0-0.8-0.1c-0.6-0.1-1.1-0.3-1.6-0.7c-0.5-0.3-0.9-0.7-1.2-1.2c-0.3-0.5-0.6-1-0.7-1.6
		c0-0.3-0.1-0.5-0.1-0.8s0-0.6,0.1-0.8c0.1-0.6,0.3-1.1,0.7-1.6c0.3-0.5,0.7-0.9,1.2-1.2c0.5-0.3,1-0.6,1.6-0.7
		c0.3,0,0.5-0.1,0.8-0.1s0.6,0,0.8,0.1c0.6,0.1,1.1,0.3,1.6,0.7c0.5,0.3,0.9,0.7,1.2,1.2c0.3,0.5,0.6,1,0.7,1.6
		C291.9,68.9,291.9,69.2,291.9,69.5z"/>
	<path class="st0" d="M291.9,69.5c0,0.3,0,0.6-0.1,0.8c-0.1,0.6-0.3,1.1-0.7,1.6c-0.3,0.5-0.7,0.8-1.2,1.2c-0.5,0.3-1,0.6-1.6,0.7
		c-0.3,0-0.5,0.1-0.8,0.1s-0.5,0-0.8-0.1c-0.6-0.1-1.1-0.3-1.6-0.7c-0.5-0.3-0.9-0.7-1.2-1.2c-0.3-0.5-0.6-1-0.7-1.6
		c0-0.3-0.1-0.5-0.1-0.8s0-0.6,0.1-0.8c0.1-0.6,0.3-1.1,0.7-1.6c0.3-0.5,0.7-0.9,1.2-1.2c0.5-0.3,1-0.6,1.6-0.7
		c0.3,0,0.5-0.1,0.8-0.1s0.6,0,0.8,0.1c0.6,0.1,1.1,0.3,1.6,0.7c0.5,0.3,0.9,0.7,1.2,1.2c0.3,0.5,0.6,1,0.7,1.6
		C291.9,68.9,291.9,69.2,291.9,69.5z"/>
</g>
<g>
	<g>
		<rect x="276.5" y="218.5" class="st74" width="22" height="16"/>
		<line class="st74" x1="284" y1="236.5" x2="291" y2="236.5"/>
	</g>
	<path class="st74" d="M283.7,225.3c0.5-1.6,2-2.7,3.8-2.7c2.2,0,4,1.8,4,4s-1.8,4-4,4c-1.9,0-3.5-1.4-3.9-3.2"/>
	<polygon class="st75" points="286.9,225.9 282.9,225.9 282.9,222 	"/>
</g>
<g>
	<g>
		<path class="st5" d="M288.2,275.1c0,0.3-0.2,0.5-0.5,0.6c-0.5-0.2-1.1-0.3-1.7-0.3s-1.1,0.1-1.7,0.2c-0.3-0.2-0.5-0.3-0.5-0.6
			c0-1.2,1-2.2,2.2-2.2S288.2,273.9,288.2,275.1z"/>
	</g>
	<path class="st11" d="M293.5,291.1h-15.2c-0.2,0-0.3-0.1-0.3-0.3c0.1-1.2,0.9-2.2,2-2.6v-6.8c0-2.7,1.8-5,4.3-5.8
		c0.5-0.2,1.1-0.2,1.7-0.2s1.2,0.1,1.7,0.3c1,0.3,1.8,0.8,2.5,1.5c1.1,1.1,1.8,2.6,1.8,4.2v6.9c0.3,0.2,0.7,0.4,0.9,0.6
		c0.5,0.5,0.8,1.1,0.9,1.9C293.8,290.9,293.7,291.1,293.5,291.1z"/>
</g>
<g>
	<g>
		<rect x="276.5" y="325.5" class="st0" width="18.9" height="13.9"/>
		<rect x="276.5" y="335.9" class="st5" width="18.9" height="3.4"/>
	</g>
	<line class="st0" x1="282.1" y1="341.4" x2="289.9" y2="341.4"/>
</g>
<g>
	<path class="st99" d="M329.1,378.4h-20.2c-0.8,0-1.4-0.6-1.4-1.4v-5.2c0-0.8,0.6-1.4,1.4-1.4h20.2c0.8,0,1.4,0.6,1.4,1.4v5.2
		C330.5,377.7,329.9,378.4,329.1,378.4z"/>
	<g>
		<line class="st99" x1="310" y1="374.5" x2="318.1" y2="374.5"/>
		<line class="st99" x1="325" y1="374.5" x2="328" y2="374.5"/>
	</g>
	<polyline class="st99" points="329.9,370.6 326.7,367.4 311.3,367.4 308,370.7 	"/>
</g>
<g>
	<path class="st99" d="M309.5,411v-9.2c0-0.8,0.6-1.4,1.4-1.4h14.2c0.8,0,1.4,0.6,1.4,1.4v9.2c0,0.8-0.6,1.4-1.4,1.4h-14.2"/>
	<path class="st99" d="M310.9,412.4h-2c-0.8,0-1.4-0.6-1.4-1.4v-11.2c0-0.8,0.6-1.4,1.4-1.4h7.2c0.8,0,1.4,0.6,1.4,1.4v0.6h-6.6
		c-0.8,0-1.4,0.6-1.4,1.4v9.2"/>
</g>
<g>
	<path class="st99" d="M309.5,444l1.4-9.4c0.1-0.7,0.7-1.2,1.4-1.2h14.2c0.9,0,1.5,0.8,1.4,1.6l-1.4,8.9c0,0.8-0.6,1.4-1.4,1.4
		h-14.2"/>
	<path class="st99" d="M310.9,445.4h-2c-0.8,0-1.4-0.6-1.4-1.4v-11.2c0-0.8,0.6-1.4,1.4-1.4h7.2c0.8,0,1.4,0.6,1.4,1.4v0.6"/>
</g>
<g>
	<polygon class="st76" points="322.3,466.4 322.3,479.3 307.3,479.3 307.3,462.3 318.3,462.3 	"/>
	<polyline class="st76" points="322.5,466.5 318.3,466.5 318.3,462.3 	"/>
</g>
<g>
	<path class="st100" d="M308.1,912.2c2.4,1.6,4,4.4,4,7.5c0,5-4.1,9.1-9.1,9.1s-9.1-4.1-9.1-9.1c0-3.1,1.6-5.9,4-7.5"/>
	<line class="st101" x1="302.9" y1="908.8" x2="302.9" y2="918.9"/>
</g>
<g>
	<path class="st100" d="M308.1,965c2.4,1.6,4,4.4,4,7.5c0,5-4.1,9.1-9.1,9.1s-9.1-4.1-9.1-9.1c0-3.1,1.6-5.9,4-7.5l1.6-0.9"/>
	<polygon class="st102" points="300.7,970.8 294.8,960.5 302.9,962.7 	"/>
</g>
<g>
	<g>
		<path class="st103" d="M302.4,1034.1L302.4,1034.1c-3.6,0-6.5-2.9-6.5-6.5v-9.6h13v9.6C308.9,1031.2,306,1034.1,302.4,1034.1z"/>
		<line class="st104" x1="294" y1="1017.9" x2="311.1" y2="1017.9"/>
		<line class="st104" x1="299" y1="1014.9" x2="306.1" y2="1014.9"/>
	</g>
	<line class="st104" x1="300" y1="1021.9" x2="300" y2="1029.7"/>
	<line class="st104" x1="304.9" y1="1021.9" x2="304.9" y2="1029.7"/>
</g>
<g>
	<path class="st104" d="M313.7,1081.1h-2.2c-0.2-0.6-0.4-1.2-0.7-1.7l1.6-1.6c0.1-0.1,0.1-0.3,0-0.4l-2.9-2.9
		c-0.1-0.1-0.3-0.1-0.4,0l-1.6,1.6c-0.5-0.3-1.1-0.5-1.7-0.7v-2.2c0-0.2-0.1-0.3-0.3-0.3h-4.2c-0.2,0-0.3,0.1-0.3,0.3v2.2
		c-0.6,0.2-1.2,0.4-1.7,0.7l-1.6-1.6c-0.1-0.1-0.3-0.1-0.4,0l-2.9,2.9c-0.1,0.1-0.1,0.3,0,0.4l1.6,1.6c-0.3,0.5-0.5,1.1-0.7,1.7
		h-2.2c-0.2,0-0.3,0.1-0.3,0.3v4.1c0,0.2,0.1,0.3,0.3,0.3h2.2c0.2,0.6,0.4,1.2,0.7,1.7l-1.6,1.6c-0.1,0.1-0.1,0.3,0,0.4l2.9,2.9
		c0.1,0.1,0.3,0.1,0.4,0l1.6-1.6c0.5,0.3,1.1,0.5,1.7,0.7v2.2c0,0.2,0.1,0.3,0.3,0.3h4.2c0.1,0,0.3-0.1,0.3-0.3v-2.2
		c0.6-0.2,1.2-0.4,1.7-0.7l1.6,1.6c0.1,0.1,0.3,0.1,0.4,0l2.9-2.9c0.1-0.1,0.1-0.3,0-0.4l-1.6-1.6c0.3-0.5,0.5-1.1,0.7-1.7h2.2
		c0.2,0,0.3-0.1,0.3-0.3v-4.1C314,1081.2,313.9,1081.1,313.7,1081.1z M307.5,1084.2c-0.1,0.6-0.3,1.1-0.7,1.6
		c-0.3,0.4-0.7,0.8-1.1,1.1c-0.5,0.3-1,0.5-1.6,0.7c-0.3,0-0.5,0.1-0.8,0.1s-0.5,0-0.8-0.1c-0.6-0.1-1.1-0.3-1.6-0.6
		c-0.4-0.3-0.8-0.7-1.1-1.1c-0.3-0.5-0.5-1-0.7-1.6c0-0.3-0.1-0.5-0.1-0.8s0-0.5,0.1-0.8c0.1-0.6,0.3-1.1,0.7-1.6
		c0.3-0.4,0.7-0.8,1.1-1.1c0.5-0.3,1-0.5,1.6-0.6c0.3,0,0.5-0.1,0.8-0.1s0.5,0,0.8,0.1c0.6,0.1,1.1,0.3,1.6,0.7
		c0.4,0.3,0.8,0.7,1.1,1.1c0.3,0.5,0.5,1,0.7,1.6c0,0.3,0.1,0.5,0.1,0.8S307.6,1083.9,307.5,1084.2z"/>
	<path class="st104" d="M307.6,1083.4c0,0.3,0,0.5-0.1,0.8c-0.1,0.6-0.3,1.1-0.7,1.6c-0.3,0.4-0.7,0.8-1.1,1.1
		c-0.5,0.3-1,0.5-1.6,0.7c-0.3,0-0.5,0.1-0.8,0.1s-0.5,0-0.8-0.1c-0.6-0.1-1.1-0.3-1.6-0.6c-0.4-0.3-0.8-0.7-1.1-1.1
		c-0.3-0.5-0.5-1-0.7-1.6c0-0.3-0.1-0.5-0.1-0.8s0-0.5,0.1-0.8c0.1-0.6,0.3-1.1,0.7-1.6c0.3-0.4,0.7-0.8,1.1-1.1
		c0.5-0.3,1-0.5,1.6-0.6c0.3,0,0.5-0.1,0.8-0.1s0.5,0,0.8,0.1c0.6,0.1,1.1,0.3,1.6,0.7c0.4,0.3,0.8,0.7,1.1,1.1
		c0.3,0.5,0.5,1,0.7,1.6C307.6,1082.9,307.6,1083.1,307.6,1083.4z"/>
	<path class="st104" d="M307.6,1083.4c0,0.3,0,0.5-0.1,0.8c-0.1,0.6-0.3,1.1-0.7,1.6c-0.3,0.4-0.7,0.8-1.1,1.1
		c-0.5,0.3-1,0.5-1.6,0.7c-0.3,0-0.5,0.1-0.8,0.1s-0.5,0-0.8-0.1c-0.6-0.1-1.1-0.3-1.6-0.6c-0.4-0.3-0.8-0.7-1.1-1.1
		c-0.3-0.5-0.5-1-0.7-1.6c0-0.3-0.1-0.5-0.1-0.8s0-0.5,0.1-0.8c0.1-0.6,0.3-1.1,0.7-1.6c0.3-0.4,0.7-0.8,1.1-1.1
		c0.5-0.3,1-0.5,1.6-0.6c0.3,0,0.5-0.1,0.8-0.1s0.5,0,0.8,0.1c0.6,0.1,1.1,0.3,1.6,0.7c0.4,0.3,0.8,0.7,1.1,1.1
		c0.3,0.5,0.5,1,0.7,1.6C307.6,1082.9,307.6,1083.1,307.6,1083.4z"/>
</g>
<g>
	<path class="st105" d="M357.1,912.2c2.4,1.6,4,4.4,4,7.5c0,5-4.1,9.1-9.1,9.1s-9.1-4.1-9.1-9.1c0-3.1,1.6-5.9,4-7.5"/>
	<line class="st106" x1="351.9" y1="908.8" x2="351.9" y2="918.9"/>
</g>
<g>
	<path class="st105" d="M357.1,965c2.4,1.6,4,4.4,4,7.5c0,5-4.1,9.1-9.1,9.1s-9.1-4.1-9.1-9.1c0-3.1,1.6-5.9,4-7.5l1.6-0.9"/>
	<polygon class="st107" points="349.7,970.8 343.8,960.5 351.9,962.7 	"/>
</g>
<g>
	<g>
		<path class="st105" d="M352.4,1034.1L352.4,1034.1c-3.6,0-6.5-2.9-6.5-6.5v-9.6h13v9.6C358.9,1031.2,356,1034.1,352.4,1034.1z"/>
		<line class="st106" x1="344" y1="1017.9" x2="361.1" y2="1017.9"/>
		<line class="st106" x1="349" y1="1014.9" x2="356.1" y2="1014.9"/>
	</g>
	<line class="st106" x1="350" y1="1021.9" x2="350" y2="1029.7"/>
	<line class="st106" x1="354.9" y1="1021.9" x2="354.9" y2="1029.7"/>
</g>
<g>
	<path class="st106" d="M362.7,1081.1h-2.2c-0.2-0.6-0.4-1.2-0.7-1.7l1.6-1.6c0.1-0.1,0.1-0.3,0-0.4l-2.9-2.9
		c-0.1-0.1-0.3-0.1-0.4,0l-1.6,1.6c-0.5-0.3-1.1-0.5-1.7-0.7v-2.2c0-0.2-0.1-0.3-0.3-0.3h-4.2c-0.2,0-0.3,0.1-0.3,0.3v2.2
		c-0.6,0.2-1.2,0.4-1.7,0.7l-1.6-1.6c-0.1-0.1-0.3-0.1-0.4,0l-2.9,2.9c-0.1,0.1-0.1,0.3,0,0.4l1.6,1.6c-0.3,0.5-0.5,1.1-0.7,1.7
		h-2.2c-0.2,0-0.3,0.1-0.3,0.3v4.1c0,0.2,0.1,0.3,0.3,0.3h2.2c0.2,0.6,0.4,1.2,0.7,1.7l-1.6,1.6c-0.1,0.1-0.1,0.3,0,0.4l2.9,2.9
		c0.1,0.1,0.3,0.1,0.4,0l1.6-1.6c0.5,0.3,1.1,0.5,1.7,0.7v2.2c0,0.2,0.1,0.3,0.3,0.3h4.2c0.1,0,0.3-0.1,0.3-0.3v-2.2
		c0.6-0.2,1.2-0.4,1.7-0.7l1.6,1.6c0.1,0.1,0.3,0.1,0.4,0l2.9-2.9c0.1-0.1,0.1-0.3,0-0.4l-1.6-1.6c0.3-0.5,0.5-1.1,0.7-1.7h2.2
		c0.2,0,0.3-0.1,0.3-0.3v-4.1C363,1081.2,362.9,1081.1,362.7,1081.1z M356.5,1084.2c-0.1,0.6-0.3,1.1-0.7,1.6
		c-0.3,0.4-0.7,0.8-1.1,1.1c-0.5,0.3-1,0.5-1.6,0.7c-0.3,0-0.5,0.1-0.8,0.1s-0.5,0-0.8-0.1c-0.6-0.1-1.1-0.3-1.6-0.6
		c-0.4-0.3-0.8-0.7-1.1-1.1c-0.3-0.5-0.5-1-0.7-1.6c0-0.3-0.1-0.5-0.1-0.8s0-0.5,0.1-0.8c0.1-0.6,0.3-1.1,0.7-1.6
		c0.3-0.4,0.7-0.8,1.1-1.1c0.5-0.3,1-0.5,1.6-0.6c0.3,0,0.5-0.1,0.8-0.1s0.5,0,0.8,0.1c0.6,0.1,1.1,0.3,1.6,0.7
		c0.4,0.3,0.8,0.7,1.1,1.1c0.3,0.5,0.5,1,0.7,1.6c0,0.3,0.1,0.5,0.1,0.8S356.6,1083.9,356.5,1084.2z"/>
	<path class="st106" d="M356.6,1083.4c0,0.3,0,0.5-0.1,0.8c-0.1,0.6-0.3,1.1-0.7,1.6c-0.3,0.4-0.7,0.8-1.1,1.1
		c-0.5,0.3-1,0.5-1.6,0.7c-0.3,0-0.5,0.1-0.8,0.1s-0.5,0-0.8-0.1c-0.6-0.1-1.1-0.3-1.6-0.6c-0.4-0.3-0.8-0.7-1.1-1.1
		c-0.3-0.5-0.5-1-0.7-1.6c0-0.3-0.1-0.5-0.1-0.8s0-0.5,0.1-0.8c0.1-0.6,0.3-1.1,0.7-1.6c0.3-0.4,0.7-0.8,1.1-1.1
		c0.5-0.3,1-0.5,1.6-0.6c0.3,0,0.5-0.1,0.8-0.1s0.5,0,0.8,0.1c0.6,0.1,1.1,0.3,1.6,0.7c0.4,0.3,0.8,0.7,1.1,1.1
		c0.3,0.5,0.5,1,0.7,1.6C356.6,1082.9,356.6,1083.1,356.6,1083.4z"/>
	<path class="st106" d="M356.6,1083.4c0,0.3,0,0.5-0.1,0.8c-0.1,0.6-0.3,1.1-0.7,1.6c-0.3,0.4-0.7,0.8-1.1,1.1
		c-0.5,0.3-1,0.5-1.6,0.7c-0.3,0-0.5,0.1-0.8,0.1s-0.5,0-0.8-0.1c-0.6-0.1-1.1-0.3-1.6-0.6c-0.4-0.3-0.8-0.7-1.1-1.1
		c-0.3-0.5-0.5-1-0.7-1.6c0-0.3-0.1-0.5-0.1-0.8s0-0.5,0.1-0.8c0.1-0.6,0.3-1.1,0.7-1.6c0.3-0.4,0.7-0.8,1.1-1.1
		c0.5-0.3,1-0.5,1.6-0.6c0.3,0,0.5-0.1,0.8-0.1s0.5,0,0.8,0.1c0.6,0.1,1.1,0.3,1.6,0.7c0.4,0.3,0.8,0.7,1.1,1.1
		c0.3,0.5,0.5,1,0.7,1.6C356.6,1082.9,356.6,1083.1,356.6,1083.4z"/>
</g>
<g>
	<rect x="290.9" y="1140.9" class="st4" width="16" height="16"/>
	<line class="st11" x1="295" y1="1148.9" x2="303" y2="1148.9"/>
</g>
<g>
	<circle class="st108" cx="331.8" cy="15" r="13.5"/>
	<line class="st109" x1="329.3" y1="11.2" x2="329.3" y2="18.8"/>
	<line class="st109" x1="334.4" y1="11.2" x2="334.4" y2="18.8"/>
</g>
<g>
	<circle class="st110" cx="314.5" cy="507.5" r="7"/>
	<line class="st111" x1="319.4" y1="512.4" x2="324.5" y2="517.6"/>
</g>
<g>
	<g>
		<path class="st74" d="M305.5,557.9V573c0,0.8-0.6,1.4-1.4,1.4h-9.2c-0.8,0-1.4-0.6-1.4-1.4v-15.1"/>
		<line class="st74" x1="296.4" y1="557.9" x2="296.4" y2="571"/>
		<line class="st74" x1="299.5" y1="557.9" x2="299.5" y2="571"/>
		<line class="st74" x1="302.4" y1="557.9" x2="302.4" y2="571"/>
	</g>
	<g>
		<line class="st74" x1="292" y1="556.4" x2="307" y2="556.4"/>
		<line class="st112" x1="298" y1="555.9" x2="301" y2="555.9"/>
	</g>
</g>
<g>
	<g>
		<path class="st0" d="M305.5,608.9V624c0,0.8-0.6,1.4-1.4,1.4h-9.2c-0.8,0-1.4-0.6-1.4-1.4v-15.1"/>
		<line class="st0" x1="296.4" y1="608.9" x2="296.4" y2="622"/>
		<line class="st0" x1="299.5" y1="608.9" x2="299.5" y2="622"/>
		<line class="st0" x1="302.4" y1="608.9" x2="302.4" y2="622"/>
	</g>
	<g>
		<line class="st0" x1="292" y1="607.4" x2="307" y2="607.4"/>
		<line class="st11" x1="298" y1="606.9" x2="301" y2="606.9"/>
	</g>
</g>
<polyline class="st113" points="296.5,656.5 300.5,660.4 296.5,664.4 "/>
<polyline class="st114" points="293.6,691 301.1,698.4 293.6,705.8 "/>
<polyline class="st114" points="301.4,728.8 294,736.2 301.4,743.6 "/>
<path class="st50" d="M299.9,778.9v-7c0-0.2,0.3-0.3,0.4-0.2l3.6,3.5c0.1,0.1,0.1,0.3,0,0.4l-3.6,3.5
	C300.2,779.2,299.9,779.1,299.9,778.9z"/>
<g>
	<circle class="st115" cx="302" cy="818.9" r="9"/>
	<line class="st116" x1="302" y1="814.9" x2="302" y2="822.5"/>
	<polyline class="st117" points="305.5,819.4 302,823 298.4,819.4 	"/>
</g>
<g>
	<circle class="st118" cx="302" cy="869" r="9"/>
	<line class="st118" x1="302" y1="864.9" x2="302" y2="872.5"/>
	<polyline class="st118" points="305.5,869.4 302,873 298.4,869.4 	"/>
</g>
<g>
	<rect x="345" y="749.9" class="st119" width="16" height="16"/>
	<polyline class="st11" points="348.4,757.4 351.8,760.7 357.5,755.1 	"/>
</g>
<g>
	<rect x="344.9" y="857.9" class="st119" width="16" height="16"/>
	<polyline class="st11" points="348.3,865.4 351.8,868.7 357.5,863.1 	"/>
</g>
<g>
	<rect x="345.4" y="787.4" class="st86" width="15" height="15"/>
	<line class="st89" x1="348.9" y1="794.9" x2="356.9" y2="794.9"/>
</g>
<g>
	<rect x="345.4" y="822.4" class="st86" width="15" height="15"/>
</g>
<g>
	<path class="st120" d="M273.4,771.9h-8.8c-0.3,0-0.6,0.3-0.6,0.6v6.9c0,0.3,0.3,0.6,0.6,0.6h8.8c0.3,0,0.6-0.3,0.6-0.6v-6.9
		C274,772.2,273.8,771.9,273.4,771.9z"/>
	<path class="st50" d="M276.3,773h-14.5c-0.5,0-0.8-0.7-0.3-1l7.2-5.4c0.2-0.2,0.5-0.2,0.7,0l7.2,5.4C277,772.3,276.8,773,276.3,773
		z"/>
</g>
</svg>
