<?xml version="1.0" encoding="utf-8"?>
<!-- Generator: Adobe Illustrator 24.0.0, SVG Export Plug-In . SVG Version: 6.00 Build 0)  -->
<svg version="1.1" id="Layer_1" xmlns="http://www.w3.org/2000/svg" xmlns:xlink="http://www.w3.org/1999/xlink" x="0px" y="0px"
	 width="269.7px" height="35.6px" viewBox="0 0 269.7 35.6" style="enable-background:new 0 0 269.7 35.6;" xml:space="preserve">
<style type="text/css">
	.st0{fill:#0071BC;}
</style>
<g>
	<g>
		<g>
			<path class="st0" d="M125.3,33.7h-10.5V13.3c0-1.3,1.1-2.5,2.4-2.5h8.5c4.4,0,7.2,1.7,7.2,5.8c0,2.5-1,3.9-2.8,4.8
				c2.3,0.9,3.6,2.4,3.6,5.4C133.6,31.5,130.2,33.7,125.3,33.7z M124.6,14.7h-5.2v4.9h5.3c1.9,0,3.4-0.6,3.4-2.5
				S126.7,14.7,124.6,14.7z M124.8,23.5h-5.4v6h5.5c2.3,0,3.8-0.7,3.8-3C128.6,24.2,127.2,23.5,124.8,23.5z"/>
			<path class="st0" d="M138.2,10.8h4.5l4.6,17.5l4.5-17.5h7v23h-4.4V15.1l-4.7,18.6h-4.8l-4.7-18.5v18.5h-4.4V13.3
				C135.8,11.9,136.9,10.8,138.2,10.8z"/>
			<path class="st0" d="M176.2,22.7c1,0.3,1.7,0.9,2.2,1.6c0.4,0.7,0.6,1.9,0.7,3.4l0.2,4.5c0,0.7,0.3,1.2,0.7,1.5h-5.2
				c-0.2-0.4-0.3-0.9-0.4-1.4c-0.1-0.3-0.2-1.6-0.2-3.9c-0.2-2.8-0.7-3.6-3.5-3.6h-5v8.9h-4.7V13.3c0-1.3,1.1-2.5,2.4-2.5h8.7
				c4.8,0,7.4,1.8,7.4,6.6C179.6,20.3,178.4,22.1,176.2,22.7z M171.7,14.7h-5.8v6.1h5.5c2.2,0,3.5-0.8,3.5-3
				C174.9,15.6,173.7,14.7,171.7,14.7z"/>
		</g>
		<g>
			<path class="st0" d="M108.9,6.4c-0.2-0.2-0.4-0.3-0.6-0.5c0.5-0.1,0.9-0.2,1.1-0.5c0.2-0.3,0.4-0.6,0.4-1c0-0.3-0.1-0.6-0.2-0.9
				c-0.2-0.2-0.4-0.5-0.6-0.5c-0.2-0.1-0.7-0.2-1.3-0.2h-0.1h-2.2v5.4h1.1V6h0.2c0.2,0,0.5,0,0.5,0.1c0.1,0,0.2,0.1,0.3,0.2
				c0.1,0.2,0.3,0.4,0.5,0.8l0.8,1.2h1.3l-0.7-1.1C109.3,6.9,109.1,6.6,108.9,6.4z M107.6,5.3c-0.1,0-0.2,0-0.3,0h-0.8V3.9h0.9
				c0.1,0,0.2,0,0.2,0c0.3,0,0.5,0,0.5,0c0.2,0,0.3,0.1,0.4,0.2c0.1,0.1,0.2,0.2,0.2,0.5c0,0.2-0.1,0.3-0.2,0.4
				c-0.1,0.1-0.2,0.2-0.3,0.2C108.2,5.3,107.9,5.3,107.6,5.3z"/>
			<path class="st0" d="M111.3,2c-0.9-0.9-2.3-1.6-3.8-1.6c-1.5,0-2.7,0.6-3.8,1.6c-0.9,0.9-1.6,2.3-1.6,3.8s0.6,2.7,1.6,3.8
				c0.9,0.9,2.3,1.6,3.8,1.6c1.5,0,2.8-0.6,3.8-1.6c0.9-0.9,1.6-2.3,1.6-3.8C112.8,4.2,112.2,2.9,111.3,2z M110.5,8.7
				c-0.8,0.8-1.8,1.2-3,1.2s-2.2-0.5-3-1.2c-0.8-0.8-1.3-1.8-1.3-3s0.5-2.2,1.3-3c0.8-0.8,1.8-1.3,3-1.3s2.2,0.5,3,1.3
				c0.8,0.8,1.3,1.8,1.3,3C111.8,6.8,111.3,7.9,110.5,8.7z"/>
		</g>
		<g>
			<path class="st0" d="M1.7,4.9C1.1,5.5,0.8,6.3,0.8,7.2v26.6h6.4V4.1H4C3.2,4.1,2.4,4.3,1.7,4.9z"/>
			<path class="st0" d="M22.2,4.1h-9c-0.9,0-1.7,0.3-2.3,0.9c-0.6,0.6-0.9,1.4-0.9,2.2v26.6h10.6c3,0,5.2-0.2,6.6-0.6
				c1.5-0.4,2.9-1.1,4.3-2.1c1.5-1.1,2.8-2.8,3.9-5c0.9-2.1,1.3-4.5,1.3-7.1c0-5-1.2-8.7-3.5-11.2C30.6,5.3,27,4.1,22.2,4.1z
				 M27.9,26.2c-1.4,1.5-3.6,2.2-6.5,2.2h-5.2V9.2h6c2.7,0,4.6,0.8,5.8,2.3c1.3,1.5,1.9,4,1.9,7.3C29.9,22.4,29.3,24.8,27.9,26.2z"
				/>
			<path class="st0" d="M50.6,10.8c-1.6,0-3.3,0.2-4.8,0.6c-1.5,0.4-2.9,1-4,1.9c-1.2,0.9-2.1,2.1-2.8,3.7c-0.7,1.5-1,3.4-1,5.7
				v11.1h6.4V21.9c0-1.7,0.4-3,1.3-3.8c0.9-0.8,2.1-1.2,4-1.2h2.1v-6.1h-0.4L50.6,10.8L50.6,10.8z"/>
			<path class="st0" d="M56.7,10.8h-3.3v23h6.4v-20c0-0.8-0.3-1.5-0.9-2.1C58.3,11,57.6,10.8,56.7,10.8z"/>
			<path class="st0" d="M79.7,10.8c-1.5,0-2.4,0.7-2.9,2.1l-4.3,14.1l-4.8-16.2h-6.8l8.5,23h6.4l8.6-23L79.7,10.8z"/>
			<path class="st0" d="M56.3,2.4c2,0,3.5,1.5,3.5,3.4c0,1.8-1.5,3.4-3.5,3.4s-3.5-1.5-3.5-3.4S54.3,2.4,56.3,2.4z"/>
			<path class="st0" d="M103.2,13.7c-1.9-2-4.7-3-8.2-3c-3.3,0-6,1-7.8,3.1c-1.8,2-2.7,4.8-2.7,8.3c0,3.7,0.9,6.6,2.8,8.6
				c1.9,2.1,4.5,3.1,7.8,3.1c2.7,0,5.1-0.7,6.9-1.9c1.8-1.2,3.1-3,3.7-5.3h-4.4c-0.7,0-1.2,0.2-1.7,0.4c-0.4,0.2-0.6,0.5-0.7,0.7
				c-0.2,0.2-0.3,0.3-0.5,0.5c-0.2,0.2-0.3,0.2-0.5,0.2c-0.7,0.4-1.6,0.6-2.6,0.6c-1.5,0-2.7-0.4-3.4-1.3c-0.8-0.8-1.2-2.1-1.3-3.8
				h15.3c0.1-0.1,0.1-0.3,0.1-0.6v-0.3v-0.6C106,18.6,105.1,15.8,103.2,13.7z M90.7,20c0.1-1.4,0.5-2.6,1.3-3.3
				c0.8-0.7,1.9-1.2,3.2-1.2c1.4,0,2.5,0.4,3.2,1.2c0.7,0.7,1.1,1.8,1.2,3.3H90.7z"/>
		</g>
	</g>
</g>
<g>
	<g>
		<path class="st0" d="M207.1,25.1c-0.5,5-4.6,9-11,9c-7.2,0-11.8-4.5-11.8-11.6c0-5.1,3.1-11.7,11.8-11.7c4.8,0,10.1,2.2,10.8,8
			h-2.3c-0.7-4.2-4.5-5.9-8.5-5.9c-5.5,0-9.3,3.1-9.3,9.5c0,4.9,2.6,9.5,9.3,9.5c5.3,0,7.9-2.7,8.7-6.9H207.1z"/>
		<path class="st0" d="M223.9,30.4L223.9,30.4c-0.7,1.7-3.2,3.7-6.7,3.7c-5.3,0-7-2.8-7-6.6v-10h2.3v10.4c0,3.2,1.9,4.3,4.9,4.3
			c4.5,0,6.6-2.3,6.6-6v-8.8h2.3l0,16.6h-2.3L223.9,30.4z"/>
		<path class="st0" d="M229.7,11.2h2.3v9.4h0.1c1.1-2.1,3.5-3.7,6.6-3.7c6,0,8.8,4.1,8.8,8.6c0,3.9-2.2,8.6-8.8,8.6
			c-3.9,0-6-2.4-6.6-3.7H232l0,3.7h-2.3L229.7,11.2z M238.7,32.2c4.7,0,6.5-3.4,6.5-6.6c0-4.1-2.9-6.6-6.5-6.6
			c-4.7,0-6.8,3.3-6.8,6.6C231.9,29.7,234.9,32.2,238.7,32.2z"/>
		<path class="st0" d="M267.4,28.4c-0.9,2.9-3.4,5.7-8.7,5.7c-6.6,0-8.8-4.6-8.8-8.6c0-4.5,2.8-8.6,8.8-8.6c4.1,0,9.1,1.8,9.1,9.1
			h-15.6c0,3.4,2.4,6.1,6.5,6.1c3.9,0,5.6-1.2,6.4-3.7H267.4z M265.5,24.3c-0.7-4-3.6-5.5-6.6-5.5c-3,0-6.2,1.5-6.6,5.5H265.5z"/>
	</g>
</g>
</svg>
