<?xml version="1.0" encoding="utf-8"?>
<!-- Generator: Adobe Illustrator 24.3.0, SVG Export Plug-In . SVG Version: 6.00 Build 0)  -->
<svg version="1.1" id="Layer_1" xmlns="http://www.w3.org/2000/svg" xmlns:xlink="http://www.w3.org/1999/xlink" x="0px" y="0px"
	 width="24.1px" height="822.1px" viewBox="0 0 24.1 822.1" style="enable-background:new 0 0 24.1 822.1;" xml:space="preserve">
<style type="text/css">
	.st0{fill-rule:evenodd;clip-rule:evenodd;fill:#488ECC;}
	.st1{fill-rule:evenodd;clip-rule:evenodd;fill:#C75757;}
	.st2{fill-rule:evenodd;clip-rule:evenodd;fill:#FFFFFF;}
	.st3{fill-rule:evenodd;clip-rule:evenodd;fill:#6196B9;}
	.st4{fill-rule:evenodd;clip-rule:evenodd;fill:#37AFFF;}
	.st5{fill-rule:evenodd;clip-rule:evenodd;fill:#F26A34;}
	.st6{fill-rule:evenodd;clip-rule:evenodd;fill:#9EA3A7;}
	.st7{fill:#488ECC;}
	.st8{fill-rule:evenodd;clip-rule:evenodd;fill:#EE5555;}
	.st9{fill-rule:evenodd;clip-rule:evenodd;fill:#A7A7A7;}
	.st10{fill:#0089C6;}
	.st11{fill-rule:evenodd;clip-rule:evenodd;fill:#FF9A37;}
	.st12{fill-rule:evenodd;clip-rule:evenodd;fill:#789CB4;}
</style>
<path class="st0" d="M14,9H7.5l1.2,1.2c0.4,0.4,0.4,1.1,0,1.5s-1.1,0.4-1.5,0l-2.9-3c-0.4-0.4-0.4-1.1,0-1.5l2.9-3
	c0.4-0.4,1.1-0.4,1.5,0s0.4,1.1,0,1.5L7.5,7H14c0.6,0,1,0.4,1,1S14.6,9,14,9z M10,2H2v12h8c0.6,0,1,0.4,1,1s-0.4,1-1,1H1
	c-0.6,0-1-0.4-1-1V1c0-0.6,0.4-1,1-1h9c0.6,0,1,0.4,1,1S10.6,2,10,2z"/>
<g>
	<path class="st1" d="M9,56c5,0,9,4,9,9s-4,9-9,9s-9-4-9-9S4,56,9,56z"/>
	<path class="st2" d="M9,71.5c-3.3,0-6-2.7-6-6c0-2.6,1.7-4.8,4-5.6v2.2c-1.2,0.7-2,2-2,3.4c0,2.2,1.8,4,4,4s4-1.8,4-4
		c0-1.5-0.8-2.8-2-3.4v-2.2c2.3,0.8,4,3,4,5.6C15,68.8,12.3,71.5,9,71.5z M9,65.5c-0.6,0-1-0.4-1-1v-5c0-0.6,0.4-1,1-1s1,0.4,1,1v5
		C10,65.1,9.6,65.5,9,65.5z"/>
</g>
<g>
	<path class="st3" d="M12.2,121.1c-0.1,0.3-0.3,1.7-1.2,2.4c0,1.1,0,1.2,0,1.2s0.1,0.1,0.3,0.2l-0.2,0.2c-1.2,1.2-1.2,2.1,0,3.2
		c1.2,1.1,2.1,1.2,3.2,0l1.4-1.4c0.5,0.3,1,0.8,1.2,1.4c0.3,1.2,0.2,2.9,0.2,2.9h-17c0,0,0-1.6,0.2-2.4c0.2-0.7,0.4-1.6,1.7-2.2
		c1.2-0.5,3.2-1.3,3.2-1.3l1.3-0.8l0.1-0.9c0,0-0.8-0.4-1-1.4s-0.2-1-0.2-1s-0.4-0.1-0.3-0.7c-0.2-0.7-0.6-1.6,0-1.5
		c0,0-1.1-4,1.6-4.3c0-0.3,0.2-0.8,1.5-0.7c1.3,0.1,4.3,0.6,4.4,2.9c-0.1,1.2-0.2,2-0.2,2s0.6-0.3,0.4,0.5
		C12.6,120.1,12.5,121.1,12.2,121.1z"/>
	<path class="st3" d="M19.4,119.8c0.4,0.4,0.4,1,0,1.4l-6.1,6.1c-0.4,0.4-1,0.4-1.4,0s-0.4-1,0-1.4l6.1-6.1
		C18.4,119.4,19,119.4,19.4,119.8z"/>
</g>
<path class="st4" d="M17,184.9H1c-0.6,0-1-0.4-1-1v-12c0-0.6,0.4-1,1-1h16c0.6,0,1,0.4,1,1v12C18,184.5,17.6,184.9,17,184.9z
	 M16,172.9H2v10h14V172.9z M5,185.9h8c0.6,0,1,0.4,1,1s-0.4,1-1,1H5c-0.6,0-1-0.4-1-1C4,186.3,4.4,185.9,5,185.9z"/>
<g>
	<path class="st5" d="M17,242.2H1c-0.6,0-1-0.4-1-1v-12c0-0.6,0.4-1,1-1h16c0.6,0,1,0.4,1,1v12C18,241.8,17.6,242.2,17,242.2z
		 M16,230.2H2v10h14V230.2z M6.2,232.4c0.3-0.3,0.8-0.3,1.1,0l1.7,1.7l1.7-1.7c0.3-0.3,0.8-0.3,1.1,0s0.3,0.8,0,1.1l-1.7,1.7
		l1.7,1.7c0.3,0.3,0.3,0.8,0,1.1s-0.8,0.3-1.1,0L9,236.3L7.3,238c-0.3,0.3-0.8,0.3-1.1,0c-0.3-0.3-0.3-0.8,0-1.1l1.7-1.7l-1.7-1.7
		C5.9,233.2,5.9,232.7,6.2,232.4z M5,243.2h8c0.6,0,1,0.4,1,1s-0.4,1-1,1H5c-0.6,0-1-0.4-1-1C4,243.6,4.4,243.2,5,243.2z"/>
</g>
<path class="st6" d="M14,298.5H1H0v-1v-9v-2v-1h1v1h4v-1h5v1h4v-1h1v1v2v9v1H14z M14,288.5H1v9h13V288.5z M5,292.5H2v-3h3V292.5z
	 M5,296.5H2v-3h3V296.5z M9,292.5H6v-3h3V292.5z M9,296.5H6v-3h3V296.5z M13,292.5h-3v-3h3V292.5z M13,296.5h-3v-3h3V296.5z
	 M11,284.5h2v1h-2V284.5z M2,284.5h2v1H2V284.5z"/>
<g>
	<g>
		<path class="st7" d="M14,340.5v5.4c-1,4.2-4.5,6.6-6,7.4c-6.1-3-6-7.8-6-8v-0.1v-4.6L14,340.5 M16,338.5H0v6.6c0,0-0.5,6.8,8,10.4
			c0,0,6.5-2.7,8-9.4C16,345.2,16,338.5,16,338.5L16,338.5z"/>
	</g>
	<path class="st7" d="M11.7,344.9L8,348.7c-0.2,0.2-0.5,0.3-0.9,0.3c-0.3,0-0.6,0-0.8-0.3l-2.1-2.1c-0.4-0.4-0.4-1,0-1.4
		s1-0.4,1.4,0l1.4,1.4l3.2-3.3c0.4-0.4,1.1-0.4,1.5,0C12.1,343.8,12.1,344.4,11.7,344.9z"/>
</g>
<g>
	<g>
		<path class="st7" d="M14,398.3v5.4c-1,4.2-4.5,6.6-6,7.4c-6.1-3-6-7.8-6-8V403v-4.6L14,398.3 M16,396.3H0v6.6c0,0-0.5,6.8,8,10.4
			c0,0,6.5-2.7,8-9.4C16,403,16,396.3,16,396.3L16,396.3z"/>
	</g>
	<path class="st8" d="M12.9,404.5c2.8,0,5,2.2,5,5s-2.2,5-5,5s-5-2.2-5-5C7.9,406.7,10.1,404.5,12.9,404.5z"/>
	<path class="st2" d="M9.9,408.5h6v2h-6V408.5z"/>
</g>
<g>
	<path class="st0" d="M17,468.2H1c-0.6,0-1-0.4-1-1v-12c0-0.6,0.4-1,1-1h16c0.6,0,1,0.4,1,1v12C18,467.8,17.6,468.2,17,468.2z
		 M16,456.2H2v10h14V456.2z M6.6,460.5l1.4,1.4l3.2-3.3c0.4-0.4,1.1-0.4,1.5,0s0.4,1.1,0,1.5L9,463.9c-0.2,0.2-0.5,0.3-0.9,0.3
		c-0.3,0-0.6,0-0.8-0.3l-2.1-2.1c-0.4-0.4-0.4-1,0-1.4C5.6,460.1,6.3,460.1,6.6,460.5z M5,469.2h8c0.6,0,1,0.4,1,1s-0.4,1-1,1H5
		c-0.6,0-1-0.4-1-1S4.4,469.2,5,469.2z"/>
</g>
<path class="st9" d="M17,525.1H1c-0.6,0-1-0.4-1-1v-12c0-0.6,0.4-1,1-1h16c0.6,0,1,0.4,1,1v12C18,524.7,17.6,525.1,17,525.1z
	 M16,513.1H2v10h14V513.1z M10,519.1H8v-5h2V519.1z M10,522.1H8v-2h2V522.1z M5,526.1h8c0.6,0,1,0.4,1,1s-0.4,1-1,1H5
	c-0.6,0-1-0.4-1-1S4.4,526.1,5,526.1z"/>
<g>
	<path class="st10" d="M9.2,578.1c0-0.3,0-0.7,0.1-1H1.9l0,0v-9.5l7.4,6l6.7-5.7v5.6c0.7,0.3,1.3,0.8,1.8,1.4v-8.5
		c0-1-0.9-1.7-1.8-1.7l0,0H1.9c-1,0-1.8,0.7-1.8,1.7l0,0V577c0,1,0.9,1.7,1.8,1.7l0,0h7.4C9.2,578.5,9.2,578.3,9.2,578.1z
		 M15.2,566.4l-5.9,5l-6.2-5H15.2z"/>
	<path class="st10" d="M14,572.8c-2.8,0-5.1,2.3-5.1,5.1s2.3,5.1,5.1,5.1s5.1-2.3,5.1-5.1l0,0C19,575.1,16.8,572.8,14,572.8z
		 M17.1,576.6l-3.2,3.6l0,0c-0.1,0.1-0.3,0.2-0.5,0.2s-0.4-0.1-0.5-0.2l0,0l-2-1.8l0,0c-0.1-0.1-0.2-0.3-0.2-0.5s0.1-0.4,0.2-0.5
		l0,0c0.1-0.1,0.3-0.2,0.5-0.2s0.4,0.1,0.5,0.2l0,0l1.5,1.3l2.7-3.1l0,0c0.1-0.1,0.3-0.2,0.5-0.2s0.4,0.1,0.5,0.2l0,0
		c0.1,0.1,0.2,0.3,0.2,0.5C17.3,576.3,17.2,576.5,17.1,576.6z"/>
</g>
<path class="st4" d="M17,623.8H1c-0.6,0-1-0.4-1-1v-12c0-0.6,0.4-1,1-1h16c0.6,0,1,0.4,1,1v12C18,623.4,17.6,623.8,17,623.8z
	 M16,611.8H2v10h14V611.8z M5,624.8h8c0.6,0,1,0.4,1,1s-0.4,1-1,1H5c-0.6,0-1-0.4-1-1S4.4,624.8,5,624.8z"/>
<path class="st8" d="M15.7,617.9c2.8,0,5,2.2,5,5s-2.2,5-5,5s-5-2.2-5-5S12.9,617.9,15.7,617.9z"/>
<path class="st2" d="M12.7,621.9h6v2h-6C12.7,623.9,12.7,621.9,12.7,621.9z"/>
<path class="st2" d="M14.7,625.9v-6h2v6H14.7z"/>
<path class="st11" d="M0.4,691.3v-20h13v20H0.4z M5.4,690.3h3v-2h-3C5.4,688.3,5.4,690.3,5.4,690.3z M9.4,672.3h-5v1h5V672.3z
	 M11.4,674.3h-9v13h9V674.3z"/>
<path class="st4" d="M11.4,753.3h-9c-1.1,0-2-0.9-2-2v-16c0-1.1,0.9-2,2-2h9c1.1,0,2,0.9,2,2v16C13.4,752.4,12.5,753.3,11.4,753.3z
	 M6.9,752.3c0.8,0,1.5-0.7,1.5-1.5s-0.7-1.5-1.5-1.5s-1.5,0.7-1.5,1.5S6.1,752.3,6.9,752.3z M9.4,735.3h-5v1h5V735.3z M11.4,737.3
	h-9v11h9V737.3z"/>
<path class="st12" d="M18.4,820.3h-16c-1.1,0-2-0.9-2-2v-22c0-1.1,0.9-2,2-2h16c1.1,0,2,0.9,2,2v22
	C20.4,819.4,19.5,820.3,18.4,820.3z M18.4,797.3c0-0.6-0.4-1-1-1h-14c-0.6,0-1,0.4-1,1v1h16V797.3z M18.4,800.3h-16v12h16V800.3z
	 M18.4,814.3h-16v3c0,0.6,0.4,1,1,1h14c0.6,0,1-0.4,1-1V814.3z M10.4,817.3c-0.6,0-1-0.4-1-1s0.4-1,1-1s1,0.4,1,1
	S10.9,817.3,10.4,817.3z"/>
</svg>
