<?xml version="1.0" encoding="utf-8"?>
<!-- Generator: Adobe Illustrator 24.3.0, SVG Export Plug-In . SVG Version: 6.00 Build 0)  -->
<svg version="1.1" id="Layer_1" xmlns="http://www.w3.org/2000/svg" xmlns:xlink="http://www.w3.org/1999/xlink" x="0px" y="0px"
	 width="244px" height="1370px" viewBox="0 0 244 1370" style="enable-background:new 0 0 244 1370;" xml:space="preserve">
<style type="text/css">
	.st0{fill:none;stroke:#868E9D;stroke-linejoin:round;stroke-miterlimit:10;}
	.st1{fill-rule:evenodd;clip-rule:evenodd;fill:#868E9D;}
	.st2{fill:none;stroke:#868E9D;stroke-miterlimit:10;}
	.st3{fill:none;stroke:#868E9D;stroke-linecap:square;stroke-linejoin:round;stroke-miterlimit:10;}
	.st4{fill:#868E9D;}
	.st5{fill:none;stroke:#868E9D;stroke-linecap:round;stroke-linejoin:round;stroke-miterlimit:10;}
	.st6{fill:none;stroke:#868E9D;stroke-linecap:round;stroke-miterlimit:10;}
	.st7{fill:none;stroke:#1F78B5;stroke-linejoin:round;stroke-miterlimit:10;}
	.st8{fill-rule:evenodd;clip-rule:evenodd;fill:#1F78B5;}
	.st9{fill:none;stroke:#1F78B5;stroke-miterlimit:10;}
	.st10{fill:none;stroke:#1F78B5;stroke-linecap:square;stroke-linejoin:round;stroke-miterlimit:10;}
	.st11{fill:#1F78B5;}
	.st12{fill:none;stroke:#1F78B5;stroke-linecap:round;stroke-linejoin:round;stroke-miterlimit:10;}
	.st13{fill:none;stroke:#1F78B5;stroke-linecap:round;stroke-miterlimit:10;}
	.st14{fill:none;stroke:#3299DE;stroke-width:2;stroke-miterlimit:10;}
	.st15{fill:none;stroke:#3299DE;stroke-width:2;stroke-linecap:round;stroke-linejoin:round;stroke-miterlimit:10;}
	.st16{fill:none;stroke:#488ECC;stroke-width:2;stroke-miterlimit:10;}
	.st17{fill:#E77B7B;}
	.st18{fill:none;stroke:#FFFFFF;stroke-width:2;stroke-miterlimit:10;}
	.st19{fill:none;stroke:#458AF1;stroke-width:2;stroke-miterlimit:10;}
	.st20{fill:#458AF1;}
	.st21{fill:none;stroke:#458AF1;stroke-width:2;stroke-linecap:round;stroke-miterlimit:10;}
	.st22{fill:none;stroke:#EEBF04;stroke-width:2;stroke-miterlimit:10;}
	.st23{fill:#EEBF04;}
	.st24{fill:#FFFFFF;}
	.st25{fill:none;stroke:#507989;stroke-width:2;stroke-miterlimit:10;}
	.st26{fill:#517989;}
	.st27{fill:none;stroke:#EC5E38;stroke-width:2;stroke-miterlimit:10;}
	.st28{fill:#EC5E38;}
	.st29{fill:none;stroke:#758BAF;stroke-width:2;stroke-miterlimit:10;}
	.st30{fill:none;stroke:#FFFFFF;stroke-miterlimit:10;}
	.st31{fill:#EFB721;}
	.st32{fill:#488ECC;}
	.st33{fill:none;stroke:#7A8393;stroke-width:2;stroke-linecap:round;stroke-linejoin:round;stroke-miterlimit:10;}
	.st34{fill:none;stroke:#748692;stroke-width:2;stroke-linecap:round;stroke-miterlimit:10;}
	.st35{fill:#448CCB;}
	.st36{fill:#F36C2C;}
	.st37{fill:none;stroke:#FFFFFF;stroke-width:2;stroke-linecap:round;stroke-miterlimit:10;}
	.st38{fill:none;stroke:#8296A3;stroke-width:2;stroke-miterlimit:10;}
	.st39{fill:#F26522;}
	.st40{fill:#8296A3;}
	.st41{fill:#F3A12C;}
	.st42{fill:#FF9600;}
	.st43{fill-rule:evenodd;clip-rule:evenodd;fill:#488ECC;}
	.st44{fill:none;stroke:#448CCB;stroke-width:2;stroke-miterlimit:10;}
	.st45{fill:none;stroke:#8296A3;stroke-width:2;stroke-linecap:round;stroke-miterlimit:10;}
	.st46{fill:none;stroke:#F26522;stroke-width:2;stroke-linecap:round;stroke-miterlimit:10;}
	.st47{fill:none;stroke:#F16A57;stroke-width:2;stroke-miterlimit:10;}
	.st48{fill:none;stroke:#F5AB43;stroke-width:2;stroke-miterlimit:10;}
	.st49{fill:none;stroke:#0092FF;stroke-width:2;stroke-miterlimit:10;}
	.st50{fill:none;stroke:#4677DD;stroke-width:2;stroke-miterlimit:10;}
	.st51{fill:none;stroke:#4A6D82;stroke-width:2;stroke-miterlimit:10;}
	.st52{fill:none;stroke:#488ECC;stroke-width:2.5;stroke-linecap:round;stroke-miterlimit:10;}
	.st53{fill:none;stroke:#B5B5B5;stroke-width:2;stroke-miterlimit:10;}
	.st54{fill:none;stroke:#B5B5B5;stroke-width:2;stroke-linecap:round;stroke-linejoin:round;stroke-miterlimit:10;}
	.st55{enable-background:new    ;}
	.st56{fill:none;stroke:#F26522;stroke-width:2;stroke-miterlimit:10;}
</style>
<g>
	<g>
		<g>
			<path class="st0" d="M11,17.5H1.4c-0.5,0-0.9-0.4-0.9-0.9V1.4c0-0.5,0.4-0.9,0.9-0.9h8.1v4h4.2V8"/>
			<polygon class="st1" points="13.6,4.5 9.4,4.5 9.5,0.5 			"/>
			<line class="st2" x1="9.5" y1="0.5" x2="13.6" y2="4.5"/>
		</g>
		<line class="st3" x1="3.5" y1="8.5" x2="9.5" y2="8.5"/>
		<line class="st3" x1="3.5" y1="10.5" x2="9.5" y2="10.5"/>
		<line class="st3" x1="3.5" y1="12.5" x2="7.5" y2="12.5"/>
	</g>
	<line class="st0" x1="13.5" y1="18" x2="13.5" y2="11.6"/>
	<path class="st4" d="M10.1,12.6L13.3,9c0.1-0.1,0.3-0.1,0.4,0l3.3,3.6c0.2,0.2,0,0.4-0.2,0.4h-6.5C10,13,9.9,12.7,10.1,12.6z"/>
</g>
<g>
	<g>
		<path class="st0" d="M5,75.5H1.4c-0.5,0-0.9-0.4-0.9-0.9V59.4c0-0.5,0.4-0.9,0.9-0.9h8.1v4h4.2V64"/>
		<polygon class="st1" points="13.6,62.5 9.4,62.5 9.5,58.5 		"/>
		<line class="st2" x1="9.5" y1="58.5" x2="13.6" y2="62.5"/>
	</g>
</g>
<path class="st5" d="M17.5,73L17.5,73c0,1.4-1.1,2.5-2.5,2.5H9c-1.4,0-2.5-1.1-2.5-2.5l0,0c0-1.3,1-2.3,2.2-2.5
	c-0.1-0.3-0.1-0.6-0.1-0.9c0-1.9,1.6-3.5,3.5-3.5s3.5,1.6,3.5,3.5c0,0.3,0,0.6-0.1,0.9C16.6,70.7,17.5,71.8,17.5,73z"/>
<g>
	<g>
		<path class="st2" d="M5,132.5H1.6c-0.6,0-1.1-0.5-1.1-1.1v-13.8c0-0.6,0.5-1.1,1.1-1.1h10.8c0.6,0,1.1,0.5,1.1,1.1v4.4"/>
		<line class="st2" x1="0.5" y1="121.5" x2="13.5" y2="121.5"/>
		<line class="st2" x1="0.5" y1="126.5" x2="6" y2="126.5"/>
		<line class="st2" x1="2" y1="118.5" x2="7" y2="118.5"/>
		<line class="st2" x1="2" y1="123.5" x2="7" y2="123.5"/>
		<line class="st2" x1="2" y1="128.5" x2="5" y2="128.5"/>
	</g>
	<g>
		<path class="st5" d="M17.5,130L17.5,130c0,1.4-1.1,2.5-2.5,2.5H9c-1.4,0-2.5-1.1-2.5-2.5l0,0c0-1.3,1-2.3,2.2-2.5
			c-0.1-0.3-0.1-0.6-0.1-0.9c0-1.9,1.6-3.5,3.5-3.5s3.5,1.6,3.5,3.5c0,0.3,0,0.6-0.1,0.9C16.6,127.7,17.5,128.8,17.5,130z"/>
	</g>
</g>
<g>
	<g>
		<path class="st0" d="M7,190.5H1.4c-0.5,0-0.9-0.4-0.9-0.9v-15.3c0-0.5,0.4-0.9,0.9-0.9h8.1v4h4.2v1.5"/>
		<polygon class="st1" points="13.6,177.5 9.4,177.5 9.5,173.5 		"/>
		<line class="st2" x1="9.5" y1="173.5" x2="13.6" y2="177.5"/>
	</g>
	<path class="st0" d="M8.8,185.3c0.7-1.7,2.3-2.8,4.2-2.8c2.5,0,4.5,2,4.5,4.5s-2,4.5-4.5,4.5c-2.1,0-3.9-1.5-4.4-3.5"/>
	<polyline class="st0" points="12,185.5 8.5,185.5 8.5,182 	"/>
</g>
<g>
	<g>
		<path class="st0" d="M7,249.5H1.4c-0.5,0-0.9-0.4-0.9-0.9v-15.3c0-0.5,0.4-0.9,0.9-0.9h8.1v4h4.2v1.5"/>
		<polygon class="st1" points="13.6,236.5 9.4,236.5 9.5,232.5 		"/>
		<line class="st2" x1="9.5" y1="232.5" x2="13.6" y2="236.5"/>
	</g>
	<circle class="st0" cx="12.5" cy="245.4" r="5"/>
	<g>
		<line class="st0" x1="11" y1="243.9" x2="14" y2="246.9"/>
		<line class="st0" x1="11" y1="246.9" x2="14" y2="243.9"/>
	</g>
</g>
<g>
	<polyline class="st5" points="4.8,307.4 0.4,307.4 0.4,295.5 13.5,295.5 13.5,298.6 	"/>
	<polygon class="st0" points="11.5,292.4 2.4,292.4 0.4,295.5 13.5,295.5 	"/>
	<polyline class="st6" points="5.5,305.5 5.5,297.5 11.5,297.5 11.5,301.3 	"/>
	<line class="st6" x1="8.5" y1="302.4" x2="8.5" y2="297.5"/>
	<circle class="st4" cx="2.9" cy="298" r="1"/>
	<path class="st0" d="M13.5,303.5v-2.6l4.5,3.6l-4.5,3.5v-2.2c0,0-3.3-0.4-7,3.5C6.5,309.3,8.7,302.6,13.5,303.5z"/>
</g>
<path class="st7" d="M11,366.5H1.4c-0.5,0-0.9-0.4-0.9-0.9v-15.3c0-0.5,0.4-0.9,0.9-0.9h8.1v4h4.2v3.5"/>
<polygon class="st8" points="13.6,353.5 9.4,353.5 9.5,349.5 "/>
<line class="st9" x1="9.5" y1="349.5" x2="13.6" y2="353.5"/>
<line class="st10" x1="3.5" y1="357.5" x2="9.5" y2="357.5"/>
<line class="st10" x1="3.5" y1="359.5" x2="9.5" y2="359.5"/>
<line class="st10" x1="3.5" y1="361.5" x2="7.5" y2="361.5"/>
<line class="st7" x1="13.5" y1="367" x2="13.5" y2="360.6"/>
<path class="st11" d="M10.1,361.6l3.3-3.6c0.1-0.1,0.3-0.1,0.4,0l3.3,3.6c0.2,0.2,0,0.4-0.2,0.4h-6.5C10,362,9.9,361.7,10.1,361.6z"
	/>
<g>
	<path class="st7" d="M5,424.5H1.4c-0.5,0-0.9-0.4-0.9-0.9v-15.3c0-0.5,0.4-0.9,0.9-0.9h8.1v4h4.2v1.5"/>
	<polygon class="st8" points="13.6,411.5 9.4,411.5 9.5,407.5 	"/>
	<line class="st9" x1="9.5" y1="407.5" x2="13.6" y2="411.5"/>
	<path class="st12" d="M17.5,422L17.5,422c0,1.4-1.1,2.5-2.5,2.5H9c-1.4,0-2.5-1.1-2.5-2.5l0,0c0-1.3,1-2.3,2.2-2.5
		c-0.1-0.3-0.1-0.6-0.1-0.9c0-1.9,1.6-3.5,3.5-3.5s3.5,1.6,3.5,3.5c0,0.3,0,0.6-0.1,0.9C16.6,419.7,17.5,420.8,17.5,422z"/>
</g>
<g>
	<g>
		<path class="st9" d="M5,481.5H1.6c-0.6,0-1.1-0.5-1.1-1.1v-13.8c0-0.6,0.5-1.1,1.1-1.1h10.8c0.6,0,1.1,0.5,1.1,1.1v4.4"/>
		<line class="st9" x1="0.5" y1="470.5" x2="13.5" y2="470.5"/>
		<line class="st9" x1="0.5" y1="475.5" x2="6" y2="475.5"/>
		<line class="st9" x1="2" y1="467.5" x2="7" y2="467.5"/>
		<line class="st9" x1="2" y1="472.5" x2="7" y2="472.5"/>
		<line class="st9" x1="2" y1="477.5" x2="5" y2="477.5"/>
	</g>
	<g>
		<path class="st12" d="M17.5,479L17.5,479c0,1.4-1.1,2.5-2.5,2.5H9c-1.4,0-2.5-1.1-2.5-2.5l0,0c0-1.3,1-2.3,2.2-2.5
			c-0.1-0.3-0.1-0.6-0.1-0.9c0-1.9,1.6-3.5,3.5-3.5s3.5,1.6,3.5,3.5c0,0.3,0,0.6-0.1,0.9C16.6,476.7,17.5,477.8,17.5,479z"/>
	</g>
</g>
<path class="st7" d="M7,539.5H1.4c-0.5,0-0.9-0.4-0.9-0.9v-15.3c0-0.5,0.4-0.9,0.9-0.9h8.1v4h4.2v1.5"/>
<polygon class="st8" points="13.6,526.5 9.4,526.5 9.5,522.5 "/>
<line class="st9" x1="9.5" y1="522.5" x2="13.6" y2="526.5"/>
<path class="st7" d="M8.8,534.3c0.7-1.7,2.3-2.8,4.2-2.8c2.5,0,4.5,2,4.5,4.5s-2,4.5-4.5,4.5c-2.1,0-3.9-1.5-4.4-3.5"/>
<polyline class="st7" points="12,534.5 8.5,534.5 8.5,531 "/>
<path class="st7" d="M7,598.5H1.4c-0.5,0-0.9-0.4-0.9-0.9v-15.3c0-0.5,0.4-0.9,0.9-0.9h8.1v4h4.2v1.5"/>
<polygon class="st8" points="13.6,585.5 9.4,585.5 9.5,581.5 "/>
<line class="st9" x1="9.5" y1="581.5" x2="13.6" y2="585.5"/>
<circle class="st7" cx="12.5" cy="594.4" r="5"/>
<line class="st7" x1="11" y1="592.9" x2="14" y2="595.9"/>
<line class="st7" x1="11" y1="595.9" x2="14" y2="592.9"/>
<polyline class="st12" points="4.8,656.4 0.4,656.4 0.4,644.5 13.5,644.5 13.5,647.6 "/>
<polygon class="st7" points="11.5,641.4 2.4,641.4 0.4,644.5 13.5,644.5 "/>
<polyline class="st13" points="5.5,654.5 5.5,646.5 11.5,646.5 11.5,650.3 "/>
<line class="st13" x1="8.5" y1="651.4" x2="8.5" y2="646.5"/>
<circle class="st11" cx="2.9" cy="647" r="1"/>
<path class="st7" d="M13.5,652.5v-2.6l4.5,3.6l-4.5,3.5v-2.2c0,0-3.3-0.4-7,3.5C6.5,658.3,8.7,651.6,13.5,652.5z"/>
<g>
	<g>
		<polyline class="st2" points="14.5,699 14.5,711.5 0.5,711.5 0.5,699 		"/>
		<rect x="0.5" y="700" class="st4" width="14.1" height="2"/>
		<rect x="5" y="699" class="st4" width="5" height="2"/>
		<line class="st2" x1="2" y1="698.5" x2="4" y2="698.5"/>
		<line class="st2" x1="11" y1="698.5" x2="13" y2="698.5"/>
	</g>
	<rect x="2" y="703" class="st4" width="3" height="3"/>
	<rect x="6" y="703" class="st4" width="3" height="3"/>
	<rect x="10" y="703" class="st4" width="3" height="3"/>
	<rect x="2" y="707" class="st4" width="3" height="3"/>
	<rect x="6" y="707" class="st4" width="3" height="3"/>
	<rect x="10" y="707" class="st4" width="3" height="3"/>
</g>
<polygon class="st4" points="10.3,752 5.1,757.2 0,752 "/>
<path class="st14" d="M13,806v2.5c0,0.8-0.6,1.4-1.4,1.4H2.4c-0.8,0-1.4-0.6-1.4-1.4V806"/>
<polyline class="st15" points="10.2,802.8 7,806 3.7,802.8 "/>
<line class="st15" x1="7" y1="805.9" x2="7" y2="799"/>
<g>
	<polyline class="st15" points="1,904.3 4,901.3 7,904.3 	"/>
	<line class="st15" x1="4" y1="901.2" x2="4" y2="907.9"/>
</g>
<g>
	<circle class="st16" cx="8.1" cy="958" r="7"/>
	<polyline class="st16" points="4,958.1 6.6,960.5 11.1,956.2 	"/>
</g>
<g>
	<path class="st17" d="M0.1,1019.2l7.6-12.1c0.2-0.3,0.7-0.3,0.9,0l7.6,12.1c0.2,0.3,0,0.8-0.4,0.8H0.5
		C0.1,1020-0.1,1019.6,0.1,1019.2z"/>
	<g>
		<line class="st18" x1="8.6" y1="1010.2" x2="8.6" y2="1014.9"/>
		<line class="st18" x1="8.6" y1="1015.9" x2="8.6" y2="1017.8"/>
	</g>
</g>
<g>
	<path class="st19" d="M97,5v10.1c0,0.5-0.4,0.8-0.9,0.8H85.8c-0.5,0-0.8-0.4-0.8-0.8V1.9c0-0.5,0.4-0.8,0.8-0.8H93L97,5z"/>
	<polygon class="st20" points="98,6 92,6 92,0 	"/>
	<path class="st21" d="M93.1,19H82.8c-0.5,0-0.8-0.4-0.8-0.8V4.9l0,0"/>
</g>
<g>
	<path class="st22" d="M96,73v1.1c0,0.5-0.4,0.8-0.9,0.8H82.8c-0.5,0-0.8-0.4-0.8-0.8V57.9c0-0.5,0.4-0.8,0.8-0.8H92l4,3.9v2.9"/>
	<polygon class="st23" points="97,62 91,62 91,56 	"/>
	<path class="st23" d="M100.4,72H85.5c-0.3,0-0.6-0.3-0.6-0.6v-5.8c0-0.3,0.3-0.6,0.6-0.6h14.9c0.3,0,0.6,0.3,0.6,0.6v5.8
		C101,71.7,100.7,72,100.4,72z"/>
	<g>
		<path class="st24" d="M90.6,69.5c0,0.5-0.2,0.9-0.6,1.2c-0.3,0.3-0.8,0.4-1.3,0.4c-0.4,0-0.7-0.1-1-0.3S87.2,70.4,87,70
			c-0.2-0.3-0.2-0.7-0.2-1.2v-0.5c0-0.5,0.1-0.9,0.2-1.2c0.2-0.3,0.4-0.6,0.7-0.8c0.3-0.2,0.7-0.3,1-0.3c0.5,0,1,0.1,1.3,0.4
			s0.5,0.7,0.6,1.2h-0.8c0-0.3-0.1-0.6-0.3-0.8c-0.2-0.2-0.4-0.2-0.7-0.2c-0.4,0-0.6,0.1-0.8,0.4c-0.2,0.3-0.3,0.7-0.3,1.2v0.4
			c0,0.5,0.1,0.9,0.3,1.2c0.2,0.3,0.5,0.4,0.8,0.4s0.6-0.1,0.7-0.2s0.3-0.4,0.3-0.7h0.8V69.5z"/>
		<path class="st24" d="M93.9,69.8c0-0.2-0.1-0.4-0.2-0.5s-0.4-0.2-0.8-0.3s-0.7-0.2-0.9-0.4c-0.4-0.3-0.7-0.6-0.7-1.1
			c0-0.4,0.2-0.7,0.5-1s0.7-0.4,1.2-0.4c0.3,0,0.6,0.1,0.9,0.2s0.5,0.3,0.6,0.5c0.2,0.2,0.2,0.5,0.2,0.8h-0.8c0-0.3-0.1-0.4-0.2-0.6
			c-0.2-0.1-0.4-0.2-0.7-0.2c-0.3,0-0.5,0.1-0.6,0.2c-0.2,0.1-0.2,0.3-0.2,0.5s0.1,0.3,0.2,0.4s0.4,0.2,0.8,0.3
			c0.4,0.1,0.7,0.2,0.9,0.4c0.2,0.1,0.4,0.3,0.5,0.5s0.2,0.4,0.2,0.6c0,0.4-0.2,0.7-0.5,1C94,71,93.6,71.2,93,71.2
			c-0.3,0-0.7-0.1-1-0.2s-0.5-0.3-0.7-0.5s-0.2-0.5-0.2-0.8H92c0,0.3,0.1,0.5,0.3,0.6c0.2,0.2,0.4,0.2,0.8,0.2
			c0.3,0,0.5-0.1,0.7-0.2C93.8,70.2,93.9,70,93.9,69.8z"/>
		<path class="st24" d="M97.2,70l1.2-3.8h0.9L97.6,71h-0.8l-1.7-4.8H96L97.2,70z"/>
	</g>
</g>
<path class="st25" d="M96,129v1.1c0,0.5-0.4,0.8-0.9,0.8H82.8c-0.5,0-0.8-0.4-0.8-0.8v-16.2c0-0.5,0.4-0.8,0.8-0.8H92l4,3.9v2.9"/>
<polygon class="st26" points="97,118 91,118 91,112.1 "/>
<path class="st26" d="M100.4,128H85.5c-0.3,0-0.6-0.3-0.6-0.6v-5.8c0-0.3,0.3-0.6,0.6-0.6h14.9c0.3,0,0.6,0.3,0.6,0.6v5.8
	C101,127.8,100.7,128,100.4,128z"/>
<g>
	<path class="st24" d="M89.2,123.9l1-1.7h1l-1.5,2.4l1.5,2.4h-1l-1-1.8l-1,1.8h-1l1.5-2.4l-1.5-2.4h1L89.2,123.9z"/>
	<path class="st24" d="M92.6,126.3h2.2v0.7h-3v-4.8h0.8V126.3z"/>
	<path class="st24" d="M98,125.7c0-0.2-0.1-0.4-0.2-0.5s-0.4-0.2-0.8-0.3c-0.4-0.1-0.7-0.2-0.9-0.4c-0.4-0.3-0.7-0.6-0.7-1.1
		c0-0.4,0.2-0.7,0.5-1s0.7-0.4,1.2-0.4c0.3,0,0.6,0.1,0.9,0.2s0.5,0.3,0.6,0.5s0.2,0.5,0.2,0.8H98c0-0.3-0.1-0.4-0.2-0.6
		c-0.2-0.1-0.4-0.2-0.7-0.2c-0.3,0-0.5,0.1-0.6,0.2c-0.2,0.1-0.2,0.3-0.2,0.5s0.1,0.3,0.2,0.4s0.4,0.2,0.8,0.3
		c0.4,0.1,0.7,0.2,0.9,0.4c0.2,0.1,0.4,0.3,0.5,0.5s0.2,0.4,0.2,0.6c0,0.4-0.2,0.7-0.5,1c-0.3,0.2-0.7,0.4-1.3,0.4
		c-0.3,0-0.7-0.1-1-0.2s-0.5-0.3-0.7-0.5s-0.2-0.5-0.2-0.8H96c0,0.3,0.1,0.5,0.3,0.6s0.4,0.2,0.8,0.2c0.3,0,0.5-0.1,0.7-0.2
		C97.9,126,98,125.9,98,125.7z"/>
</g>
<g>
	<path class="st27" d="M97,188v1.1c0,0.5-0.4,0.8-0.9,0.8H83.8c-0.5,0-0.8-0.4-0.8-0.8v-16.2c0-0.5,0.4-0.8,0.8-0.8H93l4,3.9v2.9"/>
	<polygon class="st28" points="98,177 92,177 92,171.1 	"/>
	<path class="st28" d="M101.4,187H86.5c-0.3,0-0.6-0.3-0.6-0.6v-5.8c0-0.3,0.3-0.6,0.6-0.6h14.9c0.3,0,0.6,0.3,0.6,0.6v5.8
		C102,186.8,101.7,187,101.4,187z"/>
	<g>
		<path class="st24" d="M89,184.2v1.8h-0.8v-4.8H90c0.5,0,1,0.1,1.3,0.4c0.3,0.3,0.5,0.6,0.5,1.1s-0.2,0.8-0.5,1.1s-0.7,0.4-1.3,0.4
			H89z M89,183.5h1c0.3,0,0.5-0.1,0.7-0.2c0.2-0.1,0.2-0.3,0.2-0.6s-0.1-0.5-0.2-0.6c-0.2-0.2-0.4-0.2-0.6-0.2h-1L89,183.5L89,183.5
			z"/>
		<path class="st24" d="M92.4,185.9v-4.8h1.4c0.4,0,0.8,0.1,1.1,0.3c0.3,0.2,0.6,0.5,0.8,0.8s0.3,0.7,0.3,1.2v0.2
			c0,0.5-0.1,0.8-0.3,1.2c-0.2,0.3-0.4,0.6-0.8,0.8c-0.3,0.2-0.7,0.3-1.1,0.3H92.4z M93.2,181.8v3.4h0.5c0.4,0,0.8-0.1,1-0.4
			c0.2-0.3,0.4-0.7,0.4-1.2v-0.3c0-0.5-0.1-0.9-0.3-1.2c-0.2-0.3-0.6-0.4-1-0.4L93.2,181.8L93.2,181.8z"/>
		<path class="st24" d="M99.5,183.9h-1.9v2h-0.8v-4.8h3v0.7h-2.2v1.4h1.9V183.9z"/>
	</g>
</g>
<g>
	<path class="st29" d="M97,238.8v6.3c0,0.5-0.4,0.8-0.9,0.8H94v-0.1c0-0.5-0.4-0.9-0.9-0.9h-9.3c-0.5,0-0.8,0.4-0.8,0.9v0.1h-2.2
		c-0.5,0-0.8-0.4-0.8-0.8v-6.3c0-0.5,0.4-0.9,0.8-0.9h15.3C96.6,238,97,238.4,97,238.8z"/>
	<path class="st29" d="M94,238H83v-3.2c0-0.5,0.4-0.9,0.9-0.9h9.3c0.5,0,0.9,0.4,0.9,0.9v3.2H94z"/>
	<path class="st29" d="M94,245.8v3.3c0,0.5-0.4,0.8-0.9,0.8h-9.3c-0.5,0-0.8-0.4-0.8-0.8v-3.3c0-0.5,0.4-0.9,0.8-0.9h9.3
		C93.6,245,94,245.4,94,245.8z"/>
	<line class="st29" x1="89" y1="241.1" x2="95" y2="241.1"/>
</g>
<g>
	<path class="st30" d="M13.7,1070.6H1.4c-0.5,0-0.9-0.4-0.9-0.9v-8.4c0-0.5,0.4-0.9,0.9-0.9h12.3c0.5,0,0.9,0.4,0.9,0.9v8.4
		C14.6,1070.2,14.2,1070.6,13.7,1070.6z"/>
	<line class="st30" x1="3.1" y1="1072.5" x2="12" y2="1072.5"/>
</g>
<g>
	<path class="st30" d="M14.5,1117.3v8.4c0,0.5-0.4,0.9-0.8,0.9H1.4c-0.5,0-0.8-0.4-0.8-0.9v-10.6c0-0.3,0.3-0.6,0.6-0.6h4.7
		c0.5,0,1,0.3,1.2,0.7l0.3,0.5c0.3,0.4,0.7,0.7,1.2,0.7h5.1C14.2,1116.4,14.5,1116.8,14.5,1117.3z"/>
	<g>
		<line class="st30" x1="2.1" y1="1129.5" x2="5" y2="1129.5"/>
		<line class="st30" x1="10.1" y1="1129.5" x2="13" y2="1129.5"/>
	</g>
	<line class="st30" x1="7.5" y1="1126.3" x2="7.5" y2="1128.9"/>
	<rect x="6.5" y="1128.5" class="st30" width="2" height="2"/>
</g>
<g>
	<g>
		<path class="st30" d="M5,1181.6H1.4c-0.5,0-0.9-0.4-0.9-0.9v-8.4c0-0.5,0.4-0.9,0.9-0.9h12.3c0.5,0,0.9,0.4,0.9,0.9v2.8"/>
		<line class="st30" x1="3.1" y1="1183.5" x2="5" y2="1183.5"/>
	</g>
	<rect x="6.5" y="1176.5" class="st30" width="11.9" height="8"/>
	<g>
		<line class="st30" x1="8.5" y1="1178" x2="8.5" y2="1182"/>
		<line class="st30" x1="10.5" y1="1178" x2="10.5" y2="1182"/>
		<line class="st30" x1="9.5" y1="1182" x2="9.5" y2="1183"/>
	</g>
	<line class="st30" x1="12.5" y1="1183" x2="12.5" y2="1178"/>
	<line class="st30" x1="16.5" y1="1183" x2="16.5" y2="1178"/>
	<polyline class="st30" points="12.5,1178.6 14.6,1180.6 16.5,1178.6 	"/>
</g>
<g>
	<path class="st31" d="M0.2,1242l7.3-13.6c0.2-0.4,0.7-0.4,0.9,0l7.3,13.6c0.2,0.4,0,0.9-0.5,0.9H0.7C0.2,1242.9,0,1242.4,0.2,1242z
		"/>
	<g>
		<line class="st18" x1="8" y1="1232.3" x2="8" y2="1237.6"/>
		<line class="st18" x1="8" y1="1238.7" x2="8" y2="1240.8"/>
	</g>
</g>
<g>
	<circle class="st32" cx="8" cy="1297" r="8"/>
	<polyline class="st18" points="4.5,1297.1 7.1,1299.5 11.6,1295.2 	"/>
</g>
<g>
	<polyline class="st33" points="7,855.9 4,858.9 1,855.9 	"/>
	<line class="st33" x1="4" y1="859" x2="4" y2="852.2"/>
</g>
<g>
	<g>
		<circle class="st34" cx="88.5" cy="295.1" r="4.6"/>
		<path class="st34" d="M80,308.2c0-4.7,3.8-8.5,8.5-8.5c0.8,0,1.6,0.1,2.4,0.3"/>
	</g>
	<path class="st35" d="M96,308.5h6.1c-0.5,2.9-3,5.1-6,5.1c-3.3,0-6.1-2.7-6.1-6.1s2.7-6.1,6.1-6.1c3,0,5.5,2.2,6,5.1H96v-1.8
		l-4,2.8l4,2.8V308.5z"/>
	<path class="st24" d="M102.2,307.5c0,0.3,0,0.7-0.1,1H96v1.8l-4-2.8l4-2.8v1.8h6.1C102.2,306.8,102.2,307.2,102.2,307.5z"/>
</g>
<g>
	<g>
		<circle class="st34" cx="88.5" cy="358.1" r="4.6"/>
		<path class="st34" d="M80,371.2c0-4.7,3.8-8.5,8.5-8.5c0.8,0,1.6,0.1,2.4,0.3"/>
	</g>
	<g>
		<path class="st36" d="M102.1,369.5c-0.5-2.9-3-5.1-6-5.1c-3.3,0-6.1,2.7-6.1,6.1c0,3.3,2.7,6.1,6.1,6.1c3,0,5.5-2.2,6-5.1
			c0.1-0.3,0.1-0.7,0.1-1S102.2,369.8,102.1,369.5z"/>
		<g>
			<line class="st37" x1="98.3" y1="372.7" x2="94" y2="368.4"/>
			<line class="st37" x1="94" y1="372.7" x2="98.3" y2="368.4"/>
		</g>
	</g>
</g>
<g>
	<path class="st38" d="M86,430.5h-4.6c-0.8,0-1.4-0.6-1.4-1.4v-10.2c0-0.8,0.6-1.4,1.4-1.4h14.1c0.8,0,1.4,0.6,1.4,1.4v2.7"/>
	<line class="st38" x1="83" y1="433.5" x2="87.9" y2="433.5"/>
	<g>
		<g>
			<g>
				<g>
					<path class="st39" d="M100.3,424.2l-2.2,3c0.8,0.7,1,1.9,0.7,2.9l0,0l-1.9-1.3l-1.6-1.2l-1.4-1c0.7-0.6,1.6-0.7,2.5-0.5
						l2.3-3.2c0.3-0.4,1-0.5,1.4-0.2C100.5,423.2,100.6,423.8,100.3,424.2z"/>
					<path class="st39" d="M98.4,431.1c-0.7,1.9-1.9,4-3.4,4.6c0,0-0.8-0.4-2-1c1.7-1.1,2.4-2.8,2.5-3c-0.7,0.9-3.2,1.8-4.1,2.1
						c-1.9-1.1-3.8-2.4-4.2-3.4c0,0,2.1,0.4,5.9-3l2,1.4l0.7,0.5L98.4,431.1z"/>
				</g>
			</g>
		</g>
	</g>
</g>
<g>
	<path class="st38" d="M86,489.5h-4.6c-0.8,0-1.4-0.6-1.4-1.4v-10.2c0-0.8,0.6-1.4,1.4-1.4h14.1c0.8,0,1.4,0.6,1.4,1.4v2.7"/>
	<line class="st38" x1="83" y1="492.5" x2="87.9" y2="492.5"/>
	<g>
		<g>
			<g>
				<path class="st40" d="M100.3,483.2l-2.2,3c0.8,0.7,1,1.9,0.7,2.9l0,0l-1.9-1.3l-1.6-1.2l-1.4-1c0.7-0.6,1.6-0.7,2.5-0.5l2.3-3.2
					c0.3-0.4,1-0.5,1.4-0.2C100.5,482.2,100.6,482.8,100.3,483.2z"/>
				<path class="st40" d="M98.4,490.1c-0.7,1.9-1.9,4-3.4,4.6c0,0-0.8-0.4-2-1c1.7-1.1,2.4-2.8,2.5-3c-0.7,0.9-3.2,1.8-4.1,2.1
					c-1.9-1.1-3.8-2.4-4.2-3.4c0,0,2.1,0.4,5.9-3l2,1.4l0.7,0.5L98.4,490.1z"/>
			</g>
		</g>
	</g>
	<g>
		<path class="st40" d="M85.2,485.2l1.4-4.4h1.1l-2,5.6h-1l-2-5.6h1.1L85.2,485.2z"/>
		<path class="st40" d="M92.9,480.8l-1.6,4.3l-1.6-4.3h-1.3v5.6h1v-1.9l-0.1-2.5l1.7,4.3h0.7l1.7-4.3l-0.1,2.5v0.2
			c0.3-0.3,0.6-0.6,1-0.8v-3.3h-1.4C92.9,480.6,92.9,480.8,92.9,480.8z"/>
	</g>
</g>
<g>
	<circle class="st34" cx="88.5" cy="539.1" r="4.6"/>
	<path class="st34" d="M80,552.2c0-4.7,3.8-8.5,8.5-8.5c0.8,0,1.6,0.1,2.4,0.3"/>
	<path class="st41" d="M102.1,550.5c-0.5-2.9-3-5.1-6-5.1c-3.3,0-6.1,2.7-6.1,6.1c0,3.3,2.7,6.1,6.1,6.1c3,0,5.5-2.2,6-5.1
		c0.1-0.3,0.1-0.7,0.1-1S102.2,550.8,102.1,550.5z"/>
	<line class="st18" x1="93.2" y1="551.5" x2="99.1" y2="551.5"/>
</g>
<g>
	<g>
		<circle class="st34" cx="88.5" cy="602.1" r="4.6"/>
		<path class="st34" d="M80,615.2c0-4.7,3.8-8.5,8.5-8.5c0.8,0,1.6,0.1,2.4,0.3"/>
	</g>
	<g>
		<path class="st35" d="M96.3,615.5h-6.1c0.5,2.9,3,5.1,6,5.1c3.3,0,6.1-2.7,6.1-6.1c0-3.4-2.7-6.1-6.1-6.1c-3,0-5.5,2.2-6,5.1h6.1
			v-1.8l4,2.8l-4,2.8V615.5z"/>
		<path class="st24" d="M90.1,614.5c0,0.3,0,0.7,0.1,1h6.1v1.8l4-2.8l-4-2.8v1.8h-6.1C90.1,613.8,90.1,614.2,90.1,614.5z"/>
	</g>
</g>
<g>
	<g>
		<g>
			<path class="st40" d="M82.2,663.5l0.1,2l0.8,11.7c0.1,1.3,1.2,2.3,2.4,2.3h4.8c-0.3-0.6-0.5-1.3-0.5-2h-4.3
				c-0.2,0-0.4-0.2-0.4-0.4l-0.8-11.6h10.9l-0.3,4.1c0.6-0.2,1.3-0.3,2-0.3l0.3-3.7l0.1-2L82.2,663.5L82.2,663.5z"/>
		</g>
		<g>
			<path class="st40" d="M98.1,665.5H81c-0.6,0-1-0.4-1-1s0.4-1,1-1h17.1c0.6,0,1,0.4,1,1S98.7,665.5,98.1,665.5z"/>
		</g>
		<g>
			<path class="st40" d="M94,665.5h-7.9V662c0-0.9,0.7-1.6,1.6-1.6h4.7c0.9,0,1.6,0.7,1.6,1.6C94,662,94,665.5,94,665.5z
				 M88.1,663.5H92v-1h-3.9V663.5z"/>
		</g>
		<g>
			<rect x="87.1" y="667.5" class="st40" width="2" height="7.9"/>
		</g>
		<g>
			<path class="st40" d="M93,667.5v3c-0.8,0.5-1.5,1.2-2,2v-5H93z"/>
		</g>
	</g>
	<path class="st36" d="M103.1,675.5c-0.5-2.9-3-5.1-6-5.1c-3.3,0-6.1,2.7-6.1,6.1c0,3.3,2.7,6.1,6.1,6.1c3,0,5.5-2.2,6-5.1
		c0.1-0.3,0.1-0.7,0.1-1S103.2,675.8,103.1,675.5z"/>
	<g>
		<line class="st37" x1="99.3" y1="678.7" x2="95" y2="674.4"/>
		<line class="st37" x1="95" y1="678.7" x2="99.3" y2="674.4"/>
	</g>
</g>
<g>
	<circle class="st34" cx="88.5" cy="727.1" r="4.6"/>
	<path class="st34" d="M80,740.2c0-4.7,3.8-8.5,8.5-8.5c0.8,0,1.6,0.1,2.4,0.3"/>
	<path class="st35" d="M102.1,738.5c-0.5-2.9-3-5.1-6-5.1c-3.3,0-6.1,2.7-6.1,6.1c0,3.3,2.7,6.1,6.1,6.1c3,0,5.5-2.2,6-5.1
		c0.1-0.3,0.1-0.7,0.1-1S102.2,738.8,102.1,738.5z"/>
	<g>
		<line class="st18" x1="92.9" y1="739.5" x2="99.4" y2="739.5"/>
		<line class="st18" x1="96.1" y1="742.8" x2="96.1" y2="736.3"/>
	</g>
</g>
<g>
	<path class="st38" d="M86,799.5h-4.6c-0.8,0-1.4-0.6-1.4-1.4v-10.2c0-0.8,0.6-1.4,1.4-1.4h14.1c0.8,0,1.4,0.6,1.4,1.4v2.7"/>
	<line class="st38" x1="83" y1="802.5" x2="87.9" y2="802.5"/>
	<g>
		<g>
			<g>
				<g>
					<path class="st39" d="M100.3,793.2l-2.2,3c0.8,0.7,1,1.9,0.7,2.9l0,0l-1.9-1.3l-1.6-1.2l-1.4-1c0.7-0.6,1.6-0.7,2.5-0.5
						l2.3-3.2c0.3-0.4,1-0.5,1.4-0.2C100.5,792.2,100.6,792.8,100.3,793.2z"/>
					<path class="st39" d="M98.4,800.1c-0.7,1.9-1.9,4-3.4,4.6c0,0-0.8-0.4-2-1c1.7-1.1,2.4-2.8,2.5-3c-0.7,0.9-3.2,1.8-4.1,2.1
						c-1.9-1.1-3.8-2.4-4.2-3.4c0,0,2.1,0.4,5.9-3l2,1.4l0.7,0.5L98.4,800.1z"/>
				</g>
			</g>
		</g>
	</g>
</g>
<g>
	<circle class="st34" cx="88.5" cy="849.1" r="4.6"/>
	<path class="st34" d="M80,862.2c0-4.7,3.8-8.5,8.5-8.5c0.8,0,1.6,0.1,2.4,0.3"/>
	<path class="st42" d="M102.1,860.5c-0.5-2.9-3-5.1-6-5.1c-3.3,0-6.1,2.7-6.1,6.1c0,3.3,2.7,6.1,6.1,6.1c3,0,5.5-2.2,6-5.1
		c0.1-0.3,0.1-0.7,0.1-1S102.2,860.8,102.1,860.5z"/>
	<g>
		<line class="st18" x1="96.1" y1="865.3" x2="96.1" y2="861"/>
		<line class="st18" x1="96.1" y1="859.7" x2="96.1" y2="857.9"/>
	</g>
</g>
<g>
	<g>
		<g>
			<path class="st40" d="M100,917.7c0,0.3,0.1,0.7,0.1,1s0,0.7-0.1,1h1.1v-2H100z M99.1,914.6h0.6v-2h-2
				C98.2,913.2,98.7,913.8,99.1,914.6z M93.9,910.1L93.9,910.1C93.8,910.1,93.8,910.1,93.9,910.1C93.8,910.1,93.9,910.1,93.9,910.1z
				 M91.3,909.6h0.2C91.4,909.6,91.3,909.6,91.3,909.6L91.3,909.6z M82.4,914.6H83c0,0,0-0.1,0.1-0.1c0.1-0.3,0.3-0.5,0.4-0.7
				c0.3-0.4,0.6-0.8,0.9-1.2h-2V914.6z M81,917.7v2h1.1c0-0.2,0-0.3-0.1-0.5c0-0.2,0-0.3,0-0.5s0-0.3,0-0.5s0-0.3,0.1-0.5
				c0-0.1,0-0.2,0-0.3c0,0.1,0,0.2,0,0.3H81z"/>
		</g>
		<g>
			<path class="st40" d="M96.8,917.7c-0.1-1.1-0.3-2.1-0.6-3.1c-0.2-0.7-0.5-1.4-0.8-2c-0.4-0.9-0.9-1.7-1.5-2.5l0,0c0,0,0,0-0.1,0
				c-0.3-0.1-0.6-0.2-1-0.3c-0.2,0-0.3-0.1-0.4-0.1c-0.2,0-0.3,0-0.5-0.1c-0.1,0-0.3,0-0.5,0c-0.1,0-0.2,0-0.2,0l0,0
				c-0.1,0-0.1,0-0.2,0h-0.1c-0.1,0-0.2,0-0.2,0c0.1,0.1,0.2,0.2,0.3,0.3c0.9,0.8,1.6,1.7,2.2,2.7c0.4,0.6,0.7,1.3,0.9,2
				c0.4,1,0.6,2,0.7,3.1c0,0.3,0,0.7,0,1s0,0.7,0,1h2c0-0.3,0-0.7,0-1C96.8,918.3,96.8,918,96.8,917.7z M88,910.2
				c0.1,0,0.3-0.1,0.4-0.1C88.3,910.1,88.2,910.1,88,910.2L88,910.2z M82.4,914.6H83c0,0,0-0.1,0.1-0.1c0.1-0.3,0.3-0.5,0.4-0.7
				c0.3-0.4,0.6-0.8,0.9-1.2h-2V914.6z M82,917.7h-1v2h1c0-0.2,0-0.3,0-0.5s0-0.3,0-0.5s0-0.3,0-0.5S82,917.8,82,917.7z M80,919.7
				L80,919.7c0-0.1,0-0.2,0-0.3C80,919.4,80,919.6,80,919.7z"/>
			<path class="st40" d="M102.1,918.7c0,0.3,0,0.7-0.1,1h-0.9v-2H100c0-0.3-0.1-0.5-0.1-0.8c0-0.2-0.1-0.5-0.2-0.7
				c0-0.1,0-0.1-0.1-0.2c-0.1-0.3-0.2-0.6-0.3-0.9c0-0.1-0.1-0.2-0.2-0.3c0-0.1-0.1-0.1-0.1-0.2h0.6v-2h-2c-0.5-0.5-1.1-1-1.7-1.4
				c-0.1-0.1-0.2-0.1-0.3-0.2c-0.1-0.1-0.3-0.1-0.4-0.2c-0.1-0.1-0.3-0.2-0.4-0.2c-0.1-0.1-0.2-0.1-0.3-0.2
				c-0.2-0.1-0.5-0.2-0.7-0.3l0,0c0,0,0,0-0.1,0c-0.3-0.1-0.6-0.2-1-0.3c-0.1,0-0.3-0.1-0.4-0.1c-0.2,0-0.3,0-0.5-0.1
				c-0.1,0-0.3,0-0.5,0c-0.1,0-0.2,0-0.2,0l0,0c-0.1,0-0.1,0-0.2,0h-0.1c-0.1,0-0.2,0-0.2,0c-0.1,0-0.3,0-0.4,0c-0.2,0-0.3,0-0.4,0
				c-0.2,0-0.3,0-0.4,0.1c-0.1,0-0.3,0-0.4,0.1c-0.2,0-0.3,0.1-0.5,0.1c-0.1,0-0.3,0.1-0.4,0.1l0,0c-0.1,0-0.2,0.1-0.4,0.1
				c-0.3,0.1-0.5,0.2-0.8,0.4c-0.1,0.1-0.3,0.1-0.4,0.2s-0.3,0.1-0.4,0.2c-0.1,0.1-0.2,0.2-0.4,0.2c-0.1,0.1-0.3,0.2-0.4,0.3
				s-0.2,0.2-0.3,0.2c-0.3,0.2-0.5,0.5-0.8,0.8h-2v2H83c-0.1,0.2-0.2,0.4-0.3,0.7c-0.1,0.3-0.2,0.5-0.3,0.8
				c-0.1,0.2-0.1,0.4-0.1,0.5s0,0.2-0.1,0.3c0,0.2-0.1,0.4-0.1,0.5s0,0.2,0,0.3h-1v2h-1c0-0.1,0-0.2,0-0.3c0-0.2,0-0.4,0-0.7
				c0-0.2,0-0.4,0-0.6c0-0.5,0.1-0.9,0.2-1.3c0-0.1,0-0.1,0-0.2c0-0.2,0.1-0.3,0.1-0.5c0.1-0.2,0.1-0.4,0.2-0.6
				c0.1-0.3,0.2-0.7,0.4-1c0.2-0.5,0.5-1,0.7-1.5c0.2-0.3,0.4-0.5,0.5-0.8c0.1-0.1,0.2-0.3,0.3-0.4c0.1-0.1,0.2-0.3,0.3-0.4
				c0.1-0.1,0.2-0.3,0.4-0.4s0.2-0.3,0.4-0.4c0.1-0.1,0.3-0.2,0.4-0.3s0.3-0.2,0.4-0.3c0.4-0.3,0.8-0.6,1.3-0.9
				c0.2-0.1,0.3-0.2,0.5-0.3c0.1-0.1,0.3-0.1,0.4-0.2c0.2-0.1,0.4-0.2,0.5-0.2c0.2-0.1,0.3-0.1,0.5-0.2c0.2-0.1,0.3-0.1,0.5-0.2
				c0.2,0,0.3-0.1,0.5-0.1s0.4-0.1,0.5-0.1c0.2,0,0.4-0.1,0.5-0.1c0.2,0,0.4,0,0.6-0.1c0.2,0,0.3,0,0.5,0l0,0l0,0c0.1,0,0.2,0,0.2,0
				H91c0.1,0,0.2,0,0.3,0c0.1,0,0.2,0,0.3,0c0.2,0,0.3,0,0.5,0s0.5,0,0.7,0.1c0.1,0,0.3,0.1,0.5,0.1l0,0c0.4,0.1,0.7,0.2,1,0.3l0,0
				c0.2,0.1,0.3,0.1,0.5,0.2c0.2,0,0.3,0.1,0.4,0.2c0.2,0.1,0.4,0.2,0.6,0.3c0.1,0.1,0.3,0.1,0.4,0.2c0.4,0.2,0.8,0.4,1.1,0.7
				c0.1,0.1,0.3,0.2,0.4,0.3s0.3,0.2,0.4,0.3s0.3,0.2,0.4,0.3s0.3,0.2,0.4,0.4c0.2,0.3,0.5,0.5,0.7,0.8c0.1,0.1,0.2,0.3,0.3,0.4
				c0.1,0.1,0.2,0.3,0.3,0.4c0.2,0.3,0.3,0.5,0.5,0.8c0.3,0.5,0.5,1,0.7,1.5c0.1,0.2,0.1,0.3,0.2,0.5c0,0.2,0.1,0.3,0.1,0.5
				c0.1,0.3,0.1,0.5,0.2,0.8c0,0.1,0,0.1,0,0.2c0,0.1,0,0.3,0,0.4C102,917.8,102.1,918.2,102.1,918.7z"/>
		</g>
		<g>
			<path class="st40" d="M100,917.7c0,0.3,0.1,0.7,0.1,1s0,0.7-0.1,1h1.1v-2H100z M99.1,914.6h0.6v-2h-2
				C98.2,913.2,98.7,913.8,99.1,914.6z M90.9,909.6c-0.1,0-0.2,0-0.2,0c-0.1,0-0.3,0-0.4,0c-0.2,0-0.3,0-0.4,0c-0.2,0-0.3,0-0.4,0.1
				c-0.1,0-0.3,0-0.4,0.1c-0.2,0-0.3,0.1-0.5,0.1c-0.1,0-0.3,0.1-0.4,0.1l0,0c-0.6,0.8-1.1,1.6-1.5,2.4c-0.3,0.6-0.6,1.3-0.8,2
				c-0.3,1-0.5,2-0.6,3.1c0,0.3,0,0.7,0,1s0,0.7,0,1h2c0-0.3,0-0.7,0-1s0-0.7,0-1c0.1-1.1,0.3-2.1,0.7-3.1c0.3-0.7,0.6-1.4,0.9-2
				c0.6-1,1.3-1.9,2.2-2.7c0.1-0.1,0.2-0.2,0.3-0.3c-0.1,0-0.1,0-0.2,0h-0.3C90.9,909.4,90.9,909.6,90.9,909.6z"/>
		</g>
		<g>
			<rect x="81" y="917.7" class="st40" width="20.1" height="2"/>
		</g>
		<g>
			<rect x="82.4" y="912.6" class="st40" width="17.3" height="2"/>
		</g>
	</g>
	<path class="st40" d="M80,919.7L80,919.7L80,919.7L80,919.7z"/>
	<path class="st40" d="M82.1,919.7c0,0.1,0,0.2,0,0.3C82.1,919.8,82.1,919.7,82.1,919.7L82.1,919.7z"/>
	<g>
		<path class="st35" d="M80.7,929.5v-8h2.4c0.7,0,1.3,0.2,1.9,0.5c0.5,0.3,1,0.8,1.3,1.3c0.3,0.6,0.4,1.2,0.4,2v0.4
			c0,0.8-0.2,1.4-0.5,2s-0.7,1-1.3,1.3c-0.6,0.3-1.2,0.5-1.9,0.5H80.7z M82.1,922.6v5.7H83c0.7,0,1.3-0.2,1.7-0.7
			c0.4-0.5,0.6-1.1,0.6-2v-0.4c0-0.9-0.2-1.5-0.6-2s-0.9-0.7-1.6-0.7h-1V922.6z"/>
		<path class="st35" d="M94.4,929.5H93l-3.5-5.6v5.6H88v-8h1.4l3.6,5.7v-5.7h1.4V929.5z"/>
		<path class="st35" d="M100.2,927.4c0-0.3-0.1-0.6-0.4-0.8c-0.2-0.2-0.7-0.4-1.3-0.6c-0.6-0.2-1.2-0.4-1.5-0.6
			c-0.7-0.5-1.1-1-1.1-1.8c0-0.6,0.3-1.2,0.8-1.6c0.5-0.4,1.2-0.6,2-0.6c0.6,0,1,0.1,1.5,0.3c0.4,0.2,0.8,0.5,1,0.9s0.4,0.8,0.4,1.3
			h-1.4c0-0.4-0.1-0.7-0.4-1c-0.3-0.2-0.6-0.4-1.1-0.4s-0.8,0.1-1.1,0.3c-0.2,0.2-0.4,0.5-0.4,0.8s0.1,0.5,0.4,0.7s0.7,0.4,1.3,0.6
			c0.6,0.2,1.1,0.4,1.5,0.6c0.4,0.2,0.7,0.5,0.8,0.8c0.2,0.3,0.3,0.7,0.3,1.1c0,0.7-0.3,1.2-0.8,1.6c-0.5,0.4-1.2,0.6-2.1,0.6
			c-0.6,0-1.1-0.1-1.6-0.3s-0.9-0.5-1.1-0.9c-0.3-0.4-0.4-0.8-0.4-1.3H97c0,0.5,0.1,0.8,0.4,1s0.7,0.4,1.3,0.4
			c0.5,0,0.8-0.1,1.1-0.3C100,928,100.2,927.7,100.2,927.4z"/>
	</g>
</g>
<g>
	<g>
		<g>
			<path class="st40" d="M102,980.4c0-0.3-0.1-0.5-0.1-0.8c0-0.1,0-0.2,0-0.2c0-0.2-0.1-0.3-0.1-0.5v-0.1c0-0.2-0.1-0.3-0.1-0.5
				s-0.1-0.3-0.2-0.5s-0.1-0.3-0.2-0.5c-0.2-0.5-0.5-1-0.7-1.4c-0.1-0.2-0.2-0.3-0.3-0.5c-0.5-0.7-1-1.3-1.6-1.9
				c-0.1-0.1-0.2-0.2-0.3-0.3c-0.5-0.4-0.9-0.8-1.5-1.1c-0.1-0.1-0.3-0.2-0.5-0.3c-0.1-0.1-0.3-0.2-0.4-0.2c-0.3-0.2-0.7-0.3-1-0.4
				c-0.2-0.1-0.3-0.1-0.5-0.2c-0.2-0.1-0.3-0.1-0.5-0.2c-0.1,0-0.3-0.1-0.4-0.1c-0.2,0-0.4-0.1-0.6-0.1s-0.4-0.1-0.6-0.1
				c-0.1,0-0.3,0-0.4,0s-0.2,0-0.3,0h-0.1c-0.1,0-0.2,0-0.3,0h-0.1c-0.1,0-0.2,0-0.2,0c-0.1,0-0.2,0-0.3,0c-0.2,0-0.4,0-0.6,0.1
				c-0.1,0-0.3,0-0.4,0s-0.2,0-0.3,0.1c-0.2,0-0.3,0.1-0.5,0.1c-0.4,0.1-0.8,0.2-1.1,0.3c-0.1,0-0.3,0.1-0.4,0.1
				c-2,0.8-3.7,2.1-4.9,3.8c-0.1,0.1-0.2,0.3-0.3,0.4c-0.2,0.3-0.3,0.5-0.5,0.8c-0.1,0.1-0.2,0.3-0.2,0.5c-0.1,0.2-0.2,0.4-0.2,0.5
				c-0.1,0.2-0.1,0.3-0.2,0.5c-0.1,0.3-0.2,0.7-0.3,1.1c0,0.2-0.1,0.3-0.1,0.5c0,0.1,0,0.2,0,0.2c-0.1,0.4-0.1,0.9-0.2,1.3
				c0,0.2,0,0.4,0,0.6c0,0.2,0,0.4,0,0.7c0,0.1,0,0.3,0,0.5c0.2,1.5,0.6,2.9,1.3,4.1c0.1,0.3,0.3,0.5,0.4,0.7c0,0.1,0.1,0.1,0.1,0.2
				c0.1,0.1,0.2,0.3,0.3,0.4c0.2,0.3,0.4,0.6,0.7,0.8c0.2,0.3,0.5,0.5,0.8,0.8c0.2,0.2,0.5,0.4,0.7,0.6c0.2,0.2,0.4,0.3,0.7,0.5
				c1.6,1,3.4,1.7,5.4,1.8c0.2,0,0.5,0,0.7,0h0.3c0.4,0,0.7,0,1.1-0.1c0.2,0,0.4,0,0.5-0.1c-0.2-0.2-0.5-0.4-0.7-0.6
				c-0.4-0.4-0.8-0.8-1.1-1.3H91c-0.1,0-0.2,0-0.3,0c-0.1,0-0.3,0-0.5,0c-0.1,0-0.3,0-0.4,0c-0.6-0.1-1.2-0.2-1.7-0.4l0,0
				c-0.1,0-0.3-0.1-0.4-0.1c-0.3-0.1-0.5-0.2-0.8-0.4c-0.1-0.1-0.3-0.1-0.4-0.2c-0.5-0.3-1-0.6-1.4-1c-0.1-0.1-0.2-0.2-0.3-0.3
				c-0.1-0.1-0.2-0.2-0.3-0.3c-0.1-0.1-0.2-0.2-0.3-0.3l0,0l0,0c-0.3-0.3-0.5-0.6-0.7-1c-0.1-0.1-0.2-0.2-0.2-0.4
				c-0.1-0.1-0.2-0.3-0.2-0.4c-0.1-0.1-0.1-0.2-0.2-0.3c-0.1-0.2-0.1-0.3-0.2-0.5c-0.1-0.3-0.2-0.5-0.3-0.8c0-0.2-0.1-0.3-0.1-0.5
				c0-0.1-0.1-0.3-0.1-0.4c0-0.2-0.1-0.3-0.1-0.5c0-0.1,0-0.2,0-0.3c0-0.2,0-0.3,0-0.5s0-0.3,0-0.5s0-0.3,0-0.5s0-0.3,0-0.5
				c0-0.1,0-0.2,0-0.3c0-0.2,0-0.3,0.1-0.5c0-0.1,0-0.3,0.1-0.4c0.1-0.3,0.2-0.6,0.3-0.9c0-0.1,0.1-0.3,0.1-0.4
				c0.1-0.2,0.2-0.5,0.3-0.7l0,0V977c0.1-0.2,0.3-0.5,0.4-0.7c0.2-0.3,0.3-0.5,0.5-0.7c0.1-0.1,0.2-0.2,0.3-0.3l0.1-0.1l0,0
				c0,0,0.1-0.1,0.1-0.2c0.1-0.1,0.2-0.2,0.3-0.3c0.2-0.2,0.4-0.4,0.6-0.5s0.3-0.2,0.5-0.3s0.4-0.3,0.6-0.4c0.1-0.1,0.3-0.1,0.4-0.2
				c0.1-0.1,0.2-0.1,0.3-0.2c0.2-0.1,0.3-0.1,0.5-0.2c0.1-0.1,0.2-0.1,0.3-0.1c0.2,0,0.3-0.1,0.5-0.1c0.1,0,0.3-0.1,0.4-0.1
				s0.2,0,0.3-0.1c0.1,0,0.2-0.1,0.3-0.1c0.1,0,0.2,0,0.3,0c0.1,0,0.2,0,0.3,0c0.1,0,0.2,0,0.3,0c0.1,0,0.2,0,0.2,0
				c0.1,0,0.2,0,0.2,0H91c0.1,0,0.2,0,0.2,0c0.1,0,0.2,0,0.2,0c0.2,0,0.3,0,0.5,0c0.1,0,0.2,0,0.3,0c0.1,0,0.2,0,0.3,0.1
				c0.1,0,0.3,0,0.4,0.1c0.3,0.1,0.6,0.1,0.8,0.2l0,0c0.1,0,0.2,0,0.2,0.1c0.3,0.1,0.5,0.2,0.8,0.3c0.1,0.1,0.3,0.1,0.4,0.2
				c0.1,0.1,0.3,0.1,0.4,0.2c0.6,0.4,1.2,0.8,1.7,1.3c0.1,0.1,0.2,0.2,0.3,0.3l0,0l0,0c0.2,0.2,0.4,0.4,0.5,0.7
				c0.3,0.4,0.6,0.8,0.8,1.3c0.2,0.5,0.4,0.9,0.6,1.4c0,0.1,0,0.2,0.1,0.2c0,0.1,0,0.1,0.1,0.2c0.8,0.3,1.6,0.7,2.2,1.2
				C102,980.5,102,980.4,102,980.4z"/>
		</g>
		<g>
			<path class="st40" d="M96.2,977.5c-0.2-0.7-0.5-1.4-0.8-2c-0.4-0.9-0.9-1.7-1.5-2.5l0,0l0,0c-0.6-0.8-1.3-1.5-2.1-2.2
				c-0.1-0.1-0.2-0.2-0.3-0.2h-0.1c-0.1,0-0.2,0-0.3,0H91c-0.1,0-0.2,0-0.2,0c-0.1,0-0.2,0-0.3,0c-0.2,0-0.4,0-0.6,0.1
				c-0.1,0-0.3,0-0.4,0s-0.2,0-0.3,0.1c-0.2,0-0.3,0.1-0.5,0.1c-0.4,0.1-0.8,0.2-1.1,0.3c-0.1,0-0.3,0.1-0.4,0.1
				c-2,0.8-3.7,2.1-4.9,3.8c-0.1,0.1-0.2,0.3-0.3,0.4c-0.2,0.3-0.3,0.5-0.5,0.8c-0.1,0.1-0.2,0.3-0.2,0.5c-0.1,0.2-0.2,0.4-0.2,0.5
				c-0.1,0.2-0.1,0.3-0.2,0.5c-0.1,0.3-0.2,0.7-0.3,1.1c0,0.2-0.1,0.3-0.1,0.5c0,0.1,0,0.2,0,0.2c-0.1,0.4-0.1,0.9-0.2,1.3
				c0,0.2,0,0.4,0,0.6c0,0.2,0,0.4,0,0.7c0,0.1,0,0.3,0,0.5c0.2,1.5,0.6,2.9,1.3,4.1c0.1,0.3,0.3,0.5,0.4,0.7c0,0.1,0.1,0.1,0.1,0.2
				c0.1,0.1,0.2,0.3,0.3,0.4c0.2,0.3,0.4,0.6,0.7,0.8c0.2,0.3,0.5,0.5,0.8,0.8c0.2,0.2,0.5,0.4,0.7,0.6c0.2,0.2,0.4,0.3,0.7,0.5
				c1.6,1.1,3.4,1.7,5.4,1.8l0,0h0.9h0.1l0,0l0,0l0,0l0.3-0.2l0.1-0.1c0.2-0.1,0.4-0.3,0.5-0.5c-0.4-0.4-0.8-0.8-1.1-1.3h0.1
				c-0.1-0.1-0.2-0.2-0.3-0.3l0,0c-0.1,0.1-0.2,0.2-0.3,0.3c-0.1,0-0.3,0-0.5,0c-0.1,0-0.3,0-0.4,0c-0.6-0.1-1.2-0.2-1.7-0.4l0,0
				c-0.1,0-0.3-0.1-0.4-0.1c-0.3-0.1-0.5-0.2-0.8-0.4c-0.1-0.1-0.3-0.1-0.4-0.2c-0.5-0.3-1-0.6-1.4-1c-0.1-0.1-0.2-0.2-0.3-0.3
				c-0.1-0.1-0.2-0.2-0.3-0.3c-0.1-0.1-0.2-0.2-0.3-0.3l0,0l0,0c-0.3-0.3-0.5-0.6-0.7-1c-0.1-0.1-0.1-0.2-0.2-0.4
				c-0.1-0.1-0.2-0.3-0.2-0.4c-0.1-0.1-0.1-0.2-0.2-0.3c-0.1-0.2-0.1-0.3-0.2-0.5c-0.1-0.3-0.2-0.5-0.3-0.8c0-0.2-0.1-0.3-0.1-0.5
				c0-0.1-0.1-0.3-0.1-0.4c0-0.2-0.1-0.3-0.1-0.5c0-0.1,0-0.2,0-0.3c0-0.2,0-0.3,0-0.5s0-0.3,0-0.5s0-0.3,0-0.5s0-0.3,0-0.5
				c0-0.1,0-0.2,0-0.3c0-0.2,0-0.3,0.1-0.5c0-0.1,0-0.3,0.1-0.4c0.1-0.3,0.2-0.6,0.3-0.9c0-0.1,0.1-0.3,0.1-0.4
				c0.1-0.2,0.2-0.5,0.3-0.7l0,0v-0.1c0.1-0.2,0.3-0.5,0.4-0.7c0.2-0.3,0.3-0.5,0.5-0.7c0.1-0.1,0.2-0.2,0.3-0.3l0.1-0.1
				c0,0,0.1-0.1,0.1-0.2c0.1-0.1,0.2-0.2,0.3-0.3c0.2-0.2,0.4-0.4,0.6-0.5s0.3-0.2,0.5-0.3s0.4-0.3,0.6-0.4c0.1-0.1,0.3-0.1,0.4-0.2
				c0.1-0.1,0.2-0.1,0.3-0.2c0.2-0.1,0.3-0.1,0.5-0.2c0.1-0.1,0.2-0.1,0.3-0.1c0.2,0,0.3-0.1,0.5-0.1c0.1,0,0.3-0.1,0.4-0.1
				s0.2,0,0.3-0.1c0.1,0,0.2,0,0.3-0.1c0.1,0,0.2,0,0.3,0c0.1,0,0.2,0,0.3,0c0.1,0,0.2,0,0.3,0c0.1,0,0.1,0,0.2,0l0,0
				c0.1,0.1,0.2,0.2,0.3,0.3c0.9,0.8,1.6,1.7,2.2,2.7c0.4,0.6,0.7,1.3,1,2c0.2,0.6,0.4,1.3,0.5,2c0.6-0.3,1.3-0.4,2-0.5
				C96.5,978.5,96.4,978,96.2,977.5z"/>
		</g>
		<g>
			<path class="st40" d="M102,980.4c0-0.3-0.1-0.5-0.1-0.8c0-0.1,0-0.2,0-0.2c0-0.2-0.1-0.3-0.1-0.5v-0.1c0-0.2-0.1-0.3-0.1-0.5
				s-0.1-0.3-0.2-0.5s-0.1-0.3-0.2-0.5c-0.2-0.5-0.5-1-0.7-1.4c-0.1-0.2-0.2-0.3-0.3-0.5c-0.5-0.7-1-1.3-1.6-1.9
				c-0.1-0.1-0.2-0.2-0.3-0.3c-0.5-0.4-0.9-0.8-1.5-1.1c-0.1-0.1-0.3-0.2-0.5-0.3c-0.1-0.1-0.3-0.2-0.4-0.2c-0.3-0.2-0.7-0.3-1-0.4
				c-0.2-0.1-0.3-0.1-0.5-0.2c-0.2-0.1-0.3-0.1-0.5-0.2c-0.1,0-0.3-0.1-0.4-0.1c-0.2,0-0.4-0.1-0.6-0.1s-0.4-0.1-0.6-0.1
				c-0.1,0-0.3,0-0.4,0s-0.2,0-0.3,0h-0.1l0,0c-0.1,0-0.2,0-0.3,0h-0.1c-0.1,0-0.2,0-0.2,0l-0.3,0.1l-0.1,0.1
				c-0.8,0.7-1.5,1.4-2.2,2.2c-0.6,0.8-1.1,1.6-1.5,2.4c-0.3,0.6-0.6,1.3-0.8,2c-0.3,1-0.5,2-0.6,3.1c0,0.3,0,0.7,0,1s0,0.7,0,1
				c0.1,1,0.2,2,0.5,2.9c0.2,0.7,0.5,1.4,0.8,2c0.4,0.9,1,1.8,1.6,2.6l0,0c0.6,0.8,1.3,1.5,2.1,2.1l0.2,0.3l0,0l0,0h0.9h0.1l0,0l0,0
				l0,0c0.4,0,0.7,0,1.1-0.1c0.2,0,0.4,0,0.5-0.1c-0.2-0.2-0.5-0.4-0.7-0.6c-0.4-0.4-0.8-0.8-1.1-1.3h0.1c-0.1-0.1-0.2-0.2-0.3-0.3
				l0,0l0,0c-0.9-0.8-1.7-1.8-2.3-2.8c-0.4-0.6-0.7-1.3-0.9-2c-0.3-0.9-0.5-1.9-0.6-2.9c0-0.3,0-0.7,0-1s0-0.7,0-1
				c0.1-1.1,0.3-2.1,0.7-3.1c0.3-0.7,0.6-1.4,1-2c0.6-1,1.3-1.9,2.2-2.7c0.1-0.1,0.2-0.2,0.3-0.3l0,0c0.1,0,0.1,0,0.2,0
				c0.2,0,0.3,0,0.5,0c0.1,0,0.2,0,0.3,0c0.1,0,0.2,0,0.3,0.1c0.1,0,0.3,0,0.4,0.1c0.3,0.1,0.6,0.1,0.8,0.2l0,0
				c0.1,0,0.2,0.1,0.2,0.1c0.3,0.1,0.5,0.2,0.8,0.3c0.1,0.1,0.3,0.1,0.4,0.2c0.1,0.1,0.3,0.1,0.4,0.2c0.6,0.4,1.2,0.8,1.7,1.3
				c0.1,0.1,0.2,0.2,0.3,0.3l0,0l0,0c0.2,0.2,0.4,0.4,0.5,0.7c0.3,0.4,0.6,0.8,0.8,1.3c0.2,0.5,0.4,0.9,0.6,1.4c0,0.1,0,0.2,0.1,0.2
				c0,0.1,0,0.1,0,0.2l0,0c0.8,0.3,1.6,0.7,2.2,1.2C102,980.5,102,980.4,102,980.4z"/>
		</g>
		<g>
			<path class="st40" d="M92.7,980.6c-0.7,0.5-1.3,1.2-1.7,2H81v-2H92.7z"/>
		</g>
		<g>
			<rect x="82.4" y="975.5" class="st40" width="17.3" height="2"/>
		</g>
		<g>
			<path class="st40" d="M90,987.5h-7.6v-2H90c0,0.3-0.1,0.6-0.1,0.9C89.9,986.8,89.9,987.1,90,987.5z"/>
		</g>
	</g>
	<path class="st40" d="M91.3,990.6L91.3,990.6c-0.2-0.1-0.2-0.2-0.3-0.3C91.1,990.4,91.2,990.5,91.3,990.6z"/>
	<g>
		<g>
			<path class="st43" d="M101.9,986.8c0-0.2,0-0.5,0-0.7c0-0.1,0.1-0.2,0.1-0.3l1.1-0.9c0.1-0.1,0.1-0.2,0.1-0.4l-0.3-0.7
				c-0.1-0.2-0.2-0.3-0.4-0.3l-1.3,0.1c-0.1,0-0.2-0.1-0.2-0.1c-0.2-0.2-0.3-0.4-0.5-0.5c-0.1-0.1-0.1-0.2-0.1-0.3l0.1-1.3
				c0-0.2-0.1-0.4-0.3-0.5l-0.7-0.3c-0.1,0-0.1,0-0.2,0s-0.3,0.1-0.4,0.2l-0.9,1.1h-0.6h-0.5l-0.9-1.1c-0.1-0.1-0.2-0.2-0.4-0.2
				c-0.1,0-0.1,0-0.2,0l-0.7,0.2c-0.2,0.1-0.3,0.3-0.3,0.5l0.1,1.3c0,0.1-0.1,0.2-0.1,0.3c-0.2,0.2-0.4,0.4-0.6,0.6
				c-0.1,0.1-0.2,0.1-0.2,0.1l-1.3-0.1c-0.2,0-0.4,0.1-0.4,0.3l-0.3,0.7c-0.1,0.2,0,0.4,0.1,0.6l0.9,0.8c0.1,0.1,0.1,0.2,0.1,0.3
				c0,0.2,0,0.6,0,0.8c0,0.1,0,0.2-0.1,0.3l-0.9,0.7c-0.2,0.1-0.2,0.4-0.1,0.6l0.2,0.7c0.1,0.2,0.2,0.3,0.4,0.3l1.2-0.1
				c0.1,0,0.2,0.1,0.3,0.1c0.2,0.2,0.4,0.4,0.6,0.6c0.1,0.1,0.1,0.2,0.1,0.3l-0.1,1.2c0,0.2,0.1,0.4,0.3,0.5l0.7,0.3
				c0.1,0,0.1,0,0.2,0s0.2-0.1,0.4-0.2l0.8-0.9c0.1-0.1,0.2-0.1,0.2-0.1c0.2,0,0.3,0,0.5,0s0.4,0,0.6,0l0.9,1.1
				c0.1,0.1,0.2,0.2,0.4,0.2c0.1,0,0.1,0,0.2,0l0.7-0.2c0.2-0.1,0.3-0.3,0.3-0.5l-0.1-1.2c0-0.1,0.1-0.2,0.1-0.3
				c0.2-0.2,0.4-0.4,0.6-0.6c0.1-0.1,0.2-0.1,0.3-0.1l1.2,0.1c0.2,0,0.4-0.1,0.4-0.3l0.3-0.7c0.1-0.2,0.1-0.4-0.1-0.6l-1-0.8
				C102,987,101.9,986.9,101.9,986.8z M97.5,988.4L97.5,988.4c-0.8,0-1.6-0.4-1.9-1.2c-0.6-1.6,0.7-3,2.3-2.7
				c0.7,0.2,1.3,0.8,1.5,1.6C99.6,987.3,98.7,988.4,97.5,988.4z"/>
		</g>
	</g>
</g>
<g>
	<g>
		<g>
			<g>
				<g>
					<path class="st40" d="M95.1,1033.4H81.8c-1,0-1.8,0.8-1.8,1.8v16.3c0,1,0.8,1.8,1.8,1.8H86v-2h-4v-16h13v9h2v-9.2
						C97,1034.3,96.2,1033.4,95.1,1033.4z"/>
				</g>
				<g>
					<rect x="81.2" y="1039.5" class="st40" width="15" height="2"/>
				</g>
				<g>
					<rect x="81.2" y="1045.5" class="st40" width="5" height="2"/>
				</g>
			</g>
			<g>
				<path class="st40" d="M88.1,1038.5h-3c-0.6,0-1-0.4-1-1s0.4-1,1-1h3c0.6,0,1,0.4,1,1S88.6,1038.5,88.1,1038.5z"/>
			</g>
			<g>
				<path class="st40" d="M89.1,1043.5c0,0.6-0.5,1-1,1h-3c-0.5,0-1-0.4-1-1c0-0.5,0.5-1,1-1h3C88.6,1042.5,89.1,1042.9,89.1,1043.5
					z"/>
			</g>
			<g>
				<path class="st40" d="M86.1,1048.5v2H85c-0.5,0-1-0.4-1-1c0-0.5,0.5-1,1-1H86.1z"/>
			</g>
		</g>
		<rect x="86" y="1045.5" class="st40" width="0.1" height="2"/>
		<rect x="86" y="1048.5" class="st40" width="0.1" height="2"/>
		<path class="st44" d="M101.6,1054.5h-13c-0.3,0-0.6-0.3-0.6-0.6v-6.8c0-0.3,0.3-0.6,0.6-0.6h13c0.3,0,0.6,0.3,0.6,0.6v6.8
			C102.2,1054.2,101.9,1054.5,101.6,1054.5z"/>
	</g>
	<circle class="st35" cx="92" cy="1050.5" r="1"/>
	<circle class="st35" cx="95" cy="1050.5" r="1"/>
	<circle class="st35" cx="98" cy="1050.5" r="1"/>
</g>
<g>
	<g>
		<g>
			<path class="st43" d="M102.1,1115.3c0-0.2,0-0.5,0-0.7c0-0.1,0.1-0.2,0.1-0.3l1.1-0.9c0.1-0.1,0.1-0.2,0.1-0.4l-0.3-0.7
				c-0.1-0.2-0.2-0.3-0.4-0.3l-1.2,0.1c-0.1,0-0.2-0.1-0.2-0.1c-0.2-0.2-0.3-0.4-0.5-0.5c-0.1-0.1-0.1-0.2-0.1-0.3l0.1-1.2
				c0-0.2-0.1-0.4-0.3-0.5l-0.7-0.3c-0.1,0-0.1,0-0.2,0s-0.3,0.1-0.4,0.2l-0.9,1.1h-0.6h-0.5l-0.9-1.1c-0.1-0.1-0.2-0.2-0.4-0.2
				c-0.1,0-0.1,0-0.2,0l-0.6,0.2c-0.2,0.1-0.3,0.3-0.3,0.5l0.1,1.2c0,0.1-0.1,0.2-0.1,0.3c-0.2,0.2-0.4,0.4-0.5,0.5
				s-0.2,0.1-0.2,0.1l-1.2-0.1c-0.2,0-0.4,0.1-0.4,0.3l-0.3,0.6c-0.1,0.2,0,0.4,0.1,0.5l0.9,0.8c0.1,0.1,0.1,0.2,0.1,0.3
				c0,0.2,0,0.5,0,0.8c0,0.1,0,0.2-0.1,0.3l-0.9,0.7c-0.2,0.1-0.2,0.4-0.1,0.5l0.2,0.6c0.1,0.2,0.2,0.3,0.4,0.3l1.1-0.1
				c0.1,0,0.2,0.1,0.3,0.1c0.2,0.2,0.4,0.4,0.6,0.6c0.1,0.1,0.1,0.2,0.1,0.3l-0.1,1.1c0,0.2,0.1,0.4,0.3,0.5l0.6,0.3
				c0.1,0,0.1,0,0.2,0s0.2-0.1,0.4-0.2l0.8-0.9c0.1-0.1,0.2-0.1,0.2-0.1c0.2,0,0.3,0,0.5,0s0.4,0,0.5,0l0.8,1
				c0.1,0.1,0.2,0.2,0.4,0.2c0.1,0,0.1,0,0.2,0l0.6-0.2c0.2-0.1,0.3-0.3,0.3-0.5l-0.1-1.2c0-0.1,0.1-0.2,0.1-0.3
				c0.2-0.2,0.4-0.4,0.5-0.5s0.2-0.1,0.3-0.1l1.2,0.1c0.2,0,0.4-0.1,0.4-0.3l0.3-0.6c0.1-0.2,0.1-0.4-0.1-0.6l-0.9-0.8
				C102.2,1115.5,102.1,1115.4,102.1,1115.3z M97.9,1116.8L97.9,1116.8c-0.8,0-1.5-0.4-1.8-1.1c-0.6-1.5,0.7-2.9,2.2-2.5
				c0.7,0.2,1.2,0.8,1.4,1.5C99.9,1115.8,99,1116.8,97.9,1116.8z"/>
		</g>
	</g>
	<path class="st38" d="M90.1,1117.4c-5.6,0-10.1-4.5-10.1-10.1s4.5-10.1,10.1-10.1s10.1,4.5,10.1,10.1"/>
	<polyline class="st45" points="90.1,1102.2 90.1,1107.2 94.2,1107.2 	"/>
</g>
<g>
	<path class="st46" d="M100.7,1173.3c0.8,0.9,1.2,2,1.2,3.3c0,2.7-2.2,4.9-4.9,4.9s-4.9-2.2-4.9-4.9c0-1.3,0.5-2.5,1.3-3.3"/>
	<g>
		<g>
			<path class="st40" d="M95.1,1161.4H81.8c-1,0-1.8,0.8-1.8,1.8v16.3c0,1,0.8,1.8,1.8,1.8l9.3-0.2l-1.2-1.8h-8v-16h13v6h2v-6.2
				C97,1162.3,96.2,1161.4,95.1,1161.4z"/>
		</g>
		<g>
			<rect x="81.2" y="1167.5" class="st40" width="15" height="2"/>
		</g>
		<g>
			<rect x="81.2" y="1173.5" class="st40" width="7.8" height="2"/>
		</g>
	</g>
	<line class="st46" x1="97.1" y1="1176.2" x2="97.1" y2="1171.4"/>
	<circle class="st40" cx="85" cy="1165.4" r="1"/>
	<circle class="st40" cx="88.1" cy="1165.4" r="1"/>
	<circle class="st40" cx="85" cy="1171.4" r="1"/>
	<circle class="st40" cx="88.1" cy="1171.4" r="1"/>
	<circle class="st40" cx="85" cy="1177.4" r="1"/>
	<circle class="st40" cx="88.1" cy="1177.4" r="1"/>
</g>
<g>
	<circle class="st16" cx="169.3" cy="10.3" r="9"/>
	<polyline class="st16" points="173.5,7.6 168.6,12.5 165.6,9.5 	"/>
</g>
<g>
	<circle class="st47" cx="169.8" cy="59.4" r="9"/>
	<g>
		<line class="st47" x1="169.8" y1="54.8" x2="169.8" y2="61.1"/>
		<line class="st47" x1="169.8" y1="62.2" x2="169.8" y2="64"/>
	</g>
</g>
<g>
	<circle class="st48" cx="169.6" cy="108.4" r="9"/>
	<g>
		<line class="st48" x1="169.6" y1="103.8" x2="169.6" y2="110.2"/>
		<line class="st48" x1="169.6" y1="111.2" x2="169.6" y2="113.1"/>
	</g>
</g>
<g>
	<circle class="st47" cx="169.3" cy="157.5" r="9"/>
	<g>
		<line class="st47" x1="172.8" y1="154" x2="165.8" y2="161"/>
		<line class="st47" x1="165.8" y1="154" x2="172.8" y2="161"/>
	</g>
</g>
<g>
	<circle class="st47" cx="169.3" cy="206.6" r="9"/>
	<g>
		<line class="st47" x1="176" y1="200.3" x2="162.6" y2="213.8"/>
	</g>
</g>
<g>
	<g>
		<circle class="st49" cx="169.8" cy="259.4" r="9"/>
		<g>
			<line class="st49" x1="169.8" y1="264" x2="169.8" y2="257.7"/>
			<line class="st49" x1="169.8" y1="256.6" x2="169.8" y2="254.8"/>
		</g>
	</g>
</g>
<path class="st50" d="M394.7,249"/>
<g>
	<circle class="st50" cx="169.8" cy="311.4" r="9"/>
	<g>
		<path class="st50" d="M172.7,315.4c0,0-2.7-6.2-2.9-6.5c-0.3-0.3-0.5-1.2-1.9-1.1"/>
		<line class="st50" x1="170.3" y1="310.4" x2="167.4" y2="315.4"/>
	</g>
</g>
<g>
	<g>
		<g>
			<polyline class="st51" points="167.2,364.2 171.1,368.1 167.2,372.1 			"/>
			<line class="st51" x1="170.8" y1="372.1" x2="175.3" y2="372.1"/>
		</g>
		<circle class="st51" cx="169.8" cy="368.4" r="9"/>
	</g>
</g>
<g>
	<g>
		<path class="st40" d="M166.4,981.5c0-0.3-0.1-0.5-0.1-0.8c0-0.1,0-0.2,0-0.2c0-0.2-0.1-0.3-0.1-0.5v-0.1c0-0.2-0.1-0.3-0.1-0.5
			s-0.1-0.3-0.2-0.5c-0.1-0.2-0.1-0.3-0.2-0.5c-0.2-0.5-0.5-1-0.7-1.4c-0.1-0.2-0.2-0.3-0.3-0.5c-0.5-0.7-1-1.3-1.6-1.9
			c-0.1-0.1-0.2-0.2-0.3-0.3c-0.5-0.4-0.9-0.8-1.5-1.1c-0.1-0.1-0.3-0.2-0.5-0.3c-0.1-0.1-0.3-0.2-0.4-0.2c-0.3-0.2-0.7-0.3-1-0.4
			c-0.2-0.1-0.3-0.1-0.5-0.2c-0.2-0.1-0.3-0.1-0.5-0.2c-0.1,0-0.3-0.1-0.4-0.1c-0.2,0-0.4-0.1-0.6-0.1s-0.4-0.1-0.6-0.1
			c-0.1,0-0.3,0-0.4,0c-0.1,0-0.2,0-0.3,0H156c-0.1,0-0.2,0-0.3,0h-0.1c-0.1,0-0.2,0-0.2,0c-0.1,0-0.2,0-0.3,0c-0.2,0-0.4,0-0.6,0.1
			c-0.1,0-0.3,0-0.4,0c-0.1,0-0.2,0-0.3,0.1c-0.2,0-0.3,0.1-0.5,0.1c-0.4,0.1-0.8,0.2-1.1,0.3c-0.1,0-0.3,0.1-0.4,0.1
			c-2,0.8-3.7,2.1-4.9,3.8c-0.1,0.1-0.2,0.3-0.3,0.4c-0.2,0.3-0.3,0.5-0.5,0.8c-0.1,0.1-0.2,0.3-0.2,0.5c-0.1,0.2-0.2,0.4-0.2,0.5
			c-0.1,0.2-0.1,0.3-0.2,0.5c-0.1,0.3-0.2,0.7-0.3,1.1c0,0.2-0.1,0.3-0.1,0.5c0,0.1,0,0.2,0,0.2c-0.1,0.4-0.1,0.9-0.2,1.3
			c0,0.2,0,0.4,0,0.6c0,0.2,0,0.4,0,0.7c0,0.1,0,0.3,0,0.5c0.2,1.5,0.6,2.9,1.3,4.1c0.1,0.3,0.3,0.5,0.4,0.7c0,0.1,0.1,0.1,0.1,0.2
			c0.1,0.1,0.2,0.3,0.3,0.4c0.2,0.3,0.4,0.6,0.7,0.8c0.2,0.3,0.5,0.5,0.8,0.8c0.2,0.2,0.5,0.4,0.7,0.6c0.2,0.2,0.4,0.3,0.7,0.5
			c1.6,1,3.4,1.7,5.4,1.8c0.2,0,0.5,0,0.7,0h0.3c0.4,0,0.7,0,1.1-0.1c0.2,0,0.4,0,0.5-0.1c-0.2-0.2-0.5-0.4-0.7-0.6
			c-0.4-0.4-0.8-0.8-1.1-1.3h-0.7c-0.1,0-0.2,0-0.3,0s-0.3,0-0.5,0c-0.1,0-0.3,0-0.4,0c-0.6-0.1-1.2-0.2-1.7-0.4l0,0
			c-0.1,0-0.3-0.1-0.4-0.1c-0.3-0.1-0.5-0.2-0.8-0.4c-0.1-0.1-0.3-0.1-0.4-0.2c-0.5-0.3-1-0.6-1.4-1c-0.1-0.1-0.2-0.2-0.3-0.3
			s-0.2-0.2-0.3-0.3s-0.2-0.2-0.3-0.3l0,0l0,0c-0.3-0.3-0.5-0.6-0.7-1c-0.1-0.1-0.2-0.2-0.2-0.4c-0.1-0.1-0.2-0.3-0.2-0.4
			c-0.1-0.1-0.1-0.2-0.2-0.3c-0.1-0.2-0.1-0.3-0.2-0.5c-0.1-0.3-0.2-0.5-0.3-0.8c0-0.2-0.1-0.3-0.1-0.5c0-0.1-0.1-0.3-0.1-0.4
			c0-0.2-0.1-0.3-0.1-0.5c0-0.1,0-0.2,0-0.3c0-0.2,0-0.3,0-0.5s0-0.3,0-0.5s0-0.3,0-0.5s0-0.3,0-0.5c0-0.1,0-0.2,0-0.3
			c0-0.2,0-0.3,0.1-0.5c0-0.1,0-0.3,0.1-0.4c0.1-0.3,0.2-0.6,0.3-0.9c0-0.1,0.1-0.3,0.1-0.4c0.1-0.2,0.2-0.5,0.3-0.7l0,0v-0.1
			c0.1-0.2,0.3-0.5,0.4-0.7c0.2-0.3,0.3-0.5,0.5-0.7c0.1-0.1,0.2-0.2,0.3-0.3l0.1-0.1l0,0c0,0,0.1-0.1,0.1-0.2
			c0.1-0.1,0.2-0.2,0.3-0.3c0.2-0.2,0.4-0.4,0.6-0.5s0.3-0.2,0.5-0.3s0.4-0.3,0.6-0.4c0.1-0.1,0.3-0.1,0.4-0.2
			c0.1-0.1,0.2-0.1,0.3-0.2c0.2-0.1,0.3-0.1,0.5-0.2c0.1-0.1,0.2-0.1,0.3-0.1c0.2,0,0.3-0.1,0.5-0.1c0.1,0,0.3-0.1,0.4-0.1
			c0.1,0,0.2,0,0.3-0.1c0.1,0,0.2-0.1,0.3-0.1s0.2,0,0.3,0s0.2,0,0.3,0s0.2,0,0.3,0s0.2,0,0.2,0c0.1,0,0.2,0,0.2,0h0.3
			c0.1,0,0.2,0,0.2,0c0.1,0,0.2,0,0.2,0c0.2,0,0.3,0,0.5,0c0.1,0,0.2,0,0.3,0s0.2,0,0.3,0.1c0.1,0,0.3,0,0.4,0.1
			c0.3,0.1,0.6,0.1,0.8,0.2l0,0c0.1,0,0.2,0,0.2,0.1c0.3,0.1,0.5,0.2,0.8,0.3c0.1,0.1,0.3,0.1,0.4,0.2c0.1,0.1,0.3,0.1,0.4,0.2
			c0.6,0.4,1.2,0.8,1.7,1.3c0.1,0.1,0.2,0.2,0.3,0.3l0,0l0,0c0.2,0.2,0.4,0.4,0.5,0.7c0.3,0.4,0.6,0.8,0.8,1.3s0.4,0.9,0.6,1.4
			c0,0.1,0,0.2,0.1,0.2c0,0.1,0,0.1,0.1,0.2c0.8,0.3,1.6,0.7,2.2,1.2C166.4,981.6,166.4,981.5,166.4,981.5z"/>
	</g>
	<g>
		<path class="st40" d="M160.6,978.6c-0.2-0.7-0.5-1.4-0.8-2c-0.4-0.9-0.9-1.7-1.5-2.5l0,0l0,0c-0.6-0.8-1.3-1.5-2.1-2.2
			c-0.1-0.1-0.2-0.2-0.3-0.2h-0.1c-0.1,0-0.2,0-0.3,0h-0.1c-0.1,0-0.2,0-0.2,0c-0.1,0-0.2,0-0.3,0c-0.2,0-0.4,0-0.6,0.1
			c-0.1,0-0.3,0-0.4,0c-0.1,0-0.2,0-0.3,0.1c-0.2,0-0.3,0.1-0.5,0.1c-0.4,0.1-0.8,0.2-1.1,0.3c-0.1,0-0.3,0.1-0.4,0.1
			c-2,0.8-3.7,2.1-4.9,3.8c-0.1,0.1-0.2,0.3-0.3,0.4c-0.2,0.3-0.3,0.5-0.5,0.8c-0.1,0.1-0.2,0.3-0.2,0.5c-0.1,0.2-0.2,0.4-0.2,0.5
			c-0.1,0.2-0.1,0.3-0.2,0.5c-0.1,0.3-0.2,0.7-0.3,1.1c0,0.2-0.1,0.3-0.1,0.5c0,0.1,0,0.2,0,0.2c-0.1,0.4-0.1,0.9-0.2,1.3
			c0,0.2,0,0.4,0,0.6c0,0.2,0,0.4,0,0.7c0,0.1,0,0.3,0,0.5c0.2,1.5,0.6,2.9,1.3,4.1c0.1,0.3,0.3,0.5,0.4,0.7c0,0.1,0.1,0.1,0.1,0.2
			c0.1,0.1,0.2,0.3,0.3,0.4c0.2,0.3,0.4,0.6,0.7,0.8c0.2,0.3,0.5,0.5,0.8,0.8c0.2,0.2,0.5,0.4,0.7,0.6c0.2,0.2,0.4,0.3,0.7,0.5
			c1.6,1.1,3.4,1.7,5.4,1.8l0,0h0.9h0.1l0,0l0,0l0,0l0.3-0.2l0.1-0.1c0.2-0.1,0.4-0.3,0.5-0.5c-0.4-0.4-0.8-0.8-1.1-1.3h0.1
			c-0.1-0.1-0.2-0.2-0.3-0.3l0,0c-0.1,0.1-0.2,0.2-0.3,0.3c-0.1,0-0.3,0-0.5,0c-0.1,0-0.3,0-0.4,0c-0.6-0.1-1.2-0.2-1.7-0.4l0,0
			c-0.1,0-0.3-0.1-0.4-0.1c-0.3-0.1-0.5-0.2-0.8-0.4c-0.1-0.1-0.3-0.1-0.4-0.2c-0.5-0.3-1-0.6-1.4-1c-0.1-0.1-0.2-0.2-0.3-0.3
			s-0.2-0.2-0.3-0.3s-0.2-0.2-0.3-0.3l0,0l0,0c-0.3-0.3-0.5-0.6-0.7-1c-0.1-0.1-0.1-0.2-0.2-0.4c-0.1-0.1-0.2-0.3-0.2-0.4
			c-0.1-0.1-0.1-0.2-0.2-0.3c-0.1-0.2-0.1-0.3-0.2-0.5c-0.1-0.3-0.2-0.5-0.3-0.8c0-0.2-0.1-0.3-0.1-0.5c0-0.1-0.1-0.3-0.1-0.4
			c0-0.2-0.1-0.3-0.1-0.5c0-0.1,0-0.2,0-0.3c0-0.2,0-0.3,0-0.5s0-0.3,0-0.5s0-0.3,0-0.5s0-0.3,0-0.5c0-0.1,0-0.2,0-0.3
			c0-0.2,0-0.3,0.1-0.5c0-0.1,0-0.3,0.1-0.4c0.1-0.3,0.2-0.6,0.3-0.9c0-0.1,0.1-0.3,0.1-0.4c0.1-0.2,0.2-0.5,0.3-0.7l0,0v-0.1
			c0.1-0.2,0.3-0.5,0.4-0.7c0.2-0.3,0.3-0.5,0.5-0.7c0.1-0.1,0.2-0.2,0.3-0.3l0.1-0.1c0,0,0.1-0.1,0.1-0.2c0.1-0.1,0.2-0.2,0.3-0.3
			c0.2-0.2,0.4-0.4,0.6-0.5s0.3-0.2,0.5-0.3s0.4-0.3,0.6-0.4c0.1-0.1,0.3-0.1,0.4-0.2c0.1-0.1,0.2-0.1,0.3-0.2
			c0.2-0.1,0.3-0.1,0.5-0.2c0.1-0.1,0.2-0.1,0.3-0.1c0.2,0,0.3-0.1,0.5-0.1c0.1,0,0.3-0.1,0.4-0.1c0.1,0,0.2,0,0.3-0.1
			c0.1,0,0.2,0,0.3-0.1c0.1,0,0.2,0,0.3,0s0.2,0,0.3,0s0.2,0,0.3,0s0.1,0,0.2,0l0,0c0.1,0.1,0.2,0.2,0.3,0.3
			c0.9,0.8,1.6,1.7,2.2,2.7c0.4,0.6,0.7,1.3,1,2c0.2,0.6,0.4,1.3,0.5,2c0.6-0.3,1.3-0.4,2-0.5C160.9,979.6,160.8,979.1,160.6,978.6z
			"/>
	</g>
	<g>
		<path class="st40" d="M166.4,981.5c0-0.3-0.1-0.5-0.1-0.8c0-0.1,0-0.2,0-0.2c0-0.2-0.1-0.3-0.1-0.5v-0.1c0-0.2-0.1-0.3-0.1-0.5
			s-0.1-0.3-0.2-0.5c-0.1-0.2-0.1-0.3-0.2-0.5c-0.2-0.5-0.5-1-0.7-1.4c-0.1-0.2-0.2-0.3-0.3-0.5c-0.5-0.7-1-1.3-1.6-1.9
			c-0.1-0.1-0.2-0.2-0.3-0.3c-0.5-0.4-0.9-0.8-1.5-1.1c-0.1-0.1-0.3-0.2-0.5-0.3c-0.1-0.1-0.3-0.2-0.4-0.2c-0.3-0.2-0.7-0.3-1-0.4
			c-0.2-0.1-0.3-0.1-0.5-0.2c-0.2-0.1-0.3-0.1-0.5-0.2c-0.1,0-0.3-0.1-0.4-0.1c-0.2,0-0.4-0.1-0.6-0.1s-0.4-0.1-0.6-0.1
			c-0.1,0-0.3,0-0.4,0c-0.1,0-0.2,0-0.3,0H156l0,0c-0.1,0-0.2,0-0.3,0h-0.1c-0.1,0-0.2,0-0.2,0l-0.3,0.1l-0.1,0.1
			c-0.8,0.7-1.5,1.4-2.2,2.2c-0.6,0.8-1.1,1.6-1.5,2.4c-0.3,0.6-0.6,1.3-0.8,2c-0.3,1-0.5,2-0.6,3.1c0,0.3,0,0.7,0,1s0,0.7,0,1
			c0.1,1,0.2,2,0.5,2.9c0.2,0.7,0.5,1.4,0.8,2c0.4,0.9,1,1.8,1.6,2.6l0,0c0.6,0.8,1.3,1.5,2.1,2.1l0.2,0.3l0,0l0,0h0.9h0.1l0,0l0,0
			l0,0c0.4,0,0.7,0,1.1-0.1c0.2,0,0.4,0,0.5-0.1c-0.2-0.2-0.5-0.4-0.7-0.6c-0.4-0.4-0.8-0.8-1.1-1.3h0.1c-0.1-0.1-0.2-0.2-0.3-0.3
			l0,0l0,0c-0.9-0.8-1.7-1.8-2.3-2.8c-0.4-0.6-0.7-1.3-0.9-2c-0.3-0.9-0.5-1.9-0.6-2.9c0-0.3,0-0.7,0-1s0-0.7,0-1
			c0.1-1.1,0.3-2.1,0.7-3.1c0.3-0.7,0.6-1.4,1-2c0.6-1,1.3-1.9,2.2-2.7c0.1-0.1,0.2-0.2,0.3-0.3l0,0c0.1,0,0.1,0,0.2,0
			c0.2,0,0.3,0,0.5,0c0.1,0,0.2,0,0.3,0s0.2,0,0.3,0.1c0.1,0,0.3,0,0.4,0.1c0.3,0.1,0.6,0.1,0.8,0.2l0,0c0.1,0,0.2,0.1,0.2,0.1
			c0.3,0.1,0.5,0.2,0.8,0.3c0.1,0.1,0.3,0.1,0.4,0.2c0.1,0.1,0.3,0.1,0.4,0.2c0.6,0.4,1.2,0.8,1.7,1.3c0.1,0.1,0.2,0.2,0.3,0.3l0,0
			l0,0c0.2,0.2,0.4,0.4,0.5,0.7c0.3,0.4,0.6,0.8,0.8,1.3s0.4,0.9,0.6,1.4c0,0.1,0,0.2,0.1,0.2c0,0.1,0,0.1,0,0.2l0,0
			c0.8,0.3,1.6,0.7,2.2,1.2C166.4,981.6,166.4,981.5,166.4,981.5z"/>
	</g>
	<g>
		<path class="st40" d="M157.1,981.7c-0.7,0.5-1.3,1.2-1.7,2h-10v-2H157.1z"/>
	</g>
	<g>
		<rect x="146.8" y="976.6" class="st40" width="17.3" height="2"/>
	</g>
	<g>
		<path class="st40" d="M154.4,988.6h-7.6v-2h7.6c0,0.3-0.1,0.6-0.1,0.9C154.3,987.9,154.3,988.2,154.4,988.6z"/>
	</g>
</g>
<path class="st40" d="M155.7,991.7L155.7,991.7c-0.2-0.1-0.2-0.2-0.3-0.3C155.5,991.5,155.6,991.6,155.7,991.7z"/>
<path class="st16" d="M166.6,985c0.5,0.8,0.8,1.7,0.8,2.8c0,2.8-2.3,5.1-5.1,5.1s-5.1-2.3-5.1-5.1s2.3-5.1,5.1-5.1"/>
<polygon class="st43" points="162.2,980.3 162.2,985.3 166.1,982.8 "/>
<g>
	<g>
		<g>
			<path class="st40" d="M159.5,1034.5h-13.3c-1,0-1.8,0.8-1.8,1.8v16.3c0,1,0.8,1.8,1.8,1.8h4.2v-2h-4v-16h13v6.2h2v-6.4
				C161.4,1035.4,160.6,1034.5,159.5,1034.5z"/>
		</g>
		<g>
			<rect x="145.6" y="1040.6" class="st40" width="15" height="2"/>
		</g>
		<g>
			<rect x="145.6" y="1046.6" class="st40" width="5" height="2"/>
		</g>
	</g>
	<g>
		<path class="st40" d="M152.5,1039.6h-3c-0.6,0-1-0.4-1-1s0.4-1,1-1h3c0.6,0,1,0.4,1,1S153,1039.6,152.5,1039.6z"/>
	</g>
	<g>
		<path class="st40" d="M150.5,1049.6v2h-1.1c-0.5,0-1-0.4-1-1c0-0.5,0.5-1,1-1H150.5z"/>
	</g>
	<g>
		<path class="st40" d="M150.5,1043.8v2h-1.1c-0.5,0-1-0.4-1-1c0-0.5,0.5-1,1-1H150.5z"/>
	</g>
	<rect x="150.4" y="1046.6" class="st40" width="0.1" height="2"/>
	<rect x="150.4" y="1049.6" class="st40" width="0.1" height="2"/>
	<path class="st44" d="M166,1054.6h-13c-0.3,0-0.6-0.3-0.6-0.6v-8.8c0-0.3,0.3-0.6,0.6-0.6h13c0.3,0,0.6,0.3,0.6,0.6v8.8
		C166.6,1054.3,166.3,1054.6,166,1054.6z"/>
	<polyline class="st44" points="152.6,1044.8 159.6,1049.8 166.6,1044.8 	"/>
</g>
<g>
	<path class="st38" d="M163.2,1105.9c0.2,0.7,0.3,1.5,0.3,2.4c0,4.9-4,8.9-8.9,8.9s-8.9-4-8.9-8.9s4-8.9,8.9-8.9c0,0,1.2,0,2.8,0.5"
		/>
	<path class="st40" d="M154,1096.4v6.5c0,0.2,0.2,0.4,0.4,0.2l5-3.1c0.2-0.1,0.2-0.4,0-0.5l-5-3.5
		C154.2,1096.1,154,1096.2,154,1096.4z"/>
	<polyline class="st52" points="149.9,1107.8 153.4,1111.2 161.8,1102.8 	"/>
</g>
<path class="st38" d="M153.3,1183.5h-7.7c-0.8,0-1.4-0.6-1.4-1.4v-12.8c0-0.8,0.6-1.4,1.4-1.4h15.3c0.8,0,1.4,0.6,1.4,1.4v4.9"/>
<line class="st38" x1="144.2" y1="1172.2" x2="162.3" y2="1172.2"/>
<line class="st38" x1="148.3" y1="1165.3" x2="148.3" y2="1170"/>
<line class="st38" x1="158.3" y1="1165.3" x2="158.3" y2="1170"/>
<rect x="147.2" y="1175.1" class="st40" width="2" height="2"/>
<rect x="151.3" y="1175.1" class="st40" width="2" height="2"/>
<rect x="147.2" y="1178.7" class="st40" width="2" height="2"/>
<rect x="151.3" y="1178.7" class="st40" width="2" height="2"/>
<rect x="155.3" y="1175.1" class="st40" width="2" height="2"/>
<path class="st32" d="M165.5,1179.6h-0.3c0-1.9-1.6-3.5-3.5-3.5s-3.5,1.6-3.5,3.5H158c-1.5,0-2.7,1.2-2.7,2.7s1.2,2.7,2.7,2.7h7.5
	c1.5,0,2.7-1.2,2.7-2.7C168.2,1180.8,167,1179.6,165.5,1179.6z"/>
<g>
	<path class="st38" d="M160.2,1232.4v12.1c0,0.5-0.4,0.8-0.9,0.8H145c-0.5,0-0.8-0.4-0.8-0.8v-17.2c0-0.5,0.4-0.8,0.8-0.8h11.2
		l4,3.9v2.9"/>
	<polygon class="st40" points="161.2,1231.4 155.2,1231.4 155.2,1225.4 	"/>
	<line class="st45" x1="148" y1="1235.3" x2="156.3" y2="1235.3"/>
	<line class="st45" x1="148" y1="1239.3" x2="153.3" y2="1239.3"/>
</g>
<path class="st53" d="M13,1359v2.5c0,0.8-0.6,1.4-1.4,1.4H2.4c-0.8,0-1.4-0.6-1.4-1.4v-2.5"/>
<polyline class="st54" points="10.2,1355.8 7,1359 3.7,1355.8 "/>
<line class="st54" x1="7" y1="1358.9" x2="7" y2="1352"/>
<g>
	<g>
		<path class="st18" d="M169.5,934.9h-16.3c-0.8,0-1.4-0.6-1.4-1.4v-8.1c0-0.8,0.6-1.4,1.4-1.4h16.3c0.8,0,1.4,0.6,1.4,1.4v8.1
			C171,934.2,170.3,934.9,169.5,934.9z"/>
		<g class="st55">
			<path class="st24" d="M156.8,931.4l1.8-5.4h1.3l-2.5,6.9h-1.2l-2.5-6.9h1.3L156.8,931.4z"/>
			<path class="st24" d="M162.3,926l2,5.3l2-5.3h1.6v6.9h-1.2v-2.3l0.1-3.1l-2,5.3h-0.9l-2-5.3l0.1,3v2.3h-1.2v-6.9L162.3,926
				L162.3,926z"/>
		</g>
		<path class="st18" d="M149.8,929.8h-2.5c-0.8,0-1.4-0.6-1.4-1.4v-10.9c0-0.8,0.6-1.4,1.4-1.4h15.4c0.8,0,1.4,0.6,1.4,1.4v4.5"/>
		<line class="st18" x1="148" y1="933" x2="149.8" y2="933"/>
	</g>
	<g>
		<path class="st18" d="M165,862.1h-8.4v-1.3c0-1.4,0.3-2.5-3-2.5h-5.1c-1.6,0-3,0-3,2.5v3.6v2.1v6.7c0,1.3,1.2,2.3,2.7,2.3H165
			c1.5,0,2.7-1,2.7-2.3v-8.8C167.7,863.1,166.5,862.1,165,862.1z"/>
		<line class="st18" x1="156.7" y1="875.4" x2="156.7" y2="879.6"/>
		<rect x="154.9" y="879.2" class="st18" width="3.6" height="3.6"/>
		<line class="st37" x1="154.1" y1="881" x2="147.7" y2="881"/>
		<line class="st37" x1="165.8" y1="881" x2="159.3" y2="881"/>
	</g>
	<g>
		<path class="st18" d="M165.3,818h-16.5c-1.6,0-2.8-1.3-2.8-2.8v-12.1c0-1.6,1.3-2.8,2.8-2.8h16.5c1.6,0,2.8,1.3,2.8,2.8v12.1
			C168.1,816.8,166.8,818,165.3,818z"/>
		<g>
			<polygon class="st24" points="155.8,805.6 155.8,808.4 152.8,808.4 152.8,806.2 			"/>
			<polygon class="st24" points="155.8,809.4 155.8,812.4 152.8,812.1 152.8,809.4 			"/>
			<polygon class="st24" points="161.2,809.4 161.2,813.1 156.8,812.6 156.8,809.4 			"/>
			<polygon class="st24" points="161.2,804.7 161.2,808.4 156.8,808.4 156.8,805.5 			"/>
		</g>
		<line class="st37" x1="152.2" y1="820.8" x2="161.9" y2="820.8"/>
	</g>
</g>
<g>
	<g>
		<g>
			<polyline class="st56" points="167.2,421.2 171.1,425.1 167.2,429.1 			"/>
			<line class="st56" x1="170.8" y1="429.1" x2="175.3" y2="429.1"/>
		</g>
		<circle class="st56" cx="169.8" cy="425.4" r="9"/>
	</g>
</g>
</svg>
