<svg id="Layer_1" data-name="Layer 1" xmlns="http://www.w3.org/2000/svg" viewBox="0 0 12.13 13.17"><defs><style>.cls-1{fill:#8d8d8d;}.cls-2{fill:#fff;}</style></defs><title>pdf</title><polygon class="cls-1" points="8.15 3.99 8.15 0 0 0 0 13.17 12.13 13.15 12.13 4 8.15 3.99"/><polygon class="cls-1" points="11.12 2.01 10.15 2.01 10.15 0.86 9.15 0.86 9.15 3.01 11.12 3.01 11.12 2.01"/><path class="cls-2" d="M304.27,423a.41.41,0,0,0-.13-.21,1.84,1.84,0,0,0-1.14-.26,10,10,0,0,0-1.37.1,3.43,3.43,0,0,1-.64-.42,4.4,4.4,0,0,1-1.15-1.69l0-.17a10.48,10.48,0,0,0,.2-2,.55.55,0,0,0,0-.14l0-.06a.49.49,0,0,0-.45-.33h-.14a.51.51,0,0,0-.52.31,5.47,5.47,0,0,0,.32,2.59l-.08.18c-.22.52-.5,1-.75,1.5l0,.06c-.26.48-.5.89-.71,1.24l-.22.11-.48.25c-.75.43-1.25.91-1.33,1.29a.31.31,0,0,0,.13.35l.21.1a.68.68,0,0,0,.29.07c.54,0,1.16-.63,2-2.05a20.94,20.94,0,0,1,3.1-.7,5.56,5.56,0,0,0,2.26.68,1.1,1.1,0,0,0,.27,0,.46.46,0,0,0,.26-.17A.87.87,0,0,0,304.27,423Zm-8.13,2.5a3.57,3.57,0,0,1,1.06-1.2l.2-.18A3.7,3.7,0,0,1,296.14,425.51Zm3.39-7.4c.17,0,.27.41.28.8a1.57,1.57,0,0,1-.2.86,4,4,0,0,1-.15-1.07S299.45,418.11,299.53,418.11Zm-1,5.27.37-.65a11.81,11.81,0,0,0,.65-1.35,4.53,4.53,0,0,0,1.08,1.27l.17.13A14.27,14.27,0,0,0,298.52,423.38Zm5.46,0a.83.83,0,0,1-.3,0,3.67,3.67,0,0,1-1.25-.36l.57,0a2.31,2.31,0,0,1,.72.07C304,423.15,304,423.3,304,423.33Z" transform="translate(-294.16 -414.61)"/></svg>