<?xml version="1.0" encoding="utf-8"?>
<!-- Generator: Adobe Illustrator 27.5.0, SVG Export Plug-In . SVG Version: 6.00 Build 0)  -->
<svg version="1.1" id="Layer_1" xmlns="http://www.w3.org/2000/svg" xmlns:xlink="http://www.w3.org/1999/xlink" x="0px" y="0px"
	 width="263.5px" height="1560.3px" viewBox="0 0 263.5 1560.3" style="enable-background:new 0 0 263.5 1560.3;"
	 xml:space="preserve">
<style type="text/css">
	.st0{fill:#FFFFFF;}
	.st1{fill:#75A0CE;}
	.st2{fill:#E3ECF2;stroke:#75A0CE;stroke-miterlimit:10;}
	.st3{fill-rule:evenodd;clip-rule:evenodd;fill:#707781;}
	.st4{fill:#FFFFFF;stroke:#2DA9E7;stroke-miterlimit:10;}
	.st5{fill:#2DA9E7;}
	.st6{fill:#FFFFFF;stroke:#C9D2E1;stroke-miterlimit:10;}
	.st7{fill:none;stroke:#B8BCC5;stroke-miterlimit:10;}
	.st8{fill:#0071BC;}
	.st9{fill:#BCC1C3;}
	.st10{fill:#4184B1;}
	.st11{fill:#5DA4CA;}
	.st12{fill:#B0DCF2;}
	.st13{fill-rule:evenodd;clip-rule:evenodd;fill:#9DA2A6;}
	.st14{fill-rule:evenodd;clip-rule:evenodd;fill:#C4C6CA;}
	.st15{fill:#FFFFFF;stroke:#9ABAD6;stroke-miterlimit:10;}
	.st16{fill:#D9D9D9;}
	.st17{fill:#8FADCD;}
	.st18{fill:#EBF6FF;}
	.st19{fill:#1B93FA;}
	.st20{fill:#868A97;}
	.st21{fill:#5592CD;}
	.st22{fill:#748692;}
	.st23{fill:#7E8995;}
	.st24{fill:#4697CD;}
	.st25{fill:#63A9EB;}
	.st26{fill:#FFFFFF;stroke:#51A0CD;stroke-miterlimit:10;}
	.st27{fill:#51A0CD;}
	.st28{fill:none;stroke:#FFFFFF;stroke-width:2;stroke-linecap:round;stroke-miterlimit:10;}
	.st29{fill:#75A1CF;}
	.st30{fill:none;stroke:#555555;stroke-width:3;stroke-miterlimit:10;}
	.st31{fill-rule:evenodd;clip-rule:evenodd;fill:#2D2D2D;}
	.st32{fill:#8D98AB;}
	.st33{fill:#D4D4D4;}
	.st34{fill-rule:evenodd;clip-rule:evenodd;fill:#4697CD;}
	.st35{fill-rule:evenodd;clip-rule:evenodd;fill:#D4D4D4;}
	.st36{fill:#E25D60;}
	.st37{fill:none;stroke:#FFFFFF;stroke-miterlimit:10;}
	.st38{fill-rule:evenodd;clip-rule:evenodd;fill:#FFFFFF;}
</style>
<g>
	<rect x="165.7" y="64.9" class="st0" width="11.1" height="2"/>
	<rect x="186.8" y="64.9" class="st0" width="11" height="2"/>
	<path class="st0" d="M199.7,27.9h-21.3l-4.1-4h-10.6c-1.6,0-3,1.3-3,3V56c0,1.7,1.4,3,3,3h36c1.6,0,3-1.3,3-3V30.9
		C202.7,29.2,201.4,27.9,199.7,27.9z M200.7,56c0,0.6-0.4,1-1,1h-36c-0.6,0-1-0.4-1-1V35.9h38V56z M200.7,33.9h-38v-7
		c0-0.5,0.4-1,1-1h9.8l4.1,4h22.1c0.6,0,1,0.5,1,1L200.7,33.9L200.7,33.9z"/>
	<path class="st0" d="M183.8,62.4c-0.3-0.2-0.7-0.3-1-0.4v-2.1h-2V62c-0.4,0.1-0.7,0.2-1,0.4c-0.9,0.5-1.6,1.4-1.9,2.4
		c-0.1,0.3-0.1,0.7-0.1,1s0,0.7,0.1,1c0.3,1,0.9,1.9,1.8,2.4c0.6,0.4,1.3,0.6,2.1,0.6s1.5-0.2,2.1-0.6c0.9-0.5,1.6-1.4,1.8-2.4
		c0.1-0.3,0.1-0.7,0.1-1s0-0.7-0.1-1C185.4,63.8,184.7,62.9,183.8,62.4z M183.5,66.9c-0.4,0.6-1,1-1.8,1s-1.4-0.4-1.8-1
		c-0.2-0.3-0.3-0.6-0.3-1s0.1-0.7,0.3-1c0.4-0.6,1-1,1.7-1s1.4,0.4,1.7,1c0.2,0.3,0.3,0.6,0.3,1C183.8,66.2,183.7,66.6,183.5,66.9z"
		/>
</g>
<g>
	<g>
		<path class="st1" d="M191.7,161.7h-19.8c-8,0-14.6-6.5-14.6-14.6s6.5-14.6,14.6-14.6h19.8c8,0,14.6,6.5,14.6,14.6
			C206.2,155.2,199.7,161.7,191.7,161.7z M171.8,133.5c-7.5,0-13.6,6.1-13.6,13.6s6.1,13.6,13.6,13.6h19.8c7.5,0,13.6-6.1,13.6-13.6
			s-6.1-13.6-13.6-13.6H171.8z"/>
	</g>
	<path class="st1" d="M177.3,144.8v-3.9c0-0.5-0.6-0.7-0.9-0.4l-6.5,5.4c-0.3,0.2-0.3,0.6,0,0.9l6.5,5.4c0.4,0.3,0.9,0,0.9-0.4v-3.9
		h12.1v4.3c0,0.8,0.7,1.5,1.5,1.5l0,0c0.8,0,1.5-0.7,1.5-1.5v-6.7c0-0.3-0.3-0.6-0.6-0.6L177.3,144.8L177.3,144.8z"/>
</g>
<g>
	<g>
		<path class="st2" d="M191.7,232.4h-19.8c-8,0-14.6-6.5-14.6-14.6s6.5-14.6,14.6-14.6h19.8c8,0,14.6,6.5,14.6,14.6
			C206.2,225.8,199.7,232.4,191.7,232.4z"/>
	</g>
	<path class="st1" d="M177.3,214.5v-3.9c0-0.5-0.6-0.7-0.9-0.4l-6.5,5.4c-0.3,0.2-0.3,0.6,0,0.9l6.5,5.4c0.4,0.3,0.9,0,0.9-0.4v-3.9
		h12.1v4.3c0,0.8,0.7,1.5,1.5,1.5l0,0c0.8,0,1.5-0.7,1.5-1.5V215c0-0.3-0.3-0.6-0.6-0.6L177.3,214.5L177.3,214.5z"/>
</g>
<path class="st3" d="M187.5,322.7l-5.1,5.1c-0.4,0.4-1,0.4-1.4,0l0,0l-5.1-5.1c-0.4-0.4-0.4-1,0-1.4s1-0.4,1.4,0l0,0l4.4,4.4
	l4.4-4.4c0.4-0.4,1-0.4,1.4,0l0,0C187.9,321.6,187.9,322.3,187.5,322.7L187.5,322.7z"/>
<path class="st3" d="M176,278.8l5.1-5.1c0.4-0.4,1-0.4,1.4,0l0,0l5.1,5.1c0.4,0.4,0.4,1,0,1.4s-1,0.4-1.4,0l0,0l-4.4-4.4l-4.4,4.4
	c-0.4,0.4-1,0.4-1.4,0l0,0C175.6,279.8,175.6,279.1,176,278.8L176,278.8z"/>
<g>
	<circle class="st4" cx="181.7" cy="377" r="7.5"/>
	<circle class="st5" cx="181.7" cy="377" r="4"/>
</g>
<circle class="st6" cx="181.7" cy="435.1" r="7.5"/>
<rect x="176.2" y="486.5" class="st7" width="11.1" height="11"/>
<g>
	<rect x="176.2" y="536.5" class="st8" width="11.1" height="11"/>
	<path class="st0" d="M184.6,539.5c-0.3-0.3-0.8-0.2-1.1,0.1l-2.3,3l-1.2-1c-0.3-0.3-0.8-0.3-1.1,0.1s-0.3,0.8,0.1,1.1l1.9,1.7
		c0.3,0.3,0.7,0.2,0.9-0.1l2.9-3.7C184.9,540.3,184.9,539.8,184.6,539.5L184.6,539.5z"/>
</g>
<g>
	<g>
		<path class="st9" d="M181.8,581.2c-9.1,0-16.6,7.5-16.6,16.7c0,4.3,1.6,8.3,4.3,11.2c3,3.4,7.4,5.5,12.3,5.5
			c4.8,0,9.2-2.1,12.2-5.4c2.7-3,4.4-6.9,4.4-11.3C198.3,588.7,190.9,581.2,181.8,581.2z M192.6,607.6c-0.6-0.5-1.2-0.7-1.7-1
			c-2.6-1-5.7-2.5-5.7-2.5s0-1,0-1.8c1-0.7,1.5-2.5,1.6-3.3c0.5,0,0.9-2.7,1-3.2c0-0.5-0.5-0.3-0.5-0.3s0-0.2,0.2-3
			c0.4-3.6-4.3-4.4-6.3-4.6c-2.6-0.1-2.6,0.8-2.6,1.1c-4,0.8-2.4,6.5-2.4,6.5c-1.3-0.3-0.2,2.2-0.2,2.3s0.1,0.4,0.2,0.7
			s0.4,0.3,0.5,0.7c0.4,2.7,1.6,3.3,1.6,3.3s0,0,0,1.5c-0.8,0.8-3.9,1.8-6.3,2.8c-0.5,0.2-1,0.4-1.3,0.7c-2.2-2.6-3.6-5.9-3.6-9.6
			c0-8.1,6.5-14.7,14.6-14.7c8,0,14.6,6.6,14.6,14.7C196.3,601.6,194.9,605,192.6,607.6z"/>
	</g>
</g>
<g>
	<circle class="st10" cx="181.7" cy="663.4" r="11"/>
	<path class="st0" d="M178.6,668.3l0.3-0.5c1.9-2.6,1.9-6.2,0-8.8l-0.3-0.5c0.2-0.2,0.5-0.2,0.7,0l7.3,4.5c0.2,0.2,0.2,0.5,0,0.7
		l-7.3,4.5C179.1,668.5,178.8,668.5,178.6,668.3z"/>
</g>
<g>
	<circle class="st10" cx="181.7" cy="726.5" r="11"/>
	<path class="st0" d="M185.1,731.4l-0.3-0.5c-1.9-2.6-1.9-6.2,0-8.8l0.3-0.5c-0.2-0.2-0.5-0.2-0.7,0l-7.3,4.5
		c-0.2,0.2-0.2,0.5,0,0.7l7.3,4.5C184.6,731.6,184.9,731.6,185.1,731.4z"/>
</g>
<g>
	<path class="st11" d="M181.7,777.8c-3.9,0-7.1,3.2-7.1,7.1s3.2,7.1,7.1,7.1c3.9,0,7.1-3.2,7.1-7.1S185.6,777.8,181.7,777.8z
		 M181.7,791c-3.4,0-6.1-2.7-6.1-6.1s2.7-6.1,6.1-6.1s6.1,2.7,6.1,6.1S185.1,791,181.7,791z"/>
	<rect x="180.7" y="783.9" class="st11" width="2" height="4.9"/>
	<rect x="180.7" y="780.9" class="st11" width="2" height="2"/>
</g>
<g>
	<g>
		<path class="st12" d="M181.7,832.8c-3.9,0-7.1,3.2-7.1,7.1s3.2,7.1,7.1,7.1c3.9,0,7.1-3.2,7.1-7.1S185.6,832.8,181.7,832.8z
			 M181.7,846c-3.4,0-6.1-2.7-6.1-6.1s2.7-6.1,6.1-6.1s6.1,2.7,6.1,6.1S185.1,846,181.7,846z"/>
		<rect x="180.7" y="838.9" class="st12" width="2" height="4.9"/>
		<rect x="180.7" y="835.9" class="st12" width="2" height="2"/>
	</g>
</g>
<path class="st13" d="M186.7,888.2l-5,5l-5-5"/>
<path class="st14" d="M185.3,935l-3.6,3.9l-3.6-3.9"/>
<path class="st14" d="M178.2,983.9l3.6-3.9l3.6,3.9"/>
<rect x="175.8" y="1024.8" class="st15" width="12" height="12"/>
<g>
	<rect x="175.4" y="1078.3" class="st8" width="12.6" height="12.4"/>
	<path class="st0" d="M184.9,1081.8c-0.4-0.3-0.9-0.2-1.2,0.1l-2.7,3.3l-1.4-1.2c-0.4-0.3-0.9-0.3-1.2,0.1s-0.3,0.9,0.1,1.2l2.1,1.9
		c0.3,0.3,0.8,0.2,1.1-0.1l3.3-4.2C185.4,1082.6,185.3,1082.1,184.9,1081.8L184.9,1081.8z"/>
</g>
<g>
	<path class="st16" d="M11.9,125H9v-1H4v1H1H0v2h1v9.4c0,0.9,0.7,1.6,1.6,1.6h7.8c0.9,0,1.6-0.7,1.6-1.6V127h1v-2H11.9z M9.9,136H3
		v-9h6.9V136z"/>
	<rect x="4" y="128" class="st16" width="2" height="7"/>
	<rect x="7" y="128" class="st16" width="2" height="7"/>
</g>
<g>
	<path class="st17" d="M6,180.1c0.6,0,1-0.4,1-1v-1c0-0.6-0.4-1-1-1s-1,0.4-1,1v1C5,179.7,5.4,180.1,6,180.1z"/>
	<path class="st17" d="M0.5,183.1h21c0.3,0,0.5,0.2,0.5,0.5v-3.5c0-1.1-0.9-2-2-2h-2v2c0,0.6-0.5,1-1,1h-2c-0.6,0-1-0.4-1-1v-2H8v2
		c0,0.6-0.4,1-1,1H5c-0.6,0-1-0.4-1-1v-2H2c-1.1,0-2,0.9-2,2v3.5C0,183.3,0.2,183.1,0.5,183.1z"/>
	<path class="st17" d="M16,180.1c0.5,0,1-0.4,1-1v-1c0-0.6-0.5-1-1-1c-0.6,0-1,0.4-1,1v1C15,179.7,15.4,180.1,16,180.1z"/>
	<path class="st17" d="M12,186.1h3v1h2v-1h3v1h2v-3.5c0,0.3-0.2,0.5-0.5,0.5h-21c-0.3,0-0.5-0.2-0.5-0.5v10.5c0,1.1,0.9,2,2,2h11v-2
		h-1v-3h1v-2h-1V186.1z M5,194.1H2v-3h3V194.1z M5,189.1H2v-3h3V189.1z M10,194.1H7v-3h3V194.1z M10,189.1H7v-3h3V189.1z"/>
	<path class="st17" d="M20.1,191.6L20.1,191.6c-1.4,0-2.6,1.1-2.6,2.5s1.1,2.6,2.5,2.6s2.6-1.1,2.6-2.5
		C22.6,192.8,21.5,191.6,20.1,191.6z M21.1,194.2c0,0.6-0.5,1-1,1c-0.6,0-1.1-0.4-1.1-1s0.4-1.1,1-1.1s1.1,0.4,1.1,1
		C21.1,194.1,21.1,194.2,21.1,194.2z"/>
	<path class="st17" d="M25,194.4V194l0.7-0.6c0.4-0.3,0.5-0.9,0.4-1.4l-0.3-0.6c-0.2-0.4-0.6-0.8-1.1-0.8l-1.1,0.1
		c-0.1-0.1-0.1-0.2-0.2-0.2l0.1-1c0.1-0.5-0.2-1-0.7-1.2l-0.6-0.3c-0.5-0.2-1-0.1-1.4,0.3l-0.6,0.7h-0.3l-0.6-0.8
		c-0.3-0.4-0.9-0.6-1.4-0.4l-0.6,0.3c-0.5,0.2-0.8,0.7-0.7,1.2l0.1,0.9l-0.3,0.3l-0.9-0.1h-0.1c-0.5,0-0.9,0.3-1.1,0.7l-0.3,0.6
		c-0.2,0.5-0.1,1.1,0.3,1.4l0.7,0.6c0,0.1,0,0.3,0,0.4l-0.7,0.6c-0.4,0.3-0.6,0.9-0.4,1.4l0.3,0.6c0.2,0.5,0.7,0.8,1.2,0.7l0.9-0.1
		c0.1,0.1,0.2,0.2,0.3,0.3l-0.1,0.9c0,0.5,0.2,1,0.7,1.2l0.6,0.3c0.5,0.2,1,0.1,1.4-0.3l0.6-0.7h0.4l0.6,0.7
		c0.2,0.3,0.6,0.4,0.9,0.4c0.2,0,0.3,0,0.5-0.1l0.6-0.3c0.5-0.2,0.8-0.7,0.7-1.2l-0.1-0.9l0.3-0.3l0.9,0.1h0.1
		c0.5,0,0.9-0.3,1.1-0.7l0.3-0.6c0.2-0.5,0.1-1-0.3-1.4L25,194.4z M23.5,193.7c0,0.3,0,0.6,0,0.8v0.4l1.1,1l-0.1,0.2L23,196
		l-0.3,0.3c-0.2,0.2-0.4,0.4-0.6,0.6l-0.3,0.3l0.1,1.5l-0.2,0.1l-0.9-1.1l-0.4,0.1c-0.3,0.1-0.6,0.1-0.9,0l-0.4-0.1l-0.9,1.1
		l-0.2-0.1l0.1-1.4l-0.3-0.3c-0.2-0.2-0.5-0.4-0.6-0.6l-0.3-0.3l-1.4,0.1l-0.1-0.2l1.1-0.9v-0.4c0-0.3,0-0.6,0-0.9l0.1-0.4l-1.1-1
		l0.1-0.2l1.5,0.2l0.3-0.3c0.2-0.2,0.4-0.4,0.6-0.6l0.3-0.3l-0.1-1.5l0.2-0.1l1,1.2l0.4-0.1c0.3,0,0.5,0,0.8,0l0.4,0.1l1-1.2
		l0.2,0.1l-0.2,1.6l0.3,0.3c0.2,0.2,0.4,0.4,0.6,0.6l0.3,0.3l1.5-0.2l0.1,0.2l-1.2,0.9L23.5,193.7z"/>
</g>
<g>
	<path class="st17" d="M2,254.9v-14.7c0-0.1,0.1-0.1,0.1-0.1h7.8v4h4v1.9h2v-3.6l-4.3-4.3H2.1C1,238.1,0,239,0,240.2v14.7
		c0,1.2,0.9,2.1,2.1,2.1h1.8v-2H2.1C2.1,255,2,255,2,254.9z"/>
	<path class="st17" d="M18.2,251.7c-0.4-0.8-0.9-1.5-1.5-2c-0.2-0.2-0.5-0.4-0.8-0.6c-0.6-0.4-1.3-0.7-2-0.9
		c-0.5-0.1-1.1-0.2-1.6-0.2c-1.7,0-3.2,0.6-4.4,1.7c-0.8,0.8-1.5,1.7-1.8,2.8l0,0c0,0.1,0.1,0.2,0.1,0.4c0.3,0.8,0.7,1.5,1.3,2.1
		c0.1,0.1,0.3,0.3,0.4,0.4c0.2,0.1,0.3,0.3,0.5,0.4c0.8,0.6,1.7,1,2.7,1.2h2.4c0.6-0.1,1.3-0.3,1.8-0.6l0,0c0.5-0.2,0.9-0.5,1.3-0.9
		l0.1-0.1c0.6-0.6,1.1-1.3,1.5-2.1c0.1-0.1,0.1-0.3,0.2-0.4c0-0.1,0.1-0.3,0.1-0.4C18.5,252.3,18.4,252,18.2,251.7z M16,253.3
		c-0.2,0.3-0.4,0.5-0.7,0.7c-0.4,0.4-0.9,0.6-1.3,0.8c-0.3,0.1-0.5,0.2-0.8,0.2c-0.6,0.1-1.2,0.1-1.7,0c-0.7-0.1-1.3-0.4-1.8-0.8
		c-0.6-0.4-1-1-1.4-1.7c0.7-1.5,2.3-2.6,4.1-2.6c0.6,0,1.1,0.1,1.6,0.3c0.8,0.3,1.5,0.9,2,1.6c0.2,0.2,0.3,0.5,0.4,0.7
		C16.3,252.8,16.1,253,16,253.3z"/>
	<path class="st17" d="M12.4,251c-0.8,0-1.5,0.7-1.5,1.5s0.7,1.5,1.5,1.5s1.5-0.7,1.5-1.5C14,251.7,13.3,251,12.4,251z"/>
</g>
<g>
	<circle class="st18" cx="12.5" cy="310.8" r="12.5"/>
	<path class="st19" d="M19.1,307.1l-3.3-3.3c-0.7-0.7-1.8-0.7-2.5,0l-2.3,2.3c-0.7,0.7-0.7,1.8,0,2.5l0.6,0.6l1.1-1.1l-0.6-0.6
		c-0.1-0.1-0.1-0.3,0-0.4l2.3-2.3c0.1-0.1,0.3-0.1,0.4,0l3.2,3.3c0.1,0.1,0.1,0.3,0,0.4l-2.3,2.3c-0.1,0.1-0.3,0.1-0.4,0l-0.4-0.4
		l-1.1,1.1l0.4,0.4c0.4,0.3,0.8,0.5,1.2,0.5s0.9-0.2,1.2-0.5l2.3-2.3C19.8,308.9,19.8,307.8,19.1,307.1z"/>
	<path class="st19" d="M13.7,311.8l-1.1,1.1l0.4,0.4c0.1,0.1,0.1,0.1,0.1,0.2c0,0,0,0.1-0.1,0.2l-2.3,2.3c-0.1,0.1-0.3,0.1-0.4,0
		l-3.2-3.3C7,312.6,7,312.6,7,312.5c0,0,0-0.1,0.1-0.2l2.3-2.3c0.1-0.1,0.3-0.1,0.4,0l0.6,0.6l1.1-1.1l-0.6-0.6
		c-0.7-0.7-1.8-0.7-2.5,0l-2.3,2.3c-0.3,0.3-0.5,0.8-0.5,1.2c0,0.5,0.2,0.9,0.5,1.2l3.3,3.3c0.3,0.3,0.8,0.5,1.2,0.5
		s0.9-0.2,1.2-0.5l2.3-2.3c0.3-0.3,0.5-0.8,0.5-1.2c0-0.5-0.2-0.9-0.5-1.2L13.7,311.8z"/>
	<path class="st19" d="M10.8,312.5c0.1,0.1,0.3,0.2,0.5,0.2s0.4-0.1,0.5-0.2l3.1-3.1c0.3-0.3,0.3-0.8,0-1.1s-0.8-0.3-1.1,0l-3.1,3.1
		C10.5,311.7,10.5,312.2,10.8,312.5z"/>
</g>
<path class="st20" d="M7.9,369.3c0.7-0.6,1.1-1.4,1.1-2.3c0-1.7-1.3-3-3-3s-3,1.4-3,3c0,0.9,0.4,1.8,1.1,2.3c-2.4,0.8-4.1,3-4.1,5.7
	v0.1c0,0.3,0,0.7,0.1,1h11.8c0.1-0.3,0.1-0.7,0.1-1V375C12,372.3,10.3,370.1,7.9,369.3z M4,367c0-1.1,0.9-2,2-2s2,0.9,2,2
	c0,1-0.8,1.9-1.8,2c-0.1,0-0.2,0-0.3,0s-0.2,0-0.3,0C4.7,368.8,4,368,4,367z M11,375H1v-0.1c0-2.7,2.1-4.9,4.7-5c0.1,0,0.2,0,0.2,0
	h0.2C8.9,370.1,11,372.3,11,375C11,374.9,11,375,11,375z"/>
<g>
	<path class="st21" d="M10.8,423.1c-2.3,0-4.2,1.9-4.2,4.2c0,2.3,1.9,4.2,4.2,4.2s4.2-1.9,4.2-4.2S13.1,423.1,10.8,423.1z
		 M10.8,429.5c-1.2,0-2.2-1-2.2-2.2s1-2.2,2.2-2.2s2.2,1,2.2,2.2C12.9,428.5,12,429.5,10.8,429.5z"/>
	<path class="st21" d="M19.2,427.8c0-0.3,0-0.6,0-0.9l1.4-1.2c0.6-0.5,0.8-1.3,0.5-2l-0.5-1.1c-0.3-0.7-0.9-1.1-1.6-1.1l-2,0.2
		c-0.2-0.2-0.4-0.4-0.6-0.6l0.2-1.9c0.1-0.8-0.3-1.5-1.1-1.8l-1.1-0.5c-0.7-0.3-1.6-0.1-2.1,0.5l-1.2,1.4c-0.3,0-0.6,0-0.9,0
		L9,417.3c-0.5-0.6-1.3-0.8-2-0.5l-1,0.4c-0.7,0.3-1.2,1-1.1,1.8l0.2,1.8c-0.2,0.2-0.5,0.4-0.7,0.7l-1.8-0.2H2.4
		c-0.7,0-1.4,0.4-1.6,1.1l-0.5,1.1c-0.3,0.7-0.1,1.5,0.5,2l1.4,1.1c0,0.3,0,0.7,0,1l-1.4,1.1c-0.6,0.5-0.8,1.3-0.5,2l0.4,1.1
		c0.3,0.7,0.9,1.1,1.7,1.1l1.9-0.1c0.2,0.3,0.5,0.5,0.8,0.8l-0.2,1.7c-0.1,0.8,0.3,1.5,1.1,1.8l1.1,0.5c0.7,0.3,1.6,0.1,2-0.5
		l1.1-1.3c0.4,0,0.7,0,1.1,0l1.1,1.4c0.3,0.4,0.8,0.7,1.4,0.7c0.2,0,0.4,0,0.7-0.1l1.1-0.5c0.7-0.3,1.2-1,1.1-1.8l-0.1-1.8
		c0.3-0.2,0.5-0.5,0.7-0.7l1.8,0.2h0.2c0.7,0,1.4-0.4,1.6-1.1l0.5-1.1c0.3-0.7,0.1-1.5-0.5-2L19.2,427.8z M18.8,431.2l-2.7-0.3
		l-0.3,0.4c-0.3,0.4-0.7,0.8-1.2,1.1l-0.4,0.3l0.2,2.7l-0.8,0.3l-1.7-2.1l-0.6,0.1c-0.6,0.1-1.1,0.1-1.7,0L9,433.6l-1.7,2l-0.8-0.3
		l0.3-2.6l-0.4-0.3c-0.4-0.4-0.8-0.8-1.2-1.2L5,430.8L2.4,431l-0.3-0.8l2.1-1.7L4.1,428c-0.1-0.5-0.1-1.1,0-1.6l0.1-0.5l-2.1-1.7
		l0.3-0.8l2.7,0.3l0.3-0.4c0.3-0.4,0.7-0.8,1.1-1.1l0.4-0.3V419l0.8-0.3l1.7,2.2l0.5-0.1c0.5,0,1,0,1.5,0l0.5,0.1l1.8-2.1l0.8,0.3
		l-0.3,2.8l0.4,0.3c0.4,0.3,0.8,0.7,1.1,1.1l0.3,0.4l2.8-0.2l0.3,0.8L17,426l0.1,0.5c0.1,0.5,0.1,1,0,1.6l-0.1,0.5l2.1,1.8
		L18.8,431.2z"/>
</g>
<g>
	<path class="st22" d="M20,493.1H2v-12h12v-2h-3c-0.7-1-1.4-1.9-1.7-1.9H1c-0.6,0-1,0.5-1,1v14.9c0,1.1,0.9,2,2,2h8v2H8v2h6v-2h-2
		v-2h8c1.1,0,2-0.9,2-2v-6h-2V493.1z"/>
	<rect x="3.1" y="497.2" class="st22" width="4" height="2"/>
	<rect x="15" y="497.2" class="st22" width="4" height="2"/>
	<path class="st22" d="M23.2,482.1L23.2,482.1c0-0.3,0-0.6,0-0.9l0,0l0,0l0.8-0.6c0.2-0.1,0.3-0.4,0.2-0.6l-0.1-0.2
		c-0.1-0.2-0.3-0.4-0.6-0.4l-1,0.1l0,0c-0.2-0.2-0.4-0.4-0.6-0.6l0,0l0.1-1.1c0-0.3-0.1-0.5-0.4-0.6l-0.2-0.1
		c-0.2-0.1-0.5,0-0.6,0.2l-0.7,0.8H20c-0.3,0-0.5,0-0.8,0l0,0l-0.7-0.8c-0.2-0.2-0.4-0.3-0.6-0.2l-0.2,0.1c-0.2,0.1-0.4,0.3-0.3,0.5
		l0.1,1l0,0c-0.2,0.2-0.4,0.4-0.6,0.6l0,0l-1-0.1c-0.3,0-0.5,0.1-0.6,0.3l-0.1,0.2c-0.1,0.2,0,0.5,0.1,0.6l0.8,0.7v0.1
		c0,0.3,0,0.6,0,0.8v0.1l-0.8,0.6c-0.2,0.2-0.3,0.4-0.2,0.6l0.1,0.2c0.1,0.2,0.3,0.4,0.6,0.3l1-0.1l0,0c0.2,0.3,0.4,0.5,0.6,0.7l0,0
		l-0.1,0.9c0,0.2,0.1,0.5,0.3,0.6l0.2,0.1c0.2,0.1,0.5,0,0.6-0.1l0.6-0.7h0.1c0.3,0,0.6,0,0.9,0h0.1l0.6,0.7
		c0.1,0.1,0.3,0.2,0.4,0.2s0.1,0,0.2,0l0.2-0.1c0.2-0.1,0.4-0.3,0.4-0.6l-0.1-1l0,0c0.3-0.2,0.5-0.4,0.6-0.6l0,0l1,0.1
		c0.3,0,0.5-0.1,0.6-0.3l0.1-0.2c0.1-0.2,0-0.5-0.1-0.6L23.2,482.1z M19.6,483.4c-1,0-1.8-0.8-1.8-1.8s0.8-1.8,1.8-1.8
		s1.8,0.8,1.8,1.8S20.6,483.4,19.6,483.4z"/>
</g>
<g>
	<path class="st22" d="M2,551.7c0-4.8,3.9-8.7,8.7-8.7c4.2,0,7.7,2.9,8.5,6.8l1.5-2c-1.5-4-5.4-6.8-10-6.8C4.8,541,0,545.8,0,551.7
		c0,5.6,4.3,10.2,9.8,10.7l1.5-2c-0.2,0-0.4,0-0.6,0C5.9,560.4,2,556.5,2,551.7z"/>
	<polygon class="st22" points="9.7,546 9.7,552.9 15.7,552.9 15.7,550.9 11.7,550.9 11.7,546 	"/>
	<path class="st22" d="M25.3,554.8l-2.5,2.5l-0.1-0.1l-2.6-2.6l2.5-2.5c-0.3-0.1-0.7-0.2-1.1-0.2c-2.2,0-3.9,1.8-3.9,3.9
		c0,0.4,0.1,0.9,0.2,1.3l-3.8,3.8c-0.7,0.7-0.7,1.8,0,2.5s1.8,0.7,2.5,0l3.8-3.8c0.4,0.2,0.8,0.2,1.3,0.2c2.2,0,3.9-1.8,3.9-3.9
		C25.4,555.4,25.4,555.1,25.3,554.8z"/>
</g>
<g>
	<path class="st0" d="M20,675.1H2v-12h12v-2h-3c-0.7-1-1.4-1.9-1.7-1.9H1c-0.6,0-1,0.5-1,1V675c0,1.1,0.9,2,2,2h8v2H8v2h6v-2h-2v-2
		h8c1.1,0,2-0.9,2-2v-6h-2V675.1z"/>
	<rect x="3.1" y="679.2" class="st0" width="4" height="2"/>
	<rect x="15" y="679.2" class="st0" width="4" height="2"/>
	<path class="st0" d="M23.2,664.1L23.2,664.1c0-0.3,0-0.6,0-0.9l0,0l0,0l0.8-0.6c0.2-0.2,0.3-0.4,0.2-0.7l-0.1-0.2
		c-0.1-0.2-0.3-0.4-0.6-0.3l-1,0.1l0,0c-0.2-0.2-0.4-0.4-0.6-0.6l0,0l0.1-1.1c0-0.3-0.1-0.5-0.4-0.6l-0.2-0.1
		c-0.2-0.1-0.5,0-0.6,0.2l-0.7,0.8H20c-0.3,0-0.5,0-0.8,0l0,0l-0.7-0.8c-0.2-0.2-0.4-0.3-0.6-0.2l-0.2,0.1c-0.2,0.1-0.4,0.3-0.3,0.5
		l0.1,1l0,0c-0.2,0.2-0.4,0.4-0.6,0.6l0,0l-1-0.1c-0.3,0-0.5,0.1-0.6,0.3l-0.1,0.2c-0.1,0.2,0,0.5,0.1,0.6l0.8,0.7v0.1
		c0,0.3,0,0.6,0,0.8v0.1l-0.8,0.6c-0.2,0.2-0.3,0.4-0.2,0.7l0.1,0.2c0.1,0.2,0.3,0.4,0.6,0.3l1-0.1l0,0c0.2,0.3,0.4,0.5,0.6,0.7l0,0
		l-0.1,0.9c0,0.2,0.1,0.5,0.3,0.6l0.2,0.1c0.2,0.1,0.5,0,0.6-0.2l0.6-0.7h0.1c0.3,0,0.6,0,0.9,0h0.1l0.6,0.7
		c0.1,0.1,0.3,0.2,0.4,0.2s0.1,0,0.2,0l0.2-0.1c0.2-0.1,0.4-0.3,0.4-0.6l-0.1-1l0,0c0.3-0.2,0.5-0.4,0.6-0.6l0,0l1,0.1
		c0.3,0,0.5-0.1,0.6-0.3l0.1-0.2c0.1-0.2,0-0.5-0.1-0.7L23.2,664.1z M19.6,665.4c-1,0-1.8-0.8-1.8-1.8s0.8-1.8,1.8-1.8
		s1.8,0.8,1.8,1.8S20.6,665.4,19.6,665.4z"/>
</g>
<g>
	<path class="st0" d="M2,722.7c0-4.8,3.9-8.7,8.7-8.7c4.2,0,7.7,2.9,8.5,6.8l1.5-2c-1.5-4-5.4-6.8-10-6.8C4.8,712,0,716.8,0,722.7
		c0,5.6,4.3,10.2,9.8,10.7l1.5-2c-0.2,0-0.4,0-0.6,0C5.9,731.4,2,727.5,2,722.7z"/>
	<polygon class="st0" points="9.7,717 9.7,723.9 15.7,723.9 15.7,721.9 11.7,721.9 11.7,717 	"/>
	<path class="st0" d="M25.3,725.8l-2.5,2.5l-0.1-0.1l-2.6-2.6l2.5-2.5c-0.3-0.1-0.7-0.2-1.1-0.2c-2.2,0-3.9,1.8-3.9,3.9
		c0,0.4,0.1,0.9,0.2,1.3l-3.8,3.8c-0.7,0.7-0.7,1.8,0,2.5s1.8,0.7,2.5,0l3.8-3.8c0.4,0.2,0.8,0.2,1.3,0.2c2.2,0,3.9-1.8,3.9-3.9
		C25.4,726.4,25.4,726.1,25.3,725.8z"/>
</g>
<g>
	<path class="st23" d="M14.9,604.6H12v-1H4v1H1H0v2h1V619c0,0.9,0.7,1.6,1.6,1.6h10.8c0.9,0,1.6-0.7,1.6-1.6v-12.4h1v-2H14.9z
		 M12.9,618.6H3v-12h9.9V618.6z"/>
	<rect x="5" y="608.5" class="st23" width="2" height="8"/>
	<rect x="9" y="608.5" class="st23" width="2" height="8"/>
</g>
<g>
	<path class="st24" d="M14.9,1189.3H12v-1H4v1H1H0v2h1v12.4c0,0.9,0.7,1.6,1.6,1.6h10.8c0.9,0,1.6-0.7,1.6-1.6v-12.4h1v-2H14.9z
		 M12.9,1203.3H3v-12h9.9V1203.3z"/>
	<rect x="5" y="1193.2" class="st24" width="2" height="8"/>
	<rect x="9" y="1193.2" class="st24" width="2" height="8"/>
</g>
<g>
	<path class="st0" d="M14.9,778.3H12v-1H4v1H1H0v2h1v12.4c0,0.9,0.7,1.6,1.6,1.6h10.8c0.9,0,1.6-0.7,1.6-1.6v-12.4h1v-2H14.9z
		 M12.9,792.3H3v-12h9.9V792.3z"/>
	<rect x="5" y="782.2" class="st0" width="2" height="8"/>
	<rect x="9" y="782.2" class="st0" width="2" height="8"/>
</g>
<g>
	<polygon class="st25" points="10,837.5 10,845.4 15.7,845.4 15.7,843.4 12,843.4 12,837.5 	"/>
	<path class="st25" d="M11.1,833.6c-3.3,0-6.2,1.5-8.2,3.7l-3-3v6.5h6.6l-2.2-2.2c1.6-1.9,4.1-3.2,6.8-3.2c4.9,0,8.8,4,8.8,8.8
		s-4,8.8-8.8,8.8c-4.5,0-8.3-3.5-8.8-7.9h-2c0.5,5.5,5.1,9.9,10.8,9.9c6,0,10.8-4.8,10.8-10.8S17.1,833.6,11.1,833.6z"/>
</g>
<g>
	<path class="st25" d="M20,896H2c-1.1,0-2,0.9-2,2v4c0,1.1,0.9,2,2,2h18c1.1,0,2-0.9,2-2v-4C22,896.9,21.1,896,20,896z M2,902v-4h18
		v4H2z"/>
	<path class="st25" d="M20,905H2c-1.1,0-2,0.9-2,2v4c0,1.1,0.9,2,2,2h18c1.1,0,2-0.9,2-2v-4C22,905.9,21.1,905,20,905z M2,911.1v-4
		h18v4H2z"/>
	<rect x="3.1" y="899" class="st25" width="5" height="2"/>
	<rect x="3.1" y="908" class="st25" width="5" height="2"/>
</g>
<g>
	<path class="st25" d="M11,953.6c-6.1,0-11,5-11,11s4.9,11,11,11s11-5,11-11S17.1,953.6,11,953.6z M11,973.7c-5,0-9-4-9-9s4.1-9,9-9
		c5,0,9,4,9,9S16,973.7,11,973.7z"/>
	<path class="st25" d="M17.7,963.9l-3.9-3.9l-1.4,1.4l2.2,2.2h-7l2.2-2.2L8.4,960l-3.9,3.9c-0.4,0.4-0.4,1,0,1.4l3.9,3.9l1.4-1.4
		l-2.2-2.2h7l-2.2,2.2l1.4,1.4l3.9-3.9C18.1,965,18.1,964.3,17.7,963.9z"/>
</g>
<path class="st26" d="M15,1032.7H1c-0.6,0-1-0.4-1-1v-14c0-0.5,0.4-1,1-1h14c0.6,0,1,0.5,1,1v14C16,1032.3,15.5,1032.7,15,1032.7z"
	/>
<g>
	<path class="st27" d="M15,1089.9H1c-0.6,0-1-0.4-1-1v-14c0-0.6,0.4-1,1-1h14c0.6,0,1,0.4,1,1v14C16,1089.5,15.5,1089.9,15,1089.9z"
		/>
	<path class="st28" d="M4.2,1082l2.4,2.2c0.2,0.2,0.5,0.2,0.7,0l4.5-4.8"/>
</g>
<g>
	<rect x="12" y="1149.4" class="st0" width="4" height="1"/>
	<rect x="1" y="1149.4" class="st0" width="4" height="1"/>
	<path class="st0" d="M8.9,1147.3v-0.9h-1v0.9c-1,0.2-1.8,1-2,2.1c0,0.1,0,0.3,0,0.4c0,0.2,0,0.4,0.1,0.6c0.3,1.2,1.3,2,2.5,2
		s2.3-0.9,2.5-2c0-0.2,0.1-0.4,0.1-0.6s0-0.3,0-0.4C10.9,1148.3,10,1147.5,8.9,1147.3z M10,1150.4c-0.2,0.6-0.8,1-1.5,1
		s-1.2-0.4-1.5-1c-0.1-0.2-0.1-0.4-0.1-0.6s0-0.3,0.1-0.4c0.1-0.5,0.5-0.8,0.9-1c0.2-0.1,0.4-0.1,0.6-0.1c0.1,0,0.3,0,0.4,0.1
		c0.5,0.1,0.9,0.5,1.1,1c0.1,0.1,0.1,0.3,0.1,0.4C10.1,1150,10,1150.2,10,1150.4z"/>
	<path class="st0" d="M15.4,1132.4h-7l-2.6-2H1.5c-0.8,0-1.5,0.7-1.5,1.5v12.1c0,0.8,0.7,1.5,1.5,1.5h13.9c0.8,0,1.5-0.7,1.5-1.5
		v-10.1C16.9,1133.1,16.2,1132.4,15.4,1132.4z M15.9,1143.9c0,0.3-0.2,0.5-0.5,0.5H1.5c-0.3,0-0.5-0.2-0.5-0.5v-7.6h14.9V1143.9z
		 M15.9,1135.3H1v-3.5c0-0.3,0.2-0.5,0.5-0.5h3.9l2.6,2h7.4c0.3,0,0.5,0.2,0.5,0.5V1135.3z"/>
</g>
<g>
	<path class="st24" d="M2,70.9h14v3h2v-3c0-1.1-0.9-2-2-2H9c-0.3-0.5-0.7-1-1-1.3C7.7,67.2,7.5,67,7.3,67H1c-0.6,0-1,0.5-1,1v13.8
		c0,1.1,0.9,2,2,2h7.9v-2H2V70.9z"/>
	<polygon class="st24" points="12.9,74.8 9.9,74.8 9.9,71.9 7.9,71.9 7.9,74.8 5,74.8 5,76.8 7.9,76.8 7.9,79.8 9.9,79.8 9.9,76.8 
		12.9,76.8 	"/>
	<path class="st24" d="M21.9,79.3l-5-4v2.5c-1.5,0-4.9,0.6-5.8,6.1c0,0,2.4-2.8,5.8-3.2v2.7L21.9,79.3z"/>
</g>
<g>
	<polygon class="st29" points="180.8,1149.5 180.7,1149.6 175.4,1150 175.8,1144.7 175.9,1144.6 	"/>
	
		<rect x="177.8" y="1138.7" transform="matrix(0.7071 -0.7071 0.7071 0.7071 -753.9907 464.0773)" class="st29" width="10.8" height="7"/>
	<rect x="187.4" y="1132" transform="matrix(0.7071 -0.7071 0.7071 0.7071 -747.294 466.8538)" class="st29" width="5" height="7"/>
</g>
<g>
	<line class="st30" x1="190.1" y1="1191.4" x2="176.3" y2="1205.2"/>
	<line class="st30" x1="176.3" y1="1191.4" x2="190.1" y2="1205.2"/>
</g>
<g>
	<path class="st31" d="M11.9,1295.7l-5.1,5.1c-0.4,0.4-1,0.4-1.4,0l0,0l-5.1-5.1c-0.4-0.4-0.4-1,0-1.4s1-0.4,1.4,0l0,0l4.4,4.4
		l4.4-4.4c0.4-0.4,1-0.4,1.4,0l0,0C12.3,1294.6,12.3,1295.3,11.9,1295.7L11.9,1295.7z"/>
	<path class="st31" d="M0.4,1251.8l5.1-5.1c0.4-0.4,1-0.4,1.4,0l0,0l5.1,5.1c0.4,0.4,0.4,1,0,1.4s-1,0.4-1.4,0l0,0l-4.4-4.4
		l-4.4,4.4c-0.4,0.4-1,0.4-1.4,0l0,0C0,1252.8,0,1252.1,0.4,1251.8L0.4,1251.8z"/>
</g>
<g>
	<path class="st0" d="M20.7,2h-8.3l-3-2h-7C1.1,0,0,1.1,0,2.4v13.4c0,1.3,1.1,2.4,2.4,2.4h8.2v1.2h2v-1.2h8.1c1.3,0,2.4-1.1,2.4-2.4
		V4.4C23.1,3.1,22,2,20.7,2z M21.1,15.8c0,0.2-0.2,0.4-0.4,0.4H2.4C2.2,16.2,2,16,2,15.8V2.4C2,2.2,2.2,2,2.4,2h6.4l2.9,2h9
		c0.2,0,0.4,0.2,0.4,0.4V15.8z"/>
	<rect x="3.1" y="21.6" class="st0" width="5.3" height="2"/>
	<rect x="14.7" y="21.6" class="st0" width="5.3" height="2"/>
	<rect x="9.2" y="20.2" class="st0" width="4.7" height="4.7"/>
</g>
<g>
	<g>
		<path class="st32" d="M193.2,1249.1l-0.7-0.7l-2-2h-11.8c-1.3,0-2.4,1.1-2.4,2.4v17.2c0,1.3,1.1,2.4,2.4,2.4h14.1
			c1.3,0,2.4-1.1,2.4-2.4l0,0v-14.9L193.2,1249.1z M193.2,1266c0,0.2-0.2,0.4-0.4,0.4l0,0h-14.1c-0.2,0-0.4-0.2-0.4-0.4l0,0v-17.2
			c0-0.2,0.2-0.4,0.4-0.4l0,0h10.6v3.9h4L193.2,1266z"/>
	</g>
	<g>
		<rect x="183.3" y="1255.3" class="st32" width="8" height="2"/>
	</g>
	<g>
		<rect x="180.3" y="1255.3" class="st32" width="2" height="2"/>
	</g>
	<g>
		<rect x="183.3" y="1260.4" class="st32" width="8" height="2"/>
	</g>
	<g>
		<rect x="180.3" y="1260.4" class="st32" width="2" height="2"/>
	</g>
</g>
<g>
	<g>
		<path class="st0" d="M193.2,1311.1l-0.7-0.7l-2-2h-11.8c-1.3,0-2.4,1.1-2.4,2.4v17.2c0,1.3,1.1,2.4,2.4,2.4h14.1
			c1.3,0,2.4-1.1,2.4-2.4l0,0v-14.9L193.2,1311.1z M193.2,1328c0,0.2-0.2,0.4-0.4,0.4l0,0h-14.1c-0.2,0-0.4-0.2-0.4-0.4l0,0v-17.2
			c0-0.2,0.2-0.4,0.4-0.4l0,0h10.6v3.9h4L193.2,1328z"/>
	</g>
	<g>
		<rect x="183.3" y="1317.3" class="st0" width="8" height="2"/>
	</g>
	<g>
		<rect x="180.3" y="1317.3" class="st0" width="2" height="2"/>
	</g>
	<g>
		<rect x="183.3" y="1322.4" class="st0" width="8" height="2"/>
	</g>
	<g>
		<rect x="180.3" y="1322.4" class="st0" width="2" height="2"/>
	</g>
</g>
<g>
	<path class="st33" d="M2,1345.9h14v3h2v-3c0-1.1-0.9-2-2-2H9c-0.3-0.5-0.7-1-1-1.3c-0.3-0.4-0.5-0.6-0.7-0.6H1c-0.6,0-1,0.5-1,1
		v13.8c0,1.1,0.9,2,2,2h7.9v-2H2V1345.9z"/>
	<polygon class="st33" points="12.9,1349.8 9.9,1349.8 9.9,1346.9 7.9,1346.9 7.9,1349.8 5,1349.8 5,1351.8 7.9,1351.8 7.9,1354.8 
		9.9,1354.8 9.9,1351.8 12.9,1351.8 	"/>
	<path class="st33" d="M21.9,1354.3l-5-4v2.5c-1.5,0-4.9,0.6-5.8,6.1c0,0,2.4-2.8,5.8-3.2v2.7L21.9,1354.3z"/>
</g>
<path class="st34" d="M4,1408.9h5c0.9-0.5,1.9-0.9,3-1v-1H4V1408.9z M7,1417.9H2v-16h8.6l0.4,0.4v3.6h3.6l0.4,0.4v2.1
	c0.7,0.3,1.4,0.8,2,1.3v-3.8l-0.1-0.1l0.2-0.2l-5.6-5.6l-0.2,0.2l-0.2-0.2H2c-1.1,0-2,0.9-2,2v16c0,1.1,0.9,2,2,2h7
	C8.2,1419.3,7.5,1418.7,7,1417.9z M4,1403.9v2h5v-2H4z M17,1417.5c0.6-0.9,1-2,1-3.1c0-3-2.5-5.5-5.5-5.5s-5.5,2.5-5.5,5.5
	s2.5,5.5,5.5,5.5c1.2,0,2.2-0.4,3.1-1l3.2,3.2l1.4-1.4L17,1417.5z M12.5,1417.9c-1.9,0-3.5-1.6-3.5-3.5s1.6-3.5,3.5-3.5
	s3.5,1.6,3.5,3.5S14.4,1417.9,12.5,1417.9z"/>
<path class="st35" d="M4,1471.9h5c0.9-0.5,1.9-0.9,3-1v-1H4V1471.9z M7,1480.9H2v-16h8.6l0.4,0.4v3.6h3.6l0.4,0.4v2.1
	c0.7,0.3,1.4,0.8,2,1.3v-3.8l-0.1-0.1l0.2-0.2l-5.6-5.6l-0.2,0.2l-0.2-0.2H2c-1.1,0-2,0.9-2,2v16c0,1.1,0.9,2,2,2h7
	C8.2,1482.3,7.5,1481.7,7,1480.9z M4,1466.9v2h5v-2H4z M17,1480.5c0.6-0.9,1-2,1-3.1c0-3-2.5-5.5-5.5-5.5s-5.5,2.5-5.5,5.5
	s2.5,5.5,5.5,5.5c1.2,0,2.2-0.4,3.1-1l3.2,3.2l1.4-1.4L17,1480.5z M12.5,1480.9c-1.9,0-3.5-1.6-3.5-3.5s1.6-3.5,3.5-3.5
	s3.5,1.6,3.5,3.5S14.4,1480.9,12.5,1480.9z"/>
<g>
	<path class="st36" d="M183.5,1372.3l-5.1,8.9c-0.4,0.6,0.1,1.4,0.8,1.4h10.2c0.7,0,1.2-0.8,0.8-1.4l-5.1-8.9
		C184.8,1371.7,183.9,1371.7,183.5,1372.3z"/>
	<g>
		<g>
			<path class="st0" d="M184.5,1379.1h-0.4l-0.3-3c0-0.3,0.2-0.6,0.6-0.6l0,0c0.3,0,0.6,0.2,0.6,0.6L184.5,1379.1z"/>
		</g>
		<g>
			<path class="st0" d="M184.3,1380.9L184.3,1380.9c-0.4,0-0.6-0.2-0.6-0.6l0,0c0-0.3,0.2-0.6,0.6-0.6l0,0c0.3,0,0.6,0.2,0.6,0.6
				l0,0C185,1380.6,184.7,1380.9,184.3,1380.9z"/>
		</g>
	</g>
</g>
<path class="st37" d="M183.9,1435.9L183.9,1435.9c-2.1,0-3.8-1.7-3.8-3.8v-5.4c0-2.1,1.7-3.8,3.8-3.8l0,0c2.1,0,3.8,1.7,3.8,3.8v5.4
	C187.7,1434.2,185.9,1435.9,183.9,1435.9z"/>
<path class="st38" d="M188.7,1428.6H179c-0.6,0-1,0.4-1,1v7.3c0,0.6,0.4,1,1,1h9.7c0.6,0,1-0.4,1-1v-7.3
	C189.7,1429,189.3,1428.6,188.7,1428.6z M184.4,1433.4v1.4c0,0.3-0.2,0.5-0.5,0.5s-0.5-0.2-0.5-0.5v-1.4c-0.4-0.2-0.6-0.5-0.6-1
	c0-0.6,0.5-1.1,1.1-1.1s1.1,0.5,1.1,1.1C185,1432.8,184.7,1433.2,184.4,1433.4z"/>
<g>
	<path class="st25" d="M11.1,1525.6c-3.3,0-6.2,1.5-8.2,3.7l-3-3v6.5h6.6l-2.2-2.2c1.6-1.9,4.1-3.2,6.8-3.2c4.9,0,8.8,4,8.8,8.8
		s-4,8.8-8.8,8.8c-4.5,0-8.3-3.5-8.8-7.9h-2c0.5,5.5,5.1,9.9,10.8,9.9c6,0,10.8-4.8,10.8-10.8S17.1,1525.6,11.1,1525.6z"/>
</g>
<g>
	<g>
		<path class="st25" d="M15,1536.6c0-0.2,0-0.4,0-0.5s0-0.2,0.1-0.2l0.7-0.6c0.1-0.1,0.1-0.2,0.1-0.2l-0.2-0.5
			c0-0.1-0.2-0.2-0.3-0.2l-0.9,0.1c-0.1,0-0.1,0-0.2-0.1s-0.2-0.2-0.4-0.4c0,0-0.1-0.1-0.1-0.2l0.1-0.9c0-0.1,0-0.3-0.2-0.3
			l-0.5-0.2h-0.1c-0.1,0-0.2,0-0.2,0.1l-0.7,0.8h-0.4h-0.3l-0.6-0.8c0-0.1-0.2-0.1-0.2-0.1h-0.1l-0.4,0.2c-0.1,0-0.2,0.2-0.2,0.3
			l0.1,0.9c0,0.1,0,0.2-0.1,0.2c-0.1,0.1-0.3,0.2-0.4,0.4c0,0-0.1,0.1-0.2,0.1l-0.9-0.1c-0.1,0-0.2,0.1-0.3,0.2l-0.2,0.4
			c0,0.1,0,0.3,0.1,0.4l0.7,0.6c0,0,0.1,0.1,0.1,0.2c0,0.2,0,0.4,0,0.5s0,0.2-0.1,0.2l-0.7,0.5c-0.1,0.1-0.2,0.2-0.1,0.4l0.2,0.4
			c0,0.1,0.2,0.2,0.3,0.2l0.8-0.1c0.1,0,0.2,0,0.2,0.1c0.1,0.2,0.2,0.3,0.4,0.4c0,0,0.1,0.1,0.1,0.2l-0.1,0.8c0,0.1,0,0.3,0.2,0.3
			l0.4,0.2h0.1c0.1,0,0.2,0,0.2-0.1l0.5-0.7c0,0,0.1-0.1,0.2-0.1c0.1,0,0.2,0,0.3,0c0.1,0,0.2,0,0.4,0l0.6,0.7
			c0,0.1,0.2,0.1,0.2,0.1h0.1l0.4-0.2c0.1,0,0.2-0.2,0.2-0.3l-0.1-0.9c0-0.1,0-0.2,0.1-0.2c0.2-0.1,0.3-0.2,0.4-0.4
			c0,0,0.1-0.1,0.2-0.1l0.9,0.1c0.1,0,0.2-0.1,0.3-0.2l0.2-0.4c0.1-0.1,0-0.3,0-0.4L15,1536.6C15.1,1536.8,15,1536.7,15,1536.6z
			 M11.9,1537.7L11.9,1537.7c-0.5,0-1.1-0.3-1.3-0.8c-0.5-1.3,0.9-2.5,2.2-1.5l0,0C13.7,1536.5,13,1537.7,11.9,1537.7z"/>
	</g>
</g>
</svg>
