<?xml version="1.0" encoding="utf-8"?>
<!-- Generator: Adobe Illustrator 24.3.0, SVG Export Plug-In . SVG Version: 6.00 Build 0)  -->
<svg version="1.1" id="Layer_1" xmlns="http://www.w3.org/2000/svg" xmlns:xlink="http://www.w3.org/1999/xlink" x="0px" y="0px"
	 width="101px" height="1214.6px" viewBox="0 0 101 1214.6" style="enable-background:new 0 0 101 1214.6;" xml:space="preserve">
<style type="text/css">
	.st0{fill:#006DBA;}
	.st1{fill:none;stroke:#006DBA;stroke-miterlimit:10;}
	.st2{fill:none;stroke:#B9C8D2;stroke-miterlimit:10;}
	.st3{fill:#0071BD;}
	.st4{fill:#3F4144;}
	.st5{fill:#FFFFFF;}
	.st6{fill:#0070BD;}
	.st7{fill:none;stroke:#E26252;stroke-miterlimit:10;}
	.st8{fill:#4F5051;}
	.st9{fill:#E96060;}
	.st10{fill:#0D72BA;}
	.st11{fill:none;stroke:#FFFFFF;stroke-width:2;stroke-miterlimit:10;}
	.st12{fill:none;stroke:#0072BC;stroke-width:2;stroke-miterlimit:10;}
	.st13{fill:#8D98AA;}
	.st14{fill:#4697CD;}
	.st15{fill:#8FADCD;}
	.st16{fill:#1194CE;}
	.st17{fill:#9CD8EF;}
	.st18{fill-rule:evenodd;clip-rule:evenodd;fill:#9AA3B3;}
	.st19{fill:#C6C6C6;}
	.st20{fill:#F65151;}
	.st21{fill:#7D9AAD;}
	.st22{fill:none;stroke:#FFFFFF;stroke-width:2;stroke-linecap:round;stroke-miterlimit:10;}
	.st23{fill:#FFA500;}
	.st24{fill:none;stroke:#FFFFFF;stroke-width:2;stroke-linecap:round;stroke-linejoin:round;stroke-miterlimit:10;}
</style>
<g>
	<circle class="st0" cx="17.3" cy="11.3" r="5.8"/>
	<circle class="st1" cx="17.3" cy="11.3" r="10.3"/>
</g>
<circle class="st2" cx="17.3" cy="72.3" r="10.3"/>
<path class="st3" d="M16.7,127.6l-3.7-3.7c-0.6-0.6-1.5-0.6-2,0l-3.7,3.7c-0.4,0.4-0.4,1,0,1.4l0,0c0.4,0.4,1,0.4,1.4,0l2.3-2.3v7.6
	h2v-7.6l2.3,2.3c0.4,0.4,1,0.4,1.4,0l0,0C17.1,128.6,17.1,128,16.7,127.6z"/>
<polygon class="st4" points="12,179.3 7,174.3 16.9,174.3 "/>
<g>
	<path class="st5" d="M21.1,219.9H8.9c-1.1,0-1.9,0.9-1.9,1.9v9.3c0,1.1,0.9,1.9,1.9,1.9h12.2c1.1,0,1.9-0.9,1.9-1.9v-9.3
		C23,220.8,22.2,219.9,21.1,219.9z M22,231.1c0,0.5-0.4,0.9-0.9,0.9H8.9c-0.5,0-0.9-0.4-0.9-0.9v-9.3c0-0.5,0.4-0.9,0.9-0.9h12.2
		c0.5,0,0.9,0.4,0.9,0.9C22,221.8,22,231.1,22,231.1z"/>
	<rect x="11" y="234" class="st5" width="8" height="1"/>
	<polygon class="st5" points="11,226.3 14.1,226.3 14.1,223.6 11,224 	"/>
	<polygon class="st5" points="14.6,226.3 18.1,226.3 18.1,223 14.6,223.5 	"/>
	<polygon class="st5" points="14.6,229.6 18.1,230.1 18.1,226.8 14.6,226.8 	"/>
	<polygon class="st5" points="11,229.1 14.1,229.5 14.1,226.8 11,226.8 	"/>
</g>
<g>
	<circle class="st6" cx="18.2" cy="287.7" r="11.9"/>
	<g>
		<g>
			<path class="st5" d="M24.7,286l-2.9,2.9c-0.5,0.5-1.4,0.5-1.9,0l-0.6-0.6l0.7-0.7l0.6,0.6c0.1,0.1,0.4,0.1,0.5,0l2.9-2.9
				c0.1-0.1,0.1-0.4,0-0.5l-3-3c-0.1-0.1-0.4-0.1-0.5,0l-2.9,2.9c-0.1,0.1-0.1,0.4,0,0.5l0.6,0.6l-0.7,0.7l-0.6-0.6
				c-0.5-0.5-0.5-1.4,0-1.9l2.9-2.9c0.5-0.5,1.4-0.5,1.9,0l3,3C25.3,284.7,25.3,285.5,24.7,286z"/>
		</g>
		<g>
			<path class="st5" d="M19.5,291.3l-2.9,2.9c-0.5,0.5-1.4,0.5-1.9,0l-3-3c-0.5-0.5-0.5-1.4,0-1.9l2.9-2.9c0.5-0.5,1.4-0.5,1.9,0
				L17,287l-0.7,0.7l-0.6-0.6c-0.1-0.1-0.4-0.1-0.5,0l-2.9,2.9c-0.1,0.1-0.1,0.4,0,0.5l3,3c0.1,0.1,0.4,0.1,0.5,0l2.9-2.9
				c0.1-0.1,0.1-0.4,0-0.5l-0.6-0.6l0.7-0.7l0.6,0.6C20,289.9,20,290.8,19.5,291.3z"/>
		</g>
		<g>
			
				<rect x="13.8" y="287.3" transform="matrix(0.7071 -0.7071 0.7071 0.7071 -198.2169 97.0683)" class="st5" width="8.5" height="1"/>
		</g>
	</g>
</g>
<g>
	<circle class="st7" cx="18.2" cy="351.7" r="10.9"/>
	<g>
		<line class="st7" x1="14.1" y1="347.6" x2="22.4" y2="355.8"/>
		<line class="st7" x1="22.3" y1="347.6" x2="14.2" y2="355.9"/>
	</g>
</g>
<g>
	<path class="st8" d="M19.7,405h-1h-2v-1h-7v1h-2h-1v2h1v9.6c0,0.8,0.6,1.4,1.4,1.4h8.2c0.8,0,1.4-0.6,1.4-1.4V407h1
		C19.7,407,19.7,405,19.7,405z M16.7,416h-7v-9h7V416z"/>
	<rect x="10.7" y="408" class="st8" width="2" height="6.9"/>
	<rect x="13.7" y="408" class="st8" width="2" height="6.9"/>
</g>
<g>
	<path class="st9" d="M18.7,459.6h-2v-1h-7v1h-2h-1v2h1v9.6c0,0.8,0.6,1.4,1.4,1.4h8.2c0.8,0,1.4-0.6,1.4-1.4v-9.6h1v-2H18.7z
		 M16.7,470.6h-7v-9h7V470.6z"/>
	<rect x="10.7" y="462.6" class="st9" width="2" height="6.9"/>
	<rect x="13.7" y="462.6" class="st9" width="2" height="6.9"/>
</g>
<g>
	<g>
		<rect x="9" y="526.6" class="st5" width="1.8" height="1"/>
	</g>
	<g>
		<path class="st5" d="M22.8,514.2v3.4h-1v-3.4c0-0.4-0.3-0.6-0.6-0.6H8.4c-0.3,0-0.6,0.3-0.6,0.6v9.8c0,0.3,0.3,0.6,0.6,0.6h2.4v1
			H8.4c-0.9,0-1.6-0.7-1.6-1.6v-9.8c0-0.9,0.7-1.6,1.6-1.6h12.8C22.1,512.5,22.8,513.3,22.8,514.2z"/>
	</g>
	<g>
		<path class="st5" d="M24.8,527.6h-13v-9h13.1v9H24.8z M12.8,526.6h11.1v-7H12.8V526.6z"/>
	</g>
	<g>
		<g>
			<path class="st5" d="M15.7,524.4l1.1-3.5h0.9l-1.6,4.5h-0.8l-1.6-4.5h0.9L15.7,524.4z"/>
		</g>
		<g>
			<path class="st5" d="M19.3,520.8l1.3,3.4l1.3-3.4h1v4.5h-0.8v-1.5l0.1-2l-1.3,3.5h-0.6l-1.3-3.5l0.1,2v1.5h-0.8v-4.5H19.3z"/>
		</g>
	</g>
</g>
<g>
	<circle class="st10" cx="15.4" cy="631.8" r="8.6"/>
	<line class="st11" x1="15.4" y1="630" x2="15.4" y2="636.3"/>
	<line class="st11" x1="15.4" y1="627.2" x2="15.4" y2="629"/>
</g>
<polyline class="st12" points="7,579 10.7,582.9 18.7,575 "/>
<g>
	<path class="st13" d="M18.9,681.9H9.1c-1.2,0-2.1,1-2.1,2.1v16.4c0,1.2,1,2.1,2.1,2.1h12.5c1.2,0,2.1-1,2.1-2.1v-14.7L18.9,681.9z
		 M21.7,700.4C21.7,700.5,21.6,700.5,21.7,700.4l-12.6,0.1c-0.1,0-0.1-0.1-0.1-0.1v-16.3c0-0.1,0.1-0.1,0.1-0.1h8.7v3.7h3.9
		C21.7,687.7,21.7,700.4,21.7,700.4z"/>
	<g>
		<rect x="11.4" y="692.8" class="st13" width="8" height="2"/>
		<rect x="11.4" y="696.2" class="st13" width="8" height="2"/>
	</g>
</g>
<g>
	<path class="st14" d="M9,744.9h6v5h2v-5.7c0-0.7-0.6-1.3-1.3-1.3H8.3c-0.7,0-1.3,0.6-1.3,1.3v13.4c0,0.7,0.6,1.3,1.3,1.3H12v-2H9
		V744.9z M20,744.9h6v5h2v-5.7c0-0.7-0.6-1.3-1.3-1.3h-7.4c-0.7,0-1.3,0.6-1.3,1.3v5.7h2C20,749.9,20,744.9,20,744.9z M30.2,750.9
		H13.8c-0.5,0-0.8,0.4-0.8,0.8v8.4c0,0.4,0.3,0.8,0.8,0.8h16.5c0.4,0,0.8-0.4,0.8-0.8v-8.4C31,751.3,30.6,750.9,30.2,750.9z
		 M30,759.9H14v-8h16V759.9z M14,745.9h-4v1h4V745.9z M10,748.9h4v-1h-4V748.9z M25,745.9h-4v1h4V745.9z M21,748.9h4v-1h-4V748.9z"
		/>
	<polygon class="st14" points="16.1,756.2 18.2,756.2 18.2,755.5 16.1,755.5 16.1,754.1 18.5,754.1 18.5,753.4 15.3,753.4 
		15.3,758.4 18.5,758.4 18.5,757.7 16.1,757.7 	"/>
	<path class="st14" d="M22,756c-0.2-0.1-0.5-0.3-0.9-0.4c-0.4-0.1-0.7-0.2-0.8-0.4c-0.2-0.1-0.3-0.3-0.3-0.5s0.1-0.4,0.2-0.5
		c0.2-0.1,0.4-0.2,0.7-0.2s0.5,0.1,0.7,0.2s0.2,0.4,0.2,0.6h0.9c0-0.3-0.1-0.5-0.2-0.8c-0.2-0.2-0.4-0.4-0.6-0.5s-0.6-0.2-0.9-0.2
		c-0.5,0-0.9,0.1-1.3,0.4c-0.3,0.3-0.5,0.6-0.5,1c0,0.5,0.2,0.8,0.7,1.1c0.2,0.1,0.6,0.3,1,0.4s0.7,0.2,0.8,0.4
		c0.2,0.1,0.2,0.3,0.2,0.5s-0.1,0.4-0.2,0.5c-0.2,0.1-0.4,0.2-0.7,0.2s-0.6-0.1-0.8-0.2c-0.2-0.1-0.3-0.4-0.3-0.7H19
		c0,0.3,0.1,0.6,0.3,0.8c0.2,0.2,0.4,0.4,0.7,0.6c0.3,0.1,0.6,0.2,1,0.2c0.5,0,1-0.1,1.3-0.4c0.3-0.2,0.5-0.6,0.5-1
		c0-0.3-0.1-0.5-0.2-0.7C22.4,756.3,22.2,756.1,22,756z"/>
	<polygon class="st14" points="27.2,753.4 26.2,753.4 25.2,755.2 24.1,753.4 23.1,753.4 24.6,755.9 23.1,758.4 24.1,758.4 
		25.2,756.6 26.2,758.4 27.2,758.4 25.7,755.9 	"/>
	<path class="st14" d="M28.3,754.2c0.2,0,0.3,0,0.3-0.1c0.1-0.1,0.1-0.2,0.1-0.3s0-0.2-0.1-0.3s-0.2-0.1-0.3-0.1s-0.3,0-0.3,0.1
		c-0.1,0.1-0.1,0.2-0.1,0.3s0,0.2,0.1,0.3C28,754.2,28.1,754.2,28.3,754.2z"/>
	<rect x="27.8" y="754.7" class="st14" width="0.8" height="3.7"/>
</g>
<g>
	<rect x="21" y="806.8" class="st14" width="4" height="1"/>
	<rect x="21" y="804.8" class="st14" width="4" height="1"/>
	<rect x="10" y="806.8" class="st14" width="4" height="1"/>
	<rect x="10" y="804.8" class="st14" width="4" height="1"/>
	<path class="st14" d="M30.2,809.8H18.8c-0.5,0-0.8,0.4-0.8,0.8v8.4c0,0.4,0.3,0.8,0.8,0.8h11.5c0.4,0,0.8-0.4,0.8-0.8v-8.4
		C31,810.2,30.6,809.8,30.2,809.8z M30,818.8H19v-8h11V818.8z"/>
	<path class="st14" d="M15.7,801.8H8.3c-0.7,0-1.3,0.6-1.3,1.3v5.7v7.7c0,0.7,0.6,1.3,1.3,1.3H12h3.7c0.7,0,1.3-0.6,1.3-1.3v-7.7
		v-5.7C17,802.4,16.4,801.8,15.7,801.8z M15,815.8h-3H9v-7v-5h6v5V815.8z"/>
	<path class="st14" d="M20,803.8h6v5h2v-5.7c0-0.7-0.6-1.3-1.3-1.3h-7.4c-0.7,0-1.3,0.6-1.3,1.3v5.7h2C20,808.8,20,803.8,20,803.8z"
		/>
	<polygon class="st14" points="22.8,817.3 24.6,812.3 23.4,812.3 22.3,816 21.2,812.3 20,812.3 21.7,817.3 	"/>
	<path class="st14" d="M26.9,817.4c0.6,0,1.1-0.2,1.4-0.5c0.4-0.3,0.6-0.7,0.6-1.3h-1c0,0.3-0.1,0.5-0.3,0.7
		c-0.2,0.1-0.4,0.2-0.7,0.2c-0.4,0-0.6-0.1-0.8-0.4s-0.2-0.6-0.2-1.2v-0.4c0-0.5,0.1-0.9,0.3-1.1c0.2-0.2,0.4-0.4,0.8-0.4
		c0.3,0,0.6,0.1,0.7,0.2c0.2,0.1,0.2,0.4,0.3,0.7h1c-0.1-0.6-0.3-1-0.6-1.3c-0.4-0.3-0.8-0.5-1.4-0.5c-0.4,0-0.8,0.1-1.1,0.3
		c-0.3,0.2-0.6,0.5-0.7,0.8c-0.2,0.4-0.3,0.8-0.3,1.3v0.3c0,0.8,0.2,1.3,0.6,1.8C25.8,817.1,26.3,817.4,26.9,817.4z"/>
</g>
<g>
	<path class="st15" d="M9.7,876.5v-14.7c0-0.1,0.1-0.1,0.1-0.1h7.8v4h4v1.9h2V864l-4.3-4.3H9.8c-1.1,0-2.1,0.9-2.1,2.1v14.7
		c0,1.2,0.9,2.1,2.1,2.1h1.8v-2H9.8C9.8,876.6,9.7,876.6,9.7,876.5z"/>
	<path class="st15" d="M25.9,873.3c-0.4-0.8-0.9-1.5-1.5-2c-0.2-0.2-0.5-0.4-0.8-0.6c-0.6-0.4-1.3-0.7-2-0.9
		c-0.5-0.1-1.1-0.2-1.6-0.2c-1.7,0-3.2,0.6-4.4,1.7c-0.8,0.8-1.5,1.7-1.8,2.8l0,0c0,0.1,0.1,0.2,0.1,0.4c0.3,0.8,0.7,1.5,1.3,2.1
		c0.1,0.1,0.3,0.3,0.4,0.4c0.2,0.1,0.3,0.3,0.5,0.4c0.8,0.6,1.7,1,2.7,1.2h2.4c0.6-0.1,1.3-0.3,1.8-0.6l0,0c0.5-0.2,0.9-0.5,1.3-0.9
		l0.1-0.1c0.6-0.6,1.1-1.3,1.5-2.1c0.1-0.1,0.1-0.3,0.2-0.4c0-0.1,0.1-0.3,0.1-0.4C26.2,873.9,26.1,873.6,25.9,873.3z M23.7,874.9
		c-0.2,0.3-0.4,0.5-0.7,0.7c-0.4,0.4-0.9,0.6-1.3,0.8c-0.3,0.1-0.5,0.2-0.8,0.2c-0.6,0.1-1.2,0.1-1.7,0c-0.7-0.1-1.3-0.4-1.8-0.8
		c-0.6-0.4-1-1-1.4-1.7c0.7-1.5,2.3-2.6,4.1-2.6c0.6,0,1.1,0.1,1.6,0.3c0.8,0.3,1.5,0.9,2,1.6c0.2,0.2,0.3,0.5,0.4,0.7
		C24,874.4,23.8,874.6,23.7,874.9z"/>
	<path class="st15" d="M20.1,872.6c-0.8,0-1.5,0.7-1.5,1.5s0.7,1.5,1.5,1.5s1.5-0.7,1.5-1.5C21.7,873.3,21,872.6,20.1,872.6z"/>
</g>
<g>
	<g>
		<path class="st16" d="M14.1,919.8c-3.9,0-7.1,3.2-7.1,7.1s3.2,7.1,7.1,7.1s7.1-3.2,7.1-7.1S18,919.8,14.1,919.8z M14.1,933
			c-3.4,0-6.1-2.7-6.1-6.1s2.7-6.1,6.1-6.1s6.1,2.7,6.1,6.1S17.5,933,14.1,933z"/>
		<rect x="13.1" y="925.9" class="st16" width="2" height="4.9"/>
		<rect x="13.1" y="922.9" class="st16" width="2" height="2"/>
	</g>
	<g>
		<g>
			<path class="st17" d="M14.1,974.8c-3.9,0-7.1,3.2-7.1,7.1s3.2,7.1,7.1,7.1s7.1-3.2,7.1-7.1S18,974.8,14.1,974.8z M14.1,988
				c-3.4,0-6.1-2.7-6.1-6.1s2.7-6.1,6.1-6.1s6.1,2.7,6.1,6.1S17.5,988,14.1,988z"/>
			<rect x="13.1" y="980.9" class="st17" width="2" height="4.9"/>
			<rect x="13.1" y="977.9" class="st17" width="2" height="2"/>
		</g>
	</g>
</g>
<g>
	<polygon class="st18" points="19.7,1029.7 19,1029 14,1034 9.1,1029 8.4,1029.7 13.3,1034.7 8.4,1039.6 9.1,1040.3 14,1035.4 
		19,1040.3 19.7,1039.6 14.7,1034.7 	"/>
</g>
<g>
	<path class="st18" d="M22,1095l-1.3,1.3l-4.6-4.6c-2.8,2.1-6.8,1.5-8.8-1.3c-2.1-2.8-1.5-6.8,1.3-8.8c2.8-2.1,6.8-1.5,8.8,1.3
		c0.8,1.1,1.3,2.4,1.2,3.8c0,1.4-0.5,2.7-1.3,3.8L22,1095z M12.3,1082.1c-2.5,0-4.5,2-4.5,4.5s2,4.5,4.5,4.5s4.5-2,4.5-4.5
		C16.9,1084.2,14.8,1082.1,12.3,1082.1L12.3,1082.1z"/>
</g>
<g>
	<circle class="st19" cx="78.2" cy="12" r="11.9"/>
	<g>
		<g>
			<path class="st5" d="M84.7,10.3l-2.9,2.9c-0.5,0.5-1.4,0.5-1.9,0l-0.6-0.6l0.7-0.7l0.6,0.6c0.1,0.1,0.4,0.1,0.5,0L84,9.6
				c0.1-0.1,0.1-0.4,0-0.5l-3-3c-0.1-0.1-0.4-0.1-0.5,0L77.6,9c-0.1,0.1-0.1,0.4,0,0.5l0.6,0.6l-0.7,0.7l-0.6-0.6
				c-0.5-0.5-0.5-1.4,0-1.9l2.9-2.9c0.5-0.5,1.4-0.5,1.9,0l3,3C85.3,9,85.3,9.8,84.7,10.3z"/>
		</g>
		<g>
			<path class="st5" d="M79.5,15.6l-2.9,2.9c-0.5,0.5-1.4,0.5-1.9,0l-3-3c-0.5-0.5-0.5-1.4,0-1.9l2.9-2.9c0.5-0.5,1.4-0.5,1.9,0
				l0.5,0.6L76.3,12l-0.6-0.6c-0.1-0.1-0.4-0.1-0.5,0l-2.9,2.9c-0.1,0.1-0.1,0.4,0,0.5l3,3c0.1,0.1,0.4,0.1,0.5,0l2.9-2.9
				c0.1-0.1,0.1-0.4,0-0.5l-0.6-0.6l0.7-0.7l0.6,0.6C80,14.2,80,15.1,79.5,15.6z"/>
		</g>
		<g>
			<rect x="73.8" y="11.6" transform="matrix(0.7071 -0.7071 0.7071 0.7071 14.3071 58.7442)" class="st5" width="8.5" height="1"/>
		</g>
	</g>
</g>
<g>
	<path class="st20" d="M81.4,83.1C81.4,83.2,81.3,83.2,81.4,83.1L81.4,83.1z"/>
	<g>
		<g>
			<path class="st21" d="M78.6,64.6h-9.8c-1.2,0-2.1,1-2.1,2.1v16.4c0,1.2,1,2.1,2.1,2.1h4.9c-0.4-0.6-0.7-1.3-0.9-2h-4
				c-0.1,0-0.1-0.1-0.1-0.1V66.8c0-0.1,0.1-0.1,0.1-0.1h8.7v3.7h3.9v2.7c0.7,0.1,1.4,0.2,2,0.5v-5.2L78.6,64.6z"/>
			<g>
				<rect x="70.6" y="68.3" class="st21" width="5" height="2"/>
			</g>
			<g>
				<rect x="70.6" y="71.6" class="st21" width="8.8" height="2"/>
			</g>
		</g>
	</g>
	<circle class="st20" cx="80.8" cy="81.1" r="6.1"/>
	<g>
		<line class="st22" x1="78.7" y1="78.9" x2="82.7" y2="82.9"/>
		<line class="st22" x1="82.7" y1="78.9" x2="78.7" y2="82.9"/>
	</g>
</g>
<g>
	<g>
		<path class="st13" d="M78.6,128.6h-9.8c-1.2,0-2.1,1-2.1,2.1v16.4c0,1.2,1,2.1,2.1,2.1h4.3v-2h-4.3c-0.1,0-0.1-0.1-0.1-0.1v-16.3
			c0-0.1,0.1-0.1,0.1-0.1h8.7v3.7h3.9v3.4h2v-5.4L78.6,128.6z"/>
		<g>
			<rect x="70.6" y="132.3" class="st13" width="5" height="2"/>
		</g>
		<g>
			<rect x="70.6" y="135.6" class="st13" width="8.8" height="2"/>
		</g>
	</g>
	<path class="st23" d="M81.4,147.1C81.4,147.2,81.3,147.2,81.4,147.1L81.4,147.1z"/>
	<path class="st23" d="M74.6,150l6.6-10.9c0.2-0.4,0.8-0.4,1,0l6.6,10.9c0.2,0.4,0,0.9-0.5,0.9H75.1C74.6,150.9,74.4,150.4,74.6,150
		z"/>
	<g>
		<line class="st11" x1="81.7" y1="142.9" x2="81.7" y2="146.9"/>
		<line class="st11" x1="81.7" y1="147.9" x2="81.7" y2="149.9"/>
	</g>
</g>
<g>
	<path class="st20" d="M81.4,210.1C81.4,210.2,81.3,210.2,81.4,210.1L81.4,210.1z"/>
	<g>
		<g>
			<path class="st21" d="M78.6,191.6h-9.8c-1.2,0-2.1,1-2.1,2.1v16.4c0,1.2,1,2.1,2.1,2.1h4.9c-0.4-0.6-0.7-1.3-0.9-2h-4
				c-0.1,0-0.1-0.1-0.1-0.1v-16.3c0-0.1,0.1-0.1,0.1-0.1h8.7v3.7h3.9v2.7c0.7,0.1,1.4,0.2,2,0.5v-5.2L78.6,191.6z"/>
			<g>
				<rect x="70.6" y="195.3" class="st21" width="5" height="2"/>
			</g>
			<g>
				<rect x="70.6" y="198.6" class="st21" width="8.8" height="2"/>
			</g>
		</g>
	</g>
	<circle class="st14" cx="80.8" cy="208.1" r="6.1"/>
	<polyline class="st24" points="77.9,207.7 79.8,209.8 83.6,206.4 	"/>
</g>
</svg>
