<?xml version="1.0" encoding="utf-8"?>
<!-- Generator: Adobe Illustrator 27.0.0, SVG Export Plug-In . SVG Version: 6.00 Build 0)  -->
<svg version="1.1" id="Layer_1" xmlns="http://www.w3.org/2000/svg" xmlns:xlink="http://www.w3.org/1999/xlink" x="0px" y="0px"
	 width="203px" height="1077px" viewBox="0 0 203 1077" style="enable-background:new 0 0 203 1077;" xml:space="preserve">
<style type="text/css">
	.st0{fill:#75A1CF;}
	.st1{fill-rule:evenodd;clip-rule:evenodd;fill:#555555;}
	.st2{fill:#EDB61E;}
	.st3{fill:none;stroke:#FFFFFF;stroke-width:2;stroke-miterlimit:10;}
	.st4{fill-rule:evenodd;clip-rule:evenodd;fill:#2DA0EC;stroke:#2DA0EC;stroke-width:0.2;stroke-miterlimit:10;}
	.st5{fill:none;stroke:#0072BC;stroke-width:2;stroke-miterlimit:10;}
	.st6{fill:none;stroke:#E26252;stroke-width:2;stroke-miterlimit:10;}
	.st7{fill:none;stroke:#8691A3;stroke-width:2;stroke-linecap:round;stroke-miterlimit:10;}
	.st8{fill:#8691A3;}
	.st9{fill:none;stroke:#0071BC;stroke-width:2;stroke-linecap:round;stroke-miterlimit:10;}
	.st10{fill:#0071BC;}
	.st11{fill:none;stroke:#FFFFFF;stroke-miterlimit:10;}
</style>
<g>
	<polygon class="st0" points="15.4,28.2 15.3,28.3 10,28.7 10.4,23.4 10.5,23.3 	"/>
	<rect x="12.4" y="17.4" transform="matrix(0.7071 -0.7071 0.7071 0.7071 -9.5641 18.6873)" class="st0" width="10.8" height="7"/>
	<rect x="22" y="10.7" transform="matrix(0.7071 -0.7071 0.7071 0.7071 -2.8586 21.4648)" class="st0" width="5" height="7"/>
</g>
<polygon class="st1" points="19.9,79.9 15.7,84.2 11.4,79.9 10,81.4 14.2,85.6 10,89.8 11.4,91.3 15.7,87 19.9,91.3 21.3,89.8 
	17.1,85.6 21.3,81.4 "/>
<g>
	<path class="st2" d="M10.1,157.3l8.3-13.7c0.2-0.4,0.7-0.4,1,0l8.3,13.7c0.2,0.4,0,0.9-0.5,0.9H10.6
		C10.1,158.1,9.9,157.6,10.1,157.3z"/>
	<line class="st3" x1="18.8" y1="147.9" x2="18.8" y2="153.1"/>
	<line class="st3" x1="18.8" y1="154.4" x2="18.8" y2="156.3"/>
</g>
<g>
	<g>
		<path class="st4" d="M18.6,226h-5.3v0.7h5.3c0.2,0,0.4-0.2,0.4-0.4C18.9,226.2,18.8,226,18.6,226z M10.1,226.4
			c0,0.2,0.2,0.4,0.4,0.4h2.1V226h-2.1C10.3,226,10.1,226.2,10.1,226.4z M51.7,226h-3.2v0.7h3.2c0.2,0,0.4-0.2,0.4-0.4
			C52.1,226.2,51.9,226,51.7,226z M44.6,221.6c0.7-2.9-1.1-5.9-1.5-6.4c-0.1-0.1-0.3-0.2-0.4-0.2c-0.2,0.1-0.3,0.2-0.3,0.4
			c0.1,1.3-0.2,2.6-0.8,3.8c0.1-0.8,0.1-1.9,0-3.3c-0.4-4.6-4.4-6.5-4.6-6.6l-0.6-0.3l0.1,0.6c0.2,1.8-0.2,2.6-1.4,4.8
			c-0.5,0.9-1.1,2-1.8,3.5c-1.9,3.9,0.3,6.8,1.6,8h-1.3v-0.5c-0.3-0.4-0.5-0.7-0.7-1.2v1.6h-6v-2.5h5.6c-0.1-0.2-0.2-0.5-0.2-0.7
			h-1.9v-2.5h1.7c0-0.2,0.1-0.5,0.1-0.7h-5.4v-2.5h6v0.6c0.2-0.5,0.4-0.9,0.5-1.3h-3V214h4.1c0.1-0.2,0.2-0.5,0.3-0.7h-1.3v-2.5h2.3
			c0.1-0.2,0.1-0.5,0.2-0.7h-2.2c-0.2,0-0.4,0.1-0.6,0.2c-0.2-0.1-0.4-0.2-0.6-0.2H27c-0.2,0-0.4,0.1-0.6,0.2
			c-0.2-0.1-0.4-0.2-0.6-0.2h-5.5c-0.5,0-1,0.4-1,1v2c0,0.5,0.4,1,1,1h2.6c0,0.1,0,0.2,0,0.3v2c0,0.1,0,0.2,0,0.2h-2.6
			c-0.5,0-1,0.4-1,1v2c0,0.5,0.4,1,1,1h2.6c0,0.1,0,0.2,0,0.3v2c0,0.1,0,0.2,0,0.3h-2.6c-0.5,0-1,0.4-1,1v2c0,0.5,0.4,0.5,1,0.5h5.8
			c0.2,0,0.4-0.1,0.6-0.2c0.2,0.1,0.4,0.2,0.6,0.2h20.6V226H42C42.6,225.4,44,223.9,44.6,221.6z M27,210.8h6v2.5h-6V210.8z
			 M29.8,214v2.5h-6V214H29.8z M20.3,213.3v-2.5h6v2.5H20.3z M20.3,219.7v-2.5h6v2.5H20.3z M26.3,226h-6v-2.5h6V226z M23.8,222.8
			v-2.5h6v2.5H23.8z M40.8,226h-4.6c-1.1-4.1,0.6-6.3,1.5-7.2c0,2.9,1.5,5.1,1.7,5.3l0.2,0.2l0.3-0.1c0.4-0.1,1-0.5,1.5-0.8
			C41.2,224.4,41,225.4,40.8,226z M41.9,222.5l-0.2-0.1l-0.2,0.1c-0.5,0.4-1.2,0.8-1.6,1c-0.4-0.7-1.6-2.8-1.4-5.4
			c0-0.1-0.1-0.3-0.2-0.4l-0.2-0.1l-0.2,0.1c-0.4,0.2-3.6,2.5-2.5,7.7c-1.2-1.2-3-3.7-1.3-7.2c0.7-1.5,1.3-2.6,1.8-3.4
			c1.1-2,1.6-2.9,1.5-4.5c1.1,0.7,3.4,2.5,3.6,5.7c0.2,3.2-0.2,4.5-0.4,4.9c0,0.1-0.1,0.1-0.1,0.2l0.5,0.5c1.3-1.4,2-3.1,2.2-5
			c0.6,1.1,1.2,3,0.8,4.9c-0.4,1.8-1.5,3.2-2.2,4c0.2-0.8,0.4-1.9,0.4-2.6C42.1,222.7,42,222.6,41.9,222.5z"/>
	</g>
</g>
<g>
	<path class="st4" d="M10,295.4c0,0.2,0.2,0.4,0.4,0.4h3.8V295h-3.8C10.2,295,10,295.2,10,295.4z M45,295l1.4-1.4
		c0.1-0.1,0.1-0.3,0-0.5l-0.4-0.4c0.1-0.3,0.3-0.6,0.3-0.8h0.3c0.3,0,0.5-0.2,0.5-0.5v-1.5c0-0.3-0.2-0.5-0.5-0.5h-0.3
		c-0.1-0.3-0.2-0.6-0.4-0.9l0.4-0.4c0.1-0.1,0.1-0.3,0-0.5l-1.3-1.2c-0.1-0.1-0.3-0.1-0.5,0l-0.4,0.4c-0.3-0.1-0.5-0.3-0.8-0.3v-0.3
		c0-0.3-0.2-0.5-0.5-0.5h-1.5c-0.3,0-0.5,0.2-0.5,0.5v0.3c-0.3,0.1-0.6,0.2-0.8,0.3l-0.4-0.4c-0.1-0.1-0.3-0.1-0.5,0l-1.4,1.4
		c-0.1,0.1-0.1,0.3,0,0.5l0.4,0.4c-0.1,0.3-0.3,0.6-0.4,0.9h-0.3c-0.3,0-0.5,0.2-0.5,0.5v1.5c0,0.3,0.2,0.5,0.5,0.5h0.3
		c0.1,0.3,0.2,0.6,0.3,0.8l-0.4,0.4c-0.1,0.1-0.1,0.3,0,0.5l1.4,1.4l0.1,0.1H20.9l8.4-6.7l0.9,0.8c0.6,0.6,1.6,0.6,2.1,0l1.1-1.2
		l2.3,2.1c0-0.3,0.1-0.6,0.2-0.9l-2-1.8l7.8-8.1v5.3h0.1c0.2,0,0.4,0,0.6,0v-5.4c0-0.2-0.1-0.5-0.2-0.6l0.1-0.1h-0.1
		c-0.2-0.2-0.5-0.4-0.8-0.4h-21c-0.5,0-0.9,0.3-1,0.7h-0.1l0,0c0,0.1,0,0.2,0,0.2v15.4c0,0.1,0,0.2,0,0.3h-4.6v0.8h34.5v-0.8h-4.5
		C44.9,295,44.9,295,45,295z M40.9,279.1l-8.9,9.2c-0.4,0.4-1.2,0.4-1.6,0l-10-9.2H40.9z M20.2,279.8l8.5,7.9l-8.5,6.8V279.8z
		 M40.7,295h-1.3c0,0,0.1,0,0.1-0.1l0.4-0.4C40.2,294.8,40.4,294.9,40.7,295L40.7,295z M43.3,295L43.3,295c0.3-0.2,0.6-0.3,0.8-0.4
		l0.4,0.4l0.1,0.1h-1.3V295z M44.2,293.8c-0.5,0.3-1,0.6-1.6,0.7v0.6h-1.3v-0.6c-0.6-0.1-1.1-0.3-1.6-0.7l-0.5,0.5l-0.9-0.9l0.5-0.5
		c-0.3-0.5-0.6-1-0.7-1.6h-0.7V290h0.7c0.1-0.6,0.3-1.1,0.7-1.6l-0.5-0.5l0.9-0.9l0.5,0.5c0.5-0.3,1-0.6,1.6-0.7v-0.7h1.3v0.7
		c0.6,0.1,1.1,0.3,1.6,0.7l0.5-0.5l0.9,0.9l-0.5,0.5c0.3,0.5,0.6,1,0.7,1.6h0.7v1.3h-0.7c-0.1,0.6-0.3,1.1-0.7,1.6l0.5,0.5l-0.9,0.9
		L44.2,293.8z M42,288.5c-1.3,0-2.3,1-2.3,2.3s1,2.3,2.3,2.3s2.3-1,2.3-2.3S43.3,288.5,42,288.5z M42,292.4c-0.9,0-1.6-0.7-1.6-1.6
		s0.7-1.6,1.6-1.6c0.9,0,1.6,0.7,1.6,1.6C43.6,291.6,42.9,292.4,42,292.4z M52.4,295h-2.7v0.8h2.7c0.2,0,0.4-0.2,0.4-0.4
		C52.8,295.2,52.7,295,52.4,295z"/>
</g>
<g>
	<path class="st4" d="M13,358.1h-2.9c-0.2,0-0.4,0.2-0.4,0.4c0,0.2,0.2,0.4,0.4,0.4H13l0,0V358.1z M21.3,353.5
		c-0.7,0-1.3,0.6-1.3,1.3c0,0.7,0.6,1.3,1.3,1.3c0.7,0,1.3-0.6,1.3-1.3C22.6,354.1,22,353.5,21.3,353.5z M25.5,353.5
		c-0.7,0-1.3,0.6-1.3,1.3c0,0.7,0.6,1.3,1.3,1.3s1.3-0.6,1.3-1.3S26.2,353.5,25.5,353.5z M31.8,348v-3.5l1.1,1l0.6-0.6l-2.1-2
		l-2.1,2l0.6,0.6l1.1-1v3.5H31.8z M27.2,348h2.9v-0.8h-2.9c-1.4,0-2.5-1.1-2.5-2.5s1.1-2.5,2.5-2.5h0.9c0.1-0.2,0.2-0.3,0.4-0.4
		c0-0.1,0-0.3,0-0.4l0,0c0-1.6,1.3-2.9,2.9-2.9s2.9,1.3,2.9,2.9l0,0c0,0.2,0,0.3,0,0.4c0.2,0.1,0.4,0.2,0.4,0.4h0.9
		c1.4,0,2.5,1.1,2.5,2.5s-1.1,2.5-2.5,2.5h-2.9v0.8h2.9c1.8,0,3.3-1.5,3.3-3.3s-1.4-3.4-3.3-3.4h-0.4l0,0c0-2.1-1.7-3.8-3.8-3.8
		s-3.8,1.7-3.8,3.8l0,0h-0.4c-1.8,0-3.3,1.5-3.3,3.3S25.4,348,27.2,348z M42.3,355.2h-9.2c-0.2,0-0.4,0.2-0.4,0.4l0,0
		c0,0.2,0.2,0.4,0.4,0.4h9.2c0.2,0,0.4-0.2,0.4-0.4l0,0C42.7,355.4,42.5,355.2,42.3,355.2z M44.8,357.8v-6.1c0-0.2-0.1-0.4-0.2-0.6
		c0.1-0.1,0.2-0.3,0.2-0.5l-3.4-7.1c-0.3-0.6-0.8-0.8-1.3-0.8h-1.3c0,0.1,0,0.3,0,0.4l0,0c0,0.1,0,0.3,0,0.4h0.9
		c0.2,0,0.6,0.1,0.8,0.4l2.9,6.3c0,0.2,0.2,0.4,0,0.4H18.8c-0.2,0,0-0.2,0-0.4l2.9-6.3c0-0.2,0.6-0.4,0.8-0.4h1.3c0-0.1,0-0.3,0-0.4
		l0,0c0-0.1,0-0.3,0-0.4h-1.7c-0.5,0-0.9,0.2-1.3,0.8l-3.4,7.1c0,0.2,0.1,0.4,0.2,0.5c-0.1,0.2-0.2,0.4-0.2,0.6v6.1
		c0,0.1,0,0.2,0,0.3h-3.8v0.8l0,0h35v-0.8h-3.8C44.8,358,44.8,357.9,44.8,357.8z M44,357.5c0,0.3-0.3,0.6-0.6,0.6H19
		c-0.3,0-0.6-0.3-0.6-0.6v-5.6c0-0.3,0.3-0.6,0.6-0.6h24.5c0.3,0,0.6,0.3,0.6,0.6L44,357.5L44,357.5z M51.1,358.1h-1.7v0.8h1.7
		c0.2,0,0.4-0.2,0.4-0.4S51.4,358.1,51.1,358.1z M42.3,353.5h-9.2c-0.2,0-0.4,0.2-0.4,0.4c0,0.2,0.2,0.4,0.4,0.4h9.2
		c0.2,0,0.4-0.2,0.4-0.4S42.5,353.5,42.3,353.5z"/>
</g>
<g>
	<path class="st4" d="M36.3,420H32v-1.9h3.4c-0.2-0.3-0.4-0.6-0.5-0.9H19.2c-0.7,0-1.3-0.6-1.3-1.3v-1.1h16.5c0-0.1,0-0.2,0-0.2
		c0-0.2,0-0.5,0-0.7H17.9v-12c0-0.7,0.6-1.3,1.3-1.3h21.5c0.7,0,1.3,0.6,1.3,1.3v6.4c0.3,0.1,0.6,0.1,0.9,0.3v-6.3
		c0-1.4-1.1-2.6-2.6-2.6H19.6c-1.4,0-2.6,1.1-2.6,2.6v13.3c0,1.4,1.1,2.6,2.6,2.6h7.7v1.9H14.6v0.9h21.7c0.3,0,0.5-0.2,0.5-0.5
		S36.6,420,36.3,420z M31.1,420h-2.8v-1.9h2.8V420z M10.3,420.5c0,0.3,0.2,0.5,0.5,0.5h2.9v-0.9h-2.9
		C10.5,420,10.3,420.2,10.3,420.5z M44.9,420.5c0,0.3,0.2,0.5,0.5,0.5h2.9v-0.9h-3C45.1,420,44.9,420.2,44.9,420.5z M46.8,414.6
		c0-3.3-2.6-5.9-5.9-5.9c-3.3,0-5.9,2.6-5.9,5.9s2.6,5.9,5.9,5.9C44.1,420.5,46.8,417.8,46.8,414.6z M40.8,419.5c-2.7,0-5-2.2-5-5
		s2.2-5,5-5c2.7,0,5,2.2,5,5S43.6,419.5,40.8,419.5z M51.5,420h-2.4v0.9h2.4c0.3,0,0.5-0.2,0.5-0.5C52,420.2,51.7,420,51.5,420z
		 M38.6,414.3c-0.2,0.2-0.3,0.4-0.4,0.5l0.6,0.4c0.1-0.2,0.2-0.3,0.4-0.5c1-1,2.6-1,3.6,0c0.2,0.2,0.3,0.4,0.4,0.6l0.6-0.3
		c-0.1-0.3-0.3-0.5-0.5-0.7C41.9,413.1,39.9,413.1,38.6,414.3z M39.6,415.2c-0.1,0.1-0.2,0.3-0.3,0.4l0.6,0.4
		c0.1-0.1,0.1-0.2,0.2-0.3c0.5-0.5,1.2-0.5,1.7,0c0.1,0.1,0.2,0.2,0.2,0.3l0.6-0.3c-0.1-0.2-0.2-0.3-0.3-0.5
		C41.5,414.5,40.3,414.5,39.6,415.2z M40.5,416.2c-0.1,0.1-0.1,0.2-0.1,0.3l0.4,0.3l0.6-0.3c0-0.1-0.1-0.2-0.1-0.2
		C41,416,40.7,416,40.5,416.2z M44.1,413.4c-1.8-1.7-4.7-1.7-6.5,0c-0.2,0.2-0.4,0.4-0.6,0.7l0.5,0.4c0.1-0.2,0.3-0.4,0.5-0.6
		c1.5-1.5,4-1.5,5.5,0c0.3,0.3,0.5,0.5,0.6,0.9l0.6-0.3C44.7,414,44.4,413.7,44.1,413.4z"/>
</g>
<g>
	<circle class="st5" cx="23" cy="473.9" r="12"/>
	<polyline class="st5" points="16.1,473.9 20.5,477.9 28.6,470 	"/>
</g>
<g>
	<circle class="st6" cx="23" cy="540.9" r="12"/>
	<line class="st6" x1="27.4" y1="536.6" x2="18.6" y2="545.4"/>
	<line class="st6" x1="18.6" y1="536.6" x2="27.4" y2="545.4"/>
</g>
<g>
	<line class="st7" x1="12" y1="608" x2="27" y2="608"/>
	<path class="st7" d="M22.2,622h-5.4c-1.6,0-2.8-1.3-2.8-2.8V608h11v11.2C25,620.8,23.7,622,22.2,622z"/>
	<line class="st7" x1="17" y1="607" x2="22" y2="607"/>
	<line class="st7" x1="18" y1="612" x2="18" y2="618"/>
	<line class="st7" x1="21" y1="612" x2="21" y2="618"/>
</g>
<path class="st7" d="M12.9,686.9v2.2h3l10.7-11.4c0.2-0.2,0.2-0.6,0-0.8l-1.9-1.8c-0.2-0.2-0.6-0.2-0.8,0L12.9,686.9z"/>
<polygon class="st8" points="22.3,676.9 25,679.5 26.7,677.5 23.9,675.2 "/>
<line class="st7" x1="13.9" y1="689.1" x2="25" y2="689.1"/>
<g>
	<line class="st9" x1="12" y1="742" x2="27" y2="742"/>
	<path class="st9" d="M22.2,756h-5.4c-1.6,0-2.8-1.3-2.8-2.8V742h11v11.2C25,754.8,23.7,756,22.2,756z"/>
	<line class="st9" x1="17" y1="741" x2="22" y2="741"/>
	<line class="st9" x1="18" y1="746" x2="18" y2="752"/>
	<line class="st9" x1="21" y1="746" x2="21" y2="752"/>
</g>
<path class="st9" d="M12.9,820.9v2.2h3l10.7-11.4c0.2-0.2,0.2-0.6,0-0.8l-1.9-1.8c-0.2-0.2-0.6-0.2-0.8,0L12.9,820.9z"/>
<polygon class="st10" points="22.3,810.9 25,813.5 26.7,811.6 23.9,809.2 "/>
<line class="st9" x1="13.9" y1="823.1" x2="25" y2="823.1"/>
<circle class="st11" cx="17" cy="882" r="2.5"/>
<path class="st11" d="M22.5,890.1c0-3-2.5-5.5-5.5-5.5s-5.5,2.5-5.5,5.5v0.4h11V890.1z"/>
</svg>
