<?xml version="1.0" encoding="utf-8"?>
<!-- Generator: Adobe Illustrator 24.3.0, SVG Export Plug-In . SVG Version: 6.00 Build 0)  -->
<svg version="1.1" id="Layer_1" xmlns="http://www.w3.org/2000/svg" xmlns:xlink="http://www.w3.org/1999/xlink" x="0px" y="0px"
	 width="145px" height="1669.7px" viewBox="0 0 145 1669.7" style="enable-background:new 0 0 145 1669.7;" xml:space="preserve">
<style type="text/css">
	.st0{fill:#56BDEA;}
	.st1{fill-rule:evenodd;clip-rule:evenodd;fill:#56BDEA;}
	.st2{fill:#9CA6B6;}
	.st3{fill-rule:evenodd;clip-rule:evenodd;fill:#9CA6B6;}
	.st4{fill:#2DA0EC;}
	.st5{fill:none;stroke:#FFFFFF;stroke-width:2;stroke-miterlimit:10;}
	.st6{fill:#E25D60;}
	.st7{fill:#FFFFFF;}
	.st8{fill:none;stroke:#4F5355;stroke-linecap:round;stroke-miterlimit:10;}
	.st9{fill:#CCCCCC;}
	.st10{fill:#BEC3C5;}
	.st11{fill:none;stroke:#FFFFFF;stroke-width:2;stroke-linecap:round;stroke-miterlimit:10;}
	.st12{fill:#E8BC34;}
	.st13{fill:none;stroke:#FFFFFF;stroke-width:1.6;stroke-miterlimit:10;}
	.st14{fill:none;stroke:#E8BC34;stroke-width:2;stroke-miterlimit:10;}
	.st15{fill:none;stroke:#FFFFFF;stroke-width:1.5;stroke-linecap:round;stroke-miterlimit:10;}
	.st16{fill:#FC9D47;}
</style>
<g>
	<path class="st0" d="M27.9,60.1h-14v2h14c0.6,0,1-0.4,1-1C28.9,60.6,28.5,60.1,27.9,60.1z"/>
	<path class="st0" d="M4.9,61.1c0,0.6,0.4,1,1,1h6v-2h-6C5.3,60.1,4.9,60.6,4.9,61.1z"/>
	<path class="st0" d="M94.1,60.1c2.1-1.8,6.1-5.9,7.7-12.5c2.1-8.4-3.1-16.7-4.1-18.3c-0.3-0.4-0.8-0.6-1.2-0.4
		C96,29,95.7,29.5,95.7,30c0.2,3.8-0.6,7.5-2.2,10.8c0.2-2.3,0.3-5.3,0-9.2c-1-13.1-12.6-18.6-13.1-18.8L78.8,12l0.2,1.8
		c0.7,5.2-0.6,7.5-3.9,13.7c-1.3,2.5-3,5.7-5,9.8c-5.3,11.2,0.8,19.3,4.4,22.8h-3.7v-1.3c-0.7-1-1.4-2.1-2-3.3v4.6h-17v-7h16
		c-0.2-0.6-0.4-1.3-0.6-2h-5.4v-7h4.9c0.1-0.7,0.2-1.3,0.3-2H51.9v-7h17v1.6c0.5-1.3,1-2.5,1.5-3.6h-8.5v-7h11.7
		c0.3-0.7,0.6-1.4,0.9-2h-3.6v-7h6.5c0.2-0.7,0.4-1.4,0.5-2h-6.3c-0.7,0-1.2,0.2-1.7,0.6c-0.5-0.4-1.1-0.6-1.7-0.6H52.6
		c-0.7,0-1.2,0.2-1.7,0.6c-0.5-0.4-1.1-0.6-1.7-0.6H33.6c-1.5,0-2.7,1.2-2.7,2.7v5.6c0,1.5,1.2,2.7,2.7,2.7H41
		c-0.1,0.2-0.1,0.5-0.1,0.7v5.6c0,0.2,0,0.5,0.1,0.7h-7.4c-1.5,0-2.7,1.2-2.7,2.7v5.6c0,1.5,1.2,2.7,2.7,2.7H41
		c-0.1,0.2-0.1,0.5-0.1,0.7v5.6c0,0.3,0,0.5,0.1,0.7h-7.4c-1.5,0-2.7,1.2-2.7,2.7v5.6c0,1.5,1.2,2.7,2.7,2.7h15.6
		c0.7,0,1.2-0.2,1.7-0.6c0.5,0.4,1.1,0.6,1.7,0.6h38.9h11.9h7.6v-2h-9.4C101.6,60.1,94.1,60.1,94.1,60.1z M51.9,17h17v7h-17V17z
		 M59.9,26v7h-17v-7H59.9z M32.9,24v-7h17v7H32.9z M32.9,42.1v-7h17v7H32.9z M49.9,60.1h-17v-7h17V60.1z M42.9,51.1v-7h17v7H42.9z
		 M72,38.2c2-4.1,3.6-7.3,5-9.8c3-5.6,4.5-8.4,4.2-12.9c3.1,2,9.6,7.1,10.3,16.2c0.7,9-0.6,12.7-1.2,13.9c-0.1,0.2-0.2,0.4-0.4,0.6
		l1.5,1.3c3.6-4,5.7-8.9,6.1-14.2c1.6,3.2,3.5,8.6,2.2,13.9c-1.3,5.2-4.2,9.1-6.4,11.4c0.5-2.4,1.2-5.4,1.2-7.4c0-0.4-0.2-0.8-0.6-1
		l-0.6-0.3L93,50.3c-1.4,1-3.3,2.3-4.6,2.8c-1.2-1.9-4.5-7.9-4-15.2c0-0.4-0.2-0.8-0.5-1l-0.6-0.3l-0.5,0.3
		c-1.1,0.7-10.2,7-7.1,21.9C72.3,55.4,67.2,48.1,72,38.2z M82.3,39.7c0.1,8.2,4.3,14.4,4.8,15.1l0.5,0.6l0.7-0.2
		c1.2-0.4,2.9-1.4,4.2-2.3c-0.3,2.4-1,5.5-1.5,7.1H78C74.9,48.4,79.7,42.2,82.3,39.7z"/>
	<path class="st0" d="M121.9,60.1h-9v2h9c0.6,0,1-0.4,1-1C122.9,60.6,122.5,60.1,121.9,60.1z"/>
</g>
<g>
	<path class="st0" d="M5.6,189.8c0,0.5,0.4,1,1,1h9.9v-2H6.6C6.1,188.8,5.6,189.3,5.6,189.8z"/>
	<path class="st0" d="M88.9,183.8c3.3,0,5.9-2.7,5.9-6s-2.7-6-5.9-6c-3.3,0-5.9,2.7-5.9,6C82.9,181.2,85.6,183.8,88.9,183.8z
		 M88.9,173.6c2.3,0,4.2,1.9,4.2,4.3c0,2.4-1.9,4.3-4.2,4.3c-2.3,0-4.2-1.9-4.2-4.3C84.6,175.5,86.5,173.6,88.9,173.6z"/>
	<path class="st0" d="M116.6,188.8h-6.9v2h6.9c0.5,0,1-0.4,1-1C117.6,189.3,117.2,188.8,116.6,188.8z"/>
	<path class="st0" d="M96.8,188.8c0.1,0,0.2-0.1,0.2-0.2l3.5-3.6c0.3-0.3,0.3-0.9,0-1.2l-0.9-0.9c0.4-0.7,0.7-1.4,0.9-2.2h0.8
		c0.7,0,1.3-0.6,1.3-1.3v-4c0-0.7-0.6-1.3-1.3-1.3h-0.8c-0.2-0.8-0.5-1.5-0.9-2.3l0.9-0.9c0.3-0.3,0.3-0.9,0-1.2l-3.5-3.6
		c-0.3-0.3-0.9-0.3-1.2,0l-0.9,0.9c-0.7-0.4-1.4-0.7-2.2-0.9v-0.8c0-0.7-0.6-1.3-1.3-1.3h-4c-0.7,0-1.3,0.6-1.3,1.3v0.8
		c-0.8,0.2-1.5,0.5-2.2,0.9l-0.9-0.9c-0.3-0.3-0.9-0.3-1.2,0l-3.5,3.6c-0.3,0.3-0.3,0.9,0,1.2l0.9,0.9c-0.4,0.7-0.7,1.5-0.9,2.3
		h-0.8c-0.7,0-1.3,0.6-1.3,1.3v4c0,0.7,0.6,1.3,1.3,1.3h0.8c0.2,0.8,0.5,1.5,0.9,2.2l-0.9,0.9c-0.3,0.3-0.3,0.9,0,1.2l3.5,3.6
		c0.1,0.1,0.2,0.1,0.2,0.2H34.1l22.1-17.7l2.3,2.2c1.5,1.6,4.1,1.6,5.6,0l3-3.1l6.1,5.6c0.1-0.8,0.2-1.5,0.4-2.3l-5.2-4.7l20.4-21.3
		v13.9c0.1,0,0.2,0,0.3,0c0.6,0,1.1,0,1.7,0.1v-13.8c0-0.6-0.2-1.2-0.6-1.7l0.1-0.1h-0.2c-0.5-0.6-1.2-0.9-2-0.9h-55
		c-1.2,0-2.2,0.8-2.6,2h-0.1l0.1,0.1c0,0.2-0.1,0.4-0.1,0.6v40.4c0,0.2,0,0.5,0.1,0.7h-12v2h90.2v-2H96.8z M86.5,147l-23.1,24.2
		c-1.2,1.2-3,1.2-4.2,0l-26-24.2H86.5z M32.4,148.9l22.3,20.9l-22.3,17.8V148.9z M79.9,184.5l1.3-1.3c-0.9-1.2-1.5-2.6-1.7-4.1h-1.8
		v-3.4h1.8c0.3-1.5,0.9-2.9,1.7-4.1l-1.3-1.3l2.4-2.4l1.3,1.3c1.2-0.9,2.6-1.5,4.1-1.7v-1.8H91v1.8c1.5,0.3,2.9,0.9,4.1,1.7l1.3-1.3
		l2.4,2.4l-1.3,1.3c0.9,1.2,1.5,2.6,1.7,4.1h1.8v3.4h-1.8c-0.3,1.5-0.9,2.9-1.7,4.1l1.3,1.3l-2.4,2.4l-1.3-1.3
		c-1.2,0.9-2.6,1.5-4.1,1.7v1.5h-3.4v-1.5c-1.5-0.3-2.9-0.9-4.1-1.7l-1.3,1.3L79.9,184.5z M96.1,188.8h-3.4v-0.2
		c0.8-0.2,1.5-0.5,2.2-0.9l0.9,0.9C95.9,188.7,96,188.8,96.1,188.8z M82.9,188.7l0.9-0.9c0.7,0.4,1.4,0.7,2.2,0.9v0.2h-3.4
		C82.7,188.8,82.8,188.7,82.9,188.7z"/>
</g>
<g>
	<g>
		<path class="st0" d="M67.9,292h-6.8v-2h6.8c1.6,0,3.1-0.6,4.3-1.8s1.8-2.7,1.8-4.3c0-3.3-2.7-6-6-6h-3l0.1-1.1
			c0-0.3,0.1-0.6,0.1-0.9c0-3.9-3.2-7-7-7c-3.9,0-7,3.2-7,7c0,0.3,0,0.6,0.1,0.9l0.1,1.1h-3c-1.6,0-3.1,0.6-4.3,1.8
			c-1.1,1.1-1.8,2.7-1.8,4.3c0,3.3,2.7,6,6,6h6.6v2h-6.6c-4.4,0-8-3.6-8-8c0-2.1,0.8-4.2,2.4-5.7s3.5-2.4,5.7-2.4H49l0,0
			c0-5,4.1-9,9-9c5,0,9,4.1,9,9l0,0h0.8c4.4,0,8,3.6,8,8c0,2.1-0.8,4.2-2.4,5.7C72.1,291.2,70.1,292,67.9,292z"/>
	</g>
	<g>
		<path class="st1" d="M34,305c-1.6,0-3,1.3-3,3s1.3,3,3,3c1.6,0,3-1.3,3-3C37,306.4,35.6,305,34,305z M44,305c-1.7,0-3,1.3-3,3
			s1.3,3,3,3s3-1.3,3-3C47,306.4,45.6,305,44,305z M14.1,316h-7c-0.5,0-1,0.4-1,1c0,0.5,0.4,1,1,1h7l0,0V316z M83.9,309h-22
			c-0.6,0-1,0.4-1,1l0,0c0,0.6,0.4,1,1,1h21.9c0.6,0,1-0.4,1-1l0,0C84.9,309.4,84.4,309,83.9,309z M89.9,315.3c0,0,0-16.8,0-17.3
			l-8-17c-0.7-1.4-1.9-2-3-2h-3.1c0.1,0.3,0.1,0.6,0.1,1l0,0c0,0.3,0,0.7-0.1,1h2.1c0.6,0,1.5,0.3,2,1l7,15c0,0.6,0.6,1,0,1H28
			c-0.6,0,0-0.4,0-1l7-15c0-0.6,1.4-1,2-1h3.1c-0.1-0.3-0.1-0.6-0.1-1l0,0c0-0.3,0-0.7,0.1-1H36c-1.1,0-2.2,0.5-3,2l-8,17
			c0,0.5,0,17.3,0,17.3c0,0.3,0,0.5,0.1,0.7H16v2l0,0h82.8v-2h-9.1C89.8,315.8,89.9,315.5,89.9,315.3z M87.9,314.7
			c0,0.7-0.6,1.4-1.4,1.4H28.3c-0.7,0-1.4-0.6-1.4-1.4v-13.3c0-0.7,0.6-1.4,1.4-1.4h58.2c0.7,0,1.4,0.6,1.4,1.4V314.7z M104.8,316
			h-4v2h4c0.5,0,1-0.4,1-1C105.8,316.5,105.4,316,104.8,316z M83.9,305h-22c-0.5,0-1,0.4-1,1c0,0.5,0.4,1,1,1h21.9c0.5,0,1-0.4,1-1
			C84.9,305.5,84.4,305,83.9,305z"/>
	</g>
	<g>
		<rect x="56.9" y="281.7" class="st0" width="2" height="10.3"/>
	</g>
	<g>
		<path class="st0" d="M62,286c-0.3,0-0.5-0.1-0.7-0.3l-3.4-3.4l-3.4,3.4c-0.4,0.4-1,0.4-1.4,0s-0.4-1,0-1.4l4.1-4.1
			c0.4-0.4,1-0.4,1.4,0l4.1,4.1c0.4,0.4,0.4,1,0,1.4C62.5,285.9,62.2,286,62,286z"/>
	</g>
</g>
<g>
	<g>
		<g>
			<path class="st1" d="M18.2,436.1c-0.6,0-1,0.5-1,1s0.4,1,1,1h6v-2H18.2z M103.9,436.1h-5v2h5c0.5,0,1-0.5,1-1
				S104.5,436.1,103.9,436.1z"/>
		</g>
		<g>
			<path class="st1" d="M94,437.1c0-0.5,0.4-1,1-1h-8.6c4.5-1.9,7.6-6.4,7.6-11.6c0-6.3-4.6-11.5-10.6-12.4
				c-0.6-0.1-1.2-0.1-1.8-0.1c-0.5,0-0.9,0-1.3,0.1c-6.3,0.7-11.1,6-11.1,12.5c0,5.2,3.1,9.7,7.6,11.6H63.1v-4h7.2
				c-0.4-0.6-0.8-1.3-1.1-2H33.9c-1.5,0-2.7-1.2-2.7-2.7v-2.3h36.9c0-0.2,0-0.3,0-0.5c0-0.5,0-1,0.1-1.5h-37v-25.4
				c0-1.5,1.2-2.7,2.7-2.7h47.4c1.5,0,2.7,1.2,2.7,2.7v13.6c0.7,0.1,1.3,0.3,2,0.5v-13.4c0-3-2.4-5.4-5.4-5.4h-46
				c-3,0-5.4,2.4-5.4,5.4v28.2c0,3,2.4,5.4,5.4,5.4h18.5v4H26.2v2H95C94.4,438.1,94,437.7,94,437.1z M61.1,436.1h-6v-4h6V436.1z
				 M71.1,424.6c0-0.9,0.1-1.8,0.3-2.6c0.1-0.5,0.3-1,0.5-1.5C73,418,75,416,77.4,415c1.1-0.5,2.4-0.8,3.6-0.8c0.1,0,0.3,0,0.4,0
				c0.3,0,0.6,0,0.9,0c1.5,0.1,2.8,0.5,4,1.2c1.8,1,3.3,2.5,4.3,4.3c0.5,0.9,0.8,1.8,1,2.8c0.2,0.7,0.3,1.5,0.3,2.3
				c0,1.7-0.4,3.3-1.1,4.8c-1.5,2.9-4.3,5.1-7.6,5.6c-0.1,0-0.1,0-0.2,0c-0.5,0.1-1.1,0.1-1.6,0.1h-0.2c-3.5-0.1-6.6-1.9-8.4-4.6
				C71.7,428.9,71.1,426.8,71.1,424.6z"/>
		</g>
		<g>
			<path class="st1" d="M97,436.1v2h-4.9c0.5,0,1-0.5,1-1s-0.5-1-1-1H97z"/>
		</g>
	</g>
	<g>
		<path class="st0" d="M83.4,427.9l-1.4,1.4c-0.1-0.1-0.2-0.1-0.3-0.1s-0.2,0-0.3,0.1l-1.4-1.4c0.5-0.4,1.1-0.7,1.7-0.7
			S82.9,427.5,83.4,427.9z"/>
		<path class="st0" d="M85.7,425.5l-1.4,1.4c-0.7-0.7-1.7-1.1-2.7-1.1s-2,0.4-2.7,1.1l-1.4-1.4c1.1-1,2.5-1.7,4.1-1.7
			C83.2,423.9,84.7,424.5,85.7,425.5z"/>
		<path class="st0" d="M88,423.3l-1.3,1.3c-1.3-1.3-3.1-2-5-2s-3.7,0.8-5,2l-1.3-1.3l0.8-0.8c1.5-1.2,3.4-1.8,5.5-1.8
			c2,0,3.9,0.7,5.4,1.8l0,0L88,423.3z"/>
	</g>
</g>
<g>
	<path class="st2" d="M28.9,571.1h-14v2h14c0.6,0,1-0.4,1-1C29.9,571.6,29.5,571.1,28.9,571.1z"/>
	<path class="st2" d="M5.9,572.1c0,0.6,0.4,1,1,1h6v-2h-6C6.3,571.1,5.9,571.6,5.9,572.1z"/>
	<path class="st2" d="M95.1,571.1c2.1-1.8,6.1-5.9,7.7-12.5c2.1-8.4-3.1-16.7-4.1-18.3c-0.3-0.4-0.8-0.6-1.2-0.4
		c-0.5,0.1-0.8,0.6-0.8,1.1c0.2,3.8-0.6,7.5-2.2,10.8c0.2-2.3,0.3-5.3,0-9.2c-1-13.1-12.6-18.6-13.1-18.8l-1.7-0.8l0.2,1.8
		c0.7,5.2-0.6,7.5-3.9,13.7c-1.3,2.5-3,5.7-5,9.8c-5.3,11.2,0.8,19.3,4.4,22.8h-3.7v-1.3c-0.7-1-1.4-2.1-2-3.3v4.6h-17v-7h16
		c-0.2-0.6-0.4-1.3-0.6-2h-5.4v-7h4.9c0.1-0.7,0.2-1.3,0.3-2h-15v-7h17v1.6c0.5-1.3,1-2.5,1.5-3.6h-8.5v-7h11.7
		c0.3-0.7,0.6-1.4,0.9-2h-3.6v-7h6.5c0.2-0.7,0.4-1.4,0.5-2h-6.3c-0.7,0-1.2,0.2-1.7,0.6c-0.5-0.4-1.1-0.6-1.7-0.6H53.6
		c-0.7,0-1.2,0.2-1.7,0.6c-0.5-0.4-1.1-0.6-1.7-0.6H34.6c-1.5,0-2.7,1.2-2.7,2.7v5.6c0,1.5,1.2,2.7,2.7,2.7H42
		c-0.1,0.2-0.1,0.5-0.1,0.7v5.6c0,0.2,0,0.5,0.1,0.7h-7.4c-1.5,0-2.7,1.2-2.7,2.7v5.6c0,1.5,1.2,2.7,2.7,2.7H42
		c-0.1,0.2-0.1,0.5-0.1,0.7v5.6c0,0.3,0,0.5,0.1,0.7h-7.4c-1.5,0-2.7,1.2-2.7,2.7v5.6c0,1.5,1.2,2.7,2.7,2.7h15.6
		c0.7,0,1.2-0.2,1.7-0.6c0.5,0.4,1.1,0.6,1.7,0.6h38.9h11.9h7.6v-2h-9.4L95.1,571.1L95.1,571.1z M52.9,528h17v7h-17V528z M60.9,537
		v7h-17v-7H60.9z M33.9,535v-7h17v7H33.9z M33.9,553.1v-7h17v7H33.9z M50.9,571.1h-17v-7h17V571.1z M43.9,562.1v-7h17v7H43.9z
		 M73,549.2c2-4.1,3.6-7.3,5-9.8c3-5.6,4.5-8.4,4.2-12.9c3.1,2,9.6,7.1,10.3,16.2c0.7,9-0.6,12.7-1.2,13.9c-0.1,0.2-0.2,0.4-0.4,0.6
		l1.5,1.3c3.6-4,5.7-8.9,6.1-14.2c1.6,3.2,3.5,8.6,2.2,13.9c-1.3,5.2-4.2,9.1-6.4,11.4c0.5-2.4,1.2-5.4,1.2-7.4c0-0.4-0.2-0.8-0.6-1
		l-0.6-0.3l-0.5,0.4c-1.4,1-3.3,2.3-4.6,2.8c-1.2-1.9-4.5-7.9-4-15.2c0-0.4-0.2-0.8-0.5-1l-0.6-0.3l-0.5,0.3
		c-1.1,0.7-10.2,7-7.1,21.9C73.3,566.4,68.2,559.1,73,549.2z M83.3,550.7c0.1,8.2,4.3,14.4,4.8,15.1l0.5,0.6l0.7-0.2
		c1.2-0.4,2.9-1.4,4.2-2.3c-0.3,2.4-1,5.5-1.5,7.1H79C75.9,559.4,80.7,553.2,83.3,550.7z"/>
	<path class="st2" d="M122.9,571.1h-9v2h9c0.6,0,1-0.4,1-1C123.9,571.6,123.5,571.1,122.9,571.1z"/>
</g>
<g>
	<path class="st2" d="M6.8,700.9c0,0.5,0.4,1,1,1h9.7V700H7.8C7.3,699.9,6.8,700.3,6.8,700.9z"/>
	<path class="st2" d="M88.3,695c3.2,0,5.8-2.6,5.8-5.8s-2.6-5.8-5.8-5.8c-3.2,0-5.8,2.6-5.8,5.8S85.1,695,88.3,695z M88.3,685
		c2.3,0,4.2,1.9,4.2,4.2s-1.9,4.2-4.2,4.2c-2.3,0-4.2-1.9-4.2-4.2C84.1,686.9,86,685,88.3,685z"/>
	<path class="st2" d="M115.4,699.9h-6.8v1.9h6.8c0.5,0,1-0.4,1-1C116.4,700.3,116,699.9,115.4,699.9z"/>
	<path class="st2" d="M96,699.9c0.1,0,0.2-0.1,0.2-0.2l3.5-3.5c0.3-0.3,0.3-0.8,0-1.2l-0.9-0.9c0.4-0.7,0.7-1.4,0.9-2.2h0.8
		c0.7,0,1.3-0.6,1.3-1.3v-3.9c0-0.7-0.6-1.3-1.3-1.3h-0.8c-0.2-0.8-0.5-1.5-0.9-2.2l0.9-0.9c0.3-0.3,0.3-0.8,0-1.2l-3.5-3.5
		c-0.3-0.3-0.8-0.3-1.2,0l-0.9,0.9c-0.7-0.4-1.4-0.7-2.2-0.9v-0.8c0-0.7-0.6-1.3-1.3-1.3h-3.9c-0.7,0-1.3,0.6-1.3,1.3v0.8
		c-0.8,0.2-1.5,0.5-2.2,0.9l-0.9-0.9c-0.3-0.3-0.8-0.3-1.2,0l-3.5,3.5c-0.3,0.3-0.3,0.8,0,1.2l0.9,0.9c-0.4,0.7-0.7,1.4-0.9,2.2H77
		c-0.7,0-1.3,0.6-1.3,1.3v3.9c0,0.7,0.6,1.3,1.3,1.3h0.8c0.2,0.8,0.5,1.5,0.9,2.2l-0.9,0.9c-0.3,0.3-0.3,0.8,0,1.2l3.5,3.5
		c0.1,0.1,0.2,0.1,0.2,0.2H34.7l21.6-17.3l2.3,2.1c1.5,1.5,4,1.5,5.5,0l2.9-3l6,5.5c0.1-0.8,0.2-1.5,0.4-2.2l-5.1-4.6l20-20.9v13.6
		c0.1,0,0.2,0,0.3,0c0.5,0,1.1,0,1.6,0.1v-13.5c0-0.6-0.2-1.2-0.6-1.6l0.1-0.1h-0.2c-0.5-0.5-1.2-0.9-2-0.9H33.7
		c-1.2,0-2.2,0.8-2.5,1.9h-0.1l0.1,0.1c0,0.2-0.1,0.4-0.1,0.6v39.5c0,0.2,0,0.5,0.1,0.7H19.4v1.9h88.2v-1.9L96,699.9z M86,659
		l-22.6,23.7c-1.1,1.1-3,1.1-4.1,0L33.7,659H86z M33,660.8l21.8,20.4L33,698.7V660.8z M79.5,695.6l1.3-1.3c-0.8-1.2-1.4-2.6-1.7-4.1
		h-1.8V687h1.8c0.3-1.5,0.8-2.9,1.7-4l-1.3-1.3l2.3-2.3l1.3,1.3c1.2-0.8,2.5-1.4,4-1.7v-1.8h3.3v1.8c1.5,0.3,2.9,0.8,4,1.7l1.3-1.3
		l2.3,2.3l-1.3,1.3c0.8,1.2,1.4,2.6,1.7,4h1.8v3.3h-1.8c-0.3,1.5-0.8,2.9-1.7,4.1l1.3,1.3l-2.3,2.3l-1.3-1.3c-1.2,0.8-2.5,1.4-4,1.7
		v1.5h-3.3v-1.5c-1.5-0.3-2.9-0.8-4-1.7l-1.3,1.3L79.5,695.6z M95.4,699.9H92v-0.2c0.8-0.2,1.5-0.5,2.2-0.9l0.9,0.9
		C95.2,699.8,95.3,699.8,95.4,699.9z M82.4,699.7l0.9-0.9c0.7,0.4,1.4,0.7,2.2,0.9v0.2h-3.3C82.2,699.8,82.3,699.8,82.4,699.7z"/>
</g>
<g>
	<g>
		<path class="st2" d="M67.9,803h-6.8v-2h6.8c1.6,0,3.1-0.6,4.3-1.8s1.8-2.7,1.8-4.3c0-3.3-2.7-6-6-6h-3l0.1-1.1
			c0-0.3,0.1-0.6,0.1-0.9c0-3.9-3.2-7-7-7c-3.9,0-7,3.2-7,7c0,0.3,0,0.6,0.1,0.9l0.1,1.1h-3c-1.6,0-3.1,0.6-4.3,1.8
			c-1.1,1.1-1.8,2.7-1.8,4.3c0,3.3,2.7,6,6,6h6.6v2h-6.6c-4.4,0-8-3.6-8-8c0-2.1,0.8-4.2,2.4-5.7s3.5-2.4,5.7-2.4H49l0,0
			c0-5,4.1-9,9-9c5,0,9,4.1,9,9l0,0h0.8c4.4,0,8,3.6,8,8c0,2.1-0.8,4.2-2.4,5.7C72.1,802.2,70.1,803,67.9,803z"/>
	</g>
	<g>
		<path class="st3" d="M34,816c-1.6,0-3,1.3-3,3s1.3,3,3,3c1.6,0,3-1.3,3-3C37,817.4,35.6,816,34,816z M44,816c-1.7,0-3,1.3-3,3
			s1.3,3,3,3s3-1.3,3-3C47,817.4,45.6,816,44,816z M14.1,827h-7c-0.5,0-1,0.4-1,1c0,0.5,0.4,1,1,1h7l0,0V827z M83.9,820h-22
			c-0.6,0-1,0.4-1,1l0,0c0,0.6,0.4,1,1,1h21.9c0.6,0,1-0.4,1-1l0,0C84.9,820.4,84.4,820,83.9,820z M89.9,826.3c0,0,0-16.8,0-17.3
			l-8-17c-0.7-1.4-1.9-2-3-2h-3.1c0.1,0.3,0.1,0.6,0.1,1l0,0c0,0.3,0,0.7-0.1,1h2.1c0.6,0,1.5,0.3,2,1l7,15c0,0.6,0.6,1,0,1H28
			c-0.6,0,0-0.4,0-1l7-15c0-0.6,1.4-1,2-1h3.1c-0.1-0.3-0.1-0.6-0.1-1l0,0c0-0.3,0-0.7,0.1-1H36c-1.1,0-2.2,0.5-3,2l-8,17
			c0,0.5,0,17.3,0,17.3c0,0.3,0,0.5,0.1,0.7H16v2l0,0h82.8v-2h-9.1C89.8,826.8,89.9,826.5,89.9,826.3z M87.9,825.7
			c0,0.7-0.6,1.4-1.4,1.4H28.3c-0.7,0-1.4-0.6-1.4-1.4v-13.3c0-0.7,0.6-1.4,1.4-1.4h58.2c0.7,0,1.4,0.6,1.4,1.4V825.7z M104.8,827
			h-4v2h4c0.5,0,1-0.4,1-1C105.8,827.5,105.4,827,104.8,827z M83.9,816h-22c-0.5,0-1,0.4-1,1s0.4,1,1,1h21.9c0.5,0,1-0.4,1-1
			S84.4,816,83.9,816z"/>
	</g>
	<g>
		<rect x="56.9" y="792.7" class="st2" width="2" height="10.3"/>
	</g>
	<g>
		<path class="st2" d="M62,797c-0.3,0-0.5-0.1-0.7-0.3l-3.4-3.4l-3.4,3.4c-0.4,0.4-1,0.4-1.4,0s-0.4-1,0-1.4l4.1-4.1
			c0.4-0.4,1-0.4,1.4,0l4.1,4.1c0.4,0.4,0.4,1,0,1.4C62.5,796.9,62.2,797,62,797z"/>
	</g>
</g>
<g>
	<g>
		<g>
			<path class="st3" d="M18.2,947.1c-0.6,0-1,0.5-1,1s0.4,1,1,1h6v-2H18.2z M103.9,947.1h-5v2h5c0.5,0,1-0.5,1-1
				S104.5,947.1,103.9,947.1z"/>
		</g>
		<g>
			<path class="st3" d="M94,948.1c0-0.5,0.4-1,1-1h-8.6c4.5-1.9,7.6-6.4,7.6-11.6c0-6.3-4.6-11.5-10.6-12.4
				c-0.6-0.1-1.2-0.1-1.8-0.1c-0.5,0-0.9,0-1.3,0.1c-6.3,0.7-11.1,6-11.1,12.5c0,5.2,3.1,9.7,7.6,11.6H63.1v-4h7.2
				c-0.4-0.6-0.8-1.3-1.1-2H33.9c-1.5,0-2.7-1.2-2.7-2.7v-2.3h36.9c0-0.2,0-0.3,0-0.5c0-0.5,0-1,0.1-1.5h-37v-25.4
				c0-1.5,1.2-2.7,2.7-2.7h47.4c1.5,0,2.7,1.2,2.7,2.7v13.6c0.7,0.1,1.3,0.3,2,0.5v-13.4c0-3-2.4-5.4-5.4-5.4h-46
				c-3,0-5.4,2.4-5.4,5.4v28.2c0,3,2.4,5.4,5.4,5.4h18.5v4H26.2v2H95C94.4,949.1,94,948.7,94,948.1z M61.1,947.1h-6v-4h6V947.1z
				 M71.1,935.6c0-0.9,0.1-1.8,0.3-2.6c0.1-0.5,0.3-1,0.5-1.5C73,929,75,927,77.4,926c1.1-0.5,2.4-0.8,3.6-0.8c0.1,0,0.3,0,0.4,0
				c0.3,0,0.6,0,0.9,0c1.5,0.1,2.8,0.5,4,1.2c1.8,1,3.3,2.5,4.3,4.3c0.5,0.9,0.8,1.8,1,2.8c0.2,0.7,0.3,1.5,0.3,2.3
				c0,1.7-0.4,3.3-1.1,4.8c-1.5,2.9-4.3,5.1-7.6,5.6c-0.1,0-0.1,0-0.2,0c-0.5,0.1-1.1,0.1-1.6,0.1h-0.2c-3.5-0.1-6.6-1.9-8.4-4.6
				C71.7,939.9,71.1,937.8,71.1,935.6z"/>
		</g>
		<g>
			<path class="st3" d="M97,947.1v2h-4.9c0.5,0,1-0.5,1-1s-0.5-1-1-1H97z"/>
		</g>
	</g>
	<g>
		<path class="st2" d="M83.4,938.9l-1.4,1.4c-0.1-0.1-0.2-0.1-0.3-0.1s-0.2,0-0.3,0.1l-1.4-1.4c0.5-0.4,1.1-0.7,1.7-0.7
			S82.9,938.5,83.4,938.9z"/>
		<path class="st2" d="M85.7,936.5l-1.4,1.4c-0.7-0.7-1.7-1.1-2.7-1.1s-2,0.4-2.7,1.1l-1.4-1.4c1.1-1,2.5-1.7,4.1-1.7
			C83.2,934.9,84.7,935.5,85.7,936.5z"/>
		<path class="st2" d="M88,934.3l-1.3,1.3c-1.3-1.3-3.1-2-5-2s-3.7,0.8-5,2l-1.3-1.3l0.8-0.8c1.5-1.2,3.4-1.8,5.5-1.8
			c2,0,3.9,0.7,5.4,1.8l0,0L88,934.3z"/>
	</g>
</g>
<g>
	<circle class="st4" cx="9.6" cy="1053.5" r="9.6"/>
	<polyline class="st5" points="5,1053.3 8.4,1056.4 14.2,1050.6 	"/>
</g>
<g>
	<circle class="st6" cx="9.6" cy="1183.6" r="9.6"/>
	<path class="st7" d="M10,1186.1H9.1l-1-7c0-0.9,0.7-1.6,1.6-1.6l0,0c0.9,0,1.6,0.7,1.6,1.6L10,1186.1z"/>
	<circle class="st7" cx="9.6" cy="1188.2" r="1.2"/>
</g>
<g>
	<line class="st8" x1="0.5" y1="1306.5" x2="15.5" y2="1321.5"/>
	<line class="st8" x1="15.5" y1="1306.5" x2="0.5" y2="1321.5"/>
</g>
<g>
	<circle class="st9" cx="9.6" cy="1443.5" r="9.6"/>
	<polyline class="st5" points="5,1443.3 8.4,1446.4 14.1,1440.6 	"/>
</g>
<g>
	<circle class="st10" cx="9.6" cy="1523.5" r="9.6"/>
	<g>
		<line class="st11" x1="6" y1="1519.9" x2="12.8" y2="1526.7"/>
		<line class="st11" x1="12.8" y1="1519.9" x2="6" y2="1526.7"/>
	</g>
</g>
<circle class="st12" cx="9.6" cy="1593.5" r="9.6"/>
<path class="st13" d="M12.6,1598.1h-6c-0.6,0-1.2-0.5-1.2-1.2v-3.8c0-0.6,0.5-1.2,1.2-1.2h6c0.6,0,1.2,0.5,1.2,1.2v3.8
	C13.8,1597.6,13.3,1598.1,12.6,1598.1z"/>
<path class="st13" d="M7.2,1592.5v-2.5c0-1.4,1.1-2.5,2.5-2.5h0.1c1.4,0,2.5,1.1,2.5,2.5v2.5"/>
<line class="st14" x1="4.8" y1="1599.3" x2="15.1" y2="1588.2"/>
<line class="st15" x1="5.6" y1="1599.5" x2="14.8" y2="1589.7"/>
<g>
	<circle class="st16" cx="10" cy="1652.9" r="10"/>
	<g>
		<line class="st11" x1="6.2" y1="1649.2" x2="13.3" y2="1656.2"/>
		<line class="st11" x1="13.3" y1="1649.2" x2="6.2" y2="1656.2"/>
	</g>
</g>
<g>
	<circle class="st6" cx="9.6" cy="1117.5" r="9.6"/>
	<g>
		<line class="st11" x1="6" y1="1113.9" x2="12.8" y2="1120.7"/>
		<line class="st11" x1="12.8" y1="1113.9" x2="6" y2="1120.7"/>
	</g>
</g>
</svg>
