<?xml version="1.0" encoding="UTF-8"?>
<svg id="Layer_1" data-name="Layer 1" xmlns="http://www.w3.org/2000/svg" width="245" height="1245" version="1.1" viewBox="0 0 245 1245">
  <defs>
    <style>
      .cls-1, .cls-2, .cls-3, .cls-4, .cls-5, .cls-6, .cls-7, .cls-8, .cls-9, .cls-10, .cls-11, .cls-12, .cls-13, .cls-14, .cls-15, .cls-16, .cls-17, .cls-18, .cls-19, .cls-20 {
        fill: none;
      }

      .cls-1, .cls-2, .cls-4, .cls-6, .cls-10, .cls-12, .cls-13, .cls-19 {
        stroke-linejoin: round;
      }

      .cls-1, .cls-3, .cls-5, .cls-6, .cls-21, .cls-9, .cls-15, .cls-17 {
        stroke: #fff;
      }

      .cls-22 {
        fill: #d0d6dd;
      }

      .cls-22, .cls-23, .cls-24, .cls-7, .cls-25, .cls-26, .cls-27, .cls-28, .cls-29, .cls-30, .cls-31, .cls-32, .cls-33, .cls-34 {
        stroke-width: 0px;
      }

      .cls-23 {
        fill: #7a8393;
      }

      .cls-2, .cls-4, .cls-5, .cls-6, .cls-11, .cls-12, .cls-13, .cls-17 {
        stroke-linecap: round;
      }

      .cls-2, .cls-4, .cls-6, .cls-8, .cls-10, .cls-11, .cls-13, .cls-15, .cls-16, .cls-17, .cls-19, .cls-20 {
        stroke-width: 2px;
      }

      .cls-2, .cls-8, .cls-10, .cls-11 {
        stroke: #3299de;
      }

      .cls-24 {
        fill: #b1b1b1;
      }

      .cls-3, .cls-5, .cls-8, .cls-21, .cls-9, .cls-11, .cls-14, .cls-15, .cls-16, .cls-17, .cls-18, .cls-20 {
        stroke-miterlimit: 10;
      }

      .cls-3, .cls-21 {
        stroke-width: 2.5px;
      }

      .cls-4, .cls-19 {
        stroke: #8396ac;
      }

      .cls-25 {
        fill: #2da0ec;
      }

      .cls-21 {
        fill: #fa944b;
      }

      .cls-26 {
        fill: #f46d6d;
      }

      .cls-27 {
        fill: #81a7cb;
      }

      .cls-12 {
        stroke: #707781;
        stroke-width: 1.5px;
      }

      .cls-13 {
        stroke: #333;
      }

      .cls-14 {
        stroke: #fc7373;
      }

      .cls-14, .cls-18 {
        stroke-width: 10px;
      }

      .cls-28 {
        fill: #51b8e9;
      }

      .cls-29 {
        fill: #fff;
      }

      .cls-30 {
        fill: #efb721;
      }

      .cls-31 {
        fill: #8396ac;
      }

      .cls-31, .cls-34 {
        fill-rule: evenodd;
      }

      .cls-16 {
        stroke: #81a7cb;
      }

      .cls-18 {
        stroke: #d0d6dd;
      }

      .cls-32 {
        fill: #74afcc;
      }

      .cls-20 {
        stroke: #a0aab9;
      }

      .cls-33 {
        fill: #fc7373;
      }

      .cls-34 {
        fill: #3299de;
      }
    </style>
  </defs>
  <g>
    <g>
      <path class="cls-15" d="M16.4,17H1.6c-.3,0-.6-.2-.6-.5V1.6c0-.3.3-.6.6-.6h14.8c.3,0,.6.3.6.6v14.9c0,.3-.3.5-.6.5Z"/>
      <g>
        <line class="cls-15" x1="3" y1="5" x2="10" y2="5"/>
        <line class="cls-15" x1="13" y1="5" x2="15" y2="5"/>
      </g>
      <g>
        <line class="cls-15" x1="3" y1="13" x2="10" y2="13"/>
        <line class="cls-15" x1="13" y1="13" x2="15" y2="13"/>
      </g>
    </g>
    <line class="cls-15" x1="1" y1="9" x2="17" y2="9"/>
  </g>
  <g>
    <path class="cls-15" d="M14.4,87H1.6c-.3,0-.6-.2-.6-.5v-15.9c0-.3.3-.6.6-.6h12.8c.3,0,.6.3.6.6v15.9c0,.3-.3.5-.6.5Z"/>
    <line class="cls-15" x1="1" y1="82" x2="15" y2="82"/>
  </g>
  <g>
    <circle class="cls-25" cx="9" cy="148" r="9"/>
    <polyline class="cls-6" points="4.9 148 7.5 150.8 13 145.1"/>
  </g>
  <g>
    <path class="cls-30" d="M.1,222l8.6-14.8c.2-.4.7-.4,1,0l8.6,14.8c.2.4,0,1-.5,1H.6c-.5-.2-.7-.7-.5-1Z"/>
    <line class="cls-15" x1="9.1" y1="211.8" x2="9.1" y2="217.5"/>
    <line class="cls-15" x1="9.1" y1="218.9" x2="9.1" y2="220.9"/>
  </g>
  <circle class="cls-26" cx="9" cy="283" r="9"/>
  <g>
    <line class="cls-17" x1="6" y1="280" x2="12.1" y2="286"/>
    <line class="cls-17" x1="12.1" y1="280" x2="6" y2="286"/>
  </g>
  <g>
    <path class="cls-16" d="M15.6,358H2.4c-.8,0-1.4-.6-1.4-1.4v-11.1c0-.8.6-1.4,1.4-1.4h13.2c.8,0,1.4.6,1.4,1.4v11.1c0,.7-.6,1.4-1.4,1.4Z"/>
    <path class="cls-27" d="M3,346v6h1v2h1v2h8v-2h1v-2h1v-6H3ZM7,351h-2v-3h2v3ZM10,351h-2v-3h2v3ZM13,351h-2v-3h2v3Z"/>
  </g>
  <g>
    <path class="cls-29" d="M16.6,409H1.4c-.8,0-1.4.6-1.4,1.4v11.2c0,.8.6,1.4,1.4,1.4h15.2c.8,0,1.4-.6,1.4-1.4v-11.2c0-.8-.6-1.4-1.4-1.4ZM15,421H3v-1h12v1Z"/>
    <line class="cls-17" x1="5" y1="425" x2="13" y2="425"/>
  </g>
  <path class="cls-29" d="M13,477.5v3.6h-6.6c-.8,0-1.4.6-1.4,1.4v6.6H1.4c-.8,0-1.4-.6-1.4-1.4v-10.2c0-.8.6-1.4,1.4-1.4h10.2c.8-.1,1.4.6,1.4,1.4Z"/>
  <path class="cls-29" d="M17.9,482H7.4c-.8,0-1.4.6-1.4,1.4v10.2c0,.2,0,.3,0,.4.2.6.7,1,1.3,1h10.2c.8,0,1.4-.6,1.4-1.4v-10.2c0-.7-.5-1.2-1.1-1.4ZM17,493h-7.6c-.3,0-.5-.2-.5-.5s.2-.5.5-.5h6.6v-6.6c0-.3.2-.5.5-.5s.5.2.5.5v7.6Z"/>
  <g>
    <rect class="cls-29" x="8" y="550" width="2" height="7"/>
    <rect class="cls-29" x="11" y="550" width="2" height="7"/>
    <rect class="cls-29" x="14" y="550" width="2" height="7"/>
    <path class="cls-29" d="M18.6,546H1.4c-.8,0-1.4.6-1.4,1.4v12.2c0,.8.6,1.4,1.4,1.4h17.2c.8,0,1.4-.6,1.4-1.4v-12.2c0-.8-.6-1.4-1.4-1.4ZM2,558h-1v-9h1v9ZM17,558H7v-9h10v9Z"/>
    <rect class="cls-7" x="1" y="549" width="1" height="9"/>
    <path class="cls-7" d="M7,549v9h10v-9H7ZM10,557h-2v-7h2v7ZM11,557v-7h2v7h-2ZM16,557h-2v-7h2v7Z"/>
  </g>
  <path class="cls-9" d="M20.7,625.5H1.4c-.5,0-.9-.4-.9-.9v-4.3c0-.5.4-.9.9-.9h19.3c.5,0,.9.4.9.9v4.3c0,.6-.5.9-.9.9Z"/>
  <path class="cls-29" d="M18.5,612H3.6c-.6,0-1.2.4-1.4,1l-2.2,7h22l-2.2-7c-.2-.6-.7-1-1.3-1Z"/>
  <line class="cls-9" x1="3" y1="622.5" x2="11" y2="622.5"/>
  <line class="cls-9" x1="18" y1="622.5" x2="19" y2="622.5"/>
  <path class="cls-32" d="M8,677c-4.4,0-8,3.6-8,8s3.6,8,8,8,8-3.6,8-8-3.6-8-8-8ZM7,680h2v2h-2v-2ZM11,690h-6v-1h2v-5h-1v-1h3v6h2v1Z"/>
  <g>
    <path class="cls-8" d="M13,752v3.4c0,.3-.3.6-.6.6H1.6c-.3,0-.6-.3-.6-.6v-3.4"/>
    <line class="cls-11" x1="7" y1="745" x2="7" y2="751.5"/>
    <polyline class="cls-2" points="10 749 7 752 4 749"/>
  </g>
  <polygon class="cls-23" points="9.5 808 4.7 813 -.1 808 9.5 808"/>
  <g>
    <path class="cls-9" d="M13.4,874.6H1.7c-.6,0-1.1-.5-1.1-1.1v-7.9c0-.6.5-1.1,1.1-1.1h11.7c.6,0,1.1.5,1.1,1.1v7.9c0,.6-.5,1.1-1.1,1.1Z"/>
    <line class="cls-5" x1="3.6" y1="876.5" x2="11.5" y2="876.5"/>
  </g>
  <g>
    <path class="cls-5" d="M14.5,930.3v8.3c0,.5-.4.9-.9.9H1.4c-.5,0-.8-.4-.8-.8v-10.6c0-.3.3-.6.6-.6h4c0,0,.3,0,.4.2l1.7,1.7c0,0,.2.2.4.2h6.1c.3-.1.7.3.7.7Z"/>
    <line class="cls-9" x1="7.5" y1="939.5" x2="7.5" y2="941.5"/>
    <rect class="cls-9" x="6.5" y="941.5" width="2" height="2"/>
    <line class="cls-9" x1="2" y1="942.5" x2="5" y2="942.5"/>
    <line class="cls-9" x1="10" y1="942.5" x2="13" y2="942.5"/>
  </g>
  <g>
    <g>
      <path class="cls-9" d="M5,1004.6H1.7c-.6,0-1.1-.5-1.1-1.1v-7.9c0-.6.5-1.1,1.1-1.1h11.7c.6,0,1.1.5,1.1,1.1v2.4"/>
      <line class="cls-5" x1="3.6" y1="1006.5" x2="5" y2="1006.5"/>
    </g>
    <rect class="cls-9" x="6.6" y="999.5" width="12" height="8"/>
    <line class="cls-9" x1="8.5" y1="1001" x2="8.5" y2="1005"/>
    <line class="cls-9" x1="10.5" y1="1001" x2="10.5" y2="1005"/>
    <line class="cls-9" x1="9.5" y1="1005" x2="9.5" y2="1006"/>
    <polyline class="cls-1" points="12.7 1006 12.7 1001.5 14.5 1003.8 16.3 1001.5 16.3 1006"/>
  </g>
  <g>
    <path class="cls-10" d="M12,1076h-7.7c-.2,0-.3,0-.3-.3v-12.5c0-.2,0-.3.3-.3h12.5c.2,0,.3,0,.3.3v4.7"/>
    <path class="cls-2" d="M1,1073v-12.7c0-.2.1-.3.3-.3h12.7"/>
    <path class="cls-34" d="M20.2,1073.2v-.3c0,0,0-.3.1-.3l.6-.5c.1,0,.2-.2.1-.4l-.2-.4c-.1,0-.2-.2-.3-.2h-1c-.2,0-.3-.3-.5-.4v-1c.1,0,0-.3-.1-.3l-.5-.2h-.1c-.1,0-.2,0-.3,0l-.7.8h-.6l-.6-.8c-.1,0-.2,0-.2,0h-.1l-.5.2c-.1,0-.2.2-.2.3v.8c.1,0,.1.3,0,.4s-.2.2-.3.2c-.1,0-.2,0-.3,0h-.8c-.1,0-.2,0-.3,0l-.2.5c-.1,0,0,.3.1.4l.6.5c.1,0,.1.2.1.3v.4c0,0,0,.3-.1.4l-.6.5c-.1,0-.2.2-.1.4l.2.5c.1,0,.2.2.3.2h.7c.1,0,.3,0,.4,0,.1,0,.2.2.3.3.1,0,.2.2.1.4v.7c-.1,0,0,.3,0,.3l.5.2h.1c.1,0,.2,0,.3,0l.5-.6c.1,0,.2,0,.4,0h.4c.1,0,.3,0,.3.2l.5.6c.1,0,.2,0,.3,0h.1l.5-.2c.1,0,.2-.2.2-.3v-.8c-.1,0-.1-.3,0-.3.1,0,.2-.2.3-.3.1,0,.2-.2.3,0h.8c.1,0,.2,0,.3,0l.2-.5c.1,0,.1-.3-.1-.4l-.6-.5c-.4-.5-.5-.7-.4-.8ZM17,1074.4h0c-.8,0-1.4-.6-1.4-1.4s.6-1.4,1.4-1.4,1.3.6,1.4,1.3c0,.9-.6,1.5-1.4,1.5Z"/>
  </g>
  <g>
    <polyline class="cls-19" points="12 1145 4 1145 4 1132 17 1132 17 1137"/>
    <polyline class="cls-4" points="1 1142 1 1129 14.1 1129"/>
    <path class="cls-31" d="M20.2,1142.2v-.3c0,0,0-.3.1-.3l.6-.5c.1,0,.2-.2.1-.4l-.2-.4c-.1,0-.2-.2-.3-.2h-1c-.2,0-.3-.3-.5-.4v-1c.1,0,0-.3-.1-.3l-.5-.2h-.1c-.1,0-.2,0-.3,0l-.7.8h-.6l-.6-.8c-.1,0-.2,0-.2,0h-.1l-.5.2c-.1,0-.2.2-.2.3v.8c.1,0,.1.3,0,.4s-.2.2-.3.2c-.1,0-.2,0-.3,0h-.8c-.1,0-.2,0-.3,0l-.2.5c-.1,0,0,.3.1.4l.6.5c.1,0,.1.2.1.3v.4c0,0,0,.3-.1.4l-.6.5c-.1,0-.2.2-.1.4l.2.5c.1,0,.2.2.3.2h.7c.1,0,.3,0,.4,0,.1,0,.2.2.3.3.1,0,.2.2.1.4v.7c-.1,0,0,.3,0,.3l.5.2h.1c.1,0,.2,0,.3,0l.5-.6c.1,0,.2,0,.4,0h.4c.1,0,.3,0,.3.2l.5.6c.1,0,.2,0,.3,0h.1l.5-.2c.1,0,.2-.2.2-.3v-.8c-.1,0-.1-.3,0-.3.1,0,.2-.2.3-.3.1,0,.2-.2.3,0h.8c.1,0,.2,0,.3,0l.2-.5c.1,0,.1-.3-.1-.4l-.6-.5c-.4-.5-.5-.7-.4-.8ZM17,1143.4h0c-.8,0-1.4-.6-1.4-1.4s.6-1.4,1.4-1.4,1.3.6,1.4,1.3c0,.9-.6,1.5-1.4,1.5Z"/>
  </g>
  <g>
    <path class="cls-14" d="M90.1,97.9c-8.8-9.7-14.2-22.7-14.2-36.9,0-30.4,24.6-55,55-55s25.5,4.7,35,12.6"/>
    <path class="cls-33" d="M134.7,81.4c-2.9,4.7-9,6.1-13.7,3.2s-6.1-9-3.2-13.7c.2-.3.4-.7.7-.9.2-.2.3-.4.5-.5l.7-.7h0c0,0,31.5-31.8,31.5-31.8l-15.4,41.7h0c0,0-.3,1.1-.3,1.1-.1.2-.2.4-.3.6-.2.3-.4.7-.6,1Z"/>
    <path class="cls-18" d="M165.9,18.6c12.2,10.1,20,25.4,20,42.4s-5.5,27.4-14.5,37.2"/>
    <g>
      <circle class="cls-33" cx="164.4" cy="20.6" r="12"/>
      <circle class="cls-3" cx="164.4" cy="20.6" r="12"/>
    </g>
  </g>
  <g>
    <g>
      <g>
        <rect class="cls-22" x="72" y="165" width="32" height="9"/>
        <rect class="cls-22" x="108" y="165" width="32" height="9"/>
      </g>
      <g>
        <rect class="cls-22" x="72" y="177" width="32" height="9"/>
        <rect class="cls-22" x="108" y="177" width="32" height="9"/>
      </g>
      <g>
        <rect class="cls-22" x="72" y="189" width="32" height="9"/>
        <rect class="cls-22" x="108" y="189" width="32" height="9"/>
      </g>
      <g>
        <rect class="cls-28" x="72" y="201" width="32" height="9"/>
        <rect class="cls-28" x="108" y="201" width="32" height="9"/>
      </g>
      <g>
        <rect class="cls-28" x="72" y="213" width="32" height="9"/>
        <rect class="cls-28" x="108" y="213" width="32" height="9"/>
      </g>
      <g>
        <rect class="cls-28" x="72" y="225" width="32" height="9"/>
        <rect class="cls-28" x="108" y="225" width="32" height="9"/>
      </g>
      <g>
        <rect class="cls-28" x="72" y="237" width="32" height="9"/>
        <rect class="cls-28" x="108" y="237" width="32" height="9"/>
      </g>
      <g>
        <rect class="cls-28" x="72" y="249" width="32" height="9"/>
        <rect class="cls-28" x="108" y="249" width="32" height="9"/>
      </g>
    </g>
    <circle class="cls-21" cx="140" cy="245" r="23.1"/>
    <polygon class="cls-29" points="136.1 241.2 133.5 244.4 130.7 240.7 126 240.7 126 236.7 132.7 236.7 136.1 241.2"/>
    <polygon class="cls-29" points="147 250.3 147 254.3 141.2 254.3 137.8 249.9 140.3 246.6 143.1 250.3 147 250.3"/>
    <rect class="cls-29" x="147" y="250.3" width="2.5" height="4"/>
    <polygon class="cls-29" points="153.3 238.6 147 244.9 147 240.7 143.1 240.7 139.4 245.5 136.9 248.8 132.7 254.3 126 254.3 126 250.3 130.7 250.3 134.4 245.5 136.9 242.2 141.2 236.7 147 236.7 147 232.3 153.3 238.6"/>
    <polygon class="cls-29" points="153.3 252.8 147 259.2 147 246.6 153.3 252.8"/>
  </g>
  <g>
    <path class="cls-20" d="M90.1,352.1h-16.2c-.5,0-.9-.4-.9-.9v-16.5c0-.5.4-.9.9-.9h16.3c.5,0,.9.4.9.9v16.5c0,.5-.5.9-1,.9Z"/>
    <line class="cls-20" x1="73" y1="340" x2="91" y2="340"/>
    <line class="cls-20" x1="75" y1="337" x2="80" y2="337"/>
    <line class="cls-20" x1="75" y1="343" x2="80" y2="343"/>
    <line class="cls-20" x1="75" y1="349" x2="80" y2="349"/>
    <line class="cls-20" x1="73" y1="346" x2="91" y2="346"/>
  </g>
  <polyline class="cls-12" points="83.2 404 78.5 408.7 73.7 404"/>
  <polyline class="cls-12" points="76.2 468.8 81 473.5 76.2 478.3"/>
  <g>
    <circle class="cls-24" cx="81" cy="539" r="9"/>
    <polyline class="cls-6" points="76.9 539 79.5 541.9 85.1 536.1"/>
  </g>
  <polyline class="cls-13" points="7.9 1200.5 4.5 1203.9 1.1 1200.5"/>
  <g>
    <path class="cls-29" d="M72,588v23h9v-10h6v-13h-15ZM83,600h-7c-.5,0-1-.5-1-1s.5-1,1-1h7c.5,0,1,.5,1,1s-.5,1-1,1ZM83,595h-7c-.5,0-1-.5-1-1s.5-1,1-1h7c.5,0,1,.5,1,1s-.5,1-1,1Z"/>
    <g>
      <polygon class="cls-29" points="85 606 85 603.1 82 604 82 606 85 606"/>
      <polygon class="cls-29" points="86 606 90 606 90 602 86 602.9 86 606"/>
      <polygon class="cls-29" points="85 607 82 607 82 609 85 609.9 85 607"/>
      <polygon class="cls-29" points="86 607 86 610.1 90 611 90 607 86 607"/>
    </g>
  </g>
</svg>