<?xml version="1.0" encoding="utf-8"?>
<!-- Generator: Adobe Illustrator 26.5.0, SVG Export Plug-In . SVG Version: 6.00 Build 0)  -->
<svg version="1.1" id="Layer_1" xmlns="http://www.w3.org/2000/svg" xmlns:xlink="http://www.w3.org/1999/xlink" x="0px" y="0px"
	 width="70px" height="2088px" viewBox="0 0 70 2088" style="enable-background:new 0 0 70 2088;" xml:space="preserve">
<style type="text/css">
	.st0{fill:none;stroke:#0D71BA;stroke-width:2;stroke-miterlimit:10;}
	.st1{fill:#0D71BA;}
	.st2{fill:none;stroke:#0D71BA;stroke-width:2;stroke-linecap:round;stroke-miterlimit:10;}
	.st3{font-family:'Roboto-Medium';}
	.st4{font-size:12.3689px;}
	.st5{font-size:12px;}
	.st6{fill:none;stroke:#0D71BA;stroke-width:2;stroke-linejoin:round;stroke-miterlimit:10;}
	.st7{fill:none;stroke:#0D71BA;stroke-width:2;stroke-linecap:round;stroke-linejoin:round;stroke-miterlimit:10;}
	.st8{fill:none;stroke:#8697A2;stroke-width:2;stroke-miterlimit:10;}
	.st9{fill:#8697A2;}
	.st10{fill:none;stroke:#8697A2;stroke-width:2;stroke-linecap:round;stroke-miterlimit:10;}
	.st11{fill:none;stroke:#8697A2;stroke-width:2;stroke-linejoin:round;stroke-miterlimit:10;}
	.st12{fill:none;stroke:#8697A2;stroke-width:2;stroke-linecap:round;stroke-linejoin:round;stroke-miterlimit:10;}
	.st13{fill:none;stroke:#FFFFFF;stroke-width:2;stroke-linecap:round;}
</style>
<g>
	<path class="st0" d="M13.8,786.9H2.4c-0.8,0-1.4-0.6-1.4-1.4v-15.1c0-0.8,0.6-1.4,1.4-1.4h5.3c0.3,0,0.6,0.1,0.8,0.4l2.6,2.6h10.5
		c0.8,0,1.4,0.6,1.4,1.4v7.5"/>
	<line class="st0" x1="1" y1="793" x2="13" y2="793"/>
	<path class="st1" d="M15,793.4v2.5H9v-6h4.6C13.7,791.3,14.2,792.5,15,793.4z"/>
	<line class="st0" x1="12" y1="787.6" x2="12" y2="792"/>
	<path class="st0" d="M26.6,790.6c-0.8,2-2.8,3.5-5.1,3.5c-3,0-5.5-2.5-5.5-5.5s2.5-5.5,5.5-5.5c2.4,0,4.5,1.6,5.2,3.8"/>
	<polygon class="st1" points="29,795 23,789 29,789 	"/>
</g>
<g>
	<path class="st0" d="M21.6,17.9H2.4c-0.8,0-1.4-0.6-1.4-1.4V2.4C1,1.6,1.7,1,2.4,1h19.2C22.4,1,23,1.6,23,2.4v14.1
		C23,17.3,22.4,17.9,21.6,17.9z"/>
	<line class="st2" x1="6" y1="21.1" x2="18" y2="21.1"/>
</g>
<g>
	<g>
		<path class="st0" d="M25,87h0.6c0.8,0,1.4,0.6,1.4,1.4v13c0,0.8-0.6,1.4-1.4,1.4H6.4c-0.8,0-1.4-0.6-1.4-1.4v-3.2"/>
		<path class="st0" d="M21.5,96H2.3c-0.8,0-1.4-0.6-1.4-1.4V84.4c0-0.8,0.6-1.4,1.4-1.4h19.2c0.8,0,1.4,0.6,1.4,1.4v10.1
			C22.9,95.4,22.3,96,21.5,96z"/>
		<line class="st2" x1="10.9" y1="106" x2="21" y2="106"/>
	</g>
	<text transform="matrix(1 0 0 1 2.8581 93.8789)" class="st1 st3 st4">VM</text>
</g>
<g>
	<path class="st0" d="M23,166.4v12.1c0,0.8-0.6,1.4-1.4,1.4H2.4c-0.8,0-1.4-0.6-1.4-1.4v-15.1c0-0.8,0.6-1.4,1.4-1.4h5.3
		c0.3,0,0.6,0.1,0.8,0.4l2.6,2.6h10.5C22.4,165,23,165.6,23,166.4z"/>
	<line class="st0" x1="1" y1="186" x2="23" y2="186"/>
	<rect x="9" y="183" class="st1" width="6" height="6"/>
	<line class="st0" x1="12" y1="180.6" x2="12" y2="185"/>
</g>
<g>
	<g>
		<path class="st0" d="M7,259.1H1.9c-0.5,0-0.9-0.4-0.9-0.9v-16.3c0-0.5,0.4-0.9,0.9-0.9h9.3c0.5,0,0.9,0.4,0.9,0.9v5.2"/>
		<path class="st0" d="M15,247.1v-5.3c0-0.5,0.4-0.9,0.9-0.9h9.3c0.5,0,0.9,0.4,0.9,0.9v5.3"/>
		<line class="st0" x1="4" y1="245.1" x2="9" y2="245.1"/>
		<line class="st0" x1="18.1" y1="245.1" x2="23" y2="245.1"/>
		<line class="st0" x1="4" y1="248.1" x2="7" y2="248.1"/>
		<path class="st0" d="M30.2,262H9.8c-0.5,0-0.9-0.4-0.9-0.9v-11.2c0-0.5,0.4-0.9,0.9-0.9h20.4c0.5,0,0.9,0.4,0.9,0.9v11.2
			C31.1,261.6,30.7,262,30.2,262z"/>
	</g>
	<text transform="matrix(1 0 0 1 11.1275 259.9257)" class="st1 st3 st5">VM</text>
</g>
<g>
	<path class="st0" d="M26.2,338H8.8c-0.5,0-0.9-0.4-0.9-0.9v-11.3c0-0.5,0.4-0.9,0.9-0.9h17.4c0.5,0,0.9,0.4,0.9,0.9v11.3
		C27.1,337.6,26.7,338,26.2,338z"/>
	<text transform="matrix(1 0 0 1 10.1275 335.8087)" class="st1 st3 st5">VC</text>
	<g>
		<path class="st0" d="M5.9,332.9h-4c-0.5,0-0.9-0.4-0.9-0.9v-12.3c0-0.5,0.4-0.9,0.9-0.9h12.3c0.5,0,0.9,0.4,0.9,0.9v3.2"/>
		<path class="st0" d="M5,319v-3.1c0-0.5,0.4-0.9,0.9-0.9h12.3c0.5,0,0.9,0.4,0.9,0.9v7.1"/>
	</g>
</g>
<g>
	<path class="st0" d="M25.2,411H1.8c-0.5,0-0.9-0.4-0.9-0.9V403c0-0.5,0.4-0.9,0.9-0.9h23.4c0.5,0,0.9,0.4,0.9,0.9v7.1
		C26,410.6,25.6,411,25.2,411z"/>
	<polyline class="st6" points="26,402.7 23,390 4,390 1,402.7 	"/>
	<line class="st6" x1="4" y1="406.1" x2="12" y2="406.1"/>
	<line class="st6" x1="13" y1="406.1" x2="15" y2="406.1"/>
</g>
<g>
	<path class="st0" d="M23,467.4v12.1c0,0.8-0.6,1.4-1.4,1.4H2.4c-0.8,0-1.4-0.6-1.4-1.4v-15.1c0-0.8,0.6-1.4,1.4-1.4h5.7
		c0.1,0,0.1,0,0.2,0.1l2.8,2.8c0.1,0.1,0.1,0.1,0.2,0.1h10.4C22.4,466,23,466.6,23,467.4z"/>
	<line class="st0" x1="1" y1="487" x2="23" y2="487"/>
	<rect x="9" y="484" class="st1" width="6" height="6"/>
	<line class="st0" x1="12" y1="481.6" x2="12" y2="486"/>
</g>
<g>
	<path class="st0" d="M12.5,635.9H2.4c-0.8,0-1.4-0.6-1.4-1.4v-14.1c0-0.8,0.6-1.4,1.4-1.4h19.2c0.8,0,1.4,0.6,1.4,1.4v7.3"/>
	<line class="st2" x1="5.8" y1="639.1" x2="12.3" y2="639.1"/>
</g>
<path class="st0" d="M25.6,637.6c-0.8,2-2.8,3.5-5.1,3.5c-3,0-5.5-2.5-5.5-5.5s2.5-5.5,5.5-5.5c2.4,0,4.5,1.6,5.2,3.8"/>
<polygon class="st1" points="28,642 22,636 28,636 "/>
<g>
	<line class="st0" x1="4" y1="558" x2="11.3" y2="558"/>
	<line class="st0" x1="4" y1="561" x2="10.8" y2="561"/>
	<line class="st0" x1="20" y1="553.3" x2="20" y2="548"/>
	<path class="st0" d="M12,565H2.4c-0.8,0-1.4-0.6-1.4-1.4v-20.3c0-0.8,0.6-1.4,1.4-1.4H14"/>
	<path class="st0" d="M23.6,562.6c-0.8,2-2.8,3.5-5.1,3.5c-3,0-5.5-2.5-5.5-5.5s2.5-5.5,5.5-5.5c2.4,0,4.5,1.6,5.2,3.8"/>
	<polygon class="st1" points="26,567 20,561 26,561 	"/>
	<polygon class="st1" points="20,546.7 20,548 14,548 14,542 15.3,542 	"/>
	<polygon class="st1" points="15.3,542 14,542 14,541 14.3,541 	"/>
	<polygon class="st1" points="21,547.7 21,548 20,548 20,546.7 	"/>
</g>
<g>
	<path class="st2" d="M14.5,716H5.9c-0.5,0-0.9-0.4-0.9-0.9v-15.7c0-0.8,0.6-1.4,1.4-1.4h15.8c0.5,0,0.9,0.4,0.9,0.9v3.3"/>
	<path class="st2" d="M4.5,712H1.8c-0.5,0-0.9-0.4-0.9-0.9v-16.2c0-0.5,0.4-0.9,0.9-0.9h16.3c0.5,0,0.9,0.4,0.9,0.9v2.3"/>
	<path class="st0" d="M25.6,712.7c-0.8,2-2.8,3.5-5.1,3.5c-3,0-5.5-2.5-5.5-5.5s2.5-5.5,5.5-5.5c2.4,0,4.5,1.6,5.2,3.8"/>
	<polygon class="st1" points="28,717.1 22,711.1 28,711.1 	"/>
</g>
<g>
	<path class="st0" d="M10.3,858.2l-9.1-5.5c-0.2-0.1-0.2-0.3,0-0.4l9.1-5.5c0.1-0.1,0.2-0.1,0.3,0l9.1,5.5c0.2,0.1,0.2,0.3,0,0.4
		l-9.1,5.5C10.5,858.3,10.4,858.3,10.3,858.2z"/>
	<path class="st2" d="M19.7,857.4l-9.1,5.5c-0.1,0.1-0.2,0.1-0.3,0l-9.1-5.5"/>
	<path class="st2" d="M19.7,862.3l-9.1,5.5c-0.1,0.1-0.2,0.1-0.3,0l-9.1-5.5"/>
</g>
<path class="st7" d="M24,931.9v1c0,2.8-2.2,5-5,5H6.1c-2.8,0-5-2.2-5-5v-1c0-2.8,2.2-5,5-5h1.1c0-0.2,0-0.4,0-0.6
	c0-2.9,2.3-5.2,5.2-5.2s5.2,2.3,5.2,5.2c0,0.2,0,0.4,0,0.6H19C21.8,926.9,24,929.2,24,931.9z"/>
<path class="st8" d="M13.8,1774.9H2.4c-0.8,0-1.4-0.6-1.4-1.4v-15.1c0-0.8,0.6-1.4,1.4-1.4h5.3c0.3,0,0.6,0.1,0.8,0.4l2.6,2.6h10.5
	c0.8,0,1.4,0.6,1.4,1.4v7.5"/>
<line class="st8" x1="1" y1="1781" x2="13" y2="1781"/>
<path class="st9" d="M15,1781.4v2.5H9v-6h4.6C13.7,1779.3,14.2,1780.5,15,1781.4z"/>
<line class="st8" x1="12" y1="1775.6" x2="12" y2="1780"/>
<path class="st8" d="M26.6,1778.6c-0.8,2-2.8,3.5-5.1,3.5c-3,0-5.5-2.5-5.5-5.5s2.5-5.5,5.5-5.5c2.4,0,4.5,1.6,5.2,3.8"/>
<polygon class="st9" points="29,1783 23,1777 29,1777 "/>
<g>
	<path class="st8" d="M22.2,1005.9H1.9c-0.5,0-0.9-0.4-0.9-0.9v-15.2c0-0.5,0.4-0.9,0.9-0.9h20.3c0.5,0,0.9,0.4,0.9,0.9v15.2
		C23,1005.5,22.7,1005.9,22.2,1005.9z"/>
	<line class="st10" x1="6" y1="1009.1" x2="18" y2="1009.1"/>
</g>
<g>
	<path class="st8" d="M25,1075h0.6c0.8,0,1.4,0.6,1.4,1.4v13c0,0.8-0.6,1.4-1.4,1.4H6.4c-0.8,0-1.4-0.6-1.4-1.4v-3.2"/>
	<path class="st8" d="M21.6,1084H2.4c-0.8,0-1.4-0.6-1.4-1.4v-10.1c0-0.8,0.6-1.4,1.4-1.4h19.2c0.8,0,1.4,0.6,1.4,1.4v10.1
		C23,1083.4,22.4,1084,21.6,1084z"/>
	<line class="st10" x1="11" y1="1094" x2="21.1" y2="1094"/>
	<text transform="matrix(1 0 0 1 2.9326 1081.879)" class="st9 st3 st4">VM</text>
</g>
<path class="st8" d="M23,1154.4v12.1c0,0.8-0.6,1.4-1.4,1.4H2.4c-0.8,0-1.4-0.6-1.4-1.4v-15.1c0-0.8,0.6-1.4,1.4-1.4h5.7
	c0.1,0,0.1,0,0.2,0.1l2.8,2.8c0.1,0.1,0.1,0.1,0.2,0.1h10.4C22.4,1153,23,1153.6,23,1154.4z"/>
<line class="st8" x1="1" y1="1174" x2="23" y2="1174"/>
<rect x="9" y="1171" class="st9" width="6" height="6"/>
<line class="st8" x1="12" y1="1168.6" x2="12" y2="1173"/>
<path class="st8" d="M7,1247H2.1c-0.6,0-1.1-0.5-1.1-1.1V1230c0-0.6,0.5-1.1,1.1-1.1h8.7c0.6,0,1.1,0.5,1.1,1.1v5"/>
<path class="st8" d="M15,1235v-5c0-0.6,0.5-1.1,1.1-1.1h8.7c0.6,0,1.1,0.5,1.1,1.1v5"/>
<line class="st8" x1="4" y1="1233" x2="9" y2="1233"/>
<line class="st8" x1="18.1" y1="1233" x2="23" y2="1233"/>
<line class="st8" x1="4" y1="1236" x2="7" y2="1236"/>
<path class="st8" d="M29.7,1249.9H10.4c-0.8,0-1.4-0.6-1.4-1.4v-10.1c0-0.8,0.6-1.4,1.4-1.4h19.3c0.8,0,1.4,0.6,1.4,1.4v10.1
	C31.1,1249.3,30.5,1249.9,29.7,1249.9z"/>
<text transform="matrix(1 0 0 1 11.1275 1247.8088)" class="st9 st3 st5">VM</text>
<g>
	<path class="st8" d="M26.8,1326H8.3c-0.2,0-0.3-0.1-0.3-0.3v-12.5c0-0.2,0.1-0.3,0.3-0.3h18.6c0.2,0,0.3,0.1,0.3,0.3v12.5
		C27.1,1325.9,27,1326,26.8,1326z"/>
	<text transform="matrix(1 0 0 1 10.1275 1323.8087)" class="st9 st3 st5">VC</text>
	<path class="st8" d="M5.9,1320.9H1.3c-0.2,0-0.3-0.1-0.3-0.3v-13.4c0-0.2,0.1-0.3,0.3-0.3h13.4c0.2,0,0.3,0.1,0.3,0.3v3.7"/>
	<path class="st8" d="M5,1307v-3.7c0-0.2,0.1-0.3,0.3-0.3h13.4c0.2,0,0.3,0.1,0.3,0.3v7.6"/>
</g>
<g>
	<path class="st8" d="M25.2,1399H1.8c-0.5,0-0.9-0.4-0.9-0.9v-7.2c0-0.5,0.4-0.9,0.9-0.9h23.4c0.5,0,0.9,0.4,0.9,0.9v7.2
		C26,1398.6,25.6,1399,25.2,1399z"/>
	<polyline class="st11" points="26,1390.6 23,1377.9 4,1377.9 1,1390.6 	"/>
	<line class="st11" x1="4" y1="1394.1" x2="12" y2="1394.1"/>
	<line class="st11" x1="13" y1="1394.1" x2="15" y2="1394.1"/>
</g>
<path class="st8" d="M23,1455.4v12.1c0,0.8-0.6,1.4-1.4,1.4H2.4c-0.8,0-1.4-0.6-1.4-1.4v-15.1c0-0.8,0.6-1.4,1.4-1.4h5.3
	c0.3,0,0.6,0.1,0.8,0.4l2.6,2.6h10.5C22.4,1454,23,1454.6,23,1455.4z"/>
<line class="st8" x1="1" y1="1475" x2="23" y2="1475"/>
<rect x="9" y="1472" class="st9" width="6" height="6"/>
<line class="st8" x1="12" y1="1469.6" x2="12" y2="1474"/>
<path class="st8" d="M12.5,1623.9H2.4c-0.8,0-1.4-0.6-1.4-1.4v-14.1c0-0.8,0.6-1.4,1.4-1.4h19.2c0.8,0,1.4,0.6,1.4,1.4v7.3"/>
<line class="st8" x1="6" y1="1627.1" x2="13.1" y2="1627.1"/>
<path class="st8" d="M25.6,1625.6c-0.8,2-2.8,3.5-5.1,3.5c-3,0-5.5-2.5-5.5-5.5s2.5-5.5,5.5-5.5c2.4,0,4.5,1.6,5.2,3.8"/>
<polygon class="st9" points="28,1630 22,1624 28,1624 "/>
<line class="st8" x1="4" y1="1546" x2="11.3" y2="1546"/>
<line class="st8" x1="4" y1="1549" x2="10.8" y2="1549"/>
<line class="st8" x1="20" y1="1541.3" x2="20" y2="1536"/>
<path class="st8" d="M12,1553H2.4c-0.8,0-1.4-0.6-1.4-1.4v-20.3c0-0.8,0.6-1.4,1.4-1.4H14"/>
<path class="st8" d="M23.6,1550.6c-0.8,2-2.8,3.5-5.1,3.5c-3,0-5.5-2.5-5.5-5.5s2.5-5.5,5.5-5.5c2.4,0,4.5,1.6,5.2,3.8"/>
<polygon class="st9" points="26,1555 20,1549 26,1549 "/>
<polygon class="st9" points="20,1534.7 15.3,1530 14.3,1529 14,1529 14,1530 14,1536 20,1536 21,1536 21,1535.7 "/>
<path class="st10" d="M14.5,1703.9H5.9c-0.5,0-0.9-0.4-0.9-0.9v-15.7c0-0.8,0.6-1.4,1.4-1.4h15.8c0.5,0,0.9,0.4,0.9,0.9v3.3"/>
<path class="st10" d="M4.5,1699.9H1.8c-0.5,0-0.9-0.4-0.9-0.9v-16.2c0-0.5,0.4-0.9,0.9-0.9h16.3c0.5,0,0.9,0.4,0.9,0.9v2.3"/>
<path class="st8" d="M25.6,1700.6c-0.8,2-2.8,3.5-5.1,3.5c-3,0-5.5-2.5-5.5-5.5s2.5-5.5,5.5-5.5c2.4,0,4.5,1.6,5.2,3.8"/>
<polygon class="st9" points="28,1705 22,1699 28,1699 "/>
<g>
	<path class="st8" d="M10.3,1846.2l-9.1-5.5c-0.2-0.1-0.2-0.3,0-0.4l9.1-5.5c0.1-0.1,0.2-0.1,0.3,0l9.1,5.5c0.2,0.1,0.2,0.3,0,0.4
		l-9.1,5.5C10.5,1846.3,10.4,1846.3,10.3,1846.2z"/>
	<path class="st10" d="M19.7,1845.4l-9.1,5.5c-0.1,0.1-0.2,0.1-0.3,0l-9.1-5.5"/>
	<path class="st10" d="M19.7,1850.3l-9.1,5.5c-0.1,0.1-0.2,0.1-0.3,0l-9.1-5.5"/>
</g>
<path class="st12" d="M24,1919.9v1c0,2.8-2.2,5-5,5H6.1c-2.8,0-5-2.2-5-5v-1c0-2.8,2.2-5,5-5h1.1c0-0.2,0-0.4,0-0.6
	c0-2.9,2.3-5.2,5.2-5.2s5.2,2.3,5.2,5.2c0,0.2,0,0.4,0,0.6H19C21.8,1914.9,24,1917.2,24,1919.9z"/>
<g>
	<g>
		<path class="st13" d="M15.1,1986.5l-2.2,1.4c-0.2,0.2-0.2,0.2-0.5,0L1.3,1981"/>
		<path class="st13" d="M12.4,1983l-11.1-7c-0.2-0.2-0.2-0.5,0-0.5l11.1-6.9c0.2-0.2,0.2-0.2,0.5,0l11.1,6.9c0.2,0.2,0.2,0.5,0,0.5
			l-11.1,6.9C12.6,1983.2,12.6,1983.2,12.4,1983z"/>
	</g>
	<g>
		<line class="st13" x1="21.6" y1="1981.6" x2="21.6" y2="1988.6"/>
		<line class="st13" x1="18.1" y1="1985.1" x2="25.1" y2="1985.1"/>
	</g>
</g>
</svg>
