<?xml version="1.0" encoding="utf-8"?>
<!-- Generator: Adobe Illustrator 23.0.2, SVG Export Plug-In . SVG Version: 6.00 Build 0)  -->
<svg version="1.1" id="Layer_1" xmlns="http://www.w3.org/2000/svg" xmlns:xlink="http://www.w3.org/1999/xlink" x="0px" y="0px"
	 width="395px" height="1662px" viewBox="0 0 395 1662" style="enable-background:new 0 0 395 1662;" xml:space="preserve">
<style type="text/css">
	.st0{fill:none;stroke:#EFEFEF;stroke-miterlimit:10;}
	.st1{fill:url(#SVGID_1_);}
	.st2{fill:url(#SVGID_2_);}
	.st3{fill:url(#SVGID_3_);}
	.st4{fill:none;stroke:#F4A16D;stroke-miterlimit:10;}
	.st5{fill:url(#SVGID_4_);}
	.st6{fill:none;stroke:#9BCABE;stroke-miterlimit:10;}
	.st7{fill:none;stroke:#C5B4DB;stroke-miterlimit:10;}
	.st8{fill:none;stroke:#D5AFD3;stroke-miterlimit:10;}
	.st9{fill:#FFFFFF;}
	.st10{fill:#A3A3A3;}
	.st11{fill:#0082C8;stroke:#C0C0C0;stroke-miterlimit:10;}
	.st12{fill:none;stroke:#FFFFFF;stroke-width:4;stroke-linecap:round;stroke-miterlimit:10;}
</style>
<g>
	<rect x="1.5" y="542.6" class="st0" width="219.8" height="100"/>
	<line class="st0" x1="1.5" y1="562.6" x2="221.6" y2="562.6"/>
	<line class="st0" x1="1.5" y1="582.3" x2="221.6" y2="582.3"/>
	<line class="st0" x1="1.5" y1="602.5" x2="221.6" y2="602.5"/>
	<line class="st0" x1="1.5" y1="622.6" x2="221.6" y2="622.6"/>
	<line class="st0" x1="21.5" y1="542.6" x2="21.5" y2="642.9"/>
	<line class="st0" x1="41.3" y1="542.6" x2="41.3" y2="642.9"/>
	<line class="st0" x1="61.7" y1="542.6" x2="61.7" y2="642.9"/>
	<line class="st0" x1="81.5" y1="542.6" x2="81.5" y2="642.9"/>
	<line class="st0" x1="101.4" y1="542.6" x2="101.4" y2="642.9"/>
	<line class="st0" x1="121.5" y1="542.6" x2="121.5" y2="642.9"/>
	<line class="st0" x1="141.4" y1="542.6" x2="141.4" y2="642.9"/>
	<line class="st0" x1="161.7" y1="542.6" x2="161.7" y2="642.9"/>
	<line class="st0" x1="181.6" y1="542.6" x2="181.6" y2="642.9"/>
	<line class="st0" x1="201.7" y1="542.6" x2="201.7" y2="642.9"/>
</g>
<linearGradient id="SVGID_1_" gradientUnits="userSpaceOnUse" x1="111.4042" y1="641.9894" x2="111.4042" y2="570.0437">
	<stop  offset="0" style="stop-color:#FFFFFF"/>
	<stop  offset="5.740482e-02" style="stop-color:#FEFDFE"/>
	<stop  offset="0.6015" style="stop-color:#FAEBF8"/>
	<stop  offset="1" style="stop-color:#F8E5F6"/>
</linearGradient>
<path class="st1" d="M221.3,640.8c-7.5-2-7.7-7.6-8.9-13.3c-1.1-5.7-4.7-5.3-7.9-0.5s-4.2-8.5-6.4-14.2c-2.2-5.7-5.4-7.1-14.2-4.1
	s-12.6-4.3-14.7-7.2s-6.1-7.1-16.5-3.7s-14-2.9-16.6-6.6c-2.6-3.7-6.6-7.3-21.4-15.8s-20-6.1-28.7,1.5S56.2,593.5,38,583
	s-36.5-9.4-36.5-9.4V642h219.8V640.8z"/>
<g>
	<rect x="21.5" y="361.6" class="st0" width="219.8" height="100"/>
	<line class="st0" x1="21.5" y1="381.6" x2="241.6" y2="381.6"/>
	<line class="st0" x1="21.5" y1="401.3" x2="241.6" y2="401.3"/>
	<line class="st0" x1="21.5" y1="421.5" x2="241.6" y2="421.5"/>
	<line class="st0" x1="21.5" y1="441.6" x2="241.6" y2="441.6"/>
	<line class="st0" x1="41.5" y1="361.6" x2="41.5" y2="461.9"/>
	<line class="st0" x1="61.3" y1="361.6" x2="61.3" y2="461.9"/>
	<line class="st0" x1="81.7" y1="361.6" x2="81.7" y2="461.9"/>
	<line class="st0" x1="101.5" y1="361.6" x2="101.5" y2="461.9"/>
	<line class="st0" x1="121.4" y1="361.6" x2="121.4" y2="461.9"/>
	<line class="st0" x1="141.5" y1="361.6" x2="141.5" y2="461.9"/>
	<line class="st0" x1="161.4" y1="361.6" x2="161.4" y2="461.9"/>
	<line class="st0" x1="181.7" y1="361.6" x2="181.7" y2="461.9"/>
	<line class="st0" x1="201.6" y1="361.6" x2="201.6" y2="461.9"/>
	<line class="st0" x1="221.7" y1="361.6" x2="221.7" y2="461.9"/>
</g>
<linearGradient id="SVGID_2_" gradientUnits="userSpaceOnUse" x1="131.4043" y1="461.0213" x2="131.4043" y2="389.139">
	<stop  offset="0" style="stop-color:#FFFFFF"/>
	<stop  offset="0.3649" style="stop-color:#F0E7FA"/>
	<stop  offset="0.7314" style="stop-color:#E5D5F6"/>
	<stop  offset="1" style="stop-color:#E1CFF5"/>
</linearGradient>
<path class="st2" d="M240.9,392.7c-7.1-0.3-14.8,2.6-20.6,7.9c-5.8,5.4-13.2,6.3-28.3,6.6s-27.1,2.6-49.9-12.7s-28.8,6.3-31.4,10.6
	s-8.6,17.5-19.5,12.2c-10.9-5.4-14,1.6-18.4,6.1c-4.3,4.5-8.2,6.8-15.4,4.2s-9.4,0.2-12.1,10.2s-2.7,10.8-6.8,7.7s-5.3-3.9-7,4.9
	c-1.7,8.8-10.1,10.6-10.1,10.6h219.8L240.9,392.7z"/>
<g>
	<rect x="21.5" y="180.6" class="st0" width="219.8" height="100"/>
	<line class="st0" x1="21.5" y1="200.6" x2="241.6" y2="200.6"/>
	<line class="st0" x1="21.5" y1="220.3" x2="241.6" y2="220.3"/>
	<line class="st0" x1="21.5" y1="240.5" x2="241.6" y2="240.5"/>
	<line class="st0" x1="21.5" y1="260.6" x2="241.6" y2="260.6"/>
	<line class="st0" x1="41.5" y1="180.6" x2="41.5" y2="280.9"/>
	<line class="st0" x1="61.3" y1="180.6" x2="61.3" y2="280.9"/>
	<line class="st0" x1="81.7" y1="180.6" x2="81.7" y2="280.9"/>
	<line class="st0" x1="101.5" y1="180.6" x2="101.5" y2="280.9"/>
	<line class="st0" x1="121.4" y1="180.6" x2="121.4" y2="280.9"/>
	<line class="st0" x1="141.5" y1="180.6" x2="141.5" y2="280.9"/>
	<line class="st0" x1="161.4" y1="180.6" x2="161.4" y2="280.9"/>
	<line class="st0" x1="181.7" y1="180.6" x2="181.7" y2="280.9"/>
	<line class="st0" x1="201.6" y1="180.6" x2="201.6" y2="280.9"/>
	<line class="st0" x1="221.7" y1="180.6" x2="221.7" y2="280.9"/>
</g>
<g>
	<rect x="21.5" y="0.6" class="st0" width="219.8" height="100"/>
	<line class="st0" x1="21.5" y1="20.6" x2="241.6" y2="20.6"/>
	<line class="st0" x1="21.5" y1="40.3" x2="241.6" y2="40.3"/>
	<line class="st0" x1="21.5" y1="60.5" x2="241.6" y2="60.5"/>
	<line class="st0" x1="21.5" y1="80.6" x2="241.6" y2="80.6"/>
	<line class="st0" x1="41.5" y1="0.6" x2="41.5" y2="100.9"/>
	<line class="st0" x1="61.3" y1="0.6" x2="61.3" y2="100.9"/>
	<line class="st0" x1="81.7" y1="0.6" x2="81.7" y2="100.9"/>
	<line class="st0" x1="101.5" y1="0.6" x2="101.5" y2="100.9"/>
	<line class="st0" x1="121.4" y1="0.6" x2="121.4" y2="100.9"/>
	<line class="st0" x1="141.5" y1="0.6" x2="141.5" y2="100.9"/>
	<line class="st0" x1="161.4" y1="0.6" x2="161.4" y2="100.9"/>
	<line class="st0" x1="181.7" y1="0.6" x2="181.7" y2="100.9"/>
	<line class="st0" x1="201.6" y1="0.6" x2="201.6" y2="100.9"/>
	<line class="st0" x1="221.7" y1="0.6" x2="221.7" y2="100.9"/>
</g>
<linearGradient id="SVGID_3_" gradientUnits="userSpaceOnUse" x1="131.5319" y1="99.8936" x2="131.5319" y2="13.5413">
	<stop  offset="0" style="stop-color:#FFFFFF"/>
	<stop  offset="0.207" style="stop-color:#FFF9F5"/>
	<stop  offset="0.6647" style="stop-color:#FFEFE3"/>
	<stop  offset="1" style="stop-color:#FFEBDD"/>
</linearGradient>
<path class="st3" d="M241.7,31.8l-15.5-13.1c-25-18-31.5,15.1-35.6,39.1c-4.1,24-13.8,8.5-40.2-21.8s-39.1,1.2-45.3,11.6
	C99.1,58,93,58.9,86.9,56.3c-6.1-2.6-10.2-2-15.1,4.4c-4.9,6.5-2.6-5.6-11.6-23.8s-9.5-1-12.3,13.6s-4.1,35.6-9.5,36.3
	c-5.4,0.7-4.3-14.3-9.7-41.7s-7.3,54.8-7.3,54.8h220.4V31.8z"/>
<path class="st4" d="M21.3,99.9c0,0,1.9-82.2,7.3-54.8s4.3,42.4,9.7,41.7c5.4-0.7,6.8-21.6,9.5-36.3s3.2-31.8,12.3-13.6
	s6.6,30.3,11.6,23.8c4.9-6.5,9-7,15.1-4.4c6.1,2.6,12.3,1.7,18.4-8.7c6.1-10.4,18.9-41.9,45.3-11.6s36.1,45.8,40.2,21.8
	c4.1-24,10.6-57.2,35.6-39.1l15.5,13.1"/>
<linearGradient id="SVGID_4_" gradientUnits="userSpaceOnUse" x1="131.5106" y1="280.5533" x2="131.5106" y2="201.4201">
	<stop  offset="0" style="stop-color:#FFFFFF"/>
	<stop  offset="0.2741" style="stop-color:#F0FAF7"/>
	<stop  offset="0.6931" style="stop-color:#DEF3EE"/>
	<stop  offset="1" style="stop-color:#D8F1EB"/>
</linearGradient>
<path class="st5" d="M240.9,206.5c0-4.9-5-14-36.7,18s-31.7,38-61.6,36.1s-38.1-26.5-50.5-48.7s-22.8-4.1-35.3,18.8
	s-34.8,30.6-34.8,30.6v19.3h218.8V206.5z"/>
<path class="st6" d="M22.1,260.7c0,0,21-7.1,33.6-30s23.1-40.9,35.6-18.8s20.8,46.8,50.9,48.7s30.1-4.1,62.1-36.1
	s36.6-23.5,36.6-18.5"/>
<path class="st7" d="M21.5,461c0,0,8.4-1.8,10.1-10.6c1.7-8.8,2.9-8.1,7-4.9s4.2,2.4,6.8-7.7s4.9-12.9,12.1-10.2s11.1,0.3,15.4-4.2
	c4.3-4.5,7.5-11.5,18.4-6.1c10.9,5.4,16.9-7.9,19.5-12.2s8.7-25.9,31.4-10.6s34.8,13,49.9,12.7s22.5-1.3,28.3-6.6
	c5.8-5.4,13.5-8.2,20.6-7.9"/>
<path class="st8" d="M1.5,573.6c0,0,18.2-1.1,36.5,9.4s39.4,1.5,48.1-6.1s13.9-10,28.7-1.5s18.9,12.2,21.4,15.8
	c2.6,3.7,6.3,10,16.6,6.6s14.4,0.8,16.5,3.7s5.9,10.3,14.7,7.2s12-1.6,14.2,4.1c2.2,5.7,3.2,19,6.4,14.2s6.8-5.2,7.9,0.5
	c1.1,5.7,1.4,11.3,8.9,13.3"/>
<rect y="728.2" width="178" height="156.6"/>
<g>
	<path class="st9" d="M18.3,781.6c-0.5,0.5-0.7,1.1-0.7,1.7v20.6h5v-23h-2.5C19.5,781,18.9,781.2,18.3,781.6"/>
	<path class="st9" d="M34.2,781h-7c-0.7,0-1.3,0.2-1.8,0.7c-0.5,0.5-0.7,1.1-0.7,1.7V804h8.2c2.3,0,4.1-0.1,5.1-0.5
		c1.2-0.3,2.3-0.9,3.3-1.6c1.2-0.9,2.2-2.2,3-3.9c0.7-1.7,1-3.5,1-5.5c0-3.9-0.9-6.7-2.7-8.6C40.7,781.9,37.9,781,34.2,781
		 M38.6,798.1c-1.1,1.1-2.8,1.7-5.1,1.7h-4V785h4.7c2.1,0,3.6,0.6,4.5,1.8c1,1.2,1.5,3.1,1.5,5.7C40.2,795.1,39.7,797,38.6,798.1"/>
	<path class="st9" d="M56.1,786.2c-1.3,0-2.5,0.1-3.7,0.5c-1.2,0.3-2.3,0.8-3.1,1.5c-0.9,0.7-1.7,1.7-2.2,2.9
		c-0.5,1.2-0.8,2.7-0.8,4.4v8.6h4.9v-9.1c0-1.3,0.3-2.3,1-2.9c0.7-0.6,1.7-0.9,3.1-0.9h1.6v-4.7h-0.3L56.1,786.2z"/>
	<path class="st9" d="M60.9,786.2h-2.5v17.8h4.9v-15.5c0-0.6-0.3-1.1-0.7-1.6C62.1,786.4,61.6,786.2,60.9,786.2"/>
	<path class="st9" d="M78.7,786.2c-1.1,0-1.9,0.5-2.3,1.6l-3.3,10.9l-3.7-12.5h-5.3l6.6,17.8h5l6.7-17.8H78.7z"/>
	<path class="st9" d="M60.6,779.7c1.5,0,2.7,1.1,2.7,2.6c0,1.4-1.2,2.6-2.7,2.6c-1.5,0-2.7-1.1-2.7-2.6
		C57.9,780.8,59,779.7,60.6,779.7"/>
	<path class="st9" d="M97.2,788.1c-1.5-1.6-3.7-2.4-6.6-2.4c-2.7,0-4.8,0.8-6.3,2.5c-1.5,1.6-2.2,3.9-2.2,6.7c0,3,0.7,5.3,2.3,6.9
		c1.5,1.7,3.6,2.5,6.3,2.5c2.2,0,4.1-0.5,5.5-1.5c1.5-1,2.5-2.4,3-4.3h-3.5c-0.5,0-1,0.1-1.3,0.3c-0.3,0.2-0.5,0.4-0.5,0.5
		c-0.1,0.1-0.3,0.3-0.4,0.4c-0.1,0.1-0.3,0.2-0.4,0.2c-0.5,0.3-1.3,0.5-2.1,0.5c-1.2,0-2.1-0.3-2.7-1.1c-0.7-0.7-1-1.7-1.1-3.1h12.2
		c0.1-0.1,0.1-0.3,0.1-0.5v-0.3v-0.5C99.4,792,98.7,789.8,97.2,788.1 M87.2,793.2c0.1-1.1,0.4-2.1,1.1-2.7c0.7-0.6,1.5-0.9,2.5-0.9
		c1.1,0,2,0.3,2.6,0.9c0.6,0.6,0.9,1.5,1,2.7H87.2z"/>
	<path class="st9" d="M118,804.1h-8.5v-16.6c0-1.1,0.9-2,1.9-2h6.9c3.5,0,5.8,1.4,5.8,4.7c0,2-0.8,3.1-2.3,3.9
		c1.9,0.7,2.9,1.9,2.9,4.4C124.7,802.3,122,804.1,118,804.1 M117.5,788.8h-4.2v4h4.3c1.5,0,2.7-0.5,2.7-2
		C120.3,789.2,119.2,788.8,117.5,788.8 M117.7,795.9h-4.4v4.9h4.5c1.9,0,3.1-0.5,3.1-2.4C120.7,796.5,119.6,795.9,117.7,795.9"/>
	<path class="st9" d="M128.4,785.6h3.7l3.7,14.2l3.7-14.2h5.7v18.6h-3.6v-15l-3.8,15h-3.9l-3.8-15v15h-3.6v-16.6
		C126.5,786.5,127.3,785.6,128.4,785.6"/>
	<path class="st9" d="M159.2,795.2c0.8,0.3,1.4,0.7,1.8,1.3c0.3,0.6,0.5,1.5,0.6,2.7l0.1,3.7c0,0.6,0.3,1,0.6,1.2h-4.2
		c-0.2-0.3-0.3-0.7-0.3-1.1c-0.1-0.3-0.1-1.3-0.1-3.1c-0.1-2.3-0.5-2.9-2.8-2.9h-4.1v7.2H147v-16.5c0-1.1,0.9-2,1.9-2h7.1
		c3.9,0,6,1.5,6,5.3C162,793.2,161,794.7,159.2,795.2 M155.5,788.8h-4.7v4.9h4.5c1.8,0,2.8-0.7,2.8-2.5
		C158.1,789.5,157.2,788.8,155.5,788.8"/>
	<path class="st9" d="M102,782.4c-0.1-0.1-0.3-0.3-0.5-0.4c0.4-0.1,0.7-0.2,0.9-0.4c0.2-0.2,0.3-0.5,0.3-0.8c0-0.3-0.1-0.5-0.2-0.7
		c-0.1-0.2-0.3-0.3-0.5-0.4c-0.2-0.1-0.5-0.1-1-0.1h-0.1h-1.7v4.3h0.9v-1.8h0.2c0.2,0,0.3,0,0.5,0.1c0.1,0,0.1,0.1,0.3,0.1
		c0.1,0.1,0.3,0.3,0.5,0.7l0.6,0.9h1.1l-0.5-0.9C102.3,782.7,102.2,782.5,102,782.4 M101,781.4h-0.3H100v-1.1h0.7h0.2h0.4
		c0.1,0,0.3,0.1,0.3,0.2c0.1,0.1,0.1,0.2,0.1,0.3c0,0.1-0.1,0.3-0.1,0.3c-0.1,0.1-0.1,0.1-0.3,0.2H101z"/>
	<path class="st9" d="M103.9,778.8c-0.8-0.7-1.9-1.2-3-1.2c-1.1,0-2.2,0.5-3,1.2c-0.8,0.8-1.3,1.8-1.3,3s0.5,2.2,1.3,3
		c0.7,0.7,1.8,1.2,3,1.2c1.1,0,2.2-0.5,3-1.2c0.8-0.7,1.3-1.8,1.3-3S104.6,779.5,103.9,778.8 M103.3,784.1c-0.6,0.6-1.5,0.9-2.4,0.9
		c-0.9,0-1.8-0.3-2.4-0.9c-0.6-0.6-1-1.5-1-2.4c0-0.9,0.4-1.8,1-2.4c0.6-0.6,1.5-1,2.4-1c0.9,0,1.8,0.4,2.4,1c0.6,0.6,1,1.5,1,2.4
		C104.2,782.6,103.9,783.5,103.3,784.1"/>
</g>
<g>
	<path class="st10" d="M42.9,824h3.5c1.1,0,2,0.1,2.7,0.3c0.7,0.2,1.3,0.7,1.8,1.4c0.5,0.7,0.7,1.6,0.7,2.6c0,0.9-0.2,1.7-0.6,2.4
		s-0.9,1.2-1.6,1.5s-1.7,0.4-3,0.4h-1.2v5.5h-2.3V824z M45.3,825.8v4.9h1.2c1,0,1.8-0.2,2.1-0.6s0.6-1,0.6-1.9
		c0-0.6-0.1-1.2-0.4-1.6c-0.3-0.4-0.6-0.7-0.9-0.7c-0.3-0.1-0.8-0.1-1.5-0.1H45.3z"/>
	<path class="st10" d="M61,832.8c0,3.7-1.4,5.6-4.1,5.6c-1.3,0-2.3-0.5-3-1.4c-0.7-0.9-1.1-2.3-1.1-4.1c0-3.7,1.4-5.5,4.1-5.5
		c1.3,0,2.3,0.4,3,1.3S61,831,61,832.8z M58.7,832.9c0-1.5-0.2-2.5-0.5-3c-0.3-0.5-0.8-0.8-1.3-0.8c-1.2,0-1.8,1.3-1.8,3.8
		c0,1.3,0.1,2.3,0.4,2.9c0.3,0.6,0.7,0.9,1.4,0.9c0.6,0,1.1-0.3,1.4-1C58.5,835.1,58.7,834.2,58.7,832.9z"/>
	<path class="st10" d="M61.7,827.7h2.1l1.6,7.2l1.5-7.2h1.9l1.5,7.2l1.7-7.2h1.8l-2.6,10.5h-1.8l-1.6-7.2l-1.5,7.2h-1.8L61.7,827.7z
		"/>
	<path class="st10" d="M82.5,833.2h-5.9c0,1.4,0.2,2.4,0.6,2.8s0.9,0.7,1.4,0.7c1,0,1.6-0.6,1.8-1.9l2,0.3c-0.5,2.2-1.8,3.3-3.9,3.3
		c-1.3,0-2.3-0.5-3-1.4s-1.1-2.2-1.1-4c0-1.8,0.4-3.2,1.1-4.2c0.8-1,1.8-1.5,3-1.5c0.9,0,1.6,0.2,2.2,0.7c0.6,0.5,1,1.1,1.3,1.9
		C82.4,830.9,82.5,831.9,82.5,833.2z M80.3,831.8c0-1.8-0.6-2.8-1.8-2.8c-1.1,0-1.7,0.9-1.9,2.8H80.3z"/>
	<path class="st10" d="M84.3,827.7h1.9v2.3c0.6-1.7,1.5-2.6,2.6-2.6c0.1,0,0.2,0,0.4,0v2.2c-0.2,0-0.3,0-0.4,0c-1.5,0-2.3,1-2.3,3.1
		v5.3h-2.2V827.7z"/>
	<path class="st10" d="M97.7,833.2h-5.9c0,1.4,0.2,2.4,0.6,2.8s0.9,0.7,1.4,0.7c1,0,1.6-0.6,1.8-1.9l2,0.3c-0.5,2.2-1.8,3.3-3.9,3.3
		c-1.3,0-2.3-0.5-3-1.4s-1.1-2.2-1.1-4c0-1.8,0.4-3.2,1.1-4.2c0.8-1,1.8-1.5,3-1.5c0.9,0,1.6,0.2,2.2,0.7c0.6,0.5,1,1.1,1.3,1.9
		C97.5,830.9,97.7,831.9,97.7,833.2z M95.5,831.8c0-1.8-0.6-2.8-1.8-2.8c-1.1,0-1.7,0.9-1.9,2.8H95.5z"/>
	<path class="st10" d="M104.9,824h2.2v14.1h-2v-1.6c-0.5,1.2-1.4,1.8-2.6,1.8c-1.2,0-2.1-0.5-2.6-1.5s-0.9-2.3-0.9-3.9
		c0-1.7,0.3-3.1,1-4c0.6-1,1.5-1.4,2.6-1.4c1.1,0,1.9,0.5,2.4,1.4V824z M104.9,832c0-1.1-0.2-1.8-0.6-2.3c-0.4-0.4-0.8-0.6-1.3-0.6
		c-1.2,0-1.8,1.2-1.8,3.7c0,2.6,0.6,3.9,1.8,3.9c0.5,0,0.9-0.2,1.3-0.7c0.4-0.4,0.6-1.2,0.6-2.3V832z"/>
	<path class="st10" d="M123.3,831c0,2.4-0.4,4.2-1.3,5.5c-0.9,1.2-2.1,1.9-3.8,1.9c-1.6,0-2.9-0.6-3.8-1.8c-0.9-1.2-1.3-3.1-1.3-5.5
		c0-2.4,0.4-4.2,1.3-5.5c0.9-1.2,2.1-1.9,3.8-1.9c1.6,0,2.9,0.6,3.8,1.8C122.9,826.8,123.3,828.6,123.3,831z M120.9,831.1
		c0-1.7-0.2-3-0.6-4c-0.4-1-1.1-1.4-2-1.4s-1.7,0.5-2,1.5c-0.4,1-0.6,2.3-0.6,4c0,1.6,0.2,3,0.6,3.9s1.1,1.5,2.1,1.5
		c0.9,0,1.6-0.5,2-1.4S120.9,832.8,120.9,831.1z"/>
	<path class="st10" d="M127.9,827.7h1.9v1.7h-1.9v8.7h-2.1v-8.7h-1.4v-1.7h1.4c0-1.2,0.1-2.1,0.3-2.6s0.5-0.8,0.9-1.1
		c0.4-0.3,1-0.4,1.8-0.4c0.4,0,0.9,0,1.3,0.1v1.7c-0.3,0-0.6-0.1-0.8-0.1c-0.4,0-0.7,0.1-0.9,0.2c-0.2,0.2-0.3,0.4-0.4,0.6
		S127.9,826.9,127.9,827.7z"/>
	<path class="st10" d="M134,827.7h1.9v1.7H134v8.7h-2.1v-8.7h-1.4v-1.7h1.4c0-1.2,0.1-2.1,0.3-2.6s0.5-0.8,0.9-1.1
		c0.4-0.3,1-0.4,1.8-0.4c0.4,0,0.9,0,1.3,0.1v1.7c-0.3,0-0.6-0.1-0.8-0.1c-0.4,0-0.7,0.1-0.9,0.2c-0.2,0.2-0.3,0.4-0.4,0.6
		S134,826.9,134,827.7z"/>
</g>
<rect x="0.6" y="986.8" class="st11" width="177.4" height="156.6"/>
<path class="st9" d="M17.7,1059.4c-0.5,0.5-0.7,1.1-0.7,1.7v20.6h5v-23h-2.5C18.8,1058.7,18.2,1058.9,17.7,1059.4"/>
<path class="st9" d="M33.5,1058.7h-7c-0.7,0-1.3,0.2-1.8,0.7c-0.5,0.5-0.7,1.1-0.7,1.7v20.6h8.2c2.3,0,4.1-0.1,5.1-0.5
	c1.2-0.3,2.3-0.9,3.3-1.6c1.2-0.9,2.2-2.2,3-3.9c0.7-1.7,1-3.5,1-5.5c0-3.9-0.9-6.7-2.7-8.6C40,1059.6,37.2,1058.7,33.5,1058.7
	 M38,1075.8c-1.1,1.1-2.8,1.7-5.1,1.7h-4v-14.8h4.7c2.1,0,3.6,0.6,4.5,1.8c1,1.2,1.5,3.1,1.5,5.7C39.5,1072.9,39,1074.7,38,1075.8"
	/>
<path class="st9" d="M55.5,1063.9c-1.3,0-2.5,0.1-3.7,0.5c-1.2,0.3-2.3,0.8-3.1,1.5c-0.9,0.7-1.7,1.7-2.2,2.9
	c-0.5,1.2-0.8,2.7-0.8,4.4v8.6h4.9v-9.1c0-1.3,0.3-2.3,1-2.9c0.7-0.6,1.7-0.9,3.1-0.9h1.6v-4.7h-0.3L55.5,1063.9z"/>
<path class="st9" d="M60.2,1063.9h-2.5v17.8h4.9v-15.5c0-0.6-0.3-1.1-0.7-1.6S60.9,1063.9,60.2,1063.9"/>
<path class="st9" d="M78,1063.9c-1.1,0-1.9,0.5-2.3,1.6l-3.3,10.9l-3.7-12.5h-5.3l6.6,17.8h5l6.7-17.8H78z"/>
<path class="st9" d="M59.9,1057.4c1.5,0,2.7,1.1,2.7,2.6c0,1.4-1.2,2.6-2.7,2.6c-1.5,0-2.7-1.1-2.7-2.6
	C57.2,1058.6,58.4,1057.4,59.9,1057.4"/>
<path class="st9" d="M96.5,1065.8c-1.5-1.6-3.7-2.4-6.6-2.4c-2.7,0-4.8,0.8-6.3,2.5c-1.5,1.6-2.2,3.9-2.2,6.7c0,3,0.7,5.3,2.3,6.9
	c1.5,1.7,3.6,2.5,6.3,2.5c2.2,0,4.1-0.5,5.5-1.5c1.5-1,2.5-2.4,3-4.3H95c-0.5,0-1,0.1-1.3,0.3c-0.3,0.2-0.5,0.4-0.5,0.5
	c-0.1,0.1-0.3,0.3-0.4,0.4c-0.1,0.1-0.3,0.2-0.4,0.2c-0.5,0.3-1.3,0.5-2.1,0.5c-1.2,0-2.1-0.3-2.7-1.1c-0.7-0.7-1-1.7-1.1-3.1h12.2
	c0.1-0.1,0.1-0.3,0.1-0.5v-0.3v-0.5C98.8,1069.7,98,1067.5,96.5,1065.8 M86.5,1070.9c0.1-1.1,0.4-2.1,1.1-2.7
	c0.7-0.6,1.5-0.9,2.5-0.9c1.1,0,2,0.3,2.6,0.9c0.6,0.6,0.9,1.5,1,2.7H86.5z"/>
<path class="st9" d="M117.3,1081.9h-8.5v-16.6c0-1.1,0.9-2,1.9-2h6.9c3.5,0,5.8,1.4,5.8,4.7c0,2-0.8,3.1-2.3,3.9
	c1.9,0.7,2.9,1.9,2.9,4.4C124.1,1080.1,121.3,1081.9,117.3,1081.9 M116.8,1066.5h-4.2v4h4.3c1.5,0,2.7-0.5,2.7-2
	C119.6,1067,118.5,1066.5,116.8,1066.5 M117,1073.7h-4.4v4.9h4.5c1.9,0,3.1-0.5,3.1-2.4C120.1,1074.2,118.9,1073.7,117,1073.7"/>
<path class="st9" d="M127.8,1063.3h3.7l3.7,14.2l3.7-14.2h5.7v18.6h-3.6v-15l-3.8,15h-3.9l-3.8-15v15h-3.6v-16.6
	C125.8,1064.2,126.6,1063.3,127.8,1063.3"/>
<path class="st9" d="M158.5,1072.9c0.8,0.3,1.4,0.7,1.8,1.3c0.3,0.6,0.5,1.5,0.6,2.7l0.1,3.7c0,0.6,0.3,1,0.6,1.2h-4.2
	c-0.2-0.3-0.3-0.7-0.3-1.1c-0.1-0.3-0.1-1.3-0.1-3.1c-0.1-2.3-0.5-2.9-2.8-2.9h-4.1v7.2h-3.8v-16.5c0-1.1,0.9-2,1.9-2h7.1
	c3.9,0,6,1.5,6,5.3C161.3,1070.9,160.3,1072.5,158.5,1072.9 M154.9,1066.5h-4.7v4.9h4.5c1.8,0,2.8-0.7,2.8-2.5
	C157.5,1067.2,156.5,1066.5,154.9,1066.5"/>
<path class="st9" d="M101.4,1060.1c-0.1-0.1-0.3-0.3-0.5-0.4c0.4-0.1,0.7-0.2,0.9-0.4c0.2-0.2,0.3-0.5,0.3-0.8
	c0-0.3-0.1-0.5-0.2-0.7c-0.1-0.2-0.3-0.3-0.5-0.4c-0.2-0.1-0.5-0.1-1-0.1h-0.1h-1.7v4.3h0.9v-1.8h0.2c0.2,0,0.3,0,0.5,0.1
	c0.1,0,0.1,0.1,0.3,0.1c0.1,0.1,0.3,0.3,0.5,0.7l0.6,0.9h1.1l-0.5-0.9C101.6,1060.4,101.5,1060.2,101.4,1060.1 M100.3,1059.1H100
	h-0.7v-1.1h0.7h0.2h0.4c0.1,0,0.3,0.1,0.3,0.2c0.1,0.1,0.1,0.2,0.1,0.3s-0.1,0.3-0.1,0.3c-0.1,0.1-0.1,0.1-0.3,0.2H100.3z"/>
<path class="st9" d="M103.2,1056.5c-0.8-0.7-1.9-1.2-3-1.2c-1.1,0-2.2,0.5-3,1.2c-0.8,0.8-1.3,1.8-1.3,3s0.5,2.2,1.3,3
	c0.7,0.7,1.8,1.2,3,1.2c1.1,0,2.2-0.5,3-1.2c0.8-0.7,1.3-1.8,1.3-3S104,1057.2,103.2,1056.5 M102.6,1061.8c-0.6,0.6-1.5,0.9-2.4,0.9
	c-0.9,0-1.8-0.3-2.4-0.9c-0.6-0.6-1-1.5-1-2.4s0.4-1.8,1-2.4c0.6-0.6,1.5-1,2.4-1c0.9,0,1.8,0.4,2.4,1c0.6,0.6,1,1.5,1,2.4
	C103.6,1060.4,103.2,1061.2,102.6,1061.8"/>
<path class="st9" d="M95.3,1032.5v6.3c0,1.6-1.3,2.8-2.8,2.8H76.1c-1.6,0-2.8-1.3-2.8-2.8v-16.3c0-1.6,1.3-2.8,2.8-2.8h6.3v10.1
	c0,1.6,1.3,2.8,2.8,2.8H95.3z"/>
<path class="st9" d="M104.4,1013.3v16.4c0,1.6-1.3,2.8-2.8,2.8h-6.2v-10.1c0-1.6-1.3-2.8-2.8-2.8H82.4v-6.2c0-1.6,1.3-2.8,2.8-2.8
	h16.3C103.1,1010.4,104.4,1011.7,104.4,1013.3z"/>
<g>
	<path class="st9" d="M42.9,1099.1h3.5c1.1,0,2,0.1,2.7,0.3c0.7,0.2,1.3,0.7,1.8,1.4c0.5,0.7,0.7,1.6,0.7,2.6c0,0.9-0.2,1.7-0.6,2.4
		s-0.9,1.2-1.6,1.5s-1.7,0.4-3,0.4h-1.2v5.5h-2.3V1099.1z M45.3,1100.9v4.9h1.2c1,0,1.8-0.2,2.1-0.6s0.6-1,0.6-1.9
		c0-0.6-0.1-1.2-0.4-1.6c-0.3-0.4-0.6-0.7-0.9-0.7c-0.3-0.1-0.8-0.1-1.5-0.1H45.3z"/>
	<path class="st9" d="M61,1107.9c0,3.7-1.4,5.6-4.1,5.6c-1.3,0-2.3-0.5-3-1.4c-0.7-0.9-1.1-2.3-1.1-4.1c0-3.7,1.4-5.5,4.1-5.5
		c1.3,0,2.3,0.4,3,1.3S61,1106.1,61,1107.9z M58.7,1108c0-1.5-0.2-2.5-0.5-3c-0.3-0.5-0.8-0.8-1.3-0.8c-1.2,0-1.8,1.3-1.8,3.8
		c0,1.3,0.1,2.3,0.4,2.9c0.3,0.6,0.7,0.9,1.4,0.9c0.6,0,1.1-0.3,1.4-1C58.5,1110.3,58.7,1109.3,58.7,1108z"/>
	<path class="st9" d="M61.7,1102.8h2.1l1.6,7.2l1.5-7.2h1.9l1.5,7.2l1.7-7.2h1.8l-2.6,10.5h-1.8l-1.6-7.2l-1.5,7.2h-1.8L61.7,1102.8
		z"/>
	<path class="st9" d="M82.5,1108.3h-5.9c0,1.4,0.2,2.4,0.6,2.8s0.9,0.7,1.4,0.7c1,0,1.6-0.6,1.8-1.9l2,0.3c-0.5,2.2-1.8,3.3-3.9,3.3
		c-1.3,0-2.3-0.5-3-1.4s-1.1-2.2-1.1-4c0-1.8,0.4-3.2,1.1-4.2c0.8-1,1.8-1.5,3-1.5c0.9,0,1.6,0.2,2.2,0.7c0.6,0.5,1,1.1,1.3,1.9
		C82.4,1106,82.5,1107,82.5,1108.3z M80.3,1106.9c0-1.8-0.6-2.8-1.8-2.8c-1.1,0-1.7,0.9-1.9,2.8H80.3z"/>
	<path class="st9" d="M84.3,1102.8h1.9v2.3c0.6-1.7,1.5-2.6,2.6-2.6c0.1,0,0.2,0,0.4,0v2.2c-0.2,0-0.3,0-0.4,0c-1.5,0-2.3,1-2.3,3.1
		v5.3h-2.2V1102.8z"/>
	<path class="st9" d="M97.7,1108.3h-5.9c0,1.4,0.2,2.4,0.6,2.8s0.9,0.7,1.4,0.7c1,0,1.6-0.6,1.8-1.9l2,0.3c-0.5,2.2-1.8,3.3-3.9,3.3
		c-1.3,0-2.3-0.5-3-1.4s-1.1-2.2-1.1-4c0-1.8,0.4-3.2,1.1-4.2c0.8-1,1.8-1.5,3-1.5c0.9,0,1.6,0.2,2.2,0.7c0.6,0.5,1,1.1,1.3,1.9
		C97.5,1106,97.7,1107,97.7,1108.3z M95.5,1106.9c0-1.8-0.6-2.8-1.8-2.8c-1.1,0-1.7,0.9-1.9,2.8H95.5z"/>
	<path class="st9" d="M104.9,1099.1h2.2v14.1h-2v-1.6c-0.5,1.2-1.4,1.8-2.6,1.8c-1.2,0-2.1-0.5-2.6-1.5s-0.9-2.3-0.9-3.9
		c0-1.7,0.3-3.1,1-4c0.6-1,1.5-1.4,2.6-1.4c1.1,0,1.9,0.5,2.4,1.4V1099.1z M104.9,1107.1c0-1.1-0.2-1.8-0.6-2.3
		c-0.4-0.4-0.8-0.6-1.3-0.6c-1.2,0-1.8,1.2-1.8,3.7c0,2.6,0.6,3.9,1.8,3.9c0.5,0,0.9-0.2,1.3-0.7c0.4-0.4,0.6-1.2,0.6-2.3V1107.1z"
		/>
	<path class="st9" d="M123.3,1106.2c0,2.4-0.4,4.2-1.3,5.5c-0.9,1.2-2.1,1.9-3.8,1.9c-1.6,0-2.9-0.6-3.8-1.8
		c-0.9-1.2-1.3-3.1-1.3-5.5c0-2.4,0.4-4.2,1.3-5.5c0.9-1.2,2.1-1.9,3.8-1.9c1.6,0,2.9,0.6,3.8,1.8
		C122.9,1101.9,123.3,1103.7,123.3,1106.2z M120.9,1106.2c0-1.7-0.2-3-0.6-4c-0.4-1-1.1-1.4-2-1.4s-1.7,0.5-2,1.5
		c-0.4,1-0.6,2.3-0.6,4c0,1.6,0.2,3,0.6,3.9s1.1,1.5,2.1,1.5c0.9,0,1.6-0.5,2-1.4S120.9,1107.9,120.9,1106.2z"/>
	<path class="st9" d="M125.5,1102.8h2v1.6c0.5-1.2,1.3-1.9,2.6-1.9c0.7,0,1.3,0.2,1.7,0.5c0.4,0.3,0.7,0.7,0.8,1.2
		c0.1,0.5,0.2,1.2,0.2,2.2v6.7h-2.2v-6.6c0-0.9-0.1-1.5-0.2-1.9c-0.2-0.3-0.5-0.5-1-0.5c-0.5,0-1,0.2-1.3,0.6s-0.5,1.2-0.5,2.5v5.9
		h-2.2V1102.8z"/>
</g>
<rect x="0.6" y="1244.8" class="st11" width="177.4" height="156.6"/>
<path class="st9" d="M17.7,1317.4c-0.5,0.5-0.7,1.1-0.7,1.7v20.6h5v-23h-2.5C18.8,1316.7,18.2,1316.9,17.7,1317.4"/>
<path class="st9" d="M33.5,1316.7h-7c-0.7,0-1.3,0.2-1.8,0.7c-0.5,0.5-0.7,1.1-0.7,1.7v20.6h8.2c2.3,0,4.1-0.1,5.1-0.5
	c1.2-0.3,2.3-0.9,3.3-1.6c1.2-0.9,2.2-2.2,3-3.9c0.7-1.7,1-3.5,1-5.5c0-3.9-0.9-6.7-2.7-8.6C40,1317.6,37.2,1316.7,33.5,1316.7
	 M38,1333.8c-1.1,1.1-2.8,1.7-5.1,1.7h-4v-14.8h4.7c2.1,0,3.6,0.6,4.5,1.8c1,1.2,1.5,3.1,1.5,5.7C39.5,1330.9,39,1332.7,38,1333.8"
	/>
<path class="st9" d="M55.5,1321.9c-1.3,0-2.5,0.1-3.7,0.5c-1.2,0.3-2.3,0.8-3.1,1.5c-0.9,0.7-1.7,1.7-2.2,2.9
	c-0.5,1.2-0.8,2.7-0.8,4.4v8.6h4.9v-9.1c0-1.3,0.3-2.3,1-2.9c0.7-0.6,1.7-0.9,3.1-0.9h1.6v-4.7h-0.3L55.5,1321.9z"/>
<path class="st9" d="M60.2,1321.9h-2.5v17.8h4.9v-15.5c0-0.6-0.3-1.1-0.7-1.6C61.4,1322.1,60.9,1321.9,60.2,1321.9"/>
<path class="st9" d="M78,1321.9c-1.1,0-1.9,0.5-2.3,1.6l-3.3,10.9l-3.7-12.5h-5.3l6.6,17.8h5l6.7-17.8H78z"/>
<path class="st9" d="M59.9,1315.4c1.5,0,2.7,1.1,2.7,2.6c0,1.4-1.2,2.6-2.7,2.6c-1.5,0-2.7-1.1-2.7-2.6
	C57.2,1316.6,58.4,1315.4,59.9,1315.4"/>
<path class="st9" d="M96.5,1323.8c-1.5-1.6-3.7-2.4-6.6-2.4c-2.7,0-4.8,0.8-6.3,2.5c-1.5,1.6-2.2,3.9-2.2,6.7c0,3,0.7,5.3,2.3,6.9
	c1.5,1.7,3.6,2.5,6.3,2.5c2.2,0,4.1-0.5,5.5-1.5c1.5-1,2.5-2.4,3-4.3H95c-0.5,0-1,0.1-1.3,0.3c-0.3,0.2-0.5,0.4-0.5,0.5
	c-0.1,0.1-0.3,0.3-0.4,0.4c-0.1,0.1-0.3,0.2-0.4,0.2c-0.5,0.3-1.3,0.5-2.1,0.5c-1.2,0-2.1-0.3-2.7-1.1c-0.7-0.7-1-1.7-1.1-3.1h12.2
	c0.1-0.1,0.1-0.3,0.1-0.5v-0.3v-0.5C98.8,1327.7,98,1325.5,96.5,1323.8 M86.5,1328.9c0.1-1.1,0.4-2.1,1.1-2.7
	c0.7-0.6,1.5-0.9,2.5-0.9c1.1,0,2,0.3,2.6,0.9c0.6,0.6,0.9,1.5,1,2.7H86.5z"/>
<path class="st9" d="M117.3,1339.9h-8.5v-16.6c0-1.1,0.9-2,1.9-2h6.9c3.5,0,5.8,1.4,5.8,4.7c0,2-0.8,3.1-2.3,3.9
	c1.9,0.7,2.9,1.9,2.9,4.4C124.1,1338.1,121.3,1339.9,117.3,1339.9 M116.8,1324.5h-4.2v4h4.3c1.5,0,2.7-0.5,2.7-2
	S118.5,1324.5,116.8,1324.5 M117,1331.7h-4.4v4.9h4.5c1.9,0,3.1-0.5,3.1-2.4C120.1,1332.2,118.9,1331.7,117,1331.7"/>
<path class="st9" d="M127.8,1321.3h3.7l3.7,14.2l3.7-14.2h5.7v18.6h-3.6v-15l-3.8,15h-3.9l-3.8-15v15h-3.6v-16.6
	C125.8,1322.2,126.6,1321.3,127.8,1321.3"/>
<path class="st9" d="M158.5,1330.9c0.8,0.3,1.4,0.7,1.8,1.3c0.3,0.6,0.5,1.5,0.6,2.7l0.1,3.7c0,0.6,0.3,1,0.6,1.2h-4.2
	c-0.2-0.3-0.3-0.7-0.3-1.1c-0.1-0.3-0.1-1.3-0.1-3.1c-0.1-2.3-0.5-2.9-2.8-2.9h-4.1v7.2h-3.8v-16.5c0-1.1,0.9-2,1.9-2h7.1
	c3.9,0,6,1.5,6,5.3C161.3,1328.9,160.3,1330.5,158.5,1330.9 M154.9,1324.5h-4.7v4.9h4.5c1.8,0,2.8-0.7,2.8-2.5
	C157.5,1325.2,156.5,1324.5,154.9,1324.5"/>
<path class="st9" d="M101.4,1318.1c-0.1-0.1-0.3-0.3-0.5-0.4c0.4-0.1,0.7-0.2,0.9-0.4c0.2-0.2,0.3-0.5,0.3-0.8
	c0-0.3-0.1-0.5-0.2-0.7c-0.1-0.2-0.3-0.3-0.5-0.4c-0.2-0.1-0.5-0.1-1-0.1h-0.1h-1.7v4.3h0.9v-1.8h0.2c0.2,0,0.3,0,0.5,0.1
	c0.1,0,0.1,0.1,0.3,0.1c0.1,0.1,0.3,0.3,0.5,0.7l0.6,0.9h1.1l-0.5-0.9C101.6,1318.4,101.5,1318.2,101.4,1318.1 M100.3,1317.1H100
	h-0.7v-1.1h0.7h0.2h0.4c0.1,0,0.3,0.1,0.3,0.2c0.1,0.1,0.1,0.2,0.1,0.3s-0.1,0.3-0.1,0.3c-0.1,0.1-0.1,0.1-0.3,0.2H100.3z"/>
<path class="st9" d="M103.2,1314.5c-0.8-0.7-1.9-1.2-3-1.2c-1.1,0-2.2,0.5-3,1.2c-0.8,0.8-1.3,1.8-1.3,3c0,1.2,0.5,2.2,1.3,3
	c0.7,0.7,1.8,1.2,3,1.2c1.1,0,2.2-0.5,3-1.2c0.8-0.7,1.3-1.8,1.3-3C104.5,1316.3,104,1315.2,103.2,1314.5 M102.6,1319.8
	c-0.6,0.6-1.5,0.9-2.4,0.9c-0.9,0-1.8-0.3-2.4-0.9c-0.6-0.6-1-1.5-1-2.4c0-0.9,0.4-1.8,1-2.4c0.6-0.6,1.5-1,2.4-1
	c0.9,0,1.8,0.4,2.4,1c0.6,0.6,1,1.5,1,2.4C103.6,1318.4,103.2,1319.2,102.6,1319.8"/>
<g>
	<path class="st9" d="M42.9,1357.1h3.5c1.1,0,2,0.1,2.7,0.3c0.7,0.2,1.3,0.7,1.8,1.4c0.5,0.7,0.7,1.6,0.7,2.6c0,0.9-0.2,1.7-0.6,2.4
		s-0.9,1.2-1.6,1.5s-1.7,0.4-3,0.4h-1.2v5.5h-2.3V1357.1z M45.3,1358.9v4.9h1.2c1,0,1.8-0.2,2.1-0.6s0.6-1,0.6-1.9
		c0-0.6-0.1-1.2-0.4-1.6c-0.3-0.4-0.6-0.7-0.9-0.7c-0.3-0.1-0.8-0.1-1.5-0.1H45.3z"/>
	<path class="st9" d="M61,1365.9c0,3.7-1.4,5.6-4.1,5.6c-1.3,0-2.3-0.5-3-1.4c-0.7-0.9-1.1-2.3-1.1-4.1c0-3.7,1.4-5.5,4.1-5.5
		c1.3,0,2.3,0.4,3,1.3S61,1364.1,61,1365.9z M58.7,1366c0-1.5-0.2-2.5-0.5-3c-0.3-0.5-0.8-0.8-1.3-0.8c-1.2,0-1.8,1.3-1.8,3.8
		c0,1.3,0.1,2.3,0.4,2.9c0.3,0.6,0.7,0.9,1.4,0.9c0.6,0,1.1-0.3,1.4-1C58.5,1368.3,58.7,1367.3,58.7,1366z"/>
	<path class="st9" d="M61.7,1360.8h2.1l1.6,7.2l1.5-7.2h1.9l1.5,7.2l1.7-7.2h1.8l-2.6,10.5h-1.8l-1.6-7.2l-1.5,7.2h-1.8L61.7,1360.8
		z"/>
	<path class="st9" d="M82.5,1366.3h-5.9c0,1.4,0.2,2.4,0.6,2.8s0.9,0.7,1.4,0.7c1,0,1.6-0.6,1.8-1.9l2,0.3c-0.5,2.2-1.8,3.3-3.9,3.3
		c-1.3,0-2.3-0.5-3-1.4s-1.1-2.2-1.1-4c0-1.8,0.4-3.2,1.1-4.2c0.8-1,1.8-1.5,3-1.5c0.9,0,1.6,0.2,2.2,0.7c0.6,0.5,1,1.1,1.3,1.9
		C82.4,1364,82.5,1365,82.5,1366.3z M80.3,1364.9c0-1.8-0.6-2.8-1.8-2.8c-1.1,0-1.7,0.9-1.9,2.8H80.3z"/>
	<path class="st9" d="M84.3,1360.8h1.9v2.3c0.6-1.7,1.5-2.6,2.6-2.6c0.1,0,0.2,0,0.4,0v2.2c-0.2,0-0.3,0-0.4,0c-1.5,0-2.3,1-2.3,3.1
		v5.3h-2.2V1360.8z"/>
	<path class="st9" d="M97.7,1366.3h-5.9c0,1.4,0.2,2.4,0.6,2.8s0.9,0.7,1.4,0.7c1,0,1.6-0.6,1.8-1.9l2,0.3c-0.5,2.2-1.8,3.3-3.9,3.3
		c-1.3,0-2.3-0.5-3-1.4s-1.1-2.2-1.1-4c0-1.8,0.4-3.2,1.1-4.2c0.8-1,1.8-1.5,3-1.5c0.9,0,1.6,0.2,2.2,0.7c0.6,0.5,1,1.1,1.3,1.9
		C97.5,1364,97.7,1365,97.7,1366.3z M95.5,1364.9c0-1.8-0.6-2.8-1.8-2.8c-1.1,0-1.7,0.9-1.9,2.8H95.5z"/>
	<path class="st9" d="M104.9,1357.1h2.2v14.1h-2v-1.6c-0.5,1.2-1.4,1.8-2.6,1.8c-1.2,0-2.1-0.5-2.6-1.5s-0.9-2.3-0.9-3.9
		c0-1.7,0.3-3.1,1-4c0.6-1,1.5-1.4,2.6-1.4c1.1,0,1.9,0.5,2.4,1.4V1357.1z M104.9,1365.1c0-1.1-0.2-1.8-0.6-2.3
		c-0.4-0.4-0.8-0.6-1.3-0.6c-1.2,0-1.8,1.2-1.8,3.7c0,2.6,0.6,3.9,1.8,3.9c0.5,0,0.9-0.2,1.3-0.7c0.4-0.4,0.6-1.2,0.6-2.3V1365.1z"
		/>
	<path class="st9" d="M123.3,1364.2c0,2.4-0.4,4.2-1.3,5.5c-0.9,1.2-2.1,1.9-3.8,1.9c-1.6,0-2.9-0.6-3.8-1.8
		c-0.9-1.2-1.3-3.1-1.3-5.5c0-2.4,0.4-4.2,1.3-5.5c0.9-1.2,2.1-1.9,3.8-1.9c1.6,0,2.9,0.6,3.8,1.8
		C122.9,1359.9,123.3,1361.7,123.3,1364.2z M120.9,1364.2c0-1.7-0.2-3-0.6-4c-0.4-1-1.1-1.4-2-1.4s-1.7,0.5-2,1.5
		c-0.4,1-0.6,2.3-0.6,4c0,1.6,0.2,3,0.6,3.9s1.1,1.5,2.1,1.5c0.9,0,1.6-0.5,2-1.4S120.9,1365.9,120.9,1364.2z"/>
	<path class="st9" d="M125.5,1360.8h2v1.6c0.5-1.2,1.3-1.9,2.6-1.9c0.7,0,1.3,0.2,1.7,0.5c0.4,0.3,0.7,0.7,0.8,1.2
		c0.1,0.5,0.2,1.2,0.2,2.2v6.7h-2.2v-6.6c0-0.9-0.1-1.5-0.2-1.9c-0.2-0.3-0.5-0.5-1-0.5c-0.5,0-1,0.2-1.3,0.6s-0.5,1.2-0.5,2.5v5.9
		h-2.2V1360.8z"/>
</g>
<g>
	<path class="st9" d="M102.4,1291.1H76.2c-1.6,0-2.8-1.3-2.8-2.8v-17.1c0-1.6,1.3-2.8,2.8-2.8h26.1c1.6,0,2.8,1.3,2.8,2.8v17.1
		C105.2,1289.9,103.9,1291.1,102.4,1291.1z"/>
	<line class="st12" x1="82.8" y1="1294.2" x2="95.8" y2="1294.2"/>
</g>
</svg>
