<?xml version="1.0" encoding="utf-8"?>
<!-- Generator: Adobe Illustrator 24.3.0, SVG Export Plug-In . SVG Version: 6.00 Build 0)  -->
<svg version="1.1" id="Layer_1" xmlns="http://www.w3.org/2000/svg" xmlns:xlink="http://www.w3.org/1999/xlink" x="0px" y="0px"
	 width="263.5px" height="1703.1px" viewBox="0 0 263.5 1703.1" style="enable-background:new 0 0 263.5 1703.1;"
	 xml:space="preserve">
<style type="text/css">
	.st0{fill:#FFFFFF;}
	.st1{fill:#FFFFFF;stroke:#51A0CD;stroke-miterlimit:9.9996;}
	.st2{fill:#4697CD;}
	.st3{fill:#00A1F1;}
	.st4{fill:#7A8393;}
	.st5{fill:#3C495F;}
	.st6{opacity:8.000000e-02;fill:#006CBB;enable-background:new    ;}
	.st7{fill:none;stroke:#006CBB;stroke-miterlimit:9.9996;}
	.st8{fill:#FFFFFF;stroke:#006CBB;stroke-miterlimit:9.9996;}
	.st9{fill:#006CBB;}
	.st10{fill:#748692;}
	.st11{fill:#8D98AA;}
	.st12{fill-rule:evenodd;clip-rule:evenodd;fill:#8D98AA;}
	.st13{fill-rule:evenodd;clip-rule:evenodd;fill:#FFFFFF;}
	.st14{fill:#B3B3B3;}
	.st15{fill-rule:evenodd;clip-rule:evenodd;fill:#1072BA;}
	.st16{fill-rule:evenodd;clip-rule:evenodd;fill:#B4B4B4;}
	.st17{fill-rule:evenodd;clip-rule:evenodd;fill:#4697CD;}
	.st18{fill:#E67B77;}
	.st19{opacity:0.8;}
	.st20{fill:#7A899A;}
	.st21{fill:none;stroke:#A0BED8;stroke-miterlimit:10;}
	.st22{fill:#1072BA;}
	.st23{fill:none;stroke:#FFFFFF;stroke-width:2;stroke-miterlimit:10;}
	.st24{fill:none;stroke:#4697CD;stroke-width:2;stroke-miterlimit:10;}
	.st25{fill:none;stroke:#29A5D8;stroke-width:2;stroke-miterlimit:10;}
	.st26{fill:none;stroke:#F78F2F;stroke-width:2;stroke-miterlimit:10;}
	.st27{fill:none;stroke:#F37A71;stroke-width:2;stroke-miterlimit:10;}
	.st28{fill:none;stroke:#6693B2;stroke-width:2;stroke-miterlimit:10;}
	.st29{fill:#75A1CF;}
	.st30{fill:none;stroke:#555555;stroke-width:3;stroke-miterlimit:10;}
	.st31{fill:none;stroke:#ABABAB;stroke-width:3;stroke-miterlimit:10;}
	.st32{fill:none;stroke:#FFFFFF;stroke-width:2;stroke-linecap:round;stroke-miterlimit:10;}
	.st33{fill:#3E4A60;}
	.st34{fill:#B3BAC7;}
	.st35{fill:#4C9BCE;}
	.st36{fill:#769FC2;}
	.st37{fill:none;stroke:#000000;stroke-width:2;stroke-miterlimit:10;}
	.st38{fill:#0D72BA;}
	.st39{fill:#53B848;}
	.st40{fill:none;stroke:#FFFFFF;stroke-miterlimit:10;}
	.st41{opacity:0.4;fill:url(#SVGID_1_);enable-background:new    ;}
	.st42{opacity:0.4;fill:url(#SVGID_2_);enable-background:new    ;}
	.st43{opacity:0.4;fill:url(#SVGID_3_);enable-background:new    ;}
	.st44{fill:#C0C0C0;}
	.st45{opacity:0.6;fill:url(#SVGID_4_);enable-background:new    ;}
	.st46{opacity:0.6;fill:url(#SVGID_5_);enable-background:new    ;}
	.st47{opacity:0.6;fill:url(#SVGID_6_);enable-background:new    ;}
	.st48{fill:#E2F2FC;}
	.st49{fill:#407DA5;}
</style>
<polygon points="25.4,958.7 17.9,951.2 25.4,943.8 24.7,943.1 17.2,950.5 9.8,943.1 9.1,943.8 16.5,951.2 9.1,958.7 9.8,959.4 
	17.2,951.9 24.7,959.4 "/>
<g>
	<path class="st0" d="M106.3,444.9v-13.2c0-0.2,0.2-0.4,0.3-0.4l0,0h18.3c0.2,0,0.3,0.2,0.3,0.4l0,0v4.6h1v-4.6
		c0-0.7-0.6-1.3-1.3-1.3l0,0h-18.3c-0.7,0-1.3,0.6-1.3,1.3l0,0v13.2c0,0.7,0.6,1.3,1.3,1.3l0,0h4.6v-1h-4.6
		C106.4,445.3,106.3,445.1,106.3,444.9L106.3,444.9z"/>
	<polygon class="st0" points="118.6,447.4 120.9,441.2 120,441.2 118.2,446.3 116.5,441.2 115.6,441.2 117.9,447.4 	"/>
	<polygon class="st0" points="122.6,445 122.5,442.4 124.5,447.4 125.2,447.4 127.2,442.4 127.1,445 127.1,447.4 128,447.4 
		128,441.2 126.9,441.2 124.9,446.3 122.8,441.2 121.8,441.2 121.8,447.4 122.6,447.4 	"/>
	<path class="st0" d="M129.5,438.3H114c-0.4,0-0.8,0.3-0.8,0.8v10.4c0,0.4,0.3,0.8,0.8,0.8h15.4c0.4,0,0.8-0.3,0.8-0.8l0,0v-10.4
		C130.2,438.7,129.9,438.3,129.5,438.3z M129.3,449.3h-15v-10h15V449.3z"/>
	<rect x="108.2" y="447.3" class="st0" width="3" height="1"/>
	<path class="st0" d="M106.3,444.9v-13.2c0-0.2,0.2-0.4,0.3-0.4l0,0h18.3c0.2,0,0.3,0.2,0.3,0.4l0,0v4.6h1v-4.6
		c0-0.7-0.6-1.3-1.3-1.3l0,0h-18.3c-0.7,0-1.3,0.6-1.3,1.3l0,0v13.2c0,0.7,0.6,1.3,1.3,1.3l0,0h4.6v-1h-4.6
		C106.4,445.3,106.3,445.1,106.3,444.9L106.3,444.9z"/>
	<polygon class="st0" points="118.6,447.4 120.9,441.2 120,441.2 118.2,446.3 116.5,441.2 115.6,441.2 117.9,447.4 	"/>
	<polygon class="st0" points="122.6,445 122.5,442.4 124.5,447.4 125.2,447.4 127.2,442.4 127.1,445 127.1,447.4 128,447.4 
		128,441.2 126.9,441.2 124.9,446.3 122.8,441.2 121.8,441.2 121.8,447.4 122.6,447.4 	"/>
	<path class="st0" d="M129.5,438.3H114c-0.4,0-0.8,0.3-0.8,0.8v10.4c0,0.4,0.3,0.8,0.8,0.8h15.4c0.4,0,0.8-0.3,0.8-0.8l0,0v-10.4
		C130.2,438.7,129.9,438.3,129.5,438.3z M129.3,449.3h-15v-10h15V449.3z"/>
	<rect x="108.2" y="447.3" class="st0" width="3" height="1"/>
</g>
<path class="st1" d="M106.5,500.8h13.3c0.5,0,0.8,0.4,0.8,0.8V515c0,0.5-0.4,0.8-0.8,0.8h-13.3c-0.5,0-0.8-0.4-0.8-0.8v-13.3
	C105.7,501.2,106.1,500.8,106.5,500.8z"/>
<path class="st2" d="M106.1,566.3h14.3c0.5,0,0.8,0.4,0.8,0.8v14.3c0,0.5-0.4,0.8-0.8,0.8h-14.3c-0.5,0-0.8-0.4-0.8-0.8v-14.3
	C105.2,566.7,105.6,566.3,106.1,566.3z"/>
<path class="st0" d="M109.2,573.3h8c0.5,0,1,0.4,1,1l0,0c0,0.5-0.4,1-1,1h-8c-0.5,0-1-0.4-1-1l0,0
	C108.2,573.7,108.6,573.3,109.2,573.3z"/>
<path class="st2" d="M105.1,721.3h6v5h2v-5.7c0-0.7-0.6-1.3-1.3-1.3h-7.4c-0.7,0-1.3,0.6-1.3,1.3l0,0V735c0,0.7,0.6,1.3,1.3,1.3l0,0
	h3.7v-2h-3L105.1,721.3z"/>
<path class="st2" d="M116.2,721.3h6v5h2v-5.7c0-0.7-0.6-1.3-1.3-1.3l0,0h-7.4c-0.7,0-1.3,0.6-1.3,1.3l0,0v5.7h2L116.2,721.3z"/>
<path class="st2" d="M107.1,723.3h2c0.5,0,1,0.4,1,1l0,0c0,0.5-0.4,1-1,1h-2c-0.5,0-1-0.4-1-1l0,0
	C106.1,723.7,106.5,723.3,107.1,723.3z"/>
<path class="st2" d="M106.1,731.3L106.1,731.3c0,0.6,0.4,1,1,1h1v-2h-1C106.6,730.3,106.1,730.7,106.1,731.3z"/>
<path class="st2" d="M118.1,723.3h2c0.5,0,1,0.4,1,1l0,0c0,0.5-0.4,1-1,1h-2c-0.5,0-1-0.4-1-1l0,0
	C117.1,723.7,117.6,723.3,118.1,723.3z"/>
<path class="st2" d="M123.7,727.3h-13.2c-0.8,0-1.4,0.6-1.4,1.4v8.2c0,0.8,0.6,1.4,1.4,1.4h13.2c0.8,0,1.4-0.6,1.4-1.4l0,0v-8.2
	C125.1,727.9,124.5,727.3,123.7,727.3z M123.1,736.3h-12v-7h12V736.3z"/>
<polygon class="st2" points="115.1,735.5 117.1,730.1 116.3,730.1 114.8,734.5 113.2,730.1 112.5,730.1 114.5,735.5 "/>
<path class="st2" d="M119.7,735.6c0.5,0,1-0.1,1.4-0.5c0.4-0.3,0.6-0.8,0.6-1.3H121c0,0.4-0.2,0.7-0.4,0.9c-0.3,0.2-0.6,0.3-0.9,0.3
	c-0.4,0-0.8-0.2-1-0.5c-0.3-0.4-0.4-0.9-0.4-1.4v-0.5c0-0.5,0.1-1,0.4-1.4c0.3-0.3,0.7-0.5,1.1-0.5c0.3,0,0.6,0.1,0.9,0.3
	c0.2,0.3,0.4,0.6,0.4,1h0.7c0-0.5-0.2-1-0.6-1.3s-0.9-0.5-1.4-0.5c-0.4,0-0.8,0.1-1.1,0.3c-0.3,0.2-0.6,0.5-0.8,0.9
	c-0.2,0.4-0.3,0.9-0.3,1.3v0.4c0,0.7,0.2,1.3,0.6,1.8C118.6,735.3,119.1,735.6,119.7,735.6z"/>
<polygon class="st3" points="110.9,816.5 113,811.1 112.2,811.1 110.6,815.6 109.1,811.1 108.3,811.1 110.3,816.5 "/>
<path class="st3" d="M115.6,816.6c0.5,0,1-0.1,1.4-0.5c0.4-0.3,0.6-0.8,0.6-1.3h-0.7c0,0.4-0.2,0.7-0.4,0.9
	c-0.3,0.2-0.6,0.3-0.9,0.3c-0.4,0-0.8-0.2-1-0.5c-0.3-0.4-0.4-0.9-0.4-1.4v-0.5c0-0.5,0.1-1,0.4-1.4c0.3-0.3,0.7-0.5,1.1-0.5
	c0.3,0,0.6,0.1,0.9,0.3c0.2,0.3,0.4,0.6,0.4,0.9h0.7c0-0.5-0.2-1-0.6-1.3s-0.9-0.5-1.4-0.5c-0.4,0-0.8,0.1-1.1,0.3
	c-0.3,0.2-0.6,0.5-0.8,0.9c-0.2,0.4-0.3,0.9-0.3,1.3v0.5c0,0.7,0.2,1.3,0.6,1.8C114.4,816.3,115,816.6,115.6,816.6z"/>
<polygon class="st3" points="110.3,801.3 110.3,808.3 109.3,808.3 109.3,802.3 104.4,802.3 104.4,814.3 105.3,814.3 105.3,815.3 
	103.4,815.3 103.4,801.3 "/>
<rect x="104.4" y="802.1" class="st3" width="4.9" height="6.2"/>
<rect x="103.4" y="802.2" class="st3" width="1.8" height="12.4"/>
<rect x="105.3" y="803.3" class="st0" width="3" height="1"/>
<rect x="105.3" y="805.3" class="st0" width="3" height="1"/>
<polygon class="st3" points="118.2,801.3 118.2,808.3 117.2,808.3 117.2,802.3 112.3,802.3 112.3,803.3 113.2,803.3 113.2,808.3 
	111.3,808.3 111.3,808.3 111.3,808.3 111.3,801.3 "/>
<rect x="112.2" y="802.2" class="st3" width="5.1" height="6.1"/>
<rect x="113.2" y="803.3" class="st0" width="3" height="1"/>
<rect x="113.2" y="805.3" class="st0" width="3" height="1"/>
<path class="st3" d="M120.3,818.3h-14v-9h14V818.3z M107.3,817.3h12v-7h-12V817.3z"/>
<polygon class="st4" points="108.3,873.8 103.3,878.7 103.3,868.8 "/>
<polygon class="st4" points="107.8,936.3 102.8,931.3 112.7,931.3 "/>
<polygon class="st5" points="116.2,1006.5 118.2,1001.1 117.4,1001.1 115.8,1005.5 114.3,1001.1 113.5,1001.1 115.5,1006.5 "/>
<path class="st5" d="M120.8,1006.6c0.5,0,1-0.1,1.4-0.5c0.4-0.3,0.6-0.8,0.6-1.3h-0.7c0,0.4-0.2,0.7-0.4,0.9
	c-0.3,0.2-0.6,0.3-0.9,0.3c-0.4,0-0.8-0.2-1-0.5c-0.3-0.4-0.4-0.9-0.4-1.4v-0.5c0-0.5,0.1-1,0.4-1.4c0.2-0.3,0.7-0.5,1.1-0.5
	c0.3,0,0.6,0.1,0.9,0.3c0.2,0.3,0.4,0.6,0.4,0.9h0.7c0-0.5-0.2-1-0.6-1.3s-0.9-0.5-1.4-0.5c-0.4,0-0.8,0.1-1.1,0.3
	c-0.3,0.2-0.6,0.5-0.8,0.9c-0.2,0.4-0.3,0.9-0.3,1.3v0.5c0,0.7,0.2,1.3,0.6,1.8C119.6,1006.3,120.2,1006.6,120.8,1006.6z"/>
<path class="st5" d="M103.2,990.4l6.9,0.1v7.9h1v-7.9c0-0.6-0.5-1.1-1.1-1.1l0,0h-6.9c-0.6,0-1.1,0.5-1.1,1.1l0,0v16.8
	c0,0.6,0.5,1.1,1.1,1.1l0,0h7v-1l-7.1-0.1L103.2,990.4z"/>
<path class="st5" d="M111.2,999.3v9.1h14v-9.1H111.2z M124.2,1007.3h-12v-7.1h12V1007.3z"/>
<rect x="105.2" y="1004.3" class="st5" width="2" height="1"/>
<rect x="104.2" y="991.3" class="st5" width="5" height="1"/>
<rect x="104.2" y="993.3" class="st5" width="5" height="1"/>
<rect x="104.2" y="995.3" class="st5" width="5" height="1"/>
<rect x="114.2" y="991.3" class="st5" width="5" height="1"/>
<rect x="114.2" y="993.3" class="st5" width="5" height="1"/>
<rect x="114.2" y="995.3" class="st5" width="5" height="1"/>
<path class="st5" d="M191.2,990.4l6.9,0.1v7.9h1v-7.9c0-0.6-0.5-1.1-1.1-1.1l0,0h-6.9c-0.6,0-1.1,0.5-1.1,1.1l0,0v16.8
	c0,0.6,0.5,1.1,1.1,1.1l0,0h7v-1l-7.1-0.1L191.2,990.4z"/>
<path class="st5" d="M209.1,998.3v-7.9c0-0.6-0.5-1.1-1.1-1.1l0,0h-6.9c-0.6,0-1.1,0.5-1.1,1.1l0,0v7.9H209.1L209.1,998.3z
	 M208.1,997.3h-7l0.1-7l6.9,0.1V997.3z"/>
<path class="st5" d="M199.2,999.3v9.1h14v-9.1H199.2z M212.2,1007.3h-12v-7.1h12V1007.3z"/>
<rect x="193.2" y="1004.3" class="st5" width="2" height="1"/>
<rect x="192.2" y="991.3" class="st5" width="5" height="1"/>
<rect x="192.2" y="993.3" class="st5" width="5" height="1"/>
<rect x="192.2" y="995.3" class="st5" width="5" height="1"/>
<rect x="202.1" y="991.3" class="st5" width="5" height="1"/>
<rect x="202.1" y="993.3" class="st5" width="5" height="1"/>
<rect x="202.1" y="995.3" class="st5" width="5" height="1"/>
<polygon class="st5" points="205.4,1005.5 202.5,1005.5 202.5,1004 205,1004 205,1003.4 202.5,1003.4 202.5,1002.1 205.4,1002.1 
	205.4,1001.4 201.4,1001.4 201.4,1006.2 205.4,1006.2 "/>
<polygon class="st5" points="207.1,1006.2 208.4,1004.4 209.7,1006.2 210.9,1006.2 209.1,1003.8 210.9,1001.4 209.7,1001.4 
	208.4,1003.1 207.1,1001.4 205.9,1001.4 207.7,1003.8 205.8,1006.2 "/>
<polygon class="st6" points="201.3,931.4 201.3,938.4 199.2,938.4 199.2,933.4 191,933.4 191,931.4 "/>
<polygon class="st6" points="187.1,935.3 187.1,945.3 189.2,945.3 189.2,938.4 197.4,938.4 197.4,935.3 "/>
<polygon class="st7" points="197.7,934.9 197.7,939.8 190.7,939.8 190.7,944.8 186.8,944.8 186.8,934.9 "/>
<polygon class="st7" points="201.7,930.8 201.7,939.8 197.7,939.8 197.7,934.9 190.7,934.9 190.7,930.8 "/>
<rect x="190.7" y="939.8" class="st8" width="16" height="7.8"/>
<polygon class="st9" points="195.9,946.2 197.7,941.4 197,941.4 195.6,945.3 194.3,941.4 193.6,941.4 195.3,946.2 "/>
<polygon class="st9" points="199,944.3 198.9,942.3 200.5,946.2 201,946.2 202.5,942.3 202.5,944.3 202.5,946.2 203.1,946.2 
	203.1,941.4 202.3,941.4 200.7,945.3 199.2,941.4 198.3,941.4 198.3,946.2 199,946.2 "/>
<path class="st10" d="M204.8,872.3l-2.4,2.4h-0.1l0,0v0.1l-1.5,1.5l-0.6-0.6l-2.8-2.7l-0.7-0.7h3c-1.3-2.8-4.6-3.9-7.4-2.6
	c-2.8,1.3-3.9,4.6-2.6,7.4c1.3,2.8,4.6,3.9,7.4,2.6c0.8-0.4,1.6-1,2.1-1.7l1.7,1c-2.4,3.4-7.1,4.3-10.5,1.9s-4.3-7.1-1.9-10.5
	c2.4-3.4,7.1-4.3,10.5-1.9c1.4,0.9,2.4,2.3,2.9,3.8H204.8z"/>
<path class="st10" d="M202.3,874.7L202.3,874.7C202.2,874.8,202.2,874.7,202.3,874.7L202.3,874.7L202.3,874.7z"/>
<g>
	<polygon class="st0" points="138.8,72 142.8,72 142.8,71 138.8,71 138.8,68 143.4,68 143.4,67 137.6,67 137.6,76.3 143.5,76.3 
		143.5,75.3 138.8,75.3 	"/>
	<path class="st0" d="M149.8,71.8c-0.6-0.3-1.2-0.6-1.8-0.7s-1.1-0.4-1.6-0.7c-0.3-0.2-0.5-0.6-0.5-1s0.2-0.8,0.5-1.1
		c0.9-0.6,2.1-0.5,2.9,0.1c0.4,0.3,0.6,0.8,0.5,1.3h1.2c0-0.5-0.1-1-0.4-1.4c-0.3-0.4-0.7-0.8-1.1-1c-0.5-0.2-1.1-0.4-1.7-0.4
		c-0.8,0-1.6,0.2-2.3,0.7c-0.6,0.4-0.9,1.1-0.9,1.8c0,0.6,0.3,1.2,0.7,1.6c0.7,0.5,1.4,0.9,2.3,1.1c0.6,0.1,1.2,0.4,1.7,0.7
		c0.6,0.5,0.7,1.3,0.2,1.9c-0.1,0.1-0.1,0.1-0.2,0.2c-0.4,0.3-1,0.4-1.5,0.4c-0.6,0-1.2-0.1-1.6-0.5c-0.4-0.3-0.6-0.8-0.6-1.3h-1.2
		c0,0.5,0.2,1,0.4,1.4c0.3,0.4,0.8,0.8,1.3,1c0.6,0.2,1.2,0.4,1.8,0.4c0.8,0,1.7-0.2,2.3-0.7c0.6-0.4,0.9-1.1,0.9-1.8
		c0-0.4-0.1-0.9-0.3-1.2C150.6,72.3,150.3,72,149.8,71.8z"/>
	<polygon class="st0" points="159.4,67 157.9,67 155.7,70.6 153.5,67 152,67 155,71.6 152,76.3 153.4,76.3 155.7,72.7 158,76.3 
		159.4,76.3 156.4,71.6 	"/>
	<path class="st0" d="M161.4,66.9c-0.2,0-0.4,0.1-0.5,0.2s-0.2,0.3-0.2,0.5s0.1,0.3,0.2,0.5c0.3,0.2,0.7,0.2,1,0
		c0.1-0.1,0.2-0.3,0.2-0.5s-0.1-0.4-0.2-0.5C161.7,67,161.5,66.9,161.4,66.9z"/>
	<rect x="160.8" y="69.4" class="st0" width="1.2" height="6.9"/>
	<path class="st0" d="M125.3,76.2V44.6c0-0.1,0.1-0.1,0.1-0.1H140c0.1,0,0.1,0.1,0.1,0.1v15.8h2V44.6c0-1.2-1-2.1-2.1-2.1h-14.6
		c-1.2,0-2.1,1-2.1,2.1v31.6c0,1.2,1,2.1,2.1,2.1h4.7v-2h-4.7C125.3,76.3,125.3,76.2,125.3,76.2z"/>
	<path class="st0" d="M146.3,44.6c0-0.1,0-0.1,0.1-0.1l0,0H161c0.1,0,0.1,0.1,0.1,0.1v15.8h2V44.6c0-1.2-1-2.1-2.1-2.1h-14.6
		c-1.2,0-2.1,1-2.1,2.1l0,0v15.8h2L146.3,44.6L146.3,44.6z"/>
	<path class="st0" d="M165.3,62.5h-30.8c-1.2,0-2.1,1-2.1,2.1l0,0v14.6c0,1.2,0.9,2.1,2.1,2.1l0,0h30.8c1.2,0,2.1-1,2.1-2.1V64.7
		C167.4,63.5,166.4,62.5,165.3,62.5L165.3,62.5z M165.4,79.2c0,0.1,0,0.1-0.1,0.1l0,0h-30.8c-0.1,0-0.1-0.1-0.1-0.1l0,0V64.7
		c0-0.1,0.1-0.1,0.1-0.1l0,0h30.8c0.1,0,0.1,0.1,0.1,0.1l0,0V79.2z"/>
	<rect x="128.2" y="48.4" class="st0" width="9" height="2"/>
	<rect x="128.2" y="52.3" class="st0" width="9" height="2"/>
	<rect x="149.2" y="48.4" class="st0" width="9" height="2"/>
	<rect x="149.2" y="52.3" class="st0" width="9" height="2"/>
</g>
<path class="st2" d="M106.1,632h14.3c0.5,0,0.8,0.4,0.8,0.8v14.3c0,0.5-0.4,0.8-0.8,0.8h-14.3c-0.5,0-0.8-0.4-0.8-0.8v-14.3
	C105.2,632.4,105.6,632,106.1,632z"/>
<path class="st0" d="M111.3,643.3l-2.7-2.8c-0.4-0.4-0.4-1,0-1.4l0,0c0.4-0.4,1-0.4,1.4,0l2.1,2.2l4.4-4.2c0.4-0.4,1-0.4,1.4,0l0,0
	c0.4,0.4,0.4,1,0,1.4l-5,4.7C112.4,643.7,111.7,643.7,111.3,643.3L111.3,643.3z"/>
<path class="st5" d="M120.1,989.4h-6.9c-0.6,0-1.1,0.5-1.1,1.1v7.9h1v-1.1l0,0l0.1-6.9l6.9,0.1v6.8l0,0v1.1h1l0,0v-7.9
	C121.1,989.8,120.7,989.4,120.1,989.4z"/>
<g>
	<rect x="16.2" y="216.6" class="st11" width="10" height="2"/>
	<path class="st12" d="M10.2,237.6v-12.9h24.2v-6.4c0-0.9-0.7-1.6-1.6-1.6l0,0h-2.6v2h2.2v4H10.2v-4h2v-2H9.8
		c-0.9,0-1.6,0.7-1.6,1.6l0,0v19.8c0,0.9,0.7,1.6,1.6,1.6h16.3c-0.4-0.6-0.8-1.3-1-2L10.2,237.6L10.2,237.6z"/>
	<rect x="13.2" y="214.6" class="st11" width="2" height="4"/>
	<rect x="27.2" y="214.6" class="st11" width="2" height="4"/>
	<g>
		<rect x="12.2" y="231.9" class="st11" width="3.4" height="3.4"/>
		<rect x="12.2" y="226.9" class="st11" width="3.4" height="3.4"/>
		<rect x="17.4" y="231.9" class="st11" width="3.4" height="3.4"/>
		<rect x="17.4" y="226.9" class="st11" width="3.4" height="3.4"/>
		<rect x="22.6" y="226.9" class="st11" width="3.4" height="3.4"/>
	</g>
	<path class="st12" d="M37.4,233.9c0-0.3,0-0.8,0-1.1l1.3-1c0.2-0.1,0.2-0.3,0.1-0.6l-0.2-0.7c-0.1-0.2-0.2-0.3-0.5-0.3l-1.6,0.1
		c-0.2-0.3-0.5-0.6-0.8-0.8l0.1-1.6c0-0.2-0.1-0.5-0.3-0.6l-0.8-0.3c-0.1,0-0.1,0-0.2,0s-0.3,0-0.3,0.2l-1,1.3h-1.1l-1-1.3
		c-0.1-0.1-0.2-0.2-0.3-0.1c-0.1,0-0.1,0-0.2,0l-0.7,0.2c-0.2,0.1-0.3,0.2-0.3,0.5l0.1,1.6c-0.3,0.2-0.6,0.6-0.9,0.8l-1.6-0.2
		c-0.2,0-0.3,0.1-0.5,0.3l-0.3,0.7c-0.1,0.2,0,0.5,0.1,0.6l1.1,1c0,0.5,0,0.8,0,1.3l-1.1,0.9c-0.2,0.1-0.2,0.3-0.1,0.6l0.2,0.7
		c0.1,0.2,0.2,0.3,0.5,0.3l1.5-0.1c0.2,0.3,0.6,0.7,0.9,0.9l-0.1,1.5c0,0.2,0.1,0.5,0.3,0.6l0.7,0.3c0.1,0,0.1,0,0.2,0
		s0.3-0.1,0.3-0.1l0.9-1.1c0.2,0,0.5,0,0.7,0s0.5,0,0.6,0l0.9,1.1c0.1,0.1,0.2,0.2,0.3,0.2s0.1,0,0.2,0l0.7-0.2
		c0.2-0.1,0.3-0.3,0.3-0.6l-0.1-1.5c0.3-0.2,0.6-0.6,0.9-0.9l1.5,0.1c0.2,0,0.3-0.1,0.5-0.3l0.3-0.7c0.1-0.2,0.1-0.5-0.1-0.7
		L37.4,233.9z M32.6,235.4L32.6,235.4c-1.1,0-2.1-0.9-2.1-2.1c0-1.2,0.9-2.1,2.1-2.1c1.1,0,2.1,0.9,2.1,2.1
		C34.6,234.4,33.7,235.4,32.6,235.4L32.6,235.4L32.6,235.4z"/>
</g>
<g>
	<g>
		<g>
			<path class="st11" d="M22.8,306.9v2H12.4c-0.9,0-1.6-0.7-1.6-1.6v-13.4h2v13H22.8z"/>
			<path class="st11" d="M37.9,289.8v6.2h-2v-5.8H16.7v-2h19.6C37.2,288.2,37.9,288.9,37.9,289.8z"/>
		</g>
	</g>
	<g>
		<g>
			<rect x="16" y="310" class="st11" width="6.8" height="2"/>
		</g>
	</g>
	<rect x="8.2" y="288.2" class="st11" width="7.2" height="2"/>
	<g>
		<rect x="10.8" y="285.4" class="st11" width="2" height="7.2"/>
	</g>
	<g>
		<g>
			<path class="st11" d="M43.1,313.4H25c-0.6,0-1.1-0.5-1.1-1.1v-13.6c0-0.6,0.5-1.1,1.1-1.1h18.1c0.6,0,1.1,0.5,1.1,1.1v13.6
				C44.3,312.9,43.8,313.4,43.1,313.4z M25.9,311.4h16.4v-11.8H25.9V311.4z"/>
		</g>
	</g>
	<g>
		<g>
			<path class="st11" d="M30.1,307.8l1.8-5.3h0.9l-2.4,6.4h-0.7l-2.4-6.4h0.9L30.1,307.8z"/>
		</g>
		<g>
			<path class="st11" d="M34.8,302.5l2.1,5.2l2.1-5.2h1.1v6.4h-0.8v-2.5l0.1-2.7l-2.2,5.2h-0.6l-2.1-5.2l0.1,2.7v2.5h-0.8v-6.4H34.8
				z"/>
		</g>
	</g>
</g>
<g>
	<g>
		<path class="st11" d="M31.8,360.3v0.8h-2v-0.8c0-0.1-0.1-0.1-0.1-0.1H10.1c-0.1,0-0.1,0.1-0.1,0.1v19.5c0,0.1,0.1,0.1,0.1,0.1H11
			v2h-0.9c-1.2,0-2.1-1-2.1-2.1v-19.5c0-1.2,1-2.1,2.1-2.1h19.5C30.8,358.1,31.8,359,31.8,360.3z"/>
	</g>
	<g>
		<path class="st12" d="M36.1,382.4c0-0.3,0-0.8,0-1.1l1.3-1c0.2-0.1,0.2-0.3,0.1-0.6l-0.2-0.7c-0.1-0.2-0.2-0.3-0.5-0.3l-1.6,0.1
			c-0.2-0.3-0.5-0.6-0.8-0.8l0.1-1.6c0-0.2-0.1-0.5-0.3-0.6l-0.8-0.3c-0.1,0-0.1,0-0.2,0s-0.3,0-0.3,0.2l-1,1.3h-1.1l-1-1.3
			c-0.1-0.1-0.2-0.2-0.3-0.1c-0.1,0-0.1,0-0.2,0l-0.7,0.2c-0.2,0.1-0.3,0.2-0.3,0.5l0.1,1.6c-0.3,0.2-0.6,0.6-0.9,0.8l-1.6-0.2
			c-0.2,0-0.3,0.1-0.5,0.3l-0.3,0.7c-0.1,0.2,0,0.5,0.1,0.6l1.1,1c0,0.5,0,0.8,0,1.3l-1.1,0.9c-0.2,0.1-0.2,0.3-0.1,0.6l0.2,0.7
			c0.1,0.2,0.2,0.3,0.5,0.3l1.5-0.1c0.2,0.3,0.6,0.7,0.9,0.9l-0.1,1.5c0,0.2,0.1,0.5,0.3,0.6l0.7,0.3c0.1,0,0.1,0,0.2,0
			s0.3-0.1,0.3-0.1l0.9-1.1c0.2,0,0.5,0,0.7,0s0.5,0,0.6,0l0.9,1.1c0.1,0.1,0.2,0.2,0.3,0.2s0.1,0,0.2,0l0.7-0.2
			c0.2-0.1,0.3-0.3,0.3-0.6l-0.2-1.5c0.3-0.2,0.6-0.6,0.9-0.9l1.5,0.1c0.2,0,0.3-0.1,0.5-0.3l0.3-0.7c0.1-0.2,0.1-0.5-0.1-0.7
			L36.1,382.4z M31.3,383.9L31.3,383.9c-1.1,0-2.1-0.9-2.1-2.1c0-1.1,0.9-2.1,2.1-2.1s2.1,0.9,2.1,2.1
			C33.4,383,32.5,383.9,31.3,383.9L31.3,383.9L31.3,383.9z"/>
	</g>
	<path class="st12" d="M35.4,364v9.4h-2V364c0-0.1-0.1-0.1-0.1-0.1H13.8c-0.1,0-0.1,0.1-0.1,0.1v19.5c0,0.1,0.1,0.1,0.1,0.1h9.6v2
		h-9.6c-1.2,0-2.1-1-2.1-2.1V364c0-1.2,1-2.1,2.1-2.1h19.5C34.4,361.9,35.4,362.8,35.4,364z"/>
</g>
<g>
	<g>
		<path class="st11" d="M40.3,445.9c0,8.8-7.2,16-16,16s-16-7.2-16-16s7.2-16,16-16c4.7,0,8.9,2,11.8,5.3v-5h2v8.8h-8.8v-2h5.8
			c-0.2-0.3-0.5-0.5-0.7-0.8c-2.5-2.7-6.1-4.3-10.1-4.3c-7.7,0-14,6.3-14,14s6.3,14,14,14s14-6.3,14-14H40.3z"/>
	</g>
	<g>
		<path class="st11" d="M28.6,444.7v-2.1c0-2.3-1.9-4.3-4.3-4.3s-4.3,1.9-4.3,4.3v2.1h-2v8.8h12.6v-8.8H28.6z M26.6,444.7h-4.5v-2.1
			c0-1.2,1-2.3,2.3-2.3s2.3,1,2.3,2.3L26.6,444.7L26.6,444.7z"/>
	</g>
</g>
<g>
	<path class="st11" d="M29,510.2l-1.8-1.8l-2-2H10.4c-1.2,0-2.1,1-2.1,2.1v22.4c0,1.2,1,2.1,2.1,2.1h18.5c1.2,0,2.1-1,2.1-2.1v-18.7
		L29,510.2z M29,530.9C29,531,28.9,531,29,530.9L10.4,531c-0.1,0-0.1-0.1-0.1-0.1v-22.3c0-0.1,0.1-0.1,0.1-0.1h13.7v5.7H29V530.9z"
		/>
	<g>
		<g>
			<rect x="16.8" y="522" class="st11" width="9.4" height="2"/>
		</g>
		<g>
			<rect x="13.3" y="522" class="st11" width="2.2" height="2"/>
		</g>
	</g>
	<g>
		<rect x="16.8" y="518.1" class="st11" width="9.4" height="2"/>
	</g>
	<g>
		<rect x="13.3" y="518.1" class="st11" width="2.2" height="2"/>
	</g>
	<g>
		<g>
			<rect x="16.8" y="525.8" class="st11" width="9.4" height="2"/>
		</g>
		<g>
			<rect x="13.3" y="525.8" class="st11" width="2.2" height="2"/>
		</g>
	</g>
</g>
<g>
	<rect x="16.2" y="574.7" class="st0" width="10" height="2"/>
	<path class="st13" d="M10.2,595.6v-12.9h24.2v-6.4c0-0.9-0.7-1.6-1.6-1.6l0,0h-2.6v2h2.2v4H10.2v-4h2v-2H9.8
		c-0.9,0-1.6,0.7-1.6,1.6l0,0v19.8c0,0.9,0.7,1.6,1.6,1.6h16.3c-0.4-0.6-0.8-1.3-1-2L10.2,595.6L10.2,595.6z"/>
	<rect x="13.2" y="572.7" class="st0" width="2" height="4"/>
	<rect x="27.2" y="572.7" class="st0" width="2" height="4"/>
	<g>
		<rect x="12.2" y="590" class="st0" width="3.4" height="3.4"/>
		<rect x="12.2" y="585" class="st0" width="3.4" height="3.4"/>
		<rect x="17.4" y="590" class="st0" width="3.4" height="3.4"/>
		<rect x="17.4" y="585" class="st0" width="3.4" height="3.4"/>
		<rect x="22.6" y="585" class="st0" width="3.4" height="3.4"/>
	</g>
	<path class="st13" d="M37.4,592c0-0.3,0-0.8,0-1.1l1.3-1c0.2-0.1,0.2-0.3,0.1-0.6l-0.2-0.7c-0.1-0.2-0.2-0.3-0.5-0.3l-1.6,0.1
		c-0.2-0.3-0.5-0.6-0.8-0.8l0.1-1.6c0-0.2-0.1-0.5-0.3-0.6l-0.8-0.3c-0.1,0-0.1,0-0.2,0s-0.3,0-0.3,0.2l-1,1.3h-1.1l-1-1.3
		c-0.1-0.1-0.2-0.2-0.3-0.1c-0.1,0-0.1,0-0.2,0l-0.7,0.2c-0.2,0.1-0.3,0.2-0.3,0.5l0.1,1.6c-0.3,0.2-0.6,0.6-0.9,0.8l-1.6-0.2
		c-0.2,0-0.3,0.1-0.5,0.3l-0.3,0.7c-0.1,0.2,0,0.5,0.1,0.6l1.1,1c0,0.5,0,0.8,0,1.3l-1.1,0.9c-0.2,0.1-0.2,0.3-0.1,0.6l0.2,0.7
		c0.1,0.2,0.2,0.3,0.5,0.3l1.5-0.1c0.2,0.3,0.6,0.7,0.9,0.9l-0.1,1.5c0,0.2,0.1,0.5,0.3,0.6l0.7,0.3c0.1,0,0.1,0,0.2,0
		s0.3-0.1,0.3-0.1l0.9-1.1c0.2,0,0.5,0,0.7,0s0.5,0,0.6,0l0.9,1.1c0.1,0.1,0.2,0.2,0.3,0.2s0.1,0,0.2,0l0.7-0.2
		c0.2-0.1,0.3-0.3,0.3-0.6l-0.1-1.5c0.3-0.2,0.6-0.6,0.9-0.9l1.5,0.1c0.2,0,0.3-0.1,0.5-0.3l0.3-0.7c0.1-0.2,0.1-0.5-0.1-0.7
		L37.4,592z M32.6,593.5L32.6,593.5c-1.1,0-2.1-0.9-2.1-2.1s0.9-2.1,2.1-2.1c1.1,0,2.1,0.9,2.1,2.1
		C34.6,592.5,33.7,593.5,32.6,593.5L32.6,593.5L32.6,593.5z"/>
</g>
<g>
	<g>
		<g>
			<path class="st0" d="M22.8,664.9v2H12.4c-0.9,0-1.6-0.7-1.6-1.6v-13.4h2v13H22.8z"/>
			<path class="st0" d="M37.9,647.8v6.2h-2v-5.8H16.7v-2h19.6C37.2,646.2,37.9,646.9,37.9,647.8z"/>
		</g>
	</g>
	<g>
		<g>
			<rect x="16" y="668" class="st0" width="6.8" height="2"/>
		</g>
	</g>
	<rect x="8.2" y="646.2" class="st0" width="7.2" height="2"/>
	<g>
		<rect x="10.8" y="643.4" class="st0" width="2" height="7.2"/>
	</g>
	<g>
		<g>
			<path class="st0" d="M43.1,671.4H25c-0.6,0-1.1-0.5-1.1-1.1v-13.6c0-0.6,0.5-1.1,1.1-1.1h18.1c0.6,0,1.1,0.5,1.1,1.1v13.6
				C44.3,670.9,43.8,671.4,43.1,671.4z M25.9,669.4h16.4v-11.8H25.9C25.9,657.6,25.9,669.4,25.9,669.4z"/>
		</g>
	</g>
	<g>
		<g>
			<path class="st0" d="M30.1,665.8l1.8-5.3h0.9l-2.4,6.4h-0.7l-2.4-6.4h0.9L30.1,665.8z"/>
		</g>
		<g>
			<path class="st0" d="M34.8,660.5l2.1,5.2l2.1-5.2h1.1v6.4h-0.8v-2.5l0.1-2.7l-2.2,5.2h-0.6l-2.1-5.2l0.1,2.7v2.5h-0.8v-6.4H34.8z
				"/>
		</g>
	</g>
</g>
<g>
	<g>
		<path class="st0" d="M31.8,718.3v0.8h-2v-0.8c0-0.1-0.1-0.1-0.1-0.1H10.1c-0.1,0-0.1,0.1-0.1,0.1v19.5c0,0.1,0.1,0.1,0.1,0.1H11v2
			h-0.9c-1.2,0-2.1-1-2.1-2.1v-19.5c0-1.2,1-2.1,2.1-2.1h19.5C30.8,716.2,31.8,717.1,31.8,718.3z"/>
	</g>
	<g>
		<path class="st13" d="M36.1,740.4c0-0.3,0-0.8,0-1.1l1.3-1c0.2-0.1,0.2-0.3,0.1-0.6l-0.2-0.7c-0.1-0.2-0.2-0.3-0.5-0.3l-1.6,0.1
			c-0.2-0.3-0.5-0.6-0.8-0.8l0.1-1.6c0-0.2-0.1-0.5-0.3-0.6l-0.8-0.3c-0.1,0-0.1,0-0.2,0s-0.3,0-0.3,0.2l-1,1.3h-1.1l-1-1.3
			c-0.1-0.1-0.2-0.2-0.3-0.1c-0.1,0-0.1,0-0.2,0l-0.7,0.2c-0.2,0.1-0.3,0.2-0.3,0.5l0.1,1.6c-0.3,0.2-0.6,0.6-0.9,0.8l-1.6-0.2
			c-0.2,0-0.3,0.1-0.5,0.3l-0.3,0.7c-0.1,0.2,0,0.5,0.1,0.6l1.1,1c0,0.5,0,0.8,0,1.3l-1.1,0.9c-0.2,0.1-0.2,0.3-0.1,0.6l0.2,0.7
			c0.1,0.2,0.2,0.3,0.5,0.3l1.5-0.1c0.2,0.3,0.6,0.7,0.9,0.9l-0.1,1.5c0,0.2,0.1,0.5,0.3,0.6l0.7,0.3c0.1,0,0.1,0,0.2,0
			s0.3-0.1,0.3-0.1l0.9-1.1c0.2,0,0.5,0,0.7,0s0.5,0,0.6,0l0.9,1.1c0.1,0.1,0.2,0.2,0.3,0.2s0.1,0,0.2,0l0.7-0.2
			c0.2-0.1,0.3-0.3,0.3-0.6l-0.2-1.5c0.3-0.2,0.6-0.6,0.9-0.9l1.5,0.1c0.2,0,0.3-0.1,0.5-0.3l0.3-0.7c0.1-0.2,0.1-0.5-0.1-0.7
			L36.1,740.4z M31.3,741.9L31.3,741.9c-1.1,0-2.1-0.9-2.1-2.1c0-1.1,0.9-2.1,2.1-2.1s2.1,0.9,2.1,2.1
			C33.4,741,32.5,741.9,31.3,741.9L31.3,741.9L31.3,741.9z"/>
	</g>
	<path class="st13" d="M35.4,722v9.4h-2V722c0-0.1-0.1-0.1-0.1-0.1H13.8c-0.1,0-0.1,0.1-0.1,0.1v19.5c0,0.1,0.1,0.1,0.1,0.1h9.6v2
		h-9.6c-1.2,0-2.1-1-2.1-2.1V722c0-1.2,1-2.1,2.1-2.1h19.5C34.4,719.9,35.4,720.8,35.4,722z"/>
</g>
<g>
	<g>
		<path class="st0" d="M40.3,803.9c0,8.8-7.2,16-16,16s-16-7.2-16-16s7.2-16,16-16c4.7,0,8.9,2,11.8,5.3v-5h2v8.8h-8.8v-2h5.8
			c-0.2-0.3-0.5-0.5-0.7-0.8c-2.5-2.7-6.1-4.3-10.1-4.3c-7.7,0-14,6.3-14,14s6.3,14,14,14s14-6.3,14-14H40.3z"/>
	</g>
	<g>
		<path class="st0" d="M28.6,802.7v-2.1c0-2.3-1.9-4.3-4.3-4.3s-4.3,1.9-4.3,4.3v2.1h-2v8.8h12.6v-8.8H28.6z M26.6,802.7h-4.5v-2.1
			c0-1.2,1-2.3,2.3-2.3s2.3,1,2.3,2.3L26.6,802.7L26.6,802.7z"/>
	</g>
</g>
<g>
	<path class="st0" d="M29,868.2l-1.8-1.8l-2-2H10.4c-1.2,0-2.1,1-2.1,2.1v22.4c0,1.2,1,2.1,2.1,2.1h18.5c1.2,0,2.1-1,2.1-2.1v-18.7
		L29,868.2z M29,888.9c0,0.1-0.1,0.1-0.1,0.1H10.4c-0.1,0-0.1-0.1-0.1-0.1v-22.3c0-0.1,0.1-0.1,0.1-0.1h13.7v5.7H29V888.9z"/>
	<g>
		<g>
			<rect x="16.8" y="880" class="st0" width="9.4" height="2"/>
		</g>
		<g>
			<rect x="13.3" y="880" class="st0" width="2.2" height="2"/>
		</g>
	</g>
	<g>
		<rect x="16.8" y="876.1" class="st0" width="9.4" height="2"/>
	</g>
	<g>
		<rect x="13.3" y="876.1" class="st0" width="2.2" height="2"/>
	</g>
	<g>
		<g>
			<rect x="16.8" y="883.8" class="st0" width="9.4" height="2"/>
		</g>
		<g>
			<rect x="13.3" y="883.8" class="st0" width="2.2" height="2"/>
		</g>
	</g>
</g>
<g>
	<path class="st2" d="M113.2,149.3v-1.1h-7v1.1h-4v2h1v11.9c0,0.6,0.5,1.1,1.1,1.1l0,0h10.8c0.6,0,1.1-0.5,1.1-1.1l0,0v-11.9h1v-2
		H113.2z M114.2,162.3h-9v-11h9V162.3z"/>
	<rect x="107.2" y="153.3" class="st2" width="2" height="6.9"/>
	<rect x="110.2" y="153.3" class="st2" width="2" height="6.9"/>
</g>
<g>
	<path class="st14" d="M113.2,213.4v-1.1h-7v1.1h-4v2h1v11.9c0,0.6,0.5,1.1,1.1,1.1l0,0h10.8c0.6,0,1.1-0.5,1.1-1.1l0,0v-11.9h1v-2
		H113.2z M114.2,226.4h-9v-11h9V226.4z"/>
	<rect x="107.2" y="217.4" class="st14" width="2" height="6.9"/>
	<rect x="110.2" y="217.4" class="st14" width="2" height="6.9"/>
</g>
<g>
	<path class="st15" d="M116.3,290.3l-5.8-5.8c-0.1-0.1-0.3-0.2-0.4-0.2h-1.5c-0.2,0-0.3,0.1-0.4,0.2l-5.9,5.8l1.5,1.5l4.5-4.6v10.5
		h2v-10.5l4.5,4.5L116.3,290.3z"/>
</g>
<g>
	<path class="st16" d="M102.3,350.3l5.8,5.8c0.1,0.1,0.3,0.2,0.4,0.2h1.5c0.2,0,0.3-0.1,0.4-0.2l5.8-5.8l-1.5-1.5l-4.4,4.6v-10.5h-2
		v10.5l-4.5-4.5L102.3,350.3z"/>
</g>
<g>
	<path class="st2" d="M20.1,1012.5v-2h-7v2h-4v2h1v11.4c0,0.9,0.7,1.6,1.6,1.6h9.8c0.9,0,1.6-0.7,1.6-1.6v-11.4h1v-2H20.1z
		 M21.1,1025.5h-9v-11h9V1025.5z M16.1,1016.5h-2v7h2V1016.5z M19.1,1016.5h-2v7h2V1016.5z"/>
</g>
<g>
	<path class="st17" d="M23.1,1084.1l-5.8-5.8c-0.1-0.1-0.3-0.2-0.4-0.2h-1.5c-0.2,0-0.3,0.1-0.4,0.2l-5.9,5.8l1.5,1.5l4.5-4.6v10.5
		h2V1081l4.5,4.5L23.1,1084.1z"/>
</g>
<g>
	<path class="st17" d="M20.6,1141.5c-4.2,0-7.6,3-8.4,7H9.1l4,5l4-5h-2.8c0.7-2.9,3.2-5,6.3-5c3.6,0,6.5,2.9,6.5,6.5
		s-2.9,6.5-6.5,6.5c-1.9,0-3.6-0.8-4.8-2.1l-1.3,1.5c1.5,1.6,3.7,2.6,6.2,2.6c4.7,0,8.5-3.8,8.5-8.5S25.3,1141.5,20.6,1141.5z
		 M20.1,1145.5v6h5v-2h-3v-4H20.1z"/>
</g>
<g>
	<g>
		<g>
			<path class="st18" d="M17.6,1208.5c-4.7,0-8.5,3.8-8.5,8.5s3.8,8.5,8.5,8.5s8.5-3.8,8.5-8.5S22.3,1208.5,17.6,1208.5z
				 M17.6,1223.5c-3.6,0-6.5-2.9-6.5-6.5s2.9-6.5,6.5-6.5s6.5,2.9,6.5,6.5C24.2,1220.6,21.2,1223.5,17.6,1223.5z M15.1,1219.5h5v-5
				h-5V1219.5z"/>
		</g>
	</g>
</g>
<g class="st19">
	<path class="st20" d="M23.2,1297.9c-0.5,0-0.9-0.2-1.2-0.6l-1.3-1.6c-0.5,0-1,0-1.4,0l-1.3,1.5c-0.4,0.5-1.2,0.7-1.8,0.4l-1.2-0.5
		c-0.7-0.3-1.1-0.9-1-1.6l0.2-2c-0.4-0.3-0.7-0.6-1-1l-2.1,0.2c-0.6,0-1.2-0.4-1.5-1l-0.4-1.2c-0.3-0.6-0.1-1.4,0.5-1.8l1.6-1.3
		c0-0.5,0-0.9,0-1.4l-1.5-1.3c-0.5-0.4-0.7-1.2-0.4-1.8l0.5-1.2c0.2-0.6,0.8-1,1.5-1h0.2l2.1,0.2c0.3-0.3,0.6-0.6,0.9-0.9l-0.2-2
		c-0.1-0.7,0.3-1.3,1-1.6l1.2-0.5c0.6-0.3,1.4-0.1,1.8,0.5l1.4,1.7c0.4,0,0.8,0,1.2,0l1.4-1.6c0.5-0.5,1.2-0.7,1.8-0.4l1.2,0.5
		c0.6,0.3,1,0.9,1,1.6l-0.2,2.2c0.3,0.3,0.6,0.6,0.9,0.9l2.3-0.2c0.6,0,1.2,0.4,1.5,1l0.5,1.2c0.3,0.6,0.1,1.4-0.5,1.8l-1.7,1.3
		c0,0.4,0,0.8,0,1.3l1.6,1.4c0.5,0.4,0.7,1.2,0.4,1.8l-0.5,1.2c-0.2,0.6-0.8,1-1.5,1H29l-2-0.2c-0.3,0.4-0.6,0.7-1,1l0.2,2
		c0.1,0.7-0.3,1.3-1,1.6L24,1298C23.5,1297.9,23.4,1297.9,23.2,1297.9z M21.3,1294.2l1.8,2.2l1.3-0.5l-0.2-3l0.3-0.3
		c0.5-0.4,0.9-0.8,1.3-1.3l0.3-0.3l2.9,0.3l0.6-1.2l-2.2-2v-0.4c0.1-0.6,0.1-1.2,0-1.7v-0.4l2.3-1.8l-0.5-1.3l-3,0.2l-0.2-0.3
		c-0.4-0.5-0.8-0.9-1.3-1.2l-0.3-0.3l0.3-3l-1.2-0.6l-2,2.3l-0.4-0.1c-0.6-0.1-1.1-0.1-1.7,0h-0.5l-1.9-2.3l0,0l-1.2,0.5l0.2,3
		l-0.3,0.3c-0.5,0.3-0.9,0.8-1.3,1.2l-0.3,0.4l-2.9-0.3l-0.6,1.2l2.2,1.9l-0.1,0.4c-0.1,0.6-0.1,1.2,0,1.8v0.4l-2.3,1.8l0.5,1.3
		l2.9-0.2l0.3,0.3c0.4,0.5,0.8,1,1.3,1.3l0.3,0.3l-0.2,2.8l1.2,0.6l1.9-2.2H19c0.6,0.1,1.3,0.1,1.9,0L21.3,1294.2z M20.2,1291.2
		c-2.3,0-4.2-1.8-4.2-4.1c0-2.3,1.8-4.2,4.1-4.2s4.2,1.8,4.2,4.1l0,0C24.3,1289.3,22.5,1291.1,20.2,1291.2L20.2,1291.2z
		 M20.2,1284.4c-1.5,0-2.7,1.2-2.7,2.6c0,1.5,1.2,2.7,2.6,2.7c1.5,0,2.7-1.2,2.7-2.6l0,0C22.8,1285.6,21.6,1284.4,20.2,1284.4
		L20.2,1284.4z"/>
</g>
<g>
	<rect x="100.3" y="1058.5" class="st21" width="18.9" height="18.9"/>
</g>
<g>
	<rect x="100.3" y="1127.7" class="st22" width="18.9" height="18.9"/>
	<polyline class="st23" points="104.8,1137.1 108.1,1140.3 114.7,1133.8 	"/>
</g>
<g>
	<circle class="st24" cx="111.6" cy="1210.3" r="11.3"/>
	<polyline class="st24" points="106.8,1209.8 110.3,1213.3 116.3,1207.3 	"/>
</g>
<g>
	<g>
		<circle class="st25" cx="111.6" cy="1432.9" r="11.3"/>
		<polyline class="st25" points="106.8,1432.4 110.3,1435.9 116.3,1429.9 		"/>
	</g>
</g>
<g>
	<g>
		<circle class="st26" cx="111.6" cy="1284.1" r="11.3"/>
		<g>
			<line class="st26" x1="111.6" y1="1278.8" x2="111.6" y2="1285.9"/>
			<line class="st26" x1="111.6" y1="1287.4" x2="111.6" y2="1289.4"/>
		</g>
	</g>
</g>
<g>
	<g>
		<circle class="st27" cx="111.6" cy="1358.5" r="11.3"/>
		<g>
			<line class="st27" x1="111.6" y1="1353.2" x2="111.6" y2="1360.3"/>
			<line class="st27" x1="111.6" y1="1361.8" x2="111.6" y2="1363.8"/>
		</g>
	</g>
</g>
<g>
	<circle class="st28" cx="111.6" cy="1507.4" r="11.3"/>
	<line class="st28" x1="111.6" y1="1501" x2="111.6" y2="1512.6"/>
	<polyline class="st28" points="117.1,1507.3 111.6,1512.9 106,1507.3 	"/>
</g>
<g>
	<polygon class="st29" points="197,1147.4 196.9,1147.5 191.6,1147.9 192,1142.6 192.1,1142.5 	"/>
	
		<rect x="194" y="1136.6" transform="matrix(0.7071 -0.7071 0.7071 0.7071 -747.7449 474.9265)" class="st29" width="10.8" height="7"/>
	
		<rect x="203.6" y="1129.9" transform="matrix(0.7071 -0.7071 0.7071 0.7071 -741.0581 477.7016)" class="st29" width="5" height="7"/>
</g>
<g>
	<line class="st30" x1="205.7" y1="1198.9" x2="191.6" y2="1213"/>
	<line class="st30" x1="191.6" y1="1198.9" x2="205.7" y2="1213"/>
</g>
<g>
	<line class="st31" x1="205.7" y1="1264.9" x2="191.6" y2="1279"/>
	<line class="st31" x1="191.6" y1="1264.9" x2="205.7" y2="1279"/>
</g>
<g>
	<path class="st23" d="M212.4,1364h-19.9c-0.5,0-0.9-0.4-0.9-0.9v-14.8c0-0.5,0.4-0.9,0.9-0.9h19.9c0.5,0,0.9,0.4,0.9,0.9v14.8
		C213.2,1363.6,212.9,1364,212.4,1364z"/>
	<line class="st32" x1="197.1" y1="1367.3" x2="207.7" y2="1367.3"/>
</g>
<g>
	<path class="st33" d="M198.9,1060H192c-0.5,0-1,0.4-1,1v16.8c0,0.6,0.5,1.1,1.1,1.1h7v-1l-7.1-0.1l0.1-16.8h6.9v6.9h1v-6.9
		C200,1060.4,199.5,1060,198.9,1060z"/>
	<path class="st33" d="M202,1061h7v7h1l0,0v-7c0-0.6-0.5-1.1-1.1-1.1H202c-0.6,0.1-1,0.5-1,1.1v6.9l0,0h1V1061z"/>
	<rect x="194" y="1074.9" class="st33" width="2" height="1"/>
	<rect x="193" y="1061.9" class="st33" width="5" height="1"/>
	<rect x="193" y="1063.9" class="st33" width="5" height="1"/>
	<rect x="193" y="1065.9" class="st33" width="5" height="1"/>
	<rect x="203" y="1061.9" class="st33" width="5" height="1"/>
	<rect x="203" y="1063.9" class="st33" width="5" height="1"/>
	<rect x="203" y="1065.9" class="st33" width="5" height="1"/>
	<path class="st33" d="M211.9,1071.8H210v-1.8c0-0.6-0.5-1.1-1.1-1.1h-7.8c-0.6,0-1.1,0.5-1.1,1.1v7.8c0,0.6,0.5,1.1,1.1,1.1h1.8v1
		c0,0.6,0.5,1.1,1.1,1.1h7.8c0.6,0,1.1-0.5,1.1-1.1v-7C212.9,1072.3,212.5,1071.8,211.9,1071.8z M203,1072.9v5h-1.9l0.1-7.9h7.8v1.8
		h-5C203.4,1071.8,203,1072.3,203,1072.9z M211.9,1079.9C211.9,1080,211.9,1080,211.9,1079.9h-8v-1v-1l0.1-5.1h5h1h1.9V1079.9z"/>
	<polygon class="st33" points="208,1074 207,1074 207,1076.9 210,1076.9 210,1075.9 208,1075.9 	"/>
</g>
<g>
	<g>
		<path class="st34" d="M23.1,1362.3h-14v-14h14V1362.3z M10.1,1361.3h12v-12h-12V1361.3z"/>
	</g>
	<g>
		<rect x="12.2" y="1354.2" class="st35" width="7.9" height="2"/>
	</g>
</g>
<g>
	<path class="st34" d="M23.1,1426.3h-14v-14h14V1426.3z M10.1,1425.3h12v-12h-12V1425.3z"/>
</g>
<g>
	<path class="st22" d="M23.1,1491h-14v-14h14V1491z"/>
	<path class="st0" d="M19.8,1480.8c-0.4-0.3-1.1-0.3-1.4,0.2l-3.1,3.9l-1.6-1.4c-0.4-0.4-1.1-0.3-1.4,0.1c-0.4,0.4-0.3,1,0.1,1.4
		l2.5,2.2c0.4,0.3,0.9,0.3,1.2-0.1l3.8-4.8C20.3,1481.8,20.2,1481.2,19.8,1480.8L19.8,1480.8z"/>
</g>
<g>
	<path class="st36" d="M197.2,1418.8c-3.1,0-5.6,2.5-5.6,5.5s2.5,5.5,5.6,5.5s5.6-2.5,5.6-5.5S200.2,1418.8,197.2,1418.8z
		 M197.2,1428.8c-2.5,0-4.6-2-4.6-4.5s2-4.5,4.6-4.5c2.5,0,4.6,2,4.6,4.5S199.7,1428.8,197.2,1428.8z"/>
	<rect x="194.7" y="1423.8" class="st36" width="5" height="1"/>
</g>
<g>
	<polyline class="st37" points="201.2,1479 196.4,1483.7 191.6,1479 	"/>
</g>
<g>
	<circle class="st38" cx="201.6" cy="1545.8" r="10"/>
	<g>
		<line class="st23" x1="201.6" y1="1543.7" x2="201.6" y2="1551"/>
		<line class="st23" x1="201.6" y1="1540.7" x2="201.6" y2="1542.5"/>
	</g>
</g>
<g>
	<path class="st0" d="M214.1,474.1v16.8c0,1.3-1.1,2.4-2.4,2.4h-7.8c-1.3,0-2.4-1.1-2.4-2.4v-5.5h2v5.5c0,0.2,0.2,0.4,0.4,0.4h7.8
		c0.2,0,0.4-0.2,0.4-0.4v-16.8c0-0.2-0.2-0.4-0.4-0.4h-5.5v-2h5.5C213,471.7,214.1,472.8,214.1,474.1z"/>
	<path class="st0" d="M209.9,476.7c0,0.5-0.4,1-1,1h-2.8v-2h2.8C209.5,475.7,209.9,476.1,209.9,476.7z"/>
	<path class="st0" d="M209.9,479.7c0,0.5-0.4,1-1,1h-2.8v-2h2.8C209.5,478.7,209.9,479.1,209.9,479.7z"/>
	<g>
		<circle class="st39" cx="212" cy="489.3" r="6.6"/>
		<circle class="st40" cx="212" cy="489.3" r="6.6"/>
		
			<linearGradient id="SVGID_1_" gradientUnits="userSpaceOnUse" x1="-3665.5237" y1="-875.3881" x2="-3656.937" y2="-875.3881" gradientTransform="matrix(0 1 1 0 1087.3881 4150.4697)">
			<stop  offset="0" style="stop-color:#FFFFFF"/>
			<stop  offset="1" style="stop-color:#8DC63F;stop-opacity:0"/>
		</linearGradient>
		<circle class="st41" cx="212" cy="489.3" r="4.3"/>
	</g>
	<path class="st0" d="M202.8,484.5h-16.3c-1.3,0-2.4-1.1-2.4-2.4v-10.2c0-1.3,1.1-2.4,2.4-2.4h16.3c1.3,0,2.4,1.1,2.4,2.4v10.2
		C205.2,483.4,204.1,484.5,202.8,484.5z M186.5,471.5c-0.2,0-0.4,0.2-0.4,0.4v10.2c0,0.2,0.2,0.4,0.4,0.4h16.3
		c0.2,0,0.4-0.2,0.4-0.4v-10.2c0-0.2-0.2-0.4-0.4-0.4H186.5z"/>
	<path class="st0" d="M200.1,485.4v5.5c0,1.3-1.1,2.4-2.4,2.4h-7.8c-1.3,0-2.4-1.1-2.4-2.4v-5.5h2v5.5c0,0.2,0.2,0.4,0.4,0.4h7.8
		c0.2,0,0.4-0.2,0.4-0.4v-5.5H200.1z"/>
	<g>
		<path class="st0" d="M190.8,480.9l-2.5-7.8h1.1l1.2,3.8c0.3,1.1,0.6,2,0.8,2.9l0,0c0.2-0.9,0.5-1.9,0.9-2.9l1.3-3.9h1.1l-2.8,7.8
			h-1.1V480.9z"/>
		<path class="st0" d="M201,480.6c-0.4,0.2-1.1,0.4-2.1,0.4c-2.2,0-3.9-1.4-3.9-3.9c0-2.4,1.7-4.1,4.1-4.1c1,0,1.6,0.2,1.9,0.3
			l-0.2,0.8c-0.4-0.2-0.9-0.3-1.6-0.3c-1.8,0-3,1.2-3,3.2c0,1.9,1.1,3.1,3,3.1c0.6,0,1.2-0.1,1.6-0.3L201,480.6z"/>
	</g>
</g>
<g>
	<g>
		<path class="st0" d="M215.1,537.2V552c0,1.3-1.1,2.4-2.4,2.4h-18.8c-1.3,0-2.4-1.1-2.4-2.4v-3h2v3.1c0,0.2,0.2,0.4,0.4,0.4h18.8
			c0.2,0,0.4-0.2,0.4-0.4v-14.8c0-0.2-0.2-0.4-0.4-0.4h-1.5v-2h1.5C214,534.8,215.1,535.9,215.1,537.2z"/>
		<path class="st0" d="M208.2,557.8h-9.8c-0.6,0-1-0.4-1-1l0,0c0-0.6,0.4-1,1-1h9.9c0.6,0,1,0.4,1,1l0,0
			C209.2,557.4,208.8,557.8,208.2,557.8z"/>
		<g>
			<g>
				<path class="st0" d="M191.9,540.4h-3.1v2.5h3.5v0.8h-4.4v-7h4.4v0.8h-3.5v2.3h3.1V540.4z"/>
			</g>
			<g>
				<path class="st0" d="M195.6,540.5c-0.8-0.2-1.4-0.5-1.7-0.8s-0.5-0.7-0.5-1.2c0-0.6,0.2-1,0.7-1.4c0.4-0.4,1-0.5,1.7-0.5
					c0.5,0,0.9,0.1,1.3,0.3c0.4,0.2,0.7,0.4,0.9,0.8c0.2,0.3,0.3,0.7,0.3,1.1h-0.9c0-0.4-0.1-0.8-0.4-1s-0.7-0.4-1.1-0.4
					c-0.5,0-0.8,0.1-1.1,0.3s-0.4,0.5-0.4,0.8s0.1,0.5,0.4,0.7c0.2,0.2,0.7,0.4,1.2,0.5s1,0.3,1.4,0.5c0.3,0.2,0.6,0.4,0.7,0.7
					c0.1,0.3,0.2,0.6,0.2,0.9c0,0.6-0.2,1-0.7,1.4c-0.4,0.3-1,0.5-1.8,0.5c-0.5,0-0.9-0.1-1.4-0.3s-0.7-0.4-1-0.8
					c-0.2-0.3-0.3-0.7-0.3-1.1h0.9c0,0.4,0.2,0.8,0.5,1s0.7,0.4,1.3,0.4c0.5,0,0.9-0.1,1.1-0.3c0.2-0.2,0.4-0.5,0.4-0.8
					s-0.1-0.6-0.4-0.8C196.7,540.9,196.3,540.7,195.6,540.5z"/>
			</g>
			<g>
				<path class="st0" d="M201.7,539.3l1.7-2.7h1.1l-2.2,3.5l2.3,3.6h-1.1l-1.7-2.7l-1.7,2.7H199l2.3-3.6l-2.2-3.5h1.1L201.7,539.3z"
					/>
			</g>
			<g>
				<path class="st0" d="M205.4,537c0-0.1,0-0.3,0.1-0.4c0.1-0.1,0.2-0.2,0.4-0.2s0.3,0,0.4,0.2c0.1,0.1,0.1,0.2,0.1,0.4
					c0,0.1,0,0.3-0.1,0.4c-0.1,0.1-0.2,0.1-0.4,0.1s-0.3,0-0.4-0.1C205.6,537.3,205.4,537.2,205.4,537z M206.4,543.7h-0.9v-5.2h0.9
					V543.7z"/>
			</g>
		</g>
		<path class="st0" d="M207.8,547.6h-21.3c-1.3,0-2.4-1-2.4-2.4V535c0-1.3,1.1-2.4,2.4-2.4h21.3c1.3,0,2.4,1.1,2.4,2.4v10.2
			C210.2,546.6,209.1,547.6,207.8,547.6z M186.5,534.6c-0.2,0-0.4,0.2-0.4,0.4v10.2c0,0.2,0.2,0.4,0.4,0.4h21.3
			c0.2,0,0.4-0.2,0.4-0.4V535c0-0.2-0.2-0.4-0.4-0.4H186.5z"/>
	</g>
	<g>
		<circle class="st39" cx="212.3" cy="553.3" r="6.6"/>
		<circle class="st40" cx="212.3" cy="553.3" r="6.6"/>
		
			<linearGradient id="SVGID_2_" gradientUnits="userSpaceOnUse" x1="-3601.5237" y1="-875.0881" x2="-3592.937" y2="-875.0881" gradientTransform="matrix(0 1 1 0 1087.3881 4150.4697)">
			<stop  offset="0" style="stop-color:#FFFFFF"/>
			<stop  offset="1" style="stop-color:#8DC63F;stop-opacity:0"/>
		</linearGradient>
		<circle class="st42" cx="212.3" cy="553.3" r="4.3"/>
	</g>
</g>
<g>
	<path class="st0" d="M215.1,600.4v14.8c0,1.3-1.1,2.4-2.4,2.4h-18.8c-1.3,0-2.4-1.1-2.4-2.4v-3h2v3.1c0,0.2,0.2,0.4,0.4,0.4h18.8
		c0.2,0,0.4-0.2,0.4-0.4v-14.8c0-0.2-0.2-0.4-0.4-0.4h-6.1v-2h6.1C214,598,215.1,599.1,215.1,600.4z"/>
	<path class="st0" d="M208.2,621h-9.8c-0.6,0-1-0.4-1-1l0,0c0-0.6,0.4-1,1-1h9.9c0.6,0,1,0.4,1,1l0,0
		C209.2,620.6,208.8,621,208.2,621z"/>
	<path class="st0" d="M202.8,610.7h-16.3c-1.3,0-2.4-1.1-2.4-2.4v-10.2c0-1.3,1.1-2.4,2.4-2.4h16.3c1.3,0,2.4,1.1,2.4,2.4v10.2
		C205.2,609.6,204.1,610.7,202.8,610.7z M186.5,597.7c-0.2,0-0.4,0.2-0.4,0.4v10.2c0,0.2,0.2,0.4,0.4,0.4h16.3
		c0.2,0,0.4-0.2,0.4-0.4v-10.2c0-0.2-0.2-0.4-0.4-0.4H186.5z"/>
	<g>
		<path class="st0" d="M190.1,605.5l2-5.9h1l-2.6,7.1h-0.8l-2.6-7.1h1L190.1,605.5z"/>
		<path class="st0" d="M195.4,599.6l2.3,5.8l2.3-5.8h1.2v7.1h-0.9v-2.8l0.1-3l-2.3,5.8h-0.7l-2.3-5.8l0.1,3v2.8h-0.9v-7.1H195.4z"/>
	</g>
	<g>
		<circle class="st39" cx="212.3" cy="615.3" r="6.6"/>
		<circle class="st40" cx="212.3" cy="615.3" r="6.6"/>
		
			<linearGradient id="SVGID_3_" gradientUnits="userSpaceOnUse" x1="-3539.5237" y1="-875.0881" x2="-3530.937" y2="-875.0881" gradientTransform="matrix(0 1 1 0 1087.3881 4150.4697)">
			<stop  offset="0" style="stop-color:#FFFFFF"/>
			<stop  offset="1" style="stop-color:#8DC63F;stop-opacity:0"/>
		</linearGradient>
		<circle class="st43" cx="212.3" cy="615.3" r="4.3"/>
	</g>
</g>
<g>
	<path class="st0" d="M214.1,661.7v16.8c0,1.3-1.1,2.4-2.4,2.4h-7.8c-1.3,0-2.4-1.1-2.4-2.4V673h2v5.5c0,0.2,0.2,0.4,0.4,0.4h7.8
		c0.2,0,0.4-0.2,0.4-0.4v-16.8c0-0.2-0.2-0.4-0.4-0.4h-5.5v-2h5.5C213,659.3,214.1,660.4,214.1,661.7z"/>
	<path class="st0" d="M209.9,667.3c0,0.5-0.4,1-1,1h-2.8v-2h2.8C209.5,666.3,209.9,666.7,209.9,667.3z"/>
	<path class="st0" d="M202.8,672.1h-16.3c-1.3,0-2.4-1.1-2.4-2.4v-10.2c0-1.3,1.1-2.4,2.4-2.4h16.3c1.3,0,2.4,1.1,2.4,2.4v10.2
		C205.2,671,204.1,672.1,202.8,672.1z M186.5,659.1c-0.2,0-0.4,0.2-0.4,0.4v10.2c0,0.2,0.2,0.4,0.4,0.4h16.3c0.2,0,0.4-0.2,0.4-0.4
		v-10.2c0-0.2-0.2-0.4-0.4-0.4H186.5z"/>
	<path class="st0" d="M200.1,673v5.5c0,1.3-1.1,2.4-2.4,2.4h-7.8c-1.3,0-2.4-1.1-2.4-2.4V673h2v5.5c0,0.2,0.2,0.4,0.4,0.4h7.8
		c0.2,0,0.4-0.2,0.4-0.4V673H200.1z"/>
	<g>
		<path class="st0" d="M190.8,668.5l-2.5-7.8h1.1l1.2,3.8c0.3,1.1,0.6,2,0.8,2.9l0,0c0.2-0.9,0.5-1.9,0.9-2.9l1.3-3.9h1.1l-2.8,7.8
			h-1.1V668.5z"/>
		<path class="st0" d="M201,668.2c-0.4,0.2-1.1,0.4-2.1,0.4c-2.2,0-3.9-1.4-3.9-3.9c0-2.4,1.7-4.1,4.1-4.1c1,0,1.6,0.2,1.9,0.3
			l-0.2,0.8c-0.4-0.2-0.9-0.3-1.6-0.3c-1.8,0-3,1.2-3,3.2c0,1.9,1.1,3.1,3,3.1c0.6,0,1.2-0.1,1.6-0.3L201,668.2z"/>
	</g>
	<circle class="st44" cx="213.3" cy="677.3" r="6.6"/>
	<circle class="st40" cx="213.3" cy="677.3" r="6.6"/>
	
		<linearGradient id="SVGID_4_" gradientUnits="userSpaceOnUse" x1="-3477.5234" y1="-874.0881" x2="-3468.937" y2="-874.0881" gradientTransform="matrix(0 1 1 0 1087.3881 4150.4697)">
		<stop  offset="0" style="stop-color:#FFFFFF"/>
		<stop  offset="1" style="stop-color:#FFFFFF;stop-opacity:0"/>
	</linearGradient>
	<circle class="st45" cx="213.3" cy="677.3" r="4.3"/>
</g>
<g>
	<g>
		<path class="st0" d="M215.1,724.3v14.8c0,1.3-1.1,2.4-2.4,2.4h-18.8c-1.3,0-2.4-1.1-2.4-2.4v-3h2v3.1c0,0.2,0.2,0.4,0.4,0.4h18.8
			c0.2,0,0.4-0.2,0.4-0.4v-14.8c0-0.2-0.2-0.4-0.4-0.4h-1.5v-2h1.5C214,721.9,215.1,723,215.1,724.3z"/>
		<path class="st0" d="M208.2,744.9h-9.8c-0.6,0-1-0.4-1-1l0,0c0-0.6,0.4-1,1-1h9.9c0.6,0,1,0.4,1,1l0,0
			C209.2,744.5,208.8,744.9,208.2,744.9z"/>
		<g>
			<g>
				<path class="st0" d="M191.9,727.5h-3.1v2.5h3.5v0.8h-4.4v-7h4.4v0.8h-3.5v2.3h3.1V727.5z"/>
			</g>
			<g>
				<path class="st0" d="M195.6,727.6c-0.8-0.2-1.4-0.5-1.7-0.8s-0.5-0.7-0.5-1.2c0-0.6,0.2-1,0.7-1.4c0.4-0.4,1-0.5,1.7-0.5
					c0.5,0,0.9,0.1,1.3,0.3c0.4,0.2,0.7,0.4,0.9,0.8c0.2,0.3,0.3,0.7,0.3,1.1h-0.9c0-0.4-0.1-0.8-0.4-1s-0.7-0.4-1.1-0.4
					c-0.5,0-0.8,0.1-1.1,0.3s-0.4,0.5-0.4,0.8s0.1,0.5,0.4,0.7c0.2,0.2,0.7,0.4,1.2,0.5s1,0.3,1.4,0.5c0.3,0.2,0.6,0.4,0.7,0.7
					c0.1,0.3,0.2,0.6,0.2,0.9c0,0.6-0.2,1-0.7,1.4c-0.4,0.3-1,0.5-1.8,0.5c-0.5,0-0.9-0.1-1.4-0.3s-0.7-0.4-1-0.8
					c-0.2-0.3-0.3-0.7-0.3-1.1h0.9c0,0.4,0.2,0.8,0.5,1s0.7,0.4,1.3,0.4c0.5,0,0.9-0.1,1.1-0.3c0.2-0.2,0.4-0.5,0.4-0.8
					s-0.1-0.6-0.4-0.8C196.7,728,196.3,727.8,195.6,727.6z"/>
			</g>
			<g>
				<path class="st0" d="M201.7,726.4l1.7-2.7h1.1l-2.2,3.5l2.3,3.6h-1.1l-1.7-2.7l-1.7,2.7H199l2.3-3.6l-2.2-3.5h1.1L201.7,726.4z"
					/>
			</g>
			<g>
				<path class="st0" d="M205.4,724.1c0-0.1,0-0.3,0.1-0.4c0.1-0.1,0.2-0.2,0.4-0.2s0.3,0,0.4,0.2c0.1,0.1,0.1,0.2,0.1,0.4
					c0,0.1,0,0.3-0.1,0.4c-0.1,0.1-0.2,0.1-0.4,0.1s-0.3,0-0.4-0.1C205.6,724.4,205.4,724.3,205.4,724.1z M206.4,730.8h-0.9v-5.2
					h0.9V730.8z"/>
			</g>
		</g>
		<path class="st0" d="M207.8,734.7h-21.3c-1.3,0-2.4-1-2.4-2.4v-10.2c0-1.3,1.1-2.4,2.4-2.4h21.3c1.3,0,2.4,1.1,2.4,2.4v10.2
			C210.2,733.7,209.1,734.7,207.8,734.7z M186.5,721.7c-0.2,0-0.4,0.2-0.4,0.4v10.2c0,0.2,0.2,0.4,0.4,0.4h21.3
			c0.2,0,0.4-0.2,0.4-0.4v-10.2c0-0.2-0.2-0.4-0.4-0.4H186.5z"/>
	</g>
	<circle class="st44" cx="213.3" cy="740.3" r="6.6"/>
	<circle class="st40" cx="213.3" cy="740.3" r="6.6"/>
	
		<linearGradient id="SVGID_5_" gradientUnits="userSpaceOnUse" x1="-3414.5234" y1="-874.0881" x2="-3405.937" y2="-874.0881" gradientTransform="matrix(0 1 1 0 1087.3881 4150.4697)">
		<stop  offset="0" style="stop-color:#FFFFFF"/>
		<stop  offset="1" style="stop-color:#FFFFFF;stop-opacity:0"/>
	</linearGradient>
	<circle class="st46" cx="213.3" cy="740.3" r="4.3"/>
</g>
<g>
	<path class="st0" d="M215.1,786.4v14.8c0,1.3-1.1,2.4-2.4,2.4h-18.8c-1.3,0-2.4-1.1-2.4-2.4v-3h2v3.1c0,0.2,0.2,0.4,0.4,0.4h18.8
		c0.2,0,0.4-0.2,0.4-0.4v-14.8c0-0.2-0.2-0.4-0.4-0.4h-6.1v-2h6.1C214,784,215.1,785.1,215.1,786.4z"/>
	<path class="st0" d="M208.2,807h-9.8c-0.6,0-1-0.4-1-1l0,0c0-0.6,0.4-1,1-1h9.9c0.6,0,1,0.4,1,1l0,0
		C209.2,806.6,208.8,807,208.2,807z"/>
	<path class="st0" d="M202.8,796.7h-16.3c-1.3,0-2.4-1.1-2.4-2.4v-10.2c0-1.3,1.1-2.4,2.4-2.4h16.3c1.3,0,2.4,1.1,2.4,2.4v10.2
		C205.2,795.6,204.1,796.7,202.8,796.7z M186.5,783.7c-0.2,0-0.4,0.2-0.4,0.4v10.2c0,0.2,0.2,0.4,0.4,0.4h16.3
		c0.2,0,0.4-0.2,0.4-0.4v-10.2c0-0.2-0.2-0.4-0.4-0.4H186.5z"/>
	<g>
		<path class="st0" d="M190.1,791.5l2-5.9h1l-2.6,7.1h-0.8l-2.6-7.1h1L190.1,791.5z"/>
		<path class="st0" d="M195.4,785.6l2.3,5.8l2.3-5.8h1.2v7.1h-0.9v-2.8l0.1-3l-2.3,5.8h-0.7l-2.3-5.8l0.1,3v2.8h-0.9v-7.1H195.4z"/>
	</g>
	<circle class="st44" cx="213.3" cy="801.3" r="6.6"/>
	<circle class="st40" cx="213.3" cy="801.3" r="6.6"/>
	
		<linearGradient id="SVGID_6_" gradientUnits="userSpaceOnUse" x1="-3353.5234" y1="-874.0881" x2="-3344.937" y2="-874.0881" gradientTransform="matrix(0 1 1 0 1087.3881 4150.4697)">
		<stop  offset="0" style="stop-color:#FFFFFF"/>
		<stop  offset="1" style="stop-color:#FFFFFF;stop-opacity:0"/>
	</linearGradient>
	<circle class="st47" cx="213.3" cy="801.3" r="4.3"/>
</g>
<path class="st2" d="M10.2,16.9h6v5h2v-5.7c0-0.7-0.6-1.3-1.3-1.3H9.5c-0.7,0-1.3,0.6-1.3,1.3v13.4c0,0.7,0.6,1.3,1.3,1.3h3.7v-2h-3
	V16.9z M21.2,16.9h6v5h2v-5.7c0-0.7-0.6-1.3-1.3-1.3h-7.4c-0.7,0-1.3,0.6-1.3,1.3v5.7h2C21.2,21.9,21.2,16.9,21.2,16.9z M31.4,22.9
	H15c-0.5,0-0.8,0.4-0.8,0.8v8.4c0,0.4,0.3,0.8,0.8,0.8h16.5c0.4,0,0.8-0.4,0.8-0.8v-8.4C32.2,23.3,31.8,22.9,31.4,22.9z M31.2,31.9
	h-16v-8h16V31.9z M15.2,17.9h-4v1h4V17.9z M11.2,20.9h4v-1h-4V20.9z M26.2,17.9h-4v1h4V17.9z M22.2,20.9h4v-1h-4V20.9z"/>
<polygon class="st2" points="17.3,28.2 19.4,28.2 19.4,27.5 17.3,27.5 17.3,26.1 19.7,26.1 19.7,25.4 16.5,25.4 16.5,30.4 
	19.7,30.4 19.7,29.7 17.3,29.7 "/>
<path class="st2" d="M23.2,28c-0.2-0.1-0.5-0.3-0.9-0.4s-0.7-0.2-0.8-0.4c-0.2-0.1-0.3-0.3-0.3-0.5s0.1-0.4,0.2-0.5
	c0.2-0.1,0.4-0.2,0.7-0.2s0.5,0.1,0.7,0.2s0.2,0.4,0.2,0.6h0.9c0-0.3-0.1-0.5-0.2-0.8c-0.2-0.2-0.4-0.4-0.6-0.5s-0.6-0.2-0.9-0.2
	c-0.5,0-0.9,0.1-1.3,0.4c-0.3,0.3-0.5,0.6-0.5,1c0,0.5,0.2,0.8,0.7,1.1c0.2,0.1,0.6,0.3,1,0.4s0.7,0.2,0.8,0.4
	c0.2,0.1,0.2,0.3,0.2,0.5s-0.1,0.4-0.2,0.5c-0.2,0.1-0.4,0.2-0.7,0.2s-0.6-0.1-0.8-0.2c-0.2-0.1-0.3-0.4-0.3-0.7h-0.9
	c0,0.3,0.1,0.6,0.3,0.8c0.2,0.2,0.4,0.4,0.7,0.6c0.3,0.1,0.6,0.2,1,0.2c0.5,0,1-0.1,1.3-0.4c0.3-0.2,0.5-0.6,0.5-1
	c0-0.3-0.1-0.5-0.2-0.7C23.6,28.3,23.4,28.1,23.2,28z"/>
<polygon class="st2" points="28.4,25.4 27.4,25.4 26.4,27.2 25.3,25.4 24.3,25.4 25.8,27.9 24.3,30.4 25.3,30.4 26.4,28.6 
	27.4,30.4 28.4,30.4 26.9,27.9 "/>
<path class="st2" d="M29.5,26.2c0.2,0,0.3,0,0.3-0.1c0.1-0.1,0.1-0.2,0.1-0.3s0-0.2-0.1-0.3c-0.1-0.1-0.2-0.1-0.3-0.1
	s-0.3,0-0.3,0.1c-0.1,0.1-0.1,0.2-0.1,0.3s0,0.2,0.1,0.3C29.2,26.2,29.3,26.2,29.5,26.2z"/>
<rect x="29" y="26.7" class="st2" width="0.8" height="3.7"/>
<g>
	<path class="st2" d="M13.2,91.6h-2v5.8c0,0.7,0.6,1.3,1.3,1.3h4.7v-2h-4C13.2,96.7,13.2,91.6,13.2,91.6z M26.2,91.5h2v-4.7
		c0-0.7-0.6-1.3-1.3-1.3h-9.7v2h9V91.5z M32.4,92.6H19c-0.4,0-0.8,0.4-0.8,0.8v8.4c0,0.4,0.3,0.8,0.8,0.8h13.4
		c0.4,0,0.8-0.4,0.8-0.8v-8.4C33.2,92.9,32.8,92.6,32.4,92.6z M32.2,101.5h-13v-8h13V101.5z M11.2,90.5h2v-3h3v-2h-3v-3h-2v3h-3v2h3
		C11.2,87.5,11.2,90.5,11.2,90.5z M14.2,100.5c0,0.6,0.4,1,1,1h2v-2h-2C14.6,99.5,14.2,100,14.2,100.5z"/>
	<g>
		<path class="st2" d="M22.7,99.1l1.3-3.9h1l-1.8,5h-0.8l-1.8-5h1L22.7,99.1z"/>
		<path class="st2" d="M26.6,95.1l1.5,3.9l1.4-3.9h1.1v5h-0.9v-1.7l0.1-2.2l-1.4,4h-0.6l-1.5-3.9l0.1,2.2v1.7h-0.9v-5L26.6,95.1
			L26.6,95.1z"/>
	</g>
</g>
<g>
	<polygon class="st48" points="10.3,151.2 10.3,152.2 16.3,152.2 16.3,153.2 10.3,153.2 10.3,154.2 16.3,154.2 16.3,157.2 
		12.2,157.2 12.2,163.1 10.3,163.1 10.3,151.2 16.3,151.2 16.3,151.2 	"/>
	<rect x="10.3" y="151.2" class="st49" width="6" height="1"/>
	<rect x="10.3" y="153.2" class="st49" width="6" height="1"/>
	<polygon class="st48" points="21.3,151.2 21.3,152.2 27.2,152.2 27.2,153.2 21.3,153.2 21.3,154.2 27.2,154.2 27.2,157.2 
		21.2,157.2 21.2,151.2 27.2,151.2 27.2,151.2 	"/>
	<rect x="21.3" y="151.2" class="st49" width="5.9" height="1"/>
	<rect x="21.3" y="153.2" class="st49" width="5.9" height="1"/>
	<g>
		<g>
			<polygon class="st49" points="18.3,149.2 18.3,157.2 17.3,157.2 17.3,150.2 9.2,150.2 9.2,164.2 12.2,164.2 12.2,165.2 
				8.2,165.2 8.2,149.2 			"/>
		</g>
	</g>
	<g>
		<g>
			<polygon class="st49" points="29.3,149.2 29.3,157.2 28.3,157.2 28.3,150.2 20.2,150.2 20.2,157.2 19.2,157.2 19.2,149.2 			"/>
		</g>
	</g>
	<g>
		<g>
			<rect x="10.3" y="151.2" class="st49" width="6" height="1"/>
		</g>
	</g>
	<g>
		<g>
			<rect x="10.3" y="153.2" class="st49" width="6" height="1"/>
		</g>
	</g>
	<g>
		<g>
			<rect x="10.3" y="151.2" class="st49" width="6" height="1"/>
		</g>
	</g>
	<g>
		<g>
			<rect x="10.3" y="153.2" class="st49" width="6" height="1"/>
		</g>
	</g>
	<g>
		<g>
			<rect x="21.3" y="151.2" class="st49" width="6" height="1"/>
		</g>
	</g>
	<g>
		<g>
			<rect x="21.3" y="153.2" class="st49" width="6" height="1"/>
		</g>
	</g>
	<g>
		<g>
			<path class="st49" d="M13.3,158.2v10.1h20v-10.1H13.3z M32.3,167.2h-18v-8.1h18V167.2z"/>
		</g>
	</g>
	<g>
		<path class="st49" d="M18.9,163.6h-2.3v1.5h2.6v0.9h-3.8v-5.7h3.8v0.9h-2.6v1.4h2.3V163.6z"/>
		<path class="st49" d="M22.9,164.6c0-0.2-0.1-0.4-0.2-0.5s-0.4-0.2-0.8-0.4s-0.7-0.3-1-0.4c-0.6-0.3-1-0.8-1-1.4
			c0-0.3,0.1-0.6,0.3-0.8s0.4-0.4,0.7-0.6s0.7-0.2,1.1-0.2s0.8,0.1,1.1,0.2s0.6,0.4,0.7,0.6s0.3,0.6,0.3,0.9h-1.2
			c0-0.3-0.1-0.5-0.2-0.6s-0.4-0.2-0.7-0.2c-0.3,0-0.5,0.1-0.7,0.2s-0.2,0.3-0.2,0.5s0.1,0.3,0.3,0.5s0.5,0.2,0.8,0.4
			c0.7,0.2,1.2,0.4,1.5,0.7s0.5,0.7,0.5,1.1c0,0.5-0.2,0.9-0.6,1.2s-0.9,0.4-1.5,0.4c-0.4,0-0.8-0.1-1.2-0.2s-0.6-0.4-0.8-0.7
			s-0.3-0.6-0.3-1H21c0,0.6,0.4,0.9,1.1,0.9c0.3,0,0.5-0.1,0.7-0.2S22.9,164.8,22.9,164.6z"/>
		<path class="st49" d="M26.9,162.3l1.1-2h1.3l-1.7,2.8l1.7,2.9H28l-1.1-2l-1.1,2h-1.4l1.7-2.9l-1.7-2.8h1.3L26.9,162.3z"/>
		<path class="st49" d="M29.9,160.7c0-0.2,0.1-0.3,0.2-0.4s0.3-0.2,0.5-0.2s0.3,0.1,0.5,0.2s0.2,0.2,0.2,0.4s-0.1,0.3-0.2,0.4
			s-0.3,0.2-0.5,0.2s-0.3-0.1-0.5-0.2S29.9,160.9,29.9,160.7z M31.1,166H30v-4.2h1.1V166z"/>
	</g>
</g>
</svg>
