<?xml version="1.0" encoding="UTF-8"?>
<svg xmlns="http://www.w3.org/2000/svg" width="328" height="2608" version="1.1" viewBox="0 0 328 2608">
  <defs>
    <style>
      .cls-1 {
        fill: #d9f0fc;
      }

      .cls-2 {
        fill: #ffd46c;
      }

      .cls-3 {
        fill: #f5f9fe;
      }

      .cls-4, .cls-5 {
        fill: #dbeefd;
      }

      .cls-6 {
        fill: #ff9d9d;
      }

      .cls-7, .cls-8, .cls-9, .cls-10, .cls-11, .cls-12, .cls-13, .cls-14 {
        fill: #fff;
      }

      .cls-15, .cls-8, .cls-16, .cls-11, .cls-5, .cls-17, .cls-13, .cls-14 {
        stroke: #2e72b6;
      }

      .cls-15, .cls-9, .cls-18, .cls-19, .cls-16, .cls-10, .cls-20, .cls-21, .cls-12, .cls-5, .cls-22, .cls-13, .cls-23 {
        stroke-miterlimit: 10;
      }

      .cls-15, .cls-18, .cls-24, .cls-19, .cls-16, .cls-20, .cls-17, .cls-23 {
        fill: none;
      }

      .cls-15, .cls-24 {
        stroke-linecap: round;
      }

      .cls-8 {
        stroke-miterlimit: 10;
      }

      .cls-8, .cls-14 {
        stroke-width: 1px;
      }

      .cls-9, .cls-23 {
        stroke: #3073b7;
      }

      .cls-18 {
        stroke: #fff;
      }

      .cls-24 {
        stroke-linejoin: round;
      }

      .cls-24, .cls-10, .cls-20, .cls-21, .cls-22 {
        stroke: #6c87af;
      }

      .cls-19, .cls-12 {
        stroke: #6a87af;
      }

      .cls-25 {
        fill: #6adbb5;
      }

      .cls-11 {
        stroke-miterlimit: 10;
      }

      .cls-21 {
        fill: #50545a;
        stroke-width: .5px;
      }

      .cls-26 {
        fill: #d9f3fe;
      }

      .cls-27 {
        fill: #fbbd2c;
      }

      .cls-28 {
        fill: #f7f5ea;
      }

      .cls-29 {
        fill: #fefbef;
      }

      .cls-30 {
        fill: #ebf1f7;
      }

      .cls-22 {
        fill: #f2f7fc;
      }

      .cls-31 {
        fill: #f8f7f1;
      }

      .cls-17 {
        stroke-miterlimit: 10;
      }

      .cls-32 {
        fill: #6c87af;
      }

      .cls-33 {
        fill: #5589c7;
      }

      .cls-34 {
        fill: #2e72b6;
      }

      .cls-14 {
        stroke-miterlimit: 10;
      }

      .cls-35 {
        fill: #c0e3ff;
        isolation: isolate;
        opacity: .2;
      }

      .cls-36 {
        opacity: .5;
      }
    </style>
  </defs>
  <!-- Generator: Adobe Illustrator 28.6.0, SVG Export Plug-In . SVG Version: 1.2.0 Build 709)  -->
  <g>
    <g id="Layer_1">
      <circle class="cls-29" cx="110" cy="705" r="22.8"/>
      <circle class="cls-3" cx="50.4" cy="718" r="37.4"/>
      <circle class="cls-29" cx="22" cy="687.1" r="9.2" transform="translate(-665.4 685.7) rotate(-88)"/>
      <path class="cls-4" d="M112.8,692.3v18.2c-1.3-.2-2.5-.3-3.9-.3-13.9,0-25.1,11.2-25.1,25.1s.7,6.9,2.1,10h-49.6c-.8,0-1.4-.6-1.4-1.4v-51.6c0-.8.6-1.4,1.4-1.4h75.1c.8,0,1.4.6,1.4,1.4Z"/>
      <circle class="cls-31" cx="94.8" cy="129.5" r="49"/>
      <circle class="cls-30" cx="156.5" cy="91.4" r="55.4"/>
      <path class="cls-12" d="M180.9,93.6h-110.8c-3.1,0-5.7-2.5-5.7-5.7v-23.8c0-3.1,2.5-5.7,5.7-5.7h110.8c3.1,0,5.7,2.5,5.7,5.7v23.8c0,3.2-2.6,5.7-5.7,5.7Z"/>
      <path class="cls-12" d="M180.9,129.5h-110.8c-3.1,0-5.7-2.5-5.7-5.7v-23.8c0-3.1,2.5-5.7,5.7-5.7h110.8c3.1,0,5.7,2.5,5.7,5.7v23.8c0,3.2-2.6,5.7-5.7,5.7Z"/>
      <path class="cls-12" d="M180.9,165.7h-110.8c-3.1,0-5.7-2.5-5.7-5.7v-23.8c0-3.1,2.5-5.7,5.7-5.7h110.8c3.1,0,5.7,2.5,5.7,5.7v23.8c0,3.2-2.6,5.7-5.7,5.7Z"/>
      <line class="cls-19" x1="45" y1="166.5" x2="201.1" y2="166.5"/>
      <line class="cls-19" x1="202" y1="166.5" x2="205" y2="166.5"/>
      <line class="cls-19" x1="207" y1="166.5" x2="210" y2="166.5"/>
      <line class="cls-19" x1="40" y1="166.5" x2="43" y2="166.5"/>
      <circle class="cls-2" cx="80.8" cy="77" r="3.8"/>
      <circle class="cls-25" cx="94.7" cy="77" r="3.8"/>
      <circle class="cls-6" cx="108.8" cy="77" r="3.8"/>
      <line class="cls-19" x1="144.5" y1="72" x2="144.5" y2="82"/>
      <line class="cls-19" x1="147.5" y1="72" x2="147.5" y2="82"/>
      <line class="cls-19" x1="150.5" y1="72" x2="150.5" y2="82"/>
      <line class="cls-19" x1="153.5" y1="72" x2="153.5" y2="82"/>
      <line class="cls-19" x1="156.5" y1="72" x2="156.5" y2="82"/>
      <line class="cls-19" x1="159.5" y1="72" x2="159.5" y2="82"/>
      <line class="cls-19" x1="162.5" y1="72" x2="162.5" y2="82"/>
      <line class="cls-19" x1="165.5" y1="72" x2="165.5" y2="82"/>
      <line class="cls-19" x1="171.5" y1="72" x2="171.5" y2="82"/>
      <line class="cls-19" x1="168.5" y1="72" x2="168.5" y2="82"/>
      <line class="cls-19" x1="174.5" y1="72" x2="174.5" y2="82"/>
      <circle class="cls-19" cx="108" cy="77" r="4.5"/>
      <circle class="cls-19" cx="94" cy="77" r="4.5"/>
      <circle class="cls-19" cx="80" cy="77" r="4.5"/>
      <line class="cls-19" x1="144.5" y1="107" x2="144.5" y2="117"/>
      <line class="cls-19" x1="147.5" y1="107" x2="147.5" y2="117"/>
      <line class="cls-19" x1="150.5" y1="107" x2="150.5" y2="117"/>
      <line class="cls-19" x1="153.5" y1="107" x2="153.5" y2="117"/>
      <line class="cls-19" x1="156.5" y1="107" x2="156.5" y2="117"/>
      <line class="cls-19" x1="159.5" y1="107" x2="159.5" y2="117"/>
      <line class="cls-19" x1="162.5" y1="107" x2="162.5" y2="117"/>
      <line class="cls-19" x1="165.5" y1="107" x2="165.5" y2="117"/>
      <line class="cls-19" x1="171.5" y1="107" x2="171.5" y2="117"/>
      <line class="cls-19" x1="168.5" y1="107" x2="168.5" y2="117"/>
      <line class="cls-19" x1="174.5" y1="107" x2="174.5" y2="117"/>
      <line class="cls-19" x1="144.5" y1="143" x2="144.5" y2="153"/>
      <line class="cls-19" x1="147.5" y1="143" x2="147.5" y2="153"/>
      <circle class="cls-2" cx="80.8" cy="112" r="3.8"/>
      <circle class="cls-25" cx="94.7" cy="112" r="3.8"/>
      <circle class="cls-6" cx="108.8" cy="112" r="3.8"/>
      <line class="cls-19" x1="150.5" y1="143" x2="150.5" y2="153"/>
      <line class="cls-19" x1="153.5" y1="143" x2="153.5" y2="153"/>
      <line class="cls-19" x1="156.5" y1="143" x2="156.5" y2="153"/>
      <line class="cls-19" x1="159.5" y1="143" x2="159.5" y2="153"/>
      <line class="cls-19" x1="162.5" y1="143" x2="162.5" y2="153"/>
      <line class="cls-19" x1="165.5" y1="143" x2="165.5" y2="153"/>
      <line class="cls-19" x1="171.5" y1="143" x2="171.5" y2="153"/>
      <line class="cls-19" x1="168.5" y1="143" x2="168.5" y2="153"/>
      <line class="cls-19" x1="174.5" y1="143" x2="174.5" y2="153"/>
      <circle class="cls-19" cx="108" cy="112" r="4.5"/>
      <circle class="cls-19" cx="94" cy="112" r="4.5"/>
      <circle class="cls-19" cx="80" cy="112" r="4.5"/>
      <circle class="cls-2" cx="80.8" cy="148" r="3.8"/>
      <circle class="cls-25" cx="94.7" cy="148" r="3.8"/>
      <circle class="cls-6" cx="108.8" cy="148" r="3.8"/>
      <circle class="cls-19" cx="108" cy="148.1" r="4.5"/>
      <circle class="cls-19" cx="94" cy="148.1" r="4.5"/>
      <circle class="cls-19" cx="80" cy="148.1" r="4.5"/>
      <line class="cls-19" x1="35.5" y1="39.1" x2="35.5" y2="44"/>
      <line class="cls-19" x1="35.5" y1="47" x2="35.5" y2="51.9"/>
      <line class="cls-19" x1="29.1" y1="45.5" x2="34" y2="45.5"/>
      <line class="cls-19" x1="37" y1="45.5" x2="41.9" y2="45.5"/>
      <line class="cls-19" x1="212.5" y1="31.1" x2="212.5" y2="36"/>
      <line class="cls-19" x1="212.5" y1="39" x2="212.5" y2="43.9"/>
      <line class="cls-19" x1="206.1" y1="37.5" x2="211" y2="37.5"/>
      <line class="cls-19" x1="214" y1="37.5" x2="218.9" y2="37.5"/>
      <g>
        <g>
          <line class="cls-19" x1="49.5" y1="104" x2="49.5" y2="107"/>
          <line class="cls-19" x1="49.5" y1="109.9" x2="49.5" y2="113"/>
        </g>
        <g>
          <line class="cls-19" x1="45" y1="108.5" x2="48.1" y2="108.5"/>
          <line class="cls-19" x1="50.9" y1="108.5" x2="54" y2="108.5"/>
        </g>
        <g>
          <line class="cls-19" x1="46.3" y1="105.3" x2="48.5" y2="107.5"/>
          <line class="cls-19" x1="50.5" y1="109.5" x2="52.7" y2="111.7"/>
        </g>
        <g>
          <line class="cls-19" x1="46.3" y1="111.7" x2="48.5" y2="109.5"/>
          <line class="cls-19" x1="50.5" y1="107.5" x2="52.7" y2="105.3"/>
        </g>
      </g>
      <g>
        <line class="cls-19" x1="201.6" y1="92" x2="201.6" y2="95"/>
        <line class="cls-19" x1="201.6" y1="97.9" x2="201.6" y2="101"/>
      </g>
      <g>
        <line class="cls-19" x1="197.1" y1="96.5" x2="200.1" y2="96.5"/>
        <line class="cls-19" x1="203" y1="96.5" x2="206.1" y2="96.5"/>
      </g>
      <g>
        <line class="cls-19" x1="198.4" y1="93.3" x2="200.5" y2="95.5"/>
        <line class="cls-19" x1="202.6" y1="97.5" x2="204.8" y2="99.7"/>
      </g>
      <g>
        <line class="cls-19" x1="198.4" y1="99.7" x2="200.5" y2="97.5"/>
        <line class="cls-19" x1="202.6" y1="95.5" x2="204.8" y2="93.3"/>
      </g>
      <circle class="cls-19" cx="133.5" cy="39.5" r="2"/>
      <circle class="cls-19" cx="20.4" cy="144.6" r="2"/>
      <circle class="cls-19" cx="223.5" cy="149.5" r="2"/>
      <path class="cls-26" d="M186,64.3v3.8c0-3-2.5-5.4-5.6-5.4h-109.8c-3.1,0-5.6,2.4-5.6,5.4v-3.8c0-3,2.5-5.4,5.6-5.4h109.8c3.1,0,5.6,2.5,5.6,5.4Z"/>
      <path class="cls-26" d="M186,136.5v3.8c0-3-2.5-5.4-5.6-5.4h-109.8c-3.1,0-5.6,2.4-5.6,5.4v-3.8c0-3,2.5-5.4,5.6-5.4h109.8c3.1,0,5.6,2.4,5.6,5.4Z"/>
      <path class="cls-26" d="M65,123.5v-2.8c0,3,2.5,5.4,5.6,5.4h109.8c3.1,0,5.6-2.4,5.6-5.4v2.8c0,3-2.5,5.4-5.6,5.4h-109.8c-3.1,0-5.6-2.4-5.6-5.4Z"/>
      <circle class="cls-29" cx="30" cy="289.1" r="9.2" transform="translate(-259.4 316.5) rotate(-89.5)"/>
      <circle class="cls-3" cx="100.5" cy="330.5" r="37.5"/>
      <polygon class="cls-16" points="95.5 356.5 95.5 359.5 56.5 359.5 56.5 356.5 67.5 356.5 67.5 351.5 84.5 351.5 84.5 356.5 95.5 356.5"/>
      <path class="cls-16" d="M116.8,349.5H37.3c-1.6,0-2.8-1.3-2.8-2.8v-54.4c0-1.6,1.3-2.8,2.8-2.8h79.4c1.6,0,2.8,1.3,2.8,2.8v54.4c0,1.5-1.2,2.8-2.7,2.8Z"/>
      <path class="cls-4" d="M116.6,294.4v19.3c-1.5-.3-3-.4-4.5-.4-13.2,0-23.9,10.7-23.9,23.9s.8,7.1,2.3,10.2h-50.2c-1.6,0-2.8-1.3-2.8-2.8v-50.2c0-1.6,1.3-2.8,2.8-2.8h73.4c1.6,0,2.9,1.2,2.9,2.8Z"/>
      <line class="cls-16" x1="8" y1="359.5" x2="52.9" y2="359.5"/>
      <line class="cls-16" x1="91" y1="359.5" x2="136" y2="359.5"/>
      <line class="cls-16" x1="137" y1="359.5" x2="139" y2="359.5"/>
      <path class="cls-13" d="M79.5,299.3v4.2h-15c-1.6,0-2.8,1.3-2.8,2.8v14.1h-4.3c-1.6,0-2.8-1.3-2.8-2.8v-18.3c0-1.6,1.3-2.8,2.8-2.8h19.3c1.5,0,2.8,1.3,2.8,2.8Z"/>
      <path class="cls-13" d="M86.5,306.3v18.3c0,1.6-1.3,2.8-2.8,2.8h-19.3c-1.6,0-2.8-1.3-2.8-2.8v-18.3c0-1.6,1.3-2.8,2.8-2.8h19.3c1.6,0,2.8,1.3,2.8,2.8Z"/>
      <circle class="cls-13" cx="112" cy="337.2" r="21.6"/>
      <circle class="cls-16" cx="2.7" cy="339.4" r="2.2"/>
      <circle class="cls-16" cx="87.4" cy="284.4" r="2.2"/>
      <g>
        <g>
          <line class="cls-16" x1="48.5" y1="266" x2="48.5" y2="268"/>
          <line class="cls-16" x1="48.5" y1="275" x2="48.5" y2="277"/>
        </g>
        <g>
          <line class="cls-16" x1="43" y1="271.5" x2="45" y2="271.5"/>
          <line class="cls-16" x1="52" y1="271.5" x2="54" y2="271.5"/>
        </g>
      </g>
      <g>
        <g>
          <line class="cls-16" x1="134.5" y1="286" x2="134.5" y2="288"/>
          <line class="cls-16" x1="134.5" y1="295" x2="134.5" y2="297"/>
        </g>
        <g>
          <line class="cls-16" x1="129" y1="291.5" x2="131" y2="291.5"/>
          <line class="cls-16" x1="138" y1="291.5" x2="140" y2="291.5"/>
        </g>
      </g>
      <line class="cls-16" x1="111.5" y1="328" x2="111.5" y2="346.9"/>
      <line class="cls-16" x1="102" y1="337.4" x2="120.9" y2="337.4"/>
      <g>
        <g>
          <g>
            <line class="cls-16" x1="147.5" y1="323" x2="147.5" y2="325"/>
            <line class="cls-16" x1="147.5" y1="330" x2="147.5" y2="332"/>
          </g>
          <g>
            <line class="cls-16" x1="143" y1="327.5" x2="145" y2="327.5"/>
            <line class="cls-16" x1="150" y1="327.5" x2="152" y2="327.5"/>
          </g>
        </g>
        <g>
          <g>
            <line class="cls-16" x1="144.5" y1="324.3" x2="146" y2="325.8"/>
            <line class="cls-16" x1="149.5" y1="329.2" x2="150.9" y2="330.7"/>
          </g>
          <g>
            <line class="cls-16" x1="144.5" y1="330.7" x2="146" y2="329.2"/>
            <line class="cls-16" x1="149.5" y1="325.8" x2="150.9" y2="324.3"/>
          </g>
        </g>
      </g>
      <circle class="cls-3" cx="76.5" cy="519.9" r="37"/>
      <circle class="cls-29" cx="43" cy="498.7" r="9.2"/>
      <circle class="cls-29" cx="117.9" cy="513.1" r="23"/>
      <circle class="cls-16" cx="33.5" cy="478.5" r="2"/>
      <circle class="cls-16" cx="2.5" cy="542.5" r="2"/>
      <g>
        <g>
          <g>
            <line class="cls-16" x1="156.5" y1="522" x2="156.5" y2="524.5"/>
            <line class="cls-16" x1="156.5" y1="530.3" x2="156.5" y2="532.7"/>
          </g>
          <g>
            <line class="cls-16" x1="151.2" y1="527.4" x2="153.6" y2="527.4"/>
            <line class="cls-16" x1="159.4" y1="527.4" x2="161.9" y2="527.4"/>
          </g>
        </g>
        <g>
          <g>
            <line class="cls-16" x1="152.7" y1="523.6" x2="154.5" y2="525.3"/>
            <line class="cls-16" x1="158.6" y1="529.4" x2="160.3" y2="531.2"/>
          </g>
          <g>
            <line class="cls-16" x1="152.7" y1="531.2" x2="154.5" y2="529.4"/>
            <line class="cls-16" x1="158.6" y1="525.3" x2="160.3" y2="523.6"/>
          </g>
        </g>
      </g>
      <line class="cls-16" x1="13" y1="550.5" x2="16.9" y2="550.5"/>
      <line class="cls-16" x1="19" y1="550.5" x2="154" y2="550.5"/>
      <line class="cls-16" x1="155" y1="550.5" x2="157" y2="550.5"/>
      <path class="cls-16" d="M140.5,526.4c0,6.7-2.7,12.7-7.1,17.1-4.4,4.4-10.4,7.1-17,7.1h-45.4c-13.3,0-24.1-10.8-24.1-24.1s2.7-12.7,7.1-17.1c4-4.1,9.5-6.7,15.7-7v-.5c0-13.5,11-24.5,24.5-24.5s24.4,11,24.4,24.5v.5c12.2,1,21.9,11.4,21.9,24Z"/>
      <path class="cls-13" d="M97.6,549.8h-51.3c-1.6,0-2.8-1.3-2.8-2.8v-34.7c0-1.6,1.3-2.8,2.8-2.8h51.3c1.6,0,2.8,1.3,2.8,2.8v34.7c0,1.5-1.2,2.8-2.8,2.8Z"/>
      <path class="cls-4" d="M96.6,547h-49.1c-.8,0-1.4-.6-1.4-1.4v-32.3c0-.8.6-1.4,1.4-1.4h49.1c.8,0,1.4.6,1.4,1.4v32.3c0,.8-.7,1.4-1.4,1.4Z"/>
      <path class="cls-13" d="M70.1,528.4h-20.2c-.8,0-1.4-.6-1.4-1.4v-11.2c0-.8.6-1.4,1.4-1.4h20.2c.8,0,1.4.6,1.4,1.4v11.2c0,.8-.6,1.4-1.4,1.4Z"/>
      <g>
        <line class="cls-16" x1="80.5" y1="514" x2="80.5" y2="528.9"/>
        <line class="cls-16" x1="83.5" y1="514" x2="83.5" y2="528.9"/>
      </g>
      <g>
        <line class="cls-16" x1="86.5" y1="514" x2="86.5" y2="528.9"/>
        <line class="cls-16" x1="89.5" y1="514" x2="89.5" y2="528.9"/>
      </g>
      <g>
        <line class="cls-16" x1="92.5" y1="514" x2="92.5" y2="528.9"/>
        <line class="cls-16" x1="95.5" y1="514" x2="95.5" y2="528.9"/>
      </g>
      <g>
        <g>
          <line class="cls-16" x1="28.5" y1="512" x2="28.5" y2="514"/>
          <line class="cls-16" x1="28.5" y1="520.9" x2="28.5" y2="523"/>
        </g>
        <g>
          <line class="cls-16" x1="23" y1="517.5" x2="25.1" y2="517.5"/>
          <line class="cls-16" x1="31.9" y1="517.5" x2="34" y2="517.5"/>
        </g>
      </g>
      <g>
        <g>
          <line class="cls-16" x1="131.5" y1="455" x2="131.5" y2="457"/>
          <line class="cls-16" x1="131.5" y1="463.9" x2="131.5" y2="466"/>
        </g>
        <g>
          <line class="cls-16" x1="126" y1="460.5" x2="128.1" y2="460.5"/>
          <line class="cls-16" x1="134.9" y1="460.5" x2="137" y2="460.5"/>
        </g>
      </g>
      <polygon class="cls-16" points="94.5 754.5 94.5 757.5 55.5 757.5 55.5 754.5 66.5 754.5 66.5 749.5 83.5 749.5 83.5 754.5 94.5 754.5"/>
      <path class="cls-16" d="M115.4,691.4v23.5c-2.3-.8-4.7-1.3-7.3-1.3-11.9,0-21.6,9.7-21.6,21.6s1.4,8.8,3.8,12.3h-54.9c-1.6,0-2.8-1.3-2.8-2.8v-53.3c0-1.6,1.3-2.8,2.8-2.8h77.1c1.6-.1,2.9,1.2,2.9,2.8Z"/>
      <path class="cls-16" d="M106.5,684.3v4.2H35.5c-1.6,0-2.8,1.3-2.8,2.8v47.1h-4.2c-1.6,0-2.8-1.3-2.8-2.8v-51.3c0-1.6,1.3-2.8,2.8-2.8h75.2c1.5,0,2.8,1.3,2.8,2.8Z"/>
      <line class="cls-16" x1="8" y1="757.5" x2="51.9" y2="757.5"/>
      <line class="cls-16" x1="90" y1="757.5" x2="135" y2="757.5"/>
      <path class="cls-16" d="M115.4,714.9c4.5,1.6,8.4,4.7,10.9,8.7"/>
      <path class="cls-16" d="M129.6,732.9c.1.8.1,1.5.1,2.3,0,11.9-9.7,21.6-21.6,21.6s-13.8-3.7-17.7-9.3"/>
      <circle class="cls-16" cx="83.5" cy="669.5" r="2.1"/>
      <circle class="cls-16" cx="2.5" cy="740.5" r="1.9"/>
      <g>
        <g>
          <line class="cls-16" x1="37.5" y1="655" x2="37.5" y2="657"/>
          <line class="cls-16" x1="37.5" y1="664" x2="37.5" y2="666"/>
        </g>
        <g>
          <line class="cls-16" x1="32" y1="660.5" x2="34" y2="660.5"/>
          <line class="cls-16" x1="41" y1="660.5" x2="43" y2="660.5"/>
        </g>
      </g>
      <g>
        <g>
          <g>
            <line class="cls-16" x1="142.5" y1="720.1" x2="142.5" y2="722.5"/>
            <line class="cls-16" x1="142.5" y1="728.1" x2="142.5" y2="730.5"/>
          </g>
          <g>
            <line class="cls-16" x1="137.3" y1="725.3" x2="139.7" y2="725.3"/>
            <line class="cls-16" x1="145.3" y1="725.3" x2="147.7" y2="725.3"/>
          </g>
        </g>
        <g>
          <g>
            <line class="cls-16" x1="138.8" y1="721.6" x2="140.5" y2="723.3"/>
            <line class="cls-16" x1="144.5" y1="727.3" x2="146.2" y2="729"/>
          </g>
          <g>
            <line class="cls-16" x1="138.8" y1="729" x2="140.5" y2="727.3"/>
            <line class="cls-16" x1="144.5" y1="723.3" x2="146.2" y2="721.6"/>
          </g>
        </g>
      </g>
      <line class="cls-16" x1="136" y1="757.5" x2="138" y2="757.5"/>
      <line class="cls-16" x1="7" y1="757.5" x2="4" y2="757.5"/>
      <polygon class="cls-34" points="128.9 719.8 128.9 725.9 122.8 725.9 128.9 719.8"/>
      <circle class="cls-16" cx="108" cy="735" r="5.6"/>
      <path class="cls-16" d="M119.5,737.5v-5h-2.3c-.2-.8-.5-1.6-1-2.3l1.6-1.6-3.5-3.5-1.6,1.6c-.7-.4-1.5-.7-2.3-.9v-2.3h-5v2.3c-.8.2-1.6.5-2.3.9l-1.6-1.6-3.5,3.5,1.6,1.6c-.4.7-.7,1.5-1,2.3h-2.3v5h2.2c.2.8.5,1.6,1,2.3l-1.6,1.6,3.5,3.5,1.6-1.6c.7.4,1.5.7,2.3,1v2.3h5v-2.3c.8-.2,1.6-.5,2.3-1l1.6,1.6,3.5-3.5-1.6-1.6c.4-.7.7-1.5,1-2.3h2.4Z"/>
      <g>
        <g>
          <line class="cls-16" x1="130.5" y1="682" x2="130.5" y2="684"/>
          <line class="cls-16" x1="130.5" y1="690.9" x2="130.5" y2="693"/>
        </g>
        <g>
          <line class="cls-16" x1="125" y1="687.5" x2="127.1" y2="687.5"/>
          <line class="cls-16" x1="133.9" y1="687.5" x2="136" y2="687.5"/>
        </g>
      </g>
      <circle class="cls-29" cx="30.6" cy="876.5" r="9.2" transform="translate(-846.2 899.1) rotate(-89.5)"/>
      <circle class="cls-3" cx="101" cy="917.9" r="37.5"/>
      <polygon class="cls-16" points="96 943.9 96 946.9 57 946.9 57 943.9 68 943.9 68 938.9 85 938.9 85 943.9 96 943.9"/>
      <path class="cls-16" d="M117.3,936.9H37.8c-1.6,0-2.8-1.3-2.8-2.8v-54.4c0-1.6,1.3-2.8,2.8-2.8h79.4c1.6,0,2.8,1.3,2.8,2.8v54.4c0,1.5-1.2,2.8-2.7,2.8Z"/>
      <path class="cls-4" d="M117.1,881.8v19.3c-1.5-.3-3-.4-4.5-.4-13.2,0-23.9,10.7-23.9,23.9s.8,7.1,2.3,10.2h-50.2c-1.6,0-2.8-1.3-2.8-2.8v-50.2c0-1.6,1.3-2.8,2.8-2.8h73.4c1.6,0,2.9,1.2,2.9,2.8Z"/>
      <line class="cls-16" x1="8.5" y1="946.9" x2="53.4" y2="946.9"/>
      <line class="cls-16" x1="91.5" y1="946.9" x2="136.5" y2="946.9"/>
      <line class="cls-16" x1="137.5" y1="946.9" x2="139.5" y2="946.9"/>
      <circle class="cls-8" cx="112.5" cy="924.5" r="21.6" transform="translate(-815.9 851.4) rotate(-78.6)"/>
      <circle class="cls-16" cx="3.2" cy="926.8" r="2.2"/>
      <circle class="cls-16" cx="87.9" cy="871.8" r="2.2"/>
      <g>
        <g>
          <line class="cls-16" x1="49" y1="853.4" x2="49" y2="855.4"/>
          <line class="cls-16" x1="49" y1="862.4" x2="49" y2="864.4"/>
        </g>
        <g>
          <line class="cls-16" x1="43.5" y1="858.9" x2="45.5" y2="858.9"/>
          <line class="cls-16" x1="52.5" y1="858.9" x2="54.5" y2="858.9"/>
        </g>
      </g>
      <g>
        <g>
          <line class="cls-16" x1="135" y1="873.4" x2="135" y2="875.4"/>
          <line class="cls-16" x1="135" y1="882.4" x2="135" y2="884.4"/>
        </g>
        <g>
          <line class="cls-16" x1="129.5" y1="878.9" x2="131.5" y2="878.9"/>
          <line class="cls-16" x1="138.5" y1="878.9" x2="140.5" y2="878.9"/>
        </g>
      </g>
      <line class="cls-16" x1="112" y1="915.4" x2="112" y2="934.3"/>
      <line class="cls-16" x1="102.5" y1="924.8" x2="121.4" y2="924.8"/>
      <g>
        <g>
          <g>
            <line class="cls-16" x1="148" y1="910.4" x2="148" y2="912.4"/>
            <line class="cls-16" x1="148" y1="917.4" x2="148" y2="919.4"/>
          </g>
          <g>
            <line class="cls-16" x1="143.5" y1="914.9" x2="145.5" y2="914.9"/>
            <line class="cls-16" x1="150.5" y1="914.9" x2="152.5" y2="914.9"/>
          </g>
        </g>
        <g>
          <g>
            <line class="cls-16" x1="145" y1="911.7" x2="146.5" y2="913.2"/>
            <line class="cls-16" x1="150" y1="916.6" x2="151.4" y2="918.1"/>
          </g>
          <g>
            <line class="cls-16" x1="145" y1="918.1" x2="146.5" y2="916.6"/>
            <line class="cls-16" x1="150" y1="913.2" x2="151.4" y2="911.7"/>
          </g>
        </g>
      </g>
      <g>
        <circle class="cls-29" cx="30.7" cy="1073.9" r="9.2" transform="translate(-1043.4 1094.9) rotate(-89.5)"/>
        <circle class="cls-3" cx="101" cy="1115.3" r="37.5"/>
        <polygon class="cls-16" points="96 1141.3 96 1144.3 57 1144.3 57 1141.3 68 1141.3 68 1136.3 85 1136.3 85 1141.3 96 1141.3"/>
        <path class="cls-16" d="M117.3,1134.3H37.8c-1.6,0-2.8-1.3-2.8-2.8v-54.4c0-1.6,1.3-2.8,2.8-2.8h79.4c1.6,0,2.8,1.3,2.8,2.8v54.4c0,1.5-1.2,2.8-2.7,2.8Z"/>
        <path class="cls-4" d="M117.1,1079.2v19.3c-1.5-.3-3-.4-4.5-.4-13.2,0-23.9,10.7-23.9,23.9s.8,7.1,2.3,10.2h-50.2c-1.6,0-2.8-1.3-2.8-2.8v-50.2c0-1.6,1.3-2.8,2.8-2.8h73.4c1.6,0,2.9,1.2,2.9,2.8Z"/>
        <line class="cls-16" x1="8.5" y1="1144.3" x2="53.4" y2="1144.3"/>
        <line class="cls-16" x1="91.5" y1="1144.3" x2="136.5" y2="1144.3"/>
        <line class="cls-16" x1="137.5" y1="1144.3" x2="139.5" y2="1144.3"/>
        <circle class="cls-14" cx="112.6" cy="1121.9" r="21.6" transform="translate(-1012.5 1047.1) rotate(-80.5)"/>
        <circle class="cls-16" cx="3.2" cy="1124.2" r="2.2"/>
        <circle class="cls-16" cx="87.9" cy="1069.2" r="2.2"/>
        <g>
          <g>
            <line class="cls-16" x1="49" y1="1050.8" x2="49" y2="1052.8"/>
            <line class="cls-16" x1="49" y1="1059.8" x2="49" y2="1061.8"/>
          </g>
          <g>
            <line class="cls-16" x1="43.5" y1="1056.3" x2="45.5" y2="1056.3"/>
            <line class="cls-16" x1="52.5" y1="1056.3" x2="54.5" y2="1056.3"/>
          </g>
        </g>
        <g>
          <g>
            <line class="cls-16" x1="138" y1="1056.8" x2="138" y2="1058.8"/>
            <line class="cls-16" x1="138" y1="1065.8" x2="138" y2="1067.8"/>
          </g>
          <g>
            <line class="cls-16" x1="132.5" y1="1062.3" x2="134.5" y2="1062.3"/>
            <line class="cls-16" x1="141.5" y1="1062.3" x2="143.5" y2="1062.3"/>
          </g>
        </g>
        <g>
          <path class="cls-13" d="M119,1112.9v3h-10.8c-1.2,0-2,.9-2,2v10.2h-3.1c-1.2,0-2-.9-2-2v-13.2c0-1.2.9-2,2-2h14c1,0,1.9.9,1.9,2Z"/>
          <path class="cls-13" d="M124,1117.9v13.2c0,1.2-.9,2-2,2h-14c-1.2,0-2-.9-2-2v-13.2c0-1.2.9-2,2-2h14c1.1,0,2,.9,2,2Z"/>
        </g>
        <g>
          <g>
            <g>
              <line class="cls-16" x1="148" y1="1107.8" x2="148" y2="1109.8"/>
              <line class="cls-16" x1="148" y1="1114.8" x2="148" y2="1116.8"/>
            </g>
            <g>
              <line class="cls-16" x1="143.5" y1="1112.3" x2="145.5" y2="1112.3"/>
              <line class="cls-16" x1="150.5" y1="1112.3" x2="152.5" y2="1112.3"/>
            </g>
          </g>
          <g>
            <g>
              <line class="cls-16" x1="145" y1="1109.1" x2="146.5" y2="1110.6"/>
              <line class="cls-16" x1="150" y1="1114" x2="151.4" y2="1115.5"/>
            </g>
            <g>
              <line class="cls-16" x1="145" y1="1115.5" x2="146.5" y2="1114"/>
              <line class="cls-16" x1="150" y1="1110.6" x2="151.4" y2="1109.1"/>
            </g>
          </g>
        </g>
      </g>
      <circle class="cls-29" cx="30.8" cy="1245.9" r="9.2" transform="translate(-1215.3 1265.4) rotate(-89.5)"/>
      <circle class="cls-3" cx="101" cy="1287.3" r="37.5"/>
      <rect class="cls-16" x="81.5" y="1309.7" width="16" height="4"/>
      <line class="cls-16" x1="9" y1="1316.7" x2="53" y2="1316.7"/>
      <path class="cls-4" d="M102,1291.2c0,1.1-.9,2-2,2h-55c-1.1,0-2-.9-2-2v-40c0-1.1.9-2,2-2h18.4l8.7,6h27.9c1.1,0,2,.9,2,2v34Z"/>
      <line class="cls-16" x1="72" y1="1316.7" x2="137" y2="1316.7"/>
      <line class="cls-16" x1="138" y1="1316.7" x2="140" y2="1316.7"/>
      <circle class="cls-16" cx="3.2" cy="1296.2" r="2.2"/>
      <circle class="cls-16" cx="87.9" cy="1241.2" r="2.2"/>
      <g>
        <g>
          <line class="cls-16" x1="49" y1="1222.8" x2="49" y2="1224.8"/>
          <line class="cls-16" x1="49" y1="1231.8" x2="49" y2="1233.8"/>
        </g>
        <g>
          <line class="cls-16" x1="43.5" y1="1228.3" x2="45.5" y2="1228.3"/>
          <line class="cls-16" x1="52.5" y1="1228.3" x2="54.5" y2="1228.3"/>
        </g>
      </g>
      <g>
        <g>
          <line class="cls-16" x1="138" y1="1228.8" x2="138" y2="1230.8"/>
          <line class="cls-16" x1="138" y1="1237.8" x2="138" y2="1239.8"/>
        </g>
        <g>
          <line class="cls-16" x1="132.5" y1="1234.3" x2="134.5" y2="1234.3"/>
          <line class="cls-16" x1="141.5" y1="1234.3" x2="143.5" y2="1234.3"/>
        </g>
      </g>
      <g>
        <g>
          <g>
            <line class="cls-16" x1="148" y1="1279.8" x2="148" y2="1281.8"/>
            <line class="cls-16" x1="148" y1="1286.8" x2="148" y2="1288.8"/>
          </g>
          <g>
            <line class="cls-16" x1="143.5" y1="1284.3" x2="145.5" y2="1284.3"/>
            <line class="cls-16" x1="150.5" y1="1284.3" x2="152.5" y2="1284.3"/>
          </g>
        </g>
        <g>
          <g>
            <line class="cls-16" x1="145" y1="1281.1" x2="146.5" y2="1282.6"/>
            <line class="cls-16" x1="150" y1="1286" x2="151.4" y2="1287.5"/>
          </g>
          <g>
            <line class="cls-16" x1="145" y1="1287.5" x2="146.5" y2="1286"/>
            <line class="cls-16" x1="150" y1="1282.6" x2="151.4" y2="1281.1"/>
          </g>
        </g>
      </g>
      <path class="cls-16" d="M100.2,1249.7h-25.5l-9-6h-20.9c-4,0-7.3,3.3-7.3,7.3v40.5c0,4,3.3,7.3,7.3,7.3h55.4c4,0,7.3-3.3,7.3-7.3v-34.5c0-4-3.3-7.3-7.3-7.3Z"/>
      <rect class="cls-16" x="47.5" y="1309.7" width="16" height="4"/>
      <circle class="cls-14" cx="112.6" cy="1294.9" r="21.6" transform="translate(-1183.1 1191.5) rotate(-80.5)"/>
      <rect class="cls-16" x="67.5" y="1307.7" width="10" height="9"/>
      <polyline class="cls-16" points="70.5 1307.2 70.5 1302.7 74.5 1302.7 74.5 1307.2"/>
      <g>
        <circle class="cls-17" cx="118.5" cy="1288.5" r="4"/>
        <circle class="cls-17" cx="118.5" cy="1303.5" r="4"/>
        <circle class="cls-17" cx="104.5" cy="1295.5" r="4"/>
        <line class="cls-17" x1="108.1" y1="1293.7" x2="114.6" y2="1289.6"/>
        <line class="cls-17" x1="107.5" y1="1298.1" x2="114.7" y2="1302.1"/>
      </g>
      <circle class="cls-29" cx="28" cy="1436.3" r="8.7" transform="translate(-1408.5 1451.2) rotate(-89.5)"/>
      <circle class="cls-3" cx="97.4" cy="1467.1" r="35.6" transform="translate(-1372.9 1466.8) rotate(-86.2)"/>
      <line class="cls-16" x1="10.1" y1="1495.2" x2="29.1" y2="1495.2"/>
      <line class="cls-16" x1="70" y1="1495.2" x2="131.8" y2="1495.2"/>
      <line class="cls-16" x1="132.7" y1="1495.2" x2="134.6" y2="1495.2"/>
      <circle class="cls-16" cx="4.6" cy="1475.6" r="2.1"/>
      <circle class="cls-16" cx="85.1" cy="1423.3" r="2.1"/>
      <g>
        <g>
          <line class="cls-16" x1="41.5" y1="1405.8" x2="41.5" y2="1407.7"/>
          <line class="cls-16" x1="41.5" y1="1414.4" x2="41.5" y2="1416.3"/>
        </g>
        <g>
          <line class="cls-16" x1="36.2" y1="1411" x2="38.1" y2="1411"/>
          <line class="cls-16" x1="44.8" y1="1411" x2="46.7" y2="1411"/>
        </g>
      </g>
      <g>
        <g>
          <line class="cls-16" x1="123.2" y1="1411.5" x2="123.2" y2="1413.4"/>
          <line class="cls-16" x1="123.2" y1="1420.1" x2="123.2" y2="1422"/>
        </g>
        <g>
          <line class="cls-16" x1="118" y1="1416.7" x2="119.9" y2="1416.7"/>
          <line class="cls-16" x1="126.5" y1="1416.7" x2="128.4" y2="1416.7"/>
        </g>
      </g>
      <g>
        <g>
          <g>
            <line class="cls-16" x1="142.2" y1="1460" x2="142.2" y2="1461.9"/>
            <line class="cls-16" x1="142.2" y1="1466.6" x2="142.2" y2="1468.5"/>
          </g>
          <g>
            <line class="cls-16" x1="137.9" y1="1464.3" x2="139.8" y2="1464.3"/>
            <line class="cls-16" x1="144.6" y1="1464.3" x2="146.5" y2="1464.3"/>
          </g>
        </g>
        <g>
          <g>
            <line class="cls-16" x1="139.4" y1="1461.2" x2="140.8" y2="1462.6"/>
            <line class="cls-16" x1="144.1" y1="1465.9" x2="145.5" y2="1467.3"/>
          </g>
          <g>
            <line class="cls-16" x1="139.4" y1="1467.3" x2="140.8" y2="1465.9"/>
            <line class="cls-16" x1="144.1" y1="1462.6" x2="145.5" y2="1461.2"/>
          </g>
        </g>
      </g>
      <path class="cls-5" d="M93.5,1495.2h-59.3c-2,0-3.6-1.6-3.6-3.6v-43.2c0-2,1.6-3.6,3.6-3.6h59.3c2,0,3.6,1.6,3.6,3.6v43.2c0,2-1.6,3.6-3.6,3.6Z"/>
      <path class="cls-16" d="M96.5,1446.5l-.9-1-7.8-9.1c-1.1-1.2-2.6-2-4.3-2h-39.4c-1.6,0-3.2.7-4.3,2l-7.5,8.8-1,1.3"/>
      <path class="cls-16" d="M48.7,1453.7c-.2,2.2-2,4-4.3,4s-4.3-1.9-4.3-4.3,1.9-4.3,4.3-4.3,3.8,1.5,4.2,3.4"/>
      <g>
        <line class="cls-16" x1="51" y1="1481.9" x2="51.9" y2="1481.9"/>
        <line class="cls-16" x1="39.6" y1="1481.9" x2="50" y2="1481.9"/>
      </g>
      <g>
        <line class="cls-16" x1="41.5" y1="1485.7" x2="49.1" y2="1485.7"/>
        <line class="cls-16" x1="37.7" y1="1485.7" x2="40.5" y2="1485.7"/>
      </g>
      <g>
        <line class="cls-16" x1="47.2" y1="1489.5" x2="50" y2="1489.5"/>
        <line class="cls-16" x1="39.6" y1="1489.5" x2="46.2" y2="1489.5"/>
      </g>
      <path class="cls-13" d="M66.8,1490.5h-5.9c-1,0-1.8-.9-1.8-1.8v-37.3c0-1,.9-1.8,1.8-1.8h5.9c1,0,1.8.9,1.8,1.8v37.3c0,.9-.9,1.8-1.8,1.8Z"/>
      <circle class="cls-13" cx="63.8" cy="1454.4" r="1.5"/>
      <path class="cls-13" d="M79.1,1490.5h-5.9c-1,0-1.8-.9-1.8-1.8v-37.3c0-1,.9-1.8,1.8-1.8h5.9c1,0,1.8.9,1.8,1.8v37.3c0,.9-.8,1.8-1.8,1.8Z"/>
      <circle class="cls-13" cx="76.2" cy="1454.4" r="1.5"/>
      <path class="cls-13" d="M90.5,1490.5h-5.9c-1,0-1.8-.9-1.8-1.8v-37.3c0-1,.9-1.8,1.8-1.8h5.9c1,0,1.8.9,1.8,1.8v37.3c0,.9-.8,1.8-1.8,1.8Z"/>
      <circle class="cls-13" cx="87.6" cy="1454.4" r="1.5"/>
      <circle class="cls-11" cx="108.5" cy="1474.1" r="20.5"/>
      <g>
        <line class="cls-15" x1="108.5" y1="1465.1" x2="108.5" y2="1483.2"/>
        <line class="cls-15" x1="99.5" y1="1474.1" x2="116.6" y2="1474.1"/>
      </g>
      <circle class="cls-30" cx="129.4" cy="1658.1" r="53.6" transform="translate(-1533.6 1676.9) rotate(-86.2)"/>
      <circle class="cls-28" cx="49.5" cy="1685" r="35.7" transform="translate(-1636.1 1703.8) rotate(-89)"/>
      <path class="cls-10" d="M207.6,1714.8l-111.4,10c-1.4,0-2.6-1.2-2.6-2.6v-60.2c0-1.4,1.2-2.6,2.6-2.6l111.4-4c1.4,0,2.6,1.2,2.6,2.6v54.2c0,1.4-1.2,2.6-2.6,2.6Z"/>
      <path class="cls-1" d="M94,1669.8s1.1-2.7,11.5-2.7,98.7-5.8,98.7-5.8c0,0,5.5.7,5.5,2.4.1-6.5.7-7-5.3-7.3-5.6.3-108,4.5-108,4.5,0,0-1.9-.3-2.4,1.9-.2,1.3,0,4.5,0,7Z"/>
      <g>
        <path class="cls-22" d="M183.4,1696.2l-59,4.5c-1.7,0-3.1-1.2-3.1-2.9v-11.6c0-1.5,1.2-2.8,2.7-2.9l58.9-4.5c2.1-.2,3.8,1.5,3.8,3.5v10.3c0,1.9-1.5,3.4-3.3,3.6Z"/>
        <path class="cls-21" d="M139.9,1693.9l-9.9.8c-.8,0-1.4-.5-1.4-1.3v-2.7c0-.7.5-1.2,1.2-1.3l9.9-.8c.8,0,1.4.5,1.4,1.3v2.7c0,.6-.5,1.2-1.2,1.3Z"/>
        <path class="cls-21" d="M155.7,1692.6l-9.9.8c-.8,0-1.4-.5-1.4-1.3v-2.7c0-.7.5-1.2,1.2-1.3l9.9-.8c.8,0,1.4.5,1.4,1.3v2.7c0,.7-.6,1.2-1.2,1.3Z"/>
        <path class="cls-33" d="M129.5,1692.4l10.6-1v-1.2s0-.8-.8-.6c-.9,0-9.2.6-9.2.6,0,0-.8.5-.7,1,.2.7,0,1.2,0,1.2Z"/>
        <path class="cls-27" d="M145.2,1691l10.6-1v-1.2s0-.8-.8-.6c-.9,0-9.2.6-9.2.6,0,0-.8.5-.7,1,.2.7,0,1.2,0,1.2Z"/>
        <line class="cls-20" x1="165.7" y1="1683.7" x2="165.7" y2="1693.8"/>
        <line class="cls-20" x1="168.7" y1="1683.7" x2="168.7" y2="1693.8"/>
        <line class="cls-20" x1="171.7" y1="1683.7" x2="171.7" y2="1693.8"/>
        <line class="cls-20" x1="174.7" y1="1683.7" x2="174.7" y2="1693.8"/>
        <line class="cls-20" x1="177.7" y1="1683.7" x2="177.7" y2="1693.8"/>
      </g>
      <path class="cls-10" d="M208.2,1655.3l-56.8-14.9c-4.2-1.5-7.9-1-10.1-.8l-109.9,4.7c-2.3,0-4.2,1.9-4.2,4.2v43.5c0,2,1.3,3.8,3.2,4.5l64,27.8c0,0,.3,0,.3-.2v-62.8l113.5-6h0Z"/>
      <path class="cls-1" d="M29.2,1644.9l118-5.2,3,.6s-112.9,4.9-117.9,6.2c-2.4,0-3.1-1.6-3.1-1.6Z"/>
      <line class="cls-20" x1="28.2" y1="1645.7" x2="94.7" y2="1661.2"/>
      <path class="cls-1" d="M27.7,1691.7v-42.7s0-.4.1-.9c.1-1,1.1-1.6,2.1-1.4,18.7,4.2,64.1,15.2,64.1,15.2l-58.4-10.1c-2.5-.4-4.8,1.4-5,3.9l-2.9,36Z"/>
      <g class="cls-36">
        <line class="cls-24" x1="38.3" y1="1690.7" x2="77.3" y2="1705.1"/>
        <line class="cls-24" x1="38.3" y1="1688.7" x2="77.3" y2="1703.1"/>
        <line class="cls-24" x1="38.3" y1="1686.7" x2="77.3" y2="1701.1"/>
        <line class="cls-24" x1="38.3" y1="1684.7" x2="77.3" y2="1699.1"/>
        <line class="cls-24" x1="38.3" y1="1682.7" x2="77.3" y2="1697.1"/>
        <line class="cls-24" x1="38.3" y1="1680.7" x2="77.3" y2="1695.1"/>
        <line class="cls-24" x1="38.3" y1="1678.7" x2="77.3" y2="1693.1"/>
        <line class="cls-24" x1="38.3" y1="1676.7" x2="77.3" y2="1691.1"/>
        <line class="cls-24" x1="38.3" y1="1674.7" x2="77.3" y2="1689.1"/>
        <line class="cls-24" x1="38.3" y1="1672.7" x2="77.3" y2="1687.1"/>
        <line class="cls-24" x1="38.3" y1="1670.7" x2="77.3" y2="1685.1"/>
        <line class="cls-24" x1="38.3" y1="1668.7" x2="77.3" y2="1683.1"/>
        <line class="cls-24" x1="38.3" y1="1666.7" x2="77.3" y2="1681.1"/>
        <line class="cls-24" x1="38.3" y1="1664.7" x2="77.3" y2="1679.1"/>
        <line class="cls-24" x1="38.3" y1="1662.7" x2="77.3" y2="1677.1"/>
        <line class="cls-24" x1="38.3" y1="1660.7" x2="77.3" y2="1675.1"/>
        <line class="cls-24" x1="38.3" y1="1658.7" x2="77.3" y2="1673.1"/>
        <line class="cls-24" x1="38.3" y1="1656.7" x2="77.3" y2="1671.1"/>
      </g>
      <path class="cls-32" d="M26.3,1692.8s-3.6,3.1.8,5.1,68.1,29.2,68.1,29.2l114.5-11v-2.5s-.9,1.1-7.8,1.6c-7,.5-105.8,9.6-105.8,9.6l-25.5-10.9-40.3-17.4-4-3.7Z"/>
      <g>
        <line class="cls-19" x1="216.7" y1="1628.7" x2="216.7" y2="1631.8"/>
        <line class="cls-19" x1="216.7" y1="1633.7" x2="216.7" y2="1636.7"/>
        <line class="cls-19" x1="212.7" y1="1632.7" x2="215.8" y2="1632.7"/>
        <line class="cls-19" x1="217.6" y1="1632.7" x2="220.7" y2="1632.7"/>
      </g>
      <g>
        <line class="cls-19" x1="60.9" y1="1603.9" x2="60.9" y2="1607.9"/>
        <line class="cls-19" x1="60.9" y1="1610.3" x2="60.9" y2="1614.2"/>
        <line class="cls-19" x1="55.7" y1="1609.1" x2="59.7" y2="1609.1"/>
        <line class="cls-19" x1="62.1" y1="1609.1" x2="66.1" y2="1609.1"/>
      </g>
      <circle class="cls-20" cx="228.9" cy="1692.9" r="2"/>
      <g>
        <g>
          <line class="cls-19" x1="5.4" y1="1648.1" x2="5.4" y2="1650.2"/>
          <line class="cls-19" x1="5.4" y1="1652.2" x2="5.4" y2="1654.3"/>
          <line class="cls-19" x1="2.3" y1="1651.2" x2="4.4" y2="1651.2"/>
          <line class="cls-19" x1="6.4" y1="1651.2" x2="8.5" y2="1651.2"/>
        </g>
        <g>
          <line class="cls-19" x1="7.6" y1="1649" x2="6.1" y2="1650.5"/>
          <line class="cls-19" x1="4.7" y1="1651.9" x2="3.2" y2="1653.4"/>
          <line class="cls-19" x1="3.2" y1="1649" x2="4.7" y2="1650.5"/>
          <line class="cls-19" x1="6.1" y1="1651.9" x2="7.6" y2="1653.4"/>
        </g>
      </g>
      <g>
        <g>
          <line class="cls-19" x1="145.1" y1="1584.4" x2="145.1" y2="1587.4"/>
          <line class="cls-19" x1="145.1" y1="1590.4" x2="145.1" y2="1593.4"/>
          <line class="cls-19" x1="140.6" y1="1588.9" x2="143.6" y2="1588.9"/>
          <line class="cls-19" x1="146.6" y1="1588.9" x2="149.6" y2="1588.9"/>
        </g>
        <g>
          <line class="cls-19" x1="148.3" y1="1585.7" x2="146.2" y2="1587.8"/>
          <line class="cls-19" x1="144.1" y1="1589.9" x2="142" y2="1592.1"/>
          <line class="cls-19" x1="142" y1="1585.7" x2="144.1" y2="1587.8"/>
          <line class="cls-19" x1="146.2" y1="1589.9" x2="148.3" y2="1592.1"/>
        </g>
      </g>
      <g>
        <circle class="cls-35" cx="84.3" cy="1957.2" r="49"/>
        <circle class="cls-35" cx="145.9" cy="1919.1" r="55.4" transform="translate(-1777 2001.1) rotate(-88.1)"/>
        <path class="cls-12" d="M170.3,1921.3H59.5c-3.1,0-5.7-2.5-5.7-5.7v-23.8c0-3.1,2.5-5.7,5.7-5.7h110.8c3.1,0,5.7,2.5,5.7,5.7v23.8c.1,3.2-2.6,5.7-5.7,5.7Z"/>
        <path class="cls-12" d="M170.3,1957.2H59.5c-3.1,0-5.7-2.5-5.7-5.7v-23.8c0-3.1,2.5-5.7,5.7-5.7h110.8c3.1,0,5.7,2.5,5.7,5.7v23.8c.1,3.2-2.6,5.7-5.7,5.7Z"/>
        <path class="cls-12" d="M170.3,1993.4H59.5c-3.1,0-5.7-2.5-5.7-5.7v-23.8c0-3.1,2.5-5.7,5.7-5.7h110.8c3.1,0,5.7,2.5,5.7,5.7v23.8c.1,3.2-2.6,5.7-5.7,5.7Z"/>
        <line class="cls-19" x1="34.5" y1="1994.2" x2="190.6" y2="1994.2"/>
        <line class="cls-19" x1="191.4" y1="1994.2" x2="194.4" y2="1994.2"/>
        <line class="cls-19" x1="196.4" y1="1994.2" x2="199.4" y2="1994.2"/>
        <line class="cls-19" x1="29.5" y1="1994.2" x2="32.5" y2="1994.2"/>
        <circle class="cls-2" cx="70.3" cy="1904.7" r="3.8"/>
        <circle class="cls-25" cx="84.2" cy="1904.7" r="3.8"/>
        <circle class="cls-6" cx="98.3" cy="1904.7" r="3.8"/>
        <line class="cls-19" x1="133.9" y1="1899.7" x2="133.9" y2="1909.7"/>
        <line class="cls-19" x1="136.9" y1="1899.7" x2="136.9" y2="1909.7"/>
        <line class="cls-19" x1="139.9" y1="1899.7" x2="139.9" y2="1909.7"/>
        <line class="cls-19" x1="142.9" y1="1899.7" x2="142.9" y2="1909.7"/>
        <line class="cls-19" x1="145.9" y1="1899.7" x2="145.9" y2="1909.7"/>
        <line class="cls-19" x1="148.9" y1="1899.7" x2="148.9" y2="1909.7"/>
        <line class="cls-19" x1="151.9" y1="1899.7" x2="151.9" y2="1909.7"/>
        <line class="cls-19" x1="154.9" y1="1899.7" x2="154.9" y2="1909.7"/>
        <line class="cls-19" x1="160.9" y1="1899.7" x2="160.9" y2="1909.7"/>
        <line class="cls-19" x1="157.9" y1="1899.7" x2="157.9" y2="1909.7"/>
        <line class="cls-19" x1="163.9" y1="1899.7" x2="163.9" y2="1909.7"/>
        <circle class="cls-19" cx="97.5" cy="1904.7" r="4.5"/>
        <circle class="cls-19" cx="83.5" cy="1904.7" r="4.5"/>
        <circle class="cls-19" cx="69.5" cy="1904.7" r="4.5"/>
        <line class="cls-19" x1="133.9" y1="1934.7" x2="133.9" y2="1944.7"/>
        <line class="cls-19" x1="136.9" y1="1934.7" x2="136.9" y2="1944.7"/>
        <line class="cls-19" x1="139.9" y1="1934.7" x2="139.9" y2="1944.7"/>
        <line class="cls-19" x1="142.9" y1="1934.7" x2="142.9" y2="1944.7"/>
        <line class="cls-19" x1="145.9" y1="1934.7" x2="145.9" y2="1944.7"/>
        <line class="cls-19" x1="148.9" y1="1934.7" x2="148.9" y2="1944.7"/>
        <line class="cls-19" x1="151.9" y1="1934.7" x2="151.9" y2="1944.7"/>
        <line class="cls-19" x1="154.9" y1="1934.7" x2="154.9" y2="1944.7"/>
        <line class="cls-19" x1="160.9" y1="1934.7" x2="160.9" y2="1944.7"/>
        <line class="cls-19" x1="157.9" y1="1934.7" x2="157.9" y2="1944.7"/>
        <line class="cls-19" x1="163.9" y1="1934.7" x2="163.9" y2="1944.7"/>
        <line class="cls-19" x1="133.9" y1="1970.7" x2="133.9" y2="1980.7"/>
        <line class="cls-19" x1="136.9" y1="1970.7" x2="136.9" y2="1980.7"/>
        <circle class="cls-2" cx="70.3" cy="1939.7" r="3.8"/>
        <circle class="cls-25" cx="84.2" cy="1939.7" r="3.8"/>
        <circle class="cls-6" cx="98.3" cy="1939.7" r="3.8"/>
        <line class="cls-19" x1="139.9" y1="1970.7" x2="139.9" y2="1980.7"/>
        <line class="cls-19" x1="142.9" y1="1970.7" x2="142.9" y2="1980.7"/>
        <line class="cls-19" x1="145.9" y1="1970.7" x2="145.9" y2="1980.7"/>
        <line class="cls-19" x1="148.9" y1="1970.7" x2="148.9" y2="1980.7"/>
        <line class="cls-19" x1="151.9" y1="1970.7" x2="151.9" y2="1980.7"/>
        <line class="cls-19" x1="154.9" y1="1970.7" x2="154.9" y2="1980.7"/>
        <line class="cls-19" x1="160.9" y1="1970.7" x2="160.9" y2="1980.7"/>
        <line class="cls-19" x1="157.9" y1="1970.7" x2="157.9" y2="1980.7"/>
        <line class="cls-19" x1="163.9" y1="1970.7" x2="163.9" y2="1980.7"/>
        <circle class="cls-19" cx="97.5" cy="1939.7" r="4.5"/>
        <circle class="cls-19" cx="83.5" cy="1939.7" r="4.5"/>
        <circle class="cls-19" cx="69.5" cy="1939.7" r="4.5"/>
        <circle class="cls-2" cx="70.3" cy="1975.7" r="3.8"/>
        <circle class="cls-25" cx="84.2" cy="1975.7" r="3.8"/>
        <circle class="cls-6" cx="98.3" cy="1975.7" r="3.8"/>
        <circle class="cls-19" cx="97.5" cy="1975.8" r="4.5"/>
        <circle class="cls-19" cx="83.5" cy="1975.8" r="4.5"/>
        <circle class="cls-19" cx="69.5" cy="1975.8" r="4.5"/>
        <g>
          <line class="cls-18" x1="25" y1="1866.8" x2="25" y2="1871.7"/>
          <line class="cls-18" x1="25" y1="1874.7" x2="25" y2="1879.6"/>
          <line class="cls-18" x1="18.6" y1="1873.2" x2="23.5" y2="1873.2"/>
          <line class="cls-18" x1="26.5" y1="1873.2" x2="31.4" y2="1873.2"/>
          <line class="cls-18" x1="201.9" y1="1858.8" x2="201.9" y2="1863.7"/>
          <line class="cls-18" x1="201.9" y1="1866.7" x2="201.9" y2="1871.6"/>
          <line class="cls-18" x1="195.6" y1="1865.2" x2="200.4" y2="1865.2"/>
          <line class="cls-18" x1="203.4" y1="1865.2" x2="208.3" y2="1865.2"/>
          <g>
            <g>
              <line class="cls-18" x1="39" y1="1931.7" x2="39" y2="1934.7"/>
              <line class="cls-18" x1="39" y1="1937.6" x2="39" y2="1940.7"/>
            </g>
            <g>
              <line class="cls-18" x1="34.5" y1="1936.2" x2="37.5" y2="1936.2"/>
              <line class="cls-18" x1="40.4" y1="1936.2" x2="43.5" y2="1936.2"/>
            </g>
            <g>
              <line class="cls-18" x1="35.8" y1="1933" x2="38" y2="1935.2"/>
              <line class="cls-18" x1="40" y1="1937.2" x2="42.2" y2="1939.4"/>
            </g>
            <g>
              <line class="cls-18" x1="35.8" y1="1939.4" x2="38" y2="1937.2"/>
              <line class="cls-18" x1="40" y1="1935.2" x2="42.2" y2="1933"/>
            </g>
          </g>
          <g>
            <g>
              <line class="cls-18" x1="191.1" y1="1919.7" x2="191.1" y2="1922.7"/>
              <line class="cls-18" x1="191.1" y1="1925.6" x2="191.1" y2="1928.7"/>
            </g>
            <g>
              <line class="cls-18" x1="186.6" y1="1924.2" x2="189.6" y2="1924.2"/>
              <line class="cls-18" x1="192.4" y1="1924.2" x2="195.6" y2="1924.2"/>
            </g>
            <g>
              <line class="cls-18" x1="187.8" y1="1921" x2="189.9" y2="1923.2"/>
              <line class="cls-18" x1="192.1" y1="1925.2" x2="194.2" y2="1927.4"/>
            </g>
            <g>
              <line class="cls-18" x1="187.8" y1="1927.4" x2="189.9" y2="1925.2"/>
              <line class="cls-18" x1="192.1" y1="1923.2" x2="194.2" y2="1921"/>
            </g>
          </g>
          <circle class="cls-18" cx="123" cy="1867.2" r="2"/>
          <circle class="cls-18" cx="9.9" cy="1972.3" r="2"/>
          <circle class="cls-18" cx="212.9" cy="1977.2" r="2"/>
        </g>
        <path class="cls-26" d="M175.4,1892v3.8c0-3-2.5-5.4-5.6-5.4H60c-3.1,0-5.6,2.4-5.6,5.4v-3.8c0-3,2.5-5.4,5.6-5.4h109.8c3.1,0,5.6,2.5,5.6,5.4Z"/>
        <path class="cls-26" d="M175.4,1964.2v3.8c0-3-2.5-5.4-5.6-5.4H60c-3.1,0-5.6,2.4-5.6,5.4v-3.8c0-3,2.5-5.4,5.6-5.4h109.8c3.1,0,5.6,2.4,5.6,5.4Z"/>
        <path class="cls-26" d="M54.5,1951.2v-2.8c0,3,2.5,5.4,5.6,5.4h109.8c3.1,0,5.6-2.4,5.6-5.4v2.8c0,3-2.5,5.4-5.6,5.4H60c-3,0-5.5-2.4-5.5-5.4Z"/>
      </g>
      <g>
        <line class="cls-23" x1="121" y1="2285.5" x2="124" y2="2285.5"/>
        <line class="cls-23" x1="17" y1="2285.5" x2="119" y2="2285.5"/>
        <line class="cls-23" x1="10" y1="2285.5" x2="15" y2="2285.5"/>
        <line class="cls-23" x1="1" y1="2285.5" x2="8" y2="2285.5"/>
        <g>
          <path class="cls-4" d="M54.5,2243v42.5h-27.5v-40.5c0-1.1.9-2,2-2h25.5Z"/>
          <line class="cls-23" x1="33" y1="2248.5" x2="45" y2="2248.5"/>
          <line class="cls-23" x1="33" y1="2255.5" x2="45" y2="2255.5"/>
          <line class="cls-23" x1="33" y1="2262.5" x2="45" y2="2262.5"/>
          <g>
            <circle class="cls-7" cx="39" cy="2272" r="4.5"/>
            <path class="cls-4" d="M43.5,2272c0,2.5-2,4.5-4.5,4.5s-1.4-.2-2-.5c-.3-.6-.5-1.3-.5-2,0-2.5,2-4.5,4.5-4.5s1.4.2,2,.5c.3.6.5,1.3.5,2Z"/>
            <circle class="cls-23" cx="39" cy="2272" r="4.5"/>
          </g>
          <path class="cls-23" d="M25.5,2239.5h27c1.1,0,2,.9,2,2v44h-31v-44c0-1.1.9-2,2-2Z"/>
          <path class="cls-4" d="M95.5,2223v62.5h-37.5v-60.5c0-1.1.9-2,2-2h35.5Z"/>
          <line class="cls-23" x1="64" y1="2238.5" x2="86" y2="2238.5"/>
          <line class="cls-23" x1="64" y1="2245.5" x2="86" y2="2245.5"/>
          <line class="cls-23" x1="64" y1="2252.5" x2="86" y2="2252.5"/>
          <g>
            <circle class="cls-7" cx="76" cy="2272" r="5.5"/>
            <path class="cls-4" d="M81.5,2272c0,3-2.5,5.5-5.5,5.5s-1.7-.2-2.5-.6c-.4-.7-.6-1.6-.6-2.5,0-3,2.5-5.5,5.5-5.5s1.7.2,2.5.6c.4.7.6,1.6.6,2.5Z"/>
            <circle class="cls-23" cx="76" cy="2272" r="5.5"/>
          </g>
          <path class="cls-23" d="M56.5,2219.5h37c1.1,0,2,.9,2,2v64h-41v-64c0-1.1.9-2,2-2Z"/>
        </g>
        <circle class="cls-7" cx="96.5" cy="2264.5" r="24.5"/>
        <circle class="cls-9" cx="97" cy="2264" r="21.5"/>
        <polygon class="cls-23" points="94.5 2255.3 86.5 2256.4 86.5 2262.5 94.5 2262.5 94.5 2255.3"/>
        <polygon class="cls-23" points="106.5 2253.5 97.5 2254.8 97.5 2262.5 106.5 2262.5 106.5 2253.5"/>
        <polygon class="cls-23" points="94.5 2272.7 86.5 2271.6 86.5 2265.5 94.5 2265.5 94.5 2272.7"/>
        <polygon class="cls-23" points="106.5 2274.5 97.5 2273.2 97.5 2265.5 106.5 2265.5 106.5 2274.5"/>
        <circle class="cls-23" cx="71.5" cy="2209.5" r="2"/>
        <circle class="cls-29" cx="27" cy="2225.4" r="9"/>
        <g>
          <line class="cls-23" x1="121.5" y1="2199" x2="121.5" y2="2202"/>
          <line class="cls-23" x1="121.5" y1="2209" x2="121.5" y2="2212"/>
          <line class="cls-23" x1="115" y1="2205.5" x2="118" y2="2205.5"/>
          <line class="cls-23" x1="125" y1="2205.5" x2="128" y2="2205.5"/>
        </g>
        <g>
          <line class="cls-23" x1="132.5" y1="2251" x2="132.5" y2="2253"/>
          <line class="cls-23" x1="132.5" y1="2258" x2="132.5" y2="2260"/>
          <line class="cls-23" x1="128" y1="2255.5" x2="130" y2="2255.5"/>
          <line class="cls-23" x1="135" y1="2255.5" x2="137" y2="2255.5"/>
          <line class="cls-23" x1="135.7" y1="2252.3" x2="134.3" y2="2253.7"/>
          <line class="cls-23" x1="130.7" y1="2257.3" x2="129.3" y2="2258.7"/>
          <line class="cls-23" x1="129.3" y1="2252.3" x2="130.7" y2="2253.7"/>
          <line class="cls-23" x1="134.3" y1="2257.3" x2="135.7" y2="2258.7"/>
        </g>
        <g>
          <line class="cls-23" x1="41.5" y1="2195" x2="41.5" y2="2197"/>
          <line class="cls-23" x1="41.5" y1="2202" x2="41.5" y2="2204"/>
          <line class="cls-23" x1="37" y1="2199.5" x2="39" y2="2199.5"/>
          <line class="cls-23" x1="44" y1="2199.5" x2="46" y2="2199.5"/>
        </g>
      </g>
    </g>
  </g>
</svg>