<?xml version="1.0" encoding="utf-8"?>
<!-- Generator: Adobe Illustrator 25.3.1, SVG Export Plug-In . SVG Version: 6.00 Build 0)  -->
<svg version="1.1" id="Layer_1" xmlns="http://www.w3.org/2000/svg" xmlns:xlink="http://www.w3.org/1999/xlink" x="0px" y="0px"
	 viewBox="0 0 210 32" style="enable-background:new 0 0 210 32;" xml:space="preserve">
<style type="text/css">
	.st0{fill:#FFFFFF;}
</style>
<g>
	<path class="st0" d="M1.8,5C1.3,5.5,1,6.1,1,6.8v22.1h5.4V4.3H3.7C3,4.3,2.4,4.5,1.8,5z"/>
	<path class="st0" d="M18.8,4.3h-7.5c-0.8,0-1.4,0.2-1.9,0.8C8.9,5.5,8.6,6.2,8.6,6.9V29h8.8c2.5,0,4.4-0.1,5.5-0.5
		c1.3-0.4,2.4-0.9,3.6-1.7c1.3-0.9,2.4-2.4,3.2-4.1c0.7-1.8,1.1-3.7,1.1-5.9c0-4.1-1-7.2-2.9-9.3C25.8,5.3,22.8,4.3,18.8,4.3z
		 M23.6,22.6c-1.1,1.2-3,1.9-5.4,1.9h-4.3V8.5h5c2.2,0,3.9,0.6,4.9,1.9c1.1,1.3,1.6,3.4,1.6,6.1C25.3,19.5,24.8,21.5,23.6,22.6z"/>
	<path class="st0" d="M42.4,9.8c-1.4,0-2.7,0.1-4,0.5c-1.3,0.4-2.4,0.9-3.4,1.6c-1,0.8-1.8,1.8-2.4,3.1c-0.6,1.3-0.9,2.9-0.9,4.7
		v9.2h5.3v-9.8c0-1.4,0.4-2.5,1.1-3.1c0.7-0.6,1.8-1,3.3-1h1.7V9.9h-0.4L42.4,9.8L42.4,9.8z"/>
	<path class="st0" d="M47.6,9.8h-2.7v19.1h5.3V12.3c0-0.6-0.3-1.2-0.8-1.7S48.3,9.8,47.6,9.8z"/>
	<path class="st0" d="M66.7,9.8c-1.2,0-2,0.6-2.4,1.7l-3.6,11.7l-4-13.4H51l7.1,19.1h5.4l7.2-19.1L66.7,9.8z"/>
	<path class="st0" d="M47.2,2.9c1.6,0,2.9,1.2,2.9,2.8c0,1.5-1.3,2.8-2.9,2.8s-2.9-1.2-2.9-2.8S45.6,2.9,47.2,2.9z"/>
	<path class="st0" d="M86.6,11.9c-1.6-1.7-4-2.6-7.1-2.6c-2.9,0-5.1,0.9-6.7,2.6c-1.6,1.7-2.4,4.1-2.4,7.2c0,3.2,0.8,5.7,2.4,7.4
		c1.6,1.8,3.9,2.6,6.7,2.6c2.4,0,4.4-0.6,5.9-1.6s2.6-2.6,3.2-4.6h-3.8c-0.6,0-1.1,0.1-1.4,0.4c-0.4,0.2-0.5,0.4-0.6,0.6
		c-0.1,0.1-0.3,0.3-0.4,0.4c-0.1,0.1-0.3,0.2-0.4,0.2c-0.6,0.4-1.4,0.5-2.2,0.5c-1.3,0-2.3-0.4-2.9-1.1c-0.7-0.7-1.1-1.8-1.1-3.3
		h13.2c0.1-0.1,0.1-0.3,0.1-0.5v-0.3v-0.5C89,16.1,88.2,13.7,86.6,11.9z M75.8,17.3c0.1-1.2,0.4-2.2,1.1-2.9c0.7-0.6,1.6-1,2.7-1
		c1.2,0,2.1,0.4,2.8,1c0.6,0.6,0.9,1.6,1.1,2.9H75.8z"/>
</g>
<g>
	<path class="st0" d="M108.9,29.1h-9.1V11.3c0-1.1,0.9-2.1,2.1-2.1h7.4c3.8,0,6.2,1.5,6.2,5.1c0,2.1-0.9,3.4-2.4,4.1
		c2,0.8,3.1,2.1,3.1,4.7C116.2,27.2,113.2,29.1,108.9,29.1z M108.4,12.6h-4.5v4.3h4.6c1.6,0,2.9-0.5,2.9-2.1S110.2,12.6,108.4,12.6z
		 M108.6,20.4h-4.7v5.2h4.8c2,0,3.3-0.6,3.3-2.6C111.9,20.9,110.7,20.4,108.6,20.4z"/>
	<path class="st0" d="M120.2,9.2h3.9l4,15.2L132,9.2h6.1v20h-3.9V13.1l-4.1,16.1H126L122,13.1v16.1h-3.9V11.3
		C118.1,10.2,119,9.2,120.2,9.2z"/>
	<path class="st0" d="M153.2,19.6c0.9,0.3,1.5,0.8,1.9,1.4c0.4,0.6,0.5,1.6,0.6,2.9l0.1,3.9c0,0.6,0.3,1.1,0.6,1.3h-4.5
		c-0.2-0.4-0.3-0.8-0.4-1.2c-0.1-0.3-0.1-1.4-0.1-3.4c-0.1-2.4-0.6-3.1-3-3.1h-4.4v7.7h-4.1V11.3c0-1.1,0.9-2.1,2.1-2.1h7.6
		c4.1,0,6.4,1.6,6.4,5.7C156.2,17.4,155.1,19.1,153.2,19.6z M149.3,12.6h-5.1v5.3h4.8c1.9,0,3-0.7,3-2.6
		C152.1,13.4,151.1,12.6,149.3,12.6z"/>
</g>
<g>
	<path class="st0" d="M91.8,5.8c-0.1-0.1-0.3-0.3-0.5-0.4c0.4-0.1,0.7-0.2,0.9-0.4c0.2-0.2,0.3-0.5,0.3-0.9c0-0.3-0.1-0.5-0.2-0.7
		c-0.1-0.2-0.4-0.4-0.6-0.4s-0.6-0.1-1.1-0.1h-0.1h-1.9v4.6h0.9V5.5h0.2c0.2,0,0.4,0,0.5,0.1c0.1,0,0.1,0.1,0.3,0.1
		c0.1,0.1,0.3,0.4,0.5,0.7l0.6,1h1.1l-0.6-0.9C92.1,6.1,91.9,5.9,91.8,5.8z M90.6,4.7c-0.1,0-0.2,0-0.3,0h-0.7V3.5h0.7
		c0.1,0,0.1,0,0.2,0c0.2,0,0.4,0,0.4,0c0.1,0,0.3,0.1,0.4,0.2c0.1,0.1,0.1,0.2,0.1,0.4c0,0.1-0.1,0.3-0.1,0.4
		c-0.1,0.1-0.1,0.1-0.3,0.2C91.1,4.7,90.9,4.7,90.6,4.7z"/>
	<path class="st0" d="M93.8,1.9c-0.9-0.8-2-1.3-3.2-1.3c-1.2,0-2.4,0.5-3.2,1.3C86.5,2.8,86,3.8,86,5.1s0.5,2.4,1.4,3.2
		c0.8,0.8,1.9,1.3,3.2,1.3c1.2,0,2.4-0.5,3.2-1.3c0.9-0.8,1.4-1.9,1.4-3.2S94.6,2.7,93.8,1.9z M93.1,7.6c-0.6,0.6-1.6,1-2.6,1
		c-1,0-1.9-0.4-2.6-1S86.9,6,86.9,5s0.4-1.9,1.1-2.6s1.6-1.1,2.6-1.1c1,0,1.9,0.4,2.6,1.1C93.8,3.1,94.2,4,94.2,5
		C94.1,6,93.8,7,93.1,7.6z"/>
</g>
<g>
	<path class="st0" d="M163.8,9.7h10.5c3,0,5.8,1.5,5.8,5.6c0,3.7-2.4,5.7-6.7,5.7h-7.6l0,8.2h-2L163.8,9.7z M165.9,19.1h7.8
		c3.4,0,4.3-1.5,4.3-3.8c0-2.9-1.6-3.8-3.9-3.8h-8.2V19.1z"/>
	<path class="st0" d="M182.4,15h2v3.2h0.1c0.7-1.7,2.1-3.7,5.4-3.7c0.6,0,0.9,0,1.2,0.1v2.1c-0.6-0.1-1.2-0.2-1.8-0.2
		c-2.2,0-4.8,1.3-4.8,5.4l0,7.2h-2L182.4,15z"/>
	<path class="st0" d="M200,14.6c5.4,0,8,3.6,8,7.5c0,3.9-2.6,7.5-8,7.5c-5.4,0-8-3.6-8-7.5C192,18.1,194.5,14.6,200,14.6z M200,27.9
		c3.8,0,6-2.4,6-5.8c0-3.4-2.2-5.8-6-5.8c-3.8,0-6,2.4-6,5.8C194,25.5,196.2,27.9,200,27.9z"/>
</g>
</svg>
