<svg id="svg_machine_not_protect_layer_slider" data-name="Layer 1" xmlns="http://www.w3.org/2000/svg"
  viewBox="0 0 20 20">
  <title>information-1</title>
  <path className="cls-machine-not-protect"
    d="M301.71,433a10,10,0,1,1,10-10A10,10,0,0,1,301.71,433Zm0-18a8,8,0,1,0,8,8A8,8,0,0,0,301.71,414.94Zm0,12.56a.91.91,0,1,1,.91-.91A.91.91,0,0,1,301.71,427.5Zm0-2.73a.91.91,0,0,1-.91-.91V418.5a.91.91,0,1,1,1.82,0v5.36A.91.91,0,0,1,301.71,424.77Z"
    transform="translate(-291.71 -412.95)"></path>
</svg>