<svg x="0px" y="0px" width="50px" height="30px" viewBox="0 0 50 30" enableBackground="new 0 0 50 30" xmlSpace="preserve">
                  <g>
                    <path fill="#F3F3F3" d="M49,3.01v23.98C49,28.1,48.1,29,47,29H3c-1.1,0-2-0.9-2-2.01V3.01C1,1.9,1.9,1,3,1h44
                                C48.1,1,49,1.9,49,3.01z" />
                    <path fill="#CCCCCB" d="M47,0H3C1.34,0,0,1.35,0,3.01v23.98C0,28.65,1.34,30,3,30h44c1.66,0,3-1.35,3-3.01V3.01
                                C50,1.35,48.66,0,47,0z M49,26.99C49,28.1,48.1,29,47,29H3c-1.1,0-2-0.9-2-2.01V3.01C1,1.9,1.9,1,3,1h44c1.1,0,2,0.9,2,2.01V26.99z
                                " />
                  </g>
                  <polygon fill="#636363" points="33,10 33,15.99 23,16 23,21 17,15 23,9 23,14 31,14 31,10 " />
                </svg>